0
SECTION
2
HEADER
9
$INSUNITS
70
4
9
$ACADVER
1
AC1014
9
$HANDSEED
5
FFFF
0
ENDSEC
0
SECTION
2
TABLES
0
TABLE
2
VPORT
5
8
100
AcDbSymbolTable
0
ENDTAB
0
TABLE
2
LTYPE
5
5
100
AcDbSymbolTable
0
LTYPE
5
14
100
AcDbSymbolTableRecord
100
AcDbLinetypeTableRecord
2
BYBLOCK
70
0
0
LTYPE
5
15
100
AcDbSymbolTableRecord
100
AcDbLinetypeTableRecord
2
BYLAYER
70
0
0
ENDTAB
0
TABLE
2
LAYER
5
2
100
AcDbSymbolTable
70
2
0
LAYER
5
50
100
AcDbSymbolTableRecord
100
AcDbLayerTableRecord
2
0
70
0
6
CONTINUOUS
0
ENDTAB
0
TABLE
2
STYLE
5
3
100
AcDbSymbolTable
70
1
0
STYLE
5
11
100
AcDbSymbolTableRecord
100
AcDbTextStyleTableRecord
2
STANDARD
70
0
0
ENDTAB
0
TABLE
2
VIEW
5
6
100
AcDbSymbolTable
70
0
0
ENDTAB
0
TABLE
2
UCS
5
7
100
AcDbSymbolTable
70
0
0
ENDTAB
0
TABLE
2
APPID
5
9
100
AcDbSymbolTable
70
2
0
APPID
5
12
100
AcDbSymbolTableRecord
100
AcDbRegAppTableRecord
2
ACAD
70
0
0
ENDTAB
0
TABLE
2
DIMSTYLE
5
A
100
AcDbSymbolTable
70
1
0
ENDTAB
0
TABLE
2
BLOCK_RECORD
5
1
100
AcDbSymbolTable
70
1
0
BLOCK_RECORD
5
1F
100
AcDbSymbolTableRecord
100
AcDbBlockTableRecord
2
*MODEL_SPACE
0
BLOCK_RECORD
5
1B
100
AcDbSymbolTableRecord
100
AcDbBlockTableRecord
2
*PAPER_SPACE
0
ENDTAB
0
ENDSEC
0
SECTION
2
BLOCKS
0
BLOCK
5
20
100
AcDbEntity
100
AcDbBlockBegin
2
*MODEL_SPACE
0
ENDBLK
5
21
100
AcDbEntity
100
AcDbBlockEnd
0
BLOCK
5
1C
100
AcDbEntity
100
AcDbBlockBegin
2
*PAPER_SPACE
0
ENDBLK
5
1D
100
AcDbEntity
100
AcDbBlockEnd
0
ENDSEC
0
SECTION
2
ENTITIES
0
CIRCLE
5
100
100
AcDbEntity
8
0
100
AcDbCircle
10
34
20
-8.9999999999999343
30
0
40
1.0999999999999985
0
CIRCLE
5
101
100
AcDbEntity
8
0
100
AcDbCircle
10
-29
20
-9.0000000000000053
30
0
40
1.0999999999999985
0
CIRCLE
5
102
100
AcDbEntity
8
0
100
AcDbCircle
10
-34
20
9
30
0
40
1.0999999999999985
0
CIRCLE
5
103
100
AcDbEntity
8
0
100
AcDbCircle
10
29.000000000000004
20
8.9999998780814803
30
0
40
1.0999999999999985
0
CIRCLE
5
104
100
AcDbEntity
8
0
100
AcDbCircle
10
29
20
-8.9999999999999307
30
0
40
1.0999999999999985
0
CIRCLE
5
105
100
AcDbEntity
8
0
100
AcDbCircle
10
-34
20
-9.0000000000000071
30
0
40
1.0999999999999985
0
CIRCLE
5
106
100
AcDbEntity
8
0
100
AcDbCircle
10
-29.000000000000004
20
8.9999998780814074
30
0
40
1.0999999999999985
0
CIRCLE
5
107
100
AcDbEntity
8
0
100
AcDbCircle
10
34
20
9.0000000000000728
30
0
40
1.0999999999999985
0
LWPOLYLINE
5
108
100
AcDbEntity
8
0
100
AcDbPolyline
90
8
70
1
43
0.0
10
22.599999999999998
20
-21.699999999999999
10
22.599999999999998
20
-11.300000000000001
42
0.41421356237309503
10
21.799999999999997
20
-10.5
10
21.600000000000001
20
-10.499999999999998
42
0.41421356237309503
10
20.800000000000001
20
-11.299999999999999
10
20.800000000000001
20
-21.699999999999999
42
0.41421356237309503
10
21.600000000000001
20
-22.5
10
21.799999999999997
20
-22.5
42
0.41421356237309503
0
LWPOLYLINE
5
109
100
AcDbEntity
8
0
100
AcDbPolyline
90
8
70
1
43
0.0
10
-20.800000000000001
20
-21.699999999999999
10
-20.800000000000001
20
-11.299999999999997
42
0.41421356237309503
10
-21.600000000000001
20
-10.499999999999996
10
-21.799999999999997
20
-10.499999999999998
42
0.41421356237309503
10
-22.599999999999998
20
-11.299999999999999
10
-22.599999999999998
20
-21.699999999999999
42
0.41421356237309503
10
-21.799999999999997
20
-22.5
10
-21.600000000000001
20
-22.5
42
0.41421356237309503
0
LWPOLYLINE
5
110
100
AcDbEntity
8
0
100
AcDbPolyline
90
24
70
1
43
0.0
10
-35.5
20
-25
42
-0.4142135623730937
10
-37.5
20
-23
10
-37.5
20
-12.000000000000039
10
-36.5
20
-12.000000000000039
10
-36.5
20
-4.9999999999999982
10
-11.099999999999998
20
-4.9999999999999982
10
-11.099999999999998
20
5.0000000000000018
10
-36.5
20
5.0000000000000018
10
-36.5
20
11.999999999999977
10
-37.5
20
11.999999999999993
10
-37.5
20
23
42
-0.4142135623730937
10
-35.5
20
25
10
35.5
20
25
42
-0.4142135623730937
10
37.5
20
23
10
37.5
20
12.000000000000046
10
36.5
20
12.000000000000046
10
36.5
20
5.0000000000000746
10
11.099999999999998
20
5.0000000000000746
10
11.099999999999998
20
-4.9999999999999254
10
36.5
20
-4.9999999999999245
10
36.5
20
-11.999999999999972
10
37.5
20
-12.000000000000037
10
37.5
20
-23
42
-0.4142135623730937
10
35.5
20
-25
0
LWPOLYLINE
5
111
100
AcDbEntity
8
0
100
AcDbPolyline
90
4
70
1
43
0.0
10
-35
20
23
10
-30.600000000000001
20
23
10
-30.600000000000001
20
14.199999999999999
10
-35
20
14.199999999999999
0
LWPOLYLINE
5
112
100
AcDbEntity
8
0
100
AcDbPolyline
90
4
70
1
43
0.0
10
-33.5
20
-12.799999999999997
10
-28.420000000000002
20
-12.799999999999997
10
-28.420000000000002
20
-19
10
-33.5
20
-19
0
LWPOLYLINE
5
113
100
AcDbEntity
8
0
100
AcDbPolyline
90
167
70
1
43
0.0
10
7.0630765624415179
20
-20.681106977556986
10
7.0630765624415144
20
-24.181106977556965
10
7.0619765624415205
20
-24.187506977556971
10
7.0317765624415269
20
-24.358506977556964
10
7.0228765624415264
20
-24.383006977556967
10
6.9360765624415297
20
-24.533406977556965
10
6.9192765624415262
20
-24.553306977556957
10
6.7862765624415182
20
-24.665006977556967
10
6.7637765624415174
20
-24.678006977556961
10
6.600576562441514
20
-24.737406977556962
10
6.590876562441526
20
-24.739106977556958
10
6.5814765624415266
20
-24.741606977556962
10
6.4978765624415296
20
-24.748906977556963
10
6.4946765624415246
20
-24.749506977556965
10
-5.8185234375584196
20
-24.749506977556965
10
-5.8245234375584234
20
-24.748406977556961
10
-6.310123437558425
20
-24.667606977556964
10
-6.3226234375584136
20
-24.664406977556965
10
-6.3278234375584299
20
-24.661506977556968
10
-6.3334234375584311
20
-24.659606977556969
10
-6.7669234375584066
20
-24.425706977556978
10
-6.7777234375584063
20
-24.418606977556969
10
-6.7817234375584148
20
-24.414306977556972
10
-6.7863234375584183
20
-24.41060697755697
10
-7.1207234375584241
20
-24.048906977556975
10
-7.1286234375584092
20
-24.03870697755697
10
-7.1310234375584249
20
-24.033306977556972
10
-7.1342234375584104
20
-24.028406977556969
10
-7.3334234375584098
20
-23.577906977556971
10
-7.3376234375584106
20
-23.565606977556975
10
-7.337923437558417
20
-23.561206977556974
10
-7.3392234375584033
20
-23.556906977556977
10
-7.3861234375584042
20
-23.185706977556968
10
-7.3869234375584094
20
-23.181106977556976
10
-7.386923437558405
20
-20.67780697755699
10
-7.4009234375583901
20
-20.517206977556995
10
-7.5118234375584017
20
-20.212606977556987
10
-7.7181234375583898
20
-19.966806977556992
10
-7.9959234375583801
20
-19.806406977556989
10
-8.3185234375583885
20
-19.749506977556987
10
-10.018523437558402
20
-19.749506977556983
10
-10.024523437558388
20
-19.748406977556982
10
-10.510123437558381
20
-19.667606977556986
10
-10.522623437558387
20
-19.664406977556979
10
-10.527823437558386
20
-19.661506977556982
10
-10.533423437558387
20
-19.659606977556983
10
-10.966923437558371
20
-19.425706977556985
10
-10.977723437558389
20
-19.418606977556987
10
-10.981723437558379
20
-19.414306977556983
10
-10.986323437558383
20
-19.410606977556988
10
-11.320723437558389
20
-19.048906977556999
10
-11.328623437558374
20
-19.038706977557005
10
-11.33102343755839
20
-19.033306977556997
10
-11.334223437558375
20
-19.028406977557005
10
-11.533423437558383
20
-18.577906977557006
10
-11.537623437558384
20
-18.565606977557
10
-11.537923437558391
20
-18.561206977556999
10
-11.539223437558377
20
-18.556906977557002
10
-11.586123437558378
20
-18.185706977557004
10
-11.586923437558383
20
-18.181106977557
10
-11.586923437558386
20
-13.667906977557024
10
-11.585823437558375
20
-13.66190697755702
10
-11.505023437558378
20
-13.176306977557029
10
-11.501823437558393
20
-13.163806977557023
10
-11.498923437558396
20
-13.158606977557024
10
-11.497023437558379
20
-13.153006977557023
10
-11.263123437558388
20
-12.719506977557023
10
-11.25602343755839
20
-12.708706977557023
10
-11.251723437558393
20
-12.704706977557024
10
-11.248023437558373
20
-12.70010697755702
10
-10.886323437558367
20
-12.365706977557014
10
-10.87612343755838
20
-12.35780697755702
10
-10.870723437558389
20
-12.355406977557013
10
-10.86582343755838
20
-12.352206977557019
10
-10.415323437558381
20
-12.153006977557011
10
-10.403023437558367
20
-12.148806977557019
10
-10.398623437558392
20
-12.148506977557021
10
-10.394323437558377
20
-12.147206977557017
10
-10.023123437558388
20
-12.100306977557016
10
-10.018523437558402
20
-12.099506977557011
10
-8.3152234375583891
20
-12.099506977557009
10
-8.1546234375583939
20
-12.085506977557019
10
-7.8500234375583968
20
-11.974606977557016
10
-7.6042234375583941
20
-11.768306977557019
10
-7.4438234375583914
20
-11.49050697755702
10
-7.3869234375583961
20
-11.167906977557035
10
-7.3869234375583961
20
-9.3613069775570334
10
-7.3846234375583943
20
-9.355006977557041
10
-7.3835234375584005
20
-9.3485069775570384
10
-7.3801234375583871
20
-9.3427069775570359
10
-7.3779234375583993
20
-9.3364069775570346
10
-7.3736234375583845
20
-9.3313069775570323
10
-7.3702234375583888
20
-9.3255069775570298
10
-7.3651234375583865
20
-9.3213069775570379
10
-7.3609234375583856
20
-9.3162069775570355
10
-7.355123437558392
20
-9.3128069775570399
10
-7.3500234375583897
20
-9.3085069775570339
10
-7.3437234375583973
20
-9.3063069775570373
10
-7.3379234375584037
20
-9.3029069775570328
10
-7.3314234375584011
20
-9.30180697755703
10
-7.3251234375583891
20
-9.2995069775570371
10
7.0012765624415234
20
-9.2995069775570531
10
7.0075765624415158
20
-9.301806977557046
10
7.0140765624415362
20
-9.3029069775570488
10
7.0198765624415298
20
-9.3063069775570533
10
7.0261765624415222
20
-9.3085069775570499
10
7.0312765624415245
20
-9.3128069775570559
10
7.0370765624415181
20
-9.3162069775570515
10
7.0412765624415368
20
-9.3213069775570538
10
7.0463765624415213
20
-9.3255069775570458
10
7.0497765624415347
20
-9.3313069775570483
10
7.0540765624415318
20
-9.3364069775570506
10
7.0562765624415373
20
-9.3427069775570519
10
7.059676562441533
20
-9.3485069775570544
10
7.0607765624415268
20
-9.355006977557057
10
7.0630765624415286
20
-9.3613069775570494
10
7.0630765624415259
20
-11.171206977557041
10
7.0770765624415288
20
-11.331806977557042
10
7.1879765624415182
20
-11.636406977557039
10
7.3942765624415241
20
-11.882206977557042
10
7.6720765624415224
20
-12.042606977557032
10
7.9946765624415299
20
-12.099506977557022
10
10.194676562441503
20
-12.099506977557015
10
10.200676562441489
20
-12.100606977557018
10
10.686276562441508
20
-12.181406977557023
10
10.698776562441497
20
-12.184606977557017
10
10.703976562441513
20
-12.187506977557023
10
10.709576562441514
20
-12.189406977557013
10
11.143076562441498
20
-12.423306977557022
10
11.153876562441498
20
-12.43040697755702
10
11.157876562441489
20
-12.434706977557017
10
11.16247656244151
20
-12.438406977557019
10
11.496876562441498
20
-12.800106977557022
10
11.504776562441501
20
-12.810306977557026
10
11.507176562441499
20
-12.815706977557017
10
11.510376562441502
20
-12.820606977557018
10
11.709576562441509
20
-13.271106977557023
10
11.71377656244151
20
-13.28340697755702
10
11.714076562441498
20
-13.287806977557022
10
11.715376562441502
20
-13.292106977557019
10
11.762276562441485
20
-13.663306977557017
10
11.763076562441508
20
-13.667906977557021
10
11.763076562441503
20
-18.181106977556997
10
11.761976562441491
20
-18.187106977557001
10
11.681176562441495
20
-18.672706977557002
10
11.677976562441492
20
-18.685206977557002
10
11.675076562441495
20
-18.690406977557
10
11.673176562441496
20
-18.696006977557001
10
11.439276562441504
20
-19.129506977556993
10
11.432176562441507
20
-19.140306977556996
10
11.42787656244151
20
-19.144306977556997
10
11.42417656244149
20
-19.14890697755699
10
11.062476562441503
20
-19.483306977557
10
11.052276562441499
20
-19.491206977556992
10
11.046876562441508
20
-19.49360697755699
10
11.041976562441498
20
-19.496806977556993
10
10.591476562441501
20
-19.696006977556991
10
10.579176562441505
20
-19.700206977556995
10
10.574776562441494
20
-19.700506977556991
10
10.570476562441515
20
-19.701806977556995
10
10.199276562441499
20
-19.748706977556996
10
10.194676562441495
20
-19.74950697755699
10
7.9913765624415101
20
-19.749506977556997
10
7.8307765624415149
20
-19.763506977557
10
7.5261765624415187
20
-19.874406977557005
10
7.280376562441516
20
-20.080706977557
10
7.119976562441531
20
-20.358506977556985
0
LWPOLYLINE
5
114
100
AcDbEntity
8
0
100
AcDbPolyline
90
88
70
1
43
0.0
10
16.324129553736022
20
-9.7262651505313862
10
0.42852910670121425
20
-9.7262651505313542
10
0.42352910670121702
20
-9.7280651505313571
10
0.41832910670121848
20
-9.7289651505313586
10
0.41362910670121877
20
-9.7316651505313629
10
0.40862910670121266
20
-9.7334651505313659
10
0.4046291067012131
20
-9.7369651505313577
10
0.3999291067012134
20
-9.7395651505313481
10
0.39652910670121777
20
-9.7436651505313527
10
0.39242910670121312
20
-9.7470651505313484
10
0.38982910670121385
20
-9.7517651505313481
10
0.38632910670121312
20
-9.7557651505313565
10
0.38452910670121909
20
-9.7607651505313626
10
0.38182910670121473
20
-9.7654651505313623
10
0.38092910670122215
20
-9.7706651505313609
10
0.37912910670121924
20
-9.775665150531367
10
0.37912910670120814
20
-23.766865150531338
10
0.38092910670121105
20
-23.771865150531333
10
0.38182910670120362
20
-23.777065150531335
10
0.38452910670120799
20
-23.781765150531335
10
0.38632910670120202
20
-23.786765150531338
10
0.38982910670121163
20
-23.790765150531328
10
0.39242910670121089
20
-23.795465150531328
10
0.39652910670120667
20
-23.798865150531334
10
0.39992910670121118
20
-23.802965150531328
10
0.40462910670121088
20
-23.805565150531336
10
0.40862910670121044
20
-23.809065150531339
10
0.41362910670120767
20
-23.810865150531335
10
0.41832910670120738
20
-23.813565150531339
10
0.4235291067012148
20
-23.81446515053133
10
0.42852910670120314
20
-23.816265150531333
10
16.547829106701172
20
-23.816265150531351
10
16.547829106701176
20
-22.56126623906118
10
16.569129106701176
20
-22.541465150531348
10
16.569129106701176
20
-22.301165150531354
10
16.749729106701171
20
-22.120565150531352
10
16.755829106701171
20
-22.11546515053135
10
16.759829106701172
20
-22.108565150531355
10
16.764329106701176
20
-22.101965150531356
10
16.765029106701171
20
-22.099465150531351
10
16.766429106701171
20
-22.097065150531353
10
16.767729106701175
20
-22.089265150531357
10
16.769829106701174
20
-22.081565150531354
10
16.769129106701175
20
-22.073665150531351
10
16.769129106701175
20
-19.774465150531356
10
16.769729106701174
20
-19.772165150531357
10
16.769129106701175
20
-19.763965150531355
10
16.769129106701175
20
-19.761065150531358
10
16.768729106701176
20
-19.75866515053136
10
16.768129106701178
20
-19.751065150531364
10
16.766929106701173
20
-19.74836515053136
10
16.766429106701175
20
-19.745465150531363
10
16.762529106701177
20
-19.738765150531357
10
16.761529106701179
20
-19.736665150531358
10
16.759929106701176
20
-19.73426515053136
10
16.755829106701178
20
-19.727065150531359
10
16.753929106701179
20
-19.725565150531359
10
16.419129106701174
20
-19.237665150531356
10
16.419129106701178
20
-12.946265150531364
10
16.507229106701182
20
-12.946265150531364
10
16.515929106701183
20
-12.946765150531363
10
16.522829106701177
20
-12.944765150531367
10
16.529929106701179
20
-12.943565150531359
10
16.532929106701182
20
-12.941765150531365
10
16.536229106701182
20
-12.940865150531364
10
16.542029106701179
20
-12.936565150531358
10
16.548329106701182
20
-12.932965150531361
10
16.55382910670118
20
-12.926265150531357
10
16.750229106701184
20
-12.720065150531356
10
16.755829106701182
20
-12.715465150531362
10
16.760129106701186
20
-12.707865150531356
10
16.764929106701182
20
-12.700665150531362
10
16.76542910670118
20
-12.698765150531363
10
16.766429106701185
20
-12.697065150531374
10
16.767929106701185
20
-12.688565150531376
10
16.769929106701184
20
-12.680065150531361
10
16.769129106701183
20
-12.672965150531363
10
16.769129106701183
20
-10.818865150531376
10
16.769829106701184
20
-10.810965150531374
10
16.767729106701182
20
-10.803265150531381
10
16.766429106701185
20
-10.795465150531374
10
16.765029106701185
20
-10.793065150531376
10
16.764329106701187
20
-10.790565150531382
10
16.759829106701186
20
-10.783965150531383
10
16.755829106701185
20
-10.777065150531378
10
16.749729106701185
20
-10.771965150531376
10
16.54782910670119
20
-10.570165150531377
10
16.324129553736022
20
-10.561266507282106
0
LWPOLYLINE
5
115
100
AcDbEntity
8
0
100
AcDbPolyline
90
8
70
1
43
0.0
10
19.050000000000004
20
-8.75
10
18.850000000000009
20
-8.9499999999999957
10
16.709999999999997
20
-8.9499999999999957
10
16.510000000000002
20
-8.75
10
16.510000000000002
20
-6.6099999999999959
10
16.709999999999997
20
-6.4100000000000001
10
18.850000000000009
20
-6.4100000000000001
10
19.050000000000004
20
-6.6099999999999959
0
LWPOLYLINE
5
116
100
AcDbEntity
8
0
100
AcDbPolyline
90
4
70
1
43
0.0
10
18.130000000000003
20
-7.3299999999999965
10
17.430000000000003
20
-7.3299999999999965
10
17.430000000000003
20
-8.0299999999999994
10
18.130000000000003
20
-8.0299999999999994
0
LWPOLYLINE
5
117
100
AcDbEntity
8
0
100
AcDbPolyline
90
8
70
1
43
0.0
10
-16.510000000000005
20
-8.75
10
-16.710000000000001
20
-8.9499999999999957
10
-18.850000000000012
20
-8.9499999999999957
10
-19.050000000000008
20
-8.75
10
-19.050000000000008
20
-6.6099999999999959
10
-18.850000000000012
20
-6.4100000000000001
10
-16.710000000000001
20
-6.4100000000000001
10
-16.510000000000005
20
-6.6099999999999959
0
LWPOLYLINE
5
118
100
AcDbEntity
8
0
100
AcDbPolyline
90
4
70
1
43
0.0
10
-17.430000000000007
20
-7.3299999999999965
10
-18.130000000000006
20
-7.3299999999999965
10
-18.130000000000006
20
-8.0299999999999994
10
-17.430000000000007
20
-8.0299999999999994
0
LWPOLYLINE
5
119
100
AcDbEntity
8
0
100
AcDbPolyline
90
8
70
1
43
0.0
10
-16.710000000000001
20
8.9500000000000046
10
-16.510000000000005
20
8.7500000000000089
10
-16.510000000000005
20
6.6100000000000048
10
-16.710000000000001
20
6.410000000000009
10
-18.850000000000012
20
6.410000000000009
10
-19.050000000000008
20
6.6100000000000048
10
-19.050000000000008
20
8.7500000000000089
10
-18.850000000000012
20
8.9500000000000046
0
LWPOLYLINE
5
120
100
AcDbEntity
8
0
100
AcDbPolyline
90
4
70
1
43
0.0
10
-18.130000000000006
20
7.3300000000000054
10
-17.430000000000007
20
7.3300000000000054
10
-17.430000000000007
20
8.0300000000000082
10
-18.130000000000006
20
8.0300000000000082
0
LWPOLYLINE
5
121
100
AcDbEntity
8
0
100
AcDbPolyline
90
8
70
1
43
0.0
10
18.850000000000009
20
8.9500000000000046
10
19.050000000000004
20
8.7500000000000089
10
19.050000000000004
20
6.6100000000000048
10
18.850000000000009
20
6.410000000000009
10
16.709999999999997
20
6.410000000000009
10
16.510000000000002
20
6.6100000000000048
10
16.510000000000002
20
8.7500000000000089
10
16.709999999999997
20
8.9500000000000046
0
LWPOLYLINE
5
122
100
AcDbEntity
8
0
100
AcDbPolyline
90
4
70
1
43
0.0
10
17.430000000000003
20
7.3300000000000054
10
18.130000000000003
20
7.3300000000000054
10
18.130000000000003
20
8.0300000000000082
10
17.430000000000003
20
8.0300000000000082
0
CIRCLE
5
123
100
AcDbEntity
8
0
100
AcDbCircle
10
0
20
22.00000032782555
30
0
40
1.1000000000000001
0
CIRCLE
5
124
100
AcDbEntity
8
0
100
AcDbCircle
10
0
20
14.000000000000005
30
0
40
1.0999999999999996
0
ENDSEC
0
SECTION
2
OBJECTS
0
DICTIONARY
5
C
100
AcDbDictionary
3
ACAD_GROUP
350
D
3
ACAD_MLINESTYLE
350
17
0
DICTIONARY
5
D
100
AcDbDictionary
0
DICTIONARY
5
1A
330
C
100
AcDbDictionary
0
DICTIONARY
5
17
100
AcDbDictionary
0
ENDSEC
0
EOF
