G04*
G04 #@! TF.GenerationSoftware,Altium Limited,Altium Designer,20.1.14 (287)*
G04*
G04 Layer_Color=16711935*
%FSLAX44Y44*%
%MOMM*%
G71*
G04*
G04 #@! TF.SameCoordinates,68B961FB-D7BC-4543-97B4-895A999656FA*
G04*
G04*
G04 #@! TF.FilePolarity,Positive*
G04*
G01*
G75*
%ADD10C,0.1000*%
D10*
X386036Y24971D02*
G03*
X386036Y24971I-11000J0D01*
G01*
Y104971D02*
G03*
X386036Y104971I-11000J0D01*
G01*
X46000Y340000D02*
G03*
X46000Y340000I-11000J0D01*
G01*
X676000D02*
G03*
X676000Y340000I-11000J0D01*
G01*
X96000Y160000D02*
G03*
X96000Y160000I-11000J0D01*
G01*
X726000D02*
G03*
X726000Y160000I-11000J0D01*
G01*
X96000Y340000D02*
G03*
X96000Y340000I-11000J0D01*
G01*
X726000D02*
G03*
X726000Y340000I-11000J0D01*
G01*
X46000Y160000D02*
G03*
X46000Y160000I-11000J0D01*
G01*
X676000D02*
G03*
X676000Y160000I-11000J0D01*
G01*
X0Y20000D02*
G03*
X20000Y0I20000J0D01*
G01*
X730036Y-29D02*
G03*
X750029Y20000I-36J20029D01*
G01*
X750036Y489906D02*
G03*
X729536Y509965I-20036J29D01*
G01*
X20036Y509971D02*
G03*
X29Y490000I-36J-19971D01*
G01*
X562536Y474971D02*
G03*
X562536Y474971I-7500J0D01*
G01*
X597107D02*
G03*
X597107Y474971I-7071J0D01*
G01*
X732536D02*
G03*
X732536Y474971I-7500J0D01*
G01*
X20000Y0D02*
X360036Y-29D01*
X750000Y130000D02*
X750029Y20000D01*
X0Y370000D02*
X29Y490000D01*
X360036Y-29D02*
X390036D01*
X730036D01*
X740000Y130000D02*
X750000D01*
X740000D02*
Y200000D01*
X486000D02*
X740000D01*
X486000D02*
Y300000D01*
X740000D01*
Y370000D01*
X750000D01*
X750036Y489906D01*
X20036Y509971D02*
X729536Y509965D01*
X0Y370000D02*
X10000D01*
Y300000D02*
Y370000D01*
Y300000D02*
X264000D01*
Y200000D02*
Y300000D01*
X10000Y200000D02*
X264000D01*
X10000Y130000D02*
Y200000D01*
X0Y130000D02*
X10000D01*
X0Y20000D02*
Y130000D01*
M02*
