M48
;Layer_Color=9474304
;FILE_FORMAT=4:4
METRIC,TZ
;TYPE=PLATED
T1F00S00C0.3000
T2F00S00C0.4000
T3F00S00C0.8000
T4F00S00C1.0000
T5F00S00C1.1000
T6F00S00C1.2000
T7F00S00C1.3000
%
T01
X10000Y20000
Y40000
Y60000
Y80000
Y100000
Y120000
X30000Y190000
X50000
X70000
X90000
X110000
X130000
X150000
X170000
X180000Y60000
X190000
X200000
X190000Y10000
X170000
X150000
X130000
X110000
X90000
X70000
X50000
X30000
X107535Y30035
X117500Y30000
X90000Y63000
Y73000
X82500Y68000
X75000Y73000
Y63000
X210000Y10000
X230000
X250000
X270000
X290000
X310000
X330000
X350000
Y30000
X360000Y130000
X340000
X320000
X300000
X320000Y150000
X340000
X360000
X380000
Y130000
X288960Y100961
X234960
X400000Y130000
Y150000
X420000Y190000
X430000
X538005Y149338
X572600Y157000
X570000Y139000
X590000Y170000
X600000
X640000
Y190000
X660000
X680000
X700000
X720000
X740000Y120000
Y100000
Y80000
Y60000
Y40000
Y20000
X680000Y30000
Y10000
X660000
Y30000
X640000
Y10000
X620000
X600000
X580000
X560000
X540000
X520000
X500000
X480000
X460000
X440000
X420000
X400000
Y30000
X515000Y101000
X538000
X653000Y141000
X660000Y50000
X650000Y310000
X630000
Y330000
Y350000
Y370000
X640000
X650000
X660000
X670000
X680000
X700000Y360000
X720000
Y380000
Y400000
X740000
Y380000
X700000
Y400000
X720000Y420000
X740000
Y440000
X720000
Y460000
X740000
Y490000
X720000
X610000Y500000
X590000
X570000
Y480000
Y460000
X590000
X587000Y430000
X604000
X573000Y418000
X550000Y420000
X530000
X490000
X500000Y390000
X480000
Y370000
X500000
Y350000
X480000
X450000
Y370000
X430000Y390000
Y420000
Y450000
X410000
X400000Y390000
Y370000
Y350000
X410000Y310000
Y290000
X400000Y280000
X410000Y270000
X400000Y220000
Y200000
X420000
X430000
X450000
Y310000
X430000
X520000Y350000
Y370000
Y390000
X550000
X570000
Y370000
Y350000
Y330000
X540000Y350000
Y370000
X550000Y460000
X530000
X510000
X490000
Y480000
X510000
Y500000
X490000
X470000
Y480000
X450000Y500000
X530000
Y480000
X550000Y500000
X670000Y310000
X690000
X710000
X730000
X370000
Y280000
X350000
X340000Y310000
X320000
X287000Y294000
X350000Y230000
X360000Y200000
X340000
X380000
Y220000
X385536Y416206
X374400Y442354
X365536Y435536
X340000Y430000
Y450000
Y500000
X320000
X300000
X280000
X260000
X240000
X220000
X200000
X180000
X160000
X140000
X120000
Y480000
X100000
Y500000
X80000
X60000
Y480000
X80000
X40000
X20000
X10000
Y460000
X20000
X40000
Y500000
X20000
X30000Y400000
Y380000
X10000
Y400000
X50000
Y380000
Y360000
X30000
X70000
X90000
X110000
X130000
Y340000
X110000
Y380000
X130000
Y400000
X110000
X90000
Y380000
X70000
Y400000
X60000Y340000
Y310000
X80000
X100000
X120000
X140000
X177726Y335955
X216917Y364241
X193000Y444720
X120000Y460000
X40000Y310000
X20000
T02
X42000Y106000
X51000
X171000Y134001
X180000
X451000Y134000
X460000
X611000Y143000
X620000
X629000
Y171000
X620000
X611000
X197236Y342976
X179000Y349000
X161286Y427686
Y437891
T03
X714036Y43971
Y63971
Y83971
T04
X197236Y173171
X222636
X248036
X273436
X298836
X324236
X349636
X375036
X400436
X425836
X451236
X476636
X502036
X527436
X552836
Y326871
X527436
X502036
X476636
X451236
X425836
X400436
X449036Y262971
Y237971
X301036
Y262971
X298836Y326871
X273436
X248036
X222636
X197236
X324236
X349636
X375036
X97036Y419971
Y445371
T05
X646636Y408971
X672036
T06
X646636Y434371
X672036
T07
X714036Y21971
Y105971
M30
