G04*
G04 #@! TF.GenerationSoftware,Altium Limited,Altium Designer,20.1.14 (287)*
G04*
G04 Layer_Color=16738047*
%FSLAX44Y44*%
%MOMM*%
G71*
G04*
G04 #@! TF.SameCoordinates,68B961FB-D7BC-4543-97B4-895A999656FA*
G04*
G04*
G04 #@! TF.FilePolarity,Negative*
G04*
G01*
G75*
%ADD15R,0.2000X1.1900*%
G04:AMPARAMS|DCode=16|XSize=2mm|YSize=2.7mm|CornerRadius=1mm|HoleSize=0mm|Usage=FLASHONLY|Rotation=0.000|XOffset=0mm|YOffset=0mm|HoleType=Round|Shape=RoundedRectangle|*
%AMROUNDEDRECTD16*
21,1,2.0000,0.7000,0,0,0.0*
21,1,0.0000,2.7000,0,0,0.0*
1,1,2.0000,0.0000,-0.3500*
1,1,2.0000,0.0000,-0.3500*
1,1,2.0000,0.0000,0.3500*
1,1,2.0000,0.0000,0.3500*
%
%ADD16ROUNDEDRECTD16*%
G04:AMPARAMS|DCode=17|XSize=1.4mm|YSize=1.4mm|CornerRadius=0.7mm|HoleSize=0mm|Usage=FLASHONLY|Rotation=270.000|XOffset=0mm|YOffset=0mm|HoleType=Round|Shape=RoundedRectangle|*
%AMROUNDEDRECTD17*
21,1,1.4000,0.0000,0,0,270.0*
21,1,0.0000,1.4000,0,0,270.0*
1,1,1.4000,0.0000,0.0000*
1,1,1.4000,0.0000,0.0000*
1,1,1.4000,0.0000,0.0000*
1,1,1.4000,0.0000,0.0000*
%
%ADD17ROUNDEDRECTD17*%
G04:AMPARAMS|DCode=18|XSize=2mm|YSize=3mm|CornerRadius=1mm|HoleSize=0mm|Usage=FLASHONLY|Rotation=270.000|XOffset=0mm|YOffset=0mm|HoleType=Round|Shape=RoundedRectangle|*
%AMROUNDEDRECTD18*
21,1,2.0000,1.0000,0,0,270.0*
21,1,0.0000,3.0000,0,0,270.0*
1,1,2.0000,-0.5000,0.0000*
1,1,2.0000,-0.5000,0.0000*
1,1,2.0000,0.5000,0.0000*
1,1,2.0000,0.5000,0.0000*
%
%ADD18ROUNDEDRECTD18*%
%ADD19C,1.7000*%
G04:AMPARAMS|DCode=20|XSize=1.7mm|YSize=1.7mm|CornerRadius=0.85mm|HoleSize=0mm|Usage=FLASHONLY|Rotation=90.000|XOffset=0mm|YOffset=0mm|HoleType=Round|Shape=RoundedRectangle|*
%AMROUNDEDRECTD20*
21,1,1.7000,0.0000,0,0,90.0*
21,1,0.0000,1.7000,0,0,90.0*
1,1,1.7000,0.0000,0.0000*
1,1,1.7000,0.0000,0.0000*
1,1,1.7000,0.0000,0.0000*
1,1,1.7000,0.0000,0.0000*
%
%ADD20ROUNDEDRECTD20*%
%ADD21C,1.2000*%
%ADD22C,2.0000*%
%ADD23C,0.6000*%
G04:AMPARAMS|DCode=24|XSize=1.7mm|YSize=1.7mm|CornerRadius=0.85mm|HoleSize=0mm|Usage=FLASHONLY|Rotation=180.000|XOffset=0mm|YOffset=0mm|HoleType=Round|Shape=RoundedRectangle|*
%AMROUNDEDRECTD24*
21,1,1.7000,0.0000,0,0,180.0*
21,1,0.0000,1.7000,0,0,180.0*
1,1,1.7000,0.0000,0.0000*
1,1,1.7000,0.0000,0.0000*
1,1,1.7000,0.0000,0.0000*
1,1,1.7000,0.0000,0.0000*
%
%ADD24ROUNDEDRECTD24*%
G04:AMPARAMS|DCode=25|XSize=1.3mm|YSize=1.3mm|CornerRadius=0.65mm|HoleSize=0mm|Usage=FLASHONLY|Rotation=270.000|XOffset=0mm|YOffset=0mm|HoleType=Round|Shape=RoundedRectangle|*
%AMROUNDEDRECTD25*
21,1,1.3000,0.0000,0,0,270.0*
21,1,0.0000,1.3000,0,0,270.0*
1,1,1.3000,0.0000,0.0000*
1,1,1.3000,0.0000,0.0000*
1,1,1.3000,0.0000,0.0000*
1,1,1.3000,0.0000,0.0000*
%
%ADD25ROUNDEDRECTD25*%
%ADD26C,1.3000*%
D15*
X393536Y483370D02*
D03*
X389536D02*
D03*
X385536D02*
D03*
X381536D02*
D03*
X377536D02*
D03*
X373536D02*
D03*
X369536D02*
D03*
X365536D02*
D03*
X361536D02*
D03*
X393536Y456570D02*
D03*
X389536D02*
D03*
X385536D02*
D03*
X381536D02*
D03*
X377536D02*
D03*
X373536D02*
D03*
X369536D02*
D03*
X365536D02*
D03*
X361536D02*
D03*
X357536Y483370D02*
D03*
Y456570D02*
D03*
D16*
X227536Y59971D02*
D03*
X155036D02*
D03*
X595036D02*
D03*
X522536D02*
D03*
D17*
X714036Y43971D02*
D03*
Y63971D02*
D03*
Y83971D02*
D03*
D18*
Y21971D02*
D03*
Y105971D02*
D03*
D19*
X197236Y173171D02*
D03*
X552836Y326871D02*
D03*
X97036Y419971D02*
D03*
D20*
X222636Y173171D02*
D03*
X248036D02*
D03*
X273436D02*
D03*
X298836D02*
D03*
X324236D02*
D03*
X349636D02*
D03*
X375036D02*
D03*
X400436D02*
D03*
X425836D02*
D03*
X451236D02*
D03*
X476636D02*
D03*
X502036D02*
D03*
X527436D02*
D03*
X552836D02*
D03*
X197236Y326871D02*
D03*
X222636D02*
D03*
X248036D02*
D03*
X273436D02*
D03*
X298836D02*
D03*
X324236D02*
D03*
X349636D02*
D03*
X375036D02*
D03*
X400436D02*
D03*
X425836D02*
D03*
X451236D02*
D03*
X476636D02*
D03*
X502036D02*
D03*
X527436D02*
D03*
D21*
X646636Y434371D02*
D03*
X672036D02*
D03*
D22*
X646636Y408971D02*
D03*
X672036D02*
D03*
D23*
X90000Y73000D02*
D03*
X75000D02*
D03*
Y63000D02*
D03*
X82500Y68000D02*
D03*
X90000Y63000D02*
D03*
D24*
X97036Y445371D02*
D03*
D25*
X449036Y237971D02*
D03*
X301036Y262971D02*
D03*
D26*
X449036D02*
D03*
X301036Y237971D02*
D03*
M02*
