G04*
G04 #@! TF.GenerationSoftware,Altium Limited,Altium Designer,20.1.14 (287)*
G04*
G04 Layer_Color=8388736*
%FSLAX44Y44*%
%MOMM*%
G71*
G04*
G04 #@! TF.SameCoordinates,68B961FB-D7BC-4543-97B4-895A999656FA*
G04*
G04*
G04 #@! TF.FilePolarity,Positive*
G04*
G01*
G75*
%ADD10C,0.1000*%
%ADD12C,0.2000*%
D10*
X484725Y303000D02*
X592000D01*
X483000Y301275D02*
X484725Y303000D01*
X483000Y198000D02*
Y301275D01*
X617000Y361000D02*
X650000D01*
X615000Y359000D02*
X617000Y361000D01*
X615000Y305000D02*
Y359000D01*
X613000Y303000D02*
X615000Y305000D01*
X592000Y303000D02*
X613000D01*
X661000Y417000D02*
X662000Y418000D01*
X661000Y392000D02*
Y417000D01*
X658000Y389000D02*
X661000Y392000D01*
X581000Y389000D02*
X658000D01*
X580000Y388000D02*
X581000Y389000D01*
X580000Y318000D02*
Y388000D01*
X578000Y316000D02*
X580000Y318000D01*
X470000Y316000D02*
X578000D01*
X469000Y315000D02*
X470000Y316000D01*
X469000Y296000D02*
Y315000D01*
Y185000D02*
Y296000D01*
Y185000D02*
X470000Y184000D01*
X597000D01*
X606000Y175000D01*
Y139000D02*
Y175000D01*
Y139000D02*
X634000D01*
Y193000D01*
X630000Y197000D02*
X634000Y193000D01*
X484000Y197000D02*
X630000D01*
X483000Y198000D02*
X484000Y197000D01*
X650000Y361000D02*
X693000D01*
X695000Y363000D01*
Y418000D01*
X691000Y422000D02*
X695000Y418000D01*
X666000Y422000D02*
X691000D01*
X662000Y418000D02*
X666000Y422000D01*
D12*
X0Y0D02*
Y7000D01*
Y0D02*
X7000D01*
X0Y-7000D02*
Y0D01*
X-7000D02*
X0D01*
M02*
