G04*
G04 #@! TF.GenerationSoftware,Altium Limited,Altium Designer,20.1.14 (287)*
G04*
G04 Layer_Color=3368601*
%FSLAX44Y44*%
%MOMM*%
G71*
G04*
G04 #@! TF.SameCoordinates,68B961FB-D7BC-4543-97B4-895A999656FA*
G04*
G04*
G04 #@! TF.FilePolarity,Positive*
G04*
G01*
G75*
%ADD10C,0.1000*%
%ADD11C,0.1500*%
%ADD12C,0.2000*%
%ADD13C,0.3000*%
G36*
X340500Y73766D02*
X338775D01*
Y75736D01*
X340500D01*
Y73766D01*
D02*
G37*
G36*
X329585D02*
X327860D01*
Y75736D01*
X329585D01*
Y73766D01*
D02*
G37*
G36*
X359108Y72072D02*
X359200D01*
X359429Y72041D01*
X359688Y72011D01*
X359978Y71950D01*
X360268Y71858D01*
X360558Y71751D01*
X360574D01*
X360589Y71736D01*
X360681Y71690D01*
X360818Y71614D01*
X361001Y71522D01*
X361184Y71385D01*
X361383Y71248D01*
X361566Y71080D01*
X361719Y70881D01*
X361734Y70851D01*
X361780Y70790D01*
X361841Y70668D01*
X361932Y70515D01*
X362024Y70332D01*
X362100Y70118D01*
X362192Y69874D01*
X362253Y69599D01*
Y69584D01*
X362268Y69507D01*
X362283Y69385D01*
X362314Y69217D01*
X362329Y68988D01*
Y68851D01*
X362344Y68698D01*
Y68530D01*
X362360Y68332D01*
Y68133D01*
Y67920D01*
Y61646D01*
X360635D01*
Y67859D01*
Y67874D01*
Y67904D01*
Y67965D01*
Y68027D01*
Y68118D01*
X360619Y68225D01*
X360604Y68454D01*
X360589Y68713D01*
X360543Y68973D01*
X360497Y69217D01*
X360421Y69431D01*
X360406Y69461D01*
X360375Y69523D01*
X360329Y69614D01*
X360253Y69736D01*
X360162Y69874D01*
X360039Y70011D01*
X359887Y70148D01*
X359703Y70271D01*
X359688Y70286D01*
X359612Y70316D01*
X359505Y70377D01*
X359368Y70438D01*
X359184Y70484D01*
X358986Y70545D01*
X358757Y70576D01*
X358498Y70591D01*
X358391D01*
X358314Y70576D01*
X358223D01*
X358101Y70561D01*
X357841Y70500D01*
X357551Y70423D01*
X357230Y70301D01*
X356910Y70118D01*
X356742Y70011D01*
X356589Y69889D01*
X356574Y69874D01*
X356559Y69858D01*
X356513Y69813D01*
X356467Y69752D01*
X356406Y69660D01*
X356345Y69568D01*
X356269Y69446D01*
X356193Y69294D01*
X356116Y69126D01*
X356040Y68927D01*
X355979Y68713D01*
X355918Y68469D01*
X355872Y68194D01*
X355826Y67904D01*
X355811Y67569D01*
X355796Y67217D01*
Y61646D01*
X354071D01*
Y71858D01*
X355628D01*
Y70393D01*
X355643Y70408D01*
X355673Y70469D01*
X355750Y70545D01*
X355841Y70652D01*
X355948Y70790D01*
X356086Y70927D01*
X356254Y71080D01*
X356452Y71248D01*
X356666Y71400D01*
X356910Y71553D01*
X357169Y71690D01*
X357459Y71828D01*
X357780Y71934D01*
X358116Y72011D01*
X358482Y72072D01*
X358864Y72087D01*
X359017D01*
X359108Y72072D01*
D02*
G37*
G36*
X336851Y65874D02*
X331524D01*
Y67614D01*
X336851D01*
Y65874D01*
D02*
G37*
G36*
X410110Y66607D02*
X412018D01*
Y65019D01*
X410110D01*
Y61646D01*
X408385D01*
Y65019D01*
X402248D01*
Y66607D01*
X408690Y75736D01*
X410110D01*
Y66607D01*
D02*
G37*
G36*
X399165D02*
X401073D01*
Y65019D01*
X399165D01*
Y61646D01*
X397440D01*
Y65019D01*
X391303D01*
Y66607D01*
X397745Y75736D01*
X399165D01*
Y66607D01*
D02*
G37*
G36*
X376511Y61646D02*
X374786D01*
Y72652D01*
X374755Y72621D01*
X374679Y72545D01*
X374542Y72438D01*
X374343Y72286D01*
X374114Y72102D01*
X373824Y71904D01*
X373503Y71690D01*
X373137Y71461D01*
X373122D01*
X373091Y71431D01*
X373046Y71400D01*
X372969Y71370D01*
X372878Y71309D01*
X372771Y71263D01*
X372527Y71125D01*
X372252Y70988D01*
X371946Y70835D01*
X371626Y70698D01*
X371320Y70576D01*
Y72240D01*
X371336Y72255D01*
X371382Y72270D01*
X371458Y72316D01*
X371565Y72362D01*
X371687Y72423D01*
X371839Y72515D01*
X372007Y72606D01*
X372175Y72698D01*
X372572Y72942D01*
X373000Y73232D01*
X373442Y73537D01*
X373854Y73889D01*
X373870Y73904D01*
X373900Y73934D01*
X373961Y73980D01*
X374038Y74056D01*
X374114Y74148D01*
X374221Y74240D01*
X374450Y74499D01*
X374709Y74774D01*
X374969Y75094D01*
X375198Y75430D01*
X375396Y75781D01*
X376511D01*
Y61646D01*
D02*
G37*
G36*
X340500D02*
X338775D01*
Y71858D01*
X340500D01*
Y61646D01*
D02*
G37*
G36*
X329585D02*
X327860D01*
Y71858D01*
X329585D01*
Y61646D01*
D02*
G37*
G36*
X318899Y63310D02*
X325845D01*
Y61646D01*
X317037D01*
Y75736D01*
X318899D01*
Y63310D01*
D02*
G37*
G36*
X418658Y75766D02*
X418765Y75751D01*
X419040Y75720D01*
X419345Y75675D01*
X419681Y75583D01*
X420017Y75476D01*
X420353Y75323D01*
X420368D01*
X420399Y75308D01*
X420444Y75278D01*
X420506Y75232D01*
X420658Y75140D01*
X420857Y74988D01*
X421086Y74804D01*
X421315Y74575D01*
X421559Y74301D01*
X421773Y73995D01*
Y73980D01*
X421803Y73949D01*
X421818Y73904D01*
X421864Y73843D01*
X421910Y73766D01*
X421971Y73660D01*
X422017Y73537D01*
X422093Y73415D01*
X422231Y73110D01*
X422368Y72759D01*
X422521Y72347D01*
X422643Y71904D01*
Y71889D01*
X422658Y71843D01*
X422673Y71782D01*
X422689Y71675D01*
X422719Y71553D01*
X422750Y71400D01*
X422780Y71232D01*
X422811Y71034D01*
X422826Y70805D01*
X422856Y70561D01*
X422887Y70286D01*
X422918Y69996D01*
X422933Y69675D01*
X422948Y69339D01*
X422963Y68973D01*
Y68591D01*
Y68561D01*
Y68485D01*
Y68347D01*
Y68179D01*
X422948Y67965D01*
X422933Y67737D01*
X422918Y67462D01*
X422902Y67172D01*
X422872Y66851D01*
X422841Y66531D01*
X422750Y65859D01*
X422612Y65202D01*
X422536Y64882D01*
X422444Y64592D01*
Y64577D01*
X422414Y64531D01*
X422398Y64439D01*
X422353Y64348D01*
X422292Y64210D01*
X422231Y64073D01*
X422154Y63905D01*
X422063Y63722D01*
X421849Y63340D01*
X421590Y62958D01*
X421284Y62577D01*
X421101Y62409D01*
X420918Y62241D01*
X420902Y62226D01*
X420872Y62210D01*
X420811Y62165D01*
X420735Y62119D01*
X420643Y62058D01*
X420521Y61982D01*
X420383Y61905D01*
X420216Y61829D01*
X420048Y61753D01*
X419849Y61676D01*
X419651Y61615D01*
X419422Y61539D01*
X419178Y61493D01*
X418918Y61447D01*
X418658Y61432D01*
X418368Y61417D01*
X418277D01*
X418170Y61432D01*
X418033Y61447D01*
X417865Y61462D01*
X417666Y61493D01*
X417453Y61539D01*
X417208Y61600D01*
X416964Y61676D01*
X416704Y61768D01*
X416430Y61890D01*
X416170Y62027D01*
X415911Y62195D01*
X415651Y62394D01*
X415407Y62607D01*
X415178Y62867D01*
X415163Y62882D01*
X415117Y62943D01*
X415056Y63050D01*
X414964Y63203D01*
X414857Y63401D01*
X414735Y63630D01*
X414613Y63920D01*
X414491Y64241D01*
X414354Y64622D01*
X414231Y65034D01*
X414109Y65508D01*
X414003Y66027D01*
X413911Y66592D01*
X413850Y67202D01*
X413804Y67874D01*
X413789Y68591D01*
Y68622D01*
Y68698D01*
Y68836D01*
X413804Y69004D01*
Y69217D01*
X413819Y69461D01*
X413835Y69736D01*
X413850Y70026D01*
X413880Y70347D01*
X413911Y70668D01*
X414003Y71339D01*
X414125Y71996D01*
X414201Y72316D01*
X414293Y72606D01*
Y72621D01*
X414323Y72667D01*
X414354Y72759D01*
X414384Y72866D01*
X414445Y72988D01*
X414506Y73141D01*
X414583Y73293D01*
X414674Y73476D01*
X414888Y73858D01*
X415163Y74240D01*
X415468Y74621D01*
X415636Y74789D01*
X415819Y74957D01*
X415834Y74972D01*
X415865Y74988D01*
X415926Y75033D01*
X416002Y75079D01*
X416094Y75156D01*
X416216Y75217D01*
X416353Y75293D01*
X416521Y75369D01*
X416689Y75445D01*
X416888Y75522D01*
X417101Y75598D01*
X417315Y75659D01*
X417559Y75705D01*
X417819Y75751D01*
X418094Y75766D01*
X418368Y75781D01*
X418552D01*
X418658Y75766D01*
D02*
G37*
G36*
X385823D02*
X385929Y75751D01*
X386204Y75720D01*
X386510Y75675D01*
X386845Y75583D01*
X387181Y75476D01*
X387517Y75323D01*
X387532D01*
X387563Y75308D01*
X387609Y75278D01*
X387670Y75232D01*
X387822Y75140D01*
X388021Y74988D01*
X388250Y74804D01*
X388479Y74575D01*
X388723Y74301D01*
X388937Y73995D01*
Y73980D01*
X388967Y73949D01*
X388983Y73904D01*
X389028Y73843D01*
X389074Y73766D01*
X389135Y73660D01*
X389181Y73537D01*
X389257Y73415D01*
X389395Y73110D01*
X389532Y72759D01*
X389685Y72347D01*
X389807Y71904D01*
Y71889D01*
X389822Y71843D01*
X389837Y71782D01*
X389853Y71675D01*
X389883Y71553D01*
X389914Y71400D01*
X389944Y71232D01*
X389975Y71034D01*
X389990Y70805D01*
X390021Y70561D01*
X390051Y70286D01*
X390082Y69996D01*
X390097Y69675D01*
X390112Y69339D01*
X390127Y68973D01*
Y68591D01*
Y68561D01*
Y68485D01*
Y68347D01*
Y68179D01*
X390112Y67965D01*
X390097Y67737D01*
X390082Y67462D01*
X390066Y67172D01*
X390036Y66851D01*
X390005Y66531D01*
X389914Y65859D01*
X389776Y65202D01*
X389700Y64882D01*
X389608Y64592D01*
Y64577D01*
X389578Y64531D01*
X389563Y64439D01*
X389517Y64348D01*
X389456Y64210D01*
X389395Y64073D01*
X389318Y63905D01*
X389227Y63722D01*
X389013Y63340D01*
X388754Y62958D01*
X388448Y62577D01*
X388265Y62409D01*
X388082Y62241D01*
X388067Y62226D01*
X388036Y62210D01*
X387975Y62165D01*
X387899Y62119D01*
X387807Y62058D01*
X387685Y61982D01*
X387548Y61905D01*
X387380Y61829D01*
X387212Y61753D01*
X387013Y61676D01*
X386815Y61615D01*
X386586Y61539D01*
X386342Y61493D01*
X386082Y61447D01*
X385823Y61432D01*
X385533Y61417D01*
X385441D01*
X385334Y61432D01*
X385197Y61447D01*
X385029Y61462D01*
X384830Y61493D01*
X384617Y61539D01*
X384372Y61600D01*
X384128Y61676D01*
X383869Y61768D01*
X383594Y61890D01*
X383334Y62027D01*
X383075Y62195D01*
X382815Y62394D01*
X382571Y62607D01*
X382342Y62867D01*
X382327Y62882D01*
X382281Y62943D01*
X382220Y63050D01*
X382128Y63203D01*
X382021Y63401D01*
X381899Y63630D01*
X381777Y63920D01*
X381655Y64241D01*
X381518Y64622D01*
X381396Y65034D01*
X381273Y65508D01*
X381167Y66027D01*
X381075Y66592D01*
X381014Y67202D01*
X380968Y67874D01*
X380953Y68591D01*
Y68622D01*
Y68698D01*
Y68836D01*
X380968Y69004D01*
Y69217D01*
X380984Y69461D01*
X380999Y69736D01*
X381014Y70026D01*
X381045Y70347D01*
X381075Y70668D01*
X381167Y71339D01*
X381289Y71996D01*
X381365Y72316D01*
X381457Y72606D01*
Y72621D01*
X381487Y72667D01*
X381518Y72759D01*
X381548Y72866D01*
X381609Y72988D01*
X381670Y73141D01*
X381747Y73293D01*
X381838Y73476D01*
X382052Y73858D01*
X382327Y74240D01*
X382632Y74621D01*
X382800Y74789D01*
X382983Y74957D01*
X382999Y74972D01*
X383029Y74988D01*
X383090Y75033D01*
X383166Y75079D01*
X383258Y75156D01*
X383380Y75217D01*
X383517Y75293D01*
X383685Y75369D01*
X383853Y75445D01*
X384052Y75522D01*
X384266Y75598D01*
X384479Y75659D01*
X384724Y75705D01*
X384983Y75751D01*
X385258Y75766D01*
X385533Y75781D01*
X385716D01*
X385823Y75766D01*
D02*
G37*
G36*
X347461Y72072D02*
X347613D01*
X347797Y72041D01*
X347995Y72011D01*
X348224Y71965D01*
X348484Y71919D01*
X348743Y71843D01*
X349033Y71751D01*
X349308Y71629D01*
X349598Y71507D01*
X349888Y71339D01*
X350163Y71156D01*
X350437Y70942D01*
X350697Y70698D01*
X350712Y70683D01*
X350758Y70637D01*
X350819Y70561D01*
X350911Y70438D01*
X351002Y70301D01*
X351124Y70133D01*
X351246Y69935D01*
X351369Y69706D01*
X351491Y69446D01*
X351613Y69156D01*
X351735Y68851D01*
X351827Y68515D01*
X351918Y68149D01*
X351979Y67752D01*
X352025Y67324D01*
X352040Y66882D01*
Y66866D01*
Y66790D01*
Y66698D01*
X352025Y66561D01*
Y66393D01*
X352010Y66195D01*
X351995Y65981D01*
X351964Y65752D01*
X351903Y65264D01*
X351796Y64745D01*
X351643Y64241D01*
X351552Y64012D01*
X351445Y63783D01*
Y63767D01*
X351414Y63737D01*
X351384Y63676D01*
X351338Y63600D01*
X351277Y63508D01*
X351201Y63386D01*
X351002Y63142D01*
X350758Y62852D01*
X350468Y62561D01*
X350117Y62287D01*
X349720Y62027D01*
X349705D01*
X349674Y61997D01*
X349613Y61966D01*
X349521Y61936D01*
X349415Y61890D01*
X349292Y61829D01*
X349155Y61783D01*
X348987Y61722D01*
X348819Y61661D01*
X348621Y61615D01*
X348209Y61508D01*
X347751Y61447D01*
X347262Y61417D01*
X347171D01*
X347064Y61432D01*
X346911D01*
X346728Y61462D01*
X346514Y61493D01*
X346285Y61539D01*
X346026Y61585D01*
X345751Y61661D01*
X345476Y61753D01*
X345186Y61859D01*
X344896Y61997D01*
X344606Y62149D01*
X344331Y62333D01*
X344057Y62546D01*
X343797Y62790D01*
X343782Y62806D01*
X343736Y62852D01*
X343675Y62928D01*
X343599Y63050D01*
X343492Y63187D01*
X343385Y63355D01*
X343263Y63569D01*
X343141Y63798D01*
X343018Y64073D01*
X342896Y64363D01*
X342789Y64683D01*
X342683Y65034D01*
X342606Y65416D01*
X342545Y65828D01*
X342499Y66271D01*
X342484Y66744D01*
Y66760D01*
Y66775D01*
Y66866D01*
X342499Y67019D01*
X342515Y67202D01*
X342530Y67446D01*
X342561Y67721D01*
X342621Y68011D01*
X342683Y68332D01*
X342759Y68668D01*
X342866Y69019D01*
X343003Y69370D01*
X343141Y69721D01*
X343324Y70057D01*
X343537Y70377D01*
X343782Y70668D01*
X344057Y70942D01*
X344072Y70957D01*
X344118Y70988D01*
X344194Y71049D01*
X344286Y71125D01*
X344423Y71202D01*
X344576Y71309D01*
X344743Y71416D01*
X344957Y71522D01*
X345171Y71629D01*
X345415Y71721D01*
X345675Y71828D01*
X345965Y71904D01*
X346270Y71980D01*
X346575Y72041D01*
X346911Y72072D01*
X347262Y72087D01*
X347354D01*
X347461Y72072D01*
D02*
G37*
G36*
X354956Y58583D02*
X355063Y58568D01*
X355353Y58538D01*
X355673Y58477D01*
X356040Y58385D01*
X356406Y58263D01*
X356773Y58095D01*
X356788D01*
X356818Y58080D01*
X356864Y58049D01*
X356940Y58003D01*
X357108Y57896D01*
X357322Y57744D01*
X357566Y57545D01*
X357811Y57316D01*
X358055Y57057D01*
X358269Y56751D01*
Y56736D01*
X358284Y56721D01*
X358314Y56660D01*
X358345Y56599D01*
X358391Y56522D01*
X358437Y56431D01*
X358528Y56202D01*
X358620Y55927D01*
X358711Y55622D01*
X358772Y55286D01*
X358788Y54935D01*
Y54920D01*
Y54889D01*
Y54843D01*
Y54782D01*
X358757Y54599D01*
X358727Y54385D01*
X358666Y54126D01*
X358574Y53851D01*
X358452Y53561D01*
X358284Y53271D01*
Y53256D01*
X358269Y53240D01*
X358192Y53149D01*
X358085Y53011D01*
X357918Y52844D01*
X357719Y52645D01*
X357459Y52447D01*
X357169Y52263D01*
X356834Y52080D01*
X356849D01*
X356895Y52065D01*
X356956Y52050D01*
X357047Y52019D01*
X357139Y51989D01*
X357261Y51943D01*
X357551Y51821D01*
X357856Y51653D01*
X358177Y51454D01*
X358498Y51195D01*
X358772Y50874D01*
X358788Y50859D01*
X358803Y50828D01*
X358833Y50783D01*
X358879Y50706D01*
X358940Y50630D01*
X359001Y50523D01*
X359062Y50401D01*
X359123Y50248D01*
X359184Y50096D01*
X359246Y49928D01*
X359368Y49546D01*
X359444Y49104D01*
X359474Y48859D01*
Y48615D01*
Y48600D01*
Y48539D01*
X359459Y48432D01*
Y48310D01*
X359429Y48142D01*
X359398Y47959D01*
X359368Y47760D01*
X359307Y47531D01*
X359230Y47287D01*
X359139Y47043D01*
X359032Y46783D01*
X358895Y46524D01*
X358742Y46249D01*
X358559Y45989D01*
X358360Y45730D01*
X358116Y45486D01*
X358101Y45470D01*
X358055Y45425D01*
X357979Y45363D01*
X357872Y45287D01*
X357750Y45196D01*
X357582Y45089D01*
X357398Y44967D01*
X357185Y44860D01*
X356956Y44738D01*
X356696Y44616D01*
X356422Y44509D01*
X356116Y44417D01*
X355796Y44341D01*
X355460Y44280D01*
X355109Y44234D01*
X354727Y44219D01*
X354651D01*
X354544Y44234D01*
X354422D01*
X354254Y44249D01*
X354071Y44280D01*
X353872Y44310D01*
X353643Y44356D01*
X353399Y44417D01*
X353155Y44493D01*
X352895Y44570D01*
X352636Y44677D01*
X352376Y44814D01*
X352132Y44951D01*
X351872Y45119D01*
X351643Y45318D01*
X351628Y45333D01*
X351598Y45363D01*
X351536Y45425D01*
X351445Y45516D01*
X351353Y45623D01*
X351246Y45760D01*
X351140Y45913D01*
X351017Y46096D01*
X350895Y46280D01*
X350773Y46508D01*
X350651Y46737D01*
X350544Y46997D01*
X350453Y47272D01*
X350361Y47562D01*
X350300Y47867D01*
X350254Y48188D01*
X351979Y48417D01*
Y48401D01*
X351995Y48356D01*
X352010Y48279D01*
X352040Y48172D01*
X352071Y48050D01*
X352101Y47913D01*
X352208Y47592D01*
X352346Y47241D01*
X352514Y46890D01*
X352727Y46569D01*
X352849Y46432D01*
X352971Y46295D01*
X352987D01*
X353002Y46264D01*
X353048Y46234D01*
X353094Y46188D01*
X353246Y46096D01*
X353460Y45974D01*
X353719Y45852D01*
X354010Y45760D01*
X354361Y45684D01*
X354727Y45654D01*
X354849D01*
X354941Y45669D01*
X355032Y45684D01*
X355170Y45699D01*
X355444Y45760D01*
X355780Y45852D01*
X356131Y46005D01*
X356299Y46111D01*
X356467Y46218D01*
X356635Y46340D01*
X356803Y46493D01*
X356818Y46508D01*
X356834Y46539D01*
X356879Y46585D01*
X356940Y46646D01*
X357001Y46722D01*
X357063Y46829D01*
X357139Y46936D01*
X357230Y47073D01*
X357383Y47379D01*
X357505Y47730D01*
X357612Y48142D01*
X357627Y48356D01*
X357643Y48584D01*
Y48600D01*
Y48630D01*
Y48707D01*
X357627Y48783D01*
X357612Y48890D01*
X357597Y48997D01*
X357551Y49271D01*
X357444Y49592D01*
X357307Y49913D01*
X357215Y50080D01*
X357108Y50233D01*
X356986Y50386D01*
X356849Y50539D01*
X356834Y50554D01*
X356818Y50569D01*
X356773Y50615D01*
X356712Y50661D01*
X356635Y50722D01*
X356544Y50783D01*
X356315Y50935D01*
X356025Y51073D01*
X355689Y51195D01*
X355307Y51287D01*
X355093Y51302D01*
X354880Y51317D01*
X354788D01*
X354681Y51302D01*
X354544D01*
X354361Y51271D01*
X354162Y51241D01*
X353918Y51195D01*
X353658Y51134D01*
X353842Y52645D01*
X353872D01*
X353949Y52630D01*
X354040Y52615D01*
X354239D01*
X354315Y52630D01*
X354422D01*
X354529Y52645D01*
X354788Y52691D01*
X355093Y52752D01*
X355429Y52859D01*
X355780Y52996D01*
X356116Y53195D01*
X356131D01*
X356162Y53225D01*
X356193Y53256D01*
X356254Y53302D01*
X356406Y53439D01*
X356574Y53637D01*
X356727Y53882D01*
X356879Y54187D01*
X356940Y54355D01*
X356971Y54553D01*
X357001Y54752D01*
X357017Y54966D01*
Y54981D01*
Y55011D01*
Y55057D01*
X357001Y55133D01*
X356986Y55301D01*
X356940Y55530D01*
X356864Y55774D01*
X356742Y56034D01*
X356574Y56309D01*
X356483Y56431D01*
X356360Y56553D01*
X356330Y56584D01*
X356238Y56645D01*
X356101Y56751D01*
X355918Y56874D01*
X355673Y56981D01*
X355383Y57087D01*
X355063Y57148D01*
X354697Y57179D01*
X354605D01*
X354529Y57164D01*
X354437D01*
X354345Y57148D01*
X354101Y57103D01*
X353842Y57026D01*
X353552Y56904D01*
X353277Y56751D01*
X353002Y56538D01*
X352971Y56507D01*
X352895Y56416D01*
X352773Y56278D01*
X352651Y56065D01*
X352498Y55805D01*
X352361Y55469D01*
X352239Y55088D01*
X352147Y54645D01*
X350422Y54950D01*
Y54966D01*
X350437Y55026D01*
X350453Y55118D01*
X350483Y55240D01*
X350529Y55378D01*
X350575Y55546D01*
X350636Y55729D01*
X350712Y55927D01*
X350911Y56370D01*
X351017Y56584D01*
X351155Y56813D01*
X351308Y57026D01*
X351475Y57240D01*
X351659Y57454D01*
X351857Y57637D01*
X351872Y57652D01*
X351903Y57683D01*
X351979Y57729D01*
X352056Y57790D01*
X352178Y57866D01*
X352300Y57942D01*
X352453Y58034D01*
X352636Y58125D01*
X352819Y58202D01*
X353032Y58293D01*
X353261Y58370D01*
X353506Y58446D01*
X353781Y58507D01*
X354055Y58553D01*
X354345Y58583D01*
X354651Y58599D01*
X354849D01*
X354956Y58583D01*
D02*
G37*
G36*
X384250Y44463D02*
X382327D01*
X376862Y58553D01*
X378892D01*
X382556Y48310D01*
Y48295D01*
X382571Y48249D01*
X382602Y48188D01*
X382632Y48096D01*
X382663Y47989D01*
X382709Y47867D01*
X382754Y47730D01*
X382815Y47562D01*
X382922Y47211D01*
X383044Y46829D01*
X383166Y46417D01*
X383289Y46005D01*
Y46020D01*
X383304Y46051D01*
X383319Y46127D01*
X383350Y46203D01*
X383380Y46310D01*
X383411Y46432D01*
X383456Y46569D01*
X383502Y46722D01*
X383609Y47073D01*
X383746Y47470D01*
X383899Y47882D01*
X384052Y48310D01*
X387853Y58553D01*
X389746D01*
X384250Y44463D01*
D02*
G37*
G36*
X375885Y57011D02*
X375870Y56996D01*
X375824Y56950D01*
X375747Y56858D01*
X375656Y56751D01*
X375534Y56599D01*
X375381Y56431D01*
X375228Y56233D01*
X375045Y56003D01*
X374847Y55744D01*
X374633Y55454D01*
X374404Y55133D01*
X374175Y54798D01*
X373946Y54446D01*
X373702Y54050D01*
X373442Y53637D01*
X373198Y53210D01*
X373183Y53179D01*
X373137Y53103D01*
X373076Y52981D01*
X372984Y52798D01*
X372878Y52584D01*
X372740Y52325D01*
X372603Y52035D01*
X372450Y51714D01*
X372298Y51363D01*
X372130Y50981D01*
X371962Y50569D01*
X371794Y50157D01*
X371626Y49714D01*
X371458Y49256D01*
X371168Y48325D01*
Y48310D01*
X371153Y48249D01*
X371122Y48142D01*
X371091Y48020D01*
X371046Y47852D01*
X371000Y47653D01*
X370939Y47424D01*
X370893Y47180D01*
X370832Y46905D01*
X370786Y46600D01*
X370725Y46280D01*
X370679Y45944D01*
X370618Y45592D01*
X370573Y45226D01*
X370511Y44463D01*
X368741D01*
Y44478D01*
Y44539D01*
Y44631D01*
X368756Y44753D01*
X368771Y44921D01*
X368786Y45104D01*
X368802Y45333D01*
X368832Y45577D01*
X368863Y45867D01*
X368909Y46157D01*
X368954Y46493D01*
X369015Y46844D01*
X369092Y47226D01*
X369168Y47623D01*
X369275Y48035D01*
X369382Y48462D01*
X369397Y48493D01*
X369412Y48569D01*
X369443Y48691D01*
X369504Y48859D01*
X369565Y49073D01*
X369641Y49332D01*
X369733Y49607D01*
X369840Y49913D01*
X369962Y50248D01*
X370099Y50615D01*
X370237Y50996D01*
X370405Y51378D01*
X370756Y52187D01*
X371168Y53011D01*
X371183Y53042D01*
X371229Y53103D01*
X371290Y53225D01*
X371366Y53378D01*
X371488Y53561D01*
X371610Y53775D01*
X371763Y54019D01*
X371916Y54294D01*
X372099Y54569D01*
X372298Y54874D01*
X372725Y55484D01*
X373183Y56110D01*
X373427Y56416D01*
X373671Y56706D01*
X366771D01*
Y58370D01*
X375885D01*
Y57011D01*
D02*
G37*
G36*
X364131Y44463D02*
X362161D01*
Y46432D01*
X364131D01*
Y44463D01*
D02*
G37*
G36*
X255457Y158647D02*
X255594Y158635D01*
X255732Y158622D01*
X255894Y158610D01*
X256244Y158560D01*
X256632Y158485D01*
X257019Y158372D01*
X257394Y158235D01*
X257407D01*
X257432Y158210D01*
X257494Y158197D01*
X257556Y158160D01*
X257631Y158110D01*
X257731Y158060D01*
X257944Y157935D01*
X258194Y157760D01*
X258444Y157547D01*
X258681Y157310D01*
X258894Y157022D01*
X258906Y157010D01*
X258919Y156985D01*
X258944Y156947D01*
X258981Y156885D01*
X259019Y156810D01*
X259069Y156723D01*
X259106Y156610D01*
X259168Y156498D01*
X259268Y156235D01*
X259356Y155923D01*
X259431Y155585D01*
X259468Y155211D01*
X258006Y155098D01*
Y155111D01*
X257994Y155148D01*
Y155198D01*
X257981Y155273D01*
X257956Y155373D01*
X257931Y155473D01*
X257856Y155710D01*
X257756Y155973D01*
X257606Y156248D01*
X257432Y156510D01*
X257319Y156623D01*
X257194Y156735D01*
X257181Y156748D01*
X257169Y156760D01*
X257119Y156785D01*
X257069Y156823D01*
X256994Y156860D01*
X256907Y156910D01*
X256807Y156960D01*
X256694Y157022D01*
X256557Y157072D01*
X256407Y157122D01*
X256244Y157172D01*
X256069Y157210D01*
X255869Y157247D01*
X255657Y157272D01*
X255432Y157297D01*
X255070D01*
X254970Y157285D01*
X254857D01*
X254732Y157272D01*
X254582Y157260D01*
X254432Y157235D01*
X254095Y157172D01*
X253770Y157085D01*
X253458Y156960D01*
X253307Y156873D01*
X253183Y156785D01*
X253170D01*
X253158Y156760D01*
X253083Y156698D01*
X252983Y156585D01*
X252870Y156435D01*
X252758Y156260D01*
X252658Y156048D01*
X252583Y155823D01*
X252570Y155698D01*
X252558Y155560D01*
Y155548D01*
Y155535D01*
X252570Y155460D01*
X252583Y155348D01*
X252608Y155211D01*
X252670Y155048D01*
X252745Y154873D01*
X252845Y154711D01*
X252995Y154548D01*
X253020Y154536D01*
X253045Y154511D01*
X253095Y154473D01*
X253158Y154436D01*
X253232Y154398D01*
X253333Y154348D01*
X253445Y154286D01*
X253582Y154223D01*
X253745Y154161D01*
X253932Y154098D01*
X254145Y154023D01*
X254395Y153948D01*
X254657Y153873D01*
X254957Y153786D01*
X255294Y153711D01*
X255319D01*
X255382Y153698D01*
X255469Y153673D01*
X255594Y153636D01*
X255744Y153611D01*
X255919Y153561D01*
X256107Y153523D01*
X256307Y153461D01*
X256732Y153348D01*
X257157Y153236D01*
X257356Y153174D01*
X257531Y153111D01*
X257706Y153048D01*
X257844Y152986D01*
X257856D01*
X257894Y152961D01*
X257944Y152936D01*
X258006Y152899D01*
X258094Y152861D01*
X258194Y152799D01*
X258406Y152661D01*
X258656Y152499D01*
X258894Y152299D01*
X259131Y152061D01*
X259231Y151936D01*
X259331Y151811D01*
Y151799D01*
X259356Y151774D01*
X259381Y151736D01*
X259406Y151686D01*
X259443Y151624D01*
X259481Y151536D01*
X259581Y151336D01*
X259668Y151099D01*
X259743Y150824D01*
X259793Y150512D01*
X259818Y150174D01*
Y150162D01*
Y150137D01*
Y150087D01*
X259806Y150024D01*
Y149937D01*
X259793Y149849D01*
X259756Y149612D01*
X259693Y149349D01*
X259593Y149062D01*
X259456Y148762D01*
X259381Y148600D01*
X259281Y148450D01*
Y148437D01*
X259256Y148412D01*
X259231Y148375D01*
X259181Y148312D01*
X259069Y148175D01*
X258894Y147987D01*
X258681Y147787D01*
X258419Y147575D01*
X258119Y147375D01*
X257769Y147188D01*
X257756D01*
X257719Y147163D01*
X257669Y147150D01*
X257594Y147113D01*
X257506Y147087D01*
X257394Y147050D01*
X257269Y147000D01*
X257119Y146963D01*
X256969Y146925D01*
X256794Y146875D01*
X256419Y146813D01*
X256007Y146763D01*
X255557Y146738D01*
X255407D01*
X255294Y146750D01*
X255157D01*
X255007Y146763D01*
X254832Y146775D01*
X254632Y146800D01*
X254220Y146850D01*
X253782Y146925D01*
X253345Y147038D01*
X252920Y147188D01*
X252908D01*
X252870Y147212D01*
X252820Y147238D01*
X252745Y147275D01*
X252658Y147325D01*
X252558Y147375D01*
X252320Y147525D01*
X252058Y147712D01*
X251783Y147950D01*
X251508Y148225D01*
X251271Y148550D01*
X251258Y148562D01*
X251245Y148587D01*
X251221Y148637D01*
X251183Y148712D01*
X251133Y148800D01*
X251083Y148900D01*
X251021Y149024D01*
X250971Y149162D01*
X250908Y149299D01*
X250858Y149462D01*
X250758Y149824D01*
X250683Y150212D01*
X250658Y150424D01*
X250646Y150637D01*
X252083Y150762D01*
Y150749D01*
Y150724D01*
X252095Y150674D01*
X252108Y150612D01*
X252120Y150537D01*
X252133Y150462D01*
X252183Y150249D01*
X252245Y150024D01*
X252320Y149787D01*
X252420Y149549D01*
X252545Y149325D01*
X252558Y149299D01*
X252620Y149237D01*
X252708Y149137D01*
X252833Y149012D01*
X252995Y148862D01*
X253195Y148725D01*
X253433Y148575D01*
X253707Y148437D01*
X253720D01*
X253745Y148425D01*
X253782Y148412D01*
X253845Y148387D01*
X253920Y148362D01*
X254007Y148325D01*
X254107Y148300D01*
X254220Y148275D01*
X254482Y148212D01*
X254795Y148150D01*
X255120Y148112D01*
X255482Y148100D01*
X255632D01*
X255707Y148112D01*
X255794D01*
X255994Y148137D01*
X256232Y148162D01*
X256494Y148200D01*
X256757Y148262D01*
X257007Y148350D01*
X257019D01*
X257032Y148362D01*
X257069Y148375D01*
X257119Y148400D01*
X257232Y148462D01*
X257381Y148537D01*
X257544Y148637D01*
X257719Y148762D01*
X257869Y148900D01*
X258006Y149062D01*
X258019Y149087D01*
X258056Y149137D01*
X258119Y149237D01*
X258181Y149362D01*
X258231Y149512D01*
X258294Y149674D01*
X258331Y149862D01*
X258344Y150049D01*
Y150062D01*
Y150074D01*
Y150137D01*
X258331Y150249D01*
X258306Y150374D01*
X258269Y150524D01*
X258206Y150687D01*
X258131Y150849D01*
X258019Y150999D01*
X258006Y151011D01*
X257956Y151061D01*
X257881Y151137D01*
X257769Y151236D01*
X257631Y151336D01*
X257444Y151449D01*
X257232Y151561D01*
X256982Y151674D01*
X256957Y151686D01*
X256932Y151699D01*
X256882Y151711D01*
X256832Y151724D01*
X256757Y151749D01*
X256657Y151786D01*
X256557Y151811D01*
X256419Y151849D01*
X256282Y151899D01*
X256107Y151936D01*
X255919Y151986D01*
X255707Y152049D01*
X255482Y152099D01*
X255219Y152174D01*
X254932Y152236D01*
X254920D01*
X254870Y152249D01*
X254782Y152274D01*
X254682Y152299D01*
X254545Y152336D01*
X254395Y152374D01*
X254245Y152424D01*
X254070Y152474D01*
X253695Y152586D01*
X253333Y152711D01*
X253158Y152774D01*
X252995Y152836D01*
X252845Y152899D01*
X252720Y152961D01*
X252708D01*
X252683Y152986D01*
X252645Y153011D01*
X252583Y153036D01*
X252433Y153124D01*
X252258Y153249D01*
X252045Y153411D01*
X251845Y153586D01*
X251645Y153798D01*
X251483Y154023D01*
Y154036D01*
X251471Y154048D01*
X251446Y154086D01*
X251420Y154136D01*
X251358Y154273D01*
X251283Y154448D01*
X251208Y154661D01*
X251146Y154910D01*
X251096Y155185D01*
X251083Y155473D01*
Y155485D01*
Y155510D01*
Y155560D01*
X251096Y155623D01*
Y155698D01*
X251108Y155785D01*
X251146Y156010D01*
X251208Y156260D01*
X251283Y156523D01*
X251408Y156810D01*
X251570Y157098D01*
Y157110D01*
X251595Y157135D01*
X251621Y157172D01*
X251658Y157222D01*
X251783Y157360D01*
X251945Y157535D01*
X252145Y157722D01*
X252395Y157910D01*
X252683Y158097D01*
X253020Y158260D01*
X253033D01*
X253058Y158272D01*
X253120Y158297D01*
X253183Y158322D01*
X253270Y158347D01*
X253382Y158385D01*
X253507Y158422D01*
X253645Y158460D01*
X253795Y158497D01*
X253957Y158535D01*
X254307Y158597D01*
X254707Y158647D01*
X255132Y158660D01*
X255345D01*
X255457Y158647D01*
D02*
G37*
G36*
X332925Y146925D02*
X331613D01*
Y147975D01*
X331600Y147962D01*
X331575Y147925D01*
X331525Y147862D01*
X331463Y147787D01*
X331375Y147687D01*
X331275Y147587D01*
X331163Y147475D01*
X331025Y147362D01*
X330863Y147238D01*
X330688Y147125D01*
X330500Y147025D01*
X330288Y146938D01*
X330050Y146850D01*
X329813Y146788D01*
X329551Y146750D01*
X329263Y146738D01*
X329163D01*
X329088Y146750D01*
X329001D01*
X328901Y146763D01*
X328788Y146788D01*
X328663Y146813D01*
X328376Y146875D01*
X328063Y146975D01*
X327751Y147113D01*
X327589Y147188D01*
X327426Y147288D01*
X327413Y147300D01*
X327389Y147312D01*
X327351Y147350D01*
X327289Y147388D01*
X327214Y147450D01*
X327139Y147512D01*
X326951Y147687D01*
X326739Y147900D01*
X326526Y148162D01*
X326314Y148475D01*
X326126Y148825D01*
Y148837D01*
X326101Y148875D01*
X326089Y148925D01*
X326051Y149000D01*
X326026Y149087D01*
X325989Y149199D01*
X325939Y149337D01*
X325901Y149474D01*
X325864Y149637D01*
X325814Y149812D01*
X325776Y149999D01*
X325751Y150199D01*
X325701Y150624D01*
X325676Y151087D01*
Y151099D01*
Y151149D01*
Y151212D01*
X325689Y151299D01*
Y151411D01*
X325701Y151536D01*
X325714Y151686D01*
X325727Y151849D01*
X325776Y152199D01*
X325851Y152574D01*
X325951Y152973D01*
X326089Y153361D01*
Y153373D01*
X326114Y153411D01*
X326139Y153461D01*
X326164Y153536D01*
X326214Y153611D01*
X326264Y153711D01*
X326401Y153936D01*
X326576Y154198D01*
X326789Y154448D01*
X327039Y154698D01*
X327339Y154923D01*
X327351Y154936D01*
X327376Y154948D01*
X327426Y154973D01*
X327489Y155010D01*
X327564Y155048D01*
X327663Y155098D01*
X327763Y155148D01*
X327888Y155198D01*
X328163Y155298D01*
X328476Y155385D01*
X328826Y155448D01*
X329013Y155473D01*
X329326D01*
X329476Y155460D01*
X329650Y155435D01*
X329863Y155398D01*
X330088Y155335D01*
X330325Y155260D01*
X330550Y155148D01*
X330563D01*
X330575Y155135D01*
X330650Y155085D01*
X330750Y155023D01*
X330888Y154923D01*
X331038Y154798D01*
X331200Y154661D01*
X331362Y154498D01*
X331512Y154311D01*
Y158460D01*
X332925D01*
Y146925D01*
D02*
G37*
G36*
X352720Y155460D02*
X352794D01*
X352982Y155435D01*
X353194Y155410D01*
X353432Y155360D01*
X353669Y155285D01*
X353907Y155198D01*
X353919D01*
X353932Y155185D01*
X354007Y155148D01*
X354119Y155085D01*
X354269Y155010D01*
X354419Y154898D01*
X354582Y154786D01*
X354731Y154648D01*
X354856Y154486D01*
X354869Y154461D01*
X354907Y154411D01*
X354957Y154311D01*
X355032Y154186D01*
X355107Y154036D01*
X355169Y153861D01*
X355244Y153661D01*
X355294Y153436D01*
Y153423D01*
X355306Y153361D01*
X355319Y153261D01*
X355344Y153124D01*
X355356Y152936D01*
Y152824D01*
X355369Y152699D01*
Y152561D01*
X355381Y152399D01*
Y152236D01*
Y152061D01*
Y146925D01*
X353969D01*
Y152011D01*
Y152024D01*
Y152049D01*
Y152099D01*
Y152149D01*
Y152224D01*
X353957Y152311D01*
X353944Y152499D01*
X353932Y152711D01*
X353894Y152923D01*
X353857Y153124D01*
X353794Y153298D01*
X353782Y153323D01*
X353757Y153373D01*
X353719Y153448D01*
X353657Y153548D01*
X353582Y153661D01*
X353482Y153773D01*
X353357Y153886D01*
X353207Y153986D01*
X353194Y153998D01*
X353132Y154023D01*
X353045Y154073D01*
X352932Y154123D01*
X352782Y154161D01*
X352620Y154211D01*
X352432Y154236D01*
X352220Y154248D01*
X352132D01*
X352070Y154236D01*
X351995D01*
X351895Y154223D01*
X351682Y154173D01*
X351445Y154111D01*
X351183Y154011D01*
X350920Y153861D01*
X350783Y153773D01*
X350658Y153673D01*
X350645Y153661D01*
X350633Y153648D01*
X350595Y153611D01*
X350558Y153561D01*
X350508Y153486D01*
X350458Y153411D01*
X350395Y153311D01*
X350333Y153186D01*
X350270Y153048D01*
X350208Y152886D01*
X350158Y152711D01*
X350108Y152511D01*
X350070Y152286D01*
X350033Y152049D01*
X350020Y151774D01*
X350008Y151486D01*
Y146925D01*
X348596D01*
Y155285D01*
X349870D01*
Y154086D01*
X349883Y154098D01*
X349908Y154148D01*
X349970Y154211D01*
X350045Y154298D01*
X350133Y154411D01*
X350245Y154523D01*
X350383Y154648D01*
X350545Y154786D01*
X350720Y154910D01*
X350920Y155035D01*
X351133Y155148D01*
X351370Y155260D01*
X351632Y155348D01*
X351907Y155410D01*
X352207Y155460D01*
X352520Y155473D01*
X352645D01*
X352720Y155460D01*
D02*
G37*
G36*
X312180D02*
X312280D01*
X312517Y155435D01*
X312780Y155398D01*
X313080Y155348D01*
X313367Y155285D01*
X313655Y155185D01*
X313667D01*
X313692Y155173D01*
X313729Y155161D01*
X313780Y155135D01*
X313904Y155073D01*
X314079Y154986D01*
X314254Y154873D01*
X314429Y154736D01*
X314604Y154586D01*
X314754Y154411D01*
X314767Y154386D01*
X314817Y154323D01*
X314879Y154211D01*
X314954Y154073D01*
X315042Y153886D01*
X315117Y153661D01*
X315192Y153411D01*
X315254Y153124D01*
X313867Y152936D01*
Y152949D01*
Y152961D01*
X313842Y153036D01*
X313817Y153161D01*
X313767Y153298D01*
X313692Y153461D01*
X313592Y153623D01*
X313467Y153786D01*
X313317Y153936D01*
X313292Y153948D01*
X313230Y153998D01*
X313130Y154061D01*
X312992Y154123D01*
X312805Y154198D01*
X312580Y154248D01*
X312330Y154298D01*
X312030Y154311D01*
X311868D01*
X311793Y154298D01*
X311705D01*
X311493Y154273D01*
X311268Y154236D01*
X311030Y154173D01*
X310818Y154098D01*
X310730Y154048D01*
X310643Y153986D01*
X310630Y153973D01*
X310580Y153923D01*
X310518Y153861D01*
X310443Y153773D01*
X310355Y153661D01*
X310293Y153523D01*
X310243Y153386D01*
X310230Y153223D01*
Y153211D01*
Y153174D01*
X310243Y153124D01*
X310255Y153061D01*
X310305Y152899D01*
X310343Y152811D01*
X310393Y152724D01*
X310405Y152711D01*
X310430Y152686D01*
X310468Y152649D01*
X310530Y152599D01*
X310605Y152536D01*
X310705Y152474D01*
X310818Y152411D01*
X310943Y152349D01*
X310955D01*
X310993Y152336D01*
X311068Y152311D01*
X311180Y152274D01*
X311255Y152249D01*
X311343Y152224D01*
X311443Y152199D01*
X311555Y152161D01*
X311693Y152124D01*
X311842Y152086D01*
X312005Y152036D01*
X312192Y151986D01*
X312205D01*
X312255Y151974D01*
X312330Y151949D01*
X312442Y151924D01*
X312555Y151886D01*
X312692Y151849D01*
X312855Y151799D01*
X313017Y151749D01*
X313367Y151649D01*
X313705Y151536D01*
X313867Y151486D01*
X314017Y151424D01*
X314154Y151374D01*
X314279Y151324D01*
X314292D01*
X314304Y151312D01*
X314379Y151274D01*
X314492Y151224D01*
X314617Y151137D01*
X314767Y151037D01*
X314929Y150912D01*
X315079Y150762D01*
X315217Y150587D01*
X315229Y150562D01*
X315267Y150499D01*
X315329Y150399D01*
X315392Y150249D01*
X315454Y150074D01*
X315517Y149874D01*
X315554Y149637D01*
X315567Y149375D01*
Y149362D01*
Y149337D01*
Y149299D01*
Y149249D01*
X315542Y149112D01*
X315517Y148937D01*
X315467Y148737D01*
X315392Y148512D01*
X315279Y148275D01*
X315142Y148037D01*
Y148025D01*
X315117Y148012D01*
X315067Y147937D01*
X314967Y147825D01*
X314842Y147687D01*
X314667Y147525D01*
X314467Y147362D01*
X314229Y147212D01*
X313955Y147075D01*
X313942D01*
X313917Y147063D01*
X313880Y147050D01*
X313817Y147025D01*
X313742Y147000D01*
X313655Y146963D01*
X313555Y146938D01*
X313442Y146913D01*
X313180Y146850D01*
X312880Y146788D01*
X312555Y146750D01*
X312192Y146738D01*
X312030D01*
X311917Y146750D01*
X311793Y146763D01*
X311630Y146775D01*
X311455Y146788D01*
X311268Y146825D01*
X310868Y146900D01*
X310443Y147013D01*
X310243Y147087D01*
X310043Y147188D01*
X309868Y147288D01*
X309693Y147400D01*
X309681Y147413D01*
X309656Y147437D01*
X309618Y147475D01*
X309556Y147525D01*
X309493Y147600D01*
X309418Y147687D01*
X309331Y147787D01*
X309243Y147900D01*
X309143Y148037D01*
X309056Y148187D01*
X308968Y148350D01*
X308881Y148537D01*
X308806Y148725D01*
X308731Y148937D01*
X308668Y149174D01*
X308618Y149412D01*
X310018Y149637D01*
Y149624D01*
X310030Y149599D01*
Y149562D01*
X310043Y149499D01*
X310056Y149424D01*
X310081Y149349D01*
X310143Y149162D01*
X310230Y148950D01*
X310343Y148725D01*
X310480Y148525D01*
X310668Y148337D01*
X310680D01*
X310693Y148325D01*
X310768Y148275D01*
X310893Y148200D01*
X311068Y148125D01*
X311280Y148037D01*
X311543Y147975D01*
X311842Y147925D01*
X312180Y147900D01*
X312280D01*
X312342Y147912D01*
X312430D01*
X312517Y147925D01*
X312730Y147950D01*
X312967Y148000D01*
X313217Y148062D01*
X313442Y148162D01*
X313642Y148287D01*
X313667Y148300D01*
X313717Y148362D01*
X313792Y148437D01*
X313880Y148550D01*
X313967Y148687D01*
X314042Y148850D01*
X314092Y149024D01*
X314117Y149225D01*
Y149249D01*
Y149299D01*
X314092Y149399D01*
X314067Y149499D01*
X314017Y149624D01*
X313942Y149749D01*
X313829Y149874D01*
X313692Y149987D01*
X313680Y149999D01*
X313630Y150024D01*
X313542Y150062D01*
X313480Y150087D01*
X313405Y150112D01*
X313305Y150149D01*
X313205Y150187D01*
X313092Y150224D01*
X312955Y150262D01*
X312805Y150312D01*
X312630Y150362D01*
X312442Y150412D01*
X312242Y150462D01*
X312230D01*
X312180Y150474D01*
X312092Y150499D01*
X311992Y150524D01*
X311868Y150562D01*
X311718Y150599D01*
X311555Y150649D01*
X311380Y150699D01*
X311030Y150812D01*
X310668Y150924D01*
X310493Y150974D01*
X310343Y151037D01*
X310193Y151099D01*
X310068Y151149D01*
X310056D01*
X310043Y151161D01*
X309968Y151199D01*
X309868Y151262D01*
X309731Y151361D01*
X309581Y151474D01*
X309431Y151599D01*
X309281Y151761D01*
X309156Y151936D01*
X309143Y151961D01*
X309106Y152024D01*
X309056Y152136D01*
X309006Y152274D01*
X308956Y152436D01*
X308906Y152624D01*
X308868Y152836D01*
X308856Y153061D01*
Y153074D01*
Y153086D01*
Y153161D01*
X308868Y153261D01*
X308893Y153398D01*
X308918Y153561D01*
X308956Y153736D01*
X309018Y153923D01*
X309106Y154098D01*
X309118Y154123D01*
X309156Y154173D01*
X309206Y154261D01*
X309293Y154373D01*
X309381Y154498D01*
X309506Y154636D01*
X309643Y154761D01*
X309806Y154886D01*
X309818Y154898D01*
X309868Y154923D01*
X309943Y154973D01*
X310043Y155023D01*
X310168Y155085D01*
X310318Y155161D01*
X310505Y155236D01*
X310705Y155298D01*
X310718D01*
X310730Y155310D01*
X310805Y155323D01*
X310918Y155348D01*
X311080Y155385D01*
X311255Y155423D01*
X311468Y155448D01*
X311693Y155460D01*
X311930Y155473D01*
X312092D01*
X312180Y155460D01*
D02*
G37*
G36*
X265517Y150387D02*
X261155D01*
Y151811D01*
X265517D01*
Y150387D01*
D02*
G37*
G36*
X237062Y146925D02*
X235587D01*
Y156585D01*
X232213Y146925D01*
X230838D01*
X227514Y156748D01*
Y146925D01*
X226040D01*
Y158460D01*
X228326D01*
X231063Y150287D01*
Y150274D01*
X231076Y150237D01*
X231101Y150174D01*
X231126Y150099D01*
X231151Y150012D01*
X231188Y149899D01*
X231276Y149649D01*
X231363Y149375D01*
X231451Y149087D01*
X231538Y148825D01*
X231576Y148700D01*
X231613Y148587D01*
Y148600D01*
X231626Y148612D01*
X231638Y148650D01*
X231651Y148700D01*
X231676Y148775D01*
X231701Y148850D01*
X231726Y148950D01*
X231763Y149050D01*
X231800Y149174D01*
X231850Y149312D01*
X231901Y149462D01*
X231950Y149637D01*
X232013Y149812D01*
X232076Y150012D01*
X232150Y150212D01*
X232225Y150437D01*
X235000Y158460D01*
X237062D01*
Y146925D01*
D02*
G37*
G36*
X304020Y155460D02*
X304132D01*
X304369Y155435D01*
X304644Y155410D01*
X304932Y155360D01*
X305219Y155298D01*
X305482Y155211D01*
X305494D01*
X305507Y155198D01*
X305544Y155185D01*
X305594Y155161D01*
X305707Y155111D01*
X305857Y155035D01*
X306019Y154948D01*
X306182Y154836D01*
X306331Y154711D01*
X306469Y154573D01*
X306481Y154561D01*
X306519Y154511D01*
X306581Y154423D01*
X306644Y154311D01*
X306719Y154173D01*
X306794Y154011D01*
X306869Y153823D01*
X306919Y153611D01*
Y153598D01*
X306931Y153536D01*
X306944Y153448D01*
X306956Y153311D01*
X306969Y153136D01*
X306981Y152911D01*
Y152774D01*
X306994Y152636D01*
Y152486D01*
Y152311D01*
Y150424D01*
Y150399D01*
Y150337D01*
Y150237D01*
Y150112D01*
Y149949D01*
Y149774D01*
X307006Y149574D01*
Y149375D01*
X307019Y148950D01*
Y148737D01*
X307031Y148537D01*
X307044Y148350D01*
X307056Y148187D01*
X307069Y148037D01*
X307081Y147925D01*
Y147900D01*
X307094Y147837D01*
X307119Y147737D01*
X307156Y147600D01*
X307206Y147450D01*
X307269Y147288D01*
X307344Y147100D01*
X307431Y146925D01*
X305956D01*
X305944Y146950D01*
X305919Y147000D01*
X305882Y147100D01*
X305844Y147225D01*
X305794Y147375D01*
X305744Y147550D01*
X305707Y147750D01*
X305682Y147975D01*
X305669Y147962D01*
X305644Y147950D01*
X305607Y147912D01*
X305544Y147862D01*
X305469Y147812D01*
X305394Y147737D01*
X305194Y147600D01*
X304957Y147437D01*
X304707Y147275D01*
X304432Y147137D01*
X304157Y147013D01*
X304144D01*
X304119Y147000D01*
X304082Y146988D01*
X304032Y146975D01*
X303969Y146950D01*
X303882Y146925D01*
X303695Y146875D01*
X303457Y146825D01*
X303195Y146775D01*
X302907Y146750D01*
X302595Y146738D01*
X302457D01*
X302370Y146750D01*
X302257Y146763D01*
X302120Y146775D01*
X301970Y146788D01*
X301820Y146825D01*
X301470Y146900D01*
X301120Y147013D01*
X300958Y147087D01*
X300783Y147188D01*
X300633Y147288D01*
X300483Y147400D01*
X300470Y147413D01*
X300445Y147437D01*
X300420Y147475D01*
X300371Y147525D01*
X300308Y147587D01*
X300245Y147675D01*
X300183Y147762D01*
X300121Y147875D01*
X299983Y148112D01*
X299858Y148412D01*
X299808Y148575D01*
X299783Y148750D01*
X299758Y148937D01*
X299746Y149124D01*
Y149137D01*
Y149150D01*
Y149225D01*
X299758Y149349D01*
X299783Y149499D01*
X299808Y149674D01*
X299858Y149862D01*
X299933Y150049D01*
X300021Y150249D01*
X300033Y150274D01*
X300070Y150337D01*
X300133Y150424D01*
X300221Y150549D01*
X300320Y150674D01*
X300445Y150812D01*
X300583Y150937D01*
X300745Y151061D01*
X300770Y151074D01*
X300833Y151111D01*
X300920Y151174D01*
X301045Y151236D01*
X301195Y151312D01*
X301370Y151386D01*
X301570Y151461D01*
X301770Y151524D01*
X301795D01*
X301845Y151549D01*
X301945Y151561D01*
X302083Y151599D01*
X302257Y151624D01*
X302482Y151661D01*
X302732Y151699D01*
X303032Y151736D01*
X303057D01*
X303107Y151749D01*
X303195Y151761D01*
X303307Y151774D01*
X303457Y151799D01*
X303620Y151824D01*
X303795Y151849D01*
X303995Y151874D01*
X304407Y151949D01*
X304819Y152036D01*
X305019Y152086D01*
X305219Y152136D01*
X305394Y152186D01*
X305557Y152236D01*
Y152249D01*
Y152286D01*
Y152336D01*
X305569Y152386D01*
Y152511D01*
Y152561D01*
Y152599D01*
Y152611D01*
Y152636D01*
Y152686D01*
Y152736D01*
X305544Y152886D01*
X305519Y153074D01*
X305469Y153273D01*
X305394Y153473D01*
X305294Y153661D01*
X305157Y153811D01*
X305132Y153836D01*
X305107Y153861D01*
X305057Y153886D01*
X304994Y153923D01*
X304932Y153961D01*
X304757Y154061D01*
X304532Y154148D01*
X304257Y154223D01*
X303932Y154273D01*
X303557Y154298D01*
X303395D01*
X303307Y154286D01*
X303220D01*
X302995Y154261D01*
X302757Y154211D01*
X302520Y154148D01*
X302283Y154061D01*
X302083Y153948D01*
X302057Y153936D01*
X302008Y153886D01*
X301920Y153786D01*
X301820Y153661D01*
X301708Y153498D01*
X301583Y153273D01*
X301483Y153024D01*
X301433Y152874D01*
X301383Y152711D01*
X299996Y152899D01*
Y152911D01*
X300008Y152936D01*
X300021Y152986D01*
X300033Y153048D01*
X300058Y153124D01*
X300083Y153211D01*
X300145Y153411D01*
X300233Y153636D01*
X300333Y153873D01*
X300458Y154111D01*
X300608Y154323D01*
Y154336D01*
X300633Y154348D01*
X300695Y154411D01*
X300795Y154511D01*
X300933Y154636D01*
X301108Y154773D01*
X301320Y154910D01*
X301570Y155048D01*
X301858Y155173D01*
X301870D01*
X301895Y155185D01*
X301945Y155198D01*
X302008Y155223D01*
X302083Y155248D01*
X302170Y155273D01*
X302283Y155298D01*
X302407Y155323D01*
X302532Y155348D01*
X302682Y155373D01*
X303007Y155423D01*
X303370Y155460D01*
X303757Y155473D01*
X303932D01*
X304020Y155460D01*
D02*
G37*
G36*
X294235Y158447D02*
X294372D01*
X294510Y158435D01*
X294672Y158410D01*
X294997Y158372D01*
X295359Y158310D01*
X295697Y158222D01*
X296022Y158097D01*
X296034D01*
X296059Y158085D01*
X296097Y158060D01*
X296159Y158035D01*
X296297Y157947D01*
X296484Y157835D01*
X296684Y157685D01*
X296884Y157497D01*
X297084Y157272D01*
X297271Y157022D01*
Y157010D01*
X297296Y156985D01*
X297309Y156947D01*
X297346Y156897D01*
X297384Y156835D01*
X297421Y156748D01*
X297509Y156560D01*
X297584Y156335D01*
X297659Y156073D01*
X297709Y155798D01*
X297734Y155498D01*
Y155485D01*
Y155460D01*
Y155423D01*
Y155373D01*
X297709Y155236D01*
X297684Y155048D01*
X297634Y154836D01*
X297559Y154598D01*
X297459Y154361D01*
X297321Y154111D01*
Y154098D01*
X297309Y154086D01*
X297284Y154048D01*
X297246Y153998D01*
X297159Y153886D01*
X297021Y153736D01*
X296859Y153573D01*
X296646Y153398D01*
X296409Y153223D01*
X296122Y153061D01*
X296134D01*
X296171Y153048D01*
X296222Y153024D01*
X296297Y152999D01*
X296384Y152961D01*
X296484Y152923D01*
X296709Y152811D01*
X296971Y152674D01*
X297234Y152486D01*
X297496Y152274D01*
X297721Y152011D01*
X297734Y151999D01*
X297746Y151974D01*
X297771Y151936D01*
X297809Y151886D01*
X297859Y151811D01*
X297909Y151724D01*
X297959Y151624D01*
X298009Y151511D01*
X298109Y151262D01*
X298209Y150962D01*
X298271Y150624D01*
X298296Y150449D01*
Y150262D01*
Y150249D01*
Y150224D01*
Y150187D01*
Y150124D01*
X298284Y150049D01*
Y149974D01*
X298258Y149774D01*
X298209Y149537D01*
X298146Y149287D01*
X298059Y149012D01*
X297946Y148750D01*
Y148737D01*
X297934Y148725D01*
X297909Y148687D01*
X297884Y148637D01*
X297809Y148512D01*
X297709Y148362D01*
X297596Y148187D01*
X297446Y148012D01*
X297284Y147837D01*
X297096Y147675D01*
X297071Y147662D01*
X297009Y147612D01*
X296896Y147550D01*
X296746Y147462D01*
X296571Y147375D01*
X296359Y147275D01*
X296109Y147188D01*
X295834Y147113D01*
X295822D01*
X295797Y147100D01*
X295759D01*
X295697Y147087D01*
X295622Y147075D01*
X295534Y147050D01*
X295434Y147038D01*
X295322Y147025D01*
X295197Y147000D01*
X295047Y146988D01*
X294734Y146950D01*
X294372Y146938D01*
X293972Y146925D01*
X289586D01*
Y158460D01*
X294122D01*
X294235Y158447D01*
D02*
G37*
G36*
X280975Y146925D02*
X279563D01*
Y155935D01*
X279538Y155910D01*
X279476Y155848D01*
X279363Y155760D01*
X279201Y155635D01*
X279013Y155485D01*
X278776Y155323D01*
X278514Y155148D01*
X278214Y154960D01*
X278201D01*
X278176Y154936D01*
X278139Y154910D01*
X278076Y154886D01*
X278001Y154836D01*
X277914Y154798D01*
X277714Y154686D01*
X277489Y154573D01*
X277239Y154448D01*
X276977Y154336D01*
X276726Y154236D01*
Y155598D01*
X276739Y155610D01*
X276777Y155623D01*
X276839Y155660D01*
X276926Y155698D01*
X277026Y155748D01*
X277151Y155823D01*
X277289Y155898D01*
X277426Y155973D01*
X277751Y156173D01*
X278101Y156410D01*
X278464Y156660D01*
X278801Y156947D01*
X278813Y156960D01*
X278839Y156985D01*
X278888Y157022D01*
X278951Y157085D01*
X279013Y157160D01*
X279101Y157235D01*
X279288Y157447D01*
X279501Y157672D01*
X279713Y157935D01*
X279901Y158210D01*
X280063Y158497D01*
X280975D01*
Y146925D01*
D02*
G37*
G36*
X245035Y158447D02*
X245172D01*
X245335Y158435D01*
X245522Y158422D01*
X245897Y158385D01*
X246284Y158322D01*
X246659Y158247D01*
X246822Y158197D01*
X246984Y158147D01*
X246997D01*
X247022Y158135D01*
X247059Y158110D01*
X247122Y158085D01*
X247272Y158010D01*
X247446Y157897D01*
X247659Y157747D01*
X247871Y157547D01*
X248084Y157322D01*
X248271Y157048D01*
Y157035D01*
X248296Y157010D01*
X248321Y156973D01*
X248346Y156910D01*
X248384Y156835D01*
X248421Y156748D01*
X248471Y156648D01*
X248521Y156535D01*
X248609Y156273D01*
X248684Y155985D01*
X248734Y155660D01*
X248759Y155310D01*
Y155298D01*
Y155260D01*
Y155185D01*
X248746Y155111D01*
X248734Y154998D01*
X248721Y154873D01*
X248696Y154736D01*
X248659Y154586D01*
X248559Y154261D01*
X248496Y154086D01*
X248421Y153911D01*
X248334Y153736D01*
X248221Y153561D01*
X248096Y153398D01*
X247959Y153236D01*
X247946Y153223D01*
X247921Y153198D01*
X247871Y153161D01*
X247809Y153098D01*
X247722Y153036D01*
X247621Y152961D01*
X247496Y152874D01*
X247346Y152786D01*
X247184Y152699D01*
X247009Y152611D01*
X246809Y152524D01*
X246584Y152436D01*
X246347Y152361D01*
X246084Y152286D01*
X245797Y152224D01*
X245497Y152174D01*
X245509D01*
X245522Y152161D01*
X245597Y152124D01*
X245709Y152061D01*
X245847Y151986D01*
X245997Y151899D01*
X246147Y151811D01*
X246297Y151699D01*
X246422Y151599D01*
X246434Y151586D01*
X246447Y151574D01*
X246484Y151536D01*
X246534Y151486D01*
X246597Y151424D01*
X246672Y151349D01*
X246834Y151174D01*
X247022Y150949D01*
X247234Y150687D01*
X247459Y150387D01*
X247684Y150062D01*
X249683Y146925D01*
X247771D01*
X246247Y149325D01*
X246234Y149337D01*
X246222Y149375D01*
X246184Y149424D01*
X246134Y149499D01*
X246084Y149587D01*
X246009Y149687D01*
X245859Y149912D01*
X245685Y150174D01*
X245509Y150437D01*
X245322Y150687D01*
X245147Y150912D01*
Y150924D01*
X245122Y150937D01*
X245072Y150999D01*
X244997Y151099D01*
X244885Y151212D01*
X244772Y151336D01*
X244635Y151461D01*
X244497Y151586D01*
X244372Y151674D01*
X244360Y151686D01*
X244310Y151711D01*
X244247Y151749D01*
X244160Y151799D01*
X244047Y151849D01*
X243935Y151899D01*
X243810Y151949D01*
X243673Y151986D01*
X243660D01*
X243622Y151999D01*
X243560Y152011D01*
X243472Y152024D01*
X243348D01*
X243198Y152036D01*
X243023Y152049D01*
X241061D01*
Y146925D01*
X239536D01*
Y158460D01*
X244897D01*
X245035Y158447D01*
D02*
G37*
G36*
X217417Y146925D02*
X216005D01*
Y155935D01*
X215980Y155910D01*
X215917Y155848D01*
X215805Y155760D01*
X215642Y155635D01*
X215455Y155485D01*
X215217Y155323D01*
X214955Y155148D01*
X214655Y154960D01*
X214642D01*
X214617Y154936D01*
X214580Y154910D01*
X214517Y154886D01*
X214443Y154836D01*
X214355Y154798D01*
X214155Y154686D01*
X213930Y154573D01*
X213680Y154448D01*
X213418Y154336D01*
X213168Y154236D01*
Y155598D01*
X213180Y155610D01*
X213218Y155623D01*
X213280Y155660D01*
X213368Y155698D01*
X213468Y155748D01*
X213593Y155823D01*
X213730Y155898D01*
X213868Y155973D01*
X214193Y156173D01*
X214542Y156410D01*
X214905Y156660D01*
X215242Y156947D01*
X215255Y156960D01*
X215280Y156985D01*
X215330Y157022D01*
X215392Y157085D01*
X215455Y157160D01*
X215542Y157235D01*
X215730Y157447D01*
X215942Y157672D01*
X216154Y157935D01*
X216342Y158210D01*
X216504Y158497D01*
X217417D01*
Y146925D01*
D02*
G37*
G36*
X207219Y158485D02*
X207357Y158472D01*
X207519Y158447D01*
X207707Y158422D01*
X207894Y158385D01*
X208107Y158335D01*
X208319Y158272D01*
X208544Y158197D01*
X208756Y158110D01*
X208981Y157997D01*
X209194Y157872D01*
X209394Y157735D01*
X209581Y157572D01*
X209594Y157560D01*
X209619Y157535D01*
X209669Y157472D01*
X209731Y157410D01*
X209806Y157322D01*
X209894Y157210D01*
X209981Y157085D01*
X210069Y156935D01*
X210156Y156785D01*
X210243Y156610D01*
X210331Y156423D01*
X210406Y156223D01*
X210469Y155998D01*
X210518Y155773D01*
X210543Y155535D01*
X210556Y155285D01*
Y155273D01*
Y155260D01*
Y155223D01*
Y155173D01*
X210543Y155035D01*
X210518Y154860D01*
X210481Y154648D01*
X210431Y154423D01*
X210368Y154173D01*
X210268Y153923D01*
Y153911D01*
X210256Y153898D01*
X210243Y153861D01*
X210219Y153811D01*
X210144Y153673D01*
X210044Y153498D01*
X209906Y153286D01*
X209744Y153048D01*
X209556Y152799D01*
X209319Y152524D01*
X209306Y152511D01*
X209294Y152486D01*
X209244Y152449D01*
X209194Y152386D01*
X209119Y152311D01*
X209031Y152224D01*
X208931Y152111D01*
X208806Y151999D01*
X208657Y151861D01*
X208494Y151711D01*
X208319Y151536D01*
X208119Y151361D01*
X207907Y151161D01*
X207669Y150962D01*
X207407Y150737D01*
X207132Y150499D01*
X207119Y150487D01*
X207082Y150449D01*
X207007Y150399D01*
X206932Y150324D01*
X206819Y150237D01*
X206707Y150137D01*
X206444Y149912D01*
X206170Y149674D01*
X205907Y149424D01*
X205782Y149312D01*
X205670Y149212D01*
X205570Y149112D01*
X205495Y149037D01*
X205482Y149024D01*
X205432Y148975D01*
X205370Y148900D01*
X205282Y148800D01*
X205182Y148687D01*
X205082Y148562D01*
X204882Y148287D01*
X210569D01*
Y146925D01*
X202933D01*
Y146950D01*
Y147013D01*
Y147113D01*
X202945Y147238D01*
X202958Y147388D01*
X202995Y147550D01*
X203033Y147725D01*
X203095Y147900D01*
Y147912D01*
X203108Y147937D01*
X203120Y147975D01*
X203145Y148037D01*
X203183Y148100D01*
X203220Y148187D01*
X203320Y148387D01*
X203445Y148625D01*
X203608Y148887D01*
X203795Y149162D01*
X204020Y149437D01*
X204033Y149449D01*
X204045Y149474D01*
X204083Y149512D01*
X204145Y149574D01*
X204208Y149637D01*
X204295Y149724D01*
X204382Y149824D01*
X204495Y149937D01*
X204620Y150062D01*
X204757Y150187D01*
X204907Y150337D01*
X205082Y150487D01*
X205257Y150649D01*
X205457Y150812D01*
X205657Y150986D01*
X205882Y151174D01*
X205907Y151187D01*
X205970Y151249D01*
X206057Y151324D01*
X206182Y151436D01*
X206332Y151561D01*
X206507Y151711D01*
X206707Y151874D01*
X206907Y152061D01*
X207332Y152449D01*
X207744Y152861D01*
X207944Y153061D01*
X208132Y153261D01*
X208294Y153448D01*
X208431Y153623D01*
X208444Y153636D01*
X208456Y153661D01*
X208494Y153711D01*
X208531Y153773D01*
X208594Y153861D01*
X208644Y153948D01*
X208769Y154173D01*
X208894Y154436D01*
X209006Y154723D01*
X209081Y155023D01*
X209094Y155173D01*
X209106Y155323D01*
Y155335D01*
Y155360D01*
Y155410D01*
X209094Y155460D01*
Y155535D01*
X209069Y155623D01*
X209031Y155810D01*
X208956Y156035D01*
X208844Y156273D01*
X208781Y156398D01*
X208694Y156510D01*
X208606Y156623D01*
X208494Y156735D01*
X208482Y156748D01*
X208469Y156760D01*
X208431Y156785D01*
X208382Y156823D01*
X208319Y156873D01*
X208244Y156923D01*
X208069Y157035D01*
X207832Y157135D01*
X207569Y157235D01*
X207257Y157297D01*
X207082Y157322D01*
X206807D01*
X206732Y157310D01*
X206644D01*
X206544Y157285D01*
X206320Y157247D01*
X206057Y157172D01*
X205782Y157060D01*
X205645Y156985D01*
X205507Y156910D01*
X205382Y156810D01*
X205257Y156698D01*
X205245Y156685D01*
X205232Y156673D01*
X205207Y156635D01*
X205157Y156585D01*
X205120Y156523D01*
X205070Y156448D01*
X205007Y156360D01*
X204957Y156260D01*
X204895Y156148D01*
X204845Y156023D01*
X204745Y155723D01*
X204670Y155398D01*
X204657Y155211D01*
X204645Y155010D01*
X203195Y155161D01*
Y155185D01*
X203208Y155236D01*
X203220Y155310D01*
X203233Y155423D01*
X203258Y155560D01*
X203295Y155723D01*
X203333Y155898D01*
X203395Y156085D01*
X203458Y156273D01*
X203533Y156485D01*
X203633Y156685D01*
X203733Y156885D01*
X203858Y157098D01*
X203995Y157285D01*
X204145Y157472D01*
X204320Y157635D01*
X204333Y157647D01*
X204370Y157672D01*
X204420Y157710D01*
X204495Y157772D01*
X204595Y157835D01*
X204720Y157910D01*
X204857Y157985D01*
X205020Y158072D01*
X205195Y158147D01*
X205395Y158222D01*
X205607Y158297D01*
X205845Y158360D01*
X206095Y158422D01*
X206357Y158460D01*
X206644Y158485D01*
X206944Y158497D01*
X207107D01*
X207219Y158485D01*
D02*
G37*
G36*
X189299D02*
X189436Y158472D01*
X189599Y158447D01*
X189786Y158422D01*
X189974Y158385D01*
X190186Y158335D01*
X190399Y158272D01*
X190624Y158197D01*
X190836Y158110D01*
X191061Y157997D01*
X191273Y157872D01*
X191473Y157735D01*
X191661Y157572D01*
X191673Y157560D01*
X191698Y157535D01*
X191748Y157472D01*
X191811Y157410D01*
X191886Y157322D01*
X191973Y157210D01*
X192061Y157085D01*
X192148Y156935D01*
X192236Y156785D01*
X192323Y156610D01*
X192411Y156423D01*
X192486Y156223D01*
X192548Y155998D01*
X192598Y155773D01*
X192623Y155535D01*
X192636Y155285D01*
Y155273D01*
Y155260D01*
Y155223D01*
Y155173D01*
X192623Y155035D01*
X192598Y154860D01*
X192561Y154648D01*
X192511Y154423D01*
X192448Y154173D01*
X192348Y153923D01*
Y153911D01*
X192336Y153898D01*
X192323Y153861D01*
X192298Y153811D01*
X192223Y153673D01*
X192123Y153498D01*
X191986Y153286D01*
X191823Y153048D01*
X191636Y152799D01*
X191398Y152524D01*
X191386Y152511D01*
X191373Y152486D01*
X191323Y152449D01*
X191273Y152386D01*
X191198Y152311D01*
X191111Y152224D01*
X191011Y152111D01*
X190886Y151999D01*
X190736Y151861D01*
X190574Y151711D01*
X190399Y151536D01*
X190199Y151361D01*
X189986Y151161D01*
X189749Y150962D01*
X189486Y150737D01*
X189211Y150499D01*
X189199Y150487D01*
X189161Y150449D01*
X189086Y150399D01*
X189011Y150324D01*
X188899Y150237D01*
X188787Y150137D01*
X188524Y149912D01*
X188249Y149674D01*
X187987Y149424D01*
X187862Y149312D01*
X187749Y149212D01*
X187649Y149112D01*
X187574Y149037D01*
X187562Y149024D01*
X187512Y148975D01*
X187449Y148900D01*
X187362Y148800D01*
X187262Y148687D01*
X187162Y148562D01*
X186962Y148287D01*
X192648D01*
Y146925D01*
X185012D01*
Y146950D01*
Y147013D01*
Y147113D01*
X185025Y147238D01*
X185037Y147388D01*
X185075Y147550D01*
X185112Y147725D01*
X185175Y147900D01*
Y147912D01*
X185187Y147937D01*
X185200Y147975D01*
X185225Y148037D01*
X185262Y148100D01*
X185300Y148187D01*
X185400Y148387D01*
X185525Y148625D01*
X185687Y148887D01*
X185875Y149162D01*
X186100Y149437D01*
X186112Y149449D01*
X186125Y149474D01*
X186162Y149512D01*
X186225Y149574D01*
X186287Y149637D01*
X186375Y149724D01*
X186462Y149824D01*
X186575Y149937D01*
X186700Y150062D01*
X186837Y150187D01*
X186987Y150337D01*
X187162Y150487D01*
X187337Y150649D01*
X187537Y150812D01*
X187737Y150986D01*
X187962Y151174D01*
X187987Y151187D01*
X188049Y151249D01*
X188137Y151324D01*
X188262Y151436D01*
X188412Y151561D01*
X188587Y151711D01*
X188787Y151874D01*
X188986Y152061D01*
X189411Y152449D01*
X189824Y152861D01*
X190024Y153061D01*
X190211Y153261D01*
X190374Y153448D01*
X190511Y153623D01*
X190524Y153636D01*
X190536Y153661D01*
X190574Y153711D01*
X190611Y153773D01*
X190674Y153861D01*
X190723Y153948D01*
X190849Y154173D01*
X190973Y154436D01*
X191086Y154723D01*
X191161Y155023D01*
X191173Y155173D01*
X191186Y155323D01*
Y155335D01*
Y155360D01*
Y155410D01*
X191173Y155460D01*
Y155535D01*
X191148Y155623D01*
X191111Y155810D01*
X191036Y156035D01*
X190924Y156273D01*
X190861Y156398D01*
X190774Y156510D01*
X190686Y156623D01*
X190574Y156735D01*
X190561Y156748D01*
X190549Y156760D01*
X190511Y156785D01*
X190461Y156823D01*
X190399Y156873D01*
X190324Y156923D01*
X190149Y157035D01*
X189911Y157135D01*
X189649Y157235D01*
X189336Y157297D01*
X189161Y157322D01*
X188887D01*
X188811Y157310D01*
X188724D01*
X188624Y157285D01*
X188399Y157247D01*
X188137Y157172D01*
X187862Y157060D01*
X187724Y156985D01*
X187587Y156910D01*
X187462Y156810D01*
X187337Y156698D01*
X187324Y156685D01*
X187312Y156673D01*
X187287Y156635D01*
X187237Y156585D01*
X187199Y156523D01*
X187150Y156448D01*
X187087Y156360D01*
X187037Y156260D01*
X186975Y156148D01*
X186924Y156023D01*
X186824Y155723D01*
X186750Y155398D01*
X186737Y155211D01*
X186725Y155010D01*
X185275Y155161D01*
Y155185D01*
X185287Y155236D01*
X185300Y155310D01*
X185312Y155423D01*
X185337Y155560D01*
X185375Y155723D01*
X185412Y155898D01*
X185475Y156085D01*
X185537Y156273D01*
X185612Y156485D01*
X185712Y156685D01*
X185812Y156885D01*
X185937Y157098D01*
X186075Y157285D01*
X186225Y157472D01*
X186400Y157635D01*
X186412Y157647D01*
X186450Y157672D01*
X186500Y157710D01*
X186575Y157772D01*
X186675Y157835D01*
X186800Y157910D01*
X186937Y157985D01*
X187099Y158072D01*
X187274Y158147D01*
X187474Y158222D01*
X187687Y158297D01*
X187924Y158360D01*
X188174Y158422D01*
X188437Y158460D01*
X188724Y158485D01*
X189024Y158497D01*
X189186D01*
X189299Y158485D01*
D02*
G37*
G36*
X343185Y155460D02*
X343310D01*
X343459Y155435D01*
X343622Y155410D01*
X343809Y155373D01*
X344022Y155335D01*
X344234Y155273D01*
X344472Y155198D01*
X344697Y155098D01*
X344934Y154998D01*
X345172Y154860D01*
X345396Y154711D01*
X345621Y154536D01*
X345834Y154336D01*
X345846Y154323D01*
X345884Y154286D01*
X345934Y154223D01*
X346009Y154123D01*
X346084Y154011D01*
X346184Y153873D01*
X346284Y153711D01*
X346384Y153523D01*
X346484Y153311D01*
X346584Y153074D01*
X346684Y152824D01*
X346759Y152549D01*
X346834Y152249D01*
X346884Y151924D01*
X346921Y151574D01*
X346934Y151212D01*
Y151199D01*
Y151137D01*
Y151061D01*
X346921Y150949D01*
Y150812D01*
X346909Y150649D01*
X346896Y150474D01*
X346871Y150287D01*
X346821Y149887D01*
X346734Y149462D01*
X346609Y149050D01*
X346534Y148862D01*
X346446Y148675D01*
Y148662D01*
X346421Y148637D01*
X346396Y148587D01*
X346359Y148525D01*
X346309Y148450D01*
X346246Y148350D01*
X346084Y148150D01*
X345884Y147912D01*
X345646Y147675D01*
X345359Y147450D01*
X345034Y147238D01*
X345022D01*
X344996Y147212D01*
X344947Y147188D01*
X344872Y147163D01*
X344784Y147125D01*
X344684Y147075D01*
X344572Y147038D01*
X344434Y146988D01*
X344297Y146938D01*
X344134Y146900D01*
X343797Y146813D01*
X343422Y146763D01*
X343022Y146738D01*
X342947D01*
X342860Y146750D01*
X342735D01*
X342585Y146775D01*
X342410Y146800D01*
X342222Y146838D01*
X342010Y146875D01*
X341785Y146938D01*
X341560Y147013D01*
X341323Y147100D01*
X341085Y147212D01*
X340848Y147338D01*
X340623Y147487D01*
X340398Y147662D01*
X340185Y147862D01*
X340173Y147875D01*
X340135Y147912D01*
X340085Y147975D01*
X340023Y148075D01*
X339935Y148187D01*
X339848Y148325D01*
X339748Y148500D01*
X339648Y148687D01*
X339548Y148912D01*
X339448Y149150D01*
X339361Y149412D01*
X339273Y149699D01*
X339211Y150012D01*
X339160Y150349D01*
X339123Y150712D01*
X339110Y151099D01*
Y151111D01*
Y151124D01*
Y151199D01*
X339123Y151324D01*
X339136Y151474D01*
X339148Y151674D01*
X339173Y151899D01*
X339223Y152136D01*
X339273Y152399D01*
X339336Y152674D01*
X339423Y152961D01*
X339535Y153249D01*
X339648Y153536D01*
X339798Y153811D01*
X339973Y154073D01*
X340173Y154311D01*
X340398Y154536D01*
X340410Y154548D01*
X340448Y154573D01*
X340510Y154623D01*
X340585Y154686D01*
X340698Y154748D01*
X340823Y154836D01*
X340960Y154923D01*
X341135Y155010D01*
X341310Y155098D01*
X341510Y155173D01*
X341722Y155260D01*
X341960Y155323D01*
X342210Y155385D01*
X342460Y155435D01*
X342735Y155460D01*
X343022Y155473D01*
X343097D01*
X343185Y155460D01*
D02*
G37*
G36*
X320828D02*
X320940D01*
X321090Y155435D01*
X321253Y155410D01*
X321440Y155373D01*
X321640Y155335D01*
X321852Y155273D01*
X322065Y155198D01*
X322302Y155098D01*
X322527Y154986D01*
X322752Y154860D01*
X322977Y154698D01*
X323202Y154523D01*
X323402Y154323D01*
X323415Y154311D01*
X323452Y154273D01*
X323502Y154211D01*
X323564Y154111D01*
X323652Y153998D01*
X323740Y153861D01*
X323839Y153686D01*
X323939Y153498D01*
X324027Y153286D01*
X324127Y153048D01*
X324214Y152786D01*
X324302Y152499D01*
X324364Y152186D01*
X324414Y151849D01*
X324452Y151499D01*
X324464Y151124D01*
Y151099D01*
Y151037D01*
Y150912D01*
X324452Y150749D01*
X318216D01*
Y150737D01*
Y150687D01*
X318228Y150612D01*
X318241Y150524D01*
X318253Y150399D01*
X318278Y150274D01*
X318303Y150124D01*
X318341Y149962D01*
X318441Y149624D01*
X318578Y149262D01*
X318666Y149100D01*
X318753Y148925D01*
X318866Y148775D01*
X318991Y148625D01*
X319003Y148612D01*
X319028Y148600D01*
X319066Y148562D01*
X319116Y148512D01*
X319191Y148462D01*
X319266Y148400D01*
X319366Y148325D01*
X319478Y148262D01*
X319728Y148125D01*
X320028Y148012D01*
X320190Y147962D01*
X320365Y147937D01*
X320553Y147912D01*
X320740Y147900D01*
X320815D01*
X320865Y147912D01*
X321015Y147925D01*
X321203Y147950D01*
X321403Y148000D01*
X321628Y148075D01*
X321852Y148162D01*
X322065Y148300D01*
X322077D01*
X322090Y148325D01*
X322152Y148375D01*
X322252Y148475D01*
X322377Y148625D01*
X322515Y148800D01*
X322665Y149037D01*
X322815Y149312D01*
X322940Y149624D01*
X324414Y149437D01*
Y149424D01*
X324402Y149375D01*
X324377Y149312D01*
X324339Y149225D01*
X324302Y149112D01*
X324252Y148987D01*
X324189Y148850D01*
X324127Y148700D01*
X323952Y148387D01*
X323727Y148050D01*
X323590Y147887D01*
X323452Y147725D01*
X323302Y147575D01*
X323127Y147437D01*
X323115Y147425D01*
X323090Y147413D01*
X323027Y147375D01*
X322965Y147325D01*
X322865Y147275D01*
X322752Y147212D01*
X322627Y147150D01*
X322477Y147087D01*
X322315Y147025D01*
X322127Y146963D01*
X321940Y146900D01*
X321727Y146850D01*
X321503Y146800D01*
X321265Y146763D01*
X321003Y146750D01*
X320740Y146738D01*
X320665D01*
X320565Y146750D01*
X320440D01*
X320278Y146775D01*
X320103Y146800D01*
X319903Y146838D01*
X319690Y146875D01*
X319466Y146938D01*
X319228Y147013D01*
X318978Y147100D01*
X318741Y147212D01*
X318491Y147338D01*
X318266Y147487D01*
X318041Y147662D01*
X317829Y147862D01*
X317816Y147875D01*
X317778Y147912D01*
X317729Y147975D01*
X317666Y148075D01*
X317579Y148187D01*
X317491Y148325D01*
X317391Y148487D01*
X317304Y148675D01*
X317204Y148887D01*
X317104Y149124D01*
X317016Y149387D01*
X316929Y149674D01*
X316866Y149974D01*
X316816Y150299D01*
X316779Y150649D01*
X316766Y151024D01*
Y151049D01*
Y151111D01*
X316779Y151224D01*
Y151374D01*
X316804Y151549D01*
X316829Y151749D01*
X316854Y151986D01*
X316904Y152224D01*
X316954Y152486D01*
X317029Y152749D01*
X317116Y153024D01*
X317216Y153298D01*
X317341Y153561D01*
X317491Y153823D01*
X317654Y154073D01*
X317841Y154298D01*
X317854Y154311D01*
X317891Y154348D01*
X317953Y154411D01*
X318041Y154486D01*
X318141Y154573D01*
X318278Y154673D01*
X318428Y154773D01*
X318603Y154886D01*
X318791Y154998D01*
X319003Y155098D01*
X319241Y155198D01*
X319491Y155285D01*
X319765Y155360D01*
X320040Y155423D01*
X320353Y155460D01*
X320665Y155473D01*
X320740D01*
X320828Y155460D01*
D02*
G37*
G36*
X270678Y158485D02*
X270765Y158472D01*
X270991Y158447D01*
X271240Y158410D01*
X271515Y158335D01*
X271790Y158247D01*
X272065Y158122D01*
X272078D01*
X272103Y158110D01*
X272140Y158085D01*
X272190Y158047D01*
X272315Y157972D01*
X272478Y157847D01*
X272665Y157697D01*
X272852Y157510D01*
X273053Y157285D01*
X273227Y157035D01*
Y157022D01*
X273252Y156997D01*
X273265Y156960D01*
X273302Y156910D01*
X273340Y156847D01*
X273390Y156760D01*
X273427Y156660D01*
X273490Y156560D01*
X273602Y156310D01*
X273715Y156023D01*
X273840Y155685D01*
X273940Y155323D01*
Y155310D01*
X273952Y155273D01*
X273965Y155223D01*
X273977Y155135D01*
X274002Y155035D01*
X274027Y154910D01*
X274052Y154773D01*
X274077Y154611D01*
X274090Y154423D01*
X274115Y154223D01*
X274140Y153998D01*
X274165Y153761D01*
X274177Y153498D01*
X274190Y153223D01*
X274202Y152923D01*
Y152611D01*
Y152586D01*
Y152524D01*
Y152411D01*
Y152274D01*
X274190Y152099D01*
X274177Y151911D01*
X274165Y151686D01*
X274152Y151449D01*
X274127Y151187D01*
X274102Y150924D01*
X274027Y150374D01*
X273915Y149837D01*
X273852Y149574D01*
X273777Y149337D01*
Y149325D01*
X273752Y149287D01*
X273740Y149212D01*
X273702Y149137D01*
X273652Y149024D01*
X273602Y148912D01*
X273540Y148775D01*
X273465Y148625D01*
X273290Y148312D01*
X273078Y148000D01*
X272827Y147687D01*
X272678Y147550D01*
X272528Y147413D01*
X272515Y147400D01*
X272490Y147388D01*
X272440Y147350D01*
X272378Y147312D01*
X272303Y147262D01*
X272203Y147200D01*
X272090Y147137D01*
X271953Y147075D01*
X271815Y147013D01*
X271653Y146950D01*
X271490Y146900D01*
X271303Y146838D01*
X271103Y146800D01*
X270891Y146763D01*
X270678Y146750D01*
X270441Y146738D01*
X270366D01*
X270278Y146750D01*
X270166Y146763D01*
X270028Y146775D01*
X269866Y146800D01*
X269691Y146838D01*
X269491Y146888D01*
X269291Y146950D01*
X269079Y147025D01*
X268853Y147125D01*
X268641Y147238D01*
X268429Y147375D01*
X268216Y147537D01*
X268016Y147712D01*
X267829Y147925D01*
X267816Y147937D01*
X267779Y147987D01*
X267729Y148075D01*
X267654Y148200D01*
X267566Y148362D01*
X267466Y148550D01*
X267366Y148787D01*
X267266Y149050D01*
X267154Y149362D01*
X267054Y149699D01*
X266954Y150087D01*
X266866Y150512D01*
X266792Y150974D01*
X266742Y151474D01*
X266704Y152024D01*
X266692Y152611D01*
Y152636D01*
Y152699D01*
Y152811D01*
X266704Y152949D01*
Y153124D01*
X266717Y153323D01*
X266729Y153548D01*
X266742Y153786D01*
X266767Y154048D01*
X266792Y154311D01*
X266866Y154860D01*
X266966Y155398D01*
X267029Y155660D01*
X267104Y155898D01*
Y155910D01*
X267129Y155948D01*
X267154Y156023D01*
X267179Y156110D01*
X267229Y156210D01*
X267279Y156335D01*
X267341Y156460D01*
X267416Y156610D01*
X267591Y156923D01*
X267816Y157235D01*
X268066Y157547D01*
X268204Y157685D01*
X268354Y157822D01*
X268366Y157835D01*
X268391Y157847D01*
X268441Y157885D01*
X268504Y157922D01*
X268579Y157985D01*
X268679Y158035D01*
X268791Y158097D01*
X268929Y158160D01*
X269066Y158222D01*
X269228Y158285D01*
X269403Y158347D01*
X269578Y158397D01*
X269778Y158435D01*
X269991Y158472D01*
X270216Y158485D01*
X270441Y158497D01*
X270591D01*
X270678Y158485D01*
D02*
G37*
G36*
X198159D02*
X198247Y158472D01*
X198472Y158447D01*
X198722Y158410D01*
X198996Y158335D01*
X199271Y158247D01*
X199546Y158122D01*
X199559D01*
X199584Y158110D01*
X199621Y158085D01*
X199671Y158047D01*
X199796Y157972D01*
X199959Y157847D01*
X200146Y157697D01*
X200334Y157510D01*
X200534Y157285D01*
X200709Y157035D01*
Y157022D01*
X200734Y156997D01*
X200746Y156960D01*
X200784Y156910D01*
X200821Y156847D01*
X200871Y156760D01*
X200908Y156660D01*
X200971Y156560D01*
X201083Y156310D01*
X201196Y156023D01*
X201321Y155685D01*
X201421Y155323D01*
Y155310D01*
X201433Y155273D01*
X201446Y155223D01*
X201458Y155135D01*
X201483Y155035D01*
X201508Y154910D01*
X201533Y154773D01*
X201558Y154611D01*
X201571Y154423D01*
X201596Y154223D01*
X201621Y153998D01*
X201646Y153761D01*
X201658Y153498D01*
X201671Y153223D01*
X201683Y152923D01*
Y152611D01*
Y152586D01*
Y152524D01*
Y152411D01*
Y152274D01*
X201671Y152099D01*
X201658Y151911D01*
X201646Y151686D01*
X201633Y151449D01*
X201608Y151187D01*
X201583Y150924D01*
X201508Y150374D01*
X201396Y149837D01*
X201333Y149574D01*
X201258Y149337D01*
Y149325D01*
X201233Y149287D01*
X201221Y149212D01*
X201183Y149137D01*
X201133Y149024D01*
X201083Y148912D01*
X201021Y148775D01*
X200946Y148625D01*
X200771Y148312D01*
X200558Y148000D01*
X200309Y147687D01*
X200159Y147550D01*
X200009Y147413D01*
X199996Y147400D01*
X199971Y147388D01*
X199921Y147350D01*
X199859Y147312D01*
X199784Y147262D01*
X199684Y147200D01*
X199571Y147137D01*
X199434Y147075D01*
X199296Y147013D01*
X199134Y146950D01*
X198971Y146900D01*
X198784Y146838D01*
X198584Y146800D01*
X198372Y146763D01*
X198159Y146750D01*
X197922Y146738D01*
X197847D01*
X197759Y146750D01*
X197647Y146763D01*
X197509Y146775D01*
X197347Y146800D01*
X197172Y146838D01*
X196972Y146888D01*
X196772Y146950D01*
X196560Y147025D01*
X196335Y147125D01*
X196122Y147238D01*
X195910Y147375D01*
X195697Y147537D01*
X195497Y147712D01*
X195310Y147925D01*
X195297Y147937D01*
X195260Y147987D01*
X195210Y148075D01*
X195135Y148200D01*
X195047Y148362D01*
X194947Y148550D01*
X194848Y148787D01*
X194748Y149050D01*
X194635Y149362D01*
X194535Y149699D01*
X194435Y150087D01*
X194348Y150512D01*
X194273Y150974D01*
X194223Y151474D01*
X194185Y152024D01*
X194173Y152611D01*
Y152636D01*
Y152699D01*
Y152811D01*
X194185Y152949D01*
Y153124D01*
X194198Y153323D01*
X194210Y153548D01*
X194223Y153786D01*
X194248Y154048D01*
X194273Y154311D01*
X194348Y154860D01*
X194448Y155398D01*
X194510Y155660D01*
X194585Y155898D01*
Y155910D01*
X194610Y155948D01*
X194635Y156023D01*
X194660Y156110D01*
X194710Y156210D01*
X194760Y156335D01*
X194823Y156460D01*
X194897Y156610D01*
X195072Y156923D01*
X195297Y157235D01*
X195547Y157547D01*
X195685Y157685D01*
X195835Y157822D01*
X195847Y157835D01*
X195872Y157847D01*
X195922Y157885D01*
X195985Y157922D01*
X196060Y157985D01*
X196160Y158035D01*
X196272Y158097D01*
X196410Y158160D01*
X196547Y158222D01*
X196709Y158285D01*
X196884Y158347D01*
X197059Y158397D01*
X197259Y158435D01*
X197472Y158472D01*
X197697Y158485D01*
X197922Y158497D01*
X198072D01*
X198159Y158485D01*
D02*
G37*
G36*
X309506Y144406D02*
X309668D01*
X309868Y144381D01*
X310093Y144356D01*
X310343Y144318D01*
X310605Y144268D01*
X310393Y143031D01*
X310368D01*
X310318Y143044D01*
X310230Y143056D01*
X310118Y143081D01*
X309993Y143094D01*
X309855Y143106D01*
X309556Y143119D01*
X309456D01*
X309331Y143106D01*
X309193Y143081D01*
X309043Y143056D01*
X308893Y143006D01*
X308756Y142931D01*
X308643Y142844D01*
X308631Y142831D01*
X308606Y142794D01*
X308556Y142719D01*
X308518Y142619D01*
X308468Y142469D01*
X308418Y142294D01*
X308393Y142081D01*
X308381Y141819D01*
Y141057D01*
X310005D01*
Y139957D01*
X308381D01*
Y132696D01*
X306969D01*
Y139957D01*
X305719D01*
Y141057D01*
X306969D01*
Y141931D01*
Y141944D01*
Y141969D01*
Y142006D01*
Y142069D01*
X306981Y142219D01*
X306994Y142406D01*
X307006Y142606D01*
X307031Y142806D01*
X307069Y143006D01*
X307119Y143181D01*
Y143194D01*
X307131Y143206D01*
X307156Y143268D01*
X307206Y143369D01*
X307281Y143493D01*
X307381Y143643D01*
X307506Y143793D01*
X307656Y143931D01*
X307831Y144068D01*
X307856Y144081D01*
X307931Y144118D01*
X308043Y144181D01*
X308206Y144243D01*
X308418Y144306D01*
X308668Y144368D01*
X308956Y144406D01*
X309281Y144418D01*
X309381D01*
X309506Y144406D01*
D02*
G37*
G36*
X365354Y142619D02*
X363942D01*
Y144231D01*
X365354D01*
Y142619D01*
D02*
G37*
G36*
X278514D02*
X277101D01*
Y144231D01*
X278514D01*
Y142619D01*
D02*
G37*
G36*
X212255D02*
X210843D01*
Y144231D01*
X212255D01*
Y142619D01*
D02*
G37*
G36*
X199721D02*
X198309D01*
Y144231D01*
X199721D01*
Y142619D01*
D02*
G37*
G36*
X261868Y144418D02*
X262005Y144406D01*
X262143Y144393D01*
X262305Y144381D01*
X262655Y144331D01*
X263043Y144256D01*
X263430Y144143D01*
X263805Y144006D01*
X263817D01*
X263842Y143981D01*
X263905Y143968D01*
X263967Y143931D01*
X264042Y143881D01*
X264142Y143831D01*
X264355Y143706D01*
X264605Y143531D01*
X264855Y143319D01*
X265092Y143081D01*
X265304Y142794D01*
X265317Y142781D01*
X265329Y142756D01*
X265354Y142719D01*
X265392Y142656D01*
X265429Y142581D01*
X265479Y142494D01*
X265517Y142381D01*
X265579Y142269D01*
X265679Y142006D01*
X265767Y141694D01*
X265842Y141356D01*
X265879Y140982D01*
X264417Y140869D01*
Y140882D01*
X264405Y140919D01*
Y140969D01*
X264392Y141044D01*
X264367Y141144D01*
X264342Y141244D01*
X264267Y141482D01*
X264167Y141744D01*
X264017Y142019D01*
X263842Y142281D01*
X263730Y142394D01*
X263605Y142506D01*
X263592Y142519D01*
X263580Y142531D01*
X263530Y142556D01*
X263480Y142594D01*
X263405Y142631D01*
X263318Y142681D01*
X263218Y142731D01*
X263105Y142794D01*
X262967Y142844D01*
X262818Y142894D01*
X262655Y142944D01*
X262480Y142981D01*
X262280Y143019D01*
X262068Y143044D01*
X261843Y143069D01*
X261480D01*
X261381Y143056D01*
X261268D01*
X261143Y143044D01*
X260993Y143031D01*
X260843Y143006D01*
X260506Y142944D01*
X260181Y142856D01*
X259868Y142731D01*
X259718Y142644D01*
X259593Y142556D01*
X259581D01*
X259568Y142531D01*
X259493Y142469D01*
X259394Y142356D01*
X259281Y142206D01*
X259168Y142031D01*
X259069Y141819D01*
X258994Y141594D01*
X258981Y141469D01*
X258969Y141332D01*
Y141319D01*
Y141306D01*
X258981Y141231D01*
X258994Y141119D01*
X259019Y140982D01*
X259081Y140819D01*
X259156Y140644D01*
X259256Y140482D01*
X259406Y140319D01*
X259431Y140307D01*
X259456Y140282D01*
X259506Y140244D01*
X259568Y140207D01*
X259643Y140169D01*
X259743Y140119D01*
X259856Y140057D01*
X259993Y139994D01*
X260156Y139932D01*
X260343Y139869D01*
X260556Y139794D01*
X260806Y139719D01*
X261068Y139644D01*
X261368Y139557D01*
X261705Y139482D01*
X261730D01*
X261793Y139469D01*
X261880Y139445D01*
X262005Y139407D01*
X262155Y139382D01*
X262330Y139332D01*
X262518Y139295D01*
X262718Y139232D01*
X263143Y139120D01*
X263567Y139007D01*
X263767Y138945D01*
X263942Y138882D01*
X264117Y138820D01*
X264255Y138757D01*
X264267D01*
X264305Y138732D01*
X264355Y138707D01*
X264417Y138670D01*
X264505Y138632D01*
X264605Y138570D01*
X264817Y138432D01*
X265067Y138270D01*
X265304Y138070D01*
X265542Y137832D01*
X265642Y137707D01*
X265742Y137583D01*
Y137570D01*
X265767Y137545D01*
X265792Y137507D01*
X265817Y137458D01*
X265854Y137395D01*
X265892Y137308D01*
X265992Y137108D01*
X266079Y136870D01*
X266154Y136595D01*
X266204Y136283D01*
X266229Y135945D01*
Y135933D01*
Y135908D01*
Y135858D01*
X266217Y135795D01*
Y135708D01*
X266204Y135620D01*
X266167Y135383D01*
X266104Y135121D01*
X266004Y134833D01*
X265867Y134533D01*
X265792Y134371D01*
X265692Y134221D01*
Y134208D01*
X265667Y134183D01*
X265642Y134146D01*
X265592Y134083D01*
X265479Y133946D01*
X265304Y133758D01*
X265092Y133559D01*
X264830Y133346D01*
X264530Y133146D01*
X264180Y132959D01*
X264167D01*
X264130Y132934D01*
X264080Y132921D01*
X264005Y132884D01*
X263917Y132859D01*
X263805Y132821D01*
X263680Y132771D01*
X263530Y132734D01*
X263380Y132696D01*
X263205Y132646D01*
X262830Y132584D01*
X262418Y132534D01*
X261968Y132509D01*
X261818D01*
X261705Y132521D01*
X261568D01*
X261418Y132534D01*
X261243Y132546D01*
X261043Y132571D01*
X260631Y132621D01*
X260193Y132696D01*
X259756Y132809D01*
X259331Y132959D01*
X259319D01*
X259281Y132984D01*
X259231Y133009D01*
X259156Y133046D01*
X259069Y133096D01*
X258969Y133146D01*
X258731Y133296D01*
X258469Y133483D01*
X258194Y133721D01*
X257919Y133996D01*
X257681Y134321D01*
X257669Y134333D01*
X257656Y134358D01*
X257631Y134408D01*
X257594Y134483D01*
X257544Y134571D01*
X257494Y134671D01*
X257432Y134796D01*
X257381Y134933D01*
X257319Y135071D01*
X257269Y135233D01*
X257169Y135596D01*
X257094Y135983D01*
X257069Y136195D01*
X257057Y136408D01*
X258494Y136533D01*
Y136520D01*
Y136495D01*
X258506Y136445D01*
X258519Y136383D01*
X258531Y136308D01*
X258544Y136233D01*
X258594Y136020D01*
X258656Y135795D01*
X258731Y135558D01*
X258831Y135321D01*
X258956Y135096D01*
X258969Y135071D01*
X259031Y135008D01*
X259118Y134908D01*
X259244Y134783D01*
X259406Y134633D01*
X259606Y134496D01*
X259843Y134346D01*
X260118Y134208D01*
X260131D01*
X260156Y134196D01*
X260193Y134183D01*
X260256Y134158D01*
X260331Y134133D01*
X260418Y134096D01*
X260518Y134071D01*
X260631Y134046D01*
X260893Y133983D01*
X261206Y133921D01*
X261530Y133883D01*
X261893Y133871D01*
X262043D01*
X262118Y133883D01*
X262205D01*
X262405Y133908D01*
X262643Y133933D01*
X262905Y133971D01*
X263167Y134033D01*
X263417Y134121D01*
X263430D01*
X263442Y134133D01*
X263480Y134146D01*
X263530Y134171D01*
X263642Y134233D01*
X263792Y134308D01*
X263955Y134408D01*
X264130Y134533D01*
X264280Y134671D01*
X264417Y134833D01*
X264430Y134858D01*
X264467Y134908D01*
X264530Y135008D01*
X264592Y135133D01*
X264642Y135283D01*
X264705Y135445D01*
X264742Y135633D01*
X264755Y135820D01*
Y135833D01*
Y135845D01*
Y135908D01*
X264742Y136020D01*
X264717Y136145D01*
X264680Y136295D01*
X264617Y136458D01*
X264542Y136620D01*
X264430Y136770D01*
X264417Y136783D01*
X264367Y136833D01*
X264292Y136908D01*
X264180Y137008D01*
X264042Y137108D01*
X263855Y137220D01*
X263642Y137332D01*
X263392Y137445D01*
X263367Y137458D01*
X263342Y137470D01*
X263293Y137483D01*
X263242Y137495D01*
X263167Y137520D01*
X263067Y137557D01*
X262967Y137583D01*
X262830Y137620D01*
X262693Y137670D01*
X262518Y137707D01*
X262330Y137757D01*
X262118Y137820D01*
X261893Y137870D01*
X261630Y137945D01*
X261343Y138007D01*
X261331D01*
X261280Y138020D01*
X261193Y138045D01*
X261093Y138070D01*
X260956Y138107D01*
X260806Y138145D01*
X260656Y138195D01*
X260481Y138245D01*
X260106Y138357D01*
X259743Y138482D01*
X259568Y138545D01*
X259406Y138607D01*
X259256Y138670D01*
X259131Y138732D01*
X259118D01*
X259093Y138757D01*
X259056Y138782D01*
X258994Y138807D01*
X258844Y138895D01*
X258669Y139020D01*
X258456Y139182D01*
X258256Y139357D01*
X258056Y139570D01*
X257894Y139794D01*
Y139807D01*
X257881Y139819D01*
X257856Y139857D01*
X257831Y139907D01*
X257769Y140044D01*
X257694Y140219D01*
X257619Y140432D01*
X257556Y140682D01*
X257506Y140957D01*
X257494Y141244D01*
Y141257D01*
Y141281D01*
Y141332D01*
X257506Y141394D01*
Y141469D01*
X257519Y141557D01*
X257556Y141781D01*
X257619Y142031D01*
X257694Y142294D01*
X257819Y142581D01*
X257981Y142869D01*
Y142881D01*
X258006Y142906D01*
X258031Y142944D01*
X258069Y142994D01*
X258194Y143131D01*
X258356Y143306D01*
X258556Y143493D01*
X258806Y143681D01*
X259093Y143868D01*
X259431Y144031D01*
X259443D01*
X259468Y144043D01*
X259531Y144068D01*
X259593Y144093D01*
X259681Y144118D01*
X259793Y144156D01*
X259918Y144193D01*
X260056Y144231D01*
X260206Y144268D01*
X260368Y144306D01*
X260718Y144368D01*
X261118Y144418D01*
X261543Y144431D01*
X261755D01*
X261868Y144418D01*
D02*
G37*
G36*
X352732Y132696D02*
X351420D01*
Y133746D01*
X351407Y133734D01*
X351382Y133696D01*
X351332Y133633D01*
X351270Y133559D01*
X351183Y133458D01*
X351082Y133359D01*
X350970Y133246D01*
X350832Y133134D01*
X350670Y133009D01*
X350495Y132896D01*
X350308Y132796D01*
X350095Y132709D01*
X349858Y132621D01*
X349620Y132559D01*
X349358Y132521D01*
X349071Y132509D01*
X348970D01*
X348895Y132521D01*
X348808D01*
X348708Y132534D01*
X348596Y132559D01*
X348471Y132584D01*
X348183Y132646D01*
X347871Y132746D01*
X347558Y132884D01*
X347396Y132959D01*
X347234Y133059D01*
X347221Y133071D01*
X347196Y133084D01*
X347159Y133121D01*
X347096Y133159D01*
X347021Y133221D01*
X346946Y133284D01*
X346759Y133458D01*
X346546Y133671D01*
X346334Y133933D01*
X346121Y134246D01*
X345934Y134596D01*
Y134608D01*
X345909Y134646D01*
X345896Y134696D01*
X345859Y134771D01*
X345834Y134858D01*
X345796Y134971D01*
X345746Y135108D01*
X345709Y135246D01*
X345671Y135408D01*
X345621Y135583D01*
X345584Y135770D01*
X345559Y135970D01*
X345509Y136395D01*
X345484Y136858D01*
Y136870D01*
Y136920D01*
Y136983D01*
X345496Y137070D01*
Y137183D01*
X345509Y137308D01*
X345521Y137458D01*
X345534Y137620D01*
X345584Y137970D01*
X345659Y138345D01*
X345759Y138745D01*
X345896Y139132D01*
Y139145D01*
X345921Y139182D01*
X345946Y139232D01*
X345971Y139307D01*
X346021Y139382D01*
X346071Y139482D01*
X346209Y139707D01*
X346384Y139969D01*
X346596Y140219D01*
X346846Y140469D01*
X347146Y140694D01*
X347159Y140707D01*
X347183Y140719D01*
X347234Y140744D01*
X347296Y140782D01*
X347371Y140819D01*
X347471Y140869D01*
X347571Y140919D01*
X347696Y140969D01*
X347971Y141069D01*
X348283Y141157D01*
X348633Y141219D01*
X348821Y141244D01*
X349133D01*
X349283Y141231D01*
X349458Y141207D01*
X349670Y141169D01*
X349895Y141107D01*
X350133Y141032D01*
X350358Y140919D01*
X350370D01*
X350383Y140907D01*
X350458Y140857D01*
X350558Y140794D01*
X350695Y140694D01*
X350845Y140569D01*
X351007Y140432D01*
X351170Y140269D01*
X351320Y140082D01*
Y144231D01*
X352732D01*
Y132696D01*
D02*
G37*
G36*
X299921D02*
X298608D01*
Y133746D01*
X298596Y133734D01*
X298571Y133696D01*
X298521Y133633D01*
X298458Y133559D01*
X298371Y133458D01*
X298271Y133359D01*
X298158Y133246D01*
X298021Y133134D01*
X297859Y133009D01*
X297684Y132896D01*
X297496Y132796D01*
X297284Y132709D01*
X297046Y132621D01*
X296809Y132559D01*
X296546Y132521D01*
X296259Y132509D01*
X296159D01*
X296084Y132521D01*
X295997D01*
X295897Y132534D01*
X295784Y132559D01*
X295659Y132584D01*
X295372Y132646D01*
X295059Y132746D01*
X294747Y132884D01*
X294585Y132959D01*
X294422Y133059D01*
X294410Y133071D01*
X294384Y133084D01*
X294347Y133121D01*
X294284Y133159D01*
X294209Y133221D01*
X294135Y133284D01*
X293947Y133458D01*
X293735Y133671D01*
X293522Y133933D01*
X293310Y134246D01*
X293122Y134596D01*
Y134608D01*
X293097Y134646D01*
X293085Y134696D01*
X293047Y134771D01*
X293022Y134858D01*
X292985Y134971D01*
X292935Y135108D01*
X292897Y135246D01*
X292860Y135408D01*
X292810Y135583D01*
X292772Y135770D01*
X292747Y135970D01*
X292697Y136395D01*
X292672Y136858D01*
Y136870D01*
Y136920D01*
Y136983D01*
X292685Y137070D01*
Y137183D01*
X292697Y137308D01*
X292710Y137458D01*
X292722Y137620D01*
X292772Y137970D01*
X292847Y138345D01*
X292947Y138745D01*
X293085Y139132D01*
Y139145D01*
X293110Y139182D01*
X293135Y139232D01*
X293160Y139307D01*
X293210Y139382D01*
X293260Y139482D01*
X293397Y139707D01*
X293572Y139969D01*
X293785Y140219D01*
X294035Y140469D01*
X294335Y140694D01*
X294347Y140707D01*
X294372Y140719D01*
X294422Y140744D01*
X294485Y140782D01*
X294559Y140819D01*
X294659Y140869D01*
X294759Y140919D01*
X294884Y140969D01*
X295159Y141069D01*
X295472Y141157D01*
X295822Y141219D01*
X296009Y141244D01*
X296322D01*
X296472Y141231D01*
X296646Y141207D01*
X296859Y141169D01*
X297084Y141107D01*
X297321Y141032D01*
X297546Y140919D01*
X297559D01*
X297571Y140907D01*
X297646Y140857D01*
X297746Y140794D01*
X297884Y140694D01*
X298034Y140569D01*
X298196Y140432D01*
X298358Y140269D01*
X298508Y140082D01*
Y144231D01*
X299921D01*
Y132696D01*
D02*
G37*
G36*
X411942Y141231D02*
X412017D01*
X412204Y141207D01*
X412417Y141182D01*
X412654Y141132D01*
X412892Y141057D01*
X413129Y140969D01*
X413142D01*
X413154Y140957D01*
X413229Y140919D01*
X413341Y140857D01*
X413492Y140782D01*
X413642Y140669D01*
X413804Y140557D01*
X413954Y140419D01*
X414079Y140257D01*
X414091Y140232D01*
X414129Y140182D01*
X414179Y140082D01*
X414254Y139957D01*
X414329Y139807D01*
X414391Y139632D01*
X414466Y139432D01*
X414516Y139207D01*
Y139195D01*
X414529Y139132D01*
X414541Y139032D01*
X414566Y138895D01*
X414579Y138707D01*
Y138595D01*
X414591Y138470D01*
Y138332D01*
X414604Y138170D01*
Y138007D01*
Y137832D01*
Y132696D01*
X413192D01*
Y137782D01*
Y137795D01*
Y137820D01*
Y137870D01*
Y137920D01*
Y137995D01*
X413179Y138082D01*
X413167Y138270D01*
X413154Y138482D01*
X413117Y138695D01*
X413079Y138895D01*
X413017Y139070D01*
X413004Y139095D01*
X412979Y139145D01*
X412942Y139220D01*
X412879Y139319D01*
X412804Y139432D01*
X412704Y139544D01*
X412579Y139657D01*
X412429Y139757D01*
X412417Y139769D01*
X412354Y139794D01*
X412267Y139844D01*
X412154Y139894D01*
X412004Y139932D01*
X411842Y139982D01*
X411655Y140007D01*
X411442Y140019D01*
X411354D01*
X411292Y140007D01*
X411217D01*
X411117Y139994D01*
X410905Y139944D01*
X410667Y139882D01*
X410405Y139782D01*
X410142Y139632D01*
X410005Y139544D01*
X409880Y139445D01*
X409867Y139432D01*
X409855Y139419D01*
X409817Y139382D01*
X409780Y139332D01*
X409730Y139257D01*
X409680Y139182D01*
X409618Y139082D01*
X409555Y138957D01*
X409492Y138820D01*
X409430Y138657D01*
X409380Y138482D01*
X409330Y138282D01*
X409293Y138057D01*
X409255Y137820D01*
X409243Y137545D01*
X409230Y137258D01*
Y132696D01*
X407818D01*
Y141057D01*
X409093D01*
Y139857D01*
X409105Y139869D01*
X409130Y139919D01*
X409193Y139982D01*
X409268Y140069D01*
X409355Y140182D01*
X409468Y140294D01*
X409605Y140419D01*
X409767Y140557D01*
X409942Y140682D01*
X410142Y140807D01*
X410355Y140919D01*
X410592Y141032D01*
X410855Y141119D01*
X411130Y141182D01*
X411429Y141231D01*
X411742Y141244D01*
X411867D01*
X411942Y141231D01*
D02*
G37*
G36*
X394021D02*
X394096D01*
X394284Y141207D01*
X394496Y141182D01*
X394734Y141132D01*
X394971Y141057D01*
X395209Y140969D01*
X395221D01*
X395234Y140957D01*
X395309Y140919D01*
X395421Y140857D01*
X395571Y140782D01*
X395721Y140669D01*
X395883Y140557D01*
X396034Y140419D01*
X396158Y140257D01*
X396171Y140232D01*
X396208Y140182D01*
X396258Y140082D01*
X396333Y139957D01*
X396408Y139807D01*
X396471Y139632D01*
X396546Y139432D01*
X396596Y139207D01*
Y139195D01*
X396608Y139132D01*
X396621Y139032D01*
X396646Y138895D01*
X396658Y138707D01*
Y138595D01*
X396671Y138470D01*
Y138332D01*
X396683Y138170D01*
Y138007D01*
Y137832D01*
Y132696D01*
X395271D01*
Y137782D01*
Y137795D01*
Y137820D01*
Y137870D01*
Y137920D01*
Y137995D01*
X395259Y138082D01*
X395246Y138270D01*
X395234Y138482D01*
X395196Y138695D01*
X395159Y138895D01*
X395096Y139070D01*
X395084Y139095D01*
X395059Y139145D01*
X395021Y139220D01*
X394959Y139319D01*
X394884Y139432D01*
X394784Y139544D01*
X394659Y139657D01*
X394509Y139757D01*
X394496Y139769D01*
X394434Y139794D01*
X394346Y139844D01*
X394234Y139894D01*
X394084Y139932D01*
X393922Y139982D01*
X393734Y140007D01*
X393522Y140019D01*
X393434D01*
X393372Y140007D01*
X393297D01*
X393197Y139994D01*
X392984Y139944D01*
X392747Y139882D01*
X392484Y139782D01*
X392222Y139632D01*
X392085Y139544D01*
X391959Y139445D01*
X391947Y139432D01*
X391935Y139419D01*
X391897Y139382D01*
X391860Y139332D01*
X391810Y139257D01*
X391760Y139182D01*
X391697Y139082D01*
X391635Y138957D01*
X391572Y138820D01*
X391510Y138657D01*
X391460Y138482D01*
X391410Y138282D01*
X391372Y138057D01*
X391335Y137820D01*
X391322Y137545D01*
X391310Y137258D01*
Y132696D01*
X389897D01*
Y141057D01*
X391172D01*
Y139857D01*
X391185Y139869D01*
X391210Y139919D01*
X391272Y139982D01*
X391347Y140069D01*
X391435Y140182D01*
X391547Y140294D01*
X391685Y140419D01*
X391847Y140557D01*
X392022Y140682D01*
X392222Y140807D01*
X392434Y140919D01*
X392672Y141032D01*
X392934Y141119D01*
X393209Y141182D01*
X393509Y141231D01*
X393821Y141244D01*
X393946D01*
X394021Y141231D01*
D02*
G37*
G36*
X371627D02*
X371702D01*
X371890Y141207D01*
X372102Y141182D01*
X372340Y141132D01*
X372577Y141057D01*
X372814Y140969D01*
X372827D01*
X372839Y140957D01*
X372914Y140919D01*
X373027Y140857D01*
X373177Y140782D01*
X373327Y140669D01*
X373489Y140557D01*
X373639Y140419D01*
X373764Y140257D01*
X373777Y140232D01*
X373814Y140182D01*
X373864Y140082D01*
X373939Y139957D01*
X374014Y139807D01*
X374077Y139632D01*
X374152Y139432D01*
X374202Y139207D01*
Y139195D01*
X374214Y139132D01*
X374227Y139032D01*
X374252Y138895D01*
X374264Y138707D01*
Y138595D01*
X374277Y138470D01*
Y138332D01*
X374289Y138170D01*
Y138007D01*
Y137832D01*
Y132696D01*
X372877D01*
Y137782D01*
Y137795D01*
Y137820D01*
Y137870D01*
Y137920D01*
Y137995D01*
X372864Y138082D01*
X372852Y138270D01*
X372839Y138482D01*
X372802Y138695D01*
X372764Y138895D01*
X372702Y139070D01*
X372690Y139095D01*
X372664Y139145D01*
X372627Y139220D01*
X372565Y139319D01*
X372490Y139432D01*
X372389Y139544D01*
X372265Y139657D01*
X372115Y139757D01*
X372102Y139769D01*
X372040Y139794D01*
X371952Y139844D01*
X371840Y139894D01*
X371690Y139932D01*
X371527Y139982D01*
X371340Y140007D01*
X371127Y140019D01*
X371040D01*
X370977Y140007D01*
X370902D01*
X370802Y139994D01*
X370590Y139944D01*
X370353Y139882D01*
X370090Y139782D01*
X369828Y139632D01*
X369690Y139544D01*
X369565Y139445D01*
X369553Y139432D01*
X369540Y139419D01*
X369503Y139382D01*
X369465Y139332D01*
X369415Y139257D01*
X369365Y139182D01*
X369303Y139082D01*
X369240Y138957D01*
X369178Y138820D01*
X369115Y138657D01*
X369065Y138482D01*
X369015Y138282D01*
X368978Y138057D01*
X368940Y137820D01*
X368928Y137545D01*
X368915Y137258D01*
Y132696D01*
X367503D01*
Y141057D01*
X368778D01*
Y139857D01*
X368790Y139869D01*
X368815Y139919D01*
X368878Y139982D01*
X368953Y140069D01*
X369040Y140182D01*
X369153Y140294D01*
X369290Y140419D01*
X369453Y140557D01*
X369628Y140682D01*
X369828Y140807D01*
X370040Y140919D01*
X370278Y141032D01*
X370540Y141119D01*
X370815Y141182D01*
X371115Y141231D01*
X371427Y141244D01*
X371552D01*
X371627Y141231D01*
D02*
G37*
G36*
X205995D02*
X206070D01*
X206257Y141207D01*
X206469Y141182D01*
X206707Y141132D01*
X206944Y141057D01*
X207182Y140969D01*
X207194D01*
X207207Y140957D01*
X207282Y140919D01*
X207394Y140857D01*
X207544Y140782D01*
X207694Y140669D01*
X207857Y140557D01*
X208007Y140419D01*
X208132Y140257D01*
X208144Y140232D01*
X208182Y140182D01*
X208232Y140082D01*
X208307Y139957D01*
X208382Y139807D01*
X208444Y139632D01*
X208519Y139432D01*
X208569Y139207D01*
Y139195D01*
X208582Y139132D01*
X208594Y139032D01*
X208619Y138895D01*
X208631Y138707D01*
Y138595D01*
X208644Y138470D01*
Y138332D01*
X208657Y138170D01*
Y138007D01*
Y137832D01*
Y132696D01*
X207244D01*
Y137782D01*
Y137795D01*
Y137820D01*
Y137870D01*
Y137920D01*
Y137995D01*
X207232Y138082D01*
X207219Y138270D01*
X207207Y138482D01*
X207169Y138695D01*
X207132Y138895D01*
X207069Y139070D01*
X207057Y139095D01*
X207032Y139145D01*
X206994Y139220D01*
X206932Y139319D01*
X206857Y139432D01*
X206757Y139544D01*
X206632Y139657D01*
X206482Y139757D01*
X206469Y139769D01*
X206407Y139794D01*
X206320Y139844D01*
X206207Y139894D01*
X206057Y139932D01*
X205895Y139982D01*
X205707Y140007D01*
X205495Y140019D01*
X205407D01*
X205345Y140007D01*
X205270D01*
X205170Y139994D01*
X204957Y139944D01*
X204720Y139882D01*
X204457Y139782D01*
X204195Y139632D01*
X204058Y139544D01*
X203933Y139445D01*
X203920Y139432D01*
X203908Y139419D01*
X203870Y139382D01*
X203833Y139332D01*
X203783Y139257D01*
X203733Y139182D01*
X203670Y139082D01*
X203608Y138957D01*
X203545Y138820D01*
X203483Y138657D01*
X203433Y138482D01*
X203383Y138282D01*
X203345Y138057D01*
X203308Y137820D01*
X203295Y137545D01*
X203283Y137258D01*
Y132696D01*
X201871D01*
Y141057D01*
X203145D01*
Y139857D01*
X203158Y139869D01*
X203183Y139919D01*
X203245Y139982D01*
X203320Y140069D01*
X203408Y140182D01*
X203520Y140294D01*
X203658Y140419D01*
X203820Y140557D01*
X203995Y140682D01*
X204195Y140807D01*
X204408Y140919D01*
X204645Y141032D01*
X204907Y141119D01*
X205182Y141182D01*
X205482Y141231D01*
X205795Y141244D01*
X205920D01*
X205995Y141231D01*
D02*
G37*
G36*
X475501D02*
X475563D01*
X475638Y141219D01*
X475826Y141182D01*
X476050Y141132D01*
X476288Y141044D01*
X476563Y140932D01*
X476838Y140782D01*
X476338Y139469D01*
X476313Y139482D01*
X476250Y139520D01*
X476151Y139570D01*
X476013Y139632D01*
X475863Y139682D01*
X475688Y139732D01*
X475501Y139769D01*
X475301Y139782D01*
X475226D01*
X475138Y139769D01*
X475026Y139744D01*
X474888Y139707D01*
X474751Y139657D01*
X474613Y139594D01*
X474463Y139494D01*
X474451Y139482D01*
X474401Y139445D01*
X474338Y139382D01*
X474263Y139295D01*
X474176Y139182D01*
X474089Y139057D01*
X474013Y138895D01*
X473938Y138720D01*
Y138707D01*
X473926Y138682D01*
X473913Y138645D01*
X473901Y138595D01*
X473889Y138520D01*
X473863Y138432D01*
X473826Y138232D01*
X473789Y137982D01*
X473751Y137707D01*
X473726Y137395D01*
X473714Y137070D01*
Y132696D01*
X472301D01*
Y141057D01*
X473576D01*
Y139794D01*
X473601Y139819D01*
X473626Y139869D01*
X473664Y139919D01*
X473751Y140082D01*
X473876Y140257D01*
X474013Y140457D01*
X474164Y140657D01*
X474313Y140819D01*
X474401Y140894D01*
X474476Y140957D01*
X474501Y140969D01*
X474551Y141007D01*
X474638Y141044D01*
X474738Y141107D01*
X474876Y141157D01*
X475026Y141194D01*
X475201Y141231D01*
X475376Y141244D01*
X475451D01*
X475501Y141231D01*
D02*
G37*
G36*
X343834D02*
X343897D01*
X343972Y141219D01*
X344159Y141182D01*
X344384Y141132D01*
X344622Y141044D01*
X344897Y140932D01*
X345172Y140782D01*
X344672Y139469D01*
X344647Y139482D01*
X344584Y139520D01*
X344484Y139570D01*
X344347Y139632D01*
X344197Y139682D01*
X344022Y139732D01*
X343834Y139769D01*
X343634Y139782D01*
X343559D01*
X343472Y139769D01*
X343359Y139744D01*
X343222Y139707D01*
X343084Y139657D01*
X342947Y139594D01*
X342797Y139494D01*
X342785Y139482D01*
X342735Y139445D01*
X342672Y139382D01*
X342597Y139295D01*
X342510Y139182D01*
X342422Y139057D01*
X342347Y138895D01*
X342272Y138720D01*
Y138707D01*
X342260Y138682D01*
X342247Y138645D01*
X342235Y138595D01*
X342222Y138520D01*
X342197Y138432D01*
X342160Y138232D01*
X342122Y137982D01*
X342085Y137707D01*
X342060Y137395D01*
X342047Y137070D01*
Y132696D01*
X340635D01*
Y141057D01*
X341910D01*
Y139794D01*
X341935Y139819D01*
X341960Y139869D01*
X341997Y139919D01*
X342085Y140082D01*
X342210Y140257D01*
X342347Y140457D01*
X342497Y140657D01*
X342647Y140819D01*
X342735Y140894D01*
X342810Y140957D01*
X342835Y140969D01*
X342885Y141007D01*
X342972Y141044D01*
X343072Y141107D01*
X343209Y141157D01*
X343359Y141194D01*
X343534Y141231D01*
X343709Y141244D01*
X343784D01*
X343834Y141231D01*
D02*
G37*
G36*
X323252D02*
X323315D01*
X323390Y141219D01*
X323577Y141182D01*
X323802Y141132D01*
X324039Y141044D01*
X324314Y140932D01*
X324589Y140782D01*
X324089Y139469D01*
X324064Y139482D01*
X324002Y139520D01*
X323902Y139570D01*
X323764Y139632D01*
X323615Y139682D01*
X323440Y139732D01*
X323252Y139769D01*
X323052Y139782D01*
X322977D01*
X322890Y139769D01*
X322777Y139744D01*
X322640Y139707D01*
X322502Y139657D01*
X322365Y139594D01*
X322215Y139494D01*
X322202Y139482D01*
X322152Y139445D01*
X322090Y139382D01*
X322015Y139295D01*
X321927Y139182D01*
X321840Y139057D01*
X321765Y138895D01*
X321690Y138720D01*
Y138707D01*
X321678Y138682D01*
X321665Y138645D01*
X321652Y138595D01*
X321640Y138520D01*
X321615Y138432D01*
X321577Y138232D01*
X321540Y137982D01*
X321503Y137707D01*
X321478Y137395D01*
X321465Y137070D01*
Y132696D01*
X320053D01*
Y141057D01*
X321328D01*
Y139794D01*
X321353Y139819D01*
X321378Y139869D01*
X321415Y139919D01*
X321503Y140082D01*
X321628Y140257D01*
X321765Y140457D01*
X321915Y140657D01*
X322065Y140819D01*
X322152Y140894D01*
X322227Y140957D01*
X322252Y140969D01*
X322302Y141007D01*
X322390Y141044D01*
X322490Y141107D01*
X322627Y141157D01*
X322777Y141194D01*
X322952Y141231D01*
X323127Y141244D01*
X323202D01*
X323252Y141231D01*
D02*
G37*
G36*
X255207D02*
X255270D01*
X255345Y141219D01*
X255532Y141182D01*
X255757Y141132D01*
X255994Y141044D01*
X256269Y140932D01*
X256544Y140782D01*
X256044Y139469D01*
X256019Y139482D01*
X255957Y139520D01*
X255857Y139570D01*
X255719Y139632D01*
X255569Y139682D01*
X255394Y139732D01*
X255207Y139769D01*
X255007Y139782D01*
X254932D01*
X254845Y139769D01*
X254732Y139744D01*
X254595Y139707D01*
X254457Y139657D01*
X254320Y139594D01*
X254170Y139494D01*
X254157Y139482D01*
X254107Y139445D01*
X254045Y139382D01*
X253970Y139295D01*
X253882Y139182D01*
X253795Y139057D01*
X253720Y138895D01*
X253645Y138720D01*
Y138707D01*
X253632Y138682D01*
X253620Y138645D01*
X253607Y138595D01*
X253595Y138520D01*
X253570Y138432D01*
X253533Y138232D01*
X253495Y137982D01*
X253458Y137707D01*
X253433Y137395D01*
X253420Y137070D01*
Y132696D01*
X252008D01*
Y141057D01*
X253283D01*
Y139794D01*
X253307Y139819D01*
X253333Y139869D01*
X253370Y139919D01*
X253458Y140082D01*
X253582Y140257D01*
X253720Y140457D01*
X253870Y140657D01*
X254020Y140819D01*
X254107Y140894D01*
X254182Y140957D01*
X254207Y140969D01*
X254257Y141007D01*
X254345Y141044D01*
X254445Y141107D01*
X254582Y141157D01*
X254732Y141194D01*
X254907Y141231D01*
X255082Y141244D01*
X255157D01*
X255207Y141231D01*
D02*
G37*
G36*
X442634Y144256D02*
X442721Y144243D01*
X442959Y144218D01*
X443221Y144168D01*
X443521Y144093D01*
X443821Y143993D01*
X444121Y143856D01*
X444134D01*
X444159Y143843D01*
X444196Y143818D01*
X444259Y143781D01*
X444396Y143693D01*
X444571Y143568D01*
X444771Y143406D01*
X444971Y143218D01*
X445171Y143006D01*
X445346Y142756D01*
Y142744D01*
X445358Y142731D01*
X445383Y142681D01*
X445408Y142631D01*
X445446Y142569D01*
X445483Y142494D01*
X445558Y142306D01*
X445633Y142081D01*
X445708Y141831D01*
X445758Y141557D01*
X445771Y141269D01*
Y141257D01*
Y141231D01*
Y141194D01*
Y141144D01*
X445746Y140994D01*
X445721Y140819D01*
X445671Y140607D01*
X445596Y140382D01*
X445496Y140144D01*
X445358Y139907D01*
Y139894D01*
X445346Y139882D01*
X445283Y139807D01*
X445196Y139694D01*
X445058Y139557D01*
X444896Y139395D01*
X444683Y139232D01*
X444446Y139082D01*
X444171Y138932D01*
X444184D01*
X444221Y138920D01*
X444271Y138907D01*
X444346Y138882D01*
X444421Y138857D01*
X444521Y138820D01*
X444758Y138720D01*
X445008Y138582D01*
X445271Y138420D01*
X445533Y138207D01*
X445758Y137945D01*
X445771Y137932D01*
X445783Y137907D01*
X445808Y137870D01*
X445846Y137807D01*
X445896Y137745D01*
X445946Y137657D01*
X445996Y137557D01*
X446046Y137432D01*
X446096Y137308D01*
X446146Y137170D01*
X446246Y136858D01*
X446308Y136495D01*
X446333Y136295D01*
Y136095D01*
Y136083D01*
Y136033D01*
X446321Y135945D01*
Y135845D01*
X446296Y135708D01*
X446271Y135558D01*
X446246Y135395D01*
X446196Y135208D01*
X446133Y135008D01*
X446058Y134808D01*
X445971Y134596D01*
X445858Y134383D01*
X445733Y134158D01*
X445583Y133946D01*
X445421Y133734D01*
X445221Y133533D01*
X445208Y133521D01*
X445171Y133483D01*
X445108Y133434D01*
X445021Y133371D01*
X444921Y133296D01*
X444784Y133209D01*
X444633Y133109D01*
X444459Y133021D01*
X444271Y132921D01*
X444059Y132821D01*
X443834Y132734D01*
X443584Y132659D01*
X443321Y132596D01*
X443046Y132546D01*
X442759Y132509D01*
X442447Y132496D01*
X442384D01*
X442297Y132509D01*
X442197D01*
X442059Y132521D01*
X441909Y132546D01*
X441747Y132571D01*
X441559Y132609D01*
X441359Y132659D01*
X441159Y132721D01*
X440947Y132784D01*
X440734Y132871D01*
X440522Y132984D01*
X440322Y133096D01*
X440110Y133234D01*
X439922Y133396D01*
X439910Y133408D01*
X439885Y133434D01*
X439835Y133483D01*
X439760Y133559D01*
X439685Y133646D01*
X439597Y133758D01*
X439510Y133883D01*
X439410Y134033D01*
X439310Y134183D01*
X439210Y134371D01*
X439110Y134558D01*
X439022Y134771D01*
X438947Y134996D01*
X438872Y135233D01*
X438823Y135483D01*
X438785Y135745D01*
X440197Y135933D01*
Y135920D01*
X440210Y135883D01*
X440222Y135820D01*
X440247Y135733D01*
X440272Y135633D01*
X440297Y135520D01*
X440385Y135258D01*
X440497Y134971D01*
X440635Y134683D01*
X440810Y134421D01*
X440910Y134308D01*
X441009Y134196D01*
X441022D01*
X441034Y134171D01*
X441072Y134146D01*
X441109Y134108D01*
X441234Y134033D01*
X441409Y133933D01*
X441622Y133833D01*
X441859Y133758D01*
X442147Y133696D01*
X442447Y133671D01*
X442547D01*
X442621Y133684D01*
X442696Y133696D01*
X442809Y133708D01*
X443034Y133758D01*
X443309Y133833D01*
X443596Y133958D01*
X443734Y134046D01*
X443871Y134133D01*
X444009Y134233D01*
X444146Y134358D01*
X444159Y134371D01*
X444171Y134396D01*
X444209Y134433D01*
X444259Y134483D01*
X444309Y134546D01*
X444359Y134633D01*
X444421Y134721D01*
X444496Y134833D01*
X444621Y135083D01*
X444721Y135371D01*
X444809Y135708D01*
X444821Y135883D01*
X444833Y136070D01*
Y136083D01*
Y136108D01*
Y136170D01*
X444821Y136233D01*
X444809Y136320D01*
X444796Y136408D01*
X444758Y136633D01*
X444671Y136895D01*
X444558Y137158D01*
X444484Y137295D01*
X444396Y137420D01*
X444296Y137545D01*
X444184Y137670D01*
X444171Y137683D01*
X444159Y137695D01*
X444121Y137732D01*
X444071Y137770D01*
X444009Y137820D01*
X443934Y137870D01*
X443746Y137995D01*
X443509Y138107D01*
X443234Y138207D01*
X442921Y138282D01*
X442747Y138295D01*
X442572Y138307D01*
X442497D01*
X442409Y138295D01*
X442297D01*
X442147Y138270D01*
X441984Y138245D01*
X441784Y138207D01*
X441572Y138157D01*
X441722Y139395D01*
X441747D01*
X441809Y139382D01*
X441884Y139369D01*
X442047D01*
X442109Y139382D01*
X442197D01*
X442284Y139395D01*
X442497Y139432D01*
X442747Y139482D01*
X443021Y139570D01*
X443309Y139682D01*
X443584Y139844D01*
X443596D01*
X443621Y139869D01*
X443646Y139894D01*
X443696Y139932D01*
X443821Y140044D01*
X443959Y140207D01*
X444084Y140407D01*
X444209Y140657D01*
X444259Y140794D01*
X444284Y140957D01*
X444309Y141119D01*
X444321Y141294D01*
Y141306D01*
Y141332D01*
Y141369D01*
X444309Y141432D01*
X444296Y141569D01*
X444259Y141756D01*
X444196Y141956D01*
X444096Y142169D01*
X443959Y142394D01*
X443884Y142494D01*
X443784Y142594D01*
X443759Y142619D01*
X443684Y142669D01*
X443571Y142756D01*
X443421Y142856D01*
X443221Y142944D01*
X442984Y143031D01*
X442721Y143081D01*
X442422Y143106D01*
X442347D01*
X442284Y143094D01*
X442209D01*
X442134Y143081D01*
X441934Y143044D01*
X441722Y142981D01*
X441484Y142881D01*
X441259Y142756D01*
X441034Y142581D01*
X441009Y142556D01*
X440947Y142481D01*
X440847Y142369D01*
X440747Y142194D01*
X440622Y141981D01*
X440510Y141706D01*
X440410Y141394D01*
X440335Y141032D01*
X438923Y141281D01*
Y141294D01*
X438935Y141344D01*
X438947Y141419D01*
X438973Y141519D01*
X439010Y141631D01*
X439048Y141769D01*
X439097Y141919D01*
X439160Y142081D01*
X439322Y142444D01*
X439410Y142619D01*
X439522Y142806D01*
X439647Y142981D01*
X439785Y143156D01*
X439935Y143331D01*
X440097Y143481D01*
X440110Y143493D01*
X440135Y143518D01*
X440197Y143556D01*
X440260Y143606D01*
X440360Y143668D01*
X440460Y143731D01*
X440585Y143806D01*
X440734Y143881D01*
X440885Y143943D01*
X441059Y144018D01*
X441247Y144081D01*
X441447Y144143D01*
X441672Y144193D01*
X441897Y144231D01*
X442134Y144256D01*
X442384Y144268D01*
X442547D01*
X442634Y144256D01*
D02*
G37*
G36*
X433674D02*
X433761Y144243D01*
X433999Y144218D01*
X434261Y144168D01*
X434561Y144093D01*
X434861Y143993D01*
X435161Y143856D01*
X435173D01*
X435198Y143843D01*
X435236Y143818D01*
X435298Y143781D01*
X435436Y143693D01*
X435611Y143568D01*
X435811Y143406D01*
X436011Y143218D01*
X436211Y143006D01*
X436386Y142756D01*
Y142744D01*
X436398Y142731D01*
X436423Y142681D01*
X436448Y142631D01*
X436486Y142569D01*
X436523Y142494D01*
X436598Y142306D01*
X436673Y142081D01*
X436748Y141831D01*
X436798Y141557D01*
X436810Y141269D01*
Y141257D01*
Y141231D01*
Y141194D01*
Y141144D01*
X436786Y140994D01*
X436760Y140819D01*
X436711Y140607D01*
X436636Y140382D01*
X436536Y140144D01*
X436398Y139907D01*
Y139894D01*
X436386Y139882D01*
X436323Y139807D01*
X436236Y139694D01*
X436098Y139557D01*
X435936Y139395D01*
X435723Y139232D01*
X435486Y139082D01*
X435211Y138932D01*
X435223D01*
X435261Y138920D01*
X435311Y138907D01*
X435386Y138882D01*
X435461Y138857D01*
X435561Y138820D01*
X435798Y138720D01*
X436048Y138582D01*
X436311Y138420D01*
X436573Y138207D01*
X436798Y137945D01*
X436810Y137932D01*
X436823Y137907D01*
X436848Y137870D01*
X436885Y137807D01*
X436936Y137745D01*
X436986Y137657D01*
X437035Y137557D01*
X437085Y137432D01*
X437135Y137308D01*
X437185Y137170D01*
X437285Y136858D01*
X437348Y136495D01*
X437373Y136295D01*
Y136095D01*
Y136083D01*
Y136033D01*
X437360Y135945D01*
Y135845D01*
X437335Y135708D01*
X437310Y135558D01*
X437285Y135395D01*
X437235Y135208D01*
X437173Y135008D01*
X437098Y134808D01*
X437010Y134596D01*
X436898Y134383D01*
X436773Y134158D01*
X436623Y133946D01*
X436461Y133734D01*
X436261Y133533D01*
X436248Y133521D01*
X436211Y133483D01*
X436148Y133434D01*
X436061Y133371D01*
X435961Y133296D01*
X435823Y133209D01*
X435673Y133109D01*
X435498Y133021D01*
X435311Y132921D01*
X435098Y132821D01*
X434874Y132734D01*
X434624Y132659D01*
X434361Y132596D01*
X434086Y132546D01*
X433799Y132509D01*
X433486Y132496D01*
X433424D01*
X433336Y132509D01*
X433236D01*
X433099Y132521D01*
X432949Y132546D01*
X432787Y132571D01*
X432599Y132609D01*
X432399Y132659D01*
X432199Y132721D01*
X431987Y132784D01*
X431774Y132871D01*
X431562Y132984D01*
X431362Y133096D01*
X431149Y133234D01*
X430962Y133396D01*
X430950Y133408D01*
X430924Y133434D01*
X430875Y133483D01*
X430800Y133559D01*
X430725Y133646D01*
X430637Y133758D01*
X430550Y133883D01*
X430450Y134033D01*
X430350Y134183D01*
X430250Y134371D01*
X430150Y134558D01*
X430062Y134771D01*
X429987Y134996D01*
X429912Y135233D01*
X429862Y135483D01*
X429825Y135745D01*
X431237Y135933D01*
Y135920D01*
X431250Y135883D01*
X431262Y135820D01*
X431287Y135733D01*
X431312Y135633D01*
X431337Y135520D01*
X431424Y135258D01*
X431537Y134971D01*
X431674Y134683D01*
X431849Y134421D01*
X431949Y134308D01*
X432049Y134196D01*
X432062D01*
X432074Y134171D01*
X432112Y134146D01*
X432149Y134108D01*
X432274Y134033D01*
X432449Y133933D01*
X432662Y133833D01*
X432899Y133758D01*
X433186Y133696D01*
X433486Y133671D01*
X433586D01*
X433661Y133684D01*
X433736Y133696D01*
X433849Y133708D01*
X434074Y133758D01*
X434349Y133833D01*
X434636Y133958D01*
X434774Y134046D01*
X434911Y134133D01*
X435048Y134233D01*
X435186Y134358D01*
X435198Y134371D01*
X435211Y134396D01*
X435248Y134433D01*
X435298Y134483D01*
X435348Y134546D01*
X435398Y134633D01*
X435461Y134721D01*
X435536Y134833D01*
X435661Y135083D01*
X435761Y135371D01*
X435848Y135708D01*
X435861Y135883D01*
X435873Y136070D01*
Y136083D01*
Y136108D01*
Y136170D01*
X435861Y136233D01*
X435848Y136320D01*
X435836Y136408D01*
X435798Y136633D01*
X435711Y136895D01*
X435598Y137158D01*
X435523Y137295D01*
X435436Y137420D01*
X435336Y137545D01*
X435223Y137670D01*
X435211Y137683D01*
X435198Y137695D01*
X435161Y137732D01*
X435111Y137770D01*
X435048Y137820D01*
X434973Y137870D01*
X434786Y137995D01*
X434549Y138107D01*
X434274Y138207D01*
X433961Y138282D01*
X433786Y138295D01*
X433611Y138307D01*
X433536D01*
X433449Y138295D01*
X433336D01*
X433186Y138270D01*
X433024Y138245D01*
X432824Y138207D01*
X432612Y138157D01*
X432762Y139395D01*
X432787D01*
X432849Y139382D01*
X432924Y139369D01*
X433087D01*
X433149Y139382D01*
X433236D01*
X433324Y139395D01*
X433536Y139432D01*
X433786Y139482D01*
X434061Y139570D01*
X434349Y139682D01*
X434624Y139844D01*
X434636D01*
X434661Y139869D01*
X434686Y139894D01*
X434736Y139932D01*
X434861Y140044D01*
X434999Y140207D01*
X435123Y140407D01*
X435248Y140657D01*
X435298Y140794D01*
X435323Y140957D01*
X435348Y141119D01*
X435361Y141294D01*
Y141306D01*
Y141332D01*
Y141369D01*
X435348Y141432D01*
X435336Y141569D01*
X435298Y141756D01*
X435236Y141956D01*
X435136Y142169D01*
X434999Y142394D01*
X434924Y142494D01*
X434823Y142594D01*
X434799Y142619D01*
X434724Y142669D01*
X434611Y142756D01*
X434461Y142856D01*
X434261Y142944D01*
X434024Y143031D01*
X433761Y143081D01*
X433461Y143106D01*
X433386D01*
X433324Y143094D01*
X433249D01*
X433174Y143081D01*
X432974Y143044D01*
X432762Y142981D01*
X432524Y142881D01*
X432299Y142756D01*
X432074Y142581D01*
X432049Y142556D01*
X431987Y142481D01*
X431887Y142369D01*
X431787Y142194D01*
X431662Y141981D01*
X431549Y141706D01*
X431449Y141394D01*
X431374Y141032D01*
X429962Y141281D01*
Y141294D01*
X429975Y141344D01*
X429987Y141419D01*
X430012Y141519D01*
X430050Y141631D01*
X430087Y141769D01*
X430137Y141919D01*
X430200Y142081D01*
X430362Y142444D01*
X430450Y142619D01*
X430562Y142806D01*
X430687Y142981D01*
X430825Y143156D01*
X430975Y143331D01*
X431137Y143481D01*
X431149Y143493D01*
X431175Y143518D01*
X431237Y143556D01*
X431299Y143606D01*
X431399Y143668D01*
X431499Y143731D01*
X431624Y143806D01*
X431774Y143881D01*
X431924Y143943D01*
X432099Y144018D01*
X432287Y144081D01*
X432487Y144143D01*
X432712Y144193D01*
X432937Y144231D01*
X433174Y144256D01*
X433424Y144268D01*
X433586D01*
X433674Y144256D01*
D02*
G37*
G36*
X238636Y132696D02*
X237287D01*
X234125Y141057D01*
X235625D01*
X237424Y136045D01*
Y136033D01*
X237437Y136008D01*
X237449Y135970D01*
X237474Y135908D01*
X237499Y135833D01*
X237524Y135745D01*
X237599Y135533D01*
X237687Y135283D01*
X237774Y134996D01*
X237861Y134683D01*
X237961Y134358D01*
Y134371D01*
X237974Y134383D01*
X237986Y134421D01*
X237999Y134471D01*
X238011Y134546D01*
X238036Y134621D01*
X238099Y134808D01*
X238174Y135033D01*
X238261Y135308D01*
X238361Y135608D01*
X238486Y135945D01*
X240348Y141057D01*
X241810D01*
X238636Y132696D01*
D02*
G37*
G36*
X196022D02*
X194548D01*
Y142356D01*
X191173Y132696D01*
X189799D01*
X186475Y142519D01*
Y132696D01*
X185000D01*
Y144231D01*
X187287D01*
X190024Y136058D01*
Y136045D01*
X190036Y136008D01*
X190061Y135945D01*
X190086Y135870D01*
X190111Y135783D01*
X190149Y135670D01*
X190236Y135421D01*
X190324Y135146D01*
X190411Y134858D01*
X190499Y134596D01*
X190536Y134471D01*
X190574Y134358D01*
Y134371D01*
X190586Y134383D01*
X190599Y134421D01*
X190611Y134471D01*
X190636Y134546D01*
X190661Y134621D01*
X190686Y134721D01*
X190723Y134821D01*
X190761Y134946D01*
X190811Y135083D01*
X190861Y135233D01*
X190911Y135408D01*
X190973Y135583D01*
X191036Y135783D01*
X191111Y135983D01*
X191186Y136208D01*
X193960Y144231D01*
X196022D01*
Y132696D01*
D02*
G37*
G36*
X457655D02*
X456081D01*
X451607Y144231D01*
X453269D01*
X456268Y135845D01*
Y135833D01*
X456281Y135795D01*
X456306Y135745D01*
X456330Y135670D01*
X456356Y135583D01*
X456393Y135483D01*
X456431Y135371D01*
X456480Y135233D01*
X456568Y134946D01*
X456668Y134633D01*
X456768Y134296D01*
X456868Y133958D01*
Y133971D01*
X456880Y133996D01*
X456893Y134058D01*
X456918Y134121D01*
X456943Y134208D01*
X456968Y134308D01*
X457005Y134421D01*
X457043Y134546D01*
X457130Y134833D01*
X457243Y135158D01*
X457368Y135496D01*
X457493Y135845D01*
X460604Y144231D01*
X462154D01*
X457655Y132696D01*
D02*
G37*
G36*
X361705D02*
X360443D01*
Y133921D01*
X360430Y133908D01*
X360393Y133858D01*
X360343Y133796D01*
X360268Y133696D01*
X360168Y133596D01*
X360043Y133471D01*
X359905Y133346D01*
X359743Y133221D01*
X359555Y133084D01*
X359355Y132959D01*
X359143Y132834D01*
X358905Y132734D01*
X358643Y132634D01*
X358381Y132571D01*
X358093Y132521D01*
X357781Y132509D01*
X357656D01*
X357518Y132521D01*
X357331Y132546D01*
X357118Y132571D01*
X356881Y132621D01*
X356644Y132696D01*
X356394Y132784D01*
X356381D01*
X356369Y132796D01*
X356294Y132834D01*
X356181Y132896D01*
X356031Y132984D01*
X355881Y133084D01*
X355719Y133209D01*
X355569Y133346D01*
X355444Y133496D01*
X355431Y133521D01*
X355394Y133571D01*
X355344Y133671D01*
X355281Y133796D01*
X355206Y133946D01*
X355131Y134121D01*
X355069Y134321D01*
X355006Y134546D01*
Y134571D01*
X354994Y134621D01*
X354981Y134733D01*
X354969Y134871D01*
X354957Y135058D01*
X354944Y135283D01*
X354931Y135558D01*
Y135870D01*
Y141057D01*
X356344D01*
Y136420D01*
Y136408D01*
Y136370D01*
Y136320D01*
Y136245D01*
Y136145D01*
Y136045D01*
X356356Y135820D01*
Y135570D01*
X356381Y135321D01*
X356394Y135096D01*
X356406Y134996D01*
X356419Y134921D01*
X356431Y134896D01*
X356444Y134833D01*
X356481Y134721D01*
X356544Y134596D01*
X356619Y134458D01*
X356718Y134321D01*
X356843Y134171D01*
X356993Y134046D01*
X357019Y134033D01*
X357068Y133996D01*
X357168Y133946D01*
X357293Y133896D01*
X357443Y133833D01*
X357631Y133784D01*
X357843Y133746D01*
X358068Y133734D01*
X358181D01*
X358293Y133746D01*
X358456Y133771D01*
X358643Y133808D01*
X358843Y133871D01*
X359043Y133946D01*
X359255Y134058D01*
X359268D01*
X359280Y134071D01*
X359343Y134121D01*
X359443Y134196D01*
X359568Y134296D01*
X359693Y134421D01*
X359830Y134571D01*
X359955Y134746D01*
X360055Y134946D01*
Y134958D01*
X360068Y134971D01*
X360080Y135008D01*
X360093Y135046D01*
X360105Y135108D01*
X360130Y135183D01*
X360155Y135258D01*
X360180Y135358D01*
X360218Y135596D01*
X360255Y135870D01*
X360280Y136195D01*
X360293Y136570D01*
Y141057D01*
X361705D01*
Y132696D01*
D02*
G37*
G36*
X496045D02*
X494633D01*
Y141706D01*
X494608Y141681D01*
X494546Y141619D01*
X494433Y141531D01*
X494271Y141406D01*
X494083Y141257D01*
X493846Y141094D01*
X493583Y140919D01*
X493284Y140732D01*
X493271D01*
X493246Y140707D01*
X493209Y140682D01*
X493146Y140657D01*
X493071Y140607D01*
X492984Y140569D01*
X492784Y140457D01*
X492559Y140344D01*
X492309Y140219D01*
X492046Y140107D01*
X491796Y140007D01*
Y141369D01*
X491809Y141382D01*
X491846Y141394D01*
X491909Y141432D01*
X491996Y141469D01*
X492096Y141519D01*
X492221Y141594D01*
X492359Y141669D01*
X492496Y141744D01*
X492821Y141944D01*
X493171Y142181D01*
X493534Y142431D01*
X493871Y142719D01*
X493883Y142731D01*
X493908Y142756D01*
X493958Y142794D01*
X494021Y142856D01*
X494083Y142931D01*
X494171Y143006D01*
X494358Y143218D01*
X494571Y143443D01*
X494783Y143706D01*
X494971Y143981D01*
X495133Y144268D01*
X496045D01*
Y132696D01*
D02*
G37*
G36*
X488647D02*
X487035D01*
Y134308D01*
X488647D01*
Y132696D01*
D02*
G37*
G36*
X482611D02*
X481199D01*
Y141706D01*
X481174Y141681D01*
X481112Y141619D01*
X480999Y141531D01*
X480837Y141406D01*
X480649Y141257D01*
X480412Y141094D01*
X480149Y140919D01*
X479850Y140732D01*
X479837D01*
X479812Y140707D01*
X479775Y140682D01*
X479712Y140657D01*
X479637Y140607D01*
X479550Y140569D01*
X479350Y140457D01*
X479125Y140344D01*
X478875Y140219D01*
X478612Y140107D01*
X478362Y140007D01*
Y141369D01*
X478375Y141382D01*
X478412Y141394D01*
X478475Y141432D01*
X478562Y141469D01*
X478662Y141519D01*
X478787Y141594D01*
X478925Y141669D01*
X479062Y141744D01*
X479387Y141944D01*
X479737Y142181D01*
X480099Y142431D01*
X480437Y142719D01*
X480449Y142731D01*
X480474Y142756D01*
X480524Y142794D01*
X480587Y142856D01*
X480649Y142931D01*
X480737Y143006D01*
X480924Y143218D01*
X481137Y143443D01*
X481349Y143706D01*
X481537Y143981D01*
X481699Y144268D01*
X482611D01*
Y132696D01*
D02*
G37*
G36*
X402657Y141231D02*
X402769D01*
X403007Y141207D01*
X403282Y141182D01*
X403569Y141132D01*
X403857Y141069D01*
X404119Y140982D01*
X404131D01*
X404144Y140969D01*
X404181Y140957D01*
X404231Y140932D01*
X404344Y140882D01*
X404494Y140807D01*
X404656Y140719D01*
X404819Y140607D01*
X404969Y140482D01*
X405106Y140344D01*
X405119Y140332D01*
X405156Y140282D01*
X405219Y140194D01*
X405281Y140082D01*
X405356Y139944D01*
X405431Y139782D01*
X405506Y139594D01*
X405556Y139382D01*
Y139369D01*
X405569Y139307D01*
X405581Y139220D01*
X405593Y139082D01*
X405606Y138907D01*
X405619Y138682D01*
Y138545D01*
X405631Y138407D01*
Y138257D01*
Y138082D01*
Y136195D01*
Y136170D01*
Y136108D01*
Y136008D01*
Y135883D01*
Y135721D01*
Y135546D01*
X405644Y135346D01*
Y135146D01*
X405656Y134721D01*
Y134508D01*
X405668Y134308D01*
X405681Y134121D01*
X405694Y133958D01*
X405706Y133808D01*
X405718Y133696D01*
Y133671D01*
X405731Y133609D01*
X405756Y133509D01*
X405793Y133371D01*
X405844Y133221D01*
X405906Y133059D01*
X405981Y132871D01*
X406068Y132696D01*
X404594D01*
X404581Y132721D01*
X404556Y132771D01*
X404519Y132871D01*
X404481Y132996D01*
X404431Y133146D01*
X404381Y133321D01*
X404344Y133521D01*
X404319Y133746D01*
X404306Y133734D01*
X404281Y133721D01*
X404244Y133684D01*
X404181Y133633D01*
X404106Y133583D01*
X404031Y133509D01*
X403831Y133371D01*
X403594Y133209D01*
X403344Y133046D01*
X403069Y132909D01*
X402794Y132784D01*
X402782D01*
X402757Y132771D01*
X402719Y132759D01*
X402669Y132746D01*
X402607Y132721D01*
X402519Y132696D01*
X402332Y132646D01*
X402094Y132596D01*
X401832Y132546D01*
X401545Y132521D01*
X401232Y132509D01*
X401095D01*
X401007Y132521D01*
X400895Y132534D01*
X400757Y132546D01*
X400607Y132559D01*
X400457Y132596D01*
X400107Y132671D01*
X399757Y132784D01*
X399595Y132859D01*
X399420Y132959D01*
X399270Y133059D01*
X399120Y133171D01*
X399108Y133184D01*
X399083Y133209D01*
X399058Y133246D01*
X399008Y133296D01*
X398945Y133359D01*
X398883Y133446D01*
X398820Y133533D01*
X398758Y133646D01*
X398620Y133883D01*
X398495Y134183D01*
X398445Y134346D01*
X398420Y134521D01*
X398395Y134708D01*
X398383Y134896D01*
Y134908D01*
Y134921D01*
Y134996D01*
X398395Y135121D01*
X398420Y135271D01*
X398445Y135445D01*
X398495Y135633D01*
X398570Y135820D01*
X398658Y136020D01*
X398670Y136045D01*
X398708Y136108D01*
X398770Y136195D01*
X398858Y136320D01*
X398958Y136445D01*
X399083Y136583D01*
X399220Y136708D01*
X399383Y136833D01*
X399408Y136845D01*
X399470Y136883D01*
X399558Y136945D01*
X399683Y137008D01*
X399832Y137083D01*
X400008Y137158D01*
X400207Y137233D01*
X400407Y137295D01*
X400432D01*
X400482Y137320D01*
X400582Y137332D01*
X400720Y137370D01*
X400895Y137395D01*
X401120Y137432D01*
X401370Y137470D01*
X401670Y137507D01*
X401694D01*
X401744Y137520D01*
X401832Y137533D01*
X401945Y137545D01*
X402094Y137570D01*
X402257Y137595D01*
X402432Y137620D01*
X402632Y137645D01*
X403044Y137720D01*
X403457Y137807D01*
X403657Y137857D01*
X403857Y137907D01*
X404031Y137957D01*
X404194Y138007D01*
Y138020D01*
Y138057D01*
Y138107D01*
X404206Y138157D01*
Y138282D01*
Y138332D01*
Y138370D01*
Y138382D01*
Y138407D01*
Y138457D01*
Y138507D01*
X404181Y138657D01*
X404156Y138845D01*
X404106Y139045D01*
X404031Y139245D01*
X403932Y139432D01*
X403794Y139582D01*
X403769Y139607D01*
X403744Y139632D01*
X403694Y139657D01*
X403632Y139694D01*
X403569Y139732D01*
X403394Y139832D01*
X403169Y139919D01*
X402894Y139994D01*
X402569Y140044D01*
X402194Y140069D01*
X402032D01*
X401945Y140057D01*
X401857D01*
X401632Y140032D01*
X401395Y139982D01*
X401157Y139919D01*
X400920Y139832D01*
X400720Y139719D01*
X400695Y139707D01*
X400645Y139657D01*
X400557Y139557D01*
X400457Y139432D01*
X400345Y139270D01*
X400220Y139045D01*
X400120Y138795D01*
X400070Y138645D01*
X400020Y138482D01*
X398633Y138670D01*
Y138682D01*
X398645Y138707D01*
X398658Y138757D01*
X398670Y138820D01*
X398695Y138895D01*
X398720Y138982D01*
X398783Y139182D01*
X398870Y139407D01*
X398970Y139644D01*
X399095Y139882D01*
X399245Y140094D01*
Y140107D01*
X399270Y140119D01*
X399333Y140182D01*
X399433Y140282D01*
X399570Y140407D01*
X399745Y140544D01*
X399958Y140682D01*
X400207Y140819D01*
X400495Y140944D01*
X400507D01*
X400532Y140957D01*
X400582Y140969D01*
X400645Y140994D01*
X400720Y141019D01*
X400807Y141044D01*
X400920Y141069D01*
X401045Y141094D01*
X401170Y141119D01*
X401320Y141144D01*
X401645Y141194D01*
X402007Y141231D01*
X402394Y141244D01*
X402569D01*
X402657Y141231D01*
D02*
G37*
G36*
X365354Y132696D02*
X363942D01*
Y141057D01*
X365354D01*
Y132696D01*
D02*
G37*
G36*
X339610D02*
X337873D01*
X336536Y136183D01*
X331687D01*
X330438Y132696D01*
X328826D01*
X333237Y144231D01*
X334887D01*
X339610Y132696D01*
D02*
G37*
G36*
X290998D02*
X289586D01*
Y144231D01*
X290998D01*
Y132696D01*
D02*
G37*
G36*
X278514D02*
X277101D01*
Y141057D01*
X278514D01*
Y132696D01*
D02*
G37*
G36*
X269541Y140082D02*
X269553Y140094D01*
X269591Y140132D01*
X269641Y140194D01*
X269716Y140269D01*
X269816Y140357D01*
X269928Y140444D01*
X270066Y140557D01*
X270228Y140669D01*
X270391Y140769D01*
X270578Y140882D01*
X270791Y140969D01*
X271003Y141069D01*
X271240Y141132D01*
X271490Y141194D01*
X271753Y141231D01*
X272028Y141244D01*
X272178D01*
X272265Y141231D01*
X272353Y141219D01*
X272578Y141194D01*
X272827Y141157D01*
X273090Y141082D01*
X273365Y140994D01*
X273627Y140869D01*
X273640D01*
X273652Y140857D01*
X273690Y140832D01*
X273740Y140807D01*
X273865Y140719D01*
X274015Y140607D01*
X274165Y140469D01*
X274340Y140294D01*
X274490Y140082D01*
X274615Y139857D01*
Y139844D01*
X274627Y139832D01*
X274640Y139794D01*
X274665Y139744D01*
X274690Y139669D01*
X274715Y139594D01*
X274739Y139494D01*
X274764Y139382D01*
X274790Y139257D01*
X274814Y139120D01*
X274839Y138970D01*
X274865Y138795D01*
X274890Y138620D01*
X274902Y138420D01*
X274914Y138207D01*
Y137982D01*
Y132696D01*
X273502D01*
Y137982D01*
Y137995D01*
Y138032D01*
Y138082D01*
X273490Y138157D01*
Y138245D01*
X273477Y138345D01*
X273440Y138570D01*
X273390Y138832D01*
X273302Y139082D01*
X273190Y139332D01*
X273127Y139432D01*
X273040Y139532D01*
X273015Y139557D01*
X272952Y139607D01*
X272852Y139682D01*
X272703Y139782D01*
X272515Y139869D01*
X272303Y139944D01*
X272040Y139994D01*
X271740Y140019D01*
X271640D01*
X271515Y140007D01*
X271353Y139982D01*
X271178Y139932D01*
X270978Y139882D01*
X270765Y139794D01*
X270553Y139682D01*
X270528Y139669D01*
X270466Y139620D01*
X270366Y139544D01*
X270253Y139445D01*
X270116Y139319D01*
X269991Y139170D01*
X269866Y138995D01*
X269766Y138795D01*
X269753Y138770D01*
X269741Y138732D01*
X269728Y138695D01*
X269691Y138570D01*
X269653Y138395D01*
X269616Y138182D01*
X269578Y137920D01*
X269553Y137607D01*
X269541Y137258D01*
Y132696D01*
X268129D01*
Y144231D01*
X269541D01*
Y140082D01*
D02*
G37*
G36*
X220103Y144218D02*
X220241D01*
X220403Y144206D01*
X220591Y144193D01*
X220966Y144156D01*
X221353Y144093D01*
X221728Y144018D01*
X221891Y143968D01*
X222053Y143918D01*
X222066D01*
X222090Y143906D01*
X222128Y143881D01*
X222190Y143856D01*
X222340Y143781D01*
X222515Y143668D01*
X222728Y143518D01*
X222940Y143319D01*
X223153Y143094D01*
X223340Y142819D01*
Y142806D01*
X223365Y142781D01*
X223390Y142744D01*
X223415Y142681D01*
X223453Y142606D01*
X223490Y142519D01*
X223540Y142419D01*
X223590Y142306D01*
X223678Y142044D01*
X223753Y141756D01*
X223803Y141432D01*
X223828Y141082D01*
Y141069D01*
Y141032D01*
Y140957D01*
X223815Y140882D01*
X223803Y140769D01*
X223790Y140644D01*
X223765Y140507D01*
X223728Y140357D01*
X223628Y140032D01*
X223565Y139857D01*
X223490Y139682D01*
X223403Y139507D01*
X223290Y139332D01*
X223165Y139170D01*
X223028Y139007D01*
X223015Y138995D01*
X222990Y138970D01*
X222940Y138932D01*
X222878Y138870D01*
X222790Y138807D01*
X222690Y138732D01*
X222565Y138645D01*
X222415Y138557D01*
X222253Y138470D01*
X222078Y138382D01*
X221878Y138295D01*
X221653Y138207D01*
X221416Y138132D01*
X221153Y138057D01*
X220866Y137995D01*
X220566Y137945D01*
X220578D01*
X220591Y137932D01*
X220666Y137895D01*
X220778Y137832D01*
X220916Y137757D01*
X221066Y137670D01*
X221216Y137583D01*
X221366Y137470D01*
X221491Y137370D01*
X221503Y137358D01*
X221516Y137345D01*
X221553Y137308D01*
X221603Y137258D01*
X221666Y137195D01*
X221741Y137120D01*
X221903Y136945D01*
X222090Y136720D01*
X222303Y136458D01*
X222528Y136158D01*
X222753Y135833D01*
X224752Y132696D01*
X222840D01*
X221316Y135096D01*
X221303Y135108D01*
X221291Y135146D01*
X221253Y135196D01*
X221203Y135271D01*
X221153Y135358D01*
X221078Y135458D01*
X220928Y135683D01*
X220753Y135945D01*
X220578Y136208D01*
X220391Y136458D01*
X220216Y136683D01*
Y136695D01*
X220191Y136708D01*
X220141Y136770D01*
X220066Y136870D01*
X219954Y136983D01*
X219841Y137108D01*
X219704Y137233D01*
X219566Y137358D01*
X219441Y137445D01*
X219429Y137458D01*
X219379Y137483D01*
X219316Y137520D01*
X219229Y137570D01*
X219116Y137620D01*
X219004Y137670D01*
X218879Y137720D01*
X218741Y137757D01*
X218729D01*
X218691Y137770D01*
X218629Y137782D01*
X218541Y137795D01*
X218417D01*
X218267Y137807D01*
X218092Y137820D01*
X216129D01*
Y132696D01*
X214605D01*
Y144231D01*
X219966D01*
X220103Y144218D01*
D02*
G37*
G36*
X212255Y132696D02*
X210843D01*
Y141057D01*
X212255D01*
Y132696D01*
D02*
G37*
G36*
X199721D02*
X198309D01*
Y141057D01*
X199721D01*
Y132696D01*
D02*
G37*
G36*
X466940Y141231D02*
X467053D01*
X467203Y141207D01*
X467365Y141182D01*
X467553Y141144D01*
X467753Y141107D01*
X467965Y141044D01*
X468177Y140969D01*
X468415Y140869D01*
X468640Y140757D01*
X468865Y140632D01*
X469090Y140469D01*
X469315Y140294D01*
X469515Y140094D01*
X469527Y140082D01*
X469565Y140044D01*
X469615Y139982D01*
X469677Y139882D01*
X469765Y139769D01*
X469852Y139632D01*
X469952Y139457D01*
X470052Y139270D01*
X470140Y139057D01*
X470239Y138820D01*
X470327Y138557D01*
X470414Y138270D01*
X470477Y137957D01*
X470527Y137620D01*
X470564Y137270D01*
X470577Y136895D01*
Y136870D01*
Y136808D01*
Y136683D01*
X470564Y136520D01*
X464328D01*
Y136508D01*
Y136458D01*
X464341Y136383D01*
X464353Y136295D01*
X464366Y136170D01*
X464391Y136045D01*
X464416Y135895D01*
X464454Y135733D01*
X464553Y135395D01*
X464691Y135033D01*
X464778Y134871D01*
X464866Y134696D01*
X464978Y134546D01*
X465103Y134396D01*
X465116Y134383D01*
X465141Y134371D01*
X465178Y134333D01*
X465228Y134283D01*
X465303Y134233D01*
X465378Y134171D01*
X465478Y134096D01*
X465591Y134033D01*
X465841Y133896D01*
X466141Y133784D01*
X466303Y133734D01*
X466478Y133708D01*
X466665Y133684D01*
X466853Y133671D01*
X466928D01*
X466978Y133684D01*
X467128Y133696D01*
X467315Y133721D01*
X467515Y133771D01*
X467740Y133846D01*
X467965Y133933D01*
X468177Y134071D01*
X468190D01*
X468203Y134096D01*
X468265Y134146D01*
X468365Y134246D01*
X468490Y134396D01*
X468627Y134571D01*
X468777Y134808D01*
X468927Y135083D01*
X469052Y135395D01*
X470527Y135208D01*
Y135196D01*
X470514Y135146D01*
X470489Y135083D01*
X470452Y134996D01*
X470414Y134883D01*
X470364Y134758D01*
X470302Y134621D01*
X470239Y134471D01*
X470065Y134158D01*
X469840Y133821D01*
X469702Y133659D01*
X469565Y133496D01*
X469415Y133346D01*
X469240Y133209D01*
X469227Y133196D01*
X469202Y133184D01*
X469140Y133146D01*
X469077Y133096D01*
X468977Y133046D01*
X468865Y132984D01*
X468740Y132921D01*
X468590Y132859D01*
X468427Y132796D01*
X468240Y132734D01*
X468052Y132671D01*
X467840Y132621D01*
X467615Y132571D01*
X467378Y132534D01*
X467115Y132521D01*
X466853Y132509D01*
X466778D01*
X466678Y132521D01*
X466553D01*
X466390Y132546D01*
X466216Y132571D01*
X466016Y132609D01*
X465803Y132646D01*
X465578Y132709D01*
X465341Y132784D01*
X465091Y132871D01*
X464853Y132984D01*
X464603Y133109D01*
X464379Y133259D01*
X464154Y133434D01*
X463941Y133633D01*
X463929Y133646D01*
X463891Y133684D01*
X463841Y133746D01*
X463779Y133846D01*
X463691Y133958D01*
X463604Y134096D01*
X463504Y134258D01*
X463416Y134446D01*
X463316Y134658D01*
X463216Y134896D01*
X463129Y135158D01*
X463041Y135445D01*
X462979Y135745D01*
X462929Y136070D01*
X462891Y136420D01*
X462879Y136795D01*
Y136820D01*
Y136883D01*
X462891Y136995D01*
Y137145D01*
X462916Y137320D01*
X462941Y137520D01*
X462966Y137757D01*
X463016Y137995D01*
X463066Y138257D01*
X463141Y138520D01*
X463229Y138795D01*
X463329Y139070D01*
X463454Y139332D01*
X463604Y139594D01*
X463766Y139844D01*
X463954Y140069D01*
X463966Y140082D01*
X464004Y140119D01*
X464066Y140182D01*
X464154Y140257D01*
X464254Y140344D01*
X464391Y140444D01*
X464541Y140544D01*
X464716Y140657D01*
X464903Y140769D01*
X465116Y140869D01*
X465353Y140969D01*
X465603Y141057D01*
X465878Y141132D01*
X466153Y141194D01*
X466465Y141231D01*
X466778Y141244D01*
X466853D01*
X466940Y141231D01*
D02*
G37*
G36*
X420327D02*
X420452D01*
X420602Y141207D01*
X420765Y141182D01*
X420952Y141144D01*
X421165Y141107D01*
X421377Y141044D01*
X421614Y140969D01*
X421839Y140869D01*
X422077Y140769D01*
X422314Y140632D01*
X422539Y140482D01*
X422764Y140307D01*
X422977Y140107D01*
X422989Y140094D01*
X423027Y140057D01*
X423077Y139994D01*
X423152Y139894D01*
X423227Y139782D01*
X423326Y139644D01*
X423427Y139482D01*
X423526Y139295D01*
X423626Y139082D01*
X423726Y138845D01*
X423826Y138595D01*
X423901Y138320D01*
X423976Y138020D01*
X424026Y137695D01*
X424064Y137345D01*
X424076Y136983D01*
Y136970D01*
Y136908D01*
Y136833D01*
X424064Y136720D01*
Y136583D01*
X424051Y136420D01*
X424039Y136245D01*
X424014Y136058D01*
X423964Y135658D01*
X423876Y135233D01*
X423751Y134821D01*
X423676Y134633D01*
X423589Y134446D01*
Y134433D01*
X423564Y134408D01*
X423539Y134358D01*
X423501Y134296D01*
X423451Y134221D01*
X423389Y134121D01*
X423227Y133921D01*
X423027Y133684D01*
X422789Y133446D01*
X422502Y133221D01*
X422177Y133009D01*
X422164D01*
X422139Y132984D01*
X422089Y132959D01*
X422014Y132934D01*
X421927Y132896D01*
X421827Y132846D01*
X421714Y132809D01*
X421577Y132759D01*
X421440Y132709D01*
X421277Y132671D01*
X420940Y132584D01*
X420565Y132534D01*
X420165Y132509D01*
X420090D01*
X420002Y132521D01*
X419877D01*
X419727Y132546D01*
X419552Y132571D01*
X419365Y132609D01*
X419153Y132646D01*
X418928Y132709D01*
X418703Y132784D01*
X418465Y132871D01*
X418228Y132984D01*
X417990Y133109D01*
X417765Y133259D01*
X417541Y133434D01*
X417328Y133633D01*
X417315Y133646D01*
X417278Y133684D01*
X417228Y133746D01*
X417166Y133846D01*
X417078Y133958D01*
X416991Y134096D01*
X416891Y134271D01*
X416791Y134458D01*
X416691Y134683D01*
X416591Y134921D01*
X416503Y135183D01*
X416416Y135471D01*
X416353Y135783D01*
X416303Y136120D01*
X416266Y136483D01*
X416253Y136870D01*
Y136883D01*
Y136895D01*
Y136970D01*
X416266Y137095D01*
X416278Y137245D01*
X416291Y137445D01*
X416316Y137670D01*
X416366Y137907D01*
X416416Y138170D01*
X416478Y138445D01*
X416566Y138732D01*
X416678Y139020D01*
X416791Y139307D01*
X416941Y139582D01*
X417116Y139844D01*
X417315Y140082D01*
X417541Y140307D01*
X417553Y140319D01*
X417590Y140344D01*
X417653Y140394D01*
X417728Y140457D01*
X417840Y140519D01*
X417965Y140607D01*
X418103Y140694D01*
X418278Y140782D01*
X418453Y140869D01*
X418653Y140944D01*
X418865Y141032D01*
X419103Y141094D01*
X419352Y141157D01*
X419602Y141207D01*
X419877Y141231D01*
X420165Y141244D01*
X420240D01*
X420327Y141231D01*
D02*
G37*
G36*
X380013D02*
X380137D01*
X380288Y141207D01*
X380450Y141182D01*
X380637Y141144D01*
X380850Y141107D01*
X381062Y141044D01*
X381300Y140969D01*
X381525Y140869D01*
X381762Y140769D01*
X382000Y140632D01*
X382225Y140482D01*
X382449Y140307D01*
X382662Y140107D01*
X382674Y140094D01*
X382712Y140057D01*
X382762Y139994D01*
X382837Y139894D01*
X382912Y139782D01*
X383012Y139644D01*
X383112Y139482D01*
X383212Y139295D01*
X383312Y139082D01*
X383412Y138845D01*
X383512Y138595D01*
X383587Y138320D01*
X383662Y138020D01*
X383712Y137695D01*
X383749Y137345D01*
X383762Y136983D01*
Y136970D01*
Y136908D01*
Y136833D01*
X383749Y136720D01*
Y136583D01*
X383737Y136420D01*
X383724Y136245D01*
X383699Y136058D01*
X383649Y135658D01*
X383562Y135233D01*
X383437Y134821D01*
X383362Y134633D01*
X383274Y134446D01*
Y134433D01*
X383249Y134408D01*
X383224Y134358D01*
X383187Y134296D01*
X383137Y134221D01*
X383074Y134121D01*
X382912Y133921D01*
X382712Y133684D01*
X382474Y133446D01*
X382187Y133221D01*
X381862Y133009D01*
X381850D01*
X381825Y132984D01*
X381775Y132959D01*
X381700Y132934D01*
X381612Y132896D01*
X381512Y132846D01*
X381400Y132809D01*
X381262Y132759D01*
X381125Y132709D01*
X380962Y132671D01*
X380625Y132584D01*
X380250Y132534D01*
X379850Y132509D01*
X379775D01*
X379688Y132521D01*
X379563D01*
X379413Y132546D01*
X379238Y132571D01*
X379050Y132609D01*
X378838Y132646D01*
X378613Y132709D01*
X378388Y132784D01*
X378151Y132871D01*
X377913Y132984D01*
X377676Y133109D01*
X377451Y133259D01*
X377226Y133434D01*
X377013Y133633D01*
X377001Y133646D01*
X376963Y133684D01*
X376913Y133746D01*
X376851Y133846D01*
X376763Y133958D01*
X376676Y134096D01*
X376576Y134271D01*
X376476Y134458D01*
X376376Y134683D01*
X376276Y134921D01*
X376189Y135183D01*
X376101Y135471D01*
X376039Y135783D01*
X375989Y136120D01*
X375951Y136483D01*
X375939Y136870D01*
Y136883D01*
Y136895D01*
Y136970D01*
X375951Y137095D01*
X375964Y137245D01*
X375976Y137445D01*
X376001Y137670D01*
X376051Y137907D01*
X376101Y138170D01*
X376164Y138445D01*
X376251Y138732D01*
X376363Y139020D01*
X376476Y139307D01*
X376626Y139582D01*
X376801Y139844D01*
X377001Y140082D01*
X377226Y140307D01*
X377238Y140319D01*
X377276Y140344D01*
X377338Y140394D01*
X377413Y140457D01*
X377526Y140519D01*
X377651Y140607D01*
X377788Y140694D01*
X377963Y140782D01*
X378138Y140869D01*
X378338Y140944D01*
X378550Y141032D01*
X378788Y141094D01*
X379038Y141157D01*
X379288Y141207D01*
X379563Y141231D01*
X379850Y141244D01*
X379925D01*
X380013Y141231D01*
D02*
G37*
G36*
X314654D02*
X314779D01*
X314929Y141207D01*
X315092Y141182D01*
X315279Y141144D01*
X315492Y141107D01*
X315704Y141044D01*
X315942Y140969D01*
X316166Y140869D01*
X316404Y140769D01*
X316641Y140632D01*
X316866Y140482D01*
X317091Y140307D01*
X317304Y140107D01*
X317316Y140094D01*
X317354Y140057D01*
X317404Y139994D01*
X317479Y139894D01*
X317554Y139782D01*
X317654Y139644D01*
X317754Y139482D01*
X317854Y139295D01*
X317953Y139082D01*
X318053Y138845D01*
X318153Y138595D01*
X318228Y138320D01*
X318303Y138020D01*
X318353Y137695D01*
X318391Y137345D01*
X318403Y136983D01*
Y136970D01*
Y136908D01*
Y136833D01*
X318391Y136720D01*
Y136583D01*
X318378Y136420D01*
X318366Y136245D01*
X318341Y136058D01*
X318291Y135658D01*
X318203Y135233D01*
X318078Y134821D01*
X318004Y134633D01*
X317916Y134446D01*
Y134433D01*
X317891Y134408D01*
X317866Y134358D01*
X317829Y134296D01*
X317778Y134221D01*
X317716Y134121D01*
X317554Y133921D01*
X317354Y133684D01*
X317116Y133446D01*
X316829Y133221D01*
X316504Y133009D01*
X316491D01*
X316466Y132984D01*
X316416Y132959D01*
X316341Y132934D01*
X316254Y132896D01*
X316154Y132846D01*
X316042Y132809D01*
X315904Y132759D01*
X315767Y132709D01*
X315604Y132671D01*
X315267Y132584D01*
X314892Y132534D01*
X314492Y132509D01*
X314417D01*
X314329Y132521D01*
X314204D01*
X314055Y132546D01*
X313880Y132571D01*
X313692Y132609D01*
X313480Y132646D01*
X313255Y132709D01*
X313030Y132784D01*
X312792Y132871D01*
X312555Y132984D01*
X312317Y133109D01*
X312092Y133259D01*
X311868Y133434D01*
X311655Y133633D01*
X311643Y133646D01*
X311605Y133684D01*
X311555Y133746D01*
X311493Y133846D01*
X311405Y133958D01*
X311318Y134096D01*
X311218Y134271D01*
X311118Y134458D01*
X311018Y134683D01*
X310918Y134921D01*
X310830Y135183D01*
X310743Y135471D01*
X310680Y135783D01*
X310630Y136120D01*
X310593Y136483D01*
X310580Y136870D01*
Y136883D01*
Y136895D01*
Y136970D01*
X310593Y137095D01*
X310605Y137245D01*
X310618Y137445D01*
X310643Y137670D01*
X310693Y137907D01*
X310743Y138170D01*
X310805Y138445D01*
X310893Y138732D01*
X311005Y139020D01*
X311118Y139307D01*
X311268Y139582D01*
X311443Y139844D01*
X311643Y140082D01*
X311868Y140307D01*
X311880Y140319D01*
X311917Y140344D01*
X311980Y140394D01*
X312055Y140457D01*
X312167Y140519D01*
X312292Y140607D01*
X312430Y140694D01*
X312605Y140782D01*
X312780Y140869D01*
X312980Y140944D01*
X313192Y141032D01*
X313430Y141094D01*
X313680Y141157D01*
X313930Y141207D01*
X314204Y141231D01*
X314492Y141244D01*
X314567D01*
X314654Y141231D01*
D02*
G37*
G36*
X284250D02*
X284362D01*
X284512Y141207D01*
X284674Y141182D01*
X284862Y141144D01*
X285062Y141107D01*
X285274Y141044D01*
X285487Y140969D01*
X285724Y140869D01*
X285949Y140757D01*
X286174Y140632D01*
X286399Y140469D01*
X286624Y140294D01*
X286824Y140094D01*
X286836Y140082D01*
X286874Y140044D01*
X286924Y139982D01*
X286986Y139882D01*
X287074Y139769D01*
X287161Y139632D01*
X287261Y139457D01*
X287361Y139270D01*
X287449Y139057D01*
X287549Y138820D01*
X287636Y138557D01*
X287724Y138270D01*
X287786Y137957D01*
X287836Y137620D01*
X287874Y137270D01*
X287886Y136895D01*
Y136870D01*
Y136808D01*
Y136683D01*
X287874Y136520D01*
X281638D01*
Y136508D01*
Y136458D01*
X281650Y136383D01*
X281663Y136295D01*
X281675Y136170D01*
X281700Y136045D01*
X281725Y135895D01*
X281763Y135733D01*
X281863Y135395D01*
X282000Y135033D01*
X282088Y134871D01*
X282175Y134696D01*
X282288Y134546D01*
X282413Y134396D01*
X282425Y134383D01*
X282450Y134371D01*
X282488Y134333D01*
X282537Y134283D01*
X282612Y134233D01*
X282687Y134171D01*
X282787Y134096D01*
X282900Y134033D01*
X283150Y133896D01*
X283450Y133784D01*
X283612Y133734D01*
X283787Y133708D01*
X283975Y133684D01*
X284162Y133671D01*
X284237D01*
X284287Y133684D01*
X284437Y133696D01*
X284625Y133721D01*
X284824Y133771D01*
X285049Y133846D01*
X285274Y133933D01*
X285487Y134071D01*
X285499D01*
X285512Y134096D01*
X285574Y134146D01*
X285674Y134246D01*
X285799Y134396D01*
X285937Y134571D01*
X286087Y134808D01*
X286237Y135083D01*
X286362Y135395D01*
X287836Y135208D01*
Y135196D01*
X287824Y135146D01*
X287799Y135083D01*
X287761Y134996D01*
X287724Y134883D01*
X287674Y134758D01*
X287611Y134621D01*
X287549Y134471D01*
X287374Y134158D01*
X287149Y133821D01*
X287011Y133659D01*
X286874Y133496D01*
X286724Y133346D01*
X286549Y133209D01*
X286537Y133196D01*
X286511Y133184D01*
X286449Y133146D01*
X286387Y133096D01*
X286287Y133046D01*
X286174Y132984D01*
X286049Y132921D01*
X285899Y132859D01*
X285737Y132796D01*
X285549Y132734D01*
X285362Y132671D01*
X285149Y132621D01*
X284924Y132571D01*
X284687Y132534D01*
X284425Y132521D01*
X284162Y132509D01*
X284087D01*
X283987Y132521D01*
X283862D01*
X283700Y132546D01*
X283525Y132571D01*
X283325Y132609D01*
X283112Y132646D01*
X282887Y132709D01*
X282650Y132784D01*
X282400Y132871D01*
X282163Y132984D01*
X281913Y133109D01*
X281688Y133259D01*
X281463Y133434D01*
X281250Y133633D01*
X281238Y133646D01*
X281200Y133684D01*
X281150Y133746D01*
X281088Y133846D01*
X281000Y133958D01*
X280913Y134096D01*
X280813Y134258D01*
X280725Y134446D01*
X280625Y134658D01*
X280526Y134896D01*
X280438Y135158D01*
X280351Y135445D01*
X280288Y135745D01*
X280238Y136070D01*
X280201Y136420D01*
X280188Y136795D01*
Y136820D01*
Y136883D01*
X280201Y136995D01*
Y137145D01*
X280226Y137320D01*
X280251Y137520D01*
X280276Y137757D01*
X280326Y137995D01*
X280376Y138257D01*
X280451Y138520D01*
X280538Y138795D01*
X280638Y139070D01*
X280763Y139332D01*
X280913Y139594D01*
X281075Y139844D01*
X281263Y140069D01*
X281275Y140082D01*
X281313Y140119D01*
X281375Y140182D01*
X281463Y140257D01*
X281563Y140344D01*
X281700Y140444D01*
X281850Y140544D01*
X282025Y140657D01*
X282213Y140769D01*
X282425Y140869D01*
X282663Y140969D01*
X282912Y141057D01*
X283187Y141132D01*
X283462Y141194D01*
X283775Y141231D01*
X284087Y141244D01*
X284162D01*
X284250Y141231D01*
D02*
G37*
G36*
X246647D02*
X246759D01*
X246909Y141207D01*
X247072Y141182D01*
X247259Y141144D01*
X247459Y141107D01*
X247672Y141044D01*
X247884Y140969D01*
X248121Y140869D01*
X248346Y140757D01*
X248571Y140632D01*
X248796Y140469D01*
X249021Y140294D01*
X249221Y140094D01*
X249234Y140082D01*
X249271Y140044D01*
X249321Y139982D01*
X249384Y139882D01*
X249471Y139769D01*
X249559Y139632D01*
X249659Y139457D01*
X249758Y139270D01*
X249846Y139057D01*
X249946Y138820D01*
X250033Y138557D01*
X250121Y138270D01*
X250183Y137957D01*
X250233Y137620D01*
X250271Y137270D01*
X250283Y136895D01*
Y136870D01*
Y136808D01*
Y136683D01*
X250271Y136520D01*
X244035D01*
Y136508D01*
Y136458D01*
X244047Y136383D01*
X244060Y136295D01*
X244072Y136170D01*
X244097Y136045D01*
X244122Y135895D01*
X244160Y135733D01*
X244260Y135395D01*
X244397Y135033D01*
X244485Y134871D01*
X244572Y134696D01*
X244685Y134546D01*
X244810Y134396D01*
X244822Y134383D01*
X244847Y134371D01*
X244885Y134333D01*
X244935Y134283D01*
X245010Y134233D01*
X245085Y134171D01*
X245185Y134096D01*
X245297Y134033D01*
X245547Y133896D01*
X245847Y133784D01*
X246009Y133734D01*
X246184Y133708D01*
X246372Y133684D01*
X246559Y133671D01*
X246634D01*
X246684Y133684D01*
X246834Y133696D01*
X247022Y133721D01*
X247222Y133771D01*
X247446Y133846D01*
X247672Y133933D01*
X247884Y134071D01*
X247896D01*
X247909Y134096D01*
X247971Y134146D01*
X248071Y134246D01*
X248196Y134396D01*
X248334Y134571D01*
X248484Y134808D01*
X248634Y135083D01*
X248759Y135395D01*
X250233Y135208D01*
Y135196D01*
X250221Y135146D01*
X250196Y135083D01*
X250158Y134996D01*
X250121Y134883D01*
X250071Y134758D01*
X250008Y134621D01*
X249946Y134471D01*
X249771Y134158D01*
X249546Y133821D01*
X249408Y133659D01*
X249271Y133496D01*
X249121Y133346D01*
X248946Y133209D01*
X248934Y133196D01*
X248909Y133184D01*
X248846Y133146D01*
X248784Y133096D01*
X248684Y133046D01*
X248571Y132984D01*
X248446Y132921D01*
X248296Y132859D01*
X248134Y132796D01*
X247946Y132734D01*
X247759Y132671D01*
X247547Y132621D01*
X247322Y132571D01*
X247084Y132534D01*
X246822Y132521D01*
X246559Y132509D01*
X246484D01*
X246384Y132521D01*
X246259D01*
X246097Y132546D01*
X245922Y132571D01*
X245722Y132609D01*
X245509Y132646D01*
X245285Y132709D01*
X245047Y132784D01*
X244797Y132871D01*
X244560Y132984D01*
X244310Y133109D01*
X244085Y133259D01*
X243860Y133434D01*
X243647Y133633D01*
X243635Y133646D01*
X243598Y133684D01*
X243547Y133746D01*
X243485Y133846D01*
X243398Y133958D01*
X243310Y134096D01*
X243210Y134258D01*
X243123Y134446D01*
X243023Y134658D01*
X242923Y134896D01*
X242835Y135158D01*
X242748Y135445D01*
X242685Y135745D01*
X242635Y136070D01*
X242598Y136420D01*
X242585Y136795D01*
Y136820D01*
Y136883D01*
X242598Y136995D01*
Y137145D01*
X242623Y137320D01*
X242648Y137520D01*
X242673Y137757D01*
X242723Y137995D01*
X242773Y138257D01*
X242848Y138520D01*
X242935Y138795D01*
X243035Y139070D01*
X243160Y139332D01*
X243310Y139594D01*
X243472Y139844D01*
X243660Y140069D01*
X243673Y140082D01*
X243710Y140119D01*
X243773Y140182D01*
X243860Y140257D01*
X243960Y140344D01*
X244097Y140444D01*
X244247Y140544D01*
X244422Y140657D01*
X244610Y140769D01*
X244822Y140869D01*
X245060Y140969D01*
X245310Y141057D01*
X245585Y141132D01*
X245859Y141194D01*
X246172Y141231D01*
X246484Y141244D01*
X246559D01*
X246647Y141231D01*
D02*
G37*
G36*
X229589D02*
X229714D01*
X229863Y141207D01*
X230026Y141182D01*
X230213Y141144D01*
X230426Y141107D01*
X230638Y141044D01*
X230876Y140969D01*
X231101Y140869D01*
X231338Y140769D01*
X231576Y140632D01*
X231800Y140482D01*
X232026Y140307D01*
X232238Y140107D01*
X232250Y140094D01*
X232288Y140057D01*
X232338Y139994D01*
X232413Y139894D01*
X232488Y139782D01*
X232588Y139644D01*
X232688Y139482D01*
X232788Y139295D01*
X232888Y139082D01*
X232988Y138845D01*
X233088Y138595D01*
X233163Y138320D01*
X233238Y138020D01*
X233288Y137695D01*
X233325Y137345D01*
X233338Y136983D01*
Y136970D01*
Y136908D01*
Y136833D01*
X233325Y136720D01*
Y136583D01*
X233313Y136420D01*
X233300Y136245D01*
X233275Y136058D01*
X233225Y135658D01*
X233138Y135233D01*
X233013Y134821D01*
X232938Y134633D01*
X232850Y134446D01*
Y134433D01*
X232825Y134408D01*
X232800Y134358D01*
X232763Y134296D01*
X232713Y134221D01*
X232650Y134121D01*
X232488Y133921D01*
X232288Y133684D01*
X232050Y133446D01*
X231763Y133221D01*
X231438Y133009D01*
X231426D01*
X231401Y132984D01*
X231351Y132959D01*
X231276Y132934D01*
X231188Y132896D01*
X231088Y132846D01*
X230976Y132809D01*
X230838Y132759D01*
X230701Y132709D01*
X230538Y132671D01*
X230201Y132584D01*
X229826Y132534D01*
X229426Y132509D01*
X229351D01*
X229264Y132521D01*
X229139D01*
X228989Y132546D01*
X228814Y132571D01*
X228626Y132609D01*
X228414Y132646D01*
X228189Y132709D01*
X227964Y132784D01*
X227727Y132871D01*
X227489Y132984D01*
X227252Y133109D01*
X227027Y133259D01*
X226802Y133434D01*
X226589Y133633D01*
X226577Y133646D01*
X226539Y133684D01*
X226489Y133746D01*
X226427Y133846D01*
X226339Y133958D01*
X226252Y134096D01*
X226152Y134271D01*
X226052Y134458D01*
X225952Y134683D01*
X225852Y134921D01*
X225765Y135183D01*
X225677Y135471D01*
X225615Y135783D01*
X225565Y136120D01*
X225527Y136483D01*
X225515Y136870D01*
Y136883D01*
Y136895D01*
Y136970D01*
X225527Y137095D01*
X225540Y137245D01*
X225552Y137445D01*
X225577Y137670D01*
X225627Y137907D01*
X225677Y138170D01*
X225740Y138445D01*
X225827Y138732D01*
X225940Y139020D01*
X226052Y139307D01*
X226202Y139582D01*
X226377Y139844D01*
X226577Y140082D01*
X226802Y140307D01*
X226814Y140319D01*
X226852Y140344D01*
X226914Y140394D01*
X226989Y140457D01*
X227102Y140519D01*
X227227Y140607D01*
X227364Y140694D01*
X227539Y140782D01*
X227714Y140869D01*
X227914Y140944D01*
X228127Y141032D01*
X228364Y141094D01*
X228614Y141157D01*
X228864Y141207D01*
X229139Y141231D01*
X229426Y141244D01*
X229501D01*
X229589Y141231D01*
D02*
G37*
%LPC*%
G36*
X408385Y72957D02*
X403943Y66607D01*
X408385D01*
Y72957D01*
D02*
G37*
G36*
X397440D02*
X392997Y66607D01*
X397440D01*
Y72957D01*
D02*
G37*
G36*
X418353Y74346D02*
X418246D01*
X418155Y74331D01*
X418063Y74316D01*
X417941Y74301D01*
X417666Y74224D01*
X417361Y74102D01*
X417208Y74026D01*
X417040Y73919D01*
X416888Y73812D01*
X416735Y73675D01*
X416582Y73522D01*
X416445Y73339D01*
X416430Y73324D01*
X416414Y73278D01*
X416369Y73201D01*
X416308Y73079D01*
X416247Y72927D01*
X416170Y72744D01*
X416079Y72530D01*
X416002Y72255D01*
X415926Y71950D01*
X415834Y71614D01*
X415758Y71217D01*
X415697Y70790D01*
X415636Y70316D01*
X415605Y69782D01*
X415575Y69217D01*
X415560Y68591D01*
Y68576D01*
Y68546D01*
Y68500D01*
Y68439D01*
Y68362D01*
Y68256D01*
X415575Y68027D01*
X415590Y67752D01*
X415605Y67431D01*
X415621Y67080D01*
X415667Y66714D01*
X415758Y65935D01*
X415819Y65554D01*
X415896Y65172D01*
X415987Y64821D01*
X416109Y64500D01*
X416231Y64210D01*
X416369Y63966D01*
X416384Y63951D01*
X416399Y63920D01*
X416445Y63859D01*
X416521Y63783D01*
X416598Y63706D01*
X416689Y63615D01*
X416918Y63401D01*
X417208Y63187D01*
X417559Y63019D01*
X417743Y62943D01*
X417941Y62882D01*
X418155Y62852D01*
X418368Y62836D01*
X418414D01*
X418491Y62852D01*
X418567D01*
X418674Y62867D01*
X418796Y62897D01*
X419071Y62974D01*
X419223Y63035D01*
X419376Y63111D01*
X419544Y63203D01*
X419712Y63325D01*
X419880Y63447D01*
X420048Y63600D01*
X420216Y63783D01*
X420368Y63981D01*
X420383Y63997D01*
X420399Y64042D01*
X420444Y64103D01*
X420490Y64210D01*
X420567Y64348D01*
X420628Y64531D01*
X420704Y64745D01*
X420780Y64989D01*
X420857Y65279D01*
X420933Y65615D01*
X421009Y65981D01*
X421070Y66408D01*
X421116Y66882D01*
X421162Y67401D01*
X421177Y67965D01*
X421193Y68591D01*
Y68607D01*
Y68637D01*
Y68683D01*
Y68744D01*
Y68820D01*
Y68912D01*
X421177Y69156D01*
X421162Y69431D01*
X421147Y69752D01*
X421132Y70103D01*
X421086Y70469D01*
X420994Y71248D01*
X420918Y71629D01*
X420841Y71996D01*
X420750Y72347D01*
X420643Y72682D01*
X420521Y72957D01*
X420368Y73201D01*
X420353Y73217D01*
X420338Y73247D01*
X420292Y73308D01*
X420231Y73385D01*
X420139Y73461D01*
X420048Y73568D01*
X419941Y73675D01*
X419819Y73782D01*
X419529Y73980D01*
X419178Y74163D01*
X418994Y74240D01*
X418781Y74301D01*
X418582Y74331D01*
X418353Y74346D01*
D02*
G37*
G36*
X385517D02*
X385410D01*
X385319Y74331D01*
X385227Y74316D01*
X385105Y74301D01*
X384830Y74224D01*
X384525Y74102D01*
X384372Y74026D01*
X384204Y73919D01*
X384052Y73812D01*
X383899Y73675D01*
X383746Y73522D01*
X383609Y73339D01*
X383594Y73324D01*
X383579Y73278D01*
X383533Y73201D01*
X383472Y73079D01*
X383411Y72927D01*
X383334Y72744D01*
X383243Y72530D01*
X383166Y72255D01*
X383090Y71950D01*
X382999Y71614D01*
X382922Y71217D01*
X382861Y70790D01*
X382800Y70316D01*
X382770Y69782D01*
X382739Y69217D01*
X382724Y68591D01*
Y68576D01*
Y68546D01*
Y68500D01*
Y68439D01*
Y68362D01*
Y68256D01*
X382739Y68027D01*
X382754Y67752D01*
X382770Y67431D01*
X382785Y67080D01*
X382831Y66714D01*
X382922Y65935D01*
X382983Y65554D01*
X383060Y65172D01*
X383151Y64821D01*
X383273Y64500D01*
X383395Y64210D01*
X383533Y63966D01*
X383548Y63951D01*
X383563Y63920D01*
X383609Y63859D01*
X383685Y63783D01*
X383762Y63706D01*
X383853Y63615D01*
X384082Y63401D01*
X384372Y63187D01*
X384724Y63019D01*
X384907Y62943D01*
X385105Y62882D01*
X385319Y62852D01*
X385533Y62836D01*
X385578D01*
X385655Y62852D01*
X385731D01*
X385838Y62867D01*
X385960Y62897D01*
X386235Y62974D01*
X386387Y63035D01*
X386540Y63111D01*
X386708Y63203D01*
X386876Y63325D01*
X387044Y63447D01*
X387212Y63600D01*
X387380Y63783D01*
X387532Y63981D01*
X387548Y63997D01*
X387563Y64042D01*
X387609Y64103D01*
X387654Y64210D01*
X387731Y64348D01*
X387792Y64531D01*
X387868Y64745D01*
X387944Y64989D01*
X388021Y65279D01*
X388097Y65615D01*
X388173Y65981D01*
X388235Y66408D01*
X388280Y66882D01*
X388326Y67401D01*
X388341Y67965D01*
X388357Y68591D01*
Y68607D01*
Y68637D01*
Y68683D01*
Y68744D01*
Y68820D01*
Y68912D01*
X388341Y69156D01*
X388326Y69431D01*
X388311Y69752D01*
X388296Y70103D01*
X388250Y70469D01*
X388158Y71248D01*
X388082Y71629D01*
X388006Y71996D01*
X387914Y72347D01*
X387807Y72682D01*
X387685Y72957D01*
X387532Y73201D01*
X387517Y73217D01*
X387502Y73247D01*
X387456Y73308D01*
X387395Y73385D01*
X387303Y73461D01*
X387212Y73568D01*
X387105Y73675D01*
X386983Y73782D01*
X386693Y73980D01*
X386342Y74163D01*
X386158Y74240D01*
X385945Y74301D01*
X385746Y74331D01*
X385517Y74346D01*
D02*
G37*
G36*
X347262Y70652D02*
X347140D01*
X347048Y70637D01*
X346942Y70622D01*
X346804Y70606D01*
X346514Y70530D01*
X346163Y70408D01*
X345995Y70332D01*
X345812Y70240D01*
X345629Y70133D01*
X345446Y69996D01*
X345278Y69843D01*
X345110Y69675D01*
X345094Y69660D01*
X345079Y69629D01*
X345033Y69568D01*
X344972Y69492D01*
X344911Y69385D01*
X344835Y69263D01*
X344759Y69110D01*
X344682Y68942D01*
X344606Y68744D01*
X344530Y68530D01*
X344453Y68286D01*
X344392Y68027D01*
X344331Y67737D01*
X344286Y67431D01*
X344270Y67095D01*
X344255Y66744D01*
Y66729D01*
Y66653D01*
Y66561D01*
X344270Y66424D01*
X344286Y66256D01*
X344301Y66073D01*
X344331Y65859D01*
X344362Y65645D01*
X344469Y65157D01*
X344621Y64668D01*
X344713Y64439D01*
X344835Y64210D01*
X344957Y63997D01*
X345110Y63798D01*
X345125Y63783D01*
X345156Y63752D01*
X345201Y63706D01*
X345262Y63645D01*
X345354Y63569D01*
X345446Y63493D01*
X345568Y63401D01*
X345705Y63325D01*
X346011Y63142D01*
X346377Y62989D01*
X346575Y62928D01*
X346804Y62882D01*
X347018Y62852D01*
X347262Y62836D01*
X347384D01*
X347476Y62852D01*
X347583Y62867D01*
X347720Y62882D01*
X348010Y62958D01*
X348346Y63081D01*
X348529Y63157D01*
X348712Y63249D01*
X348880Y63355D01*
X349063Y63493D01*
X349231Y63645D01*
X349399Y63813D01*
X349415Y63829D01*
X349430Y63859D01*
X349476Y63920D01*
X349537Y63997D01*
X349598Y64103D01*
X349674Y64226D01*
X349751Y64378D01*
X349842Y64561D01*
X349918Y64745D01*
X349995Y64974D01*
X350071Y65218D01*
X350132Y65493D01*
X350193Y65782D01*
X350239Y66103D01*
X350254Y66439D01*
X350270Y66805D01*
Y66821D01*
Y66882D01*
Y66989D01*
X350254Y67111D01*
X350239Y67279D01*
X350224Y67462D01*
X350193Y67660D01*
X350163Y67874D01*
X350056Y68332D01*
X349995Y68576D01*
X349903Y68820D01*
X349796Y69049D01*
X349689Y69278D01*
X349552Y69477D01*
X349399Y69675D01*
X349384Y69690D01*
X349354Y69721D01*
X349308Y69767D01*
X349247Y69828D01*
X349155Y69904D01*
X349063Y69981D01*
X348941Y70072D01*
X348819Y70164D01*
X348499Y70347D01*
X348132Y70500D01*
X347934Y70561D01*
X347720Y70606D01*
X347491Y70637D01*
X347262Y70652D01*
D02*
G37*
G36*
X329338Y154298D02*
X329251D01*
X329176Y154286D01*
X329101Y154273D01*
X329001Y154261D01*
X328788Y154198D01*
X328538Y154111D01*
X328401Y154048D01*
X328263Y153973D01*
X328138Y153886D01*
X328001Y153773D01*
X327876Y153661D01*
X327751Y153523D01*
X327738Y153511D01*
X327726Y153486D01*
X327688Y153436D01*
X327651Y153373D01*
X327601Y153298D01*
X327551Y153186D01*
X327501Y153074D01*
X327439Y152923D01*
X327376Y152774D01*
X327326Y152586D01*
X327276Y152386D01*
X327226Y152174D01*
X327189Y151924D01*
X327151Y151674D01*
X327139Y151386D01*
X327126Y151087D01*
Y151074D01*
Y151011D01*
Y150937D01*
X327139Y150824D01*
X327151Y150687D01*
X327164Y150537D01*
X327189Y150374D01*
X327214Y150187D01*
X327289Y149799D01*
X327413Y149399D01*
X327489Y149212D01*
X327576Y149024D01*
X327688Y148850D01*
X327801Y148687D01*
X327813Y148675D01*
X327826Y148650D01*
X327876Y148612D01*
X327926Y148562D01*
X327988Y148500D01*
X328063Y148437D01*
X328251Y148300D01*
X328488Y148150D01*
X328763Y148025D01*
X328913Y147975D01*
X329063Y147937D01*
X329226Y147912D01*
X329400Y147900D01*
X329488D01*
X329563Y147912D01*
X329638Y147925D01*
X329738Y147937D01*
X329950Y148000D01*
X330200Y148087D01*
X330338Y148150D01*
X330463Y148212D01*
X330600Y148300D01*
X330738Y148400D01*
X330863Y148512D01*
X330988Y148650D01*
X331000Y148662D01*
X331013Y148687D01*
X331050Y148725D01*
X331088Y148800D01*
X331138Y148875D01*
X331200Y148975D01*
X331263Y149087D01*
X331325Y149225D01*
X331375Y149375D01*
X331437Y149549D01*
X331500Y149749D01*
X331550Y149949D01*
X331587Y150174D01*
X331625Y150424D01*
X331637Y150687D01*
X331650Y150974D01*
Y150999D01*
Y151049D01*
Y151137D01*
X331637Y151249D01*
X331625Y151399D01*
X331613Y151561D01*
X331600Y151736D01*
X331562Y151936D01*
X331488Y152336D01*
X331362Y152761D01*
X331288Y152961D01*
X331200Y153148D01*
X331100Y153323D01*
X330975Y153486D01*
X330963Y153498D01*
X330950Y153523D01*
X330913Y153561D01*
X330863Y153611D01*
X330788Y153673D01*
X330713Y153748D01*
X330525Y153898D01*
X330288Y154036D01*
X330000Y154173D01*
X329850Y154223D01*
X329688Y154261D01*
X329513Y154286D01*
X329338Y154298D01*
D02*
G37*
G36*
X305569Y151124D02*
X305557D01*
X305532Y151111D01*
X305482Y151099D01*
X305419Y151074D01*
X305344Y151037D01*
X305244Y151011D01*
X305119Y150974D01*
X304994Y150937D01*
X304832Y150899D01*
X304657Y150849D01*
X304469Y150812D01*
X304257Y150762D01*
X304032Y150712D01*
X303795Y150674D01*
X303532Y150624D01*
X303245Y150587D01*
X303207D01*
X303157Y150574D01*
X303107Y150562D01*
X302945Y150537D01*
X302757Y150499D01*
X302557Y150462D01*
X302358Y150412D01*
X302170Y150362D01*
X302008Y150299D01*
X301995Y150287D01*
X301945Y150274D01*
X301883Y150237D01*
X301808Y150187D01*
X301708Y150112D01*
X301620Y150037D01*
X301533Y149949D01*
X301445Y149837D01*
X301433Y149824D01*
X301420Y149787D01*
X301383Y149724D01*
X301358Y149637D01*
X301320Y149537D01*
X301283Y149424D01*
X301270Y149299D01*
X301258Y149162D01*
Y149137D01*
X301270Y149074D01*
X301283Y148962D01*
X301308Y148837D01*
X301358Y148687D01*
X301433Y148525D01*
X301545Y148375D01*
X301683Y148225D01*
X301708Y148212D01*
X301758Y148162D01*
X301858Y148112D01*
X301995Y148037D01*
X302170Y147975D01*
X302395Y147912D01*
X302645Y147862D01*
X302932Y147850D01*
X303070D01*
X303145Y147862D01*
X303232Y147875D01*
X303420Y147900D01*
X303657Y147937D01*
X303895Y148000D01*
X304144Y148087D01*
X304394Y148200D01*
X304407D01*
X304419Y148212D01*
X304494Y148262D01*
X304607Y148350D01*
X304757Y148462D01*
X304907Y148600D01*
X305057Y148775D01*
X305207Y148962D01*
X305332Y149187D01*
X305344Y149212D01*
X305369Y149275D01*
X305407Y149387D01*
X305444Y149537D01*
X305482Y149737D01*
X305519Y149987D01*
X305544Y150274D01*
X305557Y150599D01*
X305569Y151124D01*
D02*
G37*
G36*
X293635Y157098D02*
X291110D01*
Y153611D01*
X293847D01*
X293947Y153623D01*
X294160D01*
X294397Y153636D01*
X294647Y153661D01*
X294872Y153698D01*
X294972Y153711D01*
X295059Y153736D01*
X295072D01*
X295084Y153748D01*
X295159Y153773D01*
X295259Y153811D01*
X295384Y153873D01*
X295522Y153948D01*
X295672Y154048D01*
X295809Y154173D01*
X295934Y154311D01*
X295947Y154336D01*
X295984Y154386D01*
X296034Y154473D01*
X296084Y154586D01*
X296134Y154736D01*
X296184Y154910D01*
X296222Y155098D01*
X296234Y155323D01*
Y155335D01*
Y155348D01*
Y155423D01*
X296222Y155523D01*
X296196Y155660D01*
X296159Y155823D01*
X296109Y155998D01*
X296047Y156173D01*
X295947Y156335D01*
X295934Y156360D01*
X295897Y156410D01*
X295834Y156485D01*
X295747Y156573D01*
X295634Y156673D01*
X295497Y156773D01*
X295347Y156860D01*
X295159Y156935D01*
X295134Y156947D01*
X295109D01*
X295059Y156960D01*
X295009Y156973D01*
X294934Y156985D01*
X294847Y156997D01*
X294759Y157022D01*
X294647Y157035D01*
X294510Y157048D01*
X294372Y157060D01*
X294209Y157072D01*
X294035Y157085D01*
X293847D01*
X293635Y157098D01*
D02*
G37*
G36*
X293772Y152249D02*
X291110D01*
Y148287D01*
X294235D01*
X294397Y148300D01*
X294559D01*
X294734Y148312D01*
X294897Y148325D01*
X295022Y148337D01*
X295047D01*
X295109Y148350D01*
X295209Y148375D01*
X295334Y148412D01*
X295472Y148450D01*
X295609Y148512D01*
X295759Y148575D01*
X295897Y148650D01*
X295909Y148662D01*
X295959Y148687D01*
X296022Y148737D01*
X296109Y148812D01*
X296196Y148900D01*
X296297Y149012D01*
X296397Y149137D01*
X296484Y149287D01*
X296497Y149312D01*
X296521Y149362D01*
X296559Y149449D01*
X296609Y149574D01*
X296646Y149712D01*
X296684Y149874D01*
X296709Y150062D01*
X296721Y150262D01*
Y150274D01*
Y150287D01*
Y150324D01*
Y150374D01*
X296709Y150487D01*
X296684Y150649D01*
X296634Y150824D01*
X296584Y151011D01*
X296497Y151199D01*
X296384Y151386D01*
X296371Y151411D01*
X296322Y151461D01*
X296246Y151549D01*
X296147Y151649D01*
X296009Y151761D01*
X295847Y151861D01*
X295672Y151961D01*
X295459Y152049D01*
X295447D01*
X295434Y152061D01*
X295397Y152074D01*
X295347Y152086D01*
X295284Y152099D01*
X295222Y152111D01*
X295134Y152136D01*
X295034Y152149D01*
X294909Y152174D01*
X294784Y152186D01*
X294647Y152199D01*
X294497Y152224D01*
X294160Y152236D01*
X293772Y152249D01*
D02*
G37*
G36*
X244947Y157185D02*
X241061D01*
Y153373D01*
X244510D01*
X244597Y153386D01*
X244697D01*
X244935Y153398D01*
X245197Y153423D01*
X245472Y153461D01*
X245735Y153511D01*
X245972Y153586D01*
X245984D01*
X245997Y153598D01*
X246072Y153623D01*
X246172Y153673D01*
X246309Y153748D01*
X246447Y153848D01*
X246597Y153961D01*
X246747Y154111D01*
X246872Y154273D01*
X246884Y154298D01*
X246922Y154361D01*
X246972Y154448D01*
X247034Y154586D01*
X247084Y154736D01*
X247134Y154910D01*
X247172Y155111D01*
X247184Y155310D01*
Y155323D01*
Y155348D01*
Y155385D01*
X247172Y155448D01*
Y155510D01*
X247159Y155598D01*
X247109Y155785D01*
X247034Y155998D01*
X246934Y156223D01*
X246784Y156435D01*
X246684Y156548D01*
X246584Y156648D01*
X246572Y156660D01*
X246559Y156673D01*
X246522Y156698D01*
X246472Y156735D01*
X246409Y156773D01*
X246322Y156823D01*
X246234Y156873D01*
X246122Y156923D01*
X245997Y156973D01*
X245859Y157010D01*
X245709Y157060D01*
X245547Y157098D01*
X245360Y157135D01*
X245160Y157160D01*
X244947Y157185D01*
D02*
G37*
G36*
X343022Y154298D02*
X342922D01*
X342847Y154286D01*
X342760Y154273D01*
X342647Y154261D01*
X342410Y154198D01*
X342122Y154098D01*
X341985Y154036D01*
X341835Y153961D01*
X341685Y153873D01*
X341535Y153761D01*
X341398Y153636D01*
X341260Y153498D01*
X341247Y153486D01*
X341235Y153461D01*
X341198Y153411D01*
X341147Y153348D01*
X341097Y153261D01*
X341035Y153161D01*
X340973Y153036D01*
X340910Y152899D01*
X340848Y152736D01*
X340785Y152561D01*
X340723Y152361D01*
X340673Y152149D01*
X340623Y151911D01*
X340585Y151661D01*
X340573Y151386D01*
X340560Y151099D01*
Y151087D01*
Y151024D01*
Y150949D01*
X340573Y150837D01*
X340585Y150699D01*
X340598Y150549D01*
X340623Y150374D01*
X340648Y150199D01*
X340735Y149799D01*
X340860Y149399D01*
X340935Y149212D01*
X341035Y149024D01*
X341135Y148850D01*
X341260Y148687D01*
X341273Y148675D01*
X341297Y148650D01*
X341335Y148612D01*
X341385Y148562D01*
X341460Y148500D01*
X341535Y148437D01*
X341635Y148362D01*
X341747Y148300D01*
X341997Y148150D01*
X342297Y148025D01*
X342460Y147975D01*
X342647Y147937D01*
X342822Y147912D01*
X343022Y147900D01*
X343122D01*
X343197Y147912D01*
X343284Y147925D01*
X343397Y147937D01*
X343634Y148000D01*
X343909Y148100D01*
X344059Y148162D01*
X344209Y148237D01*
X344347Y148325D01*
X344497Y148437D01*
X344634Y148562D01*
X344772Y148700D01*
X344784Y148712D01*
X344797Y148737D01*
X344834Y148787D01*
X344884Y148850D01*
X344934Y148937D01*
X344996Y149037D01*
X345059Y149162D01*
X345134Y149312D01*
X345196Y149462D01*
X345259Y149649D01*
X345322Y149849D01*
X345371Y150074D01*
X345421Y150312D01*
X345459Y150574D01*
X345471Y150849D01*
X345484Y151149D01*
Y151161D01*
Y151212D01*
Y151299D01*
X345471Y151399D01*
X345459Y151536D01*
X345446Y151686D01*
X345421Y151849D01*
X345396Y152024D01*
X345309Y152399D01*
X345259Y152599D01*
X345184Y152799D01*
X345097Y152986D01*
X345009Y153174D01*
X344897Y153336D01*
X344772Y153498D01*
X344759Y153511D01*
X344734Y153536D01*
X344697Y153573D01*
X344647Y153623D01*
X344572Y153686D01*
X344497Y153748D01*
X344397Y153823D01*
X344297Y153898D01*
X344034Y154048D01*
X343734Y154173D01*
X343572Y154223D01*
X343397Y154261D01*
X343209Y154286D01*
X343022Y154298D01*
D02*
G37*
G36*
X320665Y154311D02*
X320565D01*
X320503Y154298D01*
X320415Y154286D01*
X320328Y154273D01*
X320090Y154223D01*
X319841Y154148D01*
X319553Y154036D01*
X319416Y153961D01*
X319278Y153873D01*
X319141Y153761D01*
X319016Y153648D01*
X319003Y153636D01*
X318991Y153623D01*
X318953Y153586D01*
X318916Y153536D01*
X318866Y153461D01*
X318803Y153386D01*
X318741Y153298D01*
X318678Y153186D01*
X318616Y153074D01*
X318553Y152936D01*
X318428Y152636D01*
X318341Y152299D01*
X318316Y152111D01*
X318291Y151911D01*
X322965D01*
Y151924D01*
Y151961D01*
X322952Y152011D01*
X322940Y152086D01*
X322927Y152174D01*
X322915Y152274D01*
X322865Y152499D01*
X322790Y152761D01*
X322702Y153024D01*
X322577Y153273D01*
X322427Y153486D01*
X322415Y153498D01*
X322402Y153523D01*
X322352Y153561D01*
X322302Y153611D01*
X322240Y153673D01*
X322152Y153748D01*
X322052Y153823D01*
X321952Y153898D01*
X321828Y153973D01*
X321690Y154048D01*
X321390Y154186D01*
X321228Y154236D01*
X321053Y154273D01*
X320865Y154298D01*
X320665Y154311D01*
D02*
G37*
G36*
X270428Y157322D02*
X270341D01*
X270266Y157310D01*
X270191Y157297D01*
X270091Y157285D01*
X269866Y157222D01*
X269616Y157122D01*
X269491Y157060D01*
X269353Y156973D01*
X269228Y156885D01*
X269104Y156773D01*
X268979Y156648D01*
X268866Y156498D01*
X268853Y156485D01*
X268841Y156448D01*
X268804Y156385D01*
X268754Y156285D01*
X268704Y156160D01*
X268641Y156010D01*
X268566Y155835D01*
X268504Y155610D01*
X268441Y155360D01*
X268366Y155085D01*
X268304Y154761D01*
X268254Y154411D01*
X268204Y154023D01*
X268179Y153586D01*
X268154Y153124D01*
X268141Y152611D01*
Y152599D01*
Y152574D01*
Y152536D01*
Y152486D01*
Y152424D01*
Y152336D01*
X268154Y152149D01*
X268166Y151924D01*
X268179Y151661D01*
X268191Y151374D01*
X268229Y151074D01*
X268304Y150437D01*
X268354Y150124D01*
X268416Y149812D01*
X268491Y149524D01*
X268591Y149262D01*
X268691Y149024D01*
X268804Y148825D01*
X268816Y148812D01*
X268829Y148787D01*
X268866Y148737D01*
X268929Y148675D01*
X268991Y148612D01*
X269066Y148537D01*
X269253Y148362D01*
X269491Y148187D01*
X269778Y148050D01*
X269928Y147987D01*
X270091Y147937D01*
X270266Y147912D01*
X270441Y147900D01*
X270478D01*
X270541Y147912D01*
X270603D01*
X270691Y147925D01*
X270791Y147950D01*
X271015Y148012D01*
X271140Y148062D01*
X271265Y148125D01*
X271403Y148200D01*
X271540Y148300D01*
X271678Y148400D01*
X271815Y148525D01*
X271953Y148675D01*
X272078Y148837D01*
X272090Y148850D01*
X272103Y148887D01*
X272140Y148937D01*
X272178Y149024D01*
X272240Y149137D01*
X272290Y149287D01*
X272353Y149462D01*
X272415Y149662D01*
X272478Y149899D01*
X272540Y150174D01*
X272603Y150474D01*
X272653Y150824D01*
X272690Y151212D01*
X272728Y151636D01*
X272740Y152099D01*
X272752Y152611D01*
Y152624D01*
Y152649D01*
Y152686D01*
Y152736D01*
Y152799D01*
Y152874D01*
X272740Y153074D01*
X272728Y153298D01*
X272715Y153561D01*
X272703Y153848D01*
X272665Y154148D01*
X272590Y154786D01*
X272528Y155098D01*
X272465Y155398D01*
X272390Y155685D01*
X272303Y155960D01*
X272203Y156185D01*
X272078Y156385D01*
X272065Y156398D01*
X272053Y156423D01*
X272015Y156473D01*
X271965Y156535D01*
X271890Y156598D01*
X271815Y156685D01*
X271728Y156773D01*
X271628Y156860D01*
X271390Y157022D01*
X271103Y157172D01*
X270953Y157235D01*
X270778Y157285D01*
X270616Y157310D01*
X270428Y157322D01*
D02*
G37*
G36*
X197909D02*
X197822D01*
X197747Y157310D01*
X197672Y157297D01*
X197572Y157285D01*
X197347Y157222D01*
X197097Y157122D01*
X196972Y157060D01*
X196835Y156973D01*
X196709Y156885D01*
X196584Y156773D01*
X196460Y156648D01*
X196347Y156498D01*
X196335Y156485D01*
X196322Y156448D01*
X196285Y156385D01*
X196235Y156285D01*
X196185Y156160D01*
X196122Y156010D01*
X196047Y155835D01*
X195985Y155610D01*
X195922Y155360D01*
X195847Y155085D01*
X195785Y154761D01*
X195735Y154411D01*
X195685Y154023D01*
X195660Y153586D01*
X195635Y153124D01*
X195622Y152611D01*
Y152599D01*
Y152574D01*
Y152536D01*
Y152486D01*
Y152424D01*
Y152336D01*
X195635Y152149D01*
X195647Y151924D01*
X195660Y151661D01*
X195672Y151374D01*
X195710Y151074D01*
X195785Y150437D01*
X195835Y150124D01*
X195897Y149812D01*
X195972Y149524D01*
X196072Y149262D01*
X196172Y149024D01*
X196285Y148825D01*
X196297Y148812D01*
X196310Y148787D01*
X196347Y148737D01*
X196410Y148675D01*
X196472Y148612D01*
X196547Y148537D01*
X196735Y148362D01*
X196972Y148187D01*
X197259Y148050D01*
X197409Y147987D01*
X197572Y147937D01*
X197747Y147912D01*
X197922Y147900D01*
X197959D01*
X198022Y147912D01*
X198084D01*
X198172Y147925D01*
X198272Y147950D01*
X198497Y148012D01*
X198622Y148062D01*
X198746Y148125D01*
X198884Y148200D01*
X199021Y148300D01*
X199159Y148400D01*
X199296Y148525D01*
X199434Y148675D01*
X199559Y148837D01*
X199571Y148850D01*
X199584Y148887D01*
X199621Y148937D01*
X199659Y149024D01*
X199721Y149137D01*
X199771Y149287D01*
X199834Y149462D01*
X199896Y149662D01*
X199959Y149899D01*
X200021Y150174D01*
X200084Y150474D01*
X200134Y150824D01*
X200171Y151212D01*
X200209Y151636D01*
X200221Y152099D01*
X200234Y152611D01*
Y152624D01*
Y152649D01*
Y152686D01*
Y152736D01*
Y152799D01*
Y152874D01*
X200221Y153074D01*
X200209Y153298D01*
X200196Y153561D01*
X200184Y153848D01*
X200146Y154148D01*
X200071Y154786D01*
X200009Y155098D01*
X199946Y155398D01*
X199871Y155685D01*
X199784Y155960D01*
X199684Y156185D01*
X199559Y156385D01*
X199546Y156398D01*
X199534Y156423D01*
X199496Y156473D01*
X199446Y156535D01*
X199371Y156598D01*
X199296Y156685D01*
X199209Y156773D01*
X199109Y156860D01*
X198871Y157022D01*
X198584Y157172D01*
X198434Y157235D01*
X198259Y157285D01*
X198097Y157310D01*
X197909Y157322D01*
D02*
G37*
G36*
X349146Y140069D02*
X349058D01*
X348983Y140057D01*
X348908Y140044D01*
X348808Y140032D01*
X348596Y139969D01*
X348346Y139882D01*
X348208Y139819D01*
X348071Y139744D01*
X347946Y139657D01*
X347808Y139544D01*
X347683Y139432D01*
X347558Y139295D01*
X347546Y139282D01*
X347533Y139257D01*
X347496Y139207D01*
X347458Y139145D01*
X347408Y139070D01*
X347358Y138957D01*
X347308Y138845D01*
X347246Y138695D01*
X347183Y138545D01*
X347133Y138357D01*
X347084Y138157D01*
X347034Y137945D01*
X346996Y137695D01*
X346959Y137445D01*
X346946Y137158D01*
X346934Y136858D01*
Y136845D01*
Y136783D01*
Y136708D01*
X346946Y136595D01*
X346959Y136458D01*
X346971Y136308D01*
X346996Y136145D01*
X347021Y135958D01*
X347096Y135570D01*
X347221Y135171D01*
X347296Y134983D01*
X347383Y134796D01*
X347496Y134621D01*
X347608Y134458D01*
X347621Y134446D01*
X347633Y134421D01*
X347683Y134383D01*
X347733Y134333D01*
X347796Y134271D01*
X347871Y134208D01*
X348058Y134071D01*
X348296Y133921D01*
X348571Y133796D01*
X348721Y133746D01*
X348871Y133708D01*
X349033Y133684D01*
X349208Y133671D01*
X349295D01*
X349370Y133684D01*
X349445Y133696D01*
X349545Y133708D01*
X349758Y133771D01*
X350008Y133858D01*
X350145Y133921D01*
X350270Y133983D01*
X350408Y134071D01*
X350545Y134171D01*
X350670Y134283D01*
X350795Y134421D01*
X350808Y134433D01*
X350820Y134458D01*
X350858Y134496D01*
X350895Y134571D01*
X350945Y134646D01*
X351007Y134746D01*
X351070Y134858D01*
X351133Y134996D01*
X351183Y135146D01*
X351245Y135321D01*
X351307Y135520D01*
X351357Y135721D01*
X351395Y135945D01*
X351432Y136195D01*
X351445Y136458D01*
X351457Y136745D01*
Y136770D01*
Y136820D01*
Y136908D01*
X351445Y137020D01*
X351432Y137170D01*
X351420Y137332D01*
X351407Y137507D01*
X351370Y137707D01*
X351295Y138107D01*
X351170Y138532D01*
X351095Y138732D01*
X351007Y138920D01*
X350908Y139095D01*
X350783Y139257D01*
X350770Y139270D01*
X350758Y139295D01*
X350720Y139332D01*
X350670Y139382D01*
X350595Y139445D01*
X350520Y139520D01*
X350333Y139669D01*
X350095Y139807D01*
X349808Y139944D01*
X349658Y139994D01*
X349495Y140032D01*
X349320Y140057D01*
X349146Y140069D01*
D02*
G37*
G36*
X296334D02*
X296246D01*
X296171Y140057D01*
X296097Y140044D01*
X295997Y140032D01*
X295784Y139969D01*
X295534Y139882D01*
X295397Y139819D01*
X295259Y139744D01*
X295134Y139657D01*
X294997Y139544D01*
X294872Y139432D01*
X294747Y139295D01*
X294734Y139282D01*
X294722Y139257D01*
X294684Y139207D01*
X294647Y139145D01*
X294597Y139070D01*
X294547Y138957D01*
X294497Y138845D01*
X294435Y138695D01*
X294372Y138545D01*
X294322Y138357D01*
X294272Y138157D01*
X294222Y137945D01*
X294185Y137695D01*
X294147Y137445D01*
X294135Y137158D01*
X294122Y136858D01*
Y136845D01*
Y136783D01*
Y136708D01*
X294135Y136595D01*
X294147Y136458D01*
X294160Y136308D01*
X294185Y136145D01*
X294209Y135958D01*
X294284Y135570D01*
X294410Y135171D01*
X294485Y134983D01*
X294572Y134796D01*
X294684Y134621D01*
X294797Y134458D01*
X294809Y134446D01*
X294822Y134421D01*
X294872Y134383D01*
X294922Y134333D01*
X294984Y134271D01*
X295059Y134208D01*
X295247Y134071D01*
X295484Y133921D01*
X295759Y133796D01*
X295909Y133746D01*
X296059Y133708D01*
X296222Y133684D01*
X296397Y133671D01*
X296484D01*
X296559Y133684D01*
X296634Y133696D01*
X296734Y133708D01*
X296946Y133771D01*
X297196Y133858D01*
X297334Y133921D01*
X297459Y133983D01*
X297596Y134071D01*
X297734Y134171D01*
X297859Y134283D01*
X297984Y134421D01*
X297996Y134433D01*
X298009Y134458D01*
X298046Y134496D01*
X298084Y134571D01*
X298134Y134646D01*
X298196Y134746D01*
X298258Y134858D01*
X298321Y134996D01*
X298371Y135146D01*
X298433Y135321D01*
X298496Y135520D01*
X298546Y135721D01*
X298583Y135945D01*
X298621Y136195D01*
X298633Y136458D01*
X298646Y136745D01*
Y136770D01*
Y136820D01*
Y136908D01*
X298633Y137020D01*
X298621Y137170D01*
X298608Y137332D01*
X298596Y137507D01*
X298558Y137707D01*
X298484Y138107D01*
X298358Y138532D01*
X298284Y138732D01*
X298196Y138920D01*
X298096Y139095D01*
X297971Y139257D01*
X297959Y139270D01*
X297946Y139295D01*
X297909Y139332D01*
X297859Y139382D01*
X297784Y139445D01*
X297709Y139520D01*
X297521Y139669D01*
X297284Y139807D01*
X296996Y139944D01*
X296846Y139994D01*
X296684Y140032D01*
X296509Y140057D01*
X296334Y140069D01*
D02*
G37*
G36*
X404206Y136895D02*
X404194D01*
X404169Y136883D01*
X404119Y136870D01*
X404056Y136845D01*
X403981Y136808D01*
X403881Y136783D01*
X403756Y136745D01*
X403632Y136708D01*
X403469Y136670D01*
X403294Y136620D01*
X403107Y136583D01*
X402894Y136533D01*
X402669Y136483D01*
X402432Y136445D01*
X402169Y136395D01*
X401882Y136358D01*
X401844D01*
X401795Y136345D01*
X401744Y136333D01*
X401582Y136308D01*
X401395Y136270D01*
X401195Y136233D01*
X400995Y136183D01*
X400807Y136133D01*
X400645Y136070D01*
X400632Y136058D01*
X400582Y136045D01*
X400520Y136008D01*
X400445Y135958D01*
X400345Y135883D01*
X400257Y135808D01*
X400170Y135721D01*
X400082Y135608D01*
X400070Y135596D01*
X400057Y135558D01*
X400020Y135496D01*
X399995Y135408D01*
X399958Y135308D01*
X399920Y135196D01*
X399907Y135071D01*
X399895Y134933D01*
Y134908D01*
X399907Y134846D01*
X399920Y134733D01*
X399945Y134608D01*
X399995Y134458D01*
X400070Y134296D01*
X400182Y134146D01*
X400320Y133996D01*
X400345Y133983D01*
X400395Y133933D01*
X400495Y133883D01*
X400632Y133808D01*
X400807Y133746D01*
X401032Y133684D01*
X401282Y133633D01*
X401570Y133621D01*
X401707D01*
X401782Y133633D01*
X401870Y133646D01*
X402057Y133671D01*
X402294Y133708D01*
X402532Y133771D01*
X402782Y133858D01*
X403032Y133971D01*
X403044D01*
X403057Y133983D01*
X403132Y134033D01*
X403244Y134121D01*
X403394Y134233D01*
X403544Y134371D01*
X403694Y134546D01*
X403844Y134733D01*
X403969Y134958D01*
X403981Y134983D01*
X404006Y135046D01*
X404044Y135158D01*
X404081Y135308D01*
X404119Y135508D01*
X404156Y135758D01*
X404181Y136045D01*
X404194Y136370D01*
X404206Y136895D01*
D02*
G37*
G36*
X334024Y143031D02*
Y143019D01*
X334012Y142981D01*
X333999Y142919D01*
X333987Y142844D01*
X333962Y142731D01*
X333937Y142619D01*
X333899Y142481D01*
X333862Y142331D01*
X333824Y142169D01*
X333774Y141994D01*
X333662Y141619D01*
X333537Y141219D01*
X333400Y140807D01*
X332125Y137420D01*
X336061D01*
X334849Y140619D01*
Y140632D01*
X334824Y140682D01*
X334799Y140757D01*
X334762Y140869D01*
X334712Y140982D01*
X334662Y141132D01*
X334599Y141294D01*
X334537Y141469D01*
X334412Y141856D01*
X334274Y142256D01*
X334137Y142656D01*
X334024Y143031D01*
D02*
G37*
G36*
X220016Y142956D02*
X216129D01*
Y139145D01*
X219579D01*
X219666Y139157D01*
X219766D01*
X220004Y139170D01*
X220266Y139195D01*
X220541Y139232D01*
X220803Y139282D01*
X221041Y139357D01*
X221053D01*
X221066Y139369D01*
X221141Y139395D01*
X221241Y139445D01*
X221378Y139520D01*
X221516Y139620D01*
X221666Y139732D01*
X221816Y139882D01*
X221941Y140044D01*
X221953Y140069D01*
X221991Y140132D01*
X222041Y140219D01*
X222103Y140357D01*
X222153Y140507D01*
X222203Y140682D01*
X222241Y140882D01*
X222253Y141082D01*
Y141094D01*
Y141119D01*
Y141157D01*
X222241Y141219D01*
Y141281D01*
X222228Y141369D01*
X222178Y141557D01*
X222103Y141769D01*
X222003Y141994D01*
X221853Y142206D01*
X221753Y142319D01*
X221653Y142419D01*
X221641Y142431D01*
X221628Y142444D01*
X221591Y142469D01*
X221541Y142506D01*
X221478Y142544D01*
X221391Y142594D01*
X221303Y142644D01*
X221191Y142694D01*
X221066Y142744D01*
X220928Y142781D01*
X220778Y142831D01*
X220616Y142869D01*
X220428Y142906D01*
X220229Y142931D01*
X220016Y142956D01*
D02*
G37*
G36*
X466778Y140082D02*
X466678D01*
X466615Y140069D01*
X466528Y140057D01*
X466440Y140044D01*
X466203Y139994D01*
X465953Y139919D01*
X465666Y139807D01*
X465528Y139732D01*
X465391Y139644D01*
X465253Y139532D01*
X465128Y139419D01*
X465116Y139407D01*
X465103Y139395D01*
X465066Y139357D01*
X465028Y139307D01*
X464978Y139232D01*
X464916Y139157D01*
X464853Y139070D01*
X464791Y138957D01*
X464728Y138845D01*
X464666Y138707D01*
X464541Y138407D01*
X464454Y138070D01*
X464428Y137882D01*
X464403Y137683D01*
X469077D01*
Y137695D01*
Y137732D01*
X469065Y137782D01*
X469052Y137857D01*
X469040Y137945D01*
X469027Y138045D01*
X468977Y138270D01*
X468902Y138532D01*
X468815Y138795D01*
X468690Y139045D01*
X468540Y139257D01*
X468527Y139270D01*
X468515Y139295D01*
X468465Y139332D01*
X468415Y139382D01*
X468353Y139445D01*
X468265Y139520D01*
X468165Y139594D01*
X468065Y139669D01*
X467940Y139744D01*
X467803Y139819D01*
X467503Y139957D01*
X467340Y140007D01*
X467165Y140044D01*
X466978Y140069D01*
X466778Y140082D01*
D02*
G37*
G36*
X420165Y140069D02*
X420065D01*
X419990Y140057D01*
X419902Y140044D01*
X419790Y140032D01*
X419552Y139969D01*
X419265Y139869D01*
X419128Y139807D01*
X418978Y139732D01*
X418828Y139644D01*
X418678Y139532D01*
X418540Y139407D01*
X418403Y139270D01*
X418390Y139257D01*
X418378Y139232D01*
X418340Y139182D01*
X418290Y139120D01*
X418240Y139032D01*
X418178Y138932D01*
X418115Y138807D01*
X418053Y138670D01*
X417990Y138507D01*
X417928Y138332D01*
X417865Y138132D01*
X417815Y137920D01*
X417765Y137683D01*
X417728Y137432D01*
X417715Y137158D01*
X417703Y136870D01*
Y136858D01*
Y136795D01*
Y136720D01*
X417715Y136608D01*
X417728Y136470D01*
X417740Y136320D01*
X417765Y136145D01*
X417790Y135970D01*
X417878Y135570D01*
X418003Y135171D01*
X418078Y134983D01*
X418178Y134796D01*
X418278Y134621D01*
X418403Y134458D01*
X418415Y134446D01*
X418440Y134421D01*
X418478Y134383D01*
X418528Y134333D01*
X418603Y134271D01*
X418678Y134208D01*
X418778Y134133D01*
X418890Y134071D01*
X419140Y133921D01*
X419440Y133796D01*
X419602Y133746D01*
X419790Y133708D01*
X419965Y133684D01*
X420165Y133671D01*
X420265D01*
X420340Y133684D01*
X420427Y133696D01*
X420540Y133708D01*
X420777Y133771D01*
X421052Y133871D01*
X421202Y133933D01*
X421352Y134008D01*
X421489Y134096D01*
X421639Y134208D01*
X421777Y134333D01*
X421914Y134471D01*
X421927Y134483D01*
X421939Y134508D01*
X421977Y134558D01*
X422027Y134621D01*
X422077Y134708D01*
X422139Y134808D01*
X422202Y134933D01*
X422277Y135083D01*
X422339Y135233D01*
X422402Y135421D01*
X422464Y135620D01*
X422514Y135845D01*
X422564Y136083D01*
X422602Y136345D01*
X422614Y136620D01*
X422627Y136920D01*
Y136933D01*
Y136983D01*
Y137070D01*
X422614Y137170D01*
X422602Y137308D01*
X422589Y137458D01*
X422564Y137620D01*
X422539Y137795D01*
X422452Y138170D01*
X422402Y138370D01*
X422327Y138570D01*
X422239Y138757D01*
X422152Y138945D01*
X422039Y139107D01*
X421914Y139270D01*
X421902Y139282D01*
X421877Y139307D01*
X421839Y139345D01*
X421789Y139395D01*
X421714Y139457D01*
X421639Y139520D01*
X421539Y139594D01*
X421440Y139669D01*
X421177Y139819D01*
X420877Y139944D01*
X420715Y139994D01*
X420540Y140032D01*
X420352Y140057D01*
X420165Y140069D01*
D02*
G37*
G36*
X379850D02*
X379750D01*
X379675Y140057D01*
X379588Y140044D01*
X379475Y140032D01*
X379238Y139969D01*
X378950Y139869D01*
X378813Y139807D01*
X378663Y139732D01*
X378513Y139644D01*
X378363Y139532D01*
X378226Y139407D01*
X378088Y139270D01*
X378076Y139257D01*
X378063Y139232D01*
X378026Y139182D01*
X377976Y139120D01*
X377926Y139032D01*
X377863Y138932D01*
X377801Y138807D01*
X377738Y138670D01*
X377676Y138507D01*
X377613Y138332D01*
X377551Y138132D01*
X377501Y137920D01*
X377451Y137683D01*
X377413Y137432D01*
X377401Y137158D01*
X377388Y136870D01*
Y136858D01*
Y136795D01*
Y136720D01*
X377401Y136608D01*
X377413Y136470D01*
X377426Y136320D01*
X377451Y136145D01*
X377476Y135970D01*
X377563Y135570D01*
X377688Y135171D01*
X377763Y134983D01*
X377863Y134796D01*
X377963Y134621D01*
X378088Y134458D01*
X378101Y134446D01*
X378126Y134421D01*
X378163Y134383D01*
X378213Y134333D01*
X378288Y134271D01*
X378363Y134208D01*
X378463Y134133D01*
X378575Y134071D01*
X378825Y133921D01*
X379125Y133796D01*
X379288Y133746D01*
X379475Y133708D01*
X379650Y133684D01*
X379850Y133671D01*
X379950D01*
X380025Y133684D01*
X380112Y133696D01*
X380225Y133708D01*
X380462Y133771D01*
X380737Y133871D01*
X380887Y133933D01*
X381037Y134008D01*
X381175Y134096D01*
X381325Y134208D01*
X381462Y134333D01*
X381600Y134471D01*
X381612Y134483D01*
X381625Y134508D01*
X381662Y134558D01*
X381712Y134621D01*
X381762Y134708D01*
X381825Y134808D01*
X381887Y134933D01*
X381962Y135083D01*
X382025Y135233D01*
X382087Y135421D01*
X382150Y135620D01*
X382200Y135845D01*
X382249Y136083D01*
X382287Y136345D01*
X382299Y136620D01*
X382312Y136920D01*
Y136933D01*
Y136983D01*
Y137070D01*
X382299Y137170D01*
X382287Y137308D01*
X382275Y137458D01*
X382249Y137620D01*
X382225Y137795D01*
X382137Y138170D01*
X382087Y138370D01*
X382012Y138570D01*
X381925Y138757D01*
X381837Y138945D01*
X381725Y139107D01*
X381600Y139270D01*
X381587Y139282D01*
X381562Y139307D01*
X381525Y139345D01*
X381475Y139395D01*
X381400Y139457D01*
X381325Y139520D01*
X381225Y139594D01*
X381125Y139669D01*
X380862Y139819D01*
X380562Y139944D01*
X380400Y139994D01*
X380225Y140032D01*
X380038Y140057D01*
X379850Y140069D01*
D02*
G37*
G36*
X314492D02*
X314392D01*
X314317Y140057D01*
X314229Y140044D01*
X314117Y140032D01*
X313880Y139969D01*
X313592Y139869D01*
X313455Y139807D01*
X313305Y139732D01*
X313155Y139644D01*
X313005Y139532D01*
X312867Y139407D01*
X312730Y139270D01*
X312717Y139257D01*
X312705Y139232D01*
X312667Y139182D01*
X312617Y139120D01*
X312567Y139032D01*
X312505Y138932D01*
X312442Y138807D01*
X312380Y138670D01*
X312317Y138507D01*
X312255Y138332D01*
X312192Y138132D01*
X312143Y137920D01*
X312092Y137683D01*
X312055Y137432D01*
X312043Y137158D01*
X312030Y136870D01*
Y136858D01*
Y136795D01*
Y136720D01*
X312043Y136608D01*
X312055Y136470D01*
X312068Y136320D01*
X312092Y136145D01*
X312118Y135970D01*
X312205Y135570D01*
X312330Y135171D01*
X312405Y134983D01*
X312505Y134796D01*
X312605Y134621D01*
X312730Y134458D01*
X312742Y134446D01*
X312767Y134421D01*
X312805Y134383D01*
X312855Y134333D01*
X312930Y134271D01*
X313005Y134208D01*
X313105Y134133D01*
X313217Y134071D01*
X313467Y133921D01*
X313767Y133796D01*
X313930Y133746D01*
X314117Y133708D01*
X314292Y133684D01*
X314492Y133671D01*
X314592D01*
X314667Y133684D01*
X314754Y133696D01*
X314867Y133708D01*
X315104Y133771D01*
X315379Y133871D01*
X315529Y133933D01*
X315679Y134008D01*
X315816Y134096D01*
X315966Y134208D01*
X316104Y134333D01*
X316241Y134471D01*
X316254Y134483D01*
X316266Y134508D01*
X316304Y134558D01*
X316354Y134621D01*
X316404Y134708D01*
X316466Y134808D01*
X316529Y134933D01*
X316604Y135083D01*
X316666Y135233D01*
X316729Y135421D01*
X316791Y135620D01*
X316841Y135845D01*
X316891Y136083D01*
X316929Y136345D01*
X316941Y136620D01*
X316954Y136920D01*
Y136933D01*
Y136983D01*
Y137070D01*
X316941Y137170D01*
X316929Y137308D01*
X316916Y137458D01*
X316891Y137620D01*
X316866Y137795D01*
X316779Y138170D01*
X316729Y138370D01*
X316654Y138570D01*
X316566Y138757D01*
X316479Y138945D01*
X316366Y139107D01*
X316241Y139270D01*
X316229Y139282D01*
X316204Y139307D01*
X316166Y139345D01*
X316116Y139395D01*
X316042Y139457D01*
X315966Y139520D01*
X315867Y139594D01*
X315767Y139669D01*
X315504Y139819D01*
X315204Y139944D01*
X315042Y139994D01*
X314867Y140032D01*
X314679Y140057D01*
X314492Y140069D01*
D02*
G37*
G36*
X284087Y140082D02*
X283987D01*
X283925Y140069D01*
X283837Y140057D01*
X283750Y140044D01*
X283512Y139994D01*
X283262Y139919D01*
X282975Y139807D01*
X282838Y139732D01*
X282700Y139644D01*
X282563Y139532D01*
X282438Y139419D01*
X282425Y139407D01*
X282413Y139395D01*
X282375Y139357D01*
X282338Y139307D01*
X282288Y139232D01*
X282225Y139157D01*
X282163Y139070D01*
X282100Y138957D01*
X282038Y138845D01*
X281975Y138707D01*
X281850Y138407D01*
X281763Y138070D01*
X281738Y137882D01*
X281713Y137683D01*
X286387D01*
Y137695D01*
Y137732D01*
X286374Y137782D01*
X286362Y137857D01*
X286349Y137945D01*
X286337Y138045D01*
X286287Y138270D01*
X286212Y138532D01*
X286124Y138795D01*
X285999Y139045D01*
X285849Y139257D01*
X285837Y139270D01*
X285824Y139295D01*
X285774Y139332D01*
X285724Y139382D01*
X285662Y139445D01*
X285574Y139520D01*
X285474Y139594D01*
X285374Y139669D01*
X285249Y139744D01*
X285112Y139819D01*
X284812Y139957D01*
X284650Y140007D01*
X284475Y140044D01*
X284287Y140069D01*
X284087Y140082D01*
D02*
G37*
G36*
X246484D02*
X246384D01*
X246322Y140069D01*
X246234Y140057D01*
X246147Y140044D01*
X245909Y139994D01*
X245660Y139919D01*
X245372Y139807D01*
X245235Y139732D01*
X245097Y139644D01*
X244960Y139532D01*
X244835Y139419D01*
X244822Y139407D01*
X244810Y139395D01*
X244772Y139357D01*
X244735Y139307D01*
X244685Y139232D01*
X244622Y139157D01*
X244560Y139070D01*
X244497Y138957D01*
X244435Y138845D01*
X244372Y138707D01*
X244247Y138407D01*
X244160Y138070D01*
X244135Y137882D01*
X244110Y137683D01*
X248784D01*
Y137695D01*
Y137732D01*
X248771Y137782D01*
X248759Y137857D01*
X248746Y137945D01*
X248734Y138045D01*
X248684Y138270D01*
X248609Y138532D01*
X248521Y138795D01*
X248396Y139045D01*
X248246Y139257D01*
X248234Y139270D01*
X248221Y139295D01*
X248171Y139332D01*
X248121Y139382D01*
X248059Y139445D01*
X247971Y139520D01*
X247871Y139594D01*
X247771Y139669D01*
X247647Y139744D01*
X247509Y139819D01*
X247209Y139957D01*
X247047Y140007D01*
X246872Y140044D01*
X246684Y140069D01*
X246484Y140082D01*
D02*
G37*
G36*
X229426Y140069D02*
X229326D01*
X229251Y140057D01*
X229164Y140044D01*
X229051Y140032D01*
X228814Y139969D01*
X228526Y139869D01*
X228389Y139807D01*
X228239Y139732D01*
X228089Y139644D01*
X227939Y139532D01*
X227802Y139407D01*
X227664Y139270D01*
X227652Y139257D01*
X227639Y139232D01*
X227602Y139182D01*
X227552Y139120D01*
X227502Y139032D01*
X227439Y138932D01*
X227377Y138807D01*
X227314Y138670D01*
X227252Y138507D01*
X227189Y138332D01*
X227127Y138132D01*
X227077Y137920D01*
X227027Y137683D01*
X226989Y137432D01*
X226977Y137158D01*
X226964Y136870D01*
Y136858D01*
Y136795D01*
Y136720D01*
X226977Y136608D01*
X226989Y136470D01*
X227002Y136320D01*
X227027Y136145D01*
X227052Y135970D01*
X227139Y135570D01*
X227264Y135171D01*
X227339Y134983D01*
X227439Y134796D01*
X227539Y134621D01*
X227664Y134458D01*
X227677Y134446D01*
X227702Y134421D01*
X227739Y134383D01*
X227789Y134333D01*
X227864Y134271D01*
X227939Y134208D01*
X228039Y134133D01*
X228151Y134071D01*
X228401Y133921D01*
X228701Y133796D01*
X228864Y133746D01*
X229051Y133708D01*
X229226Y133684D01*
X229426Y133671D01*
X229526D01*
X229601Y133684D01*
X229689Y133696D01*
X229801Y133708D01*
X230039Y133771D01*
X230313Y133871D01*
X230463Y133933D01*
X230613Y134008D01*
X230751Y134096D01*
X230901Y134208D01*
X231038Y134333D01*
X231176Y134471D01*
X231188Y134483D01*
X231201Y134508D01*
X231238Y134558D01*
X231288Y134621D01*
X231338Y134708D01*
X231401Y134808D01*
X231463Y134933D01*
X231538Y135083D01*
X231601Y135233D01*
X231663Y135421D01*
X231726Y135620D01*
X231775Y135845D01*
X231826Y136083D01*
X231863Y136345D01*
X231875Y136620D01*
X231888Y136920D01*
Y136933D01*
Y136983D01*
Y137070D01*
X231875Y137170D01*
X231863Y137308D01*
X231850Y137458D01*
X231826Y137620D01*
X231800Y137795D01*
X231713Y138170D01*
X231663Y138370D01*
X231588Y138570D01*
X231501Y138757D01*
X231413Y138945D01*
X231301Y139107D01*
X231176Y139270D01*
X231163Y139282D01*
X231138Y139307D01*
X231101Y139345D01*
X231051Y139395D01*
X230976Y139457D01*
X230901Y139520D01*
X230801Y139594D01*
X230701Y139669D01*
X230438Y139819D01*
X230138Y139944D01*
X229976Y139994D01*
X229801Y140032D01*
X229614Y140057D01*
X229426Y140069D01*
D02*
G37*
%LPD*%
D10*
X267536Y59971D02*
G03*
X267536Y59971I-10000J0D01*
G01*
X502536D02*
G03*
X502536Y59971I-10000J0D01*
G01*
X257536Y54971D02*
Y64971D01*
X487536Y59971D02*
X497536D01*
X492536Y54971D02*
Y64971D01*
X522536Y19971D02*
X614536D01*
Y99971D01*
X522536D02*
X614536D01*
X138536D02*
X227536D01*
X138536Y19971D02*
X227536D01*
X138536D02*
Y99971D01*
X522536Y19971D02*
Y39971D01*
Y79971D02*
Y99971D01*
X227536Y19971D02*
Y39971D01*
Y79971D02*
Y99971D01*
D11*
X473536Y414971D02*
G03*
X473536Y414971I-8500J0D01*
G01*
X281536Y447971D02*
G03*
X281536Y447971I-8500J0D01*
G01*
X280536Y414971D02*
G03*
X280536Y414971I-7500J0D01*
G01*
X461536Y455471D02*
G03*
X456036Y449971I0J-5500D01*
G01*
D02*
G03*
X461536Y444471I5500J0D01*
G01*
X474036Y449971D02*
G03*
X468536Y455471I-5500J0D01*
G01*
Y444471D02*
G03*
X474036Y449971I0J5500D01*
G01*
X253036Y409971D02*
G03*
X268036Y394971I15000J0D01*
G01*
Y469971D02*
G03*
X253036Y454971I0J-15000D01*
G01*
X470036Y394971D02*
G03*
X485036Y409971I0J15000D01*
G01*
Y454971D02*
G03*
X470036Y469971I-15000J0D01*
G01*
X438036Y479971D02*
G03*
X448036Y469971I10000J0D01*
G01*
Y394971D02*
G03*
X438036Y384971I0J-10000D01*
G01*
X295036D02*
G03*
X285036Y394971I-10000J0D01*
G01*
Y469971D02*
G03*
X295036Y479971I0J10000D01*
G01*
Y359971D02*
G03*
X310036Y344971I15000J0D01*
G01*
X433036Y344971D02*
G03*
X438036Y349971I0J5000D01*
G01*
X342536Y452971D02*
X355036D01*
X342536D02*
Y486971D01*
X355036D01*
X396036Y452971D02*
X408536D01*
Y486971D01*
X396036D02*
X408536D01*
X448036Y394971D02*
X470036D01*
X485036Y409971D02*
Y454971D01*
X448036Y469971D02*
X470036D01*
X438036Y479971D02*
Y497971D01*
X295036Y479971D02*
Y497971D01*
X268036Y469971D02*
X285036D01*
X253036Y409971D02*
Y454971D01*
X268036Y394971D02*
X285036D01*
X295036Y359971D02*
Y384971D01*
X438036Y349971D02*
Y384971D01*
X310036Y344971D02*
X433036D01*
X295036Y497971D02*
X438036D01*
X461536Y455471D02*
X468536D01*
X461536Y444471D02*
X468536D01*
X692036Y19971D02*
X696536D01*
X692036D02*
Y107971D01*
X696536D01*
X731536D02*
X736036D01*
Y19971D02*
Y107971D01*
X731536Y19971D02*
X736036D01*
X631636Y439971D02*
X687036D01*
X631636Y377971D02*
Y439971D01*
Y377971D02*
X687036D01*
Y439971D01*
X340947Y421089D02*
X340471Y422041D01*
X339519Y422994D01*
X338567Y423470D01*
X336663D01*
X335710Y422994D01*
X334758Y422041D01*
X334282Y421089D01*
X333806Y419661D01*
Y417281D01*
X334282Y415852D01*
X334758Y414900D01*
X335710Y413948D01*
X336663Y413472D01*
X338567D01*
X339519Y413948D01*
X340471Y414900D01*
X340947Y415852D01*
Y417281D01*
X338567D02*
X340947D01*
X343233Y423470D02*
X347041Y418709D01*
Y413472D01*
X350850Y423470D02*
X347041Y418709D01*
X358801Y422041D02*
X357849Y422994D01*
X356420Y423470D01*
X354516D01*
X353088Y422994D01*
X352136Y422041D01*
Y421089D01*
X352612Y420137D01*
X353088Y419661D01*
X354040Y419185D01*
X356897Y418233D01*
X357849Y417757D01*
X358325Y417281D01*
X358801Y416328D01*
Y414900D01*
X357849Y413948D01*
X356420Y413472D01*
X354516D01*
X353088Y413948D01*
X352136Y414900D01*
X361038Y423470D02*
Y413472D01*
Y423470D02*
X367228D01*
X361038Y418709D02*
X364847D01*
X368370Y423470D02*
Y413472D01*
Y423470D02*
X371703D01*
X373131Y422994D01*
X374083Y422041D01*
X374559Y421089D01*
X375035Y419661D01*
Y417281D01*
X374559Y415852D01*
X374083Y414900D01*
X373131Y413948D01*
X371703Y413472D01*
X368370D01*
X377273Y423470D02*
Y413472D01*
Y423470D02*
X381082Y413472D01*
X384890Y423470D02*
X381082Y413472D01*
X384890Y423470D02*
Y413472D01*
X395364D02*
X391556Y423470D01*
X387747Y413472D01*
X389175Y416804D02*
X393936D01*
X397697Y423470D02*
X404362Y413472D01*
Y423470D02*
X397697Y413472D01*
X406600Y423470D02*
Y413472D01*
Y423470D02*
X410885D01*
X412313Y422994D01*
X412789Y422517D01*
X413265Y421565D01*
Y420613D01*
X412789Y419661D01*
X412313Y419185D01*
X410885Y418709D01*
X406600D02*
X410885D01*
X412313Y418233D01*
X412789Y417757D01*
X413265Y416804D01*
Y415376D01*
X412789Y414424D01*
X412313Y413948D01*
X410885Y413472D01*
X406600D01*
X410002Y212500D02*
X420000D01*
X410002D02*
X420000Y216309D01*
X410002Y220117D02*
X420000Y216309D01*
X410002Y220117D02*
X420000D01*
X412383Y223450D02*
X411907D01*
X410954Y223926D01*
X410478Y224402D01*
X410002Y225354D01*
Y227259D01*
X410478Y228211D01*
X410954Y228687D01*
X411907Y229163D01*
X412859D01*
X413811Y228687D01*
X415239Y227735D01*
X420000Y222974D01*
Y229639D01*
X330002Y212500D02*
X340000D01*
X330002D02*
X340000Y216309D01*
X330002Y220117D02*
X340000Y216309D01*
X330002Y220117D02*
X340000D01*
X331907Y222974D02*
X331430Y223926D01*
X330002Y225354D01*
X340000D01*
D12*
X488344Y326841D02*
G03*
X488344Y326841I-11709J0D01*
G01*
X539145Y173171D02*
G03*
X539145Y173171I-11709J0D01*
G01*
X566136Y326871D02*
Y340171D01*
X540136D02*
X566136D01*
X183936Y159871D02*
Y173171D01*
Y159871D02*
X209936D01*
X183936Y173171D02*
Y186471D01*
X209936D01*
X463936Y314141D02*
Y339541D01*
X489336Y314141D02*
Y339541D01*
X465206D02*
X488066D01*
Y314141D02*
Y339541D01*
X465206Y314141D02*
X488066D01*
X465206D02*
Y338271D01*
X466476D02*
X486796D01*
X466476Y315411D02*
X486796D01*
X463936Y321761D02*
X470286Y314141D01*
X467746D02*
X470286D01*
X463936Y319221D02*
X467746Y314141D01*
X484256Y314141D02*
X489336Y317951D01*
X481716Y314141D02*
X489336Y320491D01*
X485526Y339541D02*
X489336Y334461D01*
X482986Y339541D02*
X489336Y331921D01*
X463936Y335731D02*
X469016Y339541D01*
X463936Y333191D02*
X471556Y339541D01*
X514736Y179521D02*
X522356Y185871D01*
X514736Y182061D02*
X519816Y185871D01*
X533786Y185871D02*
X540136Y178251D01*
X536326Y185871D02*
X540136Y180791D01*
X532516Y160471D02*
X540136Y166821D01*
X535056Y160471D02*
X540136Y164281D01*
X514736Y165551D02*
X518546Y160471D01*
X521086D01*
X514736Y168091D02*
X521086Y160471D01*
X517276Y161741D02*
X537596D01*
X517276Y184601D02*
X537596D01*
X516006Y160471D02*
Y184601D01*
Y160471D02*
X538866D01*
Y185871D01*
X516006D02*
X538866D01*
X540136Y160471D02*
Y185871D01*
X514736Y160471D02*
Y185871D01*
X209936Y186471D02*
X566136D01*
Y159871D02*
Y186471D01*
X209936Y159871D02*
X566136D01*
X209936D02*
Y186471D01*
X540136Y313571D02*
Y340171D01*
X183936D02*
X540136D01*
X183936Y313571D02*
Y340171D01*
Y313571D02*
X540136D01*
X566136D01*
Y326871D01*
X82636Y406671D02*
Y458671D01*
X56036D02*
X82636D01*
X56036Y406671D02*
Y458671D01*
Y406671D02*
X82636D01*
X5000Y416171D02*
X56036D01*
X5000Y423771D02*
X56036D01*
X82636Y416171D02*
X85936D01*
X82636Y423771D02*
X85936D01*
X56036Y432671D02*
X82636D01*
X5000Y441571D02*
X56036D01*
X5000Y449171D02*
X56036D01*
X82636Y441571D02*
X86606D01*
X82636Y449171D02*
X86606D01*
X425936Y289071D02*
X466136D01*
X425936Y211871D02*
Y289071D01*
Y211871D02*
X466136D01*
Y289071D01*
X449036Y284071D02*
Y289071D01*
Y284071D02*
X461136D01*
Y216871D02*
Y284071D01*
X449036Y216871D02*
X461136D01*
X449036Y211871D02*
Y216871D01*
X301036Y284071D02*
Y289071D01*
X288936Y284071D02*
X301036D01*
X288936Y216871D02*
Y284071D01*
Y216871D02*
X301036D01*
Y211871D02*
Y216871D01*
X283936Y211871D02*
Y289071D01*
X324136D01*
Y211871D02*
Y289071D01*
X283936Y211871D02*
X324136D01*
D13*
X680000Y60000D02*
X687500D01*
X680000D02*
X687500Y70000D01*
Y40000D02*
Y70000D01*
X330071Y238441D02*
X335071Y243441D01*
Y233441D02*
Y243441D01*
X330071Y238441D02*
X335071Y233441D01*
X415000Y267500D02*
X420000Y262500D01*
X415000Y257500D02*
Y267500D01*
Y257500D02*
X420000Y262500D01*
X457500Y50000D02*
X465000D01*
Y70000D01*
X457500D02*
X465000D01*
X282500Y40000D02*
Y80000D01*
Y40000D02*
X457500D01*
Y80000D01*
X282500D02*
X457500D01*
X676502Y86692D02*
Y82693D01*
X678501Y80694D01*
X686499D01*
X688498Y82693D01*
Y86692D01*
X686499Y88691D01*
X678501D01*
X676502Y86692D01*
X688498Y92690D02*
X676502D01*
X688498Y100687D01*
X676502D01*
M02*
