G04 #@! TF.GenerationSoftware,KiCad,Pcbnew,(5.1.6)-1*
G04 #@! TF.CreationDate,2020-08-01T00:51:36+09:00*
G04 #@! TF.ProjectId,MiniRoverShield,4d696e69-526f-4766-9572-536869656c64,rev?*
G04 #@! TF.SameCoordinates,Original*
G04 #@! TF.FileFunction,Legend,Top*
G04 #@! TF.FilePolarity,Positive*
%FSLAX46Y46*%
G04 Gerber Fmt 4.6, Leading zero omitted, Abs format (unit mm)*
G04 Created by KiCad (PCBNEW (5.1.6)-1) date 2020-08-01 00:51:36*
%MOMM*%
%LPD*%
G01*
G04 APERTURE LIST*
%ADD10C,0.400000*%
%ADD11C,0.200000*%
%ADD12C,0.150000*%
%ADD13C,0.300000*%
%ADD14C,0.500000*%
%ADD15C,0.120000*%
%ADD16C,0.100000*%
%ADD17O,2.000000X1.700000*%
%ADD18R,2.000000X1.700000*%
%ADD19R,1.700000X1.700000*%
%ADD20O,1.700000X1.700000*%
%ADD21C,0.600000*%
%ADD22C,2.000000*%
%ADD23C,1.200000*%
%ADD24O,2.800000X3.500000*%
%ADD25O,3.000000X2.000000*%
%ADD26O,2.200000X1.300000*%
G04 APERTURE END LIST*
D10*
X74669047Y-90634761D02*
X73716666Y-90634761D01*
X73716666Y-88634761D01*
X75335714Y-90634761D02*
X75335714Y-89301428D01*
X75335714Y-88634761D02*
X75240476Y-88730000D01*
X75335714Y-88825238D01*
X75430952Y-88730000D01*
X75335714Y-88634761D01*
X75335714Y-88825238D01*
X76288095Y-89872857D02*
X77811904Y-89872857D01*
X78764285Y-90634761D02*
X78764285Y-89301428D01*
X78764285Y-88634761D02*
X78669047Y-88730000D01*
X78764285Y-88825238D01*
X78859523Y-88730000D01*
X78764285Y-88634761D01*
X78764285Y-88825238D01*
X80002380Y-90634761D02*
X79811904Y-90539523D01*
X79716666Y-90444285D01*
X79621428Y-90253809D01*
X79621428Y-89682380D01*
X79716666Y-89491904D01*
X79811904Y-89396666D01*
X80002380Y-89301428D01*
X80288095Y-89301428D01*
X80478571Y-89396666D01*
X80573809Y-89491904D01*
X80669047Y-89682380D01*
X80669047Y-90253809D01*
X80573809Y-90444285D01*
X80478571Y-90539523D01*
X80288095Y-90634761D01*
X80002380Y-90634761D01*
X81526190Y-89301428D02*
X81526190Y-90634761D01*
X81526190Y-89491904D02*
X81621428Y-89396666D01*
X81811904Y-89301428D01*
X82097619Y-89301428D01*
X82288095Y-89396666D01*
X82383333Y-89587142D01*
X82383333Y-90634761D01*
X70811904Y-94034761D02*
X69669047Y-94034761D01*
X70240476Y-94034761D02*
X70240476Y-92034761D01*
X70050000Y-92320476D01*
X69859523Y-92510952D01*
X69669047Y-92606190D01*
X72050000Y-92034761D02*
X72240476Y-92034761D01*
X72430952Y-92130000D01*
X72526190Y-92225238D01*
X72621428Y-92415714D01*
X72716666Y-92796666D01*
X72716666Y-93272857D01*
X72621428Y-93653809D01*
X72526190Y-93844285D01*
X72430952Y-93939523D01*
X72240476Y-94034761D01*
X72050000Y-94034761D01*
X71859523Y-93939523D01*
X71764285Y-93844285D01*
X71669047Y-93653809D01*
X71573809Y-93272857D01*
X71573809Y-92796666D01*
X71669047Y-92415714D01*
X71764285Y-92225238D01*
X71859523Y-92130000D01*
X72050000Y-92034761D01*
X74430952Y-92701428D02*
X74430952Y-94034761D01*
X73954761Y-91939523D02*
X73478571Y-93368095D01*
X74716666Y-93368095D01*
X76335714Y-92701428D02*
X76335714Y-94034761D01*
X75859523Y-91939523D02*
X75383333Y-93368095D01*
X76621428Y-93368095D01*
X77764285Y-92034761D02*
X77954761Y-92034761D01*
X78145238Y-92130000D01*
X78240476Y-92225238D01*
X78335714Y-92415714D01*
X78430952Y-92796666D01*
X78430952Y-93272857D01*
X78335714Y-93653809D01*
X78240476Y-93844285D01*
X78145238Y-93939523D01*
X77954761Y-94034761D01*
X77764285Y-94034761D01*
X77573809Y-93939523D01*
X77478571Y-93844285D01*
X77383333Y-93653809D01*
X77288095Y-93272857D01*
X77288095Y-92796666D01*
X77383333Y-92415714D01*
X77478571Y-92225238D01*
X77573809Y-92130000D01*
X77764285Y-92034761D01*
X80621428Y-92034761D02*
X81859523Y-92034761D01*
X81192857Y-92796666D01*
X81478571Y-92796666D01*
X81669047Y-92891904D01*
X81764285Y-92987142D01*
X81859523Y-93177619D01*
X81859523Y-93653809D01*
X81764285Y-93844285D01*
X81669047Y-93939523D01*
X81478571Y-94034761D01*
X80907142Y-94034761D01*
X80716666Y-93939523D01*
X80621428Y-93844285D01*
X82716666Y-93844285D02*
X82811904Y-93939523D01*
X82716666Y-94034761D01*
X82621428Y-93939523D01*
X82716666Y-93844285D01*
X82716666Y-94034761D01*
X83478571Y-92034761D02*
X84811904Y-92034761D01*
X83954761Y-94034761D01*
X85288095Y-92034761D02*
X85954761Y-94034761D01*
X86621428Y-92034761D01*
D11*
X42178571Y-92123142D02*
X42235714Y-92066000D01*
X42350000Y-92008857D01*
X42635714Y-92008857D01*
X42750000Y-92066000D01*
X42807142Y-92123142D01*
X42864285Y-92237428D01*
X42864285Y-92351714D01*
X42807142Y-92523142D01*
X42121428Y-93208857D01*
X42864285Y-93208857D01*
X43607142Y-92008857D02*
X43721428Y-92008857D01*
X43835714Y-92066000D01*
X43892857Y-92123142D01*
X43950000Y-92237428D01*
X44007142Y-92466000D01*
X44007142Y-92751714D01*
X43950000Y-92980285D01*
X43892857Y-93094571D01*
X43835714Y-93151714D01*
X43721428Y-93208857D01*
X43607142Y-93208857D01*
X43492857Y-93151714D01*
X43435714Y-93094571D01*
X43378571Y-92980285D01*
X43321428Y-92751714D01*
X43321428Y-92466000D01*
X43378571Y-92237428D01*
X43435714Y-92123142D01*
X43492857Y-92066000D01*
X43607142Y-92008857D01*
X44464285Y-92123142D02*
X44521428Y-92066000D01*
X44635714Y-92008857D01*
X44921428Y-92008857D01*
X45035714Y-92066000D01*
X45092857Y-92123142D01*
X45150000Y-92237428D01*
X45150000Y-92351714D01*
X45092857Y-92523142D01*
X44407142Y-93208857D01*
X45150000Y-93208857D01*
X45892857Y-92008857D02*
X46007142Y-92008857D01*
X46121428Y-92066000D01*
X46178571Y-92123142D01*
X46235714Y-92237428D01*
X46292857Y-92466000D01*
X46292857Y-92751714D01*
X46235714Y-92980285D01*
X46178571Y-93094571D01*
X46121428Y-93151714D01*
X46007142Y-93208857D01*
X45892857Y-93208857D01*
X45778571Y-93151714D01*
X45721428Y-93094571D01*
X45664285Y-92980285D01*
X45607142Y-92751714D01*
X45607142Y-92466000D01*
X45664285Y-92237428D01*
X45721428Y-92123142D01*
X45778571Y-92066000D01*
X45892857Y-92008857D01*
X46807142Y-93094571D02*
X46864285Y-93151714D01*
X46807142Y-93208857D01*
X46750000Y-93151714D01*
X46807142Y-93094571D01*
X46807142Y-93208857D01*
X47607142Y-92008857D02*
X47721428Y-92008857D01*
X47835714Y-92066000D01*
X47892857Y-92123142D01*
X47950000Y-92237428D01*
X48007142Y-92466000D01*
X48007142Y-92751714D01*
X47950000Y-92980285D01*
X47892857Y-93094571D01*
X47835714Y-93151714D01*
X47721428Y-93208857D01*
X47607142Y-93208857D01*
X47492857Y-93151714D01*
X47435714Y-93094571D01*
X47378571Y-92980285D01*
X47321428Y-92751714D01*
X47321428Y-92466000D01*
X47378571Y-92237428D01*
X47435714Y-92123142D01*
X47492857Y-92066000D01*
X47607142Y-92008857D01*
X48692857Y-92523142D02*
X48578571Y-92466000D01*
X48521428Y-92408857D01*
X48464285Y-92294571D01*
X48464285Y-92237428D01*
X48521428Y-92123142D01*
X48578571Y-92066000D01*
X48692857Y-92008857D01*
X48921428Y-92008857D01*
X49035714Y-92066000D01*
X49092857Y-92123142D01*
X49150000Y-92237428D01*
X49150000Y-92294571D01*
X49092857Y-92408857D01*
X49035714Y-92466000D01*
X48921428Y-92523142D01*
X48692857Y-92523142D01*
X48578571Y-92580285D01*
X48521428Y-92637428D01*
X48464285Y-92751714D01*
X48464285Y-92980285D01*
X48521428Y-93094571D01*
X48578571Y-93151714D01*
X48692857Y-93208857D01*
X48921428Y-93208857D01*
X49035714Y-93151714D01*
X49092857Y-93094571D01*
X49150000Y-92980285D01*
X49150000Y-92751714D01*
X49092857Y-92637428D01*
X49035714Y-92580285D01*
X48921428Y-92523142D01*
X49664285Y-93094571D02*
X49721428Y-93151714D01*
X49664285Y-93208857D01*
X49607142Y-93151714D01*
X49664285Y-93094571D01*
X49664285Y-93208857D01*
X50464285Y-92008857D02*
X50578571Y-92008857D01*
X50692857Y-92066000D01*
X50750000Y-92123142D01*
X50807142Y-92237428D01*
X50864285Y-92466000D01*
X50864285Y-92751714D01*
X50807142Y-92980285D01*
X50750000Y-93094571D01*
X50692857Y-93151714D01*
X50578571Y-93208857D01*
X50464285Y-93208857D01*
X50350000Y-93151714D01*
X50292857Y-93094571D01*
X50235714Y-92980285D01*
X50178571Y-92751714D01*
X50178571Y-92466000D01*
X50235714Y-92237428D01*
X50292857Y-92123142D01*
X50350000Y-92066000D01*
X50464285Y-92008857D01*
X52007142Y-93208857D02*
X51321428Y-93208857D01*
X51664285Y-93208857D02*
X51664285Y-92008857D01*
X51550000Y-92180285D01*
X51435714Y-92294571D01*
X51321428Y-92351714D01*
X42978571Y-94637428D02*
X42921428Y-94580285D01*
X42807142Y-94523142D01*
X42692857Y-94523142D01*
X42578571Y-94580285D01*
X42521428Y-94637428D01*
X42464285Y-94751714D01*
X42464285Y-94866000D01*
X42521428Y-94980285D01*
X42578571Y-95037428D01*
X42692857Y-95094571D01*
X42807142Y-95094571D01*
X42921428Y-95037428D01*
X42978571Y-94980285D01*
X42978571Y-94523142D02*
X42978571Y-94980285D01*
X43035714Y-95037428D01*
X43092857Y-95037428D01*
X43207142Y-94980285D01*
X43264285Y-94866000D01*
X43264285Y-94580285D01*
X43150000Y-94408857D01*
X42978571Y-94294571D01*
X42750000Y-94237428D01*
X42521428Y-94294571D01*
X42350000Y-94408857D01*
X42235714Y-94580285D01*
X42178571Y-94808857D01*
X42235714Y-95037428D01*
X42350000Y-95208857D01*
X42521428Y-95323142D01*
X42750000Y-95380285D01*
X42978571Y-95323142D01*
X43150000Y-95208857D01*
X43778571Y-94408857D02*
X43778571Y-95208857D01*
X43778571Y-94523142D02*
X43835714Y-94466000D01*
X43950000Y-94408857D01*
X44121428Y-94408857D01*
X44235714Y-94466000D01*
X44292857Y-94580285D01*
X44292857Y-95208857D01*
X44578571Y-95323142D02*
X45492857Y-95323142D01*
X45664285Y-94408857D02*
X45950000Y-95208857D01*
X46235714Y-94408857D02*
X45950000Y-95208857D01*
X45835714Y-95494571D01*
X45778571Y-95551714D01*
X45664285Y-95608857D01*
X46864285Y-95208857D02*
X46750000Y-95151714D01*
X46692857Y-95094571D01*
X46635714Y-94980285D01*
X46635714Y-94637428D01*
X46692857Y-94523142D01*
X46750000Y-94466000D01*
X46864285Y-94408857D01*
X47035714Y-94408857D01*
X47150000Y-94466000D01*
X47207142Y-94523142D01*
X47264285Y-94637428D01*
X47264285Y-94980285D01*
X47207142Y-95094571D01*
X47150000Y-95151714D01*
X47035714Y-95208857D01*
X46864285Y-95208857D01*
X47721428Y-95151714D02*
X47835714Y-95208857D01*
X48064285Y-95208857D01*
X48178571Y-95151714D01*
X48235714Y-95037428D01*
X48235714Y-94980285D01*
X48178571Y-94866000D01*
X48064285Y-94808857D01*
X47892857Y-94808857D01*
X47778571Y-94751714D01*
X47721428Y-94637428D01*
X47721428Y-94580285D01*
X47778571Y-94466000D01*
X47892857Y-94408857D01*
X48064285Y-94408857D01*
X48178571Y-94466000D01*
X48750000Y-95208857D02*
X48750000Y-94408857D01*
X48750000Y-94008857D02*
X48692857Y-94066000D01*
X48750000Y-94123142D01*
X48807142Y-94066000D01*
X48750000Y-94008857D01*
X48750000Y-94123142D01*
X49321428Y-95208857D02*
X49321428Y-94008857D01*
X49835714Y-95208857D02*
X49835714Y-94580285D01*
X49778571Y-94466000D01*
X49664285Y-94408857D01*
X49492857Y-94408857D01*
X49378571Y-94466000D01*
X49321428Y-94523142D01*
X50407142Y-95208857D02*
X50407142Y-94408857D01*
X50407142Y-94008857D02*
X50350000Y-94066000D01*
X50407142Y-94123142D01*
X50464285Y-94066000D01*
X50407142Y-94008857D01*
X50407142Y-94123142D01*
X50921428Y-95151714D02*
X51035714Y-95208857D01*
X51264285Y-95208857D01*
X51378571Y-95151714D01*
X51435714Y-95037428D01*
X51435714Y-94980285D01*
X51378571Y-94866000D01*
X51264285Y-94808857D01*
X51092857Y-94808857D01*
X50978571Y-94751714D01*
X50921428Y-94637428D01*
X50921428Y-94580285D01*
X50978571Y-94466000D01*
X51092857Y-94408857D01*
X51264285Y-94408857D01*
X51378571Y-94466000D01*
X52464285Y-95208857D02*
X52464285Y-94580285D01*
X52407142Y-94466000D01*
X52292857Y-94408857D01*
X52064285Y-94408857D01*
X51950000Y-94466000D01*
X52464285Y-95151714D02*
X52350000Y-95208857D01*
X52064285Y-95208857D01*
X51950000Y-95151714D01*
X51892857Y-95037428D01*
X51892857Y-94923142D01*
X51950000Y-94808857D01*
X52064285Y-94751714D01*
X52350000Y-94751714D01*
X52464285Y-94694571D01*
X42235714Y-97208857D02*
X42235714Y-96008857D01*
X42635714Y-96866000D01*
X43035714Y-96008857D01*
X43035714Y-97208857D01*
X43607142Y-97208857D02*
X43607142Y-96408857D01*
X43607142Y-96008857D02*
X43550000Y-96066000D01*
X43607142Y-96123142D01*
X43664285Y-96066000D01*
X43607142Y-96008857D01*
X43607142Y-96123142D01*
X44178571Y-96408857D02*
X44178571Y-97208857D01*
X44178571Y-96523142D02*
X44235714Y-96466000D01*
X44350000Y-96408857D01*
X44521428Y-96408857D01*
X44635714Y-96466000D01*
X44692857Y-96580285D01*
X44692857Y-97208857D01*
X45264285Y-97208857D02*
X45264285Y-96408857D01*
X45264285Y-96008857D02*
X45207142Y-96066000D01*
X45264285Y-96123142D01*
X45321428Y-96066000D01*
X45264285Y-96008857D01*
X45264285Y-96123142D01*
X46521428Y-97208857D02*
X46121428Y-96637428D01*
X45835714Y-97208857D02*
X45835714Y-96008857D01*
X46292857Y-96008857D01*
X46407142Y-96066000D01*
X46464285Y-96123142D01*
X46521428Y-96237428D01*
X46521428Y-96408857D01*
X46464285Y-96523142D01*
X46407142Y-96580285D01*
X46292857Y-96637428D01*
X45835714Y-96637428D01*
X47207142Y-97208857D02*
X47092857Y-97151714D01*
X47035714Y-97094571D01*
X46978571Y-96980285D01*
X46978571Y-96637428D01*
X47035714Y-96523142D01*
X47092857Y-96466000D01*
X47207142Y-96408857D01*
X47378571Y-96408857D01*
X47492857Y-96466000D01*
X47550000Y-96523142D01*
X47607142Y-96637428D01*
X47607142Y-96980285D01*
X47550000Y-97094571D01*
X47492857Y-97151714D01*
X47378571Y-97208857D01*
X47207142Y-97208857D01*
X48007142Y-96408857D02*
X48292857Y-97208857D01*
X48578571Y-96408857D01*
X49492857Y-97151714D02*
X49378571Y-97208857D01*
X49150000Y-97208857D01*
X49035714Y-97151714D01*
X48978571Y-97037428D01*
X48978571Y-96580285D01*
X49035714Y-96466000D01*
X49150000Y-96408857D01*
X49378571Y-96408857D01*
X49492857Y-96466000D01*
X49550000Y-96580285D01*
X49550000Y-96694571D01*
X48978571Y-96808857D01*
X50064285Y-97208857D02*
X50064285Y-96408857D01*
X50064285Y-96637428D02*
X50121428Y-96523142D01*
X50178571Y-96466000D01*
X50292857Y-96408857D01*
X50407142Y-96408857D01*
X50750000Y-97151714D02*
X50921428Y-97208857D01*
X51207142Y-97208857D01*
X51321428Y-97151714D01*
X51378571Y-97094571D01*
X51435714Y-96980285D01*
X51435714Y-96866000D01*
X51378571Y-96751714D01*
X51321428Y-96694571D01*
X51207142Y-96637428D01*
X50978571Y-96580285D01*
X50864285Y-96523142D01*
X50807142Y-96466000D01*
X50750000Y-96351714D01*
X50750000Y-96237428D01*
X50807142Y-96123142D01*
X50864285Y-96066000D01*
X50978571Y-96008857D01*
X51264285Y-96008857D01*
X51435714Y-96066000D01*
X51950000Y-97208857D02*
X51950000Y-96008857D01*
X52464285Y-97208857D02*
X52464285Y-96580285D01*
X52407142Y-96466000D01*
X52292857Y-96408857D01*
X52121428Y-96408857D01*
X52007142Y-96466000D01*
X51950000Y-96523142D01*
X53035714Y-97208857D02*
X53035714Y-96408857D01*
X53035714Y-96008857D02*
X52978571Y-96066000D01*
X53035714Y-96123142D01*
X53092857Y-96066000D01*
X53035714Y-96008857D01*
X53035714Y-96123142D01*
X54064285Y-97151714D02*
X53950000Y-97208857D01*
X53721428Y-97208857D01*
X53607142Y-97151714D01*
X53550000Y-97037428D01*
X53550000Y-96580285D01*
X53607142Y-96466000D01*
X53721428Y-96408857D01*
X53950000Y-96408857D01*
X54064285Y-96466000D01*
X54121428Y-96580285D01*
X54121428Y-96694571D01*
X53550000Y-96808857D01*
X54807142Y-97208857D02*
X54692857Y-97151714D01*
X54635714Y-97037428D01*
X54635714Y-96008857D01*
X55778571Y-97208857D02*
X55778571Y-96008857D01*
X55778571Y-97151714D02*
X55664285Y-97208857D01*
X55435714Y-97208857D01*
X55321428Y-97151714D01*
X55264285Y-97094571D01*
X55207142Y-96980285D01*
X55207142Y-96637428D01*
X55264285Y-96523142D01*
X55321428Y-96466000D01*
X55435714Y-96408857D01*
X55664285Y-96408857D01*
X55778571Y-96466000D01*
X57092857Y-96408857D02*
X57550000Y-96408857D01*
X57264285Y-97208857D02*
X57264285Y-96180285D01*
X57321428Y-96066000D01*
X57435714Y-96008857D01*
X57550000Y-96008857D01*
X58121428Y-97208857D02*
X58007142Y-97151714D01*
X57950000Y-97094571D01*
X57892857Y-96980285D01*
X57892857Y-96637428D01*
X57950000Y-96523142D01*
X58007142Y-96466000D01*
X58121428Y-96408857D01*
X58292857Y-96408857D01*
X58407142Y-96466000D01*
X58464285Y-96523142D01*
X58521428Y-96637428D01*
X58521428Y-96980285D01*
X58464285Y-97094571D01*
X58407142Y-97151714D01*
X58292857Y-97208857D01*
X58121428Y-97208857D01*
X59035714Y-97208857D02*
X59035714Y-96408857D01*
X59035714Y-96637428D02*
X59092857Y-96523142D01*
X59150000Y-96466000D01*
X59264285Y-96408857D01*
X59378571Y-96408857D01*
X60635714Y-96866000D02*
X61207142Y-96866000D01*
X60521428Y-97208857D02*
X60921428Y-96008857D01*
X61321428Y-97208857D01*
X61721428Y-97208857D02*
X61721428Y-96408857D01*
X61721428Y-96637428D02*
X61778571Y-96523142D01*
X61835714Y-96466000D01*
X61950000Y-96408857D01*
X62064285Y-96408857D01*
X62978571Y-97208857D02*
X62978571Y-96008857D01*
X62978571Y-97151714D02*
X62864285Y-97208857D01*
X62635714Y-97208857D01*
X62521428Y-97151714D01*
X62464285Y-97094571D01*
X62407142Y-96980285D01*
X62407142Y-96637428D01*
X62464285Y-96523142D01*
X62521428Y-96466000D01*
X62635714Y-96408857D01*
X62864285Y-96408857D01*
X62978571Y-96466000D01*
X64064285Y-96408857D02*
X64064285Y-97208857D01*
X63550000Y-96408857D02*
X63550000Y-97037428D01*
X63607142Y-97151714D01*
X63721428Y-97208857D01*
X63892857Y-97208857D01*
X64007142Y-97151714D01*
X64064285Y-97094571D01*
X64635714Y-97208857D02*
X64635714Y-96408857D01*
X64635714Y-96008857D02*
X64578571Y-96066000D01*
X64635714Y-96123142D01*
X64692857Y-96066000D01*
X64635714Y-96008857D01*
X64635714Y-96123142D01*
X65207142Y-96408857D02*
X65207142Y-97208857D01*
X65207142Y-96523142D02*
X65264285Y-96466000D01*
X65378571Y-96408857D01*
X65550000Y-96408857D01*
X65664285Y-96466000D01*
X65721428Y-96580285D01*
X65721428Y-97208857D01*
X66464285Y-97208857D02*
X66350000Y-97151714D01*
X66292857Y-97094571D01*
X66235714Y-96980285D01*
X66235714Y-96637428D01*
X66292857Y-96523142D01*
X66350000Y-96466000D01*
X66464285Y-96408857D01*
X66635714Y-96408857D01*
X66750000Y-96466000D01*
X66807142Y-96523142D01*
X66864285Y-96637428D01*
X66864285Y-96980285D01*
X66807142Y-97094571D01*
X66750000Y-97151714D01*
X66635714Y-97208857D01*
X66464285Y-97208857D01*
X68292857Y-96408857D02*
X68292857Y-97208857D01*
X68292857Y-96523142D02*
X68350000Y-96466000D01*
X68464285Y-96408857D01*
X68635714Y-96408857D01*
X68750000Y-96466000D01*
X68807142Y-96580285D01*
X68807142Y-97208857D01*
X69892857Y-97208857D02*
X69892857Y-96580285D01*
X69835714Y-96466000D01*
X69721428Y-96408857D01*
X69492857Y-96408857D01*
X69378571Y-96466000D01*
X69892857Y-97151714D02*
X69778571Y-97208857D01*
X69492857Y-97208857D01*
X69378571Y-97151714D01*
X69321428Y-97037428D01*
X69321428Y-96923142D01*
X69378571Y-96808857D01*
X69492857Y-96751714D01*
X69778571Y-96751714D01*
X69892857Y-96694571D01*
X70464285Y-96408857D02*
X70464285Y-97208857D01*
X70464285Y-96523142D02*
X70521428Y-96466000D01*
X70635714Y-96408857D01*
X70807142Y-96408857D01*
X70921428Y-96466000D01*
X70978571Y-96580285D01*
X70978571Y-97208857D01*
X71721428Y-97208857D02*
X71607142Y-97151714D01*
X71550000Y-97094571D01*
X71492857Y-96980285D01*
X71492857Y-96637428D01*
X71550000Y-96523142D01*
X71607142Y-96466000D01*
X71721428Y-96408857D01*
X71892857Y-96408857D01*
X72007142Y-96466000D01*
X72064285Y-96523142D01*
X72121428Y-96637428D01*
X72121428Y-96980285D01*
X72064285Y-97094571D01*
X72007142Y-97151714D01*
X71892857Y-97208857D01*
X71721428Y-97208857D01*
X73435714Y-96008857D02*
X74178571Y-96008857D01*
X73778571Y-96466000D01*
X73950000Y-96466000D01*
X74064285Y-96523142D01*
X74121428Y-96580285D01*
X74178571Y-96694571D01*
X74178571Y-96980285D01*
X74121428Y-97094571D01*
X74064285Y-97151714D01*
X73950000Y-97208857D01*
X73607142Y-97208857D01*
X73492857Y-97151714D01*
X73435714Y-97094571D01*
X74578571Y-96008857D02*
X75321428Y-96008857D01*
X74921428Y-96466000D01*
X75092857Y-96466000D01*
X75207142Y-96523142D01*
X75264285Y-96580285D01*
X75321428Y-96694571D01*
X75321428Y-96980285D01*
X75264285Y-97094571D01*
X75207142Y-97151714D01*
X75092857Y-97208857D01*
X74750000Y-97208857D01*
X74635714Y-97151714D01*
X74578571Y-97094571D01*
X76578571Y-96008857D02*
X76978571Y-97208857D01*
X77378571Y-96008857D01*
X78235714Y-97151714D02*
X78121428Y-97208857D01*
X77892857Y-97208857D01*
X77778571Y-97151714D01*
X77721428Y-97037428D01*
X77721428Y-96580285D01*
X77778571Y-96466000D01*
X77892857Y-96408857D01*
X78121428Y-96408857D01*
X78235714Y-96466000D01*
X78292857Y-96580285D01*
X78292857Y-96694571D01*
X77721428Y-96808857D01*
X78807142Y-97208857D02*
X78807142Y-96408857D01*
X78807142Y-96637428D02*
X78864285Y-96523142D01*
X78921428Y-96466000D01*
X79035714Y-96408857D01*
X79150000Y-96408857D01*
X80178571Y-97208857D02*
X79492857Y-97208857D01*
X79835714Y-97208857D02*
X79835714Y-96008857D01*
X79721428Y-96180285D01*
X79607142Y-96294571D01*
X79492857Y-96351714D01*
X80692857Y-97094571D02*
X80750000Y-97151714D01*
X80692857Y-97208857D01*
X80635714Y-97151714D01*
X80692857Y-97094571D01*
X80692857Y-97208857D01*
X81892857Y-97208857D02*
X81207142Y-97208857D01*
X81550000Y-97208857D02*
X81550000Y-96008857D01*
X81435714Y-96180285D01*
X81321428Y-96294571D01*
X81207142Y-96351714D01*
D12*
G36*
X94488000Y-83566000D02*
G01*
X92202000Y-83566000D01*
X92202000Y-77978000D01*
X94488000Y-77978000D01*
X94488000Y-83566000D01*
G37*
X94488000Y-83566000D02*
X92202000Y-83566000D01*
X92202000Y-77978000D01*
X94488000Y-77978000D01*
X94488000Y-83566000D01*
G36*
X89281000Y-67945000D02*
G01*
X86995000Y-67945000D01*
X86995000Y-61976000D01*
X89281000Y-61976000D01*
X89281000Y-67945000D01*
G37*
X89281000Y-67945000D02*
X86995000Y-67945000D01*
X86995000Y-61976000D01*
X89281000Y-61976000D01*
X89281000Y-67945000D01*
D13*
X107105000Y-89333571D02*
X107390714Y-89333571D01*
X107533571Y-89405000D01*
X107676428Y-89547857D01*
X107747857Y-89833571D01*
X107747857Y-90333571D01*
X107676428Y-90619285D01*
X107533571Y-90762142D01*
X107390714Y-90833571D01*
X107105000Y-90833571D01*
X106962142Y-90762142D01*
X106819285Y-90619285D01*
X106747857Y-90333571D01*
X106747857Y-89833571D01*
X106819285Y-89547857D01*
X106962142Y-89405000D01*
X107105000Y-89333571D01*
X108390714Y-90833571D02*
X108390714Y-89333571D01*
X109247857Y-90833571D01*
X109247857Y-89333571D01*
X106105000Y-91883571D02*
X106390714Y-91883571D01*
X106533571Y-91955000D01*
X106676428Y-92097857D01*
X106747857Y-92383571D01*
X106747857Y-92883571D01*
X106676428Y-93169285D01*
X106533571Y-93312142D01*
X106390714Y-93383571D01*
X106105000Y-93383571D01*
X105962142Y-93312142D01*
X105819285Y-93169285D01*
X105747857Y-92883571D01*
X105747857Y-92383571D01*
X105819285Y-92097857D01*
X105962142Y-91955000D01*
X106105000Y-91883571D01*
X107890714Y-92597857D02*
X107390714Y-92597857D01*
X107390714Y-93383571D02*
X107390714Y-91883571D01*
X108105000Y-91883571D01*
X109176428Y-92597857D02*
X108676428Y-92597857D01*
X108676428Y-93383571D02*
X108676428Y-91883571D01*
X109390714Y-91883571D01*
D14*
X65657142Y-90894285D02*
X67942857Y-90894285D01*
X88157142Y-90894285D02*
X90442857Y-90894285D01*
X89300000Y-92037142D02*
X89300000Y-89751428D01*
D15*
X73260000Y-77040000D02*
X73260000Y-74540000D01*
X70760000Y-77040000D02*
X73260000Y-77040000D01*
X71460000Y-70020000D02*
X72960000Y-70020000D01*
X71460000Y-69020000D02*
X71460000Y-70020000D01*
X71460000Y-75740000D02*
X72960000Y-75740000D01*
X71460000Y-76740000D02*
X71460000Y-75740000D01*
X70650000Y-69520000D02*
X70650000Y-69020000D01*
X69440000Y-69520000D02*
X70650000Y-69520000D01*
X69440000Y-76240000D02*
X69440000Y-69520000D01*
X70650000Y-76240000D02*
X69440000Y-76240000D01*
X70650000Y-76740000D02*
X70650000Y-76240000D01*
X68940000Y-69020000D02*
X68940000Y-76740000D01*
X72960000Y-69020000D02*
X68940000Y-69020000D01*
X72960000Y-76740000D02*
X72960000Y-69020000D01*
X68940000Y-76740000D02*
X72960000Y-76740000D01*
X87160000Y-69020000D02*
X83140000Y-69020000D01*
X83140000Y-69020000D02*
X83140000Y-76740000D01*
X83140000Y-76740000D02*
X87160000Y-76740000D01*
X87160000Y-76740000D02*
X87160000Y-69020000D01*
X85450000Y-69020000D02*
X85450000Y-69520000D01*
X85450000Y-69520000D02*
X86660000Y-69520000D01*
X86660000Y-69520000D02*
X86660000Y-76240000D01*
X86660000Y-76240000D02*
X85450000Y-76240000D01*
X85450000Y-76240000D02*
X85450000Y-76740000D01*
X84640000Y-69020000D02*
X84640000Y-70020000D01*
X84640000Y-70020000D02*
X83140000Y-70020000D01*
X84640000Y-76740000D02*
X84640000Y-75740000D01*
X84640000Y-75740000D02*
X83140000Y-75740000D01*
X85340000Y-68720000D02*
X82840000Y-68720000D01*
X82840000Y-68720000D02*
X82840000Y-71220000D01*
X48810000Y-57260000D02*
X48810000Y-52060000D01*
X48810000Y-52060000D02*
X46150000Y-52060000D01*
X46150000Y-52060000D02*
X46150000Y-57260000D01*
X46150000Y-57260000D02*
X48810000Y-57260000D01*
X46150000Y-56310000D02*
X40150000Y-56310000D01*
X40150000Y-56310000D02*
X40150000Y-55550000D01*
X40150000Y-55550000D02*
X46150000Y-55550000D01*
X46150000Y-56250000D02*
X40150000Y-56250000D01*
X46150000Y-56130000D02*
X40150000Y-56130000D01*
X46150000Y-56010000D02*
X40150000Y-56010000D01*
X46150000Y-55890000D02*
X40150000Y-55890000D01*
X46150000Y-55770000D02*
X40150000Y-55770000D01*
X46150000Y-55650000D02*
X40150000Y-55650000D01*
X49140000Y-56310000D02*
X48810000Y-56310000D01*
X49140000Y-55550000D02*
X48810000Y-55550000D01*
X48810000Y-54660000D02*
X46150000Y-54660000D01*
X46150000Y-53770000D02*
X40150000Y-53770000D01*
X40150000Y-53770000D02*
X40150000Y-53010000D01*
X40150000Y-53010000D02*
X46150000Y-53010000D01*
X49207071Y-53770000D02*
X48810000Y-53770000D01*
X49207071Y-53010000D02*
X48810000Y-53010000D01*
X51520000Y-55930000D02*
X51520000Y-57200000D01*
X51520000Y-57200000D02*
X50250000Y-57200000D01*
D12*
X103710000Y-53930000D02*
X109250000Y-53930000D01*
X103710000Y-60130000D02*
X103710000Y-53930000D01*
X109250000Y-60130000D02*
X103710000Y-60130000D01*
X109250000Y-53930000D02*
X109250000Y-60130000D01*
X68600000Y-56430000D02*
G75*
G03*
X68600000Y-56430000I-750000J0D01*
G01*
X68700000Y-53130000D02*
G75*
G03*
X68700000Y-53130000I-850000J0D01*
G01*
X87900000Y-56430000D02*
G75*
G03*
X87900000Y-56430000I-850000J0D01*
G01*
X86700000Y-53480000D02*
X87400000Y-53480000D01*
X86700000Y-52380000D02*
X87400000Y-52380000D01*
X70050000Y-48130000D02*
X84350000Y-48130000D01*
X71550000Y-63430000D02*
X83850000Y-63430000D01*
X84350000Y-59430000D02*
X84350000Y-62930000D01*
X70050000Y-61930000D02*
X70050000Y-59430000D01*
X69050000Y-58430000D02*
X67350000Y-58430000D01*
X65850000Y-56930000D02*
X65850000Y-52430000D01*
X67350000Y-50930000D02*
X69050000Y-50930000D01*
X70050000Y-49930000D02*
X70050000Y-48130000D01*
X84350000Y-48130000D02*
X84350000Y-49930000D01*
X85350000Y-50930000D02*
X87550000Y-50930000D01*
X89050000Y-56930000D02*
X89050000Y-52430000D01*
X87550000Y-58430000D02*
X85350000Y-58430000D01*
X81400000Y-49230000D02*
X80150000Y-49230000D01*
X81400000Y-52630000D02*
X81400000Y-49230000D01*
X80150000Y-52630000D02*
X81400000Y-52630000D01*
X74800000Y-49230000D02*
X76050000Y-49230000D01*
X74800000Y-52630000D02*
X74800000Y-49230000D01*
X76050000Y-52630000D02*
X74800000Y-52630000D01*
X86150000Y-52930000D02*
G75*
G02*
X86700000Y-52380000I550000J0D01*
G01*
X86700000Y-53480000D02*
G75*
G02*
X86150000Y-52930000I0J550000D01*
G01*
X87400000Y-52380000D02*
G75*
G02*
X87950000Y-52930000I0J-550000D01*
G01*
X87950000Y-52930000D02*
G75*
G02*
X87400000Y-53480000I-550000J0D01*
G01*
X67350000Y-58430000D02*
G75*
G02*
X65850000Y-56930000I0J1500000D01*
G01*
X65850000Y-52430000D02*
G75*
G02*
X67350000Y-50930000I1500000J0D01*
G01*
X89050000Y-56930000D02*
G75*
G02*
X87550000Y-58430000I-1500000J0D01*
G01*
X87550000Y-50930000D02*
G75*
G02*
X89050000Y-52430000I0J-1500000D01*
G01*
X85350000Y-50930000D02*
G75*
G02*
X84350000Y-49930000I0J1000000D01*
G01*
X84350000Y-59430000D02*
G75*
G02*
X85350000Y-58430000I1000000J0D01*
G01*
X69050000Y-58430000D02*
G75*
G02*
X70050000Y-59430000I0J-1000000D01*
G01*
X70050000Y-49930000D02*
G75*
G02*
X69050000Y-50930000I-1000000J0D01*
G01*
X71550000Y-63430000D02*
G75*
G02*
X70050000Y-61930000I0J1500000D01*
G01*
X84350000Y-62930000D02*
G75*
G02*
X83850000Y-63430000I-500000J0D01*
G01*
D15*
X94560000Y-63910000D02*
X94560000Y-66570000D01*
X94560000Y-63910000D02*
X58940000Y-63910000D01*
X58940000Y-63910000D02*
X58940000Y-66570000D01*
X94560000Y-66570000D02*
X58940000Y-66570000D01*
X97160000Y-66570000D02*
X95830000Y-66570000D01*
X97160000Y-65240000D02*
X97160000Y-66570000D01*
D16*
X92800000Y-95930000D02*
X102000000Y-95930000D01*
X102000000Y-95930000D02*
X102000000Y-87930000D01*
X102000000Y-87930000D02*
X92800000Y-87930000D01*
X92800000Y-87930000D02*
X92800000Y-95930000D01*
X63300000Y-95930000D02*
X63300000Y-87930000D01*
X63300000Y-87930000D02*
X54400000Y-87930000D01*
X54400000Y-95930000D02*
X63300000Y-95930000D01*
X54400000Y-87930000D02*
X54400000Y-95930000D01*
D15*
X58940000Y-80610000D02*
X58940000Y-79280000D01*
X58940000Y-79280000D02*
X60270000Y-79280000D01*
X61540000Y-79280000D02*
X97160000Y-79280000D01*
X97160000Y-81940000D02*
X97160000Y-79280000D01*
X61540000Y-81940000D02*
X97160000Y-81940000D01*
X61540000Y-81940000D02*
X61540000Y-79280000D01*
D12*
X110200000Y-95930000D02*
X109750000Y-95930000D01*
X109750000Y-95930000D02*
X109750000Y-87130000D01*
X109750000Y-87130000D02*
X110200000Y-87130000D01*
X113700000Y-87130000D02*
X114150000Y-87130000D01*
X114150000Y-87130000D02*
X114150000Y-95930000D01*
X114150000Y-95930000D02*
X113700000Y-95930000D01*
X72802380Y-73739523D02*
X71802380Y-73739523D01*
X72516666Y-73406190D01*
X71802380Y-73072857D01*
X72802380Y-73072857D01*
X72802380Y-72072857D02*
X72802380Y-72644285D01*
X72802380Y-72358571D02*
X71802380Y-72358571D01*
X71945238Y-72453809D01*
X72040476Y-72549047D01*
X72088095Y-72644285D01*
X84102380Y-73739523D02*
X83102380Y-73739523D01*
X83816666Y-73406190D01*
X83102380Y-73072857D01*
X84102380Y-73072857D01*
X83197619Y-72644285D02*
X83150000Y-72596666D01*
X83102380Y-72501428D01*
X83102380Y-72263333D01*
X83150000Y-72168095D01*
X83197619Y-72120476D01*
X83292857Y-72072857D01*
X83388095Y-72072857D01*
X83530952Y-72120476D01*
X84102380Y-72691904D01*
X84102380Y-72072857D01*
X74502380Y-55430000D02*
X74407142Y-55382380D01*
X74264285Y-55382380D01*
X74121428Y-55430000D01*
X74026190Y-55525238D01*
X73978571Y-55620476D01*
X73930952Y-55810952D01*
X73930952Y-55953809D01*
X73978571Y-56144285D01*
X74026190Y-56239523D01*
X74121428Y-56334761D01*
X74264285Y-56382380D01*
X74359523Y-56382380D01*
X74502380Y-56334761D01*
X74550000Y-56287142D01*
X74550000Y-55953809D01*
X74359523Y-55953809D01*
X75169047Y-55906190D02*
X75169047Y-56382380D01*
X74835714Y-55382380D02*
X75169047Y-55906190D01*
X75502380Y-55382380D01*
X75788095Y-56334761D02*
X75930952Y-56382380D01*
X76169047Y-56382380D01*
X76264285Y-56334761D01*
X76311904Y-56287142D01*
X76359523Y-56191904D01*
X76359523Y-56096666D01*
X76311904Y-56001428D01*
X76264285Y-55953809D01*
X76169047Y-55906190D01*
X75978571Y-55858571D01*
X75883333Y-55810952D01*
X75835714Y-55763333D01*
X75788095Y-55668095D01*
X75788095Y-55572857D01*
X75835714Y-55477619D01*
X75883333Y-55430000D01*
X75978571Y-55382380D01*
X76216666Y-55382380D01*
X76359523Y-55430000D01*
X77121428Y-55858571D02*
X76788095Y-55858571D01*
X76788095Y-56382380D02*
X76788095Y-55382380D01*
X77264285Y-55382380D01*
X77645238Y-56382380D02*
X77645238Y-55382380D01*
X77883333Y-55382380D01*
X78026190Y-55430000D01*
X78121428Y-55525238D01*
X78169047Y-55620476D01*
X78216666Y-55810952D01*
X78216666Y-55953809D01*
X78169047Y-56144285D01*
X78121428Y-56239523D01*
X78026190Y-56334761D01*
X77883333Y-56382380D01*
X77645238Y-56382380D01*
X78645238Y-56382380D02*
X78645238Y-55382380D01*
X78978571Y-56096666D01*
X79311904Y-55382380D01*
X79311904Y-56382380D01*
X79740476Y-56096666D02*
X80216666Y-56096666D01*
X79645238Y-56382380D02*
X79978571Y-55382380D01*
X80311904Y-56382380D01*
X80550000Y-55382380D02*
X81216666Y-56382380D01*
X81216666Y-55382380D02*
X80550000Y-56382380D01*
X81930952Y-55858571D02*
X82073809Y-55906190D01*
X82121428Y-55953809D01*
X82169047Y-56049047D01*
X82169047Y-56191904D01*
X82121428Y-56287142D01*
X82073809Y-56334761D01*
X81978571Y-56382380D01*
X81597619Y-56382380D01*
X81597619Y-55382380D01*
X81930952Y-55382380D01*
X82026190Y-55430000D01*
X82073809Y-55477619D01*
X82121428Y-55572857D01*
X82121428Y-55668095D01*
X82073809Y-55763333D01*
X82026190Y-55810952D01*
X81930952Y-55858571D01*
X81597619Y-55858571D01*
%LPC*%
D17*
X70650000Y-71630000D03*
D18*
X70650000Y-74130000D03*
X85450000Y-71630000D03*
D17*
X85450000Y-74130000D03*
D19*
X50250000Y-55930000D03*
D20*
X50250000Y-53390000D03*
D21*
X44650000Y-91680000D03*
X45150000Y-90930000D03*
X44650000Y-90180000D03*
X45650000Y-90180000D03*
X45650000Y-91680000D03*
D22*
X107750000Y-57030000D03*
X105210000Y-57030000D03*
D23*
X107750000Y-54490000D03*
X105210000Y-54490000D03*
D16*
G36*
X80000000Y-47340000D02*
G01*
X80000000Y-49840000D01*
X79800000Y-49840000D01*
X79800000Y-47340000D01*
X80000000Y-47340000D01*
G37*
G36*
X79600000Y-47340000D02*
G01*
X79600000Y-49840000D01*
X79400000Y-49840000D01*
X79400000Y-47340000D01*
X79600000Y-47340000D01*
G37*
G36*
X79200000Y-47340000D02*
G01*
X79200000Y-49840000D01*
X79000000Y-49840000D01*
X79000000Y-47340000D01*
X79200000Y-47340000D01*
G37*
G36*
X78800000Y-47340000D02*
G01*
X78800000Y-49840000D01*
X78600000Y-49840000D01*
X78600000Y-47340000D01*
X78800000Y-47340000D01*
G37*
G36*
X78400000Y-47340000D02*
G01*
X78400000Y-49840000D01*
X78200000Y-49840000D01*
X78200000Y-47340000D01*
X78400000Y-47340000D01*
G37*
G36*
X78000000Y-47340000D02*
G01*
X78000000Y-49840000D01*
X77800000Y-49840000D01*
X77800000Y-47340000D01*
X78000000Y-47340000D01*
G37*
G36*
X77600000Y-47340000D02*
G01*
X77600000Y-49840000D01*
X77400000Y-49840000D01*
X77400000Y-47340000D01*
X77600000Y-47340000D01*
G37*
G36*
X77200000Y-47340000D02*
G01*
X77200000Y-49840000D01*
X77000000Y-49840000D01*
X77000000Y-47340000D01*
X77200000Y-47340000D01*
G37*
G36*
X76800000Y-47340000D02*
G01*
X76800000Y-49840000D01*
X76600000Y-49840000D01*
X76600000Y-47340000D01*
X76800000Y-47340000D01*
G37*
G36*
X76400000Y-47340000D02*
G01*
X76400000Y-49840000D01*
X76200000Y-49840000D01*
X76200000Y-47340000D01*
X76400000Y-47340000D01*
G37*
G36*
X76400000Y-52020000D02*
G01*
X76400000Y-54520000D01*
X76200000Y-54520000D01*
X76200000Y-52020000D01*
X76400000Y-52020000D01*
G37*
G36*
X76800000Y-52020000D02*
G01*
X76800000Y-54520000D01*
X76600000Y-54520000D01*
X76600000Y-52020000D01*
X76800000Y-52020000D01*
G37*
G36*
X77200000Y-52020000D02*
G01*
X77200000Y-54520000D01*
X77000000Y-54520000D01*
X77000000Y-52020000D01*
X77200000Y-52020000D01*
G37*
G36*
X77600000Y-52020000D02*
G01*
X77600000Y-54520000D01*
X77400000Y-54520000D01*
X77400000Y-52020000D01*
X77600000Y-52020000D01*
G37*
G36*
X78000000Y-52020000D02*
G01*
X78000000Y-54520000D01*
X77800000Y-54520000D01*
X77800000Y-52020000D01*
X78000000Y-52020000D01*
G37*
G36*
X78400000Y-52020000D02*
G01*
X78400000Y-54520000D01*
X78200000Y-54520000D01*
X78200000Y-52020000D01*
X78400000Y-52020000D01*
G37*
G36*
X78800000Y-52020000D02*
G01*
X78800000Y-54520000D01*
X78600000Y-54520000D01*
X78600000Y-52020000D01*
X78800000Y-52020000D01*
G37*
G36*
X79200000Y-52020000D02*
G01*
X79200000Y-54520000D01*
X79000000Y-54520000D01*
X79000000Y-52020000D01*
X79200000Y-52020000D01*
G37*
G36*
X79600000Y-52020000D02*
G01*
X79600000Y-54520000D01*
X79400000Y-54520000D01*
X79400000Y-52020000D01*
X79600000Y-52020000D01*
G37*
G36*
X80000000Y-52020000D02*
G01*
X80000000Y-54520000D01*
X79800000Y-54520000D01*
X79800000Y-52020000D01*
X80000000Y-52020000D01*
G37*
D19*
X95830000Y-65240000D03*
D20*
X93290000Y-65240000D03*
X90750000Y-65240000D03*
X88210000Y-65240000D03*
X85670000Y-65240000D03*
X83130000Y-65240000D03*
X80590000Y-65240000D03*
X78050000Y-65240000D03*
X75510000Y-65240000D03*
X72970000Y-65240000D03*
X70430000Y-65240000D03*
X67890000Y-65240000D03*
X65350000Y-65240000D03*
X62810000Y-65240000D03*
X60270000Y-65240000D03*
D24*
X92800000Y-91930000D03*
X100050000Y-91930000D03*
X56050000Y-91930000D03*
X63300000Y-91930000D03*
D20*
X95830000Y-80610000D03*
X93290000Y-80610000D03*
X90750000Y-80610000D03*
X88210000Y-80610000D03*
X85670000Y-80610000D03*
X83130000Y-80610000D03*
X80590000Y-80610000D03*
X78050000Y-80610000D03*
X75510000Y-80610000D03*
X72970000Y-80610000D03*
X70430000Y-80610000D03*
X67890000Y-80610000D03*
X65350000Y-80610000D03*
X62810000Y-80610000D03*
D19*
X60270000Y-80610000D03*
D25*
X111950000Y-87330000D03*
X111950000Y-95730000D03*
D26*
X111950000Y-89530000D03*
X111950000Y-91530000D03*
X111950000Y-93530000D03*
M02*
