G04 #@! TF.GenerationSoftware,KiCad,Pcbnew,(5.0.0)*
G04 #@! TF.CreationDate,2020-02-21T23:41:42+09:00*
G04 #@! TF.ProjectId,MiniRoverShield,4D696E69526F766572536869656C642E,rev?*
G04 #@! TF.SameCoordinates,Original*
G04 #@! TF.FileFunction,Soldermask,Top*
G04 #@! TF.FilePolarity,Negative*
%FSLAX46Y46*%
G04 Gerber Fmt 4.6, Leading zero omitted, Abs format (unit mm)*
G04 Created by KiCad (PCBNEW (5.0.0)) date 02/21/20 23:41:42*
%MOMM*%
%LPD*%
G01*
G04 APERTURE LIST*
%ADD10O,2.000000X1.700000*%
%ADD11R,2.000000X1.700000*%
%ADD12R,1.700000X1.700000*%
%ADD13O,1.700000X1.700000*%
%ADD14C,0.600000*%
%ADD15C,2.000000*%
%ADD16C,1.200000*%
%ADD17C,0.200000*%
%ADD18C,0.100000*%
%ADD19O,2.800000X3.500000*%
%ADD20O,3.000000X2.000000*%
%ADD21O,2.200000X1.300000*%
G04 APERTURE END LIST*
D10*
G04 #@! TO.C,M1*
X70650000Y-71630000D03*
D11*
X70650000Y-74130000D03*
G04 #@! TD*
G04 #@! TO.C,M2*
X85450000Y-71630000D03*
D10*
X85450000Y-74130000D03*
G04 #@! TD*
D12*
G04 #@! TO.C,J1*
X50250000Y-55930000D03*
D13*
X50250000Y-53390000D03*
G04 #@! TD*
D14*
G04 #@! TO.C,U1*
X44650000Y-91680000D03*
X45150000Y-90930000D03*
X44650000Y-90180000D03*
X45650000Y-90180000D03*
X45650000Y-91680000D03*
G04 #@! TD*
D15*
G04 #@! TO.C,N1*
X107750000Y-57030000D03*
X105210000Y-57030000D03*
D16*
X107750000Y-54490000D03*
X105210000Y-54490000D03*
G04 #@! TD*
D17*
G04 #@! TO.C,P3*
X79900000Y-48590000D03*
D18*
G36*
X80000000Y-47340000D02*
X80000000Y-49840000D01*
X79800000Y-49840000D01*
X79800000Y-47340000D01*
X80000000Y-47340000D01*
X80000000Y-47340000D01*
G37*
D17*
X79500000Y-48590000D03*
D18*
G36*
X79600000Y-47340000D02*
X79600000Y-49840000D01*
X79400000Y-49840000D01*
X79400000Y-47340000D01*
X79600000Y-47340000D01*
X79600000Y-47340000D01*
G37*
D17*
X79100000Y-48590000D03*
D18*
G36*
X79200000Y-47340000D02*
X79200000Y-49840000D01*
X79000000Y-49840000D01*
X79000000Y-47340000D01*
X79200000Y-47340000D01*
X79200000Y-47340000D01*
G37*
D17*
X78700000Y-48590000D03*
D18*
G36*
X78800000Y-47340000D02*
X78800000Y-49840000D01*
X78600000Y-49840000D01*
X78600000Y-47340000D01*
X78800000Y-47340000D01*
X78800000Y-47340000D01*
G37*
D17*
X78300000Y-48590000D03*
D18*
G36*
X78400000Y-47340000D02*
X78400000Y-49840000D01*
X78200000Y-49840000D01*
X78200000Y-47340000D01*
X78400000Y-47340000D01*
X78400000Y-47340000D01*
G37*
D17*
X77900000Y-48590000D03*
D18*
G36*
X78000000Y-47340000D02*
X78000000Y-49840000D01*
X77800000Y-49840000D01*
X77800000Y-47340000D01*
X78000000Y-47340000D01*
X78000000Y-47340000D01*
G37*
D17*
X77500000Y-48590000D03*
D18*
G36*
X77600000Y-47340000D02*
X77600000Y-49840000D01*
X77400000Y-49840000D01*
X77400000Y-47340000D01*
X77600000Y-47340000D01*
X77600000Y-47340000D01*
G37*
D17*
X77100000Y-48590000D03*
D18*
G36*
X77200000Y-47340000D02*
X77200000Y-49840000D01*
X77000000Y-49840000D01*
X77000000Y-47340000D01*
X77200000Y-47340000D01*
X77200000Y-47340000D01*
G37*
D17*
X76700000Y-48590000D03*
D18*
G36*
X76800000Y-47340000D02*
X76800000Y-49840000D01*
X76600000Y-49840000D01*
X76600000Y-47340000D01*
X76800000Y-47340000D01*
X76800000Y-47340000D01*
G37*
D17*
X76300000Y-48590000D03*
D18*
G36*
X76400000Y-47340000D02*
X76400000Y-49840000D01*
X76200000Y-49840000D01*
X76200000Y-47340000D01*
X76400000Y-47340000D01*
X76400000Y-47340000D01*
G37*
D17*
X76300000Y-53270000D03*
D18*
G36*
X76400000Y-52020000D02*
X76400000Y-54520000D01*
X76200000Y-54520000D01*
X76200000Y-52020000D01*
X76400000Y-52020000D01*
X76400000Y-52020000D01*
G37*
D17*
X76700000Y-53270000D03*
D18*
G36*
X76800000Y-52020000D02*
X76800000Y-54520000D01*
X76600000Y-54520000D01*
X76600000Y-52020000D01*
X76800000Y-52020000D01*
X76800000Y-52020000D01*
G37*
D17*
X77100000Y-53270000D03*
D18*
G36*
X77200000Y-52020000D02*
X77200000Y-54520000D01*
X77000000Y-54520000D01*
X77000000Y-52020000D01*
X77200000Y-52020000D01*
X77200000Y-52020000D01*
G37*
D17*
X77500000Y-53270000D03*
D18*
G36*
X77600000Y-52020000D02*
X77600000Y-54520000D01*
X77400000Y-54520000D01*
X77400000Y-52020000D01*
X77600000Y-52020000D01*
X77600000Y-52020000D01*
G37*
D17*
X77900000Y-53270000D03*
D18*
G36*
X78000000Y-52020000D02*
X78000000Y-54520000D01*
X77800000Y-54520000D01*
X77800000Y-52020000D01*
X78000000Y-52020000D01*
X78000000Y-52020000D01*
G37*
D17*
X78300000Y-53270000D03*
D18*
G36*
X78400000Y-52020000D02*
X78400000Y-54520000D01*
X78200000Y-54520000D01*
X78200000Y-52020000D01*
X78400000Y-52020000D01*
X78400000Y-52020000D01*
G37*
D17*
X78700000Y-53270000D03*
D18*
G36*
X78800000Y-52020000D02*
X78800000Y-54520000D01*
X78600000Y-54520000D01*
X78600000Y-52020000D01*
X78800000Y-52020000D01*
X78800000Y-52020000D01*
G37*
D17*
X79100000Y-53270000D03*
D18*
G36*
X79200000Y-52020000D02*
X79200000Y-54520000D01*
X79000000Y-54520000D01*
X79000000Y-52020000D01*
X79200000Y-52020000D01*
X79200000Y-52020000D01*
G37*
D17*
X79500000Y-53270000D03*
D18*
G36*
X79600000Y-52020000D02*
X79600000Y-54520000D01*
X79400000Y-54520000D01*
X79400000Y-52020000D01*
X79600000Y-52020000D01*
X79600000Y-52020000D01*
G37*
D17*
X79900000Y-53270000D03*
D18*
G36*
X80000000Y-52020000D02*
X80000000Y-54520000D01*
X79800000Y-54520000D01*
X79800000Y-52020000D01*
X80000000Y-52020000D01*
X80000000Y-52020000D01*
G37*
G04 #@! TD*
D12*
G04 #@! TO.C,P2*
X95830000Y-65240000D03*
D13*
X93290000Y-65240000D03*
X90750000Y-65240000D03*
X88210000Y-65240000D03*
X85670000Y-65240000D03*
X83130000Y-65240000D03*
X80590000Y-65240000D03*
X78050000Y-65240000D03*
X75510000Y-65240000D03*
X72970000Y-65240000D03*
X70430000Y-65240000D03*
X67890000Y-65240000D03*
X65350000Y-65240000D03*
X62810000Y-65240000D03*
X60270000Y-65240000D03*
G04 #@! TD*
D19*
G04 #@! TO.C,BT1*
X92800000Y-91930000D03*
X100050000Y-91930000D03*
X56050000Y-91930000D03*
X63300000Y-91930000D03*
G04 #@! TD*
D13*
G04 #@! TO.C,P1*
X95830000Y-80610000D03*
X93290000Y-80610000D03*
X90750000Y-80610000D03*
X88210000Y-80610000D03*
X85670000Y-80610000D03*
X83130000Y-80610000D03*
X80590000Y-80610000D03*
X78050000Y-80610000D03*
X75510000Y-80610000D03*
X72970000Y-80610000D03*
X70430000Y-80610000D03*
X67890000Y-80610000D03*
X65350000Y-80610000D03*
X62810000Y-80610000D03*
D12*
X60270000Y-80610000D03*
G04 #@! TD*
D20*
G04 #@! TO.C,SW1*
X111950000Y-87330000D03*
X111950000Y-95730000D03*
D21*
X111950000Y-89530000D03*
X111950000Y-91530000D03*
X111950000Y-93530000D03*
G04 #@! TD*
M02*
