G04 #@! TF.GenerationSoftware,KiCad,Pcbnew,(5.0.0)*
G04 #@! TF.CreationDate,2020-02-21T23:41:42+09:00*
G04 #@! TF.ProjectId,MiniRoverShield,4D696E69526F766572536869656C642E,rev?*
G04 #@! TF.SameCoordinates,Original*
G04 #@! TF.FileFunction,Legend,Bot*
G04 #@! TF.FilePolarity,Positive*
%FSLAX46Y46*%
G04 Gerber Fmt 4.6, Leading zero omitted, Abs format (unit mm)*
G04 Created by KiCad (PCBNEW (5.0.0)) date 02/21/20 23:41:42*
%MOMM*%
%LPD*%
G01*
G04 APERTURE LIST*
%ADD10C,0.120000*%
%ADD11C,0.150000*%
%ADD12C,0.100000*%
%ADD13C,0.950000*%
%ADD14R,0.600000X1.550000*%
%ADD15R,1.550000X0.600000*%
%ADD16C,0.850000*%
%ADD17C,1.150000*%
%ADD18O,2.000000X1.700000*%
%ADD19R,2.000000X1.700000*%
%ADD20R,1.700000X1.700000*%
%ADD21O,1.700000X1.700000*%
%ADD22O,0.990000X0.420000*%
%ADD23R,0.420000X0.420000*%
%ADD24R,0.680000X1.050000*%
%ADD25R,0.280000X0.700000*%
%ADD26R,0.260000X0.500000*%
%ADD27R,1.650000X2.400000*%
%ADD28C,0.600000*%
%ADD29R,0.900000X0.800000*%
%ADD30C,2.000000*%
%ADD31C,1.200000*%
%ADD32R,1.300000X0.900000*%
%ADD33O,2.800000X3.500000*%
%ADD34R,1.200000X0.700000*%
%ADD35R,1.200000X1.000000*%
%ADD36R,0.800000X1.000000*%
%ADD37R,2.800000X1.000000*%
%ADD38R,1.900000X1.300000*%
%ADD39O,3.000000X2.000000*%
%ADD40O,2.200000X1.300000*%
G04 APERTURE END LIST*
D10*
G04 #@! TO.C,C3*
X59060000Y-54501267D02*
X59060000Y-54158733D01*
X58040000Y-54501267D02*
X58040000Y-54158733D01*
D11*
G04 #@! TO.C,Q1*
X108225000Y-92255000D02*
X108175000Y-92255000D01*
X108225000Y-88105000D02*
X108080000Y-88105000D01*
X103075000Y-88105000D02*
X103220000Y-88105000D01*
X103075000Y-92255000D02*
X103220000Y-92255000D01*
X108225000Y-92255000D02*
X108225000Y-88105000D01*
X103075000Y-92255000D02*
X103075000Y-88105000D01*
X108175000Y-92255000D02*
X108175000Y-93655000D01*
G04 #@! TO.C,U4*
X95125000Y-83905000D02*
X96525000Y-83905000D01*
X95125000Y-89005000D02*
X90975000Y-89005000D01*
X95125000Y-83855000D02*
X90975000Y-83855000D01*
X95125000Y-89005000D02*
X95125000Y-88860000D01*
X90975000Y-89005000D02*
X90975000Y-88860000D01*
X90975000Y-83855000D02*
X90975000Y-84000000D01*
X95125000Y-83855000D02*
X95125000Y-83905000D01*
G04 #@! TO.C,U3*
X65125000Y-83855000D02*
X65125000Y-83905000D01*
X60975000Y-83855000D02*
X60975000Y-84000000D01*
X60975000Y-89005000D02*
X60975000Y-88860000D01*
X65125000Y-89005000D02*
X65125000Y-88860000D01*
X65125000Y-83855000D02*
X60975000Y-83855000D01*
X65125000Y-89005000D02*
X60975000Y-89005000D01*
X65125000Y-83905000D02*
X66525000Y-83905000D01*
D10*
G04 #@! TO.C,D2*
X106802500Y-48245000D02*
X109287500Y-48245000D01*
X106802500Y-49615000D02*
X106802500Y-48245000D01*
X109287500Y-49615000D02*
X106802500Y-49615000D01*
G04 #@! TO.C,D1*
X105100000Y-49615000D02*
X102615000Y-49615000D01*
X102615000Y-49615000D02*
X102615000Y-48245000D01*
X102615000Y-48245000D02*
X105100000Y-48245000D01*
G04 #@! TO.C,C1*
X44613748Y-94520000D02*
X45136252Y-94520000D01*
X44613748Y-95940000D02*
X45136252Y-95940000D01*
G04 #@! TO.C,C2*
X45136252Y-85670000D02*
X44613748Y-85670000D01*
X45136252Y-87090000D02*
X44613748Y-87090000D01*
G04 #@! TO.C,C4*
X56336252Y-87140000D02*
X55813748Y-87140000D01*
X56336252Y-85720000D02*
X55813748Y-85720000D01*
G04 #@! TO.C,C5*
X99788748Y-87140000D02*
X100311252Y-87140000D01*
X99788748Y-85720000D02*
X100311252Y-85720000D01*
G04 #@! TO.C,U1*
X44500000Y-92555000D02*
X43525000Y-92555000D01*
X46775000Y-89305000D02*
X45800000Y-89305000D01*
X44500000Y-89305000D02*
X43525000Y-89305000D01*
X46775000Y-92555000D02*
X45800000Y-92555000D01*
X43525000Y-89530000D02*
X43525000Y-89305000D01*
X43525000Y-92330000D02*
X43525000Y-92555000D01*
X46775000Y-92555000D02*
X46775000Y-92330000D01*
G04 #@! TO.C,Q2*
X102710000Y-55450000D02*
X102710000Y-56380000D01*
X102710000Y-58610000D02*
X102710000Y-57680000D01*
X102710000Y-58610000D02*
X100550000Y-58610000D01*
X102710000Y-55450000D02*
X101250000Y-55450000D01*
G04 #@! TO.C,R3*
X98740000Y-57201267D02*
X98740000Y-56858733D01*
X99760000Y-57201267D02*
X99760000Y-56858733D01*
G04 #@! TO.C,R14*
X77778733Y-72040000D02*
X78121267Y-72040000D01*
X77778733Y-71020000D02*
X78121267Y-71020000D01*
G04 #@! TO.C,R13*
X78121267Y-74640000D02*
X77778733Y-74640000D01*
X78121267Y-73620000D02*
X77778733Y-73620000D01*
G04 #@! TO.C,R5*
X57378733Y-52040000D02*
X57721267Y-52040000D01*
X57378733Y-51020000D02*
X57721267Y-51020000D01*
G04 #@! TO.C,R8*
X57378733Y-60220000D02*
X57721267Y-60220000D01*
X57378733Y-61240000D02*
X57721267Y-61240000D01*
G04 #@! TO.C,R4*
X108253733Y-51440000D02*
X108596267Y-51440000D01*
X108253733Y-50420000D02*
X108596267Y-50420000D01*
G04 #@! TO.C,R2*
X104128733Y-50420000D02*
X104471267Y-50420000D01*
X104128733Y-51440000D02*
X104471267Y-51440000D01*
G04 #@! TO.C,R1*
X105628733Y-96940000D02*
X105971267Y-96940000D01*
X105628733Y-95920000D02*
X105971267Y-95920000D01*
G04 #@! TO.C,R7*
X57378733Y-58420000D02*
X57721267Y-58420000D01*
X57378733Y-59440000D02*
X57721267Y-59440000D01*
G04 #@! TO.C,R6*
X57378733Y-57640000D02*
X57721267Y-57640000D01*
X57378733Y-56620000D02*
X57721267Y-56620000D01*
D11*
G04 #@! TO.C,L1*
X52400000Y-92780000D02*
X52400000Y-89080000D01*
X48900000Y-89080000D02*
X48900000Y-92780000D01*
D10*
G04 #@! TO.C,SD1*
X78035000Y-58735000D02*
X77685000Y-58225000D01*
X77835000Y-61245000D02*
X77835000Y-61505000D01*
X78035000Y-61045000D02*
X77835000Y-61245000D01*
X78035000Y-51645000D02*
X77835000Y-51855000D01*
X77685000Y-51855000D02*
X77835000Y-51855000D01*
X77685000Y-51855000D02*
X77685000Y-58225000D01*
X73075000Y-48755000D02*
X74875000Y-48755000D01*
X67075000Y-48755000D02*
X71775000Y-48755000D01*
X78035000Y-49785000D02*
X77835000Y-49585000D01*
X78035000Y-49785000D02*
X78035000Y-51645000D01*
X78035000Y-61045000D02*
X78035000Y-58735000D01*
X61765000Y-48755000D02*
X65375000Y-48755000D01*
X61765000Y-49205000D02*
X61765000Y-48755000D01*
X61765000Y-62725000D02*
X75775000Y-62725000D01*
X61765000Y-60805000D02*
X61765000Y-62725000D01*
G04 #@! TO.C,C3*
D11*
X54716666Y-54687142D02*
X54764285Y-54734761D01*
X54907142Y-54782380D01*
X55002380Y-54782380D01*
X55145238Y-54734761D01*
X55240476Y-54639523D01*
X55288095Y-54544285D01*
X55335714Y-54353809D01*
X55335714Y-54210952D01*
X55288095Y-54020476D01*
X55240476Y-53925238D01*
X55145238Y-53830000D01*
X55002380Y-53782380D01*
X54907142Y-53782380D01*
X54764285Y-53830000D01*
X54716666Y-53877619D01*
X54383333Y-53782380D02*
X53764285Y-53782380D01*
X54097619Y-54163333D01*
X53954761Y-54163333D01*
X53859523Y-54210952D01*
X53811904Y-54258571D01*
X53764285Y-54353809D01*
X53764285Y-54591904D01*
X53811904Y-54687142D01*
X53859523Y-54734761D01*
X53954761Y-54782380D01*
X54240476Y-54782380D01*
X54335714Y-54734761D01*
X54383333Y-54687142D01*
G04 #@! TO.C,Q1*
X105745238Y-86077619D02*
X105840476Y-86030000D01*
X105935714Y-85934761D01*
X106078571Y-85791904D01*
X106173809Y-85744285D01*
X106269047Y-85744285D01*
X106221428Y-85982380D02*
X106316666Y-85934761D01*
X106411904Y-85839523D01*
X106459523Y-85649047D01*
X106459523Y-85315714D01*
X106411904Y-85125238D01*
X106316666Y-85030000D01*
X106221428Y-84982380D01*
X106030952Y-84982380D01*
X105935714Y-85030000D01*
X105840476Y-85125238D01*
X105792857Y-85315714D01*
X105792857Y-85649047D01*
X105840476Y-85839523D01*
X105935714Y-85934761D01*
X106030952Y-85982380D01*
X106221428Y-85982380D01*
X104840476Y-85982380D02*
X105411904Y-85982380D01*
X105126190Y-85982380D02*
X105126190Y-84982380D01*
X105221428Y-85125238D01*
X105316666Y-85220476D01*
X105411904Y-85268095D01*
G04 #@! TO.C,U4*
X93811904Y-82382380D02*
X93811904Y-83191904D01*
X93764285Y-83287142D01*
X93716666Y-83334761D01*
X93621428Y-83382380D01*
X93430952Y-83382380D01*
X93335714Y-83334761D01*
X93288095Y-83287142D01*
X93240476Y-83191904D01*
X93240476Y-82382380D01*
X92335714Y-82715714D02*
X92335714Y-83382380D01*
X92573809Y-82334761D02*
X92811904Y-83049047D01*
X92192857Y-83049047D01*
G04 #@! TO.C,U3*
X63811904Y-82382380D02*
X63811904Y-83191904D01*
X63764285Y-83287142D01*
X63716666Y-83334761D01*
X63621428Y-83382380D01*
X63430952Y-83382380D01*
X63335714Y-83334761D01*
X63288095Y-83287142D01*
X63240476Y-83191904D01*
X63240476Y-82382380D01*
X62859523Y-82382380D02*
X62240476Y-82382380D01*
X62573809Y-82763333D01*
X62430952Y-82763333D01*
X62335714Y-82810952D01*
X62288095Y-82858571D01*
X62240476Y-82953809D01*
X62240476Y-83191904D01*
X62288095Y-83287142D01*
X62335714Y-83334761D01*
X62430952Y-83382380D01*
X62716666Y-83382380D01*
X62811904Y-83334761D01*
X62859523Y-83287142D01*
G04 #@! TO.C,D2*
X111788095Y-49382380D02*
X111788095Y-48382380D01*
X111550000Y-48382380D01*
X111407142Y-48430000D01*
X111311904Y-48525238D01*
X111264285Y-48620476D01*
X111216666Y-48810952D01*
X111216666Y-48953809D01*
X111264285Y-49144285D01*
X111311904Y-49239523D01*
X111407142Y-49334761D01*
X111550000Y-49382380D01*
X111788095Y-49382380D01*
X110835714Y-48477619D02*
X110788095Y-48430000D01*
X110692857Y-48382380D01*
X110454761Y-48382380D01*
X110359523Y-48430000D01*
X110311904Y-48477619D01*
X110264285Y-48572857D01*
X110264285Y-48668095D01*
X110311904Y-48810952D01*
X110883333Y-49382380D01*
X110264285Y-49382380D01*
G04 #@! TO.C,D1*
X102288095Y-49382380D02*
X102288095Y-48382380D01*
X102050000Y-48382380D01*
X101907142Y-48430000D01*
X101811904Y-48525238D01*
X101764285Y-48620476D01*
X101716666Y-48810952D01*
X101716666Y-48953809D01*
X101764285Y-49144285D01*
X101811904Y-49239523D01*
X101907142Y-49334761D01*
X102050000Y-49382380D01*
X102288095Y-49382380D01*
X100764285Y-49382380D02*
X101335714Y-49382380D01*
X101050000Y-49382380D02*
X101050000Y-48382380D01*
X101145238Y-48525238D01*
X101240476Y-48620476D01*
X101335714Y-48668095D01*
G04 #@! TO.C,C1*
X48216666Y-95537142D02*
X48264285Y-95584761D01*
X48407142Y-95632380D01*
X48502380Y-95632380D01*
X48645238Y-95584761D01*
X48740476Y-95489523D01*
X48788095Y-95394285D01*
X48835714Y-95203809D01*
X48835714Y-95060952D01*
X48788095Y-94870476D01*
X48740476Y-94775238D01*
X48645238Y-94680000D01*
X48502380Y-94632380D01*
X48407142Y-94632380D01*
X48264285Y-94680000D01*
X48216666Y-94727619D01*
X47264285Y-95632380D02*
X47835714Y-95632380D01*
X47550000Y-95632380D02*
X47550000Y-94632380D01*
X47645238Y-94775238D01*
X47740476Y-94870476D01*
X47835714Y-94918095D01*
G04 #@! TO.C,C2*
X48216666Y-86787142D02*
X48264285Y-86834761D01*
X48407142Y-86882380D01*
X48502380Y-86882380D01*
X48645238Y-86834761D01*
X48740476Y-86739523D01*
X48788095Y-86644285D01*
X48835714Y-86453809D01*
X48835714Y-86310952D01*
X48788095Y-86120476D01*
X48740476Y-86025238D01*
X48645238Y-85930000D01*
X48502380Y-85882380D01*
X48407142Y-85882380D01*
X48264285Y-85930000D01*
X48216666Y-85977619D01*
X47835714Y-85977619D02*
X47788095Y-85930000D01*
X47692857Y-85882380D01*
X47454761Y-85882380D01*
X47359523Y-85930000D01*
X47311904Y-85977619D01*
X47264285Y-86072857D01*
X47264285Y-86168095D01*
X47311904Y-86310952D01*
X47883333Y-86882380D01*
X47264285Y-86882380D01*
G04 #@! TO.C,C4*
X56241666Y-85137142D02*
X56289285Y-85184761D01*
X56432142Y-85232380D01*
X56527380Y-85232380D01*
X56670238Y-85184761D01*
X56765476Y-85089523D01*
X56813095Y-84994285D01*
X56860714Y-84803809D01*
X56860714Y-84660952D01*
X56813095Y-84470476D01*
X56765476Y-84375238D01*
X56670238Y-84280000D01*
X56527380Y-84232380D01*
X56432142Y-84232380D01*
X56289285Y-84280000D01*
X56241666Y-84327619D01*
X55384523Y-84565714D02*
X55384523Y-85232380D01*
X55622619Y-84184761D02*
X55860714Y-84899047D01*
X55241666Y-84899047D01*
G04 #@! TO.C,C5*
X100216666Y-84887142D02*
X100264285Y-84934761D01*
X100407142Y-84982380D01*
X100502380Y-84982380D01*
X100645238Y-84934761D01*
X100740476Y-84839523D01*
X100788095Y-84744285D01*
X100835714Y-84553809D01*
X100835714Y-84410952D01*
X100788095Y-84220476D01*
X100740476Y-84125238D01*
X100645238Y-84030000D01*
X100502380Y-83982380D01*
X100407142Y-83982380D01*
X100264285Y-84030000D01*
X100216666Y-84077619D01*
X99311904Y-83982380D02*
X99788095Y-83982380D01*
X99835714Y-84458571D01*
X99788095Y-84410952D01*
X99692857Y-84363333D01*
X99454761Y-84363333D01*
X99359523Y-84410952D01*
X99311904Y-84458571D01*
X99264285Y-84553809D01*
X99264285Y-84791904D01*
X99311904Y-84887142D01*
X99359523Y-84934761D01*
X99454761Y-84982380D01*
X99692857Y-84982380D01*
X99788095Y-84934761D01*
X99835714Y-84887142D01*
G04 #@! TO.C,U1*
X41502380Y-90168095D02*
X42311904Y-90168095D01*
X42407142Y-90215714D01*
X42454761Y-90263333D01*
X42502380Y-90358571D01*
X42502380Y-90549047D01*
X42454761Y-90644285D01*
X42407142Y-90691904D01*
X42311904Y-90739523D01*
X41502380Y-90739523D01*
X42502380Y-91739523D02*
X42502380Y-91168095D01*
X42502380Y-91453809D02*
X41502380Y-91453809D01*
X41645238Y-91358571D01*
X41740476Y-91263333D01*
X41788095Y-91168095D01*
G04 #@! TO.C,Q2*
X102497619Y-60084761D02*
X102450000Y-59989523D01*
X102354761Y-59894285D01*
X102211904Y-59751428D01*
X102164285Y-59656190D01*
X102164285Y-59560952D01*
X102402380Y-59608571D02*
X102354761Y-59513333D01*
X102259523Y-59418095D01*
X102069047Y-59370476D01*
X101735714Y-59370476D01*
X101545238Y-59418095D01*
X101450000Y-59513333D01*
X101402380Y-59608571D01*
X101402380Y-59799047D01*
X101450000Y-59894285D01*
X101545238Y-59989523D01*
X101735714Y-60037142D01*
X102069047Y-60037142D01*
X102259523Y-59989523D01*
X102354761Y-59894285D01*
X102402380Y-59799047D01*
X102402380Y-59608571D01*
X101497619Y-60418095D02*
X101450000Y-60465714D01*
X101402380Y-60560952D01*
X101402380Y-60799047D01*
X101450000Y-60894285D01*
X101497619Y-60941904D01*
X101592857Y-60989523D01*
X101688095Y-60989523D01*
X101830952Y-60941904D01*
X102402380Y-60370476D01*
X102402380Y-60989523D01*
G04 #@! TO.C,R3*
X99752380Y-60013333D02*
X99276190Y-59680000D01*
X99752380Y-59441904D02*
X98752380Y-59441904D01*
X98752380Y-59822857D01*
X98800000Y-59918095D01*
X98847619Y-59965714D01*
X98942857Y-60013333D01*
X99085714Y-60013333D01*
X99180952Y-59965714D01*
X99228571Y-59918095D01*
X99276190Y-59822857D01*
X99276190Y-59441904D01*
X98752380Y-60346666D02*
X98752380Y-60965714D01*
X99133333Y-60632380D01*
X99133333Y-60775238D01*
X99180952Y-60870476D01*
X99228571Y-60918095D01*
X99323809Y-60965714D01*
X99561904Y-60965714D01*
X99657142Y-60918095D01*
X99704761Y-60870476D01*
X99752380Y-60775238D01*
X99752380Y-60489523D01*
X99704761Y-60394285D01*
X99657142Y-60346666D01*
G04 #@! TO.C,R14*
X78592857Y-70582380D02*
X78926190Y-70106190D01*
X79164285Y-70582380D02*
X79164285Y-69582380D01*
X78783333Y-69582380D01*
X78688095Y-69630000D01*
X78640476Y-69677619D01*
X78592857Y-69772857D01*
X78592857Y-69915714D01*
X78640476Y-70010952D01*
X78688095Y-70058571D01*
X78783333Y-70106190D01*
X79164285Y-70106190D01*
X77640476Y-70582380D02*
X78211904Y-70582380D01*
X77926190Y-70582380D02*
X77926190Y-69582380D01*
X78021428Y-69725238D01*
X78116666Y-69820476D01*
X78211904Y-69868095D01*
X76783333Y-69915714D02*
X76783333Y-70582380D01*
X77021428Y-69534761D02*
X77259523Y-70249047D01*
X76640476Y-70249047D01*
G04 #@! TO.C,R13*
X78592857Y-76382380D02*
X78926190Y-75906190D01*
X79164285Y-76382380D02*
X79164285Y-75382380D01*
X78783333Y-75382380D01*
X78688095Y-75430000D01*
X78640476Y-75477619D01*
X78592857Y-75572857D01*
X78592857Y-75715714D01*
X78640476Y-75810952D01*
X78688095Y-75858571D01*
X78783333Y-75906190D01*
X79164285Y-75906190D01*
X77640476Y-76382380D02*
X78211904Y-76382380D01*
X77926190Y-76382380D02*
X77926190Y-75382380D01*
X78021428Y-75525238D01*
X78116666Y-75620476D01*
X78211904Y-75668095D01*
X77307142Y-75382380D02*
X76688095Y-75382380D01*
X77021428Y-75763333D01*
X76878571Y-75763333D01*
X76783333Y-75810952D01*
X76735714Y-75858571D01*
X76688095Y-75953809D01*
X76688095Y-76191904D01*
X76735714Y-76287142D01*
X76783333Y-76334761D01*
X76878571Y-76382380D01*
X77164285Y-76382380D01*
X77259523Y-76334761D01*
X77307142Y-76287142D01*
G04 #@! TO.C,R5*
X54716666Y-51982380D02*
X55050000Y-51506190D01*
X55288095Y-51982380D02*
X55288095Y-50982380D01*
X54907142Y-50982380D01*
X54811904Y-51030000D01*
X54764285Y-51077619D01*
X54716666Y-51172857D01*
X54716666Y-51315714D01*
X54764285Y-51410952D01*
X54811904Y-51458571D01*
X54907142Y-51506190D01*
X55288095Y-51506190D01*
X53811904Y-50982380D02*
X54288095Y-50982380D01*
X54335714Y-51458571D01*
X54288095Y-51410952D01*
X54192857Y-51363333D01*
X53954761Y-51363333D01*
X53859523Y-51410952D01*
X53811904Y-51458571D01*
X53764285Y-51553809D01*
X53764285Y-51791904D01*
X53811904Y-51887142D01*
X53859523Y-51934761D01*
X53954761Y-51982380D01*
X54192857Y-51982380D01*
X54288095Y-51934761D01*
X54335714Y-51887142D01*
G04 #@! TO.C,R8*
X54716666Y-61182380D02*
X55050000Y-60706190D01*
X55288095Y-61182380D02*
X55288095Y-60182380D01*
X54907142Y-60182380D01*
X54811904Y-60230000D01*
X54764285Y-60277619D01*
X54716666Y-60372857D01*
X54716666Y-60515714D01*
X54764285Y-60610952D01*
X54811904Y-60658571D01*
X54907142Y-60706190D01*
X55288095Y-60706190D01*
X54145238Y-60610952D02*
X54240476Y-60563333D01*
X54288095Y-60515714D01*
X54335714Y-60420476D01*
X54335714Y-60372857D01*
X54288095Y-60277619D01*
X54240476Y-60230000D01*
X54145238Y-60182380D01*
X53954761Y-60182380D01*
X53859523Y-60230000D01*
X53811904Y-60277619D01*
X53764285Y-60372857D01*
X53764285Y-60420476D01*
X53811904Y-60515714D01*
X53859523Y-60563333D01*
X53954761Y-60610952D01*
X54145238Y-60610952D01*
X54240476Y-60658571D01*
X54288095Y-60706190D01*
X54335714Y-60801428D01*
X54335714Y-60991904D01*
X54288095Y-61087142D01*
X54240476Y-61134761D01*
X54145238Y-61182380D01*
X53954761Y-61182380D01*
X53859523Y-61134761D01*
X53811904Y-61087142D01*
X53764285Y-60991904D01*
X53764285Y-60801428D01*
X53811904Y-60706190D01*
X53859523Y-60658571D01*
X53954761Y-60610952D01*
G04 #@! TO.C,R4*
X111216666Y-51382380D02*
X111550000Y-50906190D01*
X111788095Y-51382380D02*
X111788095Y-50382380D01*
X111407142Y-50382380D01*
X111311904Y-50430000D01*
X111264285Y-50477619D01*
X111216666Y-50572857D01*
X111216666Y-50715714D01*
X111264285Y-50810952D01*
X111311904Y-50858571D01*
X111407142Y-50906190D01*
X111788095Y-50906190D01*
X110359523Y-50715714D02*
X110359523Y-51382380D01*
X110597619Y-50334761D02*
X110835714Y-51049047D01*
X110216666Y-51049047D01*
G04 #@! TO.C,R2*
X101716666Y-51382380D02*
X102050000Y-50906190D01*
X102288095Y-51382380D02*
X102288095Y-50382380D01*
X101907142Y-50382380D01*
X101811904Y-50430000D01*
X101764285Y-50477619D01*
X101716666Y-50572857D01*
X101716666Y-50715714D01*
X101764285Y-50810952D01*
X101811904Y-50858571D01*
X101907142Y-50906190D01*
X102288095Y-50906190D01*
X101335714Y-50477619D02*
X101288095Y-50430000D01*
X101192857Y-50382380D01*
X100954761Y-50382380D01*
X100859523Y-50430000D01*
X100811904Y-50477619D01*
X100764285Y-50572857D01*
X100764285Y-50668095D01*
X100811904Y-50810952D01*
X101383333Y-51382380D01*
X100764285Y-51382380D01*
G04 #@! TO.C,R1*
X102966666Y-96882380D02*
X103300000Y-96406190D01*
X103538095Y-96882380D02*
X103538095Y-95882380D01*
X103157142Y-95882380D01*
X103061904Y-95930000D01*
X103014285Y-95977619D01*
X102966666Y-96072857D01*
X102966666Y-96215714D01*
X103014285Y-96310952D01*
X103061904Y-96358571D01*
X103157142Y-96406190D01*
X103538095Y-96406190D01*
X102014285Y-96882380D02*
X102585714Y-96882380D01*
X102300000Y-96882380D02*
X102300000Y-95882380D01*
X102395238Y-96025238D01*
X102490476Y-96120476D01*
X102585714Y-96168095D01*
G04 #@! TO.C,R7*
X54716666Y-59382380D02*
X55050000Y-58906190D01*
X55288095Y-59382380D02*
X55288095Y-58382380D01*
X54907142Y-58382380D01*
X54811904Y-58430000D01*
X54764285Y-58477619D01*
X54716666Y-58572857D01*
X54716666Y-58715714D01*
X54764285Y-58810952D01*
X54811904Y-58858571D01*
X54907142Y-58906190D01*
X55288095Y-58906190D01*
X54383333Y-58382380D02*
X53716666Y-58382380D01*
X54145238Y-59382380D01*
G04 #@! TO.C,R6*
X54716666Y-57582380D02*
X55050000Y-57106190D01*
X55288095Y-57582380D02*
X55288095Y-56582380D01*
X54907142Y-56582380D01*
X54811904Y-56630000D01*
X54764285Y-56677619D01*
X54716666Y-56772857D01*
X54716666Y-56915714D01*
X54764285Y-57010952D01*
X54811904Y-57058571D01*
X54907142Y-57106190D01*
X55288095Y-57106190D01*
X53859523Y-56582380D02*
X54050000Y-56582380D01*
X54145238Y-56630000D01*
X54192857Y-56677619D01*
X54288095Y-56820476D01*
X54335714Y-57010952D01*
X54335714Y-57391904D01*
X54288095Y-57487142D01*
X54240476Y-57534761D01*
X54145238Y-57582380D01*
X53954761Y-57582380D01*
X53859523Y-57534761D01*
X53811904Y-57487142D01*
X53764285Y-57391904D01*
X53764285Y-57153809D01*
X53811904Y-57058571D01*
X53859523Y-57010952D01*
X53954761Y-56963333D01*
X54145238Y-56963333D01*
X54240476Y-57010952D01*
X54288095Y-57058571D01*
X54335714Y-57153809D01*
G04 #@! TO.C,L1*
X50716666Y-87882380D02*
X51192857Y-87882380D01*
X51192857Y-86882380D01*
X49859523Y-87882380D02*
X50430952Y-87882380D01*
X50145238Y-87882380D02*
X50145238Y-86882380D01*
X50240476Y-87025238D01*
X50335714Y-87120476D01*
X50430952Y-87168095D01*
G04 #@! TO.C,SD1*
X64454761Y-54668095D02*
X64502380Y-54810952D01*
X64502380Y-55049047D01*
X64454761Y-55144285D01*
X64407142Y-55191904D01*
X64311904Y-55239523D01*
X64216666Y-55239523D01*
X64121428Y-55191904D01*
X64073809Y-55144285D01*
X64026190Y-55049047D01*
X63978571Y-54858571D01*
X63930952Y-54763333D01*
X63883333Y-54715714D01*
X63788095Y-54668095D01*
X63692857Y-54668095D01*
X63597619Y-54715714D01*
X63550000Y-54763333D01*
X63502380Y-54858571D01*
X63502380Y-55096666D01*
X63550000Y-55239523D01*
X64502380Y-55668095D02*
X63502380Y-55668095D01*
X63502380Y-55906190D01*
X63550000Y-56049047D01*
X63645238Y-56144285D01*
X63740476Y-56191904D01*
X63930952Y-56239523D01*
X64073809Y-56239523D01*
X64264285Y-56191904D01*
X64359523Y-56144285D01*
X64454761Y-56049047D01*
X64502380Y-55906190D01*
X64502380Y-55668095D01*
X64502380Y-57191904D02*
X64502380Y-56620476D01*
X64502380Y-56906190D02*
X63502380Y-56906190D01*
X63645238Y-56810952D01*
X63740476Y-56715714D01*
X63788095Y-56620476D01*
G04 #@! TD*
%LPC*%
D12*
G04 #@! TO.C,C3*
G36*
X58810779Y-54681144D02*
X58833834Y-54684563D01*
X58856443Y-54690227D01*
X58878387Y-54698079D01*
X58899457Y-54708044D01*
X58919448Y-54720026D01*
X58938168Y-54733910D01*
X58955438Y-54749562D01*
X58971090Y-54766832D01*
X58984974Y-54785552D01*
X58996956Y-54805543D01*
X59006921Y-54826613D01*
X59014773Y-54848557D01*
X59020437Y-54871166D01*
X59023856Y-54894221D01*
X59025000Y-54917500D01*
X59025000Y-55492500D01*
X59023856Y-55515779D01*
X59020437Y-55538834D01*
X59014773Y-55561443D01*
X59006921Y-55583387D01*
X58996956Y-55604457D01*
X58984974Y-55624448D01*
X58971090Y-55643168D01*
X58955438Y-55660438D01*
X58938168Y-55676090D01*
X58919448Y-55689974D01*
X58899457Y-55701956D01*
X58878387Y-55711921D01*
X58856443Y-55719773D01*
X58833834Y-55725437D01*
X58810779Y-55728856D01*
X58787500Y-55730000D01*
X58312500Y-55730000D01*
X58289221Y-55728856D01*
X58266166Y-55725437D01*
X58243557Y-55719773D01*
X58221613Y-55711921D01*
X58200543Y-55701956D01*
X58180552Y-55689974D01*
X58161832Y-55676090D01*
X58144562Y-55660438D01*
X58128910Y-55643168D01*
X58115026Y-55624448D01*
X58103044Y-55604457D01*
X58093079Y-55583387D01*
X58085227Y-55561443D01*
X58079563Y-55538834D01*
X58076144Y-55515779D01*
X58075000Y-55492500D01*
X58075000Y-54917500D01*
X58076144Y-54894221D01*
X58079563Y-54871166D01*
X58085227Y-54848557D01*
X58093079Y-54826613D01*
X58103044Y-54805543D01*
X58115026Y-54785552D01*
X58128910Y-54766832D01*
X58144562Y-54749562D01*
X58161832Y-54733910D01*
X58180552Y-54720026D01*
X58200543Y-54708044D01*
X58221613Y-54698079D01*
X58243557Y-54690227D01*
X58266166Y-54684563D01*
X58289221Y-54681144D01*
X58312500Y-54680000D01*
X58787500Y-54680000D01*
X58810779Y-54681144D01*
X58810779Y-54681144D01*
G37*
D13*
X58550000Y-55205000D03*
D12*
G36*
X58810779Y-52931144D02*
X58833834Y-52934563D01*
X58856443Y-52940227D01*
X58878387Y-52948079D01*
X58899457Y-52958044D01*
X58919448Y-52970026D01*
X58938168Y-52983910D01*
X58955438Y-52999562D01*
X58971090Y-53016832D01*
X58984974Y-53035552D01*
X58996956Y-53055543D01*
X59006921Y-53076613D01*
X59014773Y-53098557D01*
X59020437Y-53121166D01*
X59023856Y-53144221D01*
X59025000Y-53167500D01*
X59025000Y-53742500D01*
X59023856Y-53765779D01*
X59020437Y-53788834D01*
X59014773Y-53811443D01*
X59006921Y-53833387D01*
X58996956Y-53854457D01*
X58984974Y-53874448D01*
X58971090Y-53893168D01*
X58955438Y-53910438D01*
X58938168Y-53926090D01*
X58919448Y-53939974D01*
X58899457Y-53951956D01*
X58878387Y-53961921D01*
X58856443Y-53969773D01*
X58833834Y-53975437D01*
X58810779Y-53978856D01*
X58787500Y-53980000D01*
X58312500Y-53980000D01*
X58289221Y-53978856D01*
X58266166Y-53975437D01*
X58243557Y-53969773D01*
X58221613Y-53961921D01*
X58200543Y-53951956D01*
X58180552Y-53939974D01*
X58161832Y-53926090D01*
X58144562Y-53910438D01*
X58128910Y-53893168D01*
X58115026Y-53874448D01*
X58103044Y-53854457D01*
X58093079Y-53833387D01*
X58085227Y-53811443D01*
X58079563Y-53788834D01*
X58076144Y-53765779D01*
X58075000Y-53742500D01*
X58075000Y-53167500D01*
X58076144Y-53144221D01*
X58079563Y-53121166D01*
X58085227Y-53098557D01*
X58093079Y-53076613D01*
X58103044Y-53055543D01*
X58115026Y-53035552D01*
X58128910Y-53016832D01*
X58144562Y-52999562D01*
X58161832Y-52983910D01*
X58180552Y-52970026D01*
X58200543Y-52958044D01*
X58221613Y-52948079D01*
X58243557Y-52940227D01*
X58266166Y-52934563D01*
X58289221Y-52931144D01*
X58312500Y-52930000D01*
X58787500Y-52930000D01*
X58810779Y-52931144D01*
X58810779Y-52931144D01*
G37*
D13*
X58550000Y-53455000D03*
G04 #@! TD*
D14*
G04 #@! TO.C,Q1*
X107555000Y-92880000D03*
X106285000Y-92880000D03*
X105015000Y-92880000D03*
X103745000Y-92880000D03*
X103745000Y-87480000D03*
X105015000Y-87480000D03*
X106285000Y-87480000D03*
X107555000Y-87480000D03*
G04 #@! TD*
D15*
G04 #@! TO.C,U4*
X90350000Y-84525000D03*
X90350000Y-85795000D03*
X90350000Y-87065000D03*
X90350000Y-88335000D03*
X95750000Y-88335000D03*
X95750000Y-87065000D03*
X95750000Y-85795000D03*
X95750000Y-84525000D03*
G04 #@! TD*
G04 #@! TO.C,U3*
X65750000Y-84525000D03*
X65750000Y-85795000D03*
X65750000Y-87065000D03*
X65750000Y-88335000D03*
X60350000Y-88335000D03*
X60350000Y-87065000D03*
X60350000Y-85795000D03*
X60350000Y-84525000D03*
G04 #@! TD*
D12*
G04 #@! TO.C,D2*
G36*
X109720829Y-48506023D02*
X109741457Y-48509083D01*
X109761685Y-48514150D01*
X109781320Y-48521176D01*
X109800172Y-48530092D01*
X109818059Y-48540813D01*
X109834809Y-48553235D01*
X109850260Y-48567240D01*
X109864265Y-48582691D01*
X109876687Y-48599441D01*
X109887408Y-48617328D01*
X109896324Y-48636180D01*
X109903350Y-48655815D01*
X109908417Y-48676043D01*
X109911477Y-48696671D01*
X109912500Y-48717500D01*
X109912500Y-49142500D01*
X109911477Y-49163329D01*
X109908417Y-49183957D01*
X109903350Y-49204185D01*
X109896324Y-49223820D01*
X109887408Y-49242672D01*
X109876687Y-49260559D01*
X109864265Y-49277309D01*
X109850260Y-49292760D01*
X109834809Y-49306765D01*
X109818059Y-49319187D01*
X109800172Y-49329908D01*
X109781320Y-49338824D01*
X109761685Y-49345850D01*
X109741457Y-49350917D01*
X109720829Y-49353977D01*
X109700000Y-49355000D01*
X108900000Y-49355000D01*
X108879171Y-49353977D01*
X108858543Y-49350917D01*
X108838315Y-49345850D01*
X108818680Y-49338824D01*
X108799828Y-49329908D01*
X108781941Y-49319187D01*
X108765191Y-49306765D01*
X108749740Y-49292760D01*
X108735735Y-49277309D01*
X108723313Y-49260559D01*
X108712592Y-49242672D01*
X108703676Y-49223820D01*
X108696650Y-49204185D01*
X108691583Y-49183957D01*
X108688523Y-49163329D01*
X108687500Y-49142500D01*
X108687500Y-48717500D01*
X108688523Y-48696671D01*
X108691583Y-48676043D01*
X108696650Y-48655815D01*
X108703676Y-48636180D01*
X108712592Y-48617328D01*
X108723313Y-48599441D01*
X108735735Y-48582691D01*
X108749740Y-48567240D01*
X108765191Y-48553235D01*
X108781941Y-48540813D01*
X108799828Y-48530092D01*
X108818680Y-48521176D01*
X108838315Y-48514150D01*
X108858543Y-48509083D01*
X108879171Y-48506023D01*
X108900000Y-48505000D01*
X109700000Y-48505000D01*
X109720829Y-48506023D01*
X109720829Y-48506023D01*
G37*
D16*
X109300000Y-48930000D03*
D12*
G36*
X108095829Y-48506023D02*
X108116457Y-48509083D01*
X108136685Y-48514150D01*
X108156320Y-48521176D01*
X108175172Y-48530092D01*
X108193059Y-48540813D01*
X108209809Y-48553235D01*
X108225260Y-48567240D01*
X108239265Y-48582691D01*
X108251687Y-48599441D01*
X108262408Y-48617328D01*
X108271324Y-48636180D01*
X108278350Y-48655815D01*
X108283417Y-48676043D01*
X108286477Y-48696671D01*
X108287500Y-48717500D01*
X108287500Y-49142500D01*
X108286477Y-49163329D01*
X108283417Y-49183957D01*
X108278350Y-49204185D01*
X108271324Y-49223820D01*
X108262408Y-49242672D01*
X108251687Y-49260559D01*
X108239265Y-49277309D01*
X108225260Y-49292760D01*
X108209809Y-49306765D01*
X108193059Y-49319187D01*
X108175172Y-49329908D01*
X108156320Y-49338824D01*
X108136685Y-49345850D01*
X108116457Y-49350917D01*
X108095829Y-49353977D01*
X108075000Y-49355000D01*
X107275000Y-49355000D01*
X107254171Y-49353977D01*
X107233543Y-49350917D01*
X107213315Y-49345850D01*
X107193680Y-49338824D01*
X107174828Y-49329908D01*
X107156941Y-49319187D01*
X107140191Y-49306765D01*
X107124740Y-49292760D01*
X107110735Y-49277309D01*
X107098313Y-49260559D01*
X107087592Y-49242672D01*
X107078676Y-49223820D01*
X107071650Y-49204185D01*
X107066583Y-49183957D01*
X107063523Y-49163329D01*
X107062500Y-49142500D01*
X107062500Y-48717500D01*
X107063523Y-48696671D01*
X107066583Y-48676043D01*
X107071650Y-48655815D01*
X107078676Y-48636180D01*
X107087592Y-48617328D01*
X107098313Y-48599441D01*
X107110735Y-48582691D01*
X107124740Y-48567240D01*
X107140191Y-48553235D01*
X107156941Y-48540813D01*
X107174828Y-48530092D01*
X107193680Y-48521176D01*
X107213315Y-48514150D01*
X107233543Y-48509083D01*
X107254171Y-48506023D01*
X107275000Y-48505000D01*
X108075000Y-48505000D01*
X108095829Y-48506023D01*
X108095829Y-48506023D01*
G37*
D16*
X107675000Y-48930000D03*
G04 #@! TD*
D12*
G04 #@! TO.C,D1*
G36*
X103908329Y-48506023D02*
X103928957Y-48509083D01*
X103949185Y-48514150D01*
X103968820Y-48521176D01*
X103987672Y-48530092D01*
X104005559Y-48540813D01*
X104022309Y-48553235D01*
X104037760Y-48567240D01*
X104051765Y-48582691D01*
X104064187Y-48599441D01*
X104074908Y-48617328D01*
X104083824Y-48636180D01*
X104090850Y-48655815D01*
X104095917Y-48676043D01*
X104098977Y-48696671D01*
X104100000Y-48717500D01*
X104100000Y-49142500D01*
X104098977Y-49163329D01*
X104095917Y-49183957D01*
X104090850Y-49204185D01*
X104083824Y-49223820D01*
X104074908Y-49242672D01*
X104064187Y-49260559D01*
X104051765Y-49277309D01*
X104037760Y-49292760D01*
X104022309Y-49306765D01*
X104005559Y-49319187D01*
X103987672Y-49329908D01*
X103968820Y-49338824D01*
X103949185Y-49345850D01*
X103928957Y-49350917D01*
X103908329Y-49353977D01*
X103887500Y-49355000D01*
X103087500Y-49355000D01*
X103066671Y-49353977D01*
X103046043Y-49350917D01*
X103025815Y-49345850D01*
X103006180Y-49338824D01*
X102987328Y-49329908D01*
X102969441Y-49319187D01*
X102952691Y-49306765D01*
X102937240Y-49292760D01*
X102923235Y-49277309D01*
X102910813Y-49260559D01*
X102900092Y-49242672D01*
X102891176Y-49223820D01*
X102884150Y-49204185D01*
X102879083Y-49183957D01*
X102876023Y-49163329D01*
X102875000Y-49142500D01*
X102875000Y-48717500D01*
X102876023Y-48696671D01*
X102879083Y-48676043D01*
X102884150Y-48655815D01*
X102891176Y-48636180D01*
X102900092Y-48617328D01*
X102910813Y-48599441D01*
X102923235Y-48582691D01*
X102937240Y-48567240D01*
X102952691Y-48553235D01*
X102969441Y-48540813D01*
X102987328Y-48530092D01*
X103006180Y-48521176D01*
X103025815Y-48514150D01*
X103046043Y-48509083D01*
X103066671Y-48506023D01*
X103087500Y-48505000D01*
X103887500Y-48505000D01*
X103908329Y-48506023D01*
X103908329Y-48506023D01*
G37*
D16*
X103487500Y-48930000D03*
D12*
G36*
X105533329Y-48506023D02*
X105553957Y-48509083D01*
X105574185Y-48514150D01*
X105593820Y-48521176D01*
X105612672Y-48530092D01*
X105630559Y-48540813D01*
X105647309Y-48553235D01*
X105662760Y-48567240D01*
X105676765Y-48582691D01*
X105689187Y-48599441D01*
X105699908Y-48617328D01*
X105708824Y-48636180D01*
X105715850Y-48655815D01*
X105720917Y-48676043D01*
X105723977Y-48696671D01*
X105725000Y-48717500D01*
X105725000Y-49142500D01*
X105723977Y-49163329D01*
X105720917Y-49183957D01*
X105715850Y-49204185D01*
X105708824Y-49223820D01*
X105699908Y-49242672D01*
X105689187Y-49260559D01*
X105676765Y-49277309D01*
X105662760Y-49292760D01*
X105647309Y-49306765D01*
X105630559Y-49319187D01*
X105612672Y-49329908D01*
X105593820Y-49338824D01*
X105574185Y-49345850D01*
X105553957Y-49350917D01*
X105533329Y-49353977D01*
X105512500Y-49355000D01*
X104712500Y-49355000D01*
X104691671Y-49353977D01*
X104671043Y-49350917D01*
X104650815Y-49345850D01*
X104631180Y-49338824D01*
X104612328Y-49329908D01*
X104594441Y-49319187D01*
X104577691Y-49306765D01*
X104562240Y-49292760D01*
X104548235Y-49277309D01*
X104535813Y-49260559D01*
X104525092Y-49242672D01*
X104516176Y-49223820D01*
X104509150Y-49204185D01*
X104504083Y-49183957D01*
X104501023Y-49163329D01*
X104500000Y-49142500D01*
X104500000Y-48717500D01*
X104501023Y-48696671D01*
X104504083Y-48676043D01*
X104509150Y-48655815D01*
X104516176Y-48636180D01*
X104525092Y-48617328D01*
X104535813Y-48599441D01*
X104548235Y-48582691D01*
X104562240Y-48567240D01*
X104577691Y-48553235D01*
X104594441Y-48540813D01*
X104612328Y-48530092D01*
X104631180Y-48521176D01*
X104650815Y-48514150D01*
X104671043Y-48509083D01*
X104691671Y-48506023D01*
X104712500Y-48505000D01*
X105512500Y-48505000D01*
X105533329Y-48506023D01*
X105533329Y-48506023D01*
G37*
D16*
X105112500Y-48930000D03*
G04 #@! TD*
D12*
G04 #@! TO.C,C1*
G36*
X46249505Y-94531204D02*
X46273773Y-94534804D01*
X46297572Y-94540765D01*
X46320671Y-94549030D01*
X46342850Y-94559520D01*
X46363893Y-94572132D01*
X46383599Y-94586747D01*
X46401777Y-94603223D01*
X46418253Y-94621401D01*
X46432868Y-94641107D01*
X46445480Y-94662150D01*
X46455970Y-94684329D01*
X46464235Y-94707428D01*
X46470196Y-94731227D01*
X46473796Y-94755495D01*
X46475000Y-94779999D01*
X46475000Y-95680001D01*
X46473796Y-95704505D01*
X46470196Y-95728773D01*
X46464235Y-95752572D01*
X46455970Y-95775671D01*
X46445480Y-95797850D01*
X46432868Y-95818893D01*
X46418253Y-95838599D01*
X46401777Y-95856777D01*
X46383599Y-95873253D01*
X46363893Y-95887868D01*
X46342850Y-95900480D01*
X46320671Y-95910970D01*
X46297572Y-95919235D01*
X46273773Y-95925196D01*
X46249505Y-95928796D01*
X46225001Y-95930000D01*
X45574999Y-95930000D01*
X45550495Y-95928796D01*
X45526227Y-95925196D01*
X45502428Y-95919235D01*
X45479329Y-95910970D01*
X45457150Y-95900480D01*
X45436107Y-95887868D01*
X45416401Y-95873253D01*
X45398223Y-95856777D01*
X45381747Y-95838599D01*
X45367132Y-95818893D01*
X45354520Y-95797850D01*
X45344030Y-95775671D01*
X45335765Y-95752572D01*
X45329804Y-95728773D01*
X45326204Y-95704505D01*
X45325000Y-95680001D01*
X45325000Y-94779999D01*
X45326204Y-94755495D01*
X45329804Y-94731227D01*
X45335765Y-94707428D01*
X45344030Y-94684329D01*
X45354520Y-94662150D01*
X45367132Y-94641107D01*
X45381747Y-94621401D01*
X45398223Y-94603223D01*
X45416401Y-94586747D01*
X45436107Y-94572132D01*
X45457150Y-94559520D01*
X45479329Y-94549030D01*
X45502428Y-94540765D01*
X45526227Y-94534804D01*
X45550495Y-94531204D01*
X45574999Y-94530000D01*
X46225001Y-94530000D01*
X46249505Y-94531204D01*
X46249505Y-94531204D01*
G37*
D17*
X45900000Y-95230000D03*
D12*
G36*
X44199505Y-94531204D02*
X44223773Y-94534804D01*
X44247572Y-94540765D01*
X44270671Y-94549030D01*
X44292850Y-94559520D01*
X44313893Y-94572132D01*
X44333599Y-94586747D01*
X44351777Y-94603223D01*
X44368253Y-94621401D01*
X44382868Y-94641107D01*
X44395480Y-94662150D01*
X44405970Y-94684329D01*
X44414235Y-94707428D01*
X44420196Y-94731227D01*
X44423796Y-94755495D01*
X44425000Y-94779999D01*
X44425000Y-95680001D01*
X44423796Y-95704505D01*
X44420196Y-95728773D01*
X44414235Y-95752572D01*
X44405970Y-95775671D01*
X44395480Y-95797850D01*
X44382868Y-95818893D01*
X44368253Y-95838599D01*
X44351777Y-95856777D01*
X44333599Y-95873253D01*
X44313893Y-95887868D01*
X44292850Y-95900480D01*
X44270671Y-95910970D01*
X44247572Y-95919235D01*
X44223773Y-95925196D01*
X44199505Y-95928796D01*
X44175001Y-95930000D01*
X43524999Y-95930000D01*
X43500495Y-95928796D01*
X43476227Y-95925196D01*
X43452428Y-95919235D01*
X43429329Y-95910970D01*
X43407150Y-95900480D01*
X43386107Y-95887868D01*
X43366401Y-95873253D01*
X43348223Y-95856777D01*
X43331747Y-95838599D01*
X43317132Y-95818893D01*
X43304520Y-95797850D01*
X43294030Y-95775671D01*
X43285765Y-95752572D01*
X43279804Y-95728773D01*
X43276204Y-95704505D01*
X43275000Y-95680001D01*
X43275000Y-94779999D01*
X43276204Y-94755495D01*
X43279804Y-94731227D01*
X43285765Y-94707428D01*
X43294030Y-94684329D01*
X43304520Y-94662150D01*
X43317132Y-94641107D01*
X43331747Y-94621401D01*
X43348223Y-94603223D01*
X43366401Y-94586747D01*
X43386107Y-94572132D01*
X43407150Y-94559520D01*
X43429329Y-94549030D01*
X43452428Y-94540765D01*
X43476227Y-94534804D01*
X43500495Y-94531204D01*
X43524999Y-94530000D01*
X44175001Y-94530000D01*
X44199505Y-94531204D01*
X44199505Y-94531204D01*
G37*
D17*
X43850000Y-95230000D03*
G04 #@! TD*
D12*
G04 #@! TO.C,C2*
G36*
X46249505Y-85681204D02*
X46273773Y-85684804D01*
X46297572Y-85690765D01*
X46320671Y-85699030D01*
X46342850Y-85709520D01*
X46363893Y-85722132D01*
X46383599Y-85736747D01*
X46401777Y-85753223D01*
X46418253Y-85771401D01*
X46432868Y-85791107D01*
X46445480Y-85812150D01*
X46455970Y-85834329D01*
X46464235Y-85857428D01*
X46470196Y-85881227D01*
X46473796Y-85905495D01*
X46475000Y-85929999D01*
X46475000Y-86830001D01*
X46473796Y-86854505D01*
X46470196Y-86878773D01*
X46464235Y-86902572D01*
X46455970Y-86925671D01*
X46445480Y-86947850D01*
X46432868Y-86968893D01*
X46418253Y-86988599D01*
X46401777Y-87006777D01*
X46383599Y-87023253D01*
X46363893Y-87037868D01*
X46342850Y-87050480D01*
X46320671Y-87060970D01*
X46297572Y-87069235D01*
X46273773Y-87075196D01*
X46249505Y-87078796D01*
X46225001Y-87080000D01*
X45574999Y-87080000D01*
X45550495Y-87078796D01*
X45526227Y-87075196D01*
X45502428Y-87069235D01*
X45479329Y-87060970D01*
X45457150Y-87050480D01*
X45436107Y-87037868D01*
X45416401Y-87023253D01*
X45398223Y-87006777D01*
X45381747Y-86988599D01*
X45367132Y-86968893D01*
X45354520Y-86947850D01*
X45344030Y-86925671D01*
X45335765Y-86902572D01*
X45329804Y-86878773D01*
X45326204Y-86854505D01*
X45325000Y-86830001D01*
X45325000Y-85929999D01*
X45326204Y-85905495D01*
X45329804Y-85881227D01*
X45335765Y-85857428D01*
X45344030Y-85834329D01*
X45354520Y-85812150D01*
X45367132Y-85791107D01*
X45381747Y-85771401D01*
X45398223Y-85753223D01*
X45416401Y-85736747D01*
X45436107Y-85722132D01*
X45457150Y-85709520D01*
X45479329Y-85699030D01*
X45502428Y-85690765D01*
X45526227Y-85684804D01*
X45550495Y-85681204D01*
X45574999Y-85680000D01*
X46225001Y-85680000D01*
X46249505Y-85681204D01*
X46249505Y-85681204D01*
G37*
D17*
X45900000Y-86380000D03*
D12*
G36*
X44199505Y-85681204D02*
X44223773Y-85684804D01*
X44247572Y-85690765D01*
X44270671Y-85699030D01*
X44292850Y-85709520D01*
X44313893Y-85722132D01*
X44333599Y-85736747D01*
X44351777Y-85753223D01*
X44368253Y-85771401D01*
X44382868Y-85791107D01*
X44395480Y-85812150D01*
X44405970Y-85834329D01*
X44414235Y-85857428D01*
X44420196Y-85881227D01*
X44423796Y-85905495D01*
X44425000Y-85929999D01*
X44425000Y-86830001D01*
X44423796Y-86854505D01*
X44420196Y-86878773D01*
X44414235Y-86902572D01*
X44405970Y-86925671D01*
X44395480Y-86947850D01*
X44382868Y-86968893D01*
X44368253Y-86988599D01*
X44351777Y-87006777D01*
X44333599Y-87023253D01*
X44313893Y-87037868D01*
X44292850Y-87050480D01*
X44270671Y-87060970D01*
X44247572Y-87069235D01*
X44223773Y-87075196D01*
X44199505Y-87078796D01*
X44175001Y-87080000D01*
X43524999Y-87080000D01*
X43500495Y-87078796D01*
X43476227Y-87075196D01*
X43452428Y-87069235D01*
X43429329Y-87060970D01*
X43407150Y-87050480D01*
X43386107Y-87037868D01*
X43366401Y-87023253D01*
X43348223Y-87006777D01*
X43331747Y-86988599D01*
X43317132Y-86968893D01*
X43304520Y-86947850D01*
X43294030Y-86925671D01*
X43285765Y-86902572D01*
X43279804Y-86878773D01*
X43276204Y-86854505D01*
X43275000Y-86830001D01*
X43275000Y-85929999D01*
X43276204Y-85905495D01*
X43279804Y-85881227D01*
X43285765Y-85857428D01*
X43294030Y-85834329D01*
X43304520Y-85812150D01*
X43317132Y-85791107D01*
X43331747Y-85771401D01*
X43348223Y-85753223D01*
X43366401Y-85736747D01*
X43386107Y-85722132D01*
X43407150Y-85709520D01*
X43429329Y-85699030D01*
X43452428Y-85690765D01*
X43476227Y-85684804D01*
X43500495Y-85681204D01*
X43524999Y-85680000D01*
X44175001Y-85680000D01*
X44199505Y-85681204D01*
X44199505Y-85681204D01*
G37*
D17*
X43850000Y-86380000D03*
G04 #@! TD*
D12*
G04 #@! TO.C,C4*
G36*
X55399505Y-85731204D02*
X55423773Y-85734804D01*
X55447572Y-85740765D01*
X55470671Y-85749030D01*
X55492850Y-85759520D01*
X55513893Y-85772132D01*
X55533599Y-85786747D01*
X55551777Y-85803223D01*
X55568253Y-85821401D01*
X55582868Y-85841107D01*
X55595480Y-85862150D01*
X55605970Y-85884329D01*
X55614235Y-85907428D01*
X55620196Y-85931227D01*
X55623796Y-85955495D01*
X55625000Y-85979999D01*
X55625000Y-86880001D01*
X55623796Y-86904505D01*
X55620196Y-86928773D01*
X55614235Y-86952572D01*
X55605970Y-86975671D01*
X55595480Y-86997850D01*
X55582868Y-87018893D01*
X55568253Y-87038599D01*
X55551777Y-87056777D01*
X55533599Y-87073253D01*
X55513893Y-87087868D01*
X55492850Y-87100480D01*
X55470671Y-87110970D01*
X55447572Y-87119235D01*
X55423773Y-87125196D01*
X55399505Y-87128796D01*
X55375001Y-87130000D01*
X54724999Y-87130000D01*
X54700495Y-87128796D01*
X54676227Y-87125196D01*
X54652428Y-87119235D01*
X54629329Y-87110970D01*
X54607150Y-87100480D01*
X54586107Y-87087868D01*
X54566401Y-87073253D01*
X54548223Y-87056777D01*
X54531747Y-87038599D01*
X54517132Y-87018893D01*
X54504520Y-86997850D01*
X54494030Y-86975671D01*
X54485765Y-86952572D01*
X54479804Y-86928773D01*
X54476204Y-86904505D01*
X54475000Y-86880001D01*
X54475000Y-85979999D01*
X54476204Y-85955495D01*
X54479804Y-85931227D01*
X54485765Y-85907428D01*
X54494030Y-85884329D01*
X54504520Y-85862150D01*
X54517132Y-85841107D01*
X54531747Y-85821401D01*
X54548223Y-85803223D01*
X54566401Y-85786747D01*
X54586107Y-85772132D01*
X54607150Y-85759520D01*
X54629329Y-85749030D01*
X54652428Y-85740765D01*
X54676227Y-85734804D01*
X54700495Y-85731204D01*
X54724999Y-85730000D01*
X55375001Y-85730000D01*
X55399505Y-85731204D01*
X55399505Y-85731204D01*
G37*
D17*
X55050000Y-86430000D03*
D12*
G36*
X57449505Y-85731204D02*
X57473773Y-85734804D01*
X57497572Y-85740765D01*
X57520671Y-85749030D01*
X57542850Y-85759520D01*
X57563893Y-85772132D01*
X57583599Y-85786747D01*
X57601777Y-85803223D01*
X57618253Y-85821401D01*
X57632868Y-85841107D01*
X57645480Y-85862150D01*
X57655970Y-85884329D01*
X57664235Y-85907428D01*
X57670196Y-85931227D01*
X57673796Y-85955495D01*
X57675000Y-85979999D01*
X57675000Y-86880001D01*
X57673796Y-86904505D01*
X57670196Y-86928773D01*
X57664235Y-86952572D01*
X57655970Y-86975671D01*
X57645480Y-86997850D01*
X57632868Y-87018893D01*
X57618253Y-87038599D01*
X57601777Y-87056777D01*
X57583599Y-87073253D01*
X57563893Y-87087868D01*
X57542850Y-87100480D01*
X57520671Y-87110970D01*
X57497572Y-87119235D01*
X57473773Y-87125196D01*
X57449505Y-87128796D01*
X57425001Y-87130000D01*
X56774999Y-87130000D01*
X56750495Y-87128796D01*
X56726227Y-87125196D01*
X56702428Y-87119235D01*
X56679329Y-87110970D01*
X56657150Y-87100480D01*
X56636107Y-87087868D01*
X56616401Y-87073253D01*
X56598223Y-87056777D01*
X56581747Y-87038599D01*
X56567132Y-87018893D01*
X56554520Y-86997850D01*
X56544030Y-86975671D01*
X56535765Y-86952572D01*
X56529804Y-86928773D01*
X56526204Y-86904505D01*
X56525000Y-86880001D01*
X56525000Y-85979999D01*
X56526204Y-85955495D01*
X56529804Y-85931227D01*
X56535765Y-85907428D01*
X56544030Y-85884329D01*
X56554520Y-85862150D01*
X56567132Y-85841107D01*
X56581747Y-85821401D01*
X56598223Y-85803223D01*
X56616401Y-85786747D01*
X56636107Y-85772132D01*
X56657150Y-85759520D01*
X56679329Y-85749030D01*
X56702428Y-85740765D01*
X56726227Y-85734804D01*
X56750495Y-85731204D01*
X56774999Y-85730000D01*
X57425001Y-85730000D01*
X57449505Y-85731204D01*
X57449505Y-85731204D01*
G37*
D17*
X57100000Y-86430000D03*
G04 #@! TD*
D12*
G04 #@! TO.C,C5*
G36*
X99374505Y-85731204D02*
X99398773Y-85734804D01*
X99422572Y-85740765D01*
X99445671Y-85749030D01*
X99467850Y-85759520D01*
X99488893Y-85772132D01*
X99508599Y-85786747D01*
X99526777Y-85803223D01*
X99543253Y-85821401D01*
X99557868Y-85841107D01*
X99570480Y-85862150D01*
X99580970Y-85884329D01*
X99589235Y-85907428D01*
X99595196Y-85931227D01*
X99598796Y-85955495D01*
X99600000Y-85979999D01*
X99600000Y-86880001D01*
X99598796Y-86904505D01*
X99595196Y-86928773D01*
X99589235Y-86952572D01*
X99580970Y-86975671D01*
X99570480Y-86997850D01*
X99557868Y-87018893D01*
X99543253Y-87038599D01*
X99526777Y-87056777D01*
X99508599Y-87073253D01*
X99488893Y-87087868D01*
X99467850Y-87100480D01*
X99445671Y-87110970D01*
X99422572Y-87119235D01*
X99398773Y-87125196D01*
X99374505Y-87128796D01*
X99350001Y-87130000D01*
X98699999Y-87130000D01*
X98675495Y-87128796D01*
X98651227Y-87125196D01*
X98627428Y-87119235D01*
X98604329Y-87110970D01*
X98582150Y-87100480D01*
X98561107Y-87087868D01*
X98541401Y-87073253D01*
X98523223Y-87056777D01*
X98506747Y-87038599D01*
X98492132Y-87018893D01*
X98479520Y-86997850D01*
X98469030Y-86975671D01*
X98460765Y-86952572D01*
X98454804Y-86928773D01*
X98451204Y-86904505D01*
X98450000Y-86880001D01*
X98450000Y-85979999D01*
X98451204Y-85955495D01*
X98454804Y-85931227D01*
X98460765Y-85907428D01*
X98469030Y-85884329D01*
X98479520Y-85862150D01*
X98492132Y-85841107D01*
X98506747Y-85821401D01*
X98523223Y-85803223D01*
X98541401Y-85786747D01*
X98561107Y-85772132D01*
X98582150Y-85759520D01*
X98604329Y-85749030D01*
X98627428Y-85740765D01*
X98651227Y-85734804D01*
X98675495Y-85731204D01*
X98699999Y-85730000D01*
X99350001Y-85730000D01*
X99374505Y-85731204D01*
X99374505Y-85731204D01*
G37*
D17*
X99025000Y-86430000D03*
D12*
G36*
X101424505Y-85731204D02*
X101448773Y-85734804D01*
X101472572Y-85740765D01*
X101495671Y-85749030D01*
X101517850Y-85759520D01*
X101538893Y-85772132D01*
X101558599Y-85786747D01*
X101576777Y-85803223D01*
X101593253Y-85821401D01*
X101607868Y-85841107D01*
X101620480Y-85862150D01*
X101630970Y-85884329D01*
X101639235Y-85907428D01*
X101645196Y-85931227D01*
X101648796Y-85955495D01*
X101650000Y-85979999D01*
X101650000Y-86880001D01*
X101648796Y-86904505D01*
X101645196Y-86928773D01*
X101639235Y-86952572D01*
X101630970Y-86975671D01*
X101620480Y-86997850D01*
X101607868Y-87018893D01*
X101593253Y-87038599D01*
X101576777Y-87056777D01*
X101558599Y-87073253D01*
X101538893Y-87087868D01*
X101517850Y-87100480D01*
X101495671Y-87110970D01*
X101472572Y-87119235D01*
X101448773Y-87125196D01*
X101424505Y-87128796D01*
X101400001Y-87130000D01*
X100749999Y-87130000D01*
X100725495Y-87128796D01*
X100701227Y-87125196D01*
X100677428Y-87119235D01*
X100654329Y-87110970D01*
X100632150Y-87100480D01*
X100611107Y-87087868D01*
X100591401Y-87073253D01*
X100573223Y-87056777D01*
X100556747Y-87038599D01*
X100542132Y-87018893D01*
X100529520Y-86997850D01*
X100519030Y-86975671D01*
X100510765Y-86952572D01*
X100504804Y-86928773D01*
X100501204Y-86904505D01*
X100500000Y-86880001D01*
X100500000Y-85979999D01*
X100501204Y-85955495D01*
X100504804Y-85931227D01*
X100510765Y-85907428D01*
X100519030Y-85884329D01*
X100529520Y-85862150D01*
X100542132Y-85841107D01*
X100556747Y-85821401D01*
X100573223Y-85803223D01*
X100591401Y-85786747D01*
X100611107Y-85772132D01*
X100632150Y-85759520D01*
X100654329Y-85749030D01*
X100677428Y-85740765D01*
X100701227Y-85734804D01*
X100725495Y-85731204D01*
X100749999Y-85730000D01*
X101400001Y-85730000D01*
X101424505Y-85731204D01*
X101424505Y-85731204D01*
G37*
D17*
X101075000Y-86430000D03*
G04 #@! TD*
D18*
G04 #@! TO.C,M1*
X70650000Y-71630000D03*
D19*
X70650000Y-74130000D03*
G04 #@! TD*
G04 #@! TO.C,M2*
X85450000Y-71630000D03*
D18*
X85450000Y-74130000D03*
G04 #@! TD*
D20*
G04 #@! TO.C,J1*
X50250000Y-55930000D03*
D21*
X50250000Y-53390000D03*
G04 #@! TD*
D22*
G04 #@! TO.C,U1*
X46625000Y-89930000D03*
X46625000Y-90430000D03*
D23*
X46910000Y-90930000D03*
D22*
X46625000Y-91430000D03*
D23*
X46910000Y-91930000D03*
D22*
X43675000Y-91930000D03*
X43675000Y-91430000D03*
D23*
X43390000Y-90930000D03*
X43390000Y-90430000D03*
X43390000Y-89930000D03*
D24*
X45600000Y-90295000D03*
D25*
X45400000Y-89380000D03*
D26*
X45400000Y-89300000D03*
D25*
X44900000Y-89380000D03*
X45400000Y-92480000D03*
X44900000Y-92480000D03*
D26*
X44900000Y-89300000D03*
X45400000Y-92560000D03*
X44900000Y-92560000D03*
D24*
X44700000Y-90295000D03*
X45600000Y-91565000D03*
X44700000Y-91565000D03*
D27*
X45150000Y-90930000D03*
D23*
X46910000Y-89930000D03*
X46910000Y-90430000D03*
D22*
X46625000Y-90930000D03*
D23*
X46910000Y-91430000D03*
D22*
X46625000Y-91930000D03*
D23*
X43390000Y-91930000D03*
X43390000Y-91430000D03*
D22*
X43675000Y-90930000D03*
X43675000Y-90430000D03*
X43675000Y-89930000D03*
D28*
X44650000Y-91680000D03*
X45150000Y-90930000D03*
X44650000Y-90180000D03*
X45650000Y-90180000D03*
X45650000Y-91680000D03*
G04 #@! TD*
D29*
G04 #@! TO.C,Q2*
X100950000Y-57980000D03*
X100950000Y-56080000D03*
X102950000Y-57030000D03*
G04 #@! TD*
D12*
G04 #@! TO.C,R3*
G36*
X99510779Y-55631144D02*
X99533834Y-55634563D01*
X99556443Y-55640227D01*
X99578387Y-55648079D01*
X99599457Y-55658044D01*
X99619448Y-55670026D01*
X99638168Y-55683910D01*
X99655438Y-55699562D01*
X99671090Y-55716832D01*
X99684974Y-55735552D01*
X99696956Y-55755543D01*
X99706921Y-55776613D01*
X99714773Y-55798557D01*
X99720437Y-55821166D01*
X99723856Y-55844221D01*
X99725000Y-55867500D01*
X99725000Y-56442500D01*
X99723856Y-56465779D01*
X99720437Y-56488834D01*
X99714773Y-56511443D01*
X99706921Y-56533387D01*
X99696956Y-56554457D01*
X99684974Y-56574448D01*
X99671090Y-56593168D01*
X99655438Y-56610438D01*
X99638168Y-56626090D01*
X99619448Y-56639974D01*
X99599457Y-56651956D01*
X99578387Y-56661921D01*
X99556443Y-56669773D01*
X99533834Y-56675437D01*
X99510779Y-56678856D01*
X99487500Y-56680000D01*
X99012500Y-56680000D01*
X98989221Y-56678856D01*
X98966166Y-56675437D01*
X98943557Y-56669773D01*
X98921613Y-56661921D01*
X98900543Y-56651956D01*
X98880552Y-56639974D01*
X98861832Y-56626090D01*
X98844562Y-56610438D01*
X98828910Y-56593168D01*
X98815026Y-56574448D01*
X98803044Y-56554457D01*
X98793079Y-56533387D01*
X98785227Y-56511443D01*
X98779563Y-56488834D01*
X98776144Y-56465779D01*
X98775000Y-56442500D01*
X98775000Y-55867500D01*
X98776144Y-55844221D01*
X98779563Y-55821166D01*
X98785227Y-55798557D01*
X98793079Y-55776613D01*
X98803044Y-55755543D01*
X98815026Y-55735552D01*
X98828910Y-55716832D01*
X98844562Y-55699562D01*
X98861832Y-55683910D01*
X98880552Y-55670026D01*
X98900543Y-55658044D01*
X98921613Y-55648079D01*
X98943557Y-55640227D01*
X98966166Y-55634563D01*
X98989221Y-55631144D01*
X99012500Y-55630000D01*
X99487500Y-55630000D01*
X99510779Y-55631144D01*
X99510779Y-55631144D01*
G37*
D13*
X99250000Y-56155000D03*
D12*
G36*
X99510779Y-57381144D02*
X99533834Y-57384563D01*
X99556443Y-57390227D01*
X99578387Y-57398079D01*
X99599457Y-57408044D01*
X99619448Y-57420026D01*
X99638168Y-57433910D01*
X99655438Y-57449562D01*
X99671090Y-57466832D01*
X99684974Y-57485552D01*
X99696956Y-57505543D01*
X99706921Y-57526613D01*
X99714773Y-57548557D01*
X99720437Y-57571166D01*
X99723856Y-57594221D01*
X99725000Y-57617500D01*
X99725000Y-58192500D01*
X99723856Y-58215779D01*
X99720437Y-58238834D01*
X99714773Y-58261443D01*
X99706921Y-58283387D01*
X99696956Y-58304457D01*
X99684974Y-58324448D01*
X99671090Y-58343168D01*
X99655438Y-58360438D01*
X99638168Y-58376090D01*
X99619448Y-58389974D01*
X99599457Y-58401956D01*
X99578387Y-58411921D01*
X99556443Y-58419773D01*
X99533834Y-58425437D01*
X99510779Y-58428856D01*
X99487500Y-58430000D01*
X99012500Y-58430000D01*
X98989221Y-58428856D01*
X98966166Y-58425437D01*
X98943557Y-58419773D01*
X98921613Y-58411921D01*
X98900543Y-58401956D01*
X98880552Y-58389974D01*
X98861832Y-58376090D01*
X98844562Y-58360438D01*
X98828910Y-58343168D01*
X98815026Y-58324448D01*
X98803044Y-58304457D01*
X98793079Y-58283387D01*
X98785227Y-58261443D01*
X98779563Y-58238834D01*
X98776144Y-58215779D01*
X98775000Y-58192500D01*
X98775000Y-57617500D01*
X98776144Y-57594221D01*
X98779563Y-57571166D01*
X98785227Y-57548557D01*
X98793079Y-57526613D01*
X98803044Y-57505543D01*
X98815026Y-57485552D01*
X98828910Y-57466832D01*
X98844562Y-57449562D01*
X98861832Y-57433910D01*
X98880552Y-57420026D01*
X98900543Y-57408044D01*
X98921613Y-57398079D01*
X98943557Y-57390227D01*
X98966166Y-57384563D01*
X98989221Y-57381144D01*
X99012500Y-57380000D01*
X99487500Y-57380000D01*
X99510779Y-57381144D01*
X99510779Y-57381144D01*
G37*
D13*
X99250000Y-57905000D03*
G04 #@! TD*
D12*
G04 #@! TO.C,R14*
G36*
X77385779Y-71056144D02*
X77408834Y-71059563D01*
X77431443Y-71065227D01*
X77453387Y-71073079D01*
X77474457Y-71083044D01*
X77494448Y-71095026D01*
X77513168Y-71108910D01*
X77530438Y-71124562D01*
X77546090Y-71141832D01*
X77559974Y-71160552D01*
X77571956Y-71180543D01*
X77581921Y-71201613D01*
X77589773Y-71223557D01*
X77595437Y-71246166D01*
X77598856Y-71269221D01*
X77600000Y-71292500D01*
X77600000Y-71767500D01*
X77598856Y-71790779D01*
X77595437Y-71813834D01*
X77589773Y-71836443D01*
X77581921Y-71858387D01*
X77571956Y-71879457D01*
X77559974Y-71899448D01*
X77546090Y-71918168D01*
X77530438Y-71935438D01*
X77513168Y-71951090D01*
X77494448Y-71964974D01*
X77474457Y-71976956D01*
X77453387Y-71986921D01*
X77431443Y-71994773D01*
X77408834Y-72000437D01*
X77385779Y-72003856D01*
X77362500Y-72005000D01*
X76787500Y-72005000D01*
X76764221Y-72003856D01*
X76741166Y-72000437D01*
X76718557Y-71994773D01*
X76696613Y-71986921D01*
X76675543Y-71976956D01*
X76655552Y-71964974D01*
X76636832Y-71951090D01*
X76619562Y-71935438D01*
X76603910Y-71918168D01*
X76590026Y-71899448D01*
X76578044Y-71879457D01*
X76568079Y-71858387D01*
X76560227Y-71836443D01*
X76554563Y-71813834D01*
X76551144Y-71790779D01*
X76550000Y-71767500D01*
X76550000Y-71292500D01*
X76551144Y-71269221D01*
X76554563Y-71246166D01*
X76560227Y-71223557D01*
X76568079Y-71201613D01*
X76578044Y-71180543D01*
X76590026Y-71160552D01*
X76603910Y-71141832D01*
X76619562Y-71124562D01*
X76636832Y-71108910D01*
X76655552Y-71095026D01*
X76675543Y-71083044D01*
X76696613Y-71073079D01*
X76718557Y-71065227D01*
X76741166Y-71059563D01*
X76764221Y-71056144D01*
X76787500Y-71055000D01*
X77362500Y-71055000D01*
X77385779Y-71056144D01*
X77385779Y-71056144D01*
G37*
D13*
X77075000Y-71530000D03*
D12*
G36*
X79135779Y-71056144D02*
X79158834Y-71059563D01*
X79181443Y-71065227D01*
X79203387Y-71073079D01*
X79224457Y-71083044D01*
X79244448Y-71095026D01*
X79263168Y-71108910D01*
X79280438Y-71124562D01*
X79296090Y-71141832D01*
X79309974Y-71160552D01*
X79321956Y-71180543D01*
X79331921Y-71201613D01*
X79339773Y-71223557D01*
X79345437Y-71246166D01*
X79348856Y-71269221D01*
X79350000Y-71292500D01*
X79350000Y-71767500D01*
X79348856Y-71790779D01*
X79345437Y-71813834D01*
X79339773Y-71836443D01*
X79331921Y-71858387D01*
X79321956Y-71879457D01*
X79309974Y-71899448D01*
X79296090Y-71918168D01*
X79280438Y-71935438D01*
X79263168Y-71951090D01*
X79244448Y-71964974D01*
X79224457Y-71976956D01*
X79203387Y-71986921D01*
X79181443Y-71994773D01*
X79158834Y-72000437D01*
X79135779Y-72003856D01*
X79112500Y-72005000D01*
X78537500Y-72005000D01*
X78514221Y-72003856D01*
X78491166Y-72000437D01*
X78468557Y-71994773D01*
X78446613Y-71986921D01*
X78425543Y-71976956D01*
X78405552Y-71964974D01*
X78386832Y-71951090D01*
X78369562Y-71935438D01*
X78353910Y-71918168D01*
X78340026Y-71899448D01*
X78328044Y-71879457D01*
X78318079Y-71858387D01*
X78310227Y-71836443D01*
X78304563Y-71813834D01*
X78301144Y-71790779D01*
X78300000Y-71767500D01*
X78300000Y-71292500D01*
X78301144Y-71269221D01*
X78304563Y-71246166D01*
X78310227Y-71223557D01*
X78318079Y-71201613D01*
X78328044Y-71180543D01*
X78340026Y-71160552D01*
X78353910Y-71141832D01*
X78369562Y-71124562D01*
X78386832Y-71108910D01*
X78405552Y-71095026D01*
X78425543Y-71083044D01*
X78446613Y-71073079D01*
X78468557Y-71065227D01*
X78491166Y-71059563D01*
X78514221Y-71056144D01*
X78537500Y-71055000D01*
X79112500Y-71055000D01*
X79135779Y-71056144D01*
X79135779Y-71056144D01*
G37*
D13*
X78825000Y-71530000D03*
G04 #@! TD*
D12*
G04 #@! TO.C,R13*
G36*
X77385779Y-73656144D02*
X77408834Y-73659563D01*
X77431443Y-73665227D01*
X77453387Y-73673079D01*
X77474457Y-73683044D01*
X77494448Y-73695026D01*
X77513168Y-73708910D01*
X77530438Y-73724562D01*
X77546090Y-73741832D01*
X77559974Y-73760552D01*
X77571956Y-73780543D01*
X77581921Y-73801613D01*
X77589773Y-73823557D01*
X77595437Y-73846166D01*
X77598856Y-73869221D01*
X77600000Y-73892500D01*
X77600000Y-74367500D01*
X77598856Y-74390779D01*
X77595437Y-74413834D01*
X77589773Y-74436443D01*
X77581921Y-74458387D01*
X77571956Y-74479457D01*
X77559974Y-74499448D01*
X77546090Y-74518168D01*
X77530438Y-74535438D01*
X77513168Y-74551090D01*
X77494448Y-74564974D01*
X77474457Y-74576956D01*
X77453387Y-74586921D01*
X77431443Y-74594773D01*
X77408834Y-74600437D01*
X77385779Y-74603856D01*
X77362500Y-74605000D01*
X76787500Y-74605000D01*
X76764221Y-74603856D01*
X76741166Y-74600437D01*
X76718557Y-74594773D01*
X76696613Y-74586921D01*
X76675543Y-74576956D01*
X76655552Y-74564974D01*
X76636832Y-74551090D01*
X76619562Y-74535438D01*
X76603910Y-74518168D01*
X76590026Y-74499448D01*
X76578044Y-74479457D01*
X76568079Y-74458387D01*
X76560227Y-74436443D01*
X76554563Y-74413834D01*
X76551144Y-74390779D01*
X76550000Y-74367500D01*
X76550000Y-73892500D01*
X76551144Y-73869221D01*
X76554563Y-73846166D01*
X76560227Y-73823557D01*
X76568079Y-73801613D01*
X76578044Y-73780543D01*
X76590026Y-73760552D01*
X76603910Y-73741832D01*
X76619562Y-73724562D01*
X76636832Y-73708910D01*
X76655552Y-73695026D01*
X76675543Y-73683044D01*
X76696613Y-73673079D01*
X76718557Y-73665227D01*
X76741166Y-73659563D01*
X76764221Y-73656144D01*
X76787500Y-73655000D01*
X77362500Y-73655000D01*
X77385779Y-73656144D01*
X77385779Y-73656144D01*
G37*
D13*
X77075000Y-74130000D03*
D12*
G36*
X79135779Y-73656144D02*
X79158834Y-73659563D01*
X79181443Y-73665227D01*
X79203387Y-73673079D01*
X79224457Y-73683044D01*
X79244448Y-73695026D01*
X79263168Y-73708910D01*
X79280438Y-73724562D01*
X79296090Y-73741832D01*
X79309974Y-73760552D01*
X79321956Y-73780543D01*
X79331921Y-73801613D01*
X79339773Y-73823557D01*
X79345437Y-73846166D01*
X79348856Y-73869221D01*
X79350000Y-73892500D01*
X79350000Y-74367500D01*
X79348856Y-74390779D01*
X79345437Y-74413834D01*
X79339773Y-74436443D01*
X79331921Y-74458387D01*
X79321956Y-74479457D01*
X79309974Y-74499448D01*
X79296090Y-74518168D01*
X79280438Y-74535438D01*
X79263168Y-74551090D01*
X79244448Y-74564974D01*
X79224457Y-74576956D01*
X79203387Y-74586921D01*
X79181443Y-74594773D01*
X79158834Y-74600437D01*
X79135779Y-74603856D01*
X79112500Y-74605000D01*
X78537500Y-74605000D01*
X78514221Y-74603856D01*
X78491166Y-74600437D01*
X78468557Y-74594773D01*
X78446613Y-74586921D01*
X78425543Y-74576956D01*
X78405552Y-74564974D01*
X78386832Y-74551090D01*
X78369562Y-74535438D01*
X78353910Y-74518168D01*
X78340026Y-74499448D01*
X78328044Y-74479457D01*
X78318079Y-74458387D01*
X78310227Y-74436443D01*
X78304563Y-74413834D01*
X78301144Y-74390779D01*
X78300000Y-74367500D01*
X78300000Y-73892500D01*
X78301144Y-73869221D01*
X78304563Y-73846166D01*
X78310227Y-73823557D01*
X78318079Y-73801613D01*
X78328044Y-73780543D01*
X78340026Y-73760552D01*
X78353910Y-73741832D01*
X78369562Y-73724562D01*
X78386832Y-73708910D01*
X78405552Y-73695026D01*
X78425543Y-73683044D01*
X78446613Y-73673079D01*
X78468557Y-73665227D01*
X78491166Y-73659563D01*
X78514221Y-73656144D01*
X78537500Y-73655000D01*
X79112500Y-73655000D01*
X79135779Y-73656144D01*
X79135779Y-73656144D01*
G37*
D13*
X78825000Y-74130000D03*
G04 #@! TD*
D12*
G04 #@! TO.C,R5*
G36*
X56985779Y-51056144D02*
X57008834Y-51059563D01*
X57031443Y-51065227D01*
X57053387Y-51073079D01*
X57074457Y-51083044D01*
X57094448Y-51095026D01*
X57113168Y-51108910D01*
X57130438Y-51124562D01*
X57146090Y-51141832D01*
X57159974Y-51160552D01*
X57171956Y-51180543D01*
X57181921Y-51201613D01*
X57189773Y-51223557D01*
X57195437Y-51246166D01*
X57198856Y-51269221D01*
X57200000Y-51292500D01*
X57200000Y-51767500D01*
X57198856Y-51790779D01*
X57195437Y-51813834D01*
X57189773Y-51836443D01*
X57181921Y-51858387D01*
X57171956Y-51879457D01*
X57159974Y-51899448D01*
X57146090Y-51918168D01*
X57130438Y-51935438D01*
X57113168Y-51951090D01*
X57094448Y-51964974D01*
X57074457Y-51976956D01*
X57053387Y-51986921D01*
X57031443Y-51994773D01*
X57008834Y-52000437D01*
X56985779Y-52003856D01*
X56962500Y-52005000D01*
X56387500Y-52005000D01*
X56364221Y-52003856D01*
X56341166Y-52000437D01*
X56318557Y-51994773D01*
X56296613Y-51986921D01*
X56275543Y-51976956D01*
X56255552Y-51964974D01*
X56236832Y-51951090D01*
X56219562Y-51935438D01*
X56203910Y-51918168D01*
X56190026Y-51899448D01*
X56178044Y-51879457D01*
X56168079Y-51858387D01*
X56160227Y-51836443D01*
X56154563Y-51813834D01*
X56151144Y-51790779D01*
X56150000Y-51767500D01*
X56150000Y-51292500D01*
X56151144Y-51269221D01*
X56154563Y-51246166D01*
X56160227Y-51223557D01*
X56168079Y-51201613D01*
X56178044Y-51180543D01*
X56190026Y-51160552D01*
X56203910Y-51141832D01*
X56219562Y-51124562D01*
X56236832Y-51108910D01*
X56255552Y-51095026D01*
X56275543Y-51083044D01*
X56296613Y-51073079D01*
X56318557Y-51065227D01*
X56341166Y-51059563D01*
X56364221Y-51056144D01*
X56387500Y-51055000D01*
X56962500Y-51055000D01*
X56985779Y-51056144D01*
X56985779Y-51056144D01*
G37*
D13*
X56675000Y-51530000D03*
D12*
G36*
X58735779Y-51056144D02*
X58758834Y-51059563D01*
X58781443Y-51065227D01*
X58803387Y-51073079D01*
X58824457Y-51083044D01*
X58844448Y-51095026D01*
X58863168Y-51108910D01*
X58880438Y-51124562D01*
X58896090Y-51141832D01*
X58909974Y-51160552D01*
X58921956Y-51180543D01*
X58931921Y-51201613D01*
X58939773Y-51223557D01*
X58945437Y-51246166D01*
X58948856Y-51269221D01*
X58950000Y-51292500D01*
X58950000Y-51767500D01*
X58948856Y-51790779D01*
X58945437Y-51813834D01*
X58939773Y-51836443D01*
X58931921Y-51858387D01*
X58921956Y-51879457D01*
X58909974Y-51899448D01*
X58896090Y-51918168D01*
X58880438Y-51935438D01*
X58863168Y-51951090D01*
X58844448Y-51964974D01*
X58824457Y-51976956D01*
X58803387Y-51986921D01*
X58781443Y-51994773D01*
X58758834Y-52000437D01*
X58735779Y-52003856D01*
X58712500Y-52005000D01*
X58137500Y-52005000D01*
X58114221Y-52003856D01*
X58091166Y-52000437D01*
X58068557Y-51994773D01*
X58046613Y-51986921D01*
X58025543Y-51976956D01*
X58005552Y-51964974D01*
X57986832Y-51951090D01*
X57969562Y-51935438D01*
X57953910Y-51918168D01*
X57940026Y-51899448D01*
X57928044Y-51879457D01*
X57918079Y-51858387D01*
X57910227Y-51836443D01*
X57904563Y-51813834D01*
X57901144Y-51790779D01*
X57900000Y-51767500D01*
X57900000Y-51292500D01*
X57901144Y-51269221D01*
X57904563Y-51246166D01*
X57910227Y-51223557D01*
X57918079Y-51201613D01*
X57928044Y-51180543D01*
X57940026Y-51160552D01*
X57953910Y-51141832D01*
X57969562Y-51124562D01*
X57986832Y-51108910D01*
X58005552Y-51095026D01*
X58025543Y-51083044D01*
X58046613Y-51073079D01*
X58068557Y-51065227D01*
X58091166Y-51059563D01*
X58114221Y-51056144D01*
X58137500Y-51055000D01*
X58712500Y-51055000D01*
X58735779Y-51056144D01*
X58735779Y-51056144D01*
G37*
D13*
X58425000Y-51530000D03*
G04 #@! TD*
D12*
G04 #@! TO.C,R8*
G36*
X58735779Y-60256144D02*
X58758834Y-60259563D01*
X58781443Y-60265227D01*
X58803387Y-60273079D01*
X58824457Y-60283044D01*
X58844448Y-60295026D01*
X58863168Y-60308910D01*
X58880438Y-60324562D01*
X58896090Y-60341832D01*
X58909974Y-60360552D01*
X58921956Y-60380543D01*
X58931921Y-60401613D01*
X58939773Y-60423557D01*
X58945437Y-60446166D01*
X58948856Y-60469221D01*
X58950000Y-60492500D01*
X58950000Y-60967500D01*
X58948856Y-60990779D01*
X58945437Y-61013834D01*
X58939773Y-61036443D01*
X58931921Y-61058387D01*
X58921956Y-61079457D01*
X58909974Y-61099448D01*
X58896090Y-61118168D01*
X58880438Y-61135438D01*
X58863168Y-61151090D01*
X58844448Y-61164974D01*
X58824457Y-61176956D01*
X58803387Y-61186921D01*
X58781443Y-61194773D01*
X58758834Y-61200437D01*
X58735779Y-61203856D01*
X58712500Y-61205000D01*
X58137500Y-61205000D01*
X58114221Y-61203856D01*
X58091166Y-61200437D01*
X58068557Y-61194773D01*
X58046613Y-61186921D01*
X58025543Y-61176956D01*
X58005552Y-61164974D01*
X57986832Y-61151090D01*
X57969562Y-61135438D01*
X57953910Y-61118168D01*
X57940026Y-61099448D01*
X57928044Y-61079457D01*
X57918079Y-61058387D01*
X57910227Y-61036443D01*
X57904563Y-61013834D01*
X57901144Y-60990779D01*
X57900000Y-60967500D01*
X57900000Y-60492500D01*
X57901144Y-60469221D01*
X57904563Y-60446166D01*
X57910227Y-60423557D01*
X57918079Y-60401613D01*
X57928044Y-60380543D01*
X57940026Y-60360552D01*
X57953910Y-60341832D01*
X57969562Y-60324562D01*
X57986832Y-60308910D01*
X58005552Y-60295026D01*
X58025543Y-60283044D01*
X58046613Y-60273079D01*
X58068557Y-60265227D01*
X58091166Y-60259563D01*
X58114221Y-60256144D01*
X58137500Y-60255000D01*
X58712500Y-60255000D01*
X58735779Y-60256144D01*
X58735779Y-60256144D01*
G37*
D13*
X58425000Y-60730000D03*
D12*
G36*
X56985779Y-60256144D02*
X57008834Y-60259563D01*
X57031443Y-60265227D01*
X57053387Y-60273079D01*
X57074457Y-60283044D01*
X57094448Y-60295026D01*
X57113168Y-60308910D01*
X57130438Y-60324562D01*
X57146090Y-60341832D01*
X57159974Y-60360552D01*
X57171956Y-60380543D01*
X57181921Y-60401613D01*
X57189773Y-60423557D01*
X57195437Y-60446166D01*
X57198856Y-60469221D01*
X57200000Y-60492500D01*
X57200000Y-60967500D01*
X57198856Y-60990779D01*
X57195437Y-61013834D01*
X57189773Y-61036443D01*
X57181921Y-61058387D01*
X57171956Y-61079457D01*
X57159974Y-61099448D01*
X57146090Y-61118168D01*
X57130438Y-61135438D01*
X57113168Y-61151090D01*
X57094448Y-61164974D01*
X57074457Y-61176956D01*
X57053387Y-61186921D01*
X57031443Y-61194773D01*
X57008834Y-61200437D01*
X56985779Y-61203856D01*
X56962500Y-61205000D01*
X56387500Y-61205000D01*
X56364221Y-61203856D01*
X56341166Y-61200437D01*
X56318557Y-61194773D01*
X56296613Y-61186921D01*
X56275543Y-61176956D01*
X56255552Y-61164974D01*
X56236832Y-61151090D01*
X56219562Y-61135438D01*
X56203910Y-61118168D01*
X56190026Y-61099448D01*
X56178044Y-61079457D01*
X56168079Y-61058387D01*
X56160227Y-61036443D01*
X56154563Y-61013834D01*
X56151144Y-60990779D01*
X56150000Y-60967500D01*
X56150000Y-60492500D01*
X56151144Y-60469221D01*
X56154563Y-60446166D01*
X56160227Y-60423557D01*
X56168079Y-60401613D01*
X56178044Y-60380543D01*
X56190026Y-60360552D01*
X56203910Y-60341832D01*
X56219562Y-60324562D01*
X56236832Y-60308910D01*
X56255552Y-60295026D01*
X56275543Y-60283044D01*
X56296613Y-60273079D01*
X56318557Y-60265227D01*
X56341166Y-60259563D01*
X56364221Y-60256144D01*
X56387500Y-60255000D01*
X56962500Y-60255000D01*
X56985779Y-60256144D01*
X56985779Y-60256144D01*
G37*
D13*
X56675000Y-60730000D03*
G04 #@! TD*
D12*
G04 #@! TO.C,R4*
G36*
X107860779Y-50456144D02*
X107883834Y-50459563D01*
X107906443Y-50465227D01*
X107928387Y-50473079D01*
X107949457Y-50483044D01*
X107969448Y-50495026D01*
X107988168Y-50508910D01*
X108005438Y-50524562D01*
X108021090Y-50541832D01*
X108034974Y-50560552D01*
X108046956Y-50580543D01*
X108056921Y-50601613D01*
X108064773Y-50623557D01*
X108070437Y-50646166D01*
X108073856Y-50669221D01*
X108075000Y-50692500D01*
X108075000Y-51167500D01*
X108073856Y-51190779D01*
X108070437Y-51213834D01*
X108064773Y-51236443D01*
X108056921Y-51258387D01*
X108046956Y-51279457D01*
X108034974Y-51299448D01*
X108021090Y-51318168D01*
X108005438Y-51335438D01*
X107988168Y-51351090D01*
X107969448Y-51364974D01*
X107949457Y-51376956D01*
X107928387Y-51386921D01*
X107906443Y-51394773D01*
X107883834Y-51400437D01*
X107860779Y-51403856D01*
X107837500Y-51405000D01*
X107262500Y-51405000D01*
X107239221Y-51403856D01*
X107216166Y-51400437D01*
X107193557Y-51394773D01*
X107171613Y-51386921D01*
X107150543Y-51376956D01*
X107130552Y-51364974D01*
X107111832Y-51351090D01*
X107094562Y-51335438D01*
X107078910Y-51318168D01*
X107065026Y-51299448D01*
X107053044Y-51279457D01*
X107043079Y-51258387D01*
X107035227Y-51236443D01*
X107029563Y-51213834D01*
X107026144Y-51190779D01*
X107025000Y-51167500D01*
X107025000Y-50692500D01*
X107026144Y-50669221D01*
X107029563Y-50646166D01*
X107035227Y-50623557D01*
X107043079Y-50601613D01*
X107053044Y-50580543D01*
X107065026Y-50560552D01*
X107078910Y-50541832D01*
X107094562Y-50524562D01*
X107111832Y-50508910D01*
X107130552Y-50495026D01*
X107150543Y-50483044D01*
X107171613Y-50473079D01*
X107193557Y-50465227D01*
X107216166Y-50459563D01*
X107239221Y-50456144D01*
X107262500Y-50455000D01*
X107837500Y-50455000D01*
X107860779Y-50456144D01*
X107860779Y-50456144D01*
G37*
D13*
X107550000Y-50930000D03*
D12*
G36*
X109610779Y-50456144D02*
X109633834Y-50459563D01*
X109656443Y-50465227D01*
X109678387Y-50473079D01*
X109699457Y-50483044D01*
X109719448Y-50495026D01*
X109738168Y-50508910D01*
X109755438Y-50524562D01*
X109771090Y-50541832D01*
X109784974Y-50560552D01*
X109796956Y-50580543D01*
X109806921Y-50601613D01*
X109814773Y-50623557D01*
X109820437Y-50646166D01*
X109823856Y-50669221D01*
X109825000Y-50692500D01*
X109825000Y-51167500D01*
X109823856Y-51190779D01*
X109820437Y-51213834D01*
X109814773Y-51236443D01*
X109806921Y-51258387D01*
X109796956Y-51279457D01*
X109784974Y-51299448D01*
X109771090Y-51318168D01*
X109755438Y-51335438D01*
X109738168Y-51351090D01*
X109719448Y-51364974D01*
X109699457Y-51376956D01*
X109678387Y-51386921D01*
X109656443Y-51394773D01*
X109633834Y-51400437D01*
X109610779Y-51403856D01*
X109587500Y-51405000D01*
X109012500Y-51405000D01*
X108989221Y-51403856D01*
X108966166Y-51400437D01*
X108943557Y-51394773D01*
X108921613Y-51386921D01*
X108900543Y-51376956D01*
X108880552Y-51364974D01*
X108861832Y-51351090D01*
X108844562Y-51335438D01*
X108828910Y-51318168D01*
X108815026Y-51299448D01*
X108803044Y-51279457D01*
X108793079Y-51258387D01*
X108785227Y-51236443D01*
X108779563Y-51213834D01*
X108776144Y-51190779D01*
X108775000Y-51167500D01*
X108775000Y-50692500D01*
X108776144Y-50669221D01*
X108779563Y-50646166D01*
X108785227Y-50623557D01*
X108793079Y-50601613D01*
X108803044Y-50580543D01*
X108815026Y-50560552D01*
X108828910Y-50541832D01*
X108844562Y-50524562D01*
X108861832Y-50508910D01*
X108880552Y-50495026D01*
X108900543Y-50483044D01*
X108921613Y-50473079D01*
X108943557Y-50465227D01*
X108966166Y-50459563D01*
X108989221Y-50456144D01*
X109012500Y-50455000D01*
X109587500Y-50455000D01*
X109610779Y-50456144D01*
X109610779Y-50456144D01*
G37*
D13*
X109300000Y-50930000D03*
G04 #@! TD*
D12*
G04 #@! TO.C,R2*
G36*
X105485779Y-50456144D02*
X105508834Y-50459563D01*
X105531443Y-50465227D01*
X105553387Y-50473079D01*
X105574457Y-50483044D01*
X105594448Y-50495026D01*
X105613168Y-50508910D01*
X105630438Y-50524562D01*
X105646090Y-50541832D01*
X105659974Y-50560552D01*
X105671956Y-50580543D01*
X105681921Y-50601613D01*
X105689773Y-50623557D01*
X105695437Y-50646166D01*
X105698856Y-50669221D01*
X105700000Y-50692500D01*
X105700000Y-51167500D01*
X105698856Y-51190779D01*
X105695437Y-51213834D01*
X105689773Y-51236443D01*
X105681921Y-51258387D01*
X105671956Y-51279457D01*
X105659974Y-51299448D01*
X105646090Y-51318168D01*
X105630438Y-51335438D01*
X105613168Y-51351090D01*
X105594448Y-51364974D01*
X105574457Y-51376956D01*
X105553387Y-51386921D01*
X105531443Y-51394773D01*
X105508834Y-51400437D01*
X105485779Y-51403856D01*
X105462500Y-51405000D01*
X104887500Y-51405000D01*
X104864221Y-51403856D01*
X104841166Y-51400437D01*
X104818557Y-51394773D01*
X104796613Y-51386921D01*
X104775543Y-51376956D01*
X104755552Y-51364974D01*
X104736832Y-51351090D01*
X104719562Y-51335438D01*
X104703910Y-51318168D01*
X104690026Y-51299448D01*
X104678044Y-51279457D01*
X104668079Y-51258387D01*
X104660227Y-51236443D01*
X104654563Y-51213834D01*
X104651144Y-51190779D01*
X104650000Y-51167500D01*
X104650000Y-50692500D01*
X104651144Y-50669221D01*
X104654563Y-50646166D01*
X104660227Y-50623557D01*
X104668079Y-50601613D01*
X104678044Y-50580543D01*
X104690026Y-50560552D01*
X104703910Y-50541832D01*
X104719562Y-50524562D01*
X104736832Y-50508910D01*
X104755552Y-50495026D01*
X104775543Y-50483044D01*
X104796613Y-50473079D01*
X104818557Y-50465227D01*
X104841166Y-50459563D01*
X104864221Y-50456144D01*
X104887500Y-50455000D01*
X105462500Y-50455000D01*
X105485779Y-50456144D01*
X105485779Y-50456144D01*
G37*
D13*
X105175000Y-50930000D03*
D12*
G36*
X103735779Y-50456144D02*
X103758834Y-50459563D01*
X103781443Y-50465227D01*
X103803387Y-50473079D01*
X103824457Y-50483044D01*
X103844448Y-50495026D01*
X103863168Y-50508910D01*
X103880438Y-50524562D01*
X103896090Y-50541832D01*
X103909974Y-50560552D01*
X103921956Y-50580543D01*
X103931921Y-50601613D01*
X103939773Y-50623557D01*
X103945437Y-50646166D01*
X103948856Y-50669221D01*
X103950000Y-50692500D01*
X103950000Y-51167500D01*
X103948856Y-51190779D01*
X103945437Y-51213834D01*
X103939773Y-51236443D01*
X103931921Y-51258387D01*
X103921956Y-51279457D01*
X103909974Y-51299448D01*
X103896090Y-51318168D01*
X103880438Y-51335438D01*
X103863168Y-51351090D01*
X103844448Y-51364974D01*
X103824457Y-51376956D01*
X103803387Y-51386921D01*
X103781443Y-51394773D01*
X103758834Y-51400437D01*
X103735779Y-51403856D01*
X103712500Y-51405000D01*
X103137500Y-51405000D01*
X103114221Y-51403856D01*
X103091166Y-51400437D01*
X103068557Y-51394773D01*
X103046613Y-51386921D01*
X103025543Y-51376956D01*
X103005552Y-51364974D01*
X102986832Y-51351090D01*
X102969562Y-51335438D01*
X102953910Y-51318168D01*
X102940026Y-51299448D01*
X102928044Y-51279457D01*
X102918079Y-51258387D01*
X102910227Y-51236443D01*
X102904563Y-51213834D01*
X102901144Y-51190779D01*
X102900000Y-51167500D01*
X102900000Y-50692500D01*
X102901144Y-50669221D01*
X102904563Y-50646166D01*
X102910227Y-50623557D01*
X102918079Y-50601613D01*
X102928044Y-50580543D01*
X102940026Y-50560552D01*
X102953910Y-50541832D01*
X102969562Y-50524562D01*
X102986832Y-50508910D01*
X103005552Y-50495026D01*
X103025543Y-50483044D01*
X103046613Y-50473079D01*
X103068557Y-50465227D01*
X103091166Y-50459563D01*
X103114221Y-50456144D01*
X103137500Y-50455000D01*
X103712500Y-50455000D01*
X103735779Y-50456144D01*
X103735779Y-50456144D01*
G37*
D13*
X103425000Y-50930000D03*
G04 #@! TD*
D12*
G04 #@! TO.C,R1*
G36*
X105235779Y-95956144D02*
X105258834Y-95959563D01*
X105281443Y-95965227D01*
X105303387Y-95973079D01*
X105324457Y-95983044D01*
X105344448Y-95995026D01*
X105363168Y-96008910D01*
X105380438Y-96024562D01*
X105396090Y-96041832D01*
X105409974Y-96060552D01*
X105421956Y-96080543D01*
X105431921Y-96101613D01*
X105439773Y-96123557D01*
X105445437Y-96146166D01*
X105448856Y-96169221D01*
X105450000Y-96192500D01*
X105450000Y-96667500D01*
X105448856Y-96690779D01*
X105445437Y-96713834D01*
X105439773Y-96736443D01*
X105431921Y-96758387D01*
X105421956Y-96779457D01*
X105409974Y-96799448D01*
X105396090Y-96818168D01*
X105380438Y-96835438D01*
X105363168Y-96851090D01*
X105344448Y-96864974D01*
X105324457Y-96876956D01*
X105303387Y-96886921D01*
X105281443Y-96894773D01*
X105258834Y-96900437D01*
X105235779Y-96903856D01*
X105212500Y-96905000D01*
X104637500Y-96905000D01*
X104614221Y-96903856D01*
X104591166Y-96900437D01*
X104568557Y-96894773D01*
X104546613Y-96886921D01*
X104525543Y-96876956D01*
X104505552Y-96864974D01*
X104486832Y-96851090D01*
X104469562Y-96835438D01*
X104453910Y-96818168D01*
X104440026Y-96799448D01*
X104428044Y-96779457D01*
X104418079Y-96758387D01*
X104410227Y-96736443D01*
X104404563Y-96713834D01*
X104401144Y-96690779D01*
X104400000Y-96667500D01*
X104400000Y-96192500D01*
X104401144Y-96169221D01*
X104404563Y-96146166D01*
X104410227Y-96123557D01*
X104418079Y-96101613D01*
X104428044Y-96080543D01*
X104440026Y-96060552D01*
X104453910Y-96041832D01*
X104469562Y-96024562D01*
X104486832Y-96008910D01*
X104505552Y-95995026D01*
X104525543Y-95983044D01*
X104546613Y-95973079D01*
X104568557Y-95965227D01*
X104591166Y-95959563D01*
X104614221Y-95956144D01*
X104637500Y-95955000D01*
X105212500Y-95955000D01*
X105235779Y-95956144D01*
X105235779Y-95956144D01*
G37*
D13*
X104925000Y-96430000D03*
D12*
G36*
X106985779Y-95956144D02*
X107008834Y-95959563D01*
X107031443Y-95965227D01*
X107053387Y-95973079D01*
X107074457Y-95983044D01*
X107094448Y-95995026D01*
X107113168Y-96008910D01*
X107130438Y-96024562D01*
X107146090Y-96041832D01*
X107159974Y-96060552D01*
X107171956Y-96080543D01*
X107181921Y-96101613D01*
X107189773Y-96123557D01*
X107195437Y-96146166D01*
X107198856Y-96169221D01*
X107200000Y-96192500D01*
X107200000Y-96667500D01*
X107198856Y-96690779D01*
X107195437Y-96713834D01*
X107189773Y-96736443D01*
X107181921Y-96758387D01*
X107171956Y-96779457D01*
X107159974Y-96799448D01*
X107146090Y-96818168D01*
X107130438Y-96835438D01*
X107113168Y-96851090D01*
X107094448Y-96864974D01*
X107074457Y-96876956D01*
X107053387Y-96886921D01*
X107031443Y-96894773D01*
X107008834Y-96900437D01*
X106985779Y-96903856D01*
X106962500Y-96905000D01*
X106387500Y-96905000D01*
X106364221Y-96903856D01*
X106341166Y-96900437D01*
X106318557Y-96894773D01*
X106296613Y-96886921D01*
X106275543Y-96876956D01*
X106255552Y-96864974D01*
X106236832Y-96851090D01*
X106219562Y-96835438D01*
X106203910Y-96818168D01*
X106190026Y-96799448D01*
X106178044Y-96779457D01*
X106168079Y-96758387D01*
X106160227Y-96736443D01*
X106154563Y-96713834D01*
X106151144Y-96690779D01*
X106150000Y-96667500D01*
X106150000Y-96192500D01*
X106151144Y-96169221D01*
X106154563Y-96146166D01*
X106160227Y-96123557D01*
X106168079Y-96101613D01*
X106178044Y-96080543D01*
X106190026Y-96060552D01*
X106203910Y-96041832D01*
X106219562Y-96024562D01*
X106236832Y-96008910D01*
X106255552Y-95995026D01*
X106275543Y-95983044D01*
X106296613Y-95973079D01*
X106318557Y-95965227D01*
X106341166Y-95959563D01*
X106364221Y-95956144D01*
X106387500Y-95955000D01*
X106962500Y-95955000D01*
X106985779Y-95956144D01*
X106985779Y-95956144D01*
G37*
D13*
X106675000Y-96430000D03*
G04 #@! TD*
D12*
G04 #@! TO.C,R7*
G36*
X58735779Y-58456144D02*
X58758834Y-58459563D01*
X58781443Y-58465227D01*
X58803387Y-58473079D01*
X58824457Y-58483044D01*
X58844448Y-58495026D01*
X58863168Y-58508910D01*
X58880438Y-58524562D01*
X58896090Y-58541832D01*
X58909974Y-58560552D01*
X58921956Y-58580543D01*
X58931921Y-58601613D01*
X58939773Y-58623557D01*
X58945437Y-58646166D01*
X58948856Y-58669221D01*
X58950000Y-58692500D01*
X58950000Y-59167500D01*
X58948856Y-59190779D01*
X58945437Y-59213834D01*
X58939773Y-59236443D01*
X58931921Y-59258387D01*
X58921956Y-59279457D01*
X58909974Y-59299448D01*
X58896090Y-59318168D01*
X58880438Y-59335438D01*
X58863168Y-59351090D01*
X58844448Y-59364974D01*
X58824457Y-59376956D01*
X58803387Y-59386921D01*
X58781443Y-59394773D01*
X58758834Y-59400437D01*
X58735779Y-59403856D01*
X58712500Y-59405000D01*
X58137500Y-59405000D01*
X58114221Y-59403856D01*
X58091166Y-59400437D01*
X58068557Y-59394773D01*
X58046613Y-59386921D01*
X58025543Y-59376956D01*
X58005552Y-59364974D01*
X57986832Y-59351090D01*
X57969562Y-59335438D01*
X57953910Y-59318168D01*
X57940026Y-59299448D01*
X57928044Y-59279457D01*
X57918079Y-59258387D01*
X57910227Y-59236443D01*
X57904563Y-59213834D01*
X57901144Y-59190779D01*
X57900000Y-59167500D01*
X57900000Y-58692500D01*
X57901144Y-58669221D01*
X57904563Y-58646166D01*
X57910227Y-58623557D01*
X57918079Y-58601613D01*
X57928044Y-58580543D01*
X57940026Y-58560552D01*
X57953910Y-58541832D01*
X57969562Y-58524562D01*
X57986832Y-58508910D01*
X58005552Y-58495026D01*
X58025543Y-58483044D01*
X58046613Y-58473079D01*
X58068557Y-58465227D01*
X58091166Y-58459563D01*
X58114221Y-58456144D01*
X58137500Y-58455000D01*
X58712500Y-58455000D01*
X58735779Y-58456144D01*
X58735779Y-58456144D01*
G37*
D13*
X58425000Y-58930000D03*
D12*
G36*
X56985779Y-58456144D02*
X57008834Y-58459563D01*
X57031443Y-58465227D01*
X57053387Y-58473079D01*
X57074457Y-58483044D01*
X57094448Y-58495026D01*
X57113168Y-58508910D01*
X57130438Y-58524562D01*
X57146090Y-58541832D01*
X57159974Y-58560552D01*
X57171956Y-58580543D01*
X57181921Y-58601613D01*
X57189773Y-58623557D01*
X57195437Y-58646166D01*
X57198856Y-58669221D01*
X57200000Y-58692500D01*
X57200000Y-59167500D01*
X57198856Y-59190779D01*
X57195437Y-59213834D01*
X57189773Y-59236443D01*
X57181921Y-59258387D01*
X57171956Y-59279457D01*
X57159974Y-59299448D01*
X57146090Y-59318168D01*
X57130438Y-59335438D01*
X57113168Y-59351090D01*
X57094448Y-59364974D01*
X57074457Y-59376956D01*
X57053387Y-59386921D01*
X57031443Y-59394773D01*
X57008834Y-59400437D01*
X56985779Y-59403856D01*
X56962500Y-59405000D01*
X56387500Y-59405000D01*
X56364221Y-59403856D01*
X56341166Y-59400437D01*
X56318557Y-59394773D01*
X56296613Y-59386921D01*
X56275543Y-59376956D01*
X56255552Y-59364974D01*
X56236832Y-59351090D01*
X56219562Y-59335438D01*
X56203910Y-59318168D01*
X56190026Y-59299448D01*
X56178044Y-59279457D01*
X56168079Y-59258387D01*
X56160227Y-59236443D01*
X56154563Y-59213834D01*
X56151144Y-59190779D01*
X56150000Y-59167500D01*
X56150000Y-58692500D01*
X56151144Y-58669221D01*
X56154563Y-58646166D01*
X56160227Y-58623557D01*
X56168079Y-58601613D01*
X56178044Y-58580543D01*
X56190026Y-58560552D01*
X56203910Y-58541832D01*
X56219562Y-58524562D01*
X56236832Y-58508910D01*
X56255552Y-58495026D01*
X56275543Y-58483044D01*
X56296613Y-58473079D01*
X56318557Y-58465227D01*
X56341166Y-58459563D01*
X56364221Y-58456144D01*
X56387500Y-58455000D01*
X56962500Y-58455000D01*
X56985779Y-58456144D01*
X56985779Y-58456144D01*
G37*
D13*
X56675000Y-58930000D03*
G04 #@! TD*
D12*
G04 #@! TO.C,R6*
G36*
X56985779Y-56656144D02*
X57008834Y-56659563D01*
X57031443Y-56665227D01*
X57053387Y-56673079D01*
X57074457Y-56683044D01*
X57094448Y-56695026D01*
X57113168Y-56708910D01*
X57130438Y-56724562D01*
X57146090Y-56741832D01*
X57159974Y-56760552D01*
X57171956Y-56780543D01*
X57181921Y-56801613D01*
X57189773Y-56823557D01*
X57195437Y-56846166D01*
X57198856Y-56869221D01*
X57200000Y-56892500D01*
X57200000Y-57367500D01*
X57198856Y-57390779D01*
X57195437Y-57413834D01*
X57189773Y-57436443D01*
X57181921Y-57458387D01*
X57171956Y-57479457D01*
X57159974Y-57499448D01*
X57146090Y-57518168D01*
X57130438Y-57535438D01*
X57113168Y-57551090D01*
X57094448Y-57564974D01*
X57074457Y-57576956D01*
X57053387Y-57586921D01*
X57031443Y-57594773D01*
X57008834Y-57600437D01*
X56985779Y-57603856D01*
X56962500Y-57605000D01*
X56387500Y-57605000D01*
X56364221Y-57603856D01*
X56341166Y-57600437D01*
X56318557Y-57594773D01*
X56296613Y-57586921D01*
X56275543Y-57576956D01*
X56255552Y-57564974D01*
X56236832Y-57551090D01*
X56219562Y-57535438D01*
X56203910Y-57518168D01*
X56190026Y-57499448D01*
X56178044Y-57479457D01*
X56168079Y-57458387D01*
X56160227Y-57436443D01*
X56154563Y-57413834D01*
X56151144Y-57390779D01*
X56150000Y-57367500D01*
X56150000Y-56892500D01*
X56151144Y-56869221D01*
X56154563Y-56846166D01*
X56160227Y-56823557D01*
X56168079Y-56801613D01*
X56178044Y-56780543D01*
X56190026Y-56760552D01*
X56203910Y-56741832D01*
X56219562Y-56724562D01*
X56236832Y-56708910D01*
X56255552Y-56695026D01*
X56275543Y-56683044D01*
X56296613Y-56673079D01*
X56318557Y-56665227D01*
X56341166Y-56659563D01*
X56364221Y-56656144D01*
X56387500Y-56655000D01*
X56962500Y-56655000D01*
X56985779Y-56656144D01*
X56985779Y-56656144D01*
G37*
D13*
X56675000Y-57130000D03*
D12*
G36*
X58735779Y-56656144D02*
X58758834Y-56659563D01*
X58781443Y-56665227D01*
X58803387Y-56673079D01*
X58824457Y-56683044D01*
X58844448Y-56695026D01*
X58863168Y-56708910D01*
X58880438Y-56724562D01*
X58896090Y-56741832D01*
X58909974Y-56760552D01*
X58921956Y-56780543D01*
X58931921Y-56801613D01*
X58939773Y-56823557D01*
X58945437Y-56846166D01*
X58948856Y-56869221D01*
X58950000Y-56892500D01*
X58950000Y-57367500D01*
X58948856Y-57390779D01*
X58945437Y-57413834D01*
X58939773Y-57436443D01*
X58931921Y-57458387D01*
X58921956Y-57479457D01*
X58909974Y-57499448D01*
X58896090Y-57518168D01*
X58880438Y-57535438D01*
X58863168Y-57551090D01*
X58844448Y-57564974D01*
X58824457Y-57576956D01*
X58803387Y-57586921D01*
X58781443Y-57594773D01*
X58758834Y-57600437D01*
X58735779Y-57603856D01*
X58712500Y-57605000D01*
X58137500Y-57605000D01*
X58114221Y-57603856D01*
X58091166Y-57600437D01*
X58068557Y-57594773D01*
X58046613Y-57586921D01*
X58025543Y-57576956D01*
X58005552Y-57564974D01*
X57986832Y-57551090D01*
X57969562Y-57535438D01*
X57953910Y-57518168D01*
X57940026Y-57499448D01*
X57928044Y-57479457D01*
X57918079Y-57458387D01*
X57910227Y-57436443D01*
X57904563Y-57413834D01*
X57901144Y-57390779D01*
X57900000Y-57367500D01*
X57900000Y-56892500D01*
X57901144Y-56869221D01*
X57904563Y-56846166D01*
X57910227Y-56823557D01*
X57918079Y-56801613D01*
X57928044Y-56780543D01*
X57940026Y-56760552D01*
X57953910Y-56741832D01*
X57969562Y-56724562D01*
X57986832Y-56708910D01*
X58005552Y-56695026D01*
X58025543Y-56683044D01*
X58046613Y-56673079D01*
X58068557Y-56665227D01*
X58091166Y-56659563D01*
X58114221Y-56656144D01*
X58137500Y-56655000D01*
X58712500Y-56655000D01*
X58735779Y-56656144D01*
X58735779Y-56656144D01*
G37*
D13*
X58425000Y-57130000D03*
G04 #@! TD*
D30*
G04 #@! TO.C,N1*
X107750000Y-57030000D03*
X105210000Y-57030000D03*
D31*
X107750000Y-54490000D03*
X105210000Y-54490000D03*
G04 #@! TD*
D32*
G04 #@! TO.C,L1*
X50650000Y-92780000D03*
X50650000Y-88930000D03*
G04 #@! TD*
D20*
G04 #@! TO.C,P2*
X95830000Y-65240000D03*
D21*
X93290000Y-65240000D03*
X90750000Y-65240000D03*
X88210000Y-65240000D03*
X85670000Y-65240000D03*
X83130000Y-65240000D03*
X80590000Y-65240000D03*
X78050000Y-65240000D03*
X75510000Y-65240000D03*
X72970000Y-65240000D03*
X70430000Y-65240000D03*
X67890000Y-65240000D03*
X65350000Y-65240000D03*
X62810000Y-65240000D03*
X60270000Y-65240000D03*
G04 #@! TD*
D33*
G04 #@! TO.C,BT1*
X92800000Y-91930000D03*
X100050000Y-91930000D03*
X56050000Y-91930000D03*
X63300000Y-91930000D03*
G04 #@! TD*
D34*
G04 #@! TO.C,SD1*
X61925000Y-49855000D03*
X61925000Y-50805000D03*
X61925000Y-58505000D03*
X61925000Y-57405000D03*
X61925000Y-56305000D03*
X61925000Y-55205000D03*
X61925000Y-54105000D03*
X61925000Y-53005000D03*
X61925000Y-51905000D03*
D35*
X61925000Y-60055000D03*
X66225000Y-48905000D03*
D36*
X72425000Y-48905000D03*
D37*
X76575000Y-48905000D03*
D38*
X77025000Y-62405000D03*
G04 #@! TD*
D21*
G04 #@! TO.C,P1*
X95830000Y-80610000D03*
X93290000Y-80610000D03*
X90750000Y-80610000D03*
X88210000Y-80610000D03*
X85670000Y-80610000D03*
X83130000Y-80610000D03*
X80590000Y-80610000D03*
X78050000Y-80610000D03*
X75510000Y-80610000D03*
X72970000Y-80610000D03*
X70430000Y-80610000D03*
X67890000Y-80610000D03*
X65350000Y-80610000D03*
X62810000Y-80610000D03*
D20*
X60270000Y-80610000D03*
G04 #@! TD*
D39*
G04 #@! TO.C,SW1*
X111950000Y-87330000D03*
X111950000Y-95730000D03*
D40*
X111950000Y-89530000D03*
X111950000Y-91530000D03*
X111950000Y-93530000D03*
G04 #@! TD*
M02*
