M48
;DRILL file {KiCad (5.0.0)} date 02/21/20 23:41:52
;FORMAT={-:-/ absolute / metric / decimal}
FMAT,2
METRIC,TZ
T1C0.300
T2C0.800
T3C1.000
T4C1.100
T5C1.300
T6C1.600
T7C1.200
%
G90
G05
M71
T1
X41.82Y-49.2
X41.82Y-51.74
X41.82Y-54.28
X41.82Y-56.82
X41.82Y-59.36
X41.82Y-86.03
X41.82Y-94.92
X43.09Y-47.93
X43.09Y-60.63
X43.09Y-66.98
X43.941Y-88.635
X44.106Y-93.523
X44.36Y-79.68
X45.4Y-93.249
X45.63Y-47.93
X45.63Y-66.98
X45.63Y-96.825
X46.9Y-79.68
X47.916Y-94.92
X48.17Y-47.93
X48.17Y-66.98
X48.17Y-96.825
X48.645Y-90.919
X49.44Y-79.68
X50.71Y-47.93
X50.71Y-66.98
X50.71Y-96.825
X51.98Y-79.68
X53.25Y-47.93
X53.25Y-66.98
X53.25Y-96.825
X54.52Y-79.68
X55.79Y-96.825
X58.33Y-96.825
X58.45Y-62.03
X60.15Y-51.905
X60.87Y-47.93
X60.87Y-96.825
X62.05Y-87.93
X63.35Y-56.33
X63.41Y-47.93
X63.41Y-96.825
X63.981Y-54.216
X64.05Y-87.93
X64.934Y-62.027
X65.95Y-96.825
X67.982Y-92.38
X68.49Y-47.93
X68.49Y-96.825
X71.03Y-47.93
X71.03Y-96.825
X72.95Y-62.73
X72.95Y-67.53
X72.95Y-78.13
X72.95Y-83.13
X73.57Y-96.825
X73.95Y-47.93
X74.789Y-57.125
X75.15Y-52.68
X75.15Y-55.33
X75.35Y-62.73
X75.35Y-67.53
X75.35Y-78.13
X75.35Y-83.13
X76.11Y-96.825
X77.101Y-55.423
X77.228Y-57.125
X78.15Y-78.13
X78.15Y-83.13
X78.8Y-58.68
X79.1Y-56.306
X79.92Y-96.825
X80.55Y-78.13
X80.55Y-83.13
X80.95Y-56.33
X81.3Y-52.68
X82.35Y-54.73
X82.46Y-47.93
X82.46Y-96.825
X83.45Y-52.73
X83.55Y-58.68
X84.55Y-86.73
X85.Y-47.93
X85.Y-96.825
X85.95Y-84.73
X86.95Y-85.317
X87.54Y-47.93
X87.54Y-96.825
X88.15Y-83.93
X90.08Y-47.93
X90.08Y-96.825
X92.62Y-47.93
X92.62Y-96.825
X92.874Y-84.76
X95.16Y-47.93
X95.16Y-96.825
X95.85Y-62.83
X97.7Y-47.93
X97.7Y-81.458
X97.7Y-84.76
X97.7Y-96.825
X98.05Y-65.23
X100.05Y-47.93
X100.24Y-96.825
X100.875Y-81.585
X101.95Y-94.73
X102.78Y-66.98
X102.78Y-96.825
X104.05Y-79.045
X104.05Y-84.76
X104.685Y-80.315
X105.015Y-94.73
X105.32Y-66.98
X105.955Y-79.045
X107.86Y-66.98
X108.495Y-79.045
X109.13Y-96.825
X110.4Y-66.98
X111.035Y-79.045
X112.94Y-60.63
X112.94Y-66.98
X113.55Y-47.93
X113.575Y-79.045
X114.21Y-55.55
X114.21Y-58.09
X114.21Y-86.03
X114.21Y-90.475
X114.21Y-94.285
X114.21Y-96.825
X114.25Y-53.03
X44.65Y-90.18
X44.65Y-91.68
X45.15Y-90.93
X45.65Y-90.18
X45.65Y-91.68
T2
X58.55Y-94.92
X93.05Y-86.665
X100.672Y-65.227
X106.844Y-89.967
X111.95Y-89.53
X111.95Y-91.53
X111.95Y-93.53
T3
X70.65Y-71.63
X70.65Y-74.13
X50.25Y-53.39
X50.25Y-55.93
X60.27Y-80.61
X62.81Y-80.61
X65.35Y-80.61
X67.89Y-80.61
X70.43Y-80.61
X72.97Y-80.61
X75.51Y-80.61
X78.05Y-80.61
X80.59Y-80.61
X83.13Y-80.61
X85.67Y-80.61
X88.21Y-80.61
X90.75Y-80.61
X93.29Y-80.61
X95.83Y-80.61
X60.27Y-65.24
X62.81Y-65.24
X65.35Y-65.24
X67.89Y-65.24
X70.43Y-65.24
X72.97Y-65.24
X75.51Y-65.24
X78.05Y-65.24
X80.59Y-65.24
X83.13Y-65.24
X85.67Y-65.24
X88.21Y-65.24
X90.75Y-65.24
X93.29Y-65.24
X95.83Y-65.24
X85.45Y-71.63
X85.45Y-74.13
T4
X105.21Y-57.03
X107.75Y-57.03
T5
X111.95Y-87.33
X111.95Y-95.73
T7
X105.21Y-54.49
X107.75Y-54.49
T6
X56.05Y-91.63G85X56.05Y-92.23
G05
X63.3Y-91.63G85X63.3Y-92.23
G05
X92.8Y-92.23G85X92.8Y-91.63
G05
X100.05Y-92.23G85X100.05Y-91.63
G05
T0
M30
