M48
;DRILL file {KiCad (5.0.0)} date 08/04/19 00:31:16
;FORMAT={-:-/ absolute / metric / decimal}
FMAT,2
METRIC,TZ
T1C0.300
T2C0.500
T3C0.700
T4C0.800
T5C0.900
T6C1.000
T7C1.100
T8C1.300
T9C1.600
T10C1.200
%
G90
G05
M71
T1
X41.82Y-49.2
X41.82Y-51.74
X41.82Y-54.28
X41.82Y-56.82
X41.82Y-59.36
X41.82Y-86.03
X41.82Y-94.92
X43.09Y-47.93
X43.09Y-60.63
X43.09Y-66.98
X43.941Y-88.635
X44.106Y-93.523
X44.36Y-79.68
X45.4Y-93.249
X45.63Y-47.93
X45.63Y-66.98
X45.63Y-96.825
X46.9Y-79.68
X47.916Y-94.92
X48.17Y-47.93
X48.17Y-66.98
X48.17Y-96.825
X48.645Y-90.919
X49.44Y-60.63
X49.44Y-79.68
X50.71Y-47.93
X50.71Y-66.98
X50.71Y-96.825
X51.98Y-63.17
X51.98Y-79.68
X53.25Y-47.93
X53.25Y-65.71
X53.25Y-66.98
X53.25Y-96.825
X54.52Y-79.68
X55.79Y-96.825
X57.06Y-79.68
X58.33Y-96.825
X59.79Y-51.613
X60.87Y-47.93
X60.87Y-61.519
X60.87Y-96.825
X63.41Y-47.93
X63.41Y-96.825
X63.55Y-49.93
X63.981Y-54.216
X64.934Y-62.027
X65.315Y-55.55
X65.95Y-96.825
X66.05Y-50.18
X68.236Y-89.078
X68.49Y-47.93
X68.49Y-96.825
X69.05Y-60.93
X69.125Y-57.455
X71.03Y-47.93
X71.03Y-96.825
X72.3Y-51.105
X72.3Y-54.915
X72.49Y-88.715
X73.05Y-57.18
X73.57Y-96.825
X74.205Y-78.283
X74.789Y-57.125
X74.84Y-62.535
X74.967Y-69.52
X75.05Y-52.68
X76.11Y-96.825
X77.101Y-55.423
X77.228Y-57.125
X77.888Y-69.52
X78.015Y-77.14
X78.142Y-82.474
X78.8Y-58.68
X79.1Y-56.306
X79.602Y-89.141
X79.602Y-92.253
X79.92Y-96.825
X80.237Y-88.57
X80.555Y-63.17
X80.555Y-69.52
X80.555Y-75.362
X81.3Y-52.68
X81.571Y-55.55
X81.952Y-81.966
X82.054Y-83.134
X82.46Y-47.93
X82.46Y-96.825
X83.476Y-53.645
X83.55Y-58.68
X84.035Y-56.312
X85.Y-47.93
X85.Y-96.825
X86.27Y-54.915
X86.93Y-61.341
X87.222Y-89.141
X87.54Y-47.93
X87.54Y-96.825
X87.55Y-50.93
X89.318Y-82.22
X90.08Y-47.93
X90.08Y-96.825
X92.62Y-47.93
X92.62Y-96.825
X92.874Y-84.76
X93.89Y-54.915
X93.89Y-57.455
X95.16Y-47.93
X95.16Y-96.825
X95.414Y-52.502
X95.77Y-83.134
X95.77Y-88.824
X97.7Y-47.93
X97.7Y-50.47
X97.7Y-81.458
X97.7Y-84.76
X97.7Y-96.825
X100.24Y-47.93
X100.24Y-96.825
X100.875Y-81.585
X102.78Y-47.93
X102.78Y-66.98
X102.78Y-96.825
X104.05Y-79.045
X104.05Y-84.76
X104.685Y-80.315
X105.32Y-66.98
X105.955Y-79.045
X106.336Y-91.872
X107.86Y-66.98
X108.495Y-79.045
X109.13Y-96.825
X110.4Y-66.98
X111.035Y-79.045
X112.94Y-60.63
X112.94Y-66.98
X113.575Y-79.045
X114.21Y-55.55
X114.21Y-58.09
X114.21Y-86.03
X114.21Y-90.475
X114.21Y-94.285
X114.21Y-96.825
X44.65Y-90.18
X44.65Y-91.68
X45.15Y-90.93
X45.65Y-90.18
X45.65Y-91.68
T2
X54.926Y-63.678
X58.8Y-56.185
T3
X57.6Y-111.93
X62.68Y-111.93
X101.35Y-103.43
X101.35Y-108.51
X54.85Y-105.85
X54.85Y-110.93
X93.52Y-102.43
X98.6Y-102.43
T4
X69.252Y-91.11
X85.762Y-87.865
X100.672Y-65.227
X106.844Y-89.967
X111.95Y-89.53
X111.95Y-91.53
X111.95Y-93.53
T5
X103.85Y-108.93
X103.85Y-111.47
X52.35Y-108.89
X52.35Y-111.43
X52.35Y-102.89
X52.35Y-105.43
X103.85Y-102.93
X103.85Y-105.47
T6
X69.1Y-104.09
X69.1Y-106.63
X69.1Y-109.17
X60.27Y-80.61
X62.81Y-80.61
X65.35Y-80.61
X67.89Y-80.61
X70.43Y-80.61
X72.97Y-80.61
X75.51Y-80.61
X78.05Y-80.61
X80.59Y-80.61
X83.13Y-80.61
X85.67Y-80.61
X88.21Y-80.61
X90.75Y-80.61
X93.29Y-80.61
X95.83Y-80.61
X50.25Y-53.39
X50.25Y-55.93
X58.Y-104.09
X58.Y-106.63
X58.Y-109.17
X60.27Y-65.24
X62.81Y-65.24
X65.35Y-65.24
X67.89Y-65.24
X70.43Y-65.24
X72.97Y-65.24
X75.51Y-65.24
X78.05Y-65.24
X80.59Y-65.24
X83.13Y-65.24
X85.67Y-65.24
X88.21Y-65.24
X90.75Y-65.24
X93.29Y-65.24
X95.83Y-65.24
X98.2Y-105.19
X98.2Y-107.73
X98.2Y-110.27
X70.65Y-71.63
X70.65Y-74.13
X53.85Y-53.39
X53.85Y-55.93
X53.85Y-58.47
X87.1Y-105.19
X87.1Y-107.73
X87.1Y-110.27
X85.45Y-71.63
X85.45Y-74.13
X97.35Y-53.39
X97.35Y-55.93
X97.35Y-58.47
T7
X107.71Y-57.03
X110.25Y-57.03
T8
X111.95Y-87.33
X111.95Y-95.73
T10
X107.71Y-54.49
X110.25Y-54.49
T9
X56.05Y-90.63G85X56.05Y-91.23
G05
X63.3Y-90.63G85X63.3Y-91.23
G05
X92.8Y-91.23G85X92.8Y-90.63
G05
X100.05Y-91.23G85X100.05Y-90.63
G05
T0
M30
