G04 #@! TF.GenerationSoftware,KiCad,Pcbnew,(5.0.0)*
G04 #@! TF.CreationDate,2019-08-04T00:31:06+09:00*
G04 #@! TF.ProjectId,MiniRoverShield,4D696E69526F766572536869656C642E,rev?*
G04 #@! TF.SameCoordinates,Original*
G04 #@! TF.FileFunction,Legend,Bot*
G04 #@! TF.FilePolarity,Positive*
%FSLAX46Y46*%
G04 Gerber Fmt 4.6, Leading zero omitted, Abs format (unit mm)*
G04 Created by KiCad (PCBNEW (5.0.0)) date 08/04/19 00:31:06*
%MOMM*%
%LPD*%
G01*
G04 APERTURE LIST*
%ADD10C,0.120000*%
%ADD11C,0.150000*%
%ADD12C,1.600000*%
%ADD13R,1.700000X1.700000*%
%ADD14O,1.700000X1.700000*%
%ADD15O,1.400000X1.400000*%
%ADD16C,1.400000*%
%ADD17C,0.100000*%
%ADD18C,0.850000*%
%ADD19C,0.950000*%
%ADD20C,1.150000*%
%ADD21O,2.000000X1.700000*%
%ADD22R,2.000000X1.700000*%
%ADD23R,0.550000X1.750000*%
%ADD24R,1.750000X0.550000*%
%ADD25O,0.990000X0.420000*%
%ADD26R,0.420000X0.420000*%
%ADD27R,0.680000X1.050000*%
%ADD28R,0.280000X0.700000*%
%ADD29R,0.260000X0.500000*%
%ADD30R,1.650000X2.400000*%
%ADD31C,0.600000*%
%ADD32R,0.900000X0.800000*%
%ADD33C,2.000000*%
%ADD34C,1.200000*%
%ADD35R,1.300000X0.900000*%
%ADD36O,2.800000X3.500000*%
%ADD37R,1.200000X0.700000*%
%ADD38R,1.200000X1.000000*%
%ADD39R,0.800000X1.000000*%
%ADD40R,2.800000X1.000000*%
%ADD41R,1.900000X1.300000*%
%ADD42O,3.000000X2.000000*%
%ADD43O,2.200000X1.300000*%
G04 APERTURE END LIST*
D10*
G04 #@! TO.C,D2*
X109302500Y-48245000D02*
X111787500Y-48245000D01*
X109302500Y-49615000D02*
X109302500Y-48245000D01*
X111787500Y-49615000D02*
X109302500Y-49615000D01*
G04 #@! TO.C,D1*
X106100000Y-49615000D02*
X103615000Y-49615000D01*
X103615000Y-49615000D02*
X103615000Y-48245000D01*
X103615000Y-48245000D02*
X106100000Y-48245000D01*
G04 #@! TO.C,C3*
X59310000Y-54351267D02*
X59310000Y-54008733D01*
X58290000Y-54351267D02*
X58290000Y-54008733D01*
G04 #@! TO.C,C1*
X44613748Y-94520000D02*
X45136252Y-94520000D01*
X44613748Y-95940000D02*
X45136252Y-95940000D01*
G04 #@! TO.C,C2*
X45136252Y-85670000D02*
X44613748Y-85670000D01*
X45136252Y-87090000D02*
X44613748Y-87090000D01*
G04 #@! TO.C,C4*
X70063748Y-91720000D02*
X70586252Y-91720000D01*
X70063748Y-93140000D02*
X70586252Y-93140000D01*
G04 #@! TO.C,C5*
X85463748Y-93140000D02*
X85986252Y-93140000D01*
X85463748Y-91720000D02*
X85986252Y-91720000D01*
D11*
G04 #@! TO.C,Q1*
X108855000Y-92930000D02*
X108200000Y-92930000D01*
X108855000Y-87430000D02*
X108105000Y-87430000D01*
X102445000Y-87430000D02*
X103195000Y-87430000D01*
X102445000Y-92930000D02*
X103195000Y-92930000D01*
X108855000Y-92930000D02*
X108855000Y-87430000D01*
X102445000Y-92930000D02*
X102445000Y-87430000D01*
X108200000Y-92930000D02*
X108200000Y-94680000D01*
G04 #@! TO.C,U4*
X88500000Y-84680000D02*
X90250000Y-84680000D01*
X88500000Y-90435000D02*
X83000000Y-90435000D01*
X88500000Y-84025000D02*
X83000000Y-84025000D01*
X88500000Y-90435000D02*
X88500000Y-89685000D01*
X83000000Y-90435000D02*
X83000000Y-89685000D01*
X83000000Y-84025000D02*
X83000000Y-84775000D01*
X88500000Y-84025000D02*
X88500000Y-84680000D01*
G04 #@! TO.C,U3*
X73100000Y-84025000D02*
X73100000Y-84680000D01*
X67600000Y-84025000D02*
X67600000Y-84775000D01*
X67600000Y-90435000D02*
X67600000Y-89685000D01*
X73100000Y-90435000D02*
X73100000Y-89685000D01*
X73100000Y-84025000D02*
X67600000Y-84025000D01*
X73100000Y-90435000D02*
X67600000Y-90435000D01*
X73100000Y-84680000D02*
X74850000Y-84680000D01*
D10*
G04 #@! TO.C,U1*
X44500000Y-92555000D02*
X43525000Y-92555000D01*
X46775000Y-89305000D02*
X45800000Y-89305000D01*
X44500000Y-89305000D02*
X43525000Y-89305000D01*
X46775000Y-92555000D02*
X45800000Y-92555000D01*
X43525000Y-89530000D02*
X43525000Y-89305000D01*
X43525000Y-92330000D02*
X43525000Y-92555000D01*
X46775000Y-92555000D02*
X46775000Y-92330000D01*
G04 #@! TO.C,Q2*
X105210000Y-55450000D02*
X105210000Y-56380000D01*
X105210000Y-58610000D02*
X105210000Y-57680000D01*
X105210000Y-58610000D02*
X103050000Y-58610000D01*
X105210000Y-55450000D02*
X103750000Y-55450000D01*
G04 #@! TO.C,R3*
X101240000Y-57201267D02*
X101240000Y-56858733D01*
X102260000Y-57201267D02*
X102260000Y-56858733D01*
G04 #@! TO.C,R14*
X77970733Y-74602000D02*
X78313267Y-74602000D01*
X77970733Y-73582000D02*
X78313267Y-73582000D01*
G04 #@! TO.C,R13*
X78211667Y-72062000D02*
X77869133Y-72062000D01*
X78211667Y-71042000D02*
X77869133Y-71042000D01*
G04 #@! TO.C,R6*
X58290000Y-49258733D02*
X58290000Y-49601267D01*
X59310000Y-49258733D02*
X59310000Y-49601267D01*
G04 #@! TO.C,R5*
X47810000Y-54383733D02*
X47810000Y-54726267D01*
X46790000Y-54383733D02*
X46790000Y-54726267D01*
G04 #@! TO.C,R4*
X110753733Y-51440000D02*
X111096267Y-51440000D01*
X110753733Y-50420000D02*
X111096267Y-50420000D01*
G04 #@! TO.C,R2*
X105128733Y-50420000D02*
X105471267Y-50420000D01*
X105128733Y-51440000D02*
X105471267Y-51440000D01*
G04 #@! TO.C,R1*
X105628733Y-96940000D02*
X105971267Y-96940000D01*
X105628733Y-95920000D02*
X105971267Y-95920000D01*
G04 #@! TO.C,R8*
X55628733Y-64670000D02*
X55971267Y-64670000D01*
X55628733Y-65690000D02*
X55971267Y-65690000D01*
G04 #@! TO.C,R7*
X58290000Y-58008733D02*
X58290000Y-58351267D01*
X59310000Y-58008733D02*
X59310000Y-58351267D01*
D11*
G04 #@! TO.C,L1*
X52400000Y-92780000D02*
X52400000Y-89080000D01*
X48900000Y-89080000D02*
X48900000Y-92780000D01*
D10*
G04 #@! TO.C,SD1*
X78035000Y-58735000D02*
X77685000Y-58225000D01*
X77835000Y-61245000D02*
X77835000Y-61505000D01*
X78035000Y-61045000D02*
X77835000Y-61245000D01*
X78035000Y-51645000D02*
X77835000Y-51855000D01*
X77685000Y-51855000D02*
X77835000Y-51855000D01*
X77685000Y-51855000D02*
X77685000Y-58225000D01*
X73075000Y-48755000D02*
X74875000Y-48755000D01*
X67075000Y-48755000D02*
X71775000Y-48755000D01*
X78035000Y-49785000D02*
X77835000Y-49585000D01*
X78035000Y-49785000D02*
X78035000Y-51645000D01*
X78035000Y-61045000D02*
X78035000Y-58735000D01*
X61765000Y-48755000D02*
X65375000Y-48755000D01*
X61765000Y-49205000D02*
X61765000Y-48755000D01*
X61765000Y-62725000D02*
X75775000Y-62725000D01*
X61765000Y-60805000D02*
X61765000Y-62725000D01*
G04 #@! TO.C,J1*
X98680000Y-59800000D02*
X96020000Y-59800000D01*
X98680000Y-54660000D02*
X98680000Y-59800000D01*
X96020000Y-54660000D02*
X96020000Y-59800000D01*
X98680000Y-54660000D02*
X96020000Y-54660000D01*
X98680000Y-53390000D02*
X98680000Y-52060000D01*
X98680000Y-52060000D02*
X97350000Y-52060000D01*
G04 #@! TO.C,J2*
X55180000Y-59800000D02*
X52520000Y-59800000D01*
X55180000Y-54660000D02*
X55180000Y-59800000D01*
X52520000Y-54660000D02*
X52520000Y-59800000D01*
X55180000Y-54660000D02*
X52520000Y-54660000D01*
X55180000Y-53390000D02*
X55180000Y-52060000D01*
X55180000Y-52060000D02*
X53850000Y-52060000D01*
G04 #@! TO.C,D2*
D11*
X114538095Y-49382380D02*
X114538095Y-48382380D01*
X114300000Y-48382380D01*
X114157142Y-48430000D01*
X114061904Y-48525238D01*
X114014285Y-48620476D01*
X113966666Y-48810952D01*
X113966666Y-48953809D01*
X114014285Y-49144285D01*
X114061904Y-49239523D01*
X114157142Y-49334761D01*
X114300000Y-49382380D01*
X114538095Y-49382380D01*
X113585714Y-48477619D02*
X113538095Y-48430000D01*
X113442857Y-48382380D01*
X113204761Y-48382380D01*
X113109523Y-48430000D01*
X113061904Y-48477619D01*
X113014285Y-48572857D01*
X113014285Y-48668095D01*
X113061904Y-48810952D01*
X113633333Y-49382380D01*
X113014285Y-49382380D01*
G04 #@! TO.C,D1*
X103288095Y-49382380D02*
X103288095Y-48382380D01*
X103050000Y-48382380D01*
X102907142Y-48430000D01*
X102811904Y-48525238D01*
X102764285Y-48620476D01*
X102716666Y-48810952D01*
X102716666Y-48953809D01*
X102764285Y-49144285D01*
X102811904Y-49239523D01*
X102907142Y-49334761D01*
X103050000Y-49382380D01*
X103288095Y-49382380D01*
X101764285Y-49382380D02*
X102335714Y-49382380D01*
X102050000Y-49382380D02*
X102050000Y-48382380D01*
X102145238Y-48525238D01*
X102240476Y-48620476D01*
X102335714Y-48668095D01*
G04 #@! TO.C,C3*
X58966666Y-52287142D02*
X59014285Y-52334761D01*
X59157142Y-52382380D01*
X59252380Y-52382380D01*
X59395238Y-52334761D01*
X59490476Y-52239523D01*
X59538095Y-52144285D01*
X59585714Y-51953809D01*
X59585714Y-51810952D01*
X59538095Y-51620476D01*
X59490476Y-51525238D01*
X59395238Y-51430000D01*
X59252380Y-51382380D01*
X59157142Y-51382380D01*
X59014285Y-51430000D01*
X58966666Y-51477619D01*
X58633333Y-51382380D02*
X58014285Y-51382380D01*
X58347619Y-51763333D01*
X58204761Y-51763333D01*
X58109523Y-51810952D01*
X58061904Y-51858571D01*
X58014285Y-51953809D01*
X58014285Y-52191904D01*
X58061904Y-52287142D01*
X58109523Y-52334761D01*
X58204761Y-52382380D01*
X58490476Y-52382380D01*
X58585714Y-52334761D01*
X58633333Y-52287142D01*
G04 #@! TO.C,C1*
X48216666Y-95537142D02*
X48264285Y-95584761D01*
X48407142Y-95632380D01*
X48502380Y-95632380D01*
X48645238Y-95584761D01*
X48740476Y-95489523D01*
X48788095Y-95394285D01*
X48835714Y-95203809D01*
X48835714Y-95060952D01*
X48788095Y-94870476D01*
X48740476Y-94775238D01*
X48645238Y-94680000D01*
X48502380Y-94632380D01*
X48407142Y-94632380D01*
X48264285Y-94680000D01*
X48216666Y-94727619D01*
X47264285Y-95632380D02*
X47835714Y-95632380D01*
X47550000Y-95632380D02*
X47550000Y-94632380D01*
X47645238Y-94775238D01*
X47740476Y-94870476D01*
X47835714Y-94918095D01*
G04 #@! TO.C,C2*
X48216666Y-86787142D02*
X48264285Y-86834761D01*
X48407142Y-86882380D01*
X48502380Y-86882380D01*
X48645238Y-86834761D01*
X48740476Y-86739523D01*
X48788095Y-86644285D01*
X48835714Y-86453809D01*
X48835714Y-86310952D01*
X48788095Y-86120476D01*
X48740476Y-86025238D01*
X48645238Y-85930000D01*
X48502380Y-85882380D01*
X48407142Y-85882380D01*
X48264285Y-85930000D01*
X48216666Y-85977619D01*
X47835714Y-85977619D02*
X47788095Y-85930000D01*
X47692857Y-85882380D01*
X47454761Y-85882380D01*
X47359523Y-85930000D01*
X47311904Y-85977619D01*
X47264285Y-86072857D01*
X47264285Y-86168095D01*
X47311904Y-86310952D01*
X47883333Y-86882380D01*
X47264285Y-86882380D01*
G04 #@! TO.C,C4*
X70491666Y-94437142D02*
X70539285Y-94484761D01*
X70682142Y-94532380D01*
X70777380Y-94532380D01*
X70920238Y-94484761D01*
X71015476Y-94389523D01*
X71063095Y-94294285D01*
X71110714Y-94103809D01*
X71110714Y-93960952D01*
X71063095Y-93770476D01*
X71015476Y-93675238D01*
X70920238Y-93580000D01*
X70777380Y-93532380D01*
X70682142Y-93532380D01*
X70539285Y-93580000D01*
X70491666Y-93627619D01*
X69634523Y-93865714D02*
X69634523Y-94532380D01*
X69872619Y-93484761D02*
X70110714Y-94199047D01*
X69491666Y-94199047D01*
G04 #@! TO.C,C5*
X85891666Y-94437142D02*
X85939285Y-94484761D01*
X86082142Y-94532380D01*
X86177380Y-94532380D01*
X86320238Y-94484761D01*
X86415476Y-94389523D01*
X86463095Y-94294285D01*
X86510714Y-94103809D01*
X86510714Y-93960952D01*
X86463095Y-93770476D01*
X86415476Y-93675238D01*
X86320238Y-93580000D01*
X86177380Y-93532380D01*
X86082142Y-93532380D01*
X85939285Y-93580000D01*
X85891666Y-93627619D01*
X84986904Y-93532380D02*
X85463095Y-93532380D01*
X85510714Y-94008571D01*
X85463095Y-93960952D01*
X85367857Y-93913333D01*
X85129761Y-93913333D01*
X85034523Y-93960952D01*
X84986904Y-94008571D01*
X84939285Y-94103809D01*
X84939285Y-94341904D01*
X84986904Y-94437142D01*
X85034523Y-94484761D01*
X85129761Y-94532380D01*
X85367857Y-94532380D01*
X85463095Y-94484761D01*
X85510714Y-94437142D01*
G04 #@! TO.C,Q1*
X101847619Y-88084761D02*
X101800000Y-87989523D01*
X101704761Y-87894285D01*
X101561904Y-87751428D01*
X101514285Y-87656190D01*
X101514285Y-87560952D01*
X101752380Y-87608571D02*
X101704761Y-87513333D01*
X101609523Y-87418095D01*
X101419047Y-87370476D01*
X101085714Y-87370476D01*
X100895238Y-87418095D01*
X100800000Y-87513333D01*
X100752380Y-87608571D01*
X100752380Y-87799047D01*
X100800000Y-87894285D01*
X100895238Y-87989523D01*
X101085714Y-88037142D01*
X101419047Y-88037142D01*
X101609523Y-87989523D01*
X101704761Y-87894285D01*
X101752380Y-87799047D01*
X101752380Y-87608571D01*
X101752380Y-88989523D02*
X101752380Y-88418095D01*
X101752380Y-88703809D02*
X100752380Y-88703809D01*
X100895238Y-88608571D01*
X100990476Y-88513333D01*
X101038095Y-88418095D01*
G04 #@! TO.C,U4*
X86511904Y-82632380D02*
X86511904Y-83441904D01*
X86464285Y-83537142D01*
X86416666Y-83584761D01*
X86321428Y-83632380D01*
X86130952Y-83632380D01*
X86035714Y-83584761D01*
X85988095Y-83537142D01*
X85940476Y-83441904D01*
X85940476Y-82632380D01*
X85035714Y-82965714D02*
X85035714Y-83632380D01*
X85273809Y-82584761D02*
X85511904Y-83299047D01*
X84892857Y-83299047D01*
G04 #@! TO.C,U3*
X71111904Y-82632380D02*
X71111904Y-83441904D01*
X71064285Y-83537142D01*
X71016666Y-83584761D01*
X70921428Y-83632380D01*
X70730952Y-83632380D01*
X70635714Y-83584761D01*
X70588095Y-83537142D01*
X70540476Y-83441904D01*
X70540476Y-82632380D01*
X70159523Y-82632380D02*
X69540476Y-82632380D01*
X69873809Y-83013333D01*
X69730952Y-83013333D01*
X69635714Y-83060952D01*
X69588095Y-83108571D01*
X69540476Y-83203809D01*
X69540476Y-83441904D01*
X69588095Y-83537142D01*
X69635714Y-83584761D01*
X69730952Y-83632380D01*
X70016666Y-83632380D01*
X70111904Y-83584761D01*
X70159523Y-83537142D01*
G04 #@! TO.C,U1*
X41502380Y-90168095D02*
X42311904Y-90168095D01*
X42407142Y-90215714D01*
X42454761Y-90263333D01*
X42502380Y-90358571D01*
X42502380Y-90549047D01*
X42454761Y-90644285D01*
X42407142Y-90691904D01*
X42311904Y-90739523D01*
X41502380Y-90739523D01*
X42502380Y-91739523D02*
X42502380Y-91168095D01*
X42502380Y-91453809D02*
X41502380Y-91453809D01*
X41645238Y-91358571D01*
X41740476Y-91263333D01*
X41788095Y-91168095D01*
G04 #@! TO.C,Q2*
X104997619Y-60084761D02*
X104950000Y-59989523D01*
X104854761Y-59894285D01*
X104711904Y-59751428D01*
X104664285Y-59656190D01*
X104664285Y-59560952D01*
X104902380Y-59608571D02*
X104854761Y-59513333D01*
X104759523Y-59418095D01*
X104569047Y-59370476D01*
X104235714Y-59370476D01*
X104045238Y-59418095D01*
X103950000Y-59513333D01*
X103902380Y-59608571D01*
X103902380Y-59799047D01*
X103950000Y-59894285D01*
X104045238Y-59989523D01*
X104235714Y-60037142D01*
X104569047Y-60037142D01*
X104759523Y-59989523D01*
X104854761Y-59894285D01*
X104902380Y-59799047D01*
X104902380Y-59608571D01*
X103997619Y-60418095D02*
X103950000Y-60465714D01*
X103902380Y-60560952D01*
X103902380Y-60799047D01*
X103950000Y-60894285D01*
X103997619Y-60941904D01*
X104092857Y-60989523D01*
X104188095Y-60989523D01*
X104330952Y-60941904D01*
X104902380Y-60370476D01*
X104902380Y-60989523D01*
G04 #@! TO.C,R3*
X102252380Y-60013333D02*
X101776190Y-59680000D01*
X102252380Y-59441904D02*
X101252380Y-59441904D01*
X101252380Y-59822857D01*
X101300000Y-59918095D01*
X101347619Y-59965714D01*
X101442857Y-60013333D01*
X101585714Y-60013333D01*
X101680952Y-59965714D01*
X101728571Y-59918095D01*
X101776190Y-59822857D01*
X101776190Y-59441904D01*
X101252380Y-60346666D02*
X101252380Y-60965714D01*
X101633333Y-60632380D01*
X101633333Y-60775238D01*
X101680952Y-60870476D01*
X101728571Y-60918095D01*
X101823809Y-60965714D01*
X102061904Y-60965714D01*
X102157142Y-60918095D01*
X102204761Y-60870476D01*
X102252380Y-60775238D01*
X102252380Y-60489523D01*
X102204761Y-60394285D01*
X102157142Y-60346666D01*
G04 #@! TO.C,R14*
X78784857Y-75974380D02*
X79118190Y-75498190D01*
X79356285Y-75974380D02*
X79356285Y-74974380D01*
X78975333Y-74974380D01*
X78880095Y-75022000D01*
X78832476Y-75069619D01*
X78784857Y-75164857D01*
X78784857Y-75307714D01*
X78832476Y-75402952D01*
X78880095Y-75450571D01*
X78975333Y-75498190D01*
X79356285Y-75498190D01*
X77832476Y-75974380D02*
X78403904Y-75974380D01*
X78118190Y-75974380D02*
X78118190Y-74974380D01*
X78213428Y-75117238D01*
X78308666Y-75212476D01*
X78403904Y-75260095D01*
X76975333Y-75307714D02*
X76975333Y-75974380D01*
X77213428Y-74926761D02*
X77451523Y-75641047D01*
X76832476Y-75641047D01*
G04 #@! TO.C,R13*
X78683257Y-70574380D02*
X79016590Y-70098190D01*
X79254685Y-70574380D02*
X79254685Y-69574380D01*
X78873733Y-69574380D01*
X78778495Y-69622000D01*
X78730876Y-69669619D01*
X78683257Y-69764857D01*
X78683257Y-69907714D01*
X78730876Y-70002952D01*
X78778495Y-70050571D01*
X78873733Y-70098190D01*
X79254685Y-70098190D01*
X77730876Y-70574380D02*
X78302304Y-70574380D01*
X78016590Y-70574380D02*
X78016590Y-69574380D01*
X78111828Y-69717238D01*
X78207066Y-69812476D01*
X78302304Y-69860095D01*
X77397542Y-69574380D02*
X76778495Y-69574380D01*
X77111828Y-69955333D01*
X76968971Y-69955333D01*
X76873733Y-70002952D01*
X76826114Y-70050571D01*
X76778495Y-70145809D01*
X76778495Y-70383904D01*
X76826114Y-70479142D01*
X76873733Y-70526761D01*
X76968971Y-70574380D01*
X77254685Y-70574380D01*
X77349923Y-70526761D01*
X77397542Y-70479142D01*
G04 #@! TO.C,R6*
X57216666Y-48882380D02*
X57550000Y-48406190D01*
X57788095Y-48882380D02*
X57788095Y-47882380D01*
X57407142Y-47882380D01*
X57311904Y-47930000D01*
X57264285Y-47977619D01*
X57216666Y-48072857D01*
X57216666Y-48215714D01*
X57264285Y-48310952D01*
X57311904Y-48358571D01*
X57407142Y-48406190D01*
X57788095Y-48406190D01*
X56359523Y-47882380D02*
X56550000Y-47882380D01*
X56645238Y-47930000D01*
X56692857Y-47977619D01*
X56788095Y-48120476D01*
X56835714Y-48310952D01*
X56835714Y-48691904D01*
X56788095Y-48787142D01*
X56740476Y-48834761D01*
X56645238Y-48882380D01*
X56454761Y-48882380D01*
X56359523Y-48834761D01*
X56311904Y-48787142D01*
X56264285Y-48691904D01*
X56264285Y-48453809D01*
X56311904Y-48358571D01*
X56359523Y-48310952D01*
X56454761Y-48263333D01*
X56645238Y-48263333D01*
X56740476Y-48310952D01*
X56788095Y-48358571D01*
X56835714Y-48453809D01*
G04 #@! TO.C,R5*
X46322380Y-54388333D02*
X45846190Y-54055000D01*
X46322380Y-53816904D02*
X45322380Y-53816904D01*
X45322380Y-54197857D01*
X45370000Y-54293095D01*
X45417619Y-54340714D01*
X45512857Y-54388333D01*
X45655714Y-54388333D01*
X45750952Y-54340714D01*
X45798571Y-54293095D01*
X45846190Y-54197857D01*
X45846190Y-53816904D01*
X45322380Y-55293095D02*
X45322380Y-54816904D01*
X45798571Y-54769285D01*
X45750952Y-54816904D01*
X45703333Y-54912142D01*
X45703333Y-55150238D01*
X45750952Y-55245476D01*
X45798571Y-55293095D01*
X45893809Y-55340714D01*
X46131904Y-55340714D01*
X46227142Y-55293095D01*
X46274761Y-55245476D01*
X46322380Y-55150238D01*
X46322380Y-54912142D01*
X46274761Y-54816904D01*
X46227142Y-54769285D01*
G04 #@! TO.C,R4*
X113966666Y-51382380D02*
X114300000Y-50906190D01*
X114538095Y-51382380D02*
X114538095Y-50382380D01*
X114157142Y-50382380D01*
X114061904Y-50430000D01*
X114014285Y-50477619D01*
X113966666Y-50572857D01*
X113966666Y-50715714D01*
X114014285Y-50810952D01*
X114061904Y-50858571D01*
X114157142Y-50906190D01*
X114538095Y-50906190D01*
X113109523Y-50715714D02*
X113109523Y-51382380D01*
X113347619Y-50334761D02*
X113585714Y-51049047D01*
X112966666Y-51049047D01*
G04 #@! TO.C,R2*
X102716666Y-51382380D02*
X103050000Y-50906190D01*
X103288095Y-51382380D02*
X103288095Y-50382380D01*
X102907142Y-50382380D01*
X102811904Y-50430000D01*
X102764285Y-50477619D01*
X102716666Y-50572857D01*
X102716666Y-50715714D01*
X102764285Y-50810952D01*
X102811904Y-50858571D01*
X102907142Y-50906190D01*
X103288095Y-50906190D01*
X102335714Y-50477619D02*
X102288095Y-50430000D01*
X102192857Y-50382380D01*
X101954761Y-50382380D01*
X101859523Y-50430000D01*
X101811904Y-50477619D01*
X101764285Y-50572857D01*
X101764285Y-50668095D01*
X101811904Y-50810952D01*
X102383333Y-51382380D01*
X101764285Y-51382380D01*
G04 #@! TO.C,R1*
X102966666Y-96882380D02*
X103300000Y-96406190D01*
X103538095Y-96882380D02*
X103538095Y-95882380D01*
X103157142Y-95882380D01*
X103061904Y-95930000D01*
X103014285Y-95977619D01*
X102966666Y-96072857D01*
X102966666Y-96215714D01*
X103014285Y-96310952D01*
X103061904Y-96358571D01*
X103157142Y-96406190D01*
X103538095Y-96406190D01*
X102014285Y-96882380D02*
X102585714Y-96882380D01*
X102300000Y-96882380D02*
X102300000Y-95882380D01*
X102395238Y-96025238D01*
X102490476Y-96120476D01*
X102585714Y-96168095D01*
G04 #@! TO.C,R8*
X55966666Y-67062380D02*
X56300000Y-66586190D01*
X56538095Y-67062380D02*
X56538095Y-66062380D01*
X56157142Y-66062380D01*
X56061904Y-66110000D01*
X56014285Y-66157619D01*
X55966666Y-66252857D01*
X55966666Y-66395714D01*
X56014285Y-66490952D01*
X56061904Y-66538571D01*
X56157142Y-66586190D01*
X56538095Y-66586190D01*
X55395238Y-66490952D02*
X55490476Y-66443333D01*
X55538095Y-66395714D01*
X55585714Y-66300476D01*
X55585714Y-66252857D01*
X55538095Y-66157619D01*
X55490476Y-66110000D01*
X55395238Y-66062380D01*
X55204761Y-66062380D01*
X55109523Y-66110000D01*
X55061904Y-66157619D01*
X55014285Y-66252857D01*
X55014285Y-66300476D01*
X55061904Y-66395714D01*
X55109523Y-66443333D01*
X55204761Y-66490952D01*
X55395238Y-66490952D01*
X55490476Y-66538571D01*
X55538095Y-66586190D01*
X55585714Y-66681428D01*
X55585714Y-66871904D01*
X55538095Y-66967142D01*
X55490476Y-67014761D01*
X55395238Y-67062380D01*
X55204761Y-67062380D01*
X55109523Y-67014761D01*
X55061904Y-66967142D01*
X55014285Y-66871904D01*
X55014285Y-66681428D01*
X55061904Y-66586190D01*
X55109523Y-66538571D01*
X55204761Y-66490952D01*
G04 #@! TO.C,R7*
X58966666Y-61507380D02*
X59300000Y-61031190D01*
X59538095Y-61507380D02*
X59538095Y-60507380D01*
X59157142Y-60507380D01*
X59061904Y-60555000D01*
X59014285Y-60602619D01*
X58966666Y-60697857D01*
X58966666Y-60840714D01*
X59014285Y-60935952D01*
X59061904Y-60983571D01*
X59157142Y-61031190D01*
X59538095Y-61031190D01*
X58633333Y-60507380D02*
X57966666Y-60507380D01*
X58395238Y-61507380D01*
G04 #@! TO.C,L1*
X50716666Y-87882380D02*
X51192857Y-87882380D01*
X51192857Y-86882380D01*
X49859523Y-87882380D02*
X50430952Y-87882380D01*
X50145238Y-87882380D02*
X50145238Y-86882380D01*
X50240476Y-87025238D01*
X50335714Y-87120476D01*
X50430952Y-87168095D01*
G04 #@! TO.C,SD1*
X64454761Y-54668095D02*
X64502380Y-54810952D01*
X64502380Y-55049047D01*
X64454761Y-55144285D01*
X64407142Y-55191904D01*
X64311904Y-55239523D01*
X64216666Y-55239523D01*
X64121428Y-55191904D01*
X64073809Y-55144285D01*
X64026190Y-55049047D01*
X63978571Y-54858571D01*
X63930952Y-54763333D01*
X63883333Y-54715714D01*
X63788095Y-54668095D01*
X63692857Y-54668095D01*
X63597619Y-54715714D01*
X63550000Y-54763333D01*
X63502380Y-54858571D01*
X63502380Y-55096666D01*
X63550000Y-55239523D01*
X64502380Y-55668095D02*
X63502380Y-55668095D01*
X63502380Y-55906190D01*
X63550000Y-56049047D01*
X63645238Y-56144285D01*
X63740476Y-56191904D01*
X63930952Y-56239523D01*
X64073809Y-56239523D01*
X64264285Y-56191904D01*
X64359523Y-56144285D01*
X64454761Y-56049047D01*
X64502380Y-55906190D01*
X64502380Y-55668095D01*
X64502380Y-57191904D02*
X64502380Y-56620476D01*
X64502380Y-56906190D02*
X63502380Y-56906190D01*
X63645238Y-56810952D01*
X63740476Y-56715714D01*
X63788095Y-56620476D01*
G04 #@! TD*
%LPC*%
D12*
G04 #@! TO.C,Q4*
X103850000Y-111470000D03*
X103850000Y-108930000D03*
G04 #@! TD*
G04 #@! TO.C,D4*
X103850000Y-102930000D03*
X103850000Y-105470000D03*
G04 #@! TD*
D13*
G04 #@! TO.C,J6*
X98200000Y-105190000D03*
D14*
X98200000Y-107730000D03*
X98200000Y-110270000D03*
G04 #@! TD*
D13*
G04 #@! TO.C,J4*
X87100000Y-110270000D03*
D14*
X87100000Y-107730000D03*
X87100000Y-105190000D03*
G04 #@! TD*
D15*
G04 #@! TO.C,R10*
X101350000Y-108510000D03*
D16*
X101350000Y-103430000D03*
G04 #@! TD*
G04 #@! TO.C,R12*
X98600000Y-102430000D03*
D15*
X93520000Y-102430000D03*
G04 #@! TD*
D17*
G04 #@! TO.C,D2*
G36*
X112220829Y-48506023D02*
X112241457Y-48509083D01*
X112261685Y-48514150D01*
X112281320Y-48521176D01*
X112300172Y-48530092D01*
X112318059Y-48540813D01*
X112334809Y-48553235D01*
X112350260Y-48567240D01*
X112364265Y-48582691D01*
X112376687Y-48599441D01*
X112387408Y-48617328D01*
X112396324Y-48636180D01*
X112403350Y-48655815D01*
X112408417Y-48676043D01*
X112411477Y-48696671D01*
X112412500Y-48717500D01*
X112412500Y-49142500D01*
X112411477Y-49163329D01*
X112408417Y-49183957D01*
X112403350Y-49204185D01*
X112396324Y-49223820D01*
X112387408Y-49242672D01*
X112376687Y-49260559D01*
X112364265Y-49277309D01*
X112350260Y-49292760D01*
X112334809Y-49306765D01*
X112318059Y-49319187D01*
X112300172Y-49329908D01*
X112281320Y-49338824D01*
X112261685Y-49345850D01*
X112241457Y-49350917D01*
X112220829Y-49353977D01*
X112200000Y-49355000D01*
X111400000Y-49355000D01*
X111379171Y-49353977D01*
X111358543Y-49350917D01*
X111338315Y-49345850D01*
X111318680Y-49338824D01*
X111299828Y-49329908D01*
X111281941Y-49319187D01*
X111265191Y-49306765D01*
X111249740Y-49292760D01*
X111235735Y-49277309D01*
X111223313Y-49260559D01*
X111212592Y-49242672D01*
X111203676Y-49223820D01*
X111196650Y-49204185D01*
X111191583Y-49183957D01*
X111188523Y-49163329D01*
X111187500Y-49142500D01*
X111187500Y-48717500D01*
X111188523Y-48696671D01*
X111191583Y-48676043D01*
X111196650Y-48655815D01*
X111203676Y-48636180D01*
X111212592Y-48617328D01*
X111223313Y-48599441D01*
X111235735Y-48582691D01*
X111249740Y-48567240D01*
X111265191Y-48553235D01*
X111281941Y-48540813D01*
X111299828Y-48530092D01*
X111318680Y-48521176D01*
X111338315Y-48514150D01*
X111358543Y-48509083D01*
X111379171Y-48506023D01*
X111400000Y-48505000D01*
X112200000Y-48505000D01*
X112220829Y-48506023D01*
X112220829Y-48506023D01*
G37*
D18*
X111800000Y-48930000D03*
D17*
G36*
X110595829Y-48506023D02*
X110616457Y-48509083D01*
X110636685Y-48514150D01*
X110656320Y-48521176D01*
X110675172Y-48530092D01*
X110693059Y-48540813D01*
X110709809Y-48553235D01*
X110725260Y-48567240D01*
X110739265Y-48582691D01*
X110751687Y-48599441D01*
X110762408Y-48617328D01*
X110771324Y-48636180D01*
X110778350Y-48655815D01*
X110783417Y-48676043D01*
X110786477Y-48696671D01*
X110787500Y-48717500D01*
X110787500Y-49142500D01*
X110786477Y-49163329D01*
X110783417Y-49183957D01*
X110778350Y-49204185D01*
X110771324Y-49223820D01*
X110762408Y-49242672D01*
X110751687Y-49260559D01*
X110739265Y-49277309D01*
X110725260Y-49292760D01*
X110709809Y-49306765D01*
X110693059Y-49319187D01*
X110675172Y-49329908D01*
X110656320Y-49338824D01*
X110636685Y-49345850D01*
X110616457Y-49350917D01*
X110595829Y-49353977D01*
X110575000Y-49355000D01*
X109775000Y-49355000D01*
X109754171Y-49353977D01*
X109733543Y-49350917D01*
X109713315Y-49345850D01*
X109693680Y-49338824D01*
X109674828Y-49329908D01*
X109656941Y-49319187D01*
X109640191Y-49306765D01*
X109624740Y-49292760D01*
X109610735Y-49277309D01*
X109598313Y-49260559D01*
X109587592Y-49242672D01*
X109578676Y-49223820D01*
X109571650Y-49204185D01*
X109566583Y-49183957D01*
X109563523Y-49163329D01*
X109562500Y-49142500D01*
X109562500Y-48717500D01*
X109563523Y-48696671D01*
X109566583Y-48676043D01*
X109571650Y-48655815D01*
X109578676Y-48636180D01*
X109587592Y-48617328D01*
X109598313Y-48599441D01*
X109610735Y-48582691D01*
X109624740Y-48567240D01*
X109640191Y-48553235D01*
X109656941Y-48540813D01*
X109674828Y-48530092D01*
X109693680Y-48521176D01*
X109713315Y-48514150D01*
X109733543Y-48509083D01*
X109754171Y-48506023D01*
X109775000Y-48505000D01*
X110575000Y-48505000D01*
X110595829Y-48506023D01*
X110595829Y-48506023D01*
G37*
D18*
X110175000Y-48930000D03*
G04 #@! TD*
D17*
G04 #@! TO.C,D1*
G36*
X104908329Y-48506023D02*
X104928957Y-48509083D01*
X104949185Y-48514150D01*
X104968820Y-48521176D01*
X104987672Y-48530092D01*
X105005559Y-48540813D01*
X105022309Y-48553235D01*
X105037760Y-48567240D01*
X105051765Y-48582691D01*
X105064187Y-48599441D01*
X105074908Y-48617328D01*
X105083824Y-48636180D01*
X105090850Y-48655815D01*
X105095917Y-48676043D01*
X105098977Y-48696671D01*
X105100000Y-48717500D01*
X105100000Y-49142500D01*
X105098977Y-49163329D01*
X105095917Y-49183957D01*
X105090850Y-49204185D01*
X105083824Y-49223820D01*
X105074908Y-49242672D01*
X105064187Y-49260559D01*
X105051765Y-49277309D01*
X105037760Y-49292760D01*
X105022309Y-49306765D01*
X105005559Y-49319187D01*
X104987672Y-49329908D01*
X104968820Y-49338824D01*
X104949185Y-49345850D01*
X104928957Y-49350917D01*
X104908329Y-49353977D01*
X104887500Y-49355000D01*
X104087500Y-49355000D01*
X104066671Y-49353977D01*
X104046043Y-49350917D01*
X104025815Y-49345850D01*
X104006180Y-49338824D01*
X103987328Y-49329908D01*
X103969441Y-49319187D01*
X103952691Y-49306765D01*
X103937240Y-49292760D01*
X103923235Y-49277309D01*
X103910813Y-49260559D01*
X103900092Y-49242672D01*
X103891176Y-49223820D01*
X103884150Y-49204185D01*
X103879083Y-49183957D01*
X103876023Y-49163329D01*
X103875000Y-49142500D01*
X103875000Y-48717500D01*
X103876023Y-48696671D01*
X103879083Y-48676043D01*
X103884150Y-48655815D01*
X103891176Y-48636180D01*
X103900092Y-48617328D01*
X103910813Y-48599441D01*
X103923235Y-48582691D01*
X103937240Y-48567240D01*
X103952691Y-48553235D01*
X103969441Y-48540813D01*
X103987328Y-48530092D01*
X104006180Y-48521176D01*
X104025815Y-48514150D01*
X104046043Y-48509083D01*
X104066671Y-48506023D01*
X104087500Y-48505000D01*
X104887500Y-48505000D01*
X104908329Y-48506023D01*
X104908329Y-48506023D01*
G37*
D18*
X104487500Y-48930000D03*
D17*
G36*
X106533329Y-48506023D02*
X106553957Y-48509083D01*
X106574185Y-48514150D01*
X106593820Y-48521176D01*
X106612672Y-48530092D01*
X106630559Y-48540813D01*
X106647309Y-48553235D01*
X106662760Y-48567240D01*
X106676765Y-48582691D01*
X106689187Y-48599441D01*
X106699908Y-48617328D01*
X106708824Y-48636180D01*
X106715850Y-48655815D01*
X106720917Y-48676043D01*
X106723977Y-48696671D01*
X106725000Y-48717500D01*
X106725000Y-49142500D01*
X106723977Y-49163329D01*
X106720917Y-49183957D01*
X106715850Y-49204185D01*
X106708824Y-49223820D01*
X106699908Y-49242672D01*
X106689187Y-49260559D01*
X106676765Y-49277309D01*
X106662760Y-49292760D01*
X106647309Y-49306765D01*
X106630559Y-49319187D01*
X106612672Y-49329908D01*
X106593820Y-49338824D01*
X106574185Y-49345850D01*
X106553957Y-49350917D01*
X106533329Y-49353977D01*
X106512500Y-49355000D01*
X105712500Y-49355000D01*
X105691671Y-49353977D01*
X105671043Y-49350917D01*
X105650815Y-49345850D01*
X105631180Y-49338824D01*
X105612328Y-49329908D01*
X105594441Y-49319187D01*
X105577691Y-49306765D01*
X105562240Y-49292760D01*
X105548235Y-49277309D01*
X105535813Y-49260559D01*
X105525092Y-49242672D01*
X105516176Y-49223820D01*
X105509150Y-49204185D01*
X105504083Y-49183957D01*
X105501023Y-49163329D01*
X105500000Y-49142500D01*
X105500000Y-48717500D01*
X105501023Y-48696671D01*
X105504083Y-48676043D01*
X105509150Y-48655815D01*
X105516176Y-48636180D01*
X105525092Y-48617328D01*
X105535813Y-48599441D01*
X105548235Y-48582691D01*
X105562240Y-48567240D01*
X105577691Y-48553235D01*
X105594441Y-48540813D01*
X105612328Y-48530092D01*
X105631180Y-48521176D01*
X105650815Y-48514150D01*
X105671043Y-48509083D01*
X105691671Y-48506023D01*
X105712500Y-48505000D01*
X106512500Y-48505000D01*
X106533329Y-48506023D01*
X106533329Y-48506023D01*
G37*
D18*
X106112500Y-48930000D03*
G04 #@! TD*
D12*
G04 #@! TO.C,D3*
X52350000Y-108890000D03*
X52350000Y-111430000D03*
G04 #@! TD*
G04 #@! TO.C,Q3*
X52350000Y-105430000D03*
X52350000Y-102890000D03*
G04 #@! TD*
D14*
G04 #@! TO.C,J3*
X69100000Y-109170000D03*
X69100000Y-106630000D03*
D13*
X69100000Y-104090000D03*
G04 #@! TD*
D17*
G04 #@! TO.C,C3*
G36*
X59060779Y-54531144D02*
X59083834Y-54534563D01*
X59106443Y-54540227D01*
X59128387Y-54548079D01*
X59149457Y-54558044D01*
X59169448Y-54570026D01*
X59188168Y-54583910D01*
X59205438Y-54599562D01*
X59221090Y-54616832D01*
X59234974Y-54635552D01*
X59246956Y-54655543D01*
X59256921Y-54676613D01*
X59264773Y-54698557D01*
X59270437Y-54721166D01*
X59273856Y-54744221D01*
X59275000Y-54767500D01*
X59275000Y-55342500D01*
X59273856Y-55365779D01*
X59270437Y-55388834D01*
X59264773Y-55411443D01*
X59256921Y-55433387D01*
X59246956Y-55454457D01*
X59234974Y-55474448D01*
X59221090Y-55493168D01*
X59205438Y-55510438D01*
X59188168Y-55526090D01*
X59169448Y-55539974D01*
X59149457Y-55551956D01*
X59128387Y-55561921D01*
X59106443Y-55569773D01*
X59083834Y-55575437D01*
X59060779Y-55578856D01*
X59037500Y-55580000D01*
X58562500Y-55580000D01*
X58539221Y-55578856D01*
X58516166Y-55575437D01*
X58493557Y-55569773D01*
X58471613Y-55561921D01*
X58450543Y-55551956D01*
X58430552Y-55539974D01*
X58411832Y-55526090D01*
X58394562Y-55510438D01*
X58378910Y-55493168D01*
X58365026Y-55474448D01*
X58353044Y-55454457D01*
X58343079Y-55433387D01*
X58335227Y-55411443D01*
X58329563Y-55388834D01*
X58326144Y-55365779D01*
X58325000Y-55342500D01*
X58325000Y-54767500D01*
X58326144Y-54744221D01*
X58329563Y-54721166D01*
X58335227Y-54698557D01*
X58343079Y-54676613D01*
X58353044Y-54655543D01*
X58365026Y-54635552D01*
X58378910Y-54616832D01*
X58394562Y-54599562D01*
X58411832Y-54583910D01*
X58430552Y-54570026D01*
X58450543Y-54558044D01*
X58471613Y-54548079D01*
X58493557Y-54540227D01*
X58516166Y-54534563D01*
X58539221Y-54531144D01*
X58562500Y-54530000D01*
X59037500Y-54530000D01*
X59060779Y-54531144D01*
X59060779Y-54531144D01*
G37*
D19*
X58800000Y-55055000D03*
D17*
G36*
X59060779Y-52781144D02*
X59083834Y-52784563D01*
X59106443Y-52790227D01*
X59128387Y-52798079D01*
X59149457Y-52808044D01*
X59169448Y-52820026D01*
X59188168Y-52833910D01*
X59205438Y-52849562D01*
X59221090Y-52866832D01*
X59234974Y-52885552D01*
X59246956Y-52905543D01*
X59256921Y-52926613D01*
X59264773Y-52948557D01*
X59270437Y-52971166D01*
X59273856Y-52994221D01*
X59275000Y-53017500D01*
X59275000Y-53592500D01*
X59273856Y-53615779D01*
X59270437Y-53638834D01*
X59264773Y-53661443D01*
X59256921Y-53683387D01*
X59246956Y-53704457D01*
X59234974Y-53724448D01*
X59221090Y-53743168D01*
X59205438Y-53760438D01*
X59188168Y-53776090D01*
X59169448Y-53789974D01*
X59149457Y-53801956D01*
X59128387Y-53811921D01*
X59106443Y-53819773D01*
X59083834Y-53825437D01*
X59060779Y-53828856D01*
X59037500Y-53830000D01*
X58562500Y-53830000D01*
X58539221Y-53828856D01*
X58516166Y-53825437D01*
X58493557Y-53819773D01*
X58471613Y-53811921D01*
X58450543Y-53801956D01*
X58430552Y-53789974D01*
X58411832Y-53776090D01*
X58394562Y-53760438D01*
X58378910Y-53743168D01*
X58365026Y-53724448D01*
X58353044Y-53704457D01*
X58343079Y-53683387D01*
X58335227Y-53661443D01*
X58329563Y-53638834D01*
X58326144Y-53615779D01*
X58325000Y-53592500D01*
X58325000Y-53017500D01*
X58326144Y-52994221D01*
X58329563Y-52971166D01*
X58335227Y-52948557D01*
X58343079Y-52926613D01*
X58353044Y-52905543D01*
X58365026Y-52885552D01*
X58378910Y-52866832D01*
X58394562Y-52849562D01*
X58411832Y-52833910D01*
X58430552Y-52820026D01*
X58450543Y-52808044D01*
X58471613Y-52798079D01*
X58493557Y-52790227D01*
X58516166Y-52784563D01*
X58539221Y-52781144D01*
X58562500Y-52780000D01*
X59037500Y-52780000D01*
X59060779Y-52781144D01*
X59060779Y-52781144D01*
G37*
D19*
X58800000Y-53305000D03*
G04 #@! TD*
D17*
G04 #@! TO.C,C1*
G36*
X46249505Y-94531204D02*
X46273773Y-94534804D01*
X46297572Y-94540765D01*
X46320671Y-94549030D01*
X46342850Y-94559520D01*
X46363893Y-94572132D01*
X46383599Y-94586747D01*
X46401777Y-94603223D01*
X46418253Y-94621401D01*
X46432868Y-94641107D01*
X46445480Y-94662150D01*
X46455970Y-94684329D01*
X46464235Y-94707428D01*
X46470196Y-94731227D01*
X46473796Y-94755495D01*
X46475000Y-94779999D01*
X46475000Y-95680001D01*
X46473796Y-95704505D01*
X46470196Y-95728773D01*
X46464235Y-95752572D01*
X46455970Y-95775671D01*
X46445480Y-95797850D01*
X46432868Y-95818893D01*
X46418253Y-95838599D01*
X46401777Y-95856777D01*
X46383599Y-95873253D01*
X46363893Y-95887868D01*
X46342850Y-95900480D01*
X46320671Y-95910970D01*
X46297572Y-95919235D01*
X46273773Y-95925196D01*
X46249505Y-95928796D01*
X46225001Y-95930000D01*
X45574999Y-95930000D01*
X45550495Y-95928796D01*
X45526227Y-95925196D01*
X45502428Y-95919235D01*
X45479329Y-95910970D01*
X45457150Y-95900480D01*
X45436107Y-95887868D01*
X45416401Y-95873253D01*
X45398223Y-95856777D01*
X45381747Y-95838599D01*
X45367132Y-95818893D01*
X45354520Y-95797850D01*
X45344030Y-95775671D01*
X45335765Y-95752572D01*
X45329804Y-95728773D01*
X45326204Y-95704505D01*
X45325000Y-95680001D01*
X45325000Y-94779999D01*
X45326204Y-94755495D01*
X45329804Y-94731227D01*
X45335765Y-94707428D01*
X45344030Y-94684329D01*
X45354520Y-94662150D01*
X45367132Y-94641107D01*
X45381747Y-94621401D01*
X45398223Y-94603223D01*
X45416401Y-94586747D01*
X45436107Y-94572132D01*
X45457150Y-94559520D01*
X45479329Y-94549030D01*
X45502428Y-94540765D01*
X45526227Y-94534804D01*
X45550495Y-94531204D01*
X45574999Y-94530000D01*
X46225001Y-94530000D01*
X46249505Y-94531204D01*
X46249505Y-94531204D01*
G37*
D20*
X45900000Y-95230000D03*
D17*
G36*
X44199505Y-94531204D02*
X44223773Y-94534804D01*
X44247572Y-94540765D01*
X44270671Y-94549030D01*
X44292850Y-94559520D01*
X44313893Y-94572132D01*
X44333599Y-94586747D01*
X44351777Y-94603223D01*
X44368253Y-94621401D01*
X44382868Y-94641107D01*
X44395480Y-94662150D01*
X44405970Y-94684329D01*
X44414235Y-94707428D01*
X44420196Y-94731227D01*
X44423796Y-94755495D01*
X44425000Y-94779999D01*
X44425000Y-95680001D01*
X44423796Y-95704505D01*
X44420196Y-95728773D01*
X44414235Y-95752572D01*
X44405970Y-95775671D01*
X44395480Y-95797850D01*
X44382868Y-95818893D01*
X44368253Y-95838599D01*
X44351777Y-95856777D01*
X44333599Y-95873253D01*
X44313893Y-95887868D01*
X44292850Y-95900480D01*
X44270671Y-95910970D01*
X44247572Y-95919235D01*
X44223773Y-95925196D01*
X44199505Y-95928796D01*
X44175001Y-95930000D01*
X43524999Y-95930000D01*
X43500495Y-95928796D01*
X43476227Y-95925196D01*
X43452428Y-95919235D01*
X43429329Y-95910970D01*
X43407150Y-95900480D01*
X43386107Y-95887868D01*
X43366401Y-95873253D01*
X43348223Y-95856777D01*
X43331747Y-95838599D01*
X43317132Y-95818893D01*
X43304520Y-95797850D01*
X43294030Y-95775671D01*
X43285765Y-95752572D01*
X43279804Y-95728773D01*
X43276204Y-95704505D01*
X43275000Y-95680001D01*
X43275000Y-94779999D01*
X43276204Y-94755495D01*
X43279804Y-94731227D01*
X43285765Y-94707428D01*
X43294030Y-94684329D01*
X43304520Y-94662150D01*
X43317132Y-94641107D01*
X43331747Y-94621401D01*
X43348223Y-94603223D01*
X43366401Y-94586747D01*
X43386107Y-94572132D01*
X43407150Y-94559520D01*
X43429329Y-94549030D01*
X43452428Y-94540765D01*
X43476227Y-94534804D01*
X43500495Y-94531204D01*
X43524999Y-94530000D01*
X44175001Y-94530000D01*
X44199505Y-94531204D01*
X44199505Y-94531204D01*
G37*
D20*
X43850000Y-95230000D03*
G04 #@! TD*
D17*
G04 #@! TO.C,C2*
G36*
X46249505Y-85681204D02*
X46273773Y-85684804D01*
X46297572Y-85690765D01*
X46320671Y-85699030D01*
X46342850Y-85709520D01*
X46363893Y-85722132D01*
X46383599Y-85736747D01*
X46401777Y-85753223D01*
X46418253Y-85771401D01*
X46432868Y-85791107D01*
X46445480Y-85812150D01*
X46455970Y-85834329D01*
X46464235Y-85857428D01*
X46470196Y-85881227D01*
X46473796Y-85905495D01*
X46475000Y-85929999D01*
X46475000Y-86830001D01*
X46473796Y-86854505D01*
X46470196Y-86878773D01*
X46464235Y-86902572D01*
X46455970Y-86925671D01*
X46445480Y-86947850D01*
X46432868Y-86968893D01*
X46418253Y-86988599D01*
X46401777Y-87006777D01*
X46383599Y-87023253D01*
X46363893Y-87037868D01*
X46342850Y-87050480D01*
X46320671Y-87060970D01*
X46297572Y-87069235D01*
X46273773Y-87075196D01*
X46249505Y-87078796D01*
X46225001Y-87080000D01*
X45574999Y-87080000D01*
X45550495Y-87078796D01*
X45526227Y-87075196D01*
X45502428Y-87069235D01*
X45479329Y-87060970D01*
X45457150Y-87050480D01*
X45436107Y-87037868D01*
X45416401Y-87023253D01*
X45398223Y-87006777D01*
X45381747Y-86988599D01*
X45367132Y-86968893D01*
X45354520Y-86947850D01*
X45344030Y-86925671D01*
X45335765Y-86902572D01*
X45329804Y-86878773D01*
X45326204Y-86854505D01*
X45325000Y-86830001D01*
X45325000Y-85929999D01*
X45326204Y-85905495D01*
X45329804Y-85881227D01*
X45335765Y-85857428D01*
X45344030Y-85834329D01*
X45354520Y-85812150D01*
X45367132Y-85791107D01*
X45381747Y-85771401D01*
X45398223Y-85753223D01*
X45416401Y-85736747D01*
X45436107Y-85722132D01*
X45457150Y-85709520D01*
X45479329Y-85699030D01*
X45502428Y-85690765D01*
X45526227Y-85684804D01*
X45550495Y-85681204D01*
X45574999Y-85680000D01*
X46225001Y-85680000D01*
X46249505Y-85681204D01*
X46249505Y-85681204D01*
G37*
D20*
X45900000Y-86380000D03*
D17*
G36*
X44199505Y-85681204D02*
X44223773Y-85684804D01*
X44247572Y-85690765D01*
X44270671Y-85699030D01*
X44292850Y-85709520D01*
X44313893Y-85722132D01*
X44333599Y-85736747D01*
X44351777Y-85753223D01*
X44368253Y-85771401D01*
X44382868Y-85791107D01*
X44395480Y-85812150D01*
X44405970Y-85834329D01*
X44414235Y-85857428D01*
X44420196Y-85881227D01*
X44423796Y-85905495D01*
X44425000Y-85929999D01*
X44425000Y-86830001D01*
X44423796Y-86854505D01*
X44420196Y-86878773D01*
X44414235Y-86902572D01*
X44405970Y-86925671D01*
X44395480Y-86947850D01*
X44382868Y-86968893D01*
X44368253Y-86988599D01*
X44351777Y-87006777D01*
X44333599Y-87023253D01*
X44313893Y-87037868D01*
X44292850Y-87050480D01*
X44270671Y-87060970D01*
X44247572Y-87069235D01*
X44223773Y-87075196D01*
X44199505Y-87078796D01*
X44175001Y-87080000D01*
X43524999Y-87080000D01*
X43500495Y-87078796D01*
X43476227Y-87075196D01*
X43452428Y-87069235D01*
X43429329Y-87060970D01*
X43407150Y-87050480D01*
X43386107Y-87037868D01*
X43366401Y-87023253D01*
X43348223Y-87006777D01*
X43331747Y-86988599D01*
X43317132Y-86968893D01*
X43304520Y-86947850D01*
X43294030Y-86925671D01*
X43285765Y-86902572D01*
X43279804Y-86878773D01*
X43276204Y-86854505D01*
X43275000Y-86830001D01*
X43275000Y-85929999D01*
X43276204Y-85905495D01*
X43279804Y-85881227D01*
X43285765Y-85857428D01*
X43294030Y-85834329D01*
X43304520Y-85812150D01*
X43317132Y-85791107D01*
X43331747Y-85771401D01*
X43348223Y-85753223D01*
X43366401Y-85736747D01*
X43386107Y-85722132D01*
X43407150Y-85709520D01*
X43429329Y-85699030D01*
X43452428Y-85690765D01*
X43476227Y-85684804D01*
X43500495Y-85681204D01*
X43524999Y-85680000D01*
X44175001Y-85680000D01*
X44199505Y-85681204D01*
X44199505Y-85681204D01*
G37*
D20*
X43850000Y-86380000D03*
G04 #@! TD*
D17*
G04 #@! TO.C,C4*
G36*
X71699505Y-91731204D02*
X71723773Y-91734804D01*
X71747572Y-91740765D01*
X71770671Y-91749030D01*
X71792850Y-91759520D01*
X71813893Y-91772132D01*
X71833599Y-91786747D01*
X71851777Y-91803223D01*
X71868253Y-91821401D01*
X71882868Y-91841107D01*
X71895480Y-91862150D01*
X71905970Y-91884329D01*
X71914235Y-91907428D01*
X71920196Y-91931227D01*
X71923796Y-91955495D01*
X71925000Y-91979999D01*
X71925000Y-92880001D01*
X71923796Y-92904505D01*
X71920196Y-92928773D01*
X71914235Y-92952572D01*
X71905970Y-92975671D01*
X71895480Y-92997850D01*
X71882868Y-93018893D01*
X71868253Y-93038599D01*
X71851777Y-93056777D01*
X71833599Y-93073253D01*
X71813893Y-93087868D01*
X71792850Y-93100480D01*
X71770671Y-93110970D01*
X71747572Y-93119235D01*
X71723773Y-93125196D01*
X71699505Y-93128796D01*
X71675001Y-93130000D01*
X71024999Y-93130000D01*
X71000495Y-93128796D01*
X70976227Y-93125196D01*
X70952428Y-93119235D01*
X70929329Y-93110970D01*
X70907150Y-93100480D01*
X70886107Y-93087868D01*
X70866401Y-93073253D01*
X70848223Y-93056777D01*
X70831747Y-93038599D01*
X70817132Y-93018893D01*
X70804520Y-92997850D01*
X70794030Y-92975671D01*
X70785765Y-92952572D01*
X70779804Y-92928773D01*
X70776204Y-92904505D01*
X70775000Y-92880001D01*
X70775000Y-91979999D01*
X70776204Y-91955495D01*
X70779804Y-91931227D01*
X70785765Y-91907428D01*
X70794030Y-91884329D01*
X70804520Y-91862150D01*
X70817132Y-91841107D01*
X70831747Y-91821401D01*
X70848223Y-91803223D01*
X70866401Y-91786747D01*
X70886107Y-91772132D01*
X70907150Y-91759520D01*
X70929329Y-91749030D01*
X70952428Y-91740765D01*
X70976227Y-91734804D01*
X71000495Y-91731204D01*
X71024999Y-91730000D01*
X71675001Y-91730000D01*
X71699505Y-91731204D01*
X71699505Y-91731204D01*
G37*
D20*
X71350000Y-92430000D03*
D17*
G36*
X69649505Y-91731204D02*
X69673773Y-91734804D01*
X69697572Y-91740765D01*
X69720671Y-91749030D01*
X69742850Y-91759520D01*
X69763893Y-91772132D01*
X69783599Y-91786747D01*
X69801777Y-91803223D01*
X69818253Y-91821401D01*
X69832868Y-91841107D01*
X69845480Y-91862150D01*
X69855970Y-91884329D01*
X69864235Y-91907428D01*
X69870196Y-91931227D01*
X69873796Y-91955495D01*
X69875000Y-91979999D01*
X69875000Y-92880001D01*
X69873796Y-92904505D01*
X69870196Y-92928773D01*
X69864235Y-92952572D01*
X69855970Y-92975671D01*
X69845480Y-92997850D01*
X69832868Y-93018893D01*
X69818253Y-93038599D01*
X69801777Y-93056777D01*
X69783599Y-93073253D01*
X69763893Y-93087868D01*
X69742850Y-93100480D01*
X69720671Y-93110970D01*
X69697572Y-93119235D01*
X69673773Y-93125196D01*
X69649505Y-93128796D01*
X69625001Y-93130000D01*
X68974999Y-93130000D01*
X68950495Y-93128796D01*
X68926227Y-93125196D01*
X68902428Y-93119235D01*
X68879329Y-93110970D01*
X68857150Y-93100480D01*
X68836107Y-93087868D01*
X68816401Y-93073253D01*
X68798223Y-93056777D01*
X68781747Y-93038599D01*
X68767132Y-93018893D01*
X68754520Y-92997850D01*
X68744030Y-92975671D01*
X68735765Y-92952572D01*
X68729804Y-92928773D01*
X68726204Y-92904505D01*
X68725000Y-92880001D01*
X68725000Y-91979999D01*
X68726204Y-91955495D01*
X68729804Y-91931227D01*
X68735765Y-91907428D01*
X68744030Y-91884329D01*
X68754520Y-91862150D01*
X68767132Y-91841107D01*
X68781747Y-91821401D01*
X68798223Y-91803223D01*
X68816401Y-91786747D01*
X68836107Y-91772132D01*
X68857150Y-91759520D01*
X68879329Y-91749030D01*
X68902428Y-91740765D01*
X68926227Y-91734804D01*
X68950495Y-91731204D01*
X68974999Y-91730000D01*
X69625001Y-91730000D01*
X69649505Y-91731204D01*
X69649505Y-91731204D01*
G37*
D20*
X69300000Y-92430000D03*
G04 #@! TD*
D17*
G04 #@! TO.C,C5*
G36*
X85049505Y-91731204D02*
X85073773Y-91734804D01*
X85097572Y-91740765D01*
X85120671Y-91749030D01*
X85142850Y-91759520D01*
X85163893Y-91772132D01*
X85183599Y-91786747D01*
X85201777Y-91803223D01*
X85218253Y-91821401D01*
X85232868Y-91841107D01*
X85245480Y-91862150D01*
X85255970Y-91884329D01*
X85264235Y-91907428D01*
X85270196Y-91931227D01*
X85273796Y-91955495D01*
X85275000Y-91979999D01*
X85275000Y-92880001D01*
X85273796Y-92904505D01*
X85270196Y-92928773D01*
X85264235Y-92952572D01*
X85255970Y-92975671D01*
X85245480Y-92997850D01*
X85232868Y-93018893D01*
X85218253Y-93038599D01*
X85201777Y-93056777D01*
X85183599Y-93073253D01*
X85163893Y-93087868D01*
X85142850Y-93100480D01*
X85120671Y-93110970D01*
X85097572Y-93119235D01*
X85073773Y-93125196D01*
X85049505Y-93128796D01*
X85025001Y-93130000D01*
X84374999Y-93130000D01*
X84350495Y-93128796D01*
X84326227Y-93125196D01*
X84302428Y-93119235D01*
X84279329Y-93110970D01*
X84257150Y-93100480D01*
X84236107Y-93087868D01*
X84216401Y-93073253D01*
X84198223Y-93056777D01*
X84181747Y-93038599D01*
X84167132Y-93018893D01*
X84154520Y-92997850D01*
X84144030Y-92975671D01*
X84135765Y-92952572D01*
X84129804Y-92928773D01*
X84126204Y-92904505D01*
X84125000Y-92880001D01*
X84125000Y-91979999D01*
X84126204Y-91955495D01*
X84129804Y-91931227D01*
X84135765Y-91907428D01*
X84144030Y-91884329D01*
X84154520Y-91862150D01*
X84167132Y-91841107D01*
X84181747Y-91821401D01*
X84198223Y-91803223D01*
X84216401Y-91786747D01*
X84236107Y-91772132D01*
X84257150Y-91759520D01*
X84279329Y-91749030D01*
X84302428Y-91740765D01*
X84326227Y-91734804D01*
X84350495Y-91731204D01*
X84374999Y-91730000D01*
X85025001Y-91730000D01*
X85049505Y-91731204D01*
X85049505Y-91731204D01*
G37*
D20*
X84700000Y-92430000D03*
D17*
G36*
X87099505Y-91731204D02*
X87123773Y-91734804D01*
X87147572Y-91740765D01*
X87170671Y-91749030D01*
X87192850Y-91759520D01*
X87213893Y-91772132D01*
X87233599Y-91786747D01*
X87251777Y-91803223D01*
X87268253Y-91821401D01*
X87282868Y-91841107D01*
X87295480Y-91862150D01*
X87305970Y-91884329D01*
X87314235Y-91907428D01*
X87320196Y-91931227D01*
X87323796Y-91955495D01*
X87325000Y-91979999D01*
X87325000Y-92880001D01*
X87323796Y-92904505D01*
X87320196Y-92928773D01*
X87314235Y-92952572D01*
X87305970Y-92975671D01*
X87295480Y-92997850D01*
X87282868Y-93018893D01*
X87268253Y-93038599D01*
X87251777Y-93056777D01*
X87233599Y-93073253D01*
X87213893Y-93087868D01*
X87192850Y-93100480D01*
X87170671Y-93110970D01*
X87147572Y-93119235D01*
X87123773Y-93125196D01*
X87099505Y-93128796D01*
X87075001Y-93130000D01*
X86424999Y-93130000D01*
X86400495Y-93128796D01*
X86376227Y-93125196D01*
X86352428Y-93119235D01*
X86329329Y-93110970D01*
X86307150Y-93100480D01*
X86286107Y-93087868D01*
X86266401Y-93073253D01*
X86248223Y-93056777D01*
X86231747Y-93038599D01*
X86217132Y-93018893D01*
X86204520Y-92997850D01*
X86194030Y-92975671D01*
X86185765Y-92952572D01*
X86179804Y-92928773D01*
X86176204Y-92904505D01*
X86175000Y-92880001D01*
X86175000Y-91979999D01*
X86176204Y-91955495D01*
X86179804Y-91931227D01*
X86185765Y-91907428D01*
X86194030Y-91884329D01*
X86204520Y-91862150D01*
X86217132Y-91841107D01*
X86231747Y-91821401D01*
X86248223Y-91803223D01*
X86266401Y-91786747D01*
X86286107Y-91772132D01*
X86307150Y-91759520D01*
X86329329Y-91749030D01*
X86352428Y-91740765D01*
X86376227Y-91734804D01*
X86400495Y-91731204D01*
X86424999Y-91730000D01*
X87075001Y-91730000D01*
X87099505Y-91731204D01*
X87099505Y-91731204D01*
G37*
D20*
X86750000Y-92430000D03*
G04 #@! TD*
D21*
G04 #@! TO.C,P5*
X70650000Y-71630000D03*
D22*
X70650000Y-74130000D03*
G04 #@! TD*
G04 #@! TO.C,P6*
X85450000Y-71630000D03*
D21*
X85450000Y-74130000D03*
G04 #@! TD*
D13*
G04 #@! TO.C,P3*
X50250000Y-55930000D03*
D14*
X50250000Y-53390000D03*
G04 #@! TD*
G04 #@! TO.C,J5*
X58000000Y-104090000D03*
X58000000Y-106630000D03*
D13*
X58000000Y-109170000D03*
G04 #@! TD*
D23*
G04 #@! TO.C,Q1*
X107555000Y-93880000D03*
X106285000Y-93880000D03*
X105015000Y-93880000D03*
X103745000Y-93880000D03*
X103745000Y-86480000D03*
X105015000Y-86480000D03*
X106285000Y-86480000D03*
X107555000Y-86480000D03*
G04 #@! TD*
D24*
G04 #@! TO.C,U4*
X82050000Y-85325000D03*
X82050000Y-86595000D03*
X82050000Y-87865000D03*
X82050000Y-89135000D03*
X89450000Y-89135000D03*
X89450000Y-87865000D03*
X89450000Y-86595000D03*
X89450000Y-85325000D03*
G04 #@! TD*
G04 #@! TO.C,U3*
X74050000Y-85325000D03*
X74050000Y-86595000D03*
X74050000Y-87865000D03*
X74050000Y-89135000D03*
X66650000Y-89135000D03*
X66650000Y-87865000D03*
X66650000Y-86595000D03*
X66650000Y-85325000D03*
G04 #@! TD*
D25*
G04 #@! TO.C,U1*
X46625000Y-89930000D03*
X46625000Y-90430000D03*
D26*
X46910000Y-90930000D03*
D25*
X46625000Y-91430000D03*
D26*
X46910000Y-91930000D03*
D25*
X43675000Y-91930000D03*
X43675000Y-91430000D03*
D26*
X43390000Y-90930000D03*
X43390000Y-90430000D03*
X43390000Y-89930000D03*
D27*
X45600000Y-90295000D03*
D28*
X45400000Y-89380000D03*
D29*
X45400000Y-89300000D03*
D28*
X44900000Y-89380000D03*
X45400000Y-92480000D03*
X44900000Y-92480000D03*
D29*
X44900000Y-89300000D03*
X45400000Y-92560000D03*
X44900000Y-92560000D03*
D27*
X44700000Y-90295000D03*
X45600000Y-91565000D03*
X44700000Y-91565000D03*
D30*
X45150000Y-90930000D03*
D26*
X46910000Y-89930000D03*
X46910000Y-90430000D03*
D25*
X46625000Y-90930000D03*
D26*
X46910000Y-91430000D03*
D25*
X46625000Y-91930000D03*
D26*
X43390000Y-91930000D03*
X43390000Y-91430000D03*
D25*
X43675000Y-90930000D03*
X43675000Y-90430000D03*
X43675000Y-89930000D03*
D31*
X44650000Y-91680000D03*
X45150000Y-90930000D03*
X44650000Y-90180000D03*
X45650000Y-90180000D03*
X45650000Y-91680000D03*
G04 #@! TD*
D32*
G04 #@! TO.C,Q2*
X103450000Y-57980000D03*
X103450000Y-56080000D03*
X105450000Y-57030000D03*
G04 #@! TD*
D17*
G04 #@! TO.C,R3*
G36*
X102010779Y-55631144D02*
X102033834Y-55634563D01*
X102056443Y-55640227D01*
X102078387Y-55648079D01*
X102099457Y-55658044D01*
X102119448Y-55670026D01*
X102138168Y-55683910D01*
X102155438Y-55699562D01*
X102171090Y-55716832D01*
X102184974Y-55735552D01*
X102196956Y-55755543D01*
X102206921Y-55776613D01*
X102214773Y-55798557D01*
X102220437Y-55821166D01*
X102223856Y-55844221D01*
X102225000Y-55867500D01*
X102225000Y-56442500D01*
X102223856Y-56465779D01*
X102220437Y-56488834D01*
X102214773Y-56511443D01*
X102206921Y-56533387D01*
X102196956Y-56554457D01*
X102184974Y-56574448D01*
X102171090Y-56593168D01*
X102155438Y-56610438D01*
X102138168Y-56626090D01*
X102119448Y-56639974D01*
X102099457Y-56651956D01*
X102078387Y-56661921D01*
X102056443Y-56669773D01*
X102033834Y-56675437D01*
X102010779Y-56678856D01*
X101987500Y-56680000D01*
X101512500Y-56680000D01*
X101489221Y-56678856D01*
X101466166Y-56675437D01*
X101443557Y-56669773D01*
X101421613Y-56661921D01*
X101400543Y-56651956D01*
X101380552Y-56639974D01*
X101361832Y-56626090D01*
X101344562Y-56610438D01*
X101328910Y-56593168D01*
X101315026Y-56574448D01*
X101303044Y-56554457D01*
X101293079Y-56533387D01*
X101285227Y-56511443D01*
X101279563Y-56488834D01*
X101276144Y-56465779D01*
X101275000Y-56442500D01*
X101275000Y-55867500D01*
X101276144Y-55844221D01*
X101279563Y-55821166D01*
X101285227Y-55798557D01*
X101293079Y-55776613D01*
X101303044Y-55755543D01*
X101315026Y-55735552D01*
X101328910Y-55716832D01*
X101344562Y-55699562D01*
X101361832Y-55683910D01*
X101380552Y-55670026D01*
X101400543Y-55658044D01*
X101421613Y-55648079D01*
X101443557Y-55640227D01*
X101466166Y-55634563D01*
X101489221Y-55631144D01*
X101512500Y-55630000D01*
X101987500Y-55630000D01*
X102010779Y-55631144D01*
X102010779Y-55631144D01*
G37*
D19*
X101750000Y-56155000D03*
D17*
G36*
X102010779Y-57381144D02*
X102033834Y-57384563D01*
X102056443Y-57390227D01*
X102078387Y-57398079D01*
X102099457Y-57408044D01*
X102119448Y-57420026D01*
X102138168Y-57433910D01*
X102155438Y-57449562D01*
X102171090Y-57466832D01*
X102184974Y-57485552D01*
X102196956Y-57505543D01*
X102206921Y-57526613D01*
X102214773Y-57548557D01*
X102220437Y-57571166D01*
X102223856Y-57594221D01*
X102225000Y-57617500D01*
X102225000Y-58192500D01*
X102223856Y-58215779D01*
X102220437Y-58238834D01*
X102214773Y-58261443D01*
X102206921Y-58283387D01*
X102196956Y-58304457D01*
X102184974Y-58324448D01*
X102171090Y-58343168D01*
X102155438Y-58360438D01*
X102138168Y-58376090D01*
X102119448Y-58389974D01*
X102099457Y-58401956D01*
X102078387Y-58411921D01*
X102056443Y-58419773D01*
X102033834Y-58425437D01*
X102010779Y-58428856D01*
X101987500Y-58430000D01*
X101512500Y-58430000D01*
X101489221Y-58428856D01*
X101466166Y-58425437D01*
X101443557Y-58419773D01*
X101421613Y-58411921D01*
X101400543Y-58401956D01*
X101380552Y-58389974D01*
X101361832Y-58376090D01*
X101344562Y-58360438D01*
X101328910Y-58343168D01*
X101315026Y-58324448D01*
X101303044Y-58304457D01*
X101293079Y-58283387D01*
X101285227Y-58261443D01*
X101279563Y-58238834D01*
X101276144Y-58215779D01*
X101275000Y-58192500D01*
X101275000Y-57617500D01*
X101276144Y-57594221D01*
X101279563Y-57571166D01*
X101285227Y-57548557D01*
X101293079Y-57526613D01*
X101303044Y-57505543D01*
X101315026Y-57485552D01*
X101328910Y-57466832D01*
X101344562Y-57449562D01*
X101361832Y-57433910D01*
X101380552Y-57420026D01*
X101400543Y-57408044D01*
X101421613Y-57398079D01*
X101443557Y-57390227D01*
X101466166Y-57384563D01*
X101489221Y-57381144D01*
X101512500Y-57380000D01*
X101987500Y-57380000D01*
X102010779Y-57381144D01*
X102010779Y-57381144D01*
G37*
D19*
X101750000Y-57905000D03*
G04 #@! TD*
D17*
G04 #@! TO.C,R14*
G36*
X77577779Y-73618144D02*
X77600834Y-73621563D01*
X77623443Y-73627227D01*
X77645387Y-73635079D01*
X77666457Y-73645044D01*
X77686448Y-73657026D01*
X77705168Y-73670910D01*
X77722438Y-73686562D01*
X77738090Y-73703832D01*
X77751974Y-73722552D01*
X77763956Y-73742543D01*
X77773921Y-73763613D01*
X77781773Y-73785557D01*
X77787437Y-73808166D01*
X77790856Y-73831221D01*
X77792000Y-73854500D01*
X77792000Y-74329500D01*
X77790856Y-74352779D01*
X77787437Y-74375834D01*
X77781773Y-74398443D01*
X77773921Y-74420387D01*
X77763956Y-74441457D01*
X77751974Y-74461448D01*
X77738090Y-74480168D01*
X77722438Y-74497438D01*
X77705168Y-74513090D01*
X77686448Y-74526974D01*
X77666457Y-74538956D01*
X77645387Y-74548921D01*
X77623443Y-74556773D01*
X77600834Y-74562437D01*
X77577779Y-74565856D01*
X77554500Y-74567000D01*
X76979500Y-74567000D01*
X76956221Y-74565856D01*
X76933166Y-74562437D01*
X76910557Y-74556773D01*
X76888613Y-74548921D01*
X76867543Y-74538956D01*
X76847552Y-74526974D01*
X76828832Y-74513090D01*
X76811562Y-74497438D01*
X76795910Y-74480168D01*
X76782026Y-74461448D01*
X76770044Y-74441457D01*
X76760079Y-74420387D01*
X76752227Y-74398443D01*
X76746563Y-74375834D01*
X76743144Y-74352779D01*
X76742000Y-74329500D01*
X76742000Y-73854500D01*
X76743144Y-73831221D01*
X76746563Y-73808166D01*
X76752227Y-73785557D01*
X76760079Y-73763613D01*
X76770044Y-73742543D01*
X76782026Y-73722552D01*
X76795910Y-73703832D01*
X76811562Y-73686562D01*
X76828832Y-73670910D01*
X76847552Y-73657026D01*
X76867543Y-73645044D01*
X76888613Y-73635079D01*
X76910557Y-73627227D01*
X76933166Y-73621563D01*
X76956221Y-73618144D01*
X76979500Y-73617000D01*
X77554500Y-73617000D01*
X77577779Y-73618144D01*
X77577779Y-73618144D01*
G37*
D19*
X77267000Y-74092000D03*
D17*
G36*
X79327779Y-73618144D02*
X79350834Y-73621563D01*
X79373443Y-73627227D01*
X79395387Y-73635079D01*
X79416457Y-73645044D01*
X79436448Y-73657026D01*
X79455168Y-73670910D01*
X79472438Y-73686562D01*
X79488090Y-73703832D01*
X79501974Y-73722552D01*
X79513956Y-73742543D01*
X79523921Y-73763613D01*
X79531773Y-73785557D01*
X79537437Y-73808166D01*
X79540856Y-73831221D01*
X79542000Y-73854500D01*
X79542000Y-74329500D01*
X79540856Y-74352779D01*
X79537437Y-74375834D01*
X79531773Y-74398443D01*
X79523921Y-74420387D01*
X79513956Y-74441457D01*
X79501974Y-74461448D01*
X79488090Y-74480168D01*
X79472438Y-74497438D01*
X79455168Y-74513090D01*
X79436448Y-74526974D01*
X79416457Y-74538956D01*
X79395387Y-74548921D01*
X79373443Y-74556773D01*
X79350834Y-74562437D01*
X79327779Y-74565856D01*
X79304500Y-74567000D01*
X78729500Y-74567000D01*
X78706221Y-74565856D01*
X78683166Y-74562437D01*
X78660557Y-74556773D01*
X78638613Y-74548921D01*
X78617543Y-74538956D01*
X78597552Y-74526974D01*
X78578832Y-74513090D01*
X78561562Y-74497438D01*
X78545910Y-74480168D01*
X78532026Y-74461448D01*
X78520044Y-74441457D01*
X78510079Y-74420387D01*
X78502227Y-74398443D01*
X78496563Y-74375834D01*
X78493144Y-74352779D01*
X78492000Y-74329500D01*
X78492000Y-73854500D01*
X78493144Y-73831221D01*
X78496563Y-73808166D01*
X78502227Y-73785557D01*
X78510079Y-73763613D01*
X78520044Y-73742543D01*
X78532026Y-73722552D01*
X78545910Y-73703832D01*
X78561562Y-73686562D01*
X78578832Y-73670910D01*
X78597552Y-73657026D01*
X78617543Y-73645044D01*
X78638613Y-73635079D01*
X78660557Y-73627227D01*
X78683166Y-73621563D01*
X78706221Y-73618144D01*
X78729500Y-73617000D01*
X79304500Y-73617000D01*
X79327779Y-73618144D01*
X79327779Y-73618144D01*
G37*
D19*
X79017000Y-74092000D03*
G04 #@! TD*
D17*
G04 #@! TO.C,R13*
G36*
X77476179Y-71078144D02*
X77499234Y-71081563D01*
X77521843Y-71087227D01*
X77543787Y-71095079D01*
X77564857Y-71105044D01*
X77584848Y-71117026D01*
X77603568Y-71130910D01*
X77620838Y-71146562D01*
X77636490Y-71163832D01*
X77650374Y-71182552D01*
X77662356Y-71202543D01*
X77672321Y-71223613D01*
X77680173Y-71245557D01*
X77685837Y-71268166D01*
X77689256Y-71291221D01*
X77690400Y-71314500D01*
X77690400Y-71789500D01*
X77689256Y-71812779D01*
X77685837Y-71835834D01*
X77680173Y-71858443D01*
X77672321Y-71880387D01*
X77662356Y-71901457D01*
X77650374Y-71921448D01*
X77636490Y-71940168D01*
X77620838Y-71957438D01*
X77603568Y-71973090D01*
X77584848Y-71986974D01*
X77564857Y-71998956D01*
X77543787Y-72008921D01*
X77521843Y-72016773D01*
X77499234Y-72022437D01*
X77476179Y-72025856D01*
X77452900Y-72027000D01*
X76877900Y-72027000D01*
X76854621Y-72025856D01*
X76831566Y-72022437D01*
X76808957Y-72016773D01*
X76787013Y-72008921D01*
X76765943Y-71998956D01*
X76745952Y-71986974D01*
X76727232Y-71973090D01*
X76709962Y-71957438D01*
X76694310Y-71940168D01*
X76680426Y-71921448D01*
X76668444Y-71901457D01*
X76658479Y-71880387D01*
X76650627Y-71858443D01*
X76644963Y-71835834D01*
X76641544Y-71812779D01*
X76640400Y-71789500D01*
X76640400Y-71314500D01*
X76641544Y-71291221D01*
X76644963Y-71268166D01*
X76650627Y-71245557D01*
X76658479Y-71223613D01*
X76668444Y-71202543D01*
X76680426Y-71182552D01*
X76694310Y-71163832D01*
X76709962Y-71146562D01*
X76727232Y-71130910D01*
X76745952Y-71117026D01*
X76765943Y-71105044D01*
X76787013Y-71095079D01*
X76808957Y-71087227D01*
X76831566Y-71081563D01*
X76854621Y-71078144D01*
X76877900Y-71077000D01*
X77452900Y-71077000D01*
X77476179Y-71078144D01*
X77476179Y-71078144D01*
G37*
D19*
X77165400Y-71552000D03*
D17*
G36*
X79226179Y-71078144D02*
X79249234Y-71081563D01*
X79271843Y-71087227D01*
X79293787Y-71095079D01*
X79314857Y-71105044D01*
X79334848Y-71117026D01*
X79353568Y-71130910D01*
X79370838Y-71146562D01*
X79386490Y-71163832D01*
X79400374Y-71182552D01*
X79412356Y-71202543D01*
X79422321Y-71223613D01*
X79430173Y-71245557D01*
X79435837Y-71268166D01*
X79439256Y-71291221D01*
X79440400Y-71314500D01*
X79440400Y-71789500D01*
X79439256Y-71812779D01*
X79435837Y-71835834D01*
X79430173Y-71858443D01*
X79422321Y-71880387D01*
X79412356Y-71901457D01*
X79400374Y-71921448D01*
X79386490Y-71940168D01*
X79370838Y-71957438D01*
X79353568Y-71973090D01*
X79334848Y-71986974D01*
X79314857Y-71998956D01*
X79293787Y-72008921D01*
X79271843Y-72016773D01*
X79249234Y-72022437D01*
X79226179Y-72025856D01*
X79202900Y-72027000D01*
X78627900Y-72027000D01*
X78604621Y-72025856D01*
X78581566Y-72022437D01*
X78558957Y-72016773D01*
X78537013Y-72008921D01*
X78515943Y-71998956D01*
X78495952Y-71986974D01*
X78477232Y-71973090D01*
X78459962Y-71957438D01*
X78444310Y-71940168D01*
X78430426Y-71921448D01*
X78418444Y-71901457D01*
X78408479Y-71880387D01*
X78400627Y-71858443D01*
X78394963Y-71835834D01*
X78391544Y-71812779D01*
X78390400Y-71789500D01*
X78390400Y-71314500D01*
X78391544Y-71291221D01*
X78394963Y-71268166D01*
X78400627Y-71245557D01*
X78408479Y-71223613D01*
X78418444Y-71202543D01*
X78430426Y-71182552D01*
X78444310Y-71163832D01*
X78459962Y-71146562D01*
X78477232Y-71130910D01*
X78495952Y-71117026D01*
X78515943Y-71105044D01*
X78537013Y-71095079D01*
X78558957Y-71087227D01*
X78581566Y-71081563D01*
X78604621Y-71078144D01*
X78627900Y-71077000D01*
X79202900Y-71077000D01*
X79226179Y-71078144D01*
X79226179Y-71078144D01*
G37*
D19*
X78915400Y-71552000D03*
G04 #@! TD*
D17*
G04 #@! TO.C,R6*
G36*
X59060779Y-48031144D02*
X59083834Y-48034563D01*
X59106443Y-48040227D01*
X59128387Y-48048079D01*
X59149457Y-48058044D01*
X59169448Y-48070026D01*
X59188168Y-48083910D01*
X59205438Y-48099562D01*
X59221090Y-48116832D01*
X59234974Y-48135552D01*
X59246956Y-48155543D01*
X59256921Y-48176613D01*
X59264773Y-48198557D01*
X59270437Y-48221166D01*
X59273856Y-48244221D01*
X59275000Y-48267500D01*
X59275000Y-48842500D01*
X59273856Y-48865779D01*
X59270437Y-48888834D01*
X59264773Y-48911443D01*
X59256921Y-48933387D01*
X59246956Y-48954457D01*
X59234974Y-48974448D01*
X59221090Y-48993168D01*
X59205438Y-49010438D01*
X59188168Y-49026090D01*
X59169448Y-49039974D01*
X59149457Y-49051956D01*
X59128387Y-49061921D01*
X59106443Y-49069773D01*
X59083834Y-49075437D01*
X59060779Y-49078856D01*
X59037500Y-49080000D01*
X58562500Y-49080000D01*
X58539221Y-49078856D01*
X58516166Y-49075437D01*
X58493557Y-49069773D01*
X58471613Y-49061921D01*
X58450543Y-49051956D01*
X58430552Y-49039974D01*
X58411832Y-49026090D01*
X58394562Y-49010438D01*
X58378910Y-48993168D01*
X58365026Y-48974448D01*
X58353044Y-48954457D01*
X58343079Y-48933387D01*
X58335227Y-48911443D01*
X58329563Y-48888834D01*
X58326144Y-48865779D01*
X58325000Y-48842500D01*
X58325000Y-48267500D01*
X58326144Y-48244221D01*
X58329563Y-48221166D01*
X58335227Y-48198557D01*
X58343079Y-48176613D01*
X58353044Y-48155543D01*
X58365026Y-48135552D01*
X58378910Y-48116832D01*
X58394562Y-48099562D01*
X58411832Y-48083910D01*
X58430552Y-48070026D01*
X58450543Y-48058044D01*
X58471613Y-48048079D01*
X58493557Y-48040227D01*
X58516166Y-48034563D01*
X58539221Y-48031144D01*
X58562500Y-48030000D01*
X59037500Y-48030000D01*
X59060779Y-48031144D01*
X59060779Y-48031144D01*
G37*
D19*
X58800000Y-48555000D03*
D17*
G36*
X59060779Y-49781144D02*
X59083834Y-49784563D01*
X59106443Y-49790227D01*
X59128387Y-49798079D01*
X59149457Y-49808044D01*
X59169448Y-49820026D01*
X59188168Y-49833910D01*
X59205438Y-49849562D01*
X59221090Y-49866832D01*
X59234974Y-49885552D01*
X59246956Y-49905543D01*
X59256921Y-49926613D01*
X59264773Y-49948557D01*
X59270437Y-49971166D01*
X59273856Y-49994221D01*
X59275000Y-50017500D01*
X59275000Y-50592500D01*
X59273856Y-50615779D01*
X59270437Y-50638834D01*
X59264773Y-50661443D01*
X59256921Y-50683387D01*
X59246956Y-50704457D01*
X59234974Y-50724448D01*
X59221090Y-50743168D01*
X59205438Y-50760438D01*
X59188168Y-50776090D01*
X59169448Y-50789974D01*
X59149457Y-50801956D01*
X59128387Y-50811921D01*
X59106443Y-50819773D01*
X59083834Y-50825437D01*
X59060779Y-50828856D01*
X59037500Y-50830000D01*
X58562500Y-50830000D01*
X58539221Y-50828856D01*
X58516166Y-50825437D01*
X58493557Y-50819773D01*
X58471613Y-50811921D01*
X58450543Y-50801956D01*
X58430552Y-50789974D01*
X58411832Y-50776090D01*
X58394562Y-50760438D01*
X58378910Y-50743168D01*
X58365026Y-50724448D01*
X58353044Y-50704457D01*
X58343079Y-50683387D01*
X58335227Y-50661443D01*
X58329563Y-50638834D01*
X58326144Y-50615779D01*
X58325000Y-50592500D01*
X58325000Y-50017500D01*
X58326144Y-49994221D01*
X58329563Y-49971166D01*
X58335227Y-49948557D01*
X58343079Y-49926613D01*
X58353044Y-49905543D01*
X58365026Y-49885552D01*
X58378910Y-49866832D01*
X58394562Y-49849562D01*
X58411832Y-49833910D01*
X58430552Y-49820026D01*
X58450543Y-49808044D01*
X58471613Y-49798079D01*
X58493557Y-49790227D01*
X58516166Y-49784563D01*
X58539221Y-49781144D01*
X58562500Y-49780000D01*
X59037500Y-49780000D01*
X59060779Y-49781144D01*
X59060779Y-49781144D01*
G37*
D19*
X58800000Y-50305000D03*
G04 #@! TD*
D17*
G04 #@! TO.C,R5*
G36*
X47560779Y-54906144D02*
X47583834Y-54909563D01*
X47606443Y-54915227D01*
X47628387Y-54923079D01*
X47649457Y-54933044D01*
X47669448Y-54945026D01*
X47688168Y-54958910D01*
X47705438Y-54974562D01*
X47721090Y-54991832D01*
X47734974Y-55010552D01*
X47746956Y-55030543D01*
X47756921Y-55051613D01*
X47764773Y-55073557D01*
X47770437Y-55096166D01*
X47773856Y-55119221D01*
X47775000Y-55142500D01*
X47775000Y-55717500D01*
X47773856Y-55740779D01*
X47770437Y-55763834D01*
X47764773Y-55786443D01*
X47756921Y-55808387D01*
X47746956Y-55829457D01*
X47734974Y-55849448D01*
X47721090Y-55868168D01*
X47705438Y-55885438D01*
X47688168Y-55901090D01*
X47669448Y-55914974D01*
X47649457Y-55926956D01*
X47628387Y-55936921D01*
X47606443Y-55944773D01*
X47583834Y-55950437D01*
X47560779Y-55953856D01*
X47537500Y-55955000D01*
X47062500Y-55955000D01*
X47039221Y-55953856D01*
X47016166Y-55950437D01*
X46993557Y-55944773D01*
X46971613Y-55936921D01*
X46950543Y-55926956D01*
X46930552Y-55914974D01*
X46911832Y-55901090D01*
X46894562Y-55885438D01*
X46878910Y-55868168D01*
X46865026Y-55849448D01*
X46853044Y-55829457D01*
X46843079Y-55808387D01*
X46835227Y-55786443D01*
X46829563Y-55763834D01*
X46826144Y-55740779D01*
X46825000Y-55717500D01*
X46825000Y-55142500D01*
X46826144Y-55119221D01*
X46829563Y-55096166D01*
X46835227Y-55073557D01*
X46843079Y-55051613D01*
X46853044Y-55030543D01*
X46865026Y-55010552D01*
X46878910Y-54991832D01*
X46894562Y-54974562D01*
X46911832Y-54958910D01*
X46930552Y-54945026D01*
X46950543Y-54933044D01*
X46971613Y-54923079D01*
X46993557Y-54915227D01*
X47016166Y-54909563D01*
X47039221Y-54906144D01*
X47062500Y-54905000D01*
X47537500Y-54905000D01*
X47560779Y-54906144D01*
X47560779Y-54906144D01*
G37*
D19*
X47300000Y-55430000D03*
D17*
G36*
X47560779Y-53156144D02*
X47583834Y-53159563D01*
X47606443Y-53165227D01*
X47628387Y-53173079D01*
X47649457Y-53183044D01*
X47669448Y-53195026D01*
X47688168Y-53208910D01*
X47705438Y-53224562D01*
X47721090Y-53241832D01*
X47734974Y-53260552D01*
X47746956Y-53280543D01*
X47756921Y-53301613D01*
X47764773Y-53323557D01*
X47770437Y-53346166D01*
X47773856Y-53369221D01*
X47775000Y-53392500D01*
X47775000Y-53967500D01*
X47773856Y-53990779D01*
X47770437Y-54013834D01*
X47764773Y-54036443D01*
X47756921Y-54058387D01*
X47746956Y-54079457D01*
X47734974Y-54099448D01*
X47721090Y-54118168D01*
X47705438Y-54135438D01*
X47688168Y-54151090D01*
X47669448Y-54164974D01*
X47649457Y-54176956D01*
X47628387Y-54186921D01*
X47606443Y-54194773D01*
X47583834Y-54200437D01*
X47560779Y-54203856D01*
X47537500Y-54205000D01*
X47062500Y-54205000D01*
X47039221Y-54203856D01*
X47016166Y-54200437D01*
X46993557Y-54194773D01*
X46971613Y-54186921D01*
X46950543Y-54176956D01*
X46930552Y-54164974D01*
X46911832Y-54151090D01*
X46894562Y-54135438D01*
X46878910Y-54118168D01*
X46865026Y-54099448D01*
X46853044Y-54079457D01*
X46843079Y-54058387D01*
X46835227Y-54036443D01*
X46829563Y-54013834D01*
X46826144Y-53990779D01*
X46825000Y-53967500D01*
X46825000Y-53392500D01*
X46826144Y-53369221D01*
X46829563Y-53346166D01*
X46835227Y-53323557D01*
X46843079Y-53301613D01*
X46853044Y-53280543D01*
X46865026Y-53260552D01*
X46878910Y-53241832D01*
X46894562Y-53224562D01*
X46911832Y-53208910D01*
X46930552Y-53195026D01*
X46950543Y-53183044D01*
X46971613Y-53173079D01*
X46993557Y-53165227D01*
X47016166Y-53159563D01*
X47039221Y-53156144D01*
X47062500Y-53155000D01*
X47537500Y-53155000D01*
X47560779Y-53156144D01*
X47560779Y-53156144D01*
G37*
D19*
X47300000Y-53680000D03*
G04 #@! TD*
D17*
G04 #@! TO.C,R4*
G36*
X110360779Y-50456144D02*
X110383834Y-50459563D01*
X110406443Y-50465227D01*
X110428387Y-50473079D01*
X110449457Y-50483044D01*
X110469448Y-50495026D01*
X110488168Y-50508910D01*
X110505438Y-50524562D01*
X110521090Y-50541832D01*
X110534974Y-50560552D01*
X110546956Y-50580543D01*
X110556921Y-50601613D01*
X110564773Y-50623557D01*
X110570437Y-50646166D01*
X110573856Y-50669221D01*
X110575000Y-50692500D01*
X110575000Y-51167500D01*
X110573856Y-51190779D01*
X110570437Y-51213834D01*
X110564773Y-51236443D01*
X110556921Y-51258387D01*
X110546956Y-51279457D01*
X110534974Y-51299448D01*
X110521090Y-51318168D01*
X110505438Y-51335438D01*
X110488168Y-51351090D01*
X110469448Y-51364974D01*
X110449457Y-51376956D01*
X110428387Y-51386921D01*
X110406443Y-51394773D01*
X110383834Y-51400437D01*
X110360779Y-51403856D01*
X110337500Y-51405000D01*
X109762500Y-51405000D01*
X109739221Y-51403856D01*
X109716166Y-51400437D01*
X109693557Y-51394773D01*
X109671613Y-51386921D01*
X109650543Y-51376956D01*
X109630552Y-51364974D01*
X109611832Y-51351090D01*
X109594562Y-51335438D01*
X109578910Y-51318168D01*
X109565026Y-51299448D01*
X109553044Y-51279457D01*
X109543079Y-51258387D01*
X109535227Y-51236443D01*
X109529563Y-51213834D01*
X109526144Y-51190779D01*
X109525000Y-51167500D01*
X109525000Y-50692500D01*
X109526144Y-50669221D01*
X109529563Y-50646166D01*
X109535227Y-50623557D01*
X109543079Y-50601613D01*
X109553044Y-50580543D01*
X109565026Y-50560552D01*
X109578910Y-50541832D01*
X109594562Y-50524562D01*
X109611832Y-50508910D01*
X109630552Y-50495026D01*
X109650543Y-50483044D01*
X109671613Y-50473079D01*
X109693557Y-50465227D01*
X109716166Y-50459563D01*
X109739221Y-50456144D01*
X109762500Y-50455000D01*
X110337500Y-50455000D01*
X110360779Y-50456144D01*
X110360779Y-50456144D01*
G37*
D19*
X110050000Y-50930000D03*
D17*
G36*
X112110779Y-50456144D02*
X112133834Y-50459563D01*
X112156443Y-50465227D01*
X112178387Y-50473079D01*
X112199457Y-50483044D01*
X112219448Y-50495026D01*
X112238168Y-50508910D01*
X112255438Y-50524562D01*
X112271090Y-50541832D01*
X112284974Y-50560552D01*
X112296956Y-50580543D01*
X112306921Y-50601613D01*
X112314773Y-50623557D01*
X112320437Y-50646166D01*
X112323856Y-50669221D01*
X112325000Y-50692500D01*
X112325000Y-51167500D01*
X112323856Y-51190779D01*
X112320437Y-51213834D01*
X112314773Y-51236443D01*
X112306921Y-51258387D01*
X112296956Y-51279457D01*
X112284974Y-51299448D01*
X112271090Y-51318168D01*
X112255438Y-51335438D01*
X112238168Y-51351090D01*
X112219448Y-51364974D01*
X112199457Y-51376956D01*
X112178387Y-51386921D01*
X112156443Y-51394773D01*
X112133834Y-51400437D01*
X112110779Y-51403856D01*
X112087500Y-51405000D01*
X111512500Y-51405000D01*
X111489221Y-51403856D01*
X111466166Y-51400437D01*
X111443557Y-51394773D01*
X111421613Y-51386921D01*
X111400543Y-51376956D01*
X111380552Y-51364974D01*
X111361832Y-51351090D01*
X111344562Y-51335438D01*
X111328910Y-51318168D01*
X111315026Y-51299448D01*
X111303044Y-51279457D01*
X111293079Y-51258387D01*
X111285227Y-51236443D01*
X111279563Y-51213834D01*
X111276144Y-51190779D01*
X111275000Y-51167500D01*
X111275000Y-50692500D01*
X111276144Y-50669221D01*
X111279563Y-50646166D01*
X111285227Y-50623557D01*
X111293079Y-50601613D01*
X111303044Y-50580543D01*
X111315026Y-50560552D01*
X111328910Y-50541832D01*
X111344562Y-50524562D01*
X111361832Y-50508910D01*
X111380552Y-50495026D01*
X111400543Y-50483044D01*
X111421613Y-50473079D01*
X111443557Y-50465227D01*
X111466166Y-50459563D01*
X111489221Y-50456144D01*
X111512500Y-50455000D01*
X112087500Y-50455000D01*
X112110779Y-50456144D01*
X112110779Y-50456144D01*
G37*
D19*
X111800000Y-50930000D03*
G04 #@! TD*
D17*
G04 #@! TO.C,R2*
G36*
X106485779Y-50456144D02*
X106508834Y-50459563D01*
X106531443Y-50465227D01*
X106553387Y-50473079D01*
X106574457Y-50483044D01*
X106594448Y-50495026D01*
X106613168Y-50508910D01*
X106630438Y-50524562D01*
X106646090Y-50541832D01*
X106659974Y-50560552D01*
X106671956Y-50580543D01*
X106681921Y-50601613D01*
X106689773Y-50623557D01*
X106695437Y-50646166D01*
X106698856Y-50669221D01*
X106700000Y-50692500D01*
X106700000Y-51167500D01*
X106698856Y-51190779D01*
X106695437Y-51213834D01*
X106689773Y-51236443D01*
X106681921Y-51258387D01*
X106671956Y-51279457D01*
X106659974Y-51299448D01*
X106646090Y-51318168D01*
X106630438Y-51335438D01*
X106613168Y-51351090D01*
X106594448Y-51364974D01*
X106574457Y-51376956D01*
X106553387Y-51386921D01*
X106531443Y-51394773D01*
X106508834Y-51400437D01*
X106485779Y-51403856D01*
X106462500Y-51405000D01*
X105887500Y-51405000D01*
X105864221Y-51403856D01*
X105841166Y-51400437D01*
X105818557Y-51394773D01*
X105796613Y-51386921D01*
X105775543Y-51376956D01*
X105755552Y-51364974D01*
X105736832Y-51351090D01*
X105719562Y-51335438D01*
X105703910Y-51318168D01*
X105690026Y-51299448D01*
X105678044Y-51279457D01*
X105668079Y-51258387D01*
X105660227Y-51236443D01*
X105654563Y-51213834D01*
X105651144Y-51190779D01*
X105650000Y-51167500D01*
X105650000Y-50692500D01*
X105651144Y-50669221D01*
X105654563Y-50646166D01*
X105660227Y-50623557D01*
X105668079Y-50601613D01*
X105678044Y-50580543D01*
X105690026Y-50560552D01*
X105703910Y-50541832D01*
X105719562Y-50524562D01*
X105736832Y-50508910D01*
X105755552Y-50495026D01*
X105775543Y-50483044D01*
X105796613Y-50473079D01*
X105818557Y-50465227D01*
X105841166Y-50459563D01*
X105864221Y-50456144D01*
X105887500Y-50455000D01*
X106462500Y-50455000D01*
X106485779Y-50456144D01*
X106485779Y-50456144D01*
G37*
D19*
X106175000Y-50930000D03*
D17*
G36*
X104735779Y-50456144D02*
X104758834Y-50459563D01*
X104781443Y-50465227D01*
X104803387Y-50473079D01*
X104824457Y-50483044D01*
X104844448Y-50495026D01*
X104863168Y-50508910D01*
X104880438Y-50524562D01*
X104896090Y-50541832D01*
X104909974Y-50560552D01*
X104921956Y-50580543D01*
X104931921Y-50601613D01*
X104939773Y-50623557D01*
X104945437Y-50646166D01*
X104948856Y-50669221D01*
X104950000Y-50692500D01*
X104950000Y-51167500D01*
X104948856Y-51190779D01*
X104945437Y-51213834D01*
X104939773Y-51236443D01*
X104931921Y-51258387D01*
X104921956Y-51279457D01*
X104909974Y-51299448D01*
X104896090Y-51318168D01*
X104880438Y-51335438D01*
X104863168Y-51351090D01*
X104844448Y-51364974D01*
X104824457Y-51376956D01*
X104803387Y-51386921D01*
X104781443Y-51394773D01*
X104758834Y-51400437D01*
X104735779Y-51403856D01*
X104712500Y-51405000D01*
X104137500Y-51405000D01*
X104114221Y-51403856D01*
X104091166Y-51400437D01*
X104068557Y-51394773D01*
X104046613Y-51386921D01*
X104025543Y-51376956D01*
X104005552Y-51364974D01*
X103986832Y-51351090D01*
X103969562Y-51335438D01*
X103953910Y-51318168D01*
X103940026Y-51299448D01*
X103928044Y-51279457D01*
X103918079Y-51258387D01*
X103910227Y-51236443D01*
X103904563Y-51213834D01*
X103901144Y-51190779D01*
X103900000Y-51167500D01*
X103900000Y-50692500D01*
X103901144Y-50669221D01*
X103904563Y-50646166D01*
X103910227Y-50623557D01*
X103918079Y-50601613D01*
X103928044Y-50580543D01*
X103940026Y-50560552D01*
X103953910Y-50541832D01*
X103969562Y-50524562D01*
X103986832Y-50508910D01*
X104005552Y-50495026D01*
X104025543Y-50483044D01*
X104046613Y-50473079D01*
X104068557Y-50465227D01*
X104091166Y-50459563D01*
X104114221Y-50456144D01*
X104137500Y-50455000D01*
X104712500Y-50455000D01*
X104735779Y-50456144D01*
X104735779Y-50456144D01*
G37*
D19*
X104425000Y-50930000D03*
G04 #@! TD*
D17*
G04 #@! TO.C,R1*
G36*
X105235779Y-95956144D02*
X105258834Y-95959563D01*
X105281443Y-95965227D01*
X105303387Y-95973079D01*
X105324457Y-95983044D01*
X105344448Y-95995026D01*
X105363168Y-96008910D01*
X105380438Y-96024562D01*
X105396090Y-96041832D01*
X105409974Y-96060552D01*
X105421956Y-96080543D01*
X105431921Y-96101613D01*
X105439773Y-96123557D01*
X105445437Y-96146166D01*
X105448856Y-96169221D01*
X105450000Y-96192500D01*
X105450000Y-96667500D01*
X105448856Y-96690779D01*
X105445437Y-96713834D01*
X105439773Y-96736443D01*
X105431921Y-96758387D01*
X105421956Y-96779457D01*
X105409974Y-96799448D01*
X105396090Y-96818168D01*
X105380438Y-96835438D01*
X105363168Y-96851090D01*
X105344448Y-96864974D01*
X105324457Y-96876956D01*
X105303387Y-96886921D01*
X105281443Y-96894773D01*
X105258834Y-96900437D01*
X105235779Y-96903856D01*
X105212500Y-96905000D01*
X104637500Y-96905000D01*
X104614221Y-96903856D01*
X104591166Y-96900437D01*
X104568557Y-96894773D01*
X104546613Y-96886921D01*
X104525543Y-96876956D01*
X104505552Y-96864974D01*
X104486832Y-96851090D01*
X104469562Y-96835438D01*
X104453910Y-96818168D01*
X104440026Y-96799448D01*
X104428044Y-96779457D01*
X104418079Y-96758387D01*
X104410227Y-96736443D01*
X104404563Y-96713834D01*
X104401144Y-96690779D01*
X104400000Y-96667500D01*
X104400000Y-96192500D01*
X104401144Y-96169221D01*
X104404563Y-96146166D01*
X104410227Y-96123557D01*
X104418079Y-96101613D01*
X104428044Y-96080543D01*
X104440026Y-96060552D01*
X104453910Y-96041832D01*
X104469562Y-96024562D01*
X104486832Y-96008910D01*
X104505552Y-95995026D01*
X104525543Y-95983044D01*
X104546613Y-95973079D01*
X104568557Y-95965227D01*
X104591166Y-95959563D01*
X104614221Y-95956144D01*
X104637500Y-95955000D01*
X105212500Y-95955000D01*
X105235779Y-95956144D01*
X105235779Y-95956144D01*
G37*
D19*
X104925000Y-96430000D03*
D17*
G36*
X106985779Y-95956144D02*
X107008834Y-95959563D01*
X107031443Y-95965227D01*
X107053387Y-95973079D01*
X107074457Y-95983044D01*
X107094448Y-95995026D01*
X107113168Y-96008910D01*
X107130438Y-96024562D01*
X107146090Y-96041832D01*
X107159974Y-96060552D01*
X107171956Y-96080543D01*
X107181921Y-96101613D01*
X107189773Y-96123557D01*
X107195437Y-96146166D01*
X107198856Y-96169221D01*
X107200000Y-96192500D01*
X107200000Y-96667500D01*
X107198856Y-96690779D01*
X107195437Y-96713834D01*
X107189773Y-96736443D01*
X107181921Y-96758387D01*
X107171956Y-96779457D01*
X107159974Y-96799448D01*
X107146090Y-96818168D01*
X107130438Y-96835438D01*
X107113168Y-96851090D01*
X107094448Y-96864974D01*
X107074457Y-96876956D01*
X107053387Y-96886921D01*
X107031443Y-96894773D01*
X107008834Y-96900437D01*
X106985779Y-96903856D01*
X106962500Y-96905000D01*
X106387500Y-96905000D01*
X106364221Y-96903856D01*
X106341166Y-96900437D01*
X106318557Y-96894773D01*
X106296613Y-96886921D01*
X106275543Y-96876956D01*
X106255552Y-96864974D01*
X106236832Y-96851090D01*
X106219562Y-96835438D01*
X106203910Y-96818168D01*
X106190026Y-96799448D01*
X106178044Y-96779457D01*
X106168079Y-96758387D01*
X106160227Y-96736443D01*
X106154563Y-96713834D01*
X106151144Y-96690779D01*
X106150000Y-96667500D01*
X106150000Y-96192500D01*
X106151144Y-96169221D01*
X106154563Y-96146166D01*
X106160227Y-96123557D01*
X106168079Y-96101613D01*
X106178044Y-96080543D01*
X106190026Y-96060552D01*
X106203910Y-96041832D01*
X106219562Y-96024562D01*
X106236832Y-96008910D01*
X106255552Y-95995026D01*
X106275543Y-95983044D01*
X106296613Y-95973079D01*
X106318557Y-95965227D01*
X106341166Y-95959563D01*
X106364221Y-95956144D01*
X106387500Y-95955000D01*
X106962500Y-95955000D01*
X106985779Y-95956144D01*
X106985779Y-95956144D01*
G37*
D19*
X106675000Y-96430000D03*
G04 #@! TD*
D17*
G04 #@! TO.C,R8*
G36*
X56985779Y-64706144D02*
X57008834Y-64709563D01*
X57031443Y-64715227D01*
X57053387Y-64723079D01*
X57074457Y-64733044D01*
X57094448Y-64745026D01*
X57113168Y-64758910D01*
X57130438Y-64774562D01*
X57146090Y-64791832D01*
X57159974Y-64810552D01*
X57171956Y-64830543D01*
X57181921Y-64851613D01*
X57189773Y-64873557D01*
X57195437Y-64896166D01*
X57198856Y-64919221D01*
X57200000Y-64942500D01*
X57200000Y-65417500D01*
X57198856Y-65440779D01*
X57195437Y-65463834D01*
X57189773Y-65486443D01*
X57181921Y-65508387D01*
X57171956Y-65529457D01*
X57159974Y-65549448D01*
X57146090Y-65568168D01*
X57130438Y-65585438D01*
X57113168Y-65601090D01*
X57094448Y-65614974D01*
X57074457Y-65626956D01*
X57053387Y-65636921D01*
X57031443Y-65644773D01*
X57008834Y-65650437D01*
X56985779Y-65653856D01*
X56962500Y-65655000D01*
X56387500Y-65655000D01*
X56364221Y-65653856D01*
X56341166Y-65650437D01*
X56318557Y-65644773D01*
X56296613Y-65636921D01*
X56275543Y-65626956D01*
X56255552Y-65614974D01*
X56236832Y-65601090D01*
X56219562Y-65585438D01*
X56203910Y-65568168D01*
X56190026Y-65549448D01*
X56178044Y-65529457D01*
X56168079Y-65508387D01*
X56160227Y-65486443D01*
X56154563Y-65463834D01*
X56151144Y-65440779D01*
X56150000Y-65417500D01*
X56150000Y-64942500D01*
X56151144Y-64919221D01*
X56154563Y-64896166D01*
X56160227Y-64873557D01*
X56168079Y-64851613D01*
X56178044Y-64830543D01*
X56190026Y-64810552D01*
X56203910Y-64791832D01*
X56219562Y-64774562D01*
X56236832Y-64758910D01*
X56255552Y-64745026D01*
X56275543Y-64733044D01*
X56296613Y-64723079D01*
X56318557Y-64715227D01*
X56341166Y-64709563D01*
X56364221Y-64706144D01*
X56387500Y-64705000D01*
X56962500Y-64705000D01*
X56985779Y-64706144D01*
X56985779Y-64706144D01*
G37*
D19*
X56675000Y-65180000D03*
D17*
G36*
X55235779Y-64706144D02*
X55258834Y-64709563D01*
X55281443Y-64715227D01*
X55303387Y-64723079D01*
X55324457Y-64733044D01*
X55344448Y-64745026D01*
X55363168Y-64758910D01*
X55380438Y-64774562D01*
X55396090Y-64791832D01*
X55409974Y-64810552D01*
X55421956Y-64830543D01*
X55431921Y-64851613D01*
X55439773Y-64873557D01*
X55445437Y-64896166D01*
X55448856Y-64919221D01*
X55450000Y-64942500D01*
X55450000Y-65417500D01*
X55448856Y-65440779D01*
X55445437Y-65463834D01*
X55439773Y-65486443D01*
X55431921Y-65508387D01*
X55421956Y-65529457D01*
X55409974Y-65549448D01*
X55396090Y-65568168D01*
X55380438Y-65585438D01*
X55363168Y-65601090D01*
X55344448Y-65614974D01*
X55324457Y-65626956D01*
X55303387Y-65636921D01*
X55281443Y-65644773D01*
X55258834Y-65650437D01*
X55235779Y-65653856D01*
X55212500Y-65655000D01*
X54637500Y-65655000D01*
X54614221Y-65653856D01*
X54591166Y-65650437D01*
X54568557Y-65644773D01*
X54546613Y-65636921D01*
X54525543Y-65626956D01*
X54505552Y-65614974D01*
X54486832Y-65601090D01*
X54469562Y-65585438D01*
X54453910Y-65568168D01*
X54440026Y-65549448D01*
X54428044Y-65529457D01*
X54418079Y-65508387D01*
X54410227Y-65486443D01*
X54404563Y-65463834D01*
X54401144Y-65440779D01*
X54400000Y-65417500D01*
X54400000Y-64942500D01*
X54401144Y-64919221D01*
X54404563Y-64896166D01*
X54410227Y-64873557D01*
X54418079Y-64851613D01*
X54428044Y-64830543D01*
X54440026Y-64810552D01*
X54453910Y-64791832D01*
X54469562Y-64774562D01*
X54486832Y-64758910D01*
X54505552Y-64745026D01*
X54525543Y-64733044D01*
X54546613Y-64723079D01*
X54568557Y-64715227D01*
X54591166Y-64709563D01*
X54614221Y-64706144D01*
X54637500Y-64705000D01*
X55212500Y-64705000D01*
X55235779Y-64706144D01*
X55235779Y-64706144D01*
G37*
D19*
X54925000Y-65180000D03*
G04 #@! TD*
D17*
G04 #@! TO.C,R7*
G36*
X59060779Y-56781144D02*
X59083834Y-56784563D01*
X59106443Y-56790227D01*
X59128387Y-56798079D01*
X59149457Y-56808044D01*
X59169448Y-56820026D01*
X59188168Y-56833910D01*
X59205438Y-56849562D01*
X59221090Y-56866832D01*
X59234974Y-56885552D01*
X59246956Y-56905543D01*
X59256921Y-56926613D01*
X59264773Y-56948557D01*
X59270437Y-56971166D01*
X59273856Y-56994221D01*
X59275000Y-57017500D01*
X59275000Y-57592500D01*
X59273856Y-57615779D01*
X59270437Y-57638834D01*
X59264773Y-57661443D01*
X59256921Y-57683387D01*
X59246956Y-57704457D01*
X59234974Y-57724448D01*
X59221090Y-57743168D01*
X59205438Y-57760438D01*
X59188168Y-57776090D01*
X59169448Y-57789974D01*
X59149457Y-57801956D01*
X59128387Y-57811921D01*
X59106443Y-57819773D01*
X59083834Y-57825437D01*
X59060779Y-57828856D01*
X59037500Y-57830000D01*
X58562500Y-57830000D01*
X58539221Y-57828856D01*
X58516166Y-57825437D01*
X58493557Y-57819773D01*
X58471613Y-57811921D01*
X58450543Y-57801956D01*
X58430552Y-57789974D01*
X58411832Y-57776090D01*
X58394562Y-57760438D01*
X58378910Y-57743168D01*
X58365026Y-57724448D01*
X58353044Y-57704457D01*
X58343079Y-57683387D01*
X58335227Y-57661443D01*
X58329563Y-57638834D01*
X58326144Y-57615779D01*
X58325000Y-57592500D01*
X58325000Y-57017500D01*
X58326144Y-56994221D01*
X58329563Y-56971166D01*
X58335227Y-56948557D01*
X58343079Y-56926613D01*
X58353044Y-56905543D01*
X58365026Y-56885552D01*
X58378910Y-56866832D01*
X58394562Y-56849562D01*
X58411832Y-56833910D01*
X58430552Y-56820026D01*
X58450543Y-56808044D01*
X58471613Y-56798079D01*
X58493557Y-56790227D01*
X58516166Y-56784563D01*
X58539221Y-56781144D01*
X58562500Y-56780000D01*
X59037500Y-56780000D01*
X59060779Y-56781144D01*
X59060779Y-56781144D01*
G37*
D19*
X58800000Y-57305000D03*
D17*
G36*
X59060779Y-58531144D02*
X59083834Y-58534563D01*
X59106443Y-58540227D01*
X59128387Y-58548079D01*
X59149457Y-58558044D01*
X59169448Y-58570026D01*
X59188168Y-58583910D01*
X59205438Y-58599562D01*
X59221090Y-58616832D01*
X59234974Y-58635552D01*
X59246956Y-58655543D01*
X59256921Y-58676613D01*
X59264773Y-58698557D01*
X59270437Y-58721166D01*
X59273856Y-58744221D01*
X59275000Y-58767500D01*
X59275000Y-59342500D01*
X59273856Y-59365779D01*
X59270437Y-59388834D01*
X59264773Y-59411443D01*
X59256921Y-59433387D01*
X59246956Y-59454457D01*
X59234974Y-59474448D01*
X59221090Y-59493168D01*
X59205438Y-59510438D01*
X59188168Y-59526090D01*
X59169448Y-59539974D01*
X59149457Y-59551956D01*
X59128387Y-59561921D01*
X59106443Y-59569773D01*
X59083834Y-59575437D01*
X59060779Y-59578856D01*
X59037500Y-59580000D01*
X58562500Y-59580000D01*
X58539221Y-59578856D01*
X58516166Y-59575437D01*
X58493557Y-59569773D01*
X58471613Y-59561921D01*
X58450543Y-59551956D01*
X58430552Y-59539974D01*
X58411832Y-59526090D01*
X58394562Y-59510438D01*
X58378910Y-59493168D01*
X58365026Y-59474448D01*
X58353044Y-59454457D01*
X58343079Y-59433387D01*
X58335227Y-59411443D01*
X58329563Y-59388834D01*
X58326144Y-59365779D01*
X58325000Y-59342500D01*
X58325000Y-58767500D01*
X58326144Y-58744221D01*
X58329563Y-58721166D01*
X58335227Y-58698557D01*
X58343079Y-58676613D01*
X58353044Y-58655543D01*
X58365026Y-58635552D01*
X58378910Y-58616832D01*
X58394562Y-58599562D01*
X58411832Y-58583910D01*
X58430552Y-58570026D01*
X58450543Y-58558044D01*
X58471613Y-58548079D01*
X58493557Y-58540227D01*
X58516166Y-58534563D01*
X58539221Y-58531144D01*
X58562500Y-58530000D01*
X59037500Y-58530000D01*
X59060779Y-58531144D01*
X59060779Y-58531144D01*
G37*
D19*
X58800000Y-59055000D03*
G04 #@! TD*
D16*
G04 #@! TO.C,R9*
X54850000Y-110930000D03*
D15*
X54850000Y-105850000D03*
G04 #@! TD*
G04 #@! TO.C,R11*
X62680000Y-111930000D03*
D16*
X57600000Y-111930000D03*
G04 #@! TD*
D33*
G04 #@! TO.C,P4*
X110250000Y-57030000D03*
X107710000Y-57030000D03*
D34*
X110250000Y-54490000D03*
X107710000Y-54490000D03*
G04 #@! TD*
D35*
G04 #@! TO.C,L1*
X50650000Y-92780000D03*
X50650000Y-88930000D03*
G04 #@! TD*
D13*
G04 #@! TO.C,P2*
X95830000Y-65240000D03*
D14*
X93290000Y-65240000D03*
X90750000Y-65240000D03*
X88210000Y-65240000D03*
X85670000Y-65240000D03*
X83130000Y-65240000D03*
X80590000Y-65240000D03*
X78050000Y-65240000D03*
X75510000Y-65240000D03*
X72970000Y-65240000D03*
X70430000Y-65240000D03*
X67890000Y-65240000D03*
X65350000Y-65240000D03*
X62810000Y-65240000D03*
X60270000Y-65240000D03*
G04 #@! TD*
D36*
G04 #@! TO.C,BT1*
X92800000Y-90930000D03*
X100050000Y-90930000D03*
X56050000Y-90930000D03*
X63300000Y-90930000D03*
G04 #@! TD*
D37*
G04 #@! TO.C,SD1*
X61925000Y-49855000D03*
X61925000Y-50805000D03*
X61925000Y-58505000D03*
X61925000Y-57405000D03*
X61925000Y-56305000D03*
X61925000Y-55205000D03*
X61925000Y-54105000D03*
X61925000Y-53005000D03*
X61925000Y-51905000D03*
D38*
X61925000Y-60055000D03*
X66225000Y-48905000D03*
D39*
X72425000Y-48905000D03*
D40*
X76575000Y-48905000D03*
D41*
X77025000Y-62405000D03*
G04 #@! TD*
D13*
G04 #@! TO.C,J1*
X97350000Y-53390000D03*
D14*
X97350000Y-55930000D03*
X97350000Y-58470000D03*
G04 #@! TD*
D13*
G04 #@! TO.C,J2*
X53850000Y-53390000D03*
D14*
X53850000Y-55930000D03*
X53850000Y-58470000D03*
G04 #@! TD*
G04 #@! TO.C,P1*
X95830000Y-80610000D03*
X93290000Y-80610000D03*
X90750000Y-80610000D03*
X88210000Y-80610000D03*
X85670000Y-80610000D03*
X83130000Y-80610000D03*
X80590000Y-80610000D03*
X78050000Y-80610000D03*
X75510000Y-80610000D03*
X72970000Y-80610000D03*
X70430000Y-80610000D03*
X67890000Y-80610000D03*
X65350000Y-80610000D03*
X62810000Y-80610000D03*
D13*
X60270000Y-80610000D03*
G04 #@! TD*
D42*
G04 #@! TO.C,SW1*
X111950000Y-87330000D03*
X111950000Y-95730000D03*
D43*
X111950000Y-89530000D03*
X111950000Y-91530000D03*
X111950000Y-93530000D03*
G04 #@! TD*
M02*
