G04 #@! TF.GenerationSoftware,KiCad,Pcbnew,(5.1.6)-1*
G04 #@! TF.CreationDate,2020-08-01T00:51:36+09:00*
G04 #@! TF.ProjectId,MiniRoverShield,4d696e69-526f-4766-9572-536869656c64,rev?*
G04 #@! TF.SameCoordinates,Original*
G04 #@! TF.FileFunction,Copper,L1,Top*
G04 #@! TF.FilePolarity,Positive*
%FSLAX46Y46*%
G04 Gerber Fmt 4.6, Leading zero omitted, Abs format (unit mm)*
G04 Created by KiCad (PCBNEW (5.1.6)-1) date 2020-08-01 00:51:36*
%MOMM*%
%LPD*%
G01*
G04 APERTURE LIST*
G04 #@! TA.AperFunction,ComponentPad*
%ADD10O,2.000000X1.700000*%
G04 #@! TD*
G04 #@! TA.AperFunction,ComponentPad*
%ADD11R,2.000000X1.700000*%
G04 #@! TD*
G04 #@! TA.AperFunction,ComponentPad*
%ADD12R,1.700000X1.700000*%
G04 #@! TD*
G04 #@! TA.AperFunction,ComponentPad*
%ADD13O,1.700000X1.700000*%
G04 #@! TD*
G04 #@! TA.AperFunction,ComponentPad*
%ADD14C,0.600000*%
G04 #@! TD*
G04 #@! TA.AperFunction,Conductor*
%ADD15R,2.300000X2.800000*%
G04 #@! TD*
G04 #@! TA.AperFunction,ComponentPad*
%ADD16C,2.000000*%
G04 #@! TD*
G04 #@! TA.AperFunction,SMDPad,CuDef*
%ADD17C,0.100000*%
G04 #@! TD*
G04 #@! TA.AperFunction,ComponentPad*
%ADD18O,2.800000X3.500000*%
G04 #@! TD*
G04 #@! TA.AperFunction,ComponentPad*
%ADD19O,3.000000X2.000000*%
G04 #@! TD*
G04 #@! TA.AperFunction,ComponentPad*
%ADD20O,2.200000X1.300000*%
G04 #@! TD*
G04 #@! TA.AperFunction,ViaPad*
%ADD21C,0.600000*%
G04 #@! TD*
G04 #@! TA.AperFunction,ViaPad*
%ADD22C,1.500000*%
G04 #@! TD*
G04 #@! TA.AperFunction,Conductor*
%ADD23C,0.200000*%
G04 #@! TD*
G04 #@! TA.AperFunction,Conductor*
%ADD24C,0.152400*%
G04 #@! TD*
G04 #@! TA.AperFunction,Conductor*
%ADD25C,1.500000*%
G04 #@! TD*
G04 #@! TA.AperFunction,Conductor*
%ADD26C,0.800000*%
G04 #@! TD*
G04 APERTURE END LIST*
D10*
X70650000Y-71630000D03*
D11*
X70650000Y-74130000D03*
X85450000Y-71630000D03*
D10*
X85450000Y-74130000D03*
D12*
X50250000Y-55930000D03*
D13*
X50250000Y-53390000D03*
D14*
X44650000Y-91680000D03*
X45150000Y-90930000D03*
X44650000Y-90180000D03*
X45650000Y-90180000D03*
X45650000Y-91680000D03*
D15*
X45150000Y-90930000D03*
D16*
X107750000Y-57030000D03*
X105210000Y-57030000D03*
G04 #@! TA.AperFunction,SMDPad,CuDef*
D17*
G36*
X80000000Y-47340000D02*
G01*
X80000000Y-49840000D01*
X79800000Y-49840000D01*
X79800000Y-47340000D01*
X80000000Y-47340000D01*
G37*
G04 #@! TD.AperFunction*
G04 #@! TA.AperFunction,SMDPad,CuDef*
G36*
X79600000Y-47340000D02*
G01*
X79600000Y-49840000D01*
X79400000Y-49840000D01*
X79400000Y-47340000D01*
X79600000Y-47340000D01*
G37*
G04 #@! TD.AperFunction*
G04 #@! TA.AperFunction,SMDPad,CuDef*
G36*
X79200000Y-47340000D02*
G01*
X79200000Y-49840000D01*
X79000000Y-49840000D01*
X79000000Y-47340000D01*
X79200000Y-47340000D01*
G37*
G04 #@! TD.AperFunction*
G04 #@! TA.AperFunction,SMDPad,CuDef*
G36*
X78800000Y-47340000D02*
G01*
X78800000Y-49840000D01*
X78600000Y-49840000D01*
X78600000Y-47340000D01*
X78800000Y-47340000D01*
G37*
G04 #@! TD.AperFunction*
G04 #@! TA.AperFunction,SMDPad,CuDef*
G36*
X78400000Y-47340000D02*
G01*
X78400000Y-49840000D01*
X78200000Y-49840000D01*
X78200000Y-47340000D01*
X78400000Y-47340000D01*
G37*
G04 #@! TD.AperFunction*
G04 #@! TA.AperFunction,SMDPad,CuDef*
G36*
X78000000Y-47340000D02*
G01*
X78000000Y-49840000D01*
X77800000Y-49840000D01*
X77800000Y-47340000D01*
X78000000Y-47340000D01*
G37*
G04 #@! TD.AperFunction*
G04 #@! TA.AperFunction,SMDPad,CuDef*
G36*
X77600000Y-47340000D02*
G01*
X77600000Y-49840000D01*
X77400000Y-49840000D01*
X77400000Y-47340000D01*
X77600000Y-47340000D01*
G37*
G04 #@! TD.AperFunction*
G04 #@! TA.AperFunction,SMDPad,CuDef*
G36*
X77200000Y-47340000D02*
G01*
X77200000Y-49840000D01*
X77000000Y-49840000D01*
X77000000Y-47340000D01*
X77200000Y-47340000D01*
G37*
G04 #@! TD.AperFunction*
G04 #@! TA.AperFunction,SMDPad,CuDef*
G36*
X76800000Y-47340000D02*
G01*
X76800000Y-49840000D01*
X76600000Y-49840000D01*
X76600000Y-47340000D01*
X76800000Y-47340000D01*
G37*
G04 #@! TD.AperFunction*
G04 #@! TA.AperFunction,SMDPad,CuDef*
G36*
X76400000Y-47340000D02*
G01*
X76400000Y-49840000D01*
X76200000Y-49840000D01*
X76200000Y-47340000D01*
X76400000Y-47340000D01*
G37*
G04 #@! TD.AperFunction*
G04 #@! TA.AperFunction,SMDPad,CuDef*
G36*
X76400000Y-52020000D02*
G01*
X76400000Y-54520000D01*
X76200000Y-54520000D01*
X76200000Y-52020000D01*
X76400000Y-52020000D01*
G37*
G04 #@! TD.AperFunction*
G04 #@! TA.AperFunction,SMDPad,CuDef*
G36*
X76800000Y-52020000D02*
G01*
X76800000Y-54520000D01*
X76600000Y-54520000D01*
X76600000Y-52020000D01*
X76800000Y-52020000D01*
G37*
G04 #@! TD.AperFunction*
G04 #@! TA.AperFunction,SMDPad,CuDef*
G36*
X77200000Y-52020000D02*
G01*
X77200000Y-54520000D01*
X77000000Y-54520000D01*
X77000000Y-52020000D01*
X77200000Y-52020000D01*
G37*
G04 #@! TD.AperFunction*
G04 #@! TA.AperFunction,SMDPad,CuDef*
G36*
X77600000Y-52020000D02*
G01*
X77600000Y-54520000D01*
X77400000Y-54520000D01*
X77400000Y-52020000D01*
X77600000Y-52020000D01*
G37*
G04 #@! TD.AperFunction*
G04 #@! TA.AperFunction,SMDPad,CuDef*
G36*
X78000000Y-52020000D02*
G01*
X78000000Y-54520000D01*
X77800000Y-54520000D01*
X77800000Y-52020000D01*
X78000000Y-52020000D01*
G37*
G04 #@! TD.AperFunction*
G04 #@! TA.AperFunction,SMDPad,CuDef*
G36*
X78400000Y-52020000D02*
G01*
X78400000Y-54520000D01*
X78200000Y-54520000D01*
X78200000Y-52020000D01*
X78400000Y-52020000D01*
G37*
G04 #@! TD.AperFunction*
G04 #@! TA.AperFunction,SMDPad,CuDef*
G36*
X78800000Y-52020000D02*
G01*
X78800000Y-54520000D01*
X78600000Y-54520000D01*
X78600000Y-52020000D01*
X78800000Y-52020000D01*
G37*
G04 #@! TD.AperFunction*
G04 #@! TA.AperFunction,SMDPad,CuDef*
G36*
X79200000Y-52020000D02*
G01*
X79200000Y-54520000D01*
X79000000Y-54520000D01*
X79000000Y-52020000D01*
X79200000Y-52020000D01*
G37*
G04 #@! TD.AperFunction*
G04 #@! TA.AperFunction,SMDPad,CuDef*
G36*
X79600000Y-52020000D02*
G01*
X79600000Y-54520000D01*
X79400000Y-54520000D01*
X79400000Y-52020000D01*
X79600000Y-52020000D01*
G37*
G04 #@! TD.AperFunction*
G04 #@! TA.AperFunction,SMDPad,CuDef*
G36*
X80000000Y-52020000D02*
G01*
X80000000Y-54520000D01*
X79800000Y-54520000D01*
X79800000Y-52020000D01*
X80000000Y-52020000D01*
G37*
G04 #@! TD.AperFunction*
D12*
X95830000Y-65240000D03*
D13*
X93290000Y-65240000D03*
X90750000Y-65240000D03*
X88210000Y-65240000D03*
X85670000Y-65240000D03*
X83130000Y-65240000D03*
X80590000Y-65240000D03*
X78050000Y-65240000D03*
X75510000Y-65240000D03*
X72970000Y-65240000D03*
X70430000Y-65240000D03*
X67890000Y-65240000D03*
X65350000Y-65240000D03*
X62810000Y-65240000D03*
X60270000Y-65240000D03*
D18*
X92800000Y-91930000D03*
X100050000Y-91930000D03*
X56050000Y-91930000D03*
X63300000Y-91930000D03*
D13*
X95830000Y-80610000D03*
X93290000Y-80610000D03*
X90750000Y-80610000D03*
X88210000Y-80610000D03*
X85670000Y-80610000D03*
X83130000Y-80610000D03*
X80590000Y-80610000D03*
X78050000Y-80610000D03*
X75510000Y-80610000D03*
X72970000Y-80610000D03*
X70430000Y-80610000D03*
X67890000Y-80610000D03*
X65350000Y-80610000D03*
X62810000Y-80610000D03*
D12*
X60270000Y-80610000D03*
D19*
X111950000Y-87330000D03*
X111950000Y-95730000D03*
D20*
X111950000Y-89530000D03*
X111950000Y-91530000D03*
X111950000Y-93530000D03*
D21*
X73950000Y-47930000D03*
X43090000Y-47930000D03*
X45630000Y-47930000D03*
X48170000Y-47930000D03*
X50710000Y-47930000D03*
X53250000Y-47930000D03*
X41820000Y-49200000D03*
X41820000Y-51740000D03*
X41820000Y-54280000D03*
X41820000Y-56820000D03*
X41820000Y-59360000D03*
X43090000Y-60630000D03*
X43090000Y-66980000D03*
X45630000Y-66980000D03*
X48170000Y-66980000D03*
X50710000Y-66980000D03*
X53250000Y-66980000D03*
X114210000Y-55550000D03*
X114210000Y-58090000D03*
X112940000Y-60630000D03*
X112940000Y-66980000D03*
X110400000Y-66980000D03*
X107860000Y-66980000D03*
X105320000Y-66980000D03*
X102780000Y-66980000D03*
X100050000Y-47930000D03*
X97700000Y-47930000D03*
X95160000Y-47930000D03*
X92620000Y-47930000D03*
X90080000Y-47930000D03*
X87540000Y-47930000D03*
X85000000Y-47930000D03*
X82460000Y-47930000D03*
X68490000Y-47930000D03*
X71030000Y-47930000D03*
X63410000Y-47930000D03*
X60870000Y-47930000D03*
X83550000Y-58680000D03*
X80950000Y-56330000D03*
X72950000Y-62730000D03*
X78800000Y-58680000D03*
X54520000Y-79680000D03*
X51980000Y-79680000D03*
X49440000Y-79680000D03*
X46900000Y-79680000D03*
X44360000Y-79680000D03*
X41820000Y-86030000D03*
X41820000Y-94920000D03*
X45630000Y-96825000D03*
X48170000Y-96825000D03*
X50710000Y-96825000D03*
X53250000Y-96825000D03*
X55790000Y-96825000D03*
X58330000Y-96825000D03*
X60870000Y-96825000D03*
X63410000Y-96825000D03*
X65950000Y-96825000D03*
X68490000Y-96825000D03*
X71030000Y-96825000D03*
X73570000Y-96825000D03*
X76110000Y-96825000D03*
X79920000Y-96825000D03*
X82460000Y-96825000D03*
X85000000Y-96825000D03*
X87540000Y-96825000D03*
X90080000Y-96825000D03*
X92620000Y-96825000D03*
X95160000Y-96825000D03*
X97700000Y-96825000D03*
X100240000Y-96825000D03*
X102780000Y-96825000D03*
X114210000Y-96825000D03*
X114210000Y-94285000D03*
X114210000Y-90475000D03*
X114210000Y-86030000D03*
X113575000Y-79045000D03*
X111035000Y-79045000D03*
X108495000Y-79045000D03*
X105955000Y-79045000D03*
X104050000Y-79045000D03*
X104685000Y-80315000D03*
X104050000Y-84760000D03*
X100875000Y-81585000D03*
X109130000Y-96825000D03*
X75150000Y-52680000D03*
X81300000Y-52680000D03*
X83450000Y-52730000D03*
X95850000Y-62830000D03*
X45400000Y-93248680D03*
X43940900Y-88635000D03*
X92874000Y-84760000D03*
X97700000Y-84760000D03*
X97700000Y-81458000D03*
X88150000Y-83930000D03*
X48644980Y-90919500D03*
X84550000Y-86730000D03*
X78150000Y-78130000D03*
X80550000Y-78130000D03*
X75350000Y-67530000D03*
X72950000Y-67530000D03*
X78150000Y-83130000D03*
X80550000Y-83130000D03*
X75350000Y-78130000D03*
X75350000Y-83130000D03*
X72950000Y-78130000D03*
X72950000Y-83130000D03*
X75350000Y-62730000D03*
X75150000Y-55330000D03*
X113550000Y-47930000D03*
X114250000Y-53030000D03*
X98050000Y-65230000D03*
X79100000Y-56306500D03*
X105015000Y-94730000D03*
X101950000Y-94730000D03*
X82350000Y-54730000D03*
X74789200Y-57124800D03*
X77227600Y-57124800D03*
X64934000Y-62027000D03*
X58450000Y-62030000D03*
X60150000Y-51905000D03*
X63350000Y-56330000D03*
D22*
X106844000Y-89967000D03*
D21*
X44106000Y-93523000D03*
X47916000Y-94920000D03*
D22*
X100671800Y-65227400D03*
X58550000Y-94920000D03*
X93050000Y-86665000D03*
D21*
X67982000Y-92380000D03*
X64050000Y-87930000D03*
X62050000Y-87930000D03*
X86950000Y-85316774D03*
X85950000Y-84730000D03*
X63981500Y-54216500D03*
X77100600Y-55423000D03*
D23*
X78299480Y-50583400D02*
X78299480Y-52174340D01*
X77900700Y-50576680D02*
X77900700Y-52167620D01*
X77500000Y-48590000D02*
X77500000Y-50175980D01*
X77500000Y-50175980D02*
X77900700Y-50576680D01*
X77900700Y-50576680D02*
X79884440Y-50576680D01*
X45150000Y-91180000D02*
X45650000Y-91680000D01*
X45150000Y-90930000D02*
X45150000Y-91180000D01*
D24*
X44650000Y-91430000D02*
X45150000Y-90930000D01*
X44650000Y-91680000D02*
X44650000Y-91430000D01*
X45150000Y-90680000D02*
X45650000Y-90180000D01*
X45150000Y-90930000D02*
X45150000Y-90680000D01*
X44650000Y-90430000D02*
X45150000Y-90930000D01*
X44650000Y-90180000D02*
X44650000Y-90430000D01*
X79900000Y-53270000D02*
X80770000Y-53270000D01*
X81300000Y-52740000D02*
X81300000Y-52680000D01*
X80770000Y-53270000D02*
X81300000Y-52740000D01*
X76300000Y-53270000D02*
X75770000Y-53270000D01*
X75180000Y-52680000D02*
X75150000Y-52680000D01*
X75770000Y-53270000D02*
X75180000Y-52680000D01*
X75150000Y-53890000D02*
X75770000Y-53270000D01*
X75150000Y-55330000D02*
X75150000Y-53890000D01*
X79900000Y-48590000D02*
X82090000Y-48590000D01*
X82460000Y-48220000D02*
X82460000Y-47930000D01*
X82090000Y-48590000D02*
X82460000Y-48220000D01*
X73950000Y-47930000D02*
X74830000Y-47930000D01*
X75490000Y-48590000D02*
X76300000Y-48590000D01*
X74830000Y-47930000D02*
X75490000Y-48590000D01*
D23*
X79100000Y-56306500D02*
X79100000Y-56306500D01*
X79100000Y-53270000D02*
X79100000Y-56306500D01*
X79100000Y-56306500D02*
X79094500Y-56312000D01*
X78700000Y-53270000D02*
X78700000Y-51690000D01*
X78700000Y-51690000D02*
X79056400Y-51333600D01*
X105015000Y-94730000D02*
X101950000Y-94730000D01*
X79056400Y-51333600D02*
X81353600Y-51333600D01*
X82350000Y-52330000D02*
X82350000Y-54730000D01*
X81353600Y-51333600D02*
X82350000Y-52330000D01*
X76700000Y-48590000D02*
X76700000Y-50235600D01*
X76700000Y-50235600D02*
X76059200Y-50876400D01*
X76059200Y-50876400D02*
X74509800Y-50876400D01*
X88764800Y-57124800D02*
X86143000Y-57124800D01*
X95830000Y-65240000D02*
X95830000Y-64190000D01*
X95830000Y-64190000D02*
X88764800Y-57124800D01*
X74509800Y-50876400D02*
X73747800Y-51638400D01*
X73747800Y-56083400D02*
X74789200Y-57124800D01*
X73747800Y-51638400D02*
X73747800Y-56083400D01*
X86143000Y-57124800D02*
X77227600Y-57124800D01*
X75881400Y-57124800D02*
X75881400Y-57150200D01*
X77100000Y-50648400D02*
X76110000Y-51638400D01*
X77100000Y-48590000D02*
X77100000Y-50648400D01*
X76110000Y-51638400D02*
X74941600Y-51638400D01*
X74941600Y-51638400D02*
X74408200Y-52171800D01*
X74408200Y-52171800D02*
X74408200Y-55651600D01*
X74408200Y-55651600D02*
X75881400Y-57124800D01*
X93290000Y-62670000D02*
X93290000Y-65240000D01*
X88297201Y-57677201D02*
X93290000Y-62670000D01*
X75881400Y-57124800D02*
X76433801Y-57677201D01*
X76433801Y-57677201D02*
X88297201Y-57677201D01*
X72970000Y-65240000D02*
X69757000Y-62027000D01*
X69757000Y-62027000D02*
X64934000Y-62027000D01*
X52350000Y-55930000D02*
X50250000Y-55930000D01*
X58450000Y-62030000D02*
X52350000Y-55930000D01*
X60150000Y-65120000D02*
X60270000Y-65240000D01*
X60150000Y-52354264D02*
X60150000Y-65120000D01*
X60150000Y-52354264D02*
X60150000Y-51905000D01*
X62810000Y-63459000D02*
X62810000Y-65240000D01*
X62810000Y-63459000D02*
X62810000Y-61670000D01*
X62810000Y-61670000D02*
X63350000Y-61130000D01*
X63350000Y-61130000D02*
X63350000Y-56330000D01*
D25*
X106844000Y-89967000D02*
X103542000Y-86665000D01*
X67982000Y-92380000D02*
X65442000Y-94920000D01*
X45503000Y-94920000D02*
X44106000Y-93523000D01*
X47916000Y-94920000D02*
X45503000Y-94920000D01*
D26*
X99122400Y-80137200D02*
X99122400Y-86665000D01*
X88302000Y-78143310D02*
X88975090Y-78816400D01*
X88975090Y-78816400D02*
X97801600Y-78816400D01*
D25*
X103542000Y-86665000D02*
X99122400Y-86665000D01*
D26*
X100671800Y-65227400D02*
X98766800Y-67132400D01*
X98766800Y-67132400D02*
X88880420Y-67132400D01*
X97801600Y-78816400D02*
X99122400Y-80137200D01*
X88880420Y-67132400D02*
X88302000Y-67710820D01*
X88302000Y-67710820D02*
X88302000Y-78143310D01*
D25*
X65442000Y-94920000D02*
X58550000Y-94920000D01*
X58550000Y-94920000D02*
X47916000Y-94920000D01*
X99122400Y-86665000D02*
X93050000Y-86665000D01*
X69506000Y-90856000D02*
X67982000Y-92380000D01*
X82841000Y-90856000D02*
X69506000Y-90856000D01*
X93050000Y-86665000D02*
X87032000Y-86665000D01*
X87032000Y-86665000D02*
X82841000Y-90856000D01*
D23*
X69150400Y-66002018D02*
X69150400Y-64287600D01*
X65350000Y-64037919D02*
X65350000Y-65240000D01*
X72702410Y-69554028D02*
X69150400Y-66002018D01*
X72702410Y-77075973D02*
X72702410Y-69554028D01*
X71750000Y-78028382D02*
X72702410Y-77075973D01*
X65811519Y-63576400D02*
X65350000Y-64037919D01*
X71750000Y-81130000D02*
X71750000Y-78028382D01*
X64050000Y-87930000D02*
X64050000Y-83930000D01*
X64050000Y-83930000D02*
X64650000Y-83330000D01*
X68439200Y-63576400D02*
X65811519Y-63576400D01*
X64650000Y-83330000D02*
X68350000Y-83330000D01*
X68350000Y-83330000D02*
X69550000Y-82130000D01*
X69150400Y-64287600D02*
X68439200Y-63576400D01*
X69550000Y-82130000D02*
X70750000Y-82130000D01*
X70750000Y-82130000D02*
X71750000Y-81130000D01*
X62050000Y-84430000D02*
X62050000Y-87930000D01*
X63550000Y-82930000D02*
X62050000Y-84430000D01*
X69150000Y-80130000D02*
X69150000Y-81730000D01*
X69150000Y-81730000D02*
X67950000Y-82930000D01*
X67950000Y-82930000D02*
X63550000Y-82930000D01*
X67890000Y-65240000D02*
X72350000Y-69700000D01*
X72350000Y-76930000D02*
X69150000Y-80130000D01*
X72350000Y-69700000D02*
X72350000Y-76930000D01*
X79540000Y-66730000D02*
X78050000Y-65240000D01*
X83550000Y-70730000D02*
X79550000Y-66730000D01*
X86950000Y-83730000D02*
X86950000Y-79730000D01*
X86950000Y-79730000D02*
X86350000Y-79130000D01*
X79550000Y-66730000D02*
X79540000Y-66730000D01*
X86350000Y-79130000D02*
X86048382Y-79130000D01*
X86048382Y-79130000D02*
X83550000Y-76631618D01*
X83550000Y-76631618D02*
X83550000Y-70730000D01*
X86950000Y-83730000D02*
X86950000Y-85316774D01*
X86950000Y-85316774D02*
X86949235Y-85317539D01*
X75510000Y-65240000D02*
X77000000Y-66730000D01*
X77000000Y-66730000D02*
X78950000Y-66730000D01*
X78950000Y-66730000D02*
X83150000Y-70930000D01*
X83150000Y-70930000D02*
X83150000Y-76730000D01*
X83150000Y-76730000D02*
X84350000Y-77930000D01*
X84350000Y-80921554D02*
X85750000Y-82321554D01*
X84350000Y-77930000D02*
X84350000Y-80921554D01*
X85750000Y-82321554D02*
X85750000Y-84530000D01*
X85750000Y-84530000D02*
X85950000Y-84730000D01*
X64108500Y-54343500D02*
X63981500Y-54216500D01*
X64108500Y-65900500D02*
X64108500Y-54343500D01*
X64997500Y-66789500D02*
X64108500Y-65900500D01*
X67893100Y-66789500D02*
X67016800Y-66789500D01*
X69048800Y-77800400D02*
X69048800Y-67945200D01*
X67156500Y-66789500D02*
X67016800Y-66789500D01*
X69048800Y-67945200D02*
X67893100Y-66789500D01*
X60270000Y-80610000D02*
X60270000Y-79560000D01*
X67016800Y-66789500D02*
X64997500Y-66789500D01*
X60270000Y-79560000D02*
X60531000Y-79299000D01*
X60531000Y-79299000D02*
X67550200Y-79299000D01*
X67550200Y-79299000D02*
X69048800Y-77800400D01*
X77100600Y-53270600D02*
X77100000Y-53270000D01*
X77100600Y-55423000D02*
X77100600Y-53270600D01*
G36*
X75589059Y-48436000D02*
G01*
X76198065Y-48436000D01*
X76198065Y-48744000D01*
X75589059Y-48744000D01*
X75589059Y-49840000D01*
X75600798Y-49959189D01*
X75635564Y-50073797D01*
X75692021Y-50179421D01*
X75767999Y-50272001D01*
X75860579Y-50347979D01*
X75873571Y-50354923D01*
X75852095Y-50376400D01*
X74534360Y-50376400D01*
X74509800Y-50373981D01*
X74485240Y-50376400D01*
X74411783Y-50383635D01*
X74317533Y-50412225D01*
X74230671Y-50458654D01*
X74154536Y-50521136D01*
X74138880Y-50540213D01*
X73411624Y-51267471D01*
X73392536Y-51283136D01*
X73330054Y-51359271D01*
X73283625Y-51446134D01*
X73276957Y-51468116D01*
X73255035Y-51540383D01*
X73245381Y-51638400D01*
X73247800Y-51662960D01*
X73247801Y-56058830D01*
X73245381Y-56083400D01*
X73255035Y-56181417D01*
X73272065Y-56237556D01*
X73283626Y-56275667D01*
X73330055Y-56362529D01*
X73392537Y-56438664D01*
X73411619Y-56454324D01*
X74089200Y-57131906D01*
X74089200Y-57193744D01*
X74116101Y-57328982D01*
X74168868Y-57456374D01*
X74245474Y-57571024D01*
X74342976Y-57668526D01*
X74457626Y-57745132D01*
X74585018Y-57797899D01*
X74720256Y-57824800D01*
X74858144Y-57824800D01*
X74993382Y-57797899D01*
X75120774Y-57745132D01*
X75235424Y-57668526D01*
X75332926Y-57571024D01*
X75409532Y-57456374D01*
X75437748Y-57388255D01*
X75446237Y-57396743D01*
X75463654Y-57429329D01*
X75526136Y-57505464D01*
X75602271Y-57567946D01*
X75634860Y-57585365D01*
X76062876Y-58013382D01*
X76078537Y-58032465D01*
X76154672Y-58094947D01*
X76241534Y-58141376D01*
X76307193Y-58161293D01*
X76335783Y-58169966D01*
X76433801Y-58179620D01*
X76458361Y-58177201D01*
X88090096Y-58177201D01*
X92790000Y-62877106D01*
X92790001Y-64094117D01*
X92697903Y-64132265D01*
X92493172Y-64269062D01*
X92319062Y-64443172D01*
X92182265Y-64647903D01*
X92088037Y-64875389D01*
X92040000Y-65116886D01*
X92040000Y-65363114D01*
X92088037Y-65604611D01*
X92182265Y-65832097D01*
X92319062Y-66036828D01*
X92493172Y-66210938D01*
X92674953Y-66332400D01*
X91365047Y-66332400D01*
X91546828Y-66210938D01*
X91720938Y-66036828D01*
X91857735Y-65832097D01*
X91951963Y-65604611D01*
X92000000Y-65363114D01*
X92000000Y-65116886D01*
X91951963Y-64875389D01*
X91857735Y-64647903D01*
X91720938Y-64443172D01*
X91546828Y-64269062D01*
X91342097Y-64132265D01*
X91114611Y-64038037D01*
X90873114Y-63990000D01*
X90626886Y-63990000D01*
X90385389Y-64038037D01*
X90157903Y-64132265D01*
X89953172Y-64269062D01*
X89779062Y-64443172D01*
X89642265Y-64647903D01*
X89587412Y-64780330D01*
X89516935Y-64593700D01*
X89365736Y-64351148D01*
X89170122Y-64142754D01*
X88937611Y-63976527D01*
X88677139Y-63858854D01*
X88588910Y-63832097D01*
X88364000Y-63943111D01*
X88364000Y-65086000D01*
X88384000Y-65086000D01*
X88384000Y-65394000D01*
X88364000Y-65394000D01*
X88364000Y-65414000D01*
X88056000Y-65414000D01*
X88056000Y-65394000D01*
X88036000Y-65394000D01*
X88036000Y-65086000D01*
X88056000Y-65086000D01*
X88056000Y-63943111D01*
X87831090Y-63832097D01*
X87742861Y-63858854D01*
X87482389Y-63976527D01*
X87249878Y-64142754D01*
X87054264Y-64351148D01*
X86903065Y-64593700D01*
X86832588Y-64780330D01*
X86777735Y-64647903D01*
X86640938Y-64443172D01*
X86466828Y-64269062D01*
X86262097Y-64132265D01*
X86034611Y-64038037D01*
X85793114Y-63990000D01*
X85546886Y-63990000D01*
X85305389Y-64038037D01*
X85077903Y-64132265D01*
X84873172Y-64269062D01*
X84699062Y-64443172D01*
X84562265Y-64647903D01*
X84468037Y-64875389D01*
X84420000Y-65116886D01*
X84420000Y-65363114D01*
X84468037Y-65604611D01*
X84562265Y-65832097D01*
X84699062Y-66036828D01*
X84873172Y-66210938D01*
X85077903Y-66347735D01*
X85305389Y-66441963D01*
X85546886Y-66490000D01*
X85793114Y-66490000D01*
X86034611Y-66441963D01*
X86262097Y-66347735D01*
X86466828Y-66210938D01*
X86640938Y-66036828D01*
X86777735Y-65832097D01*
X86832588Y-65699670D01*
X86903065Y-65886300D01*
X87054264Y-66128852D01*
X87249878Y-66337246D01*
X87482389Y-66503473D01*
X87742861Y-66621146D01*
X87831090Y-66647903D01*
X88055998Y-66536890D01*
X88055998Y-66698000D01*
X88183449Y-66698000D01*
X87764103Y-67117347D01*
X87733578Y-67142398D01*
X87679151Y-67208719D01*
X87633607Y-67264214D01*
X87559322Y-67403192D01*
X87559321Y-67403193D01*
X87513576Y-67553994D01*
X87502121Y-67670302D01*
X87498130Y-67710820D01*
X87502000Y-67750111D01*
X87502001Y-78104009D01*
X87498130Y-78143310D01*
X87513577Y-78300137D01*
X87559321Y-78450937D01*
X87633607Y-78589916D01*
X87695904Y-78665825D01*
X87733579Y-78711732D01*
X87764098Y-78736778D01*
X88381620Y-79354301D01*
X88396673Y-79372643D01*
X88333114Y-79360000D01*
X88086886Y-79360000D01*
X87845389Y-79408037D01*
X87617903Y-79502265D01*
X87439563Y-79621428D01*
X87414175Y-79537733D01*
X87367746Y-79450871D01*
X87305264Y-79374736D01*
X87286181Y-79359075D01*
X86720929Y-78793824D01*
X86705264Y-78774736D01*
X86629129Y-78712254D01*
X86542267Y-78665825D01*
X86448017Y-78637235D01*
X86374560Y-78630000D01*
X86350000Y-78627581D01*
X86325440Y-78630000D01*
X86255489Y-78630000D01*
X84050000Y-76424513D01*
X84050000Y-74191405D01*
X84068087Y-74375043D01*
X84139563Y-74610669D01*
X84255634Y-74827823D01*
X84411840Y-75018160D01*
X84602177Y-75174366D01*
X84819331Y-75290437D01*
X85054957Y-75361913D01*
X85238595Y-75380000D01*
X85661405Y-75380000D01*
X85845043Y-75361913D01*
X86080669Y-75290437D01*
X86297823Y-75174366D01*
X86488160Y-75018160D01*
X86644366Y-74827823D01*
X86760437Y-74610669D01*
X86831913Y-74375043D01*
X86856048Y-74130000D01*
X86831913Y-73884957D01*
X86760437Y-73649331D01*
X86644366Y-73432177D01*
X86488160Y-73241840D01*
X86297823Y-73085634D01*
X86080669Y-72969563D01*
X85845043Y-72898087D01*
X85681051Y-72881935D01*
X86450000Y-72881935D01*
X86528414Y-72874212D01*
X86603814Y-72851340D01*
X86673303Y-72814197D01*
X86734211Y-72764211D01*
X86784197Y-72703303D01*
X86821340Y-72633814D01*
X86844212Y-72558414D01*
X86851935Y-72480000D01*
X86851935Y-70780000D01*
X86844212Y-70701586D01*
X86821340Y-70626186D01*
X86784197Y-70556697D01*
X86734211Y-70495789D01*
X86673303Y-70445803D01*
X86603814Y-70408660D01*
X86528414Y-70385788D01*
X86450000Y-70378065D01*
X84450000Y-70378065D01*
X84371586Y-70385788D01*
X84296186Y-70408660D01*
X84226697Y-70445803D01*
X84165789Y-70495789D01*
X84115803Y-70556697D01*
X84078660Y-70626186D01*
X84055788Y-70701586D01*
X84050000Y-70760353D01*
X84050000Y-70754549D01*
X84052418Y-70729999D01*
X84050000Y-70705449D01*
X84050000Y-70705440D01*
X84042765Y-70631983D01*
X84014175Y-70537733D01*
X83967746Y-70450871D01*
X83905264Y-70374736D01*
X83886187Y-70359080D01*
X79920929Y-66393824D01*
X79905264Y-66374736D01*
X79830417Y-66313311D01*
X79213815Y-65696709D01*
X79251963Y-65604611D01*
X79300000Y-65363114D01*
X79300000Y-65116886D01*
X79340000Y-65116886D01*
X79340000Y-65363114D01*
X79388037Y-65604611D01*
X79482265Y-65832097D01*
X79619062Y-66036828D01*
X79793172Y-66210938D01*
X79997903Y-66347735D01*
X80225389Y-66441963D01*
X80466886Y-66490000D01*
X80713114Y-66490000D01*
X80954611Y-66441963D01*
X81182097Y-66347735D01*
X81386828Y-66210938D01*
X81560938Y-66036828D01*
X81697735Y-65832097D01*
X81791963Y-65604611D01*
X81840000Y-65363114D01*
X81840000Y-65116886D01*
X81880000Y-65116886D01*
X81880000Y-65363114D01*
X81928037Y-65604611D01*
X82022265Y-65832097D01*
X82159062Y-66036828D01*
X82333172Y-66210938D01*
X82537903Y-66347735D01*
X82765389Y-66441963D01*
X83006886Y-66490000D01*
X83253114Y-66490000D01*
X83494611Y-66441963D01*
X83722097Y-66347735D01*
X83926828Y-66210938D01*
X84100938Y-66036828D01*
X84237735Y-65832097D01*
X84331963Y-65604611D01*
X84380000Y-65363114D01*
X84380000Y-65116886D01*
X84331963Y-64875389D01*
X84237735Y-64647903D01*
X84100938Y-64443172D01*
X83926828Y-64269062D01*
X83722097Y-64132265D01*
X83494611Y-64038037D01*
X83253114Y-63990000D01*
X83006886Y-63990000D01*
X82765389Y-64038037D01*
X82537903Y-64132265D01*
X82333172Y-64269062D01*
X82159062Y-64443172D01*
X82022265Y-64647903D01*
X81928037Y-64875389D01*
X81880000Y-65116886D01*
X81840000Y-65116886D01*
X81791963Y-64875389D01*
X81697735Y-64647903D01*
X81560938Y-64443172D01*
X81386828Y-64269062D01*
X81182097Y-64132265D01*
X80954611Y-64038037D01*
X80713114Y-63990000D01*
X80466886Y-63990000D01*
X80225389Y-64038037D01*
X79997903Y-64132265D01*
X79793172Y-64269062D01*
X79619062Y-64443172D01*
X79482265Y-64647903D01*
X79388037Y-64875389D01*
X79340000Y-65116886D01*
X79300000Y-65116886D01*
X79251963Y-64875389D01*
X79157735Y-64647903D01*
X79020938Y-64443172D01*
X78846828Y-64269062D01*
X78642097Y-64132265D01*
X78414611Y-64038037D01*
X78173114Y-63990000D01*
X77926886Y-63990000D01*
X77685389Y-64038037D01*
X77457903Y-64132265D01*
X77253172Y-64269062D01*
X77079062Y-64443172D01*
X76942265Y-64647903D01*
X76848037Y-64875389D01*
X76800000Y-65116886D01*
X76800000Y-65363114D01*
X76848037Y-65604611D01*
X76942265Y-65832097D01*
X77079062Y-66036828D01*
X77253172Y-66210938D01*
X77281700Y-66230000D01*
X77207106Y-66230000D01*
X76673815Y-65696709D01*
X76711963Y-65604611D01*
X76760000Y-65363114D01*
X76760000Y-65116886D01*
X76711963Y-64875389D01*
X76617735Y-64647903D01*
X76480938Y-64443172D01*
X76306828Y-64269062D01*
X76102097Y-64132265D01*
X75874611Y-64038037D01*
X75633114Y-63990000D01*
X75386886Y-63990000D01*
X75145389Y-64038037D01*
X74917903Y-64132265D01*
X74713172Y-64269062D01*
X74539062Y-64443172D01*
X74402265Y-64647903D01*
X74308037Y-64875389D01*
X74260000Y-65116886D01*
X74260000Y-65363114D01*
X74308037Y-65604611D01*
X74402265Y-65832097D01*
X74539062Y-66036828D01*
X74713172Y-66210938D01*
X74917903Y-66347735D01*
X75145389Y-66441963D01*
X75386886Y-66490000D01*
X75633114Y-66490000D01*
X75874611Y-66441963D01*
X75966709Y-66403815D01*
X76629075Y-67066181D01*
X76644736Y-67085264D01*
X76720871Y-67147746D01*
X76807733Y-67194175D01*
X76901983Y-67222765D01*
X76975440Y-67230000D01*
X76975441Y-67230000D01*
X76999999Y-67232419D01*
X77024557Y-67230000D01*
X78742895Y-67230000D01*
X82650000Y-71137106D01*
X82650001Y-76705430D01*
X82647581Y-76730000D01*
X82657235Y-76828017D01*
X82682331Y-76910746D01*
X82685826Y-76922267D01*
X82732255Y-77009129D01*
X82794737Y-77085264D01*
X82813819Y-77100924D01*
X83850000Y-78137107D01*
X83850001Y-79587727D01*
X83722097Y-79502265D01*
X83494611Y-79408037D01*
X83253114Y-79360000D01*
X83006886Y-79360000D01*
X82765389Y-79408037D01*
X82537903Y-79502265D01*
X82333172Y-79639062D01*
X82159062Y-79813172D01*
X82022265Y-80017903D01*
X81928037Y-80245389D01*
X81880000Y-80486886D01*
X81880000Y-80733114D01*
X81928037Y-80974611D01*
X82022265Y-81202097D01*
X82159062Y-81406828D01*
X82333172Y-81580938D01*
X82537903Y-81717735D01*
X82765389Y-81811963D01*
X83006886Y-81860000D01*
X83253114Y-81860000D01*
X83494611Y-81811963D01*
X83722097Y-81717735D01*
X83926828Y-81580938D01*
X84100938Y-81406828D01*
X84111845Y-81390504D01*
X85250000Y-82528660D01*
X85250001Y-84505430D01*
X85247581Y-84530000D01*
X85257015Y-84625788D01*
X85250000Y-84661056D01*
X85250000Y-84798944D01*
X85276901Y-84934182D01*
X85329668Y-85061574D01*
X85406274Y-85176224D01*
X85503776Y-85273726D01*
X85618426Y-85350332D01*
X85745818Y-85403099D01*
X85881056Y-85430000D01*
X86018944Y-85430000D01*
X86154182Y-85403099D01*
X86250000Y-85363410D01*
X86250000Y-85385718D01*
X86276901Y-85520956D01*
X86329668Y-85648348D01*
X86375131Y-85716389D01*
X86214893Y-85847893D01*
X86178880Y-85891775D01*
X82364656Y-89706000D01*
X69562481Y-89706000D01*
X69505999Y-89700437D01*
X69449517Y-89706000D01*
X69449508Y-89706000D01*
X69280561Y-89722640D01*
X69063785Y-89788398D01*
X68864003Y-89895184D01*
X68826676Y-89925817D01*
X68732772Y-90002882D01*
X68732769Y-90002885D01*
X68688893Y-90038893D01*
X68652884Y-90082770D01*
X67208783Y-91526873D01*
X67208772Y-91526882D01*
X64965656Y-93770000D01*
X64648098Y-93770000D01*
X64884033Y-93523631D01*
X65096217Y-93190705D01*
X65239373Y-92822782D01*
X65308000Y-92434000D01*
X65308000Y-92084000D01*
X63454000Y-92084000D01*
X63454000Y-92104000D01*
X63146000Y-92104000D01*
X63146000Y-92084000D01*
X61292000Y-92084000D01*
X61292000Y-92434000D01*
X61360627Y-92822782D01*
X61503783Y-93190705D01*
X61715967Y-93523631D01*
X61951902Y-93770000D01*
X57398098Y-93770000D01*
X57634033Y-93523631D01*
X57846217Y-93190705D01*
X57989373Y-92822782D01*
X58058000Y-92434000D01*
X58058000Y-92084000D01*
X56204000Y-92084000D01*
X56204000Y-92104000D01*
X55896000Y-92104000D01*
X55896000Y-92084000D01*
X54042000Y-92084000D01*
X54042000Y-92434000D01*
X54110627Y-92822782D01*
X54253783Y-93190705D01*
X54465967Y-93523631D01*
X54701902Y-93770000D01*
X45979345Y-93770000D01*
X44995672Y-92786328D01*
X44996000Y-92786000D01*
X44996000Y-92522097D01*
X45054008Y-92498070D01*
X45062651Y-92382287D01*
X45114078Y-92433714D01*
X45150000Y-92397792D01*
X45185922Y-92433714D01*
X45237349Y-92382287D01*
X45245992Y-92498070D01*
X45304000Y-92519940D01*
X45304000Y-92786000D01*
X45456000Y-92938000D01*
X46300000Y-92940942D01*
X46419189Y-92929203D01*
X46533797Y-92894437D01*
X46639421Y-92837980D01*
X46732001Y-92762001D01*
X46807980Y-92669421D01*
X46864437Y-92563797D01*
X46899203Y-92449189D01*
X46910942Y-92330000D01*
X46908511Y-91426000D01*
X54042000Y-91426000D01*
X54042000Y-91776000D01*
X55896000Y-91776000D01*
X55896000Y-89730400D01*
X56204000Y-89730400D01*
X56204000Y-91776000D01*
X58058000Y-91776000D01*
X58058000Y-91426000D01*
X61292000Y-91426000D01*
X61292000Y-91776000D01*
X63146000Y-91776000D01*
X63146000Y-89730400D01*
X63454000Y-89730400D01*
X63454000Y-91776000D01*
X65308000Y-91776000D01*
X65308000Y-91426000D01*
X65239373Y-91037218D01*
X65096217Y-90669295D01*
X64884033Y-90336369D01*
X64610976Y-90051236D01*
X64287539Y-89824852D01*
X63926151Y-89665917D01*
X63765299Y-89626654D01*
X63454000Y-89730400D01*
X63146000Y-89730400D01*
X62834701Y-89626654D01*
X62673849Y-89665917D01*
X62312461Y-89824852D01*
X61989024Y-90051236D01*
X61715967Y-90336369D01*
X61503783Y-90669295D01*
X61360627Y-91037218D01*
X61292000Y-91426000D01*
X58058000Y-91426000D01*
X57989373Y-91037218D01*
X57846217Y-90669295D01*
X57634033Y-90336369D01*
X57360976Y-90051236D01*
X57037539Y-89824852D01*
X56676151Y-89665917D01*
X56515299Y-89626654D01*
X56204000Y-89730400D01*
X55896000Y-89730400D01*
X55584701Y-89626654D01*
X55423849Y-89665917D01*
X55062461Y-89824852D01*
X54739024Y-90051236D01*
X54465967Y-90336369D01*
X54253783Y-90669295D01*
X54110627Y-91037218D01*
X54042000Y-91426000D01*
X46908511Y-91426000D01*
X46908000Y-91236000D01*
X46756000Y-91084000D01*
X46044861Y-91084000D01*
X46048168Y-91064043D01*
X46067642Y-91044569D01*
X46059089Y-90930000D01*
X46067642Y-90815431D01*
X46051932Y-90799721D01*
X46046415Y-90776000D01*
X46756000Y-90776000D01*
X46908000Y-90624000D01*
X46910942Y-89530000D01*
X46899203Y-89410811D01*
X46864437Y-89296203D01*
X46807980Y-89190579D01*
X46732001Y-89097999D01*
X46639421Y-89022020D01*
X46533797Y-88965563D01*
X46419189Y-88930797D01*
X46300000Y-88919058D01*
X45456000Y-88922000D01*
X45304000Y-89074000D01*
X45304000Y-89337903D01*
X45245992Y-89361930D01*
X45237349Y-89477713D01*
X45185922Y-89426286D01*
X45150000Y-89462208D01*
X45114078Y-89426286D01*
X45062651Y-89477713D01*
X45054008Y-89361930D01*
X44996000Y-89340060D01*
X44996000Y-89074000D01*
X44844000Y-88922000D01*
X44000000Y-88919058D01*
X43880811Y-88930797D01*
X43766203Y-88965563D01*
X43660579Y-89022020D01*
X43567999Y-89097999D01*
X43492020Y-89190579D01*
X43435563Y-89296203D01*
X43400797Y-89410811D01*
X43389058Y-89530000D01*
X43392000Y-90624000D01*
X43544000Y-90776000D01*
X44255139Y-90776000D01*
X44251832Y-90795957D01*
X44232358Y-90815431D01*
X44240911Y-90930000D01*
X44232358Y-91044569D01*
X44248068Y-91060279D01*
X44253585Y-91084000D01*
X43544000Y-91084000D01*
X43392000Y-91236000D01*
X43389058Y-92330000D01*
X43400797Y-92449189D01*
X43435563Y-92563797D01*
X43443636Y-92578900D01*
X43288893Y-92705893D01*
X43145185Y-92881003D01*
X43038399Y-93080785D01*
X42972641Y-93297561D01*
X42950437Y-93523000D01*
X42972641Y-93748439D01*
X43038399Y-93965215D01*
X43145185Y-94164997D01*
X43252882Y-94296226D01*
X44649884Y-95693230D01*
X44685893Y-95737107D01*
X44729769Y-95773115D01*
X44729772Y-95773118D01*
X44778689Y-95813263D01*
X44861003Y-95880816D01*
X45060785Y-95987602D01*
X45277561Y-96053360D01*
X45446508Y-96070000D01*
X45446517Y-96070000D01*
X45502999Y-96075563D01*
X45559481Y-96070000D01*
X65385518Y-96070000D01*
X65442000Y-96075563D01*
X65498482Y-96070000D01*
X65498492Y-96070000D01*
X65667439Y-96053360D01*
X65884215Y-95987602D01*
X66083997Y-95880816D01*
X66259107Y-95737107D01*
X66295124Y-95693220D01*
X66712231Y-95276113D01*
X76487560Y-95276113D01*
X76487560Y-95583887D01*
X76547604Y-95885747D01*
X76665384Y-96170093D01*
X76836374Y-96425997D01*
X77054003Y-96643626D01*
X77309907Y-96814616D01*
X77594253Y-96932396D01*
X77896113Y-96992440D01*
X78203887Y-96992440D01*
X78505747Y-96932396D01*
X78790093Y-96814616D01*
X79045997Y-96643626D01*
X79263626Y-96425997D01*
X79434616Y-96170093D01*
X79552396Y-95885747D01*
X79583376Y-95730000D01*
X110043226Y-95730000D01*
X110070257Y-96004448D01*
X110150310Y-96268349D01*
X110280310Y-96511562D01*
X110455261Y-96724739D01*
X110668438Y-96899690D01*
X110911651Y-97029690D01*
X111175552Y-97109743D01*
X111381223Y-97130000D01*
X112518777Y-97130000D01*
X112724448Y-97109743D01*
X112988349Y-97029690D01*
X113231562Y-96899690D01*
X113444739Y-96724739D01*
X113619690Y-96511562D01*
X113749690Y-96268349D01*
X113829743Y-96004448D01*
X113856774Y-95730000D01*
X113829743Y-95455552D01*
X113749690Y-95191651D01*
X113619690Y-94948438D01*
X113444739Y-94735261D01*
X113231562Y-94560310D01*
X112988349Y-94430310D01*
X112959457Y-94421546D01*
X112986171Y-94407267D01*
X113146054Y-94276054D01*
X113277267Y-94116171D01*
X113374767Y-93933762D01*
X113434807Y-93735836D01*
X113455080Y-93530000D01*
X113434807Y-93324164D01*
X113374767Y-93126238D01*
X113277267Y-92943829D01*
X113146054Y-92783946D01*
X112986171Y-92652733D01*
X112803762Y-92555233D01*
X112720580Y-92530000D01*
X112803762Y-92504767D01*
X112986171Y-92407267D01*
X113146054Y-92276054D01*
X113277267Y-92116171D01*
X113374767Y-91933762D01*
X113434807Y-91735836D01*
X113455080Y-91530000D01*
X113434807Y-91324164D01*
X113374767Y-91126238D01*
X113277267Y-90943829D01*
X113146054Y-90783946D01*
X112986171Y-90652733D01*
X112983269Y-90651182D01*
X113023694Y-90633307D01*
X113226954Y-90490431D01*
X113398435Y-90310646D01*
X113531547Y-90100861D01*
X113609076Y-89877418D01*
X113495226Y-89684000D01*
X112104000Y-89684000D01*
X112104000Y-89704000D01*
X111796000Y-89704000D01*
X111796000Y-89684000D01*
X110404774Y-89684000D01*
X110290924Y-89877418D01*
X110368453Y-90100861D01*
X110501565Y-90310646D01*
X110673046Y-90490431D01*
X110876306Y-90633307D01*
X110916731Y-90651182D01*
X110913829Y-90652733D01*
X110753946Y-90783946D01*
X110622733Y-90943829D01*
X110525233Y-91126238D01*
X110465193Y-91324164D01*
X110444920Y-91530000D01*
X110465193Y-91735836D01*
X110525233Y-91933762D01*
X110622733Y-92116171D01*
X110753946Y-92276054D01*
X110913829Y-92407267D01*
X111096238Y-92504767D01*
X111179420Y-92530000D01*
X111096238Y-92555233D01*
X110913829Y-92652733D01*
X110753946Y-92783946D01*
X110622733Y-92943829D01*
X110525233Y-93126238D01*
X110465193Y-93324164D01*
X110444920Y-93530000D01*
X110465193Y-93735836D01*
X110525233Y-93933762D01*
X110622733Y-94116171D01*
X110753946Y-94276054D01*
X110913829Y-94407267D01*
X110940543Y-94421546D01*
X110911651Y-94430310D01*
X110668438Y-94560310D01*
X110455261Y-94735261D01*
X110280310Y-94948438D01*
X110150310Y-95191651D01*
X110070257Y-95455552D01*
X110043226Y-95730000D01*
X79583376Y-95730000D01*
X79612440Y-95583887D01*
X79612440Y-95276113D01*
X79552396Y-94974253D01*
X79434616Y-94689907D01*
X79415339Y-94661056D01*
X101250000Y-94661056D01*
X101250000Y-94798944D01*
X101276901Y-94934182D01*
X101329668Y-95061574D01*
X101406274Y-95176224D01*
X101503776Y-95273726D01*
X101618426Y-95350332D01*
X101745818Y-95403099D01*
X101881056Y-95430000D01*
X102018944Y-95430000D01*
X102154182Y-95403099D01*
X102281574Y-95350332D01*
X102396224Y-95273726D01*
X102439950Y-95230000D01*
X104525050Y-95230000D01*
X104568776Y-95273726D01*
X104683426Y-95350332D01*
X104810818Y-95403099D01*
X104946056Y-95430000D01*
X105083944Y-95430000D01*
X105219182Y-95403099D01*
X105346574Y-95350332D01*
X105461224Y-95273726D01*
X105558726Y-95176224D01*
X105635332Y-95061574D01*
X105688099Y-94934182D01*
X105715000Y-94798944D01*
X105715000Y-94661056D01*
X105688099Y-94525818D01*
X105635332Y-94398426D01*
X105558726Y-94283776D01*
X105461224Y-94186274D01*
X105346574Y-94109668D01*
X105219182Y-94056901D01*
X105083944Y-94030000D01*
X104946056Y-94030000D01*
X104810818Y-94056901D01*
X104683426Y-94109668D01*
X104568776Y-94186274D01*
X104525050Y-94230000D01*
X102439950Y-94230000D01*
X102396224Y-94186274D01*
X102281574Y-94109668D01*
X102154182Y-94056901D01*
X102018944Y-94030000D01*
X101881056Y-94030000D01*
X101745818Y-94056901D01*
X101618426Y-94109668D01*
X101503776Y-94186274D01*
X101406274Y-94283776D01*
X101329668Y-94398426D01*
X101276901Y-94525818D01*
X101250000Y-94661056D01*
X79415339Y-94661056D01*
X79263626Y-94434003D01*
X79045997Y-94216374D01*
X78790093Y-94045384D01*
X78505747Y-93927604D01*
X78203887Y-93867560D01*
X77896113Y-93867560D01*
X77594253Y-93927604D01*
X77309907Y-94045384D01*
X77054003Y-94216374D01*
X76836374Y-94434003D01*
X76665384Y-94689907D01*
X76547604Y-94974253D01*
X76487560Y-95276113D01*
X66712231Y-95276113D01*
X68835118Y-93153228D01*
X68835127Y-93153217D01*
X69982346Y-92006000D01*
X82784518Y-92006000D01*
X82841000Y-92011563D01*
X82897482Y-92006000D01*
X82897492Y-92006000D01*
X83066439Y-91989360D01*
X83283215Y-91923602D01*
X83482997Y-91816816D01*
X83658107Y-91673107D01*
X83694125Y-91629219D01*
X83831768Y-91491576D01*
X91000000Y-91491576D01*
X91000000Y-92368423D01*
X91026045Y-92632861D01*
X91128971Y-92972162D01*
X91296113Y-93284864D01*
X91521050Y-93558950D01*
X91795135Y-93783887D01*
X92107837Y-93951029D01*
X92447138Y-94053955D01*
X92800000Y-94088709D01*
X93152861Y-94053955D01*
X93492162Y-93951029D01*
X93804864Y-93783887D01*
X94078950Y-93558950D01*
X94303887Y-93284865D01*
X94471029Y-92972163D01*
X94573955Y-92632862D01*
X94600000Y-92368424D01*
X94600000Y-91491577D01*
X94600000Y-91491576D01*
X98250000Y-91491576D01*
X98250000Y-92368423D01*
X98276045Y-92632861D01*
X98378971Y-92972162D01*
X98546113Y-93284864D01*
X98771050Y-93558950D01*
X99045135Y-93783887D01*
X99357837Y-93951029D01*
X99697138Y-94053955D01*
X100050000Y-94088709D01*
X100402861Y-94053955D01*
X100742162Y-93951029D01*
X101054864Y-93783887D01*
X101328950Y-93558950D01*
X101553887Y-93284865D01*
X101721029Y-92972163D01*
X101823955Y-92632862D01*
X101850000Y-92368424D01*
X101850000Y-91491577D01*
X101823955Y-91227138D01*
X101721029Y-90887837D01*
X101553887Y-90575135D01*
X101328950Y-90301050D01*
X101054865Y-90076113D01*
X100742163Y-89908971D01*
X100402862Y-89806045D01*
X100050000Y-89771291D01*
X99697139Y-89806045D01*
X99357838Y-89908971D01*
X99045136Y-90076113D01*
X98771051Y-90301050D01*
X98546113Y-90575135D01*
X98378971Y-90887837D01*
X98276045Y-91227138D01*
X98250000Y-91491576D01*
X94600000Y-91491576D01*
X94573955Y-91227138D01*
X94471029Y-90887837D01*
X94303887Y-90575135D01*
X94078950Y-90301050D01*
X93804865Y-90076113D01*
X93492163Y-89908971D01*
X93152862Y-89806045D01*
X92800000Y-89771291D01*
X92447139Y-89806045D01*
X92107838Y-89908971D01*
X91795136Y-90076113D01*
X91521051Y-90301050D01*
X91296113Y-90575135D01*
X91128971Y-90887837D01*
X91026045Y-91227138D01*
X91000000Y-91491576D01*
X83831768Y-91491576D01*
X87508345Y-87815000D01*
X103065656Y-87815000D01*
X106070772Y-90820118D01*
X106070778Y-90820123D01*
X106110918Y-90860263D01*
X106158120Y-90891802D01*
X106202002Y-90927815D01*
X106252067Y-90954575D01*
X106299271Y-90986116D01*
X106351721Y-91007842D01*
X106401784Y-91034601D01*
X106456101Y-91051078D01*
X106508557Y-91072806D01*
X106564247Y-91083884D01*
X106618560Y-91100359D01*
X106675043Y-91105922D01*
X106730735Y-91117000D01*
X106787517Y-91117000D01*
X106843999Y-91122563D01*
X106900481Y-91117000D01*
X106957265Y-91117000D01*
X107012959Y-91105922D01*
X107069438Y-91100359D01*
X107123748Y-91083885D01*
X107179443Y-91072806D01*
X107231902Y-91051076D01*
X107286215Y-91034601D01*
X107336273Y-91007844D01*
X107388729Y-90986116D01*
X107435940Y-90954571D01*
X107485996Y-90927815D01*
X107529870Y-90891809D01*
X107577082Y-90860263D01*
X107617227Y-90820118D01*
X107661107Y-90784107D01*
X107697118Y-90740227D01*
X107737263Y-90700082D01*
X107768809Y-90652870D01*
X107804815Y-90608996D01*
X107831571Y-90558940D01*
X107863116Y-90511729D01*
X107884844Y-90459273D01*
X107911601Y-90409215D01*
X107928076Y-90354902D01*
X107949806Y-90302443D01*
X107960885Y-90246748D01*
X107977359Y-90192438D01*
X107982922Y-90135959D01*
X107994000Y-90080265D01*
X107994000Y-90023481D01*
X107999563Y-89966999D01*
X107994000Y-89910517D01*
X107994000Y-89853735D01*
X107982922Y-89798043D01*
X107977359Y-89741560D01*
X107960884Y-89687247D01*
X107949806Y-89631557D01*
X107928078Y-89579101D01*
X107911601Y-89524784D01*
X107884842Y-89474721D01*
X107863116Y-89422271D01*
X107831575Y-89375067D01*
X107804815Y-89325002D01*
X107768802Y-89281120D01*
X107737263Y-89233918D01*
X107697123Y-89193778D01*
X107697118Y-89193772D01*
X105833345Y-87330000D01*
X110043226Y-87330000D01*
X110070257Y-87604448D01*
X110150310Y-87868349D01*
X110280310Y-88111562D01*
X110455261Y-88324739D01*
X110668438Y-88499690D01*
X110727526Y-88531273D01*
X110673046Y-88569569D01*
X110501565Y-88749354D01*
X110368453Y-88959139D01*
X110290924Y-89182582D01*
X110404774Y-89376000D01*
X111796000Y-89376000D01*
X111796000Y-89356000D01*
X112104000Y-89356000D01*
X112104000Y-89376000D01*
X113495226Y-89376000D01*
X113609076Y-89182582D01*
X113531547Y-88959139D01*
X113398435Y-88749354D01*
X113226954Y-88569569D01*
X113172474Y-88531273D01*
X113231562Y-88499690D01*
X113444739Y-88324739D01*
X113619690Y-88111562D01*
X113749690Y-87868349D01*
X113829743Y-87604448D01*
X113856774Y-87330000D01*
X113829743Y-87055552D01*
X113749690Y-86791651D01*
X113619690Y-86548438D01*
X113444739Y-86335261D01*
X113231562Y-86160310D01*
X112988349Y-86030310D01*
X112724448Y-85950257D01*
X112518777Y-85930000D01*
X111381223Y-85930000D01*
X111175552Y-85950257D01*
X110911651Y-86030310D01*
X110668438Y-86160310D01*
X110455261Y-86335261D01*
X110280310Y-86548438D01*
X110150310Y-86791651D01*
X110070257Y-87055552D01*
X110043226Y-87330000D01*
X105833345Y-87330000D01*
X104395124Y-85891780D01*
X104359107Y-85847893D01*
X104183997Y-85704184D01*
X103984215Y-85597398D01*
X103767439Y-85531640D01*
X103598492Y-85515000D01*
X103598482Y-85515000D01*
X103542000Y-85509437D01*
X103485518Y-85515000D01*
X99922400Y-85515000D01*
X99922400Y-81773178D01*
X105483989Y-81773178D01*
X105483989Y-82080952D01*
X105544033Y-82382812D01*
X105661813Y-82667158D01*
X105832803Y-82923062D01*
X106050432Y-83140691D01*
X106306336Y-83311681D01*
X106590682Y-83429461D01*
X106892542Y-83489505D01*
X107200316Y-83489505D01*
X107502176Y-83429461D01*
X107786522Y-83311681D01*
X108042426Y-83140691D01*
X108260055Y-82923062D01*
X108431045Y-82667158D01*
X108548825Y-82382812D01*
X108608869Y-82080952D01*
X108608869Y-81773178D01*
X110483989Y-81773178D01*
X110483989Y-82080952D01*
X110544033Y-82382812D01*
X110661813Y-82667158D01*
X110832803Y-82923062D01*
X111050432Y-83140691D01*
X111306336Y-83311681D01*
X111590682Y-83429461D01*
X111892542Y-83489505D01*
X112200316Y-83489505D01*
X112502176Y-83429461D01*
X112786522Y-83311681D01*
X113042426Y-83140691D01*
X113260055Y-82923062D01*
X113431045Y-82667158D01*
X113548825Y-82382812D01*
X113608869Y-82080952D01*
X113608869Y-81773178D01*
X113548825Y-81471318D01*
X113431045Y-81186972D01*
X113260055Y-80931068D01*
X113042426Y-80713439D01*
X112786522Y-80542449D01*
X112502176Y-80424669D01*
X112200316Y-80364625D01*
X111892542Y-80364625D01*
X111590682Y-80424669D01*
X111306336Y-80542449D01*
X111050432Y-80713439D01*
X110832803Y-80931068D01*
X110661813Y-81186972D01*
X110544033Y-81471318D01*
X110483989Y-81773178D01*
X108608869Y-81773178D01*
X108548825Y-81471318D01*
X108431045Y-81186972D01*
X108260055Y-80931068D01*
X108042426Y-80713439D01*
X107786522Y-80542449D01*
X107502176Y-80424669D01*
X107200316Y-80364625D01*
X106892542Y-80364625D01*
X106590682Y-80424669D01*
X106306336Y-80542449D01*
X106050432Y-80713439D01*
X105832803Y-80931068D01*
X105661813Y-81186972D01*
X105544033Y-81471318D01*
X105483989Y-81773178D01*
X99922400Y-81773178D01*
X99922400Y-80176482D01*
X99926269Y-80137199D01*
X99922400Y-80097916D01*
X99922400Y-80097907D01*
X99910824Y-79980373D01*
X99865079Y-79829572D01*
X99827892Y-79760000D01*
X99790793Y-79690593D01*
X99715869Y-79599298D01*
X99690822Y-79568778D01*
X99660303Y-79543732D01*
X98493635Y-78377065D01*
X114096429Y-78377065D01*
X114096430Y-84904950D01*
X114094252Y-84927065D01*
X114102940Y-85015280D01*
X114128672Y-85100106D01*
X114170458Y-85178281D01*
X114226692Y-85246802D01*
X114295213Y-85303036D01*
X114373388Y-85344822D01*
X114458214Y-85370554D01*
X114524324Y-85377065D01*
X114524325Y-85377065D01*
X114546429Y-85379242D01*
X114568534Y-85377065D01*
X115096550Y-85377065D01*
X115099361Y-95905118D01*
X115067675Y-96228277D01*
X114980196Y-96518022D01*
X114838108Y-96785252D01*
X114646818Y-97019797D01*
X114413614Y-97212720D01*
X114147382Y-97356671D01*
X113858260Y-97446170D01*
X113536389Y-97480000D01*
X76548965Y-97480000D01*
X42568464Y-97477068D01*
X42245787Y-97445429D01*
X41956590Y-97358115D01*
X41689866Y-97216295D01*
X41455767Y-97025368D01*
X41263210Y-96792609D01*
X41119530Y-96526877D01*
X41030202Y-96238303D01*
X40996429Y-95916977D01*
X40996429Y-85377065D01*
X41524324Y-85377065D01*
X41546429Y-85379242D01*
X41568533Y-85377065D01*
X41568534Y-85377065D01*
X41634644Y-85370554D01*
X41719470Y-85344822D01*
X41797645Y-85303036D01*
X41866166Y-85246802D01*
X41922400Y-85178281D01*
X41964186Y-85100106D01*
X41989918Y-85015280D01*
X41991997Y-84994175D01*
X41996429Y-84949170D01*
X41996429Y-84949169D01*
X41998606Y-84927065D01*
X41996429Y-84904960D01*
X41996429Y-81773178D01*
X42483989Y-81773178D01*
X42483989Y-82080952D01*
X42544033Y-82382812D01*
X42661813Y-82667158D01*
X42832803Y-82923062D01*
X43050432Y-83140691D01*
X43306336Y-83311681D01*
X43590682Y-83429461D01*
X43892542Y-83489505D01*
X44200316Y-83489505D01*
X44502176Y-83429461D01*
X44786522Y-83311681D01*
X45042426Y-83140691D01*
X45260055Y-82923062D01*
X45431045Y-82667158D01*
X45548825Y-82382812D01*
X45608869Y-82080952D01*
X45608869Y-81773178D01*
X47483989Y-81773178D01*
X47483989Y-82080952D01*
X47544033Y-82382812D01*
X47661813Y-82667158D01*
X47832803Y-82923062D01*
X48050432Y-83140691D01*
X48306336Y-83311681D01*
X48590682Y-83429461D01*
X48892542Y-83489505D01*
X49200316Y-83489505D01*
X49502176Y-83429461D01*
X49786522Y-83311681D01*
X50042426Y-83140691D01*
X50260055Y-82923062D01*
X50431045Y-82667158D01*
X50548825Y-82382812D01*
X50608869Y-82080952D01*
X50608869Y-81773178D01*
X50548825Y-81471318D01*
X50431045Y-81186972D01*
X50260055Y-80931068D01*
X50042426Y-80713439D01*
X49786522Y-80542449D01*
X49502176Y-80424669D01*
X49200316Y-80364625D01*
X48892542Y-80364625D01*
X48590682Y-80424669D01*
X48306336Y-80542449D01*
X48050432Y-80713439D01*
X47832803Y-80931068D01*
X47661813Y-81186972D01*
X47544033Y-81471318D01*
X47483989Y-81773178D01*
X45608869Y-81773178D01*
X45548825Y-81471318D01*
X45431045Y-81186972D01*
X45260055Y-80931068D01*
X45042426Y-80713439D01*
X44786522Y-80542449D01*
X44502176Y-80424669D01*
X44200316Y-80364625D01*
X43892542Y-80364625D01*
X43590682Y-80424669D01*
X43306336Y-80542449D01*
X43050432Y-80713439D01*
X42832803Y-80931068D01*
X42661813Y-81186972D01*
X42544033Y-81471318D01*
X42483989Y-81773178D01*
X41996429Y-81773178D01*
X41996429Y-79760000D01*
X59018065Y-79760000D01*
X59018065Y-81460000D01*
X59025788Y-81538414D01*
X59048660Y-81613814D01*
X59085803Y-81683303D01*
X59135789Y-81744211D01*
X59196697Y-81794197D01*
X59266186Y-81831340D01*
X59341586Y-81854212D01*
X59420000Y-81861935D01*
X61120000Y-81861935D01*
X61198414Y-81854212D01*
X61273814Y-81831340D01*
X61343303Y-81794197D01*
X61404211Y-81744211D01*
X61454197Y-81683303D01*
X61491340Y-81613814D01*
X61514212Y-81538414D01*
X61521935Y-81460000D01*
X61521935Y-79799000D01*
X61853234Y-79799000D01*
X61839062Y-79813172D01*
X61702265Y-80017903D01*
X61608037Y-80245389D01*
X61560000Y-80486886D01*
X61560000Y-80733114D01*
X61608037Y-80974611D01*
X61702265Y-81202097D01*
X61839062Y-81406828D01*
X62013172Y-81580938D01*
X62217903Y-81717735D01*
X62445389Y-81811963D01*
X62686886Y-81860000D01*
X62933114Y-81860000D01*
X63174611Y-81811963D01*
X63402097Y-81717735D01*
X63606828Y-81580938D01*
X63780938Y-81406828D01*
X63917735Y-81202097D01*
X64011963Y-80974611D01*
X64060000Y-80733114D01*
X64060000Y-80486886D01*
X64011963Y-80245389D01*
X63917735Y-80017903D01*
X63780938Y-79813172D01*
X63766766Y-79799000D01*
X64393234Y-79799000D01*
X64379062Y-79813172D01*
X64242265Y-80017903D01*
X64148037Y-80245389D01*
X64100000Y-80486886D01*
X64100000Y-80733114D01*
X64148037Y-80974611D01*
X64242265Y-81202097D01*
X64379062Y-81406828D01*
X64553172Y-81580938D01*
X64757903Y-81717735D01*
X64985389Y-81811963D01*
X65226886Y-81860000D01*
X65473114Y-81860000D01*
X65714611Y-81811963D01*
X65942097Y-81717735D01*
X66146828Y-81580938D01*
X66320938Y-81406828D01*
X66457735Y-81202097D01*
X66551963Y-80974611D01*
X66600000Y-80733114D01*
X66600000Y-80486886D01*
X66551963Y-80245389D01*
X66457735Y-80017903D01*
X66320938Y-79813172D01*
X66306766Y-79799000D01*
X66933234Y-79799000D01*
X66919062Y-79813172D01*
X66782265Y-80017903D01*
X66688037Y-80245389D01*
X66640000Y-80486886D01*
X66640000Y-80733114D01*
X66688037Y-80974611D01*
X66782265Y-81202097D01*
X66919062Y-81406828D01*
X67093172Y-81580938D01*
X67297903Y-81717735D01*
X67525389Y-81811963D01*
X67766886Y-81860000D01*
X68013114Y-81860000D01*
X68254611Y-81811963D01*
X68436110Y-81736783D01*
X67742895Y-82430000D01*
X63574549Y-82430000D01*
X63549999Y-82427582D01*
X63525449Y-82430000D01*
X63525440Y-82430000D01*
X63451983Y-82437235D01*
X63357733Y-82465825D01*
X63270871Y-82512254D01*
X63194736Y-82574736D01*
X63179080Y-82593813D01*
X61713824Y-84059071D01*
X61694736Y-84074736D01*
X61632254Y-84150871D01*
X61585825Y-84237734D01*
X61566658Y-84300919D01*
X61557235Y-84331983D01*
X61547581Y-84430000D01*
X61550000Y-84454560D01*
X61550001Y-87440049D01*
X61506274Y-87483776D01*
X61429668Y-87598426D01*
X61376901Y-87725818D01*
X61350000Y-87861056D01*
X61350000Y-87998944D01*
X61376901Y-88134182D01*
X61429668Y-88261574D01*
X61506274Y-88376224D01*
X61603776Y-88473726D01*
X61718426Y-88550332D01*
X61845818Y-88603099D01*
X61981056Y-88630000D01*
X62118944Y-88630000D01*
X62254182Y-88603099D01*
X62381574Y-88550332D01*
X62496224Y-88473726D01*
X62593726Y-88376224D01*
X62670332Y-88261574D01*
X62723099Y-88134182D01*
X62750000Y-87998944D01*
X62750000Y-87861056D01*
X62723099Y-87725818D01*
X62670332Y-87598426D01*
X62593726Y-87483776D01*
X62550000Y-87440050D01*
X62550000Y-84637105D01*
X63757107Y-83430000D01*
X63842895Y-83430000D01*
X63713819Y-83559076D01*
X63694737Y-83574736D01*
X63632255Y-83650871D01*
X63605504Y-83700919D01*
X63585826Y-83737733D01*
X63557235Y-83831983D01*
X63547581Y-83930000D01*
X63550001Y-83954570D01*
X63550000Y-87440050D01*
X63506274Y-87483776D01*
X63429668Y-87598426D01*
X63376901Y-87725818D01*
X63350000Y-87861056D01*
X63350000Y-87998944D01*
X63376901Y-88134182D01*
X63429668Y-88261574D01*
X63506274Y-88376224D01*
X63603776Y-88473726D01*
X63718426Y-88550332D01*
X63845818Y-88603099D01*
X63981056Y-88630000D01*
X64118944Y-88630000D01*
X64254182Y-88603099D01*
X64381574Y-88550332D01*
X64496224Y-88473726D01*
X64593726Y-88376224D01*
X64670332Y-88261574D01*
X64723099Y-88134182D01*
X64750000Y-87998944D01*
X64750000Y-87861056D01*
X64723099Y-87725818D01*
X64670332Y-87598426D01*
X64593726Y-87483776D01*
X64550000Y-87440050D01*
X64550000Y-87276113D01*
X76487560Y-87276113D01*
X76487560Y-87583887D01*
X76547604Y-87885747D01*
X76665384Y-88170093D01*
X76836374Y-88425997D01*
X77054003Y-88643626D01*
X77309907Y-88814616D01*
X77594253Y-88932396D01*
X77896113Y-88992440D01*
X78203887Y-88992440D01*
X78505747Y-88932396D01*
X78790093Y-88814616D01*
X79045997Y-88643626D01*
X79263626Y-88425997D01*
X79434616Y-88170093D01*
X79552396Y-87885747D01*
X79612440Y-87583887D01*
X79612440Y-87276113D01*
X79552396Y-86974253D01*
X79434616Y-86689907D01*
X79263626Y-86434003D01*
X79045997Y-86216374D01*
X78790093Y-86045384D01*
X78505747Y-85927604D01*
X78203887Y-85867560D01*
X77896113Y-85867560D01*
X77594253Y-85927604D01*
X77309907Y-86045384D01*
X77054003Y-86216374D01*
X76836374Y-86434003D01*
X76665384Y-86689907D01*
X76547604Y-86974253D01*
X76487560Y-87276113D01*
X64550000Y-87276113D01*
X64550000Y-84137105D01*
X64857106Y-83830000D01*
X68325440Y-83830000D01*
X68350000Y-83832419D01*
X68374560Y-83830000D01*
X68448017Y-83822765D01*
X68542267Y-83794175D01*
X68629129Y-83747746D01*
X68705264Y-83685264D01*
X68720929Y-83666176D01*
X69757107Y-82630000D01*
X70725440Y-82630000D01*
X70750000Y-82632419D01*
X70774560Y-82630000D01*
X70848017Y-82622765D01*
X70942267Y-82594175D01*
X71029129Y-82547746D01*
X71105264Y-82485264D01*
X71120929Y-82466176D01*
X72086187Y-81500920D01*
X72090014Y-81497780D01*
X72173172Y-81580938D01*
X72377903Y-81717735D01*
X72605389Y-81811963D01*
X72846886Y-81860000D01*
X73093114Y-81860000D01*
X73334611Y-81811963D01*
X73562097Y-81717735D01*
X73766828Y-81580938D01*
X73940938Y-81406828D01*
X74077735Y-81202097D01*
X74171963Y-80974611D01*
X74220000Y-80733114D01*
X74220000Y-80486886D01*
X74260000Y-80486886D01*
X74260000Y-80733114D01*
X74308037Y-80974611D01*
X74402265Y-81202097D01*
X74539062Y-81406828D01*
X74713172Y-81580938D01*
X74917903Y-81717735D01*
X75145389Y-81811963D01*
X75386886Y-81860000D01*
X75633114Y-81860000D01*
X75874611Y-81811963D01*
X76102097Y-81717735D01*
X76306828Y-81580938D01*
X76480938Y-81406828D01*
X76617735Y-81202097D01*
X76711963Y-80974611D01*
X76760000Y-80733114D01*
X76760000Y-80486886D01*
X76800000Y-80486886D01*
X76800000Y-80733114D01*
X76848037Y-80974611D01*
X76942265Y-81202097D01*
X77079062Y-81406828D01*
X77253172Y-81580938D01*
X77457903Y-81717735D01*
X77685389Y-81811963D01*
X77926886Y-81860000D01*
X78173114Y-81860000D01*
X78414611Y-81811963D01*
X78642097Y-81717735D01*
X78846828Y-81580938D01*
X79020938Y-81406828D01*
X79157735Y-81202097D01*
X79251963Y-80974611D01*
X79300000Y-80733114D01*
X79300000Y-80486886D01*
X79340000Y-80486886D01*
X79340000Y-80733114D01*
X79388037Y-80974611D01*
X79482265Y-81202097D01*
X79619062Y-81406828D01*
X79793172Y-81580938D01*
X79997903Y-81717735D01*
X80225389Y-81811963D01*
X80466886Y-81860000D01*
X80713114Y-81860000D01*
X80954611Y-81811963D01*
X81182097Y-81717735D01*
X81386828Y-81580938D01*
X81560938Y-81406828D01*
X81697735Y-81202097D01*
X81791963Y-80974611D01*
X81840000Y-80733114D01*
X81840000Y-80486886D01*
X81791963Y-80245389D01*
X81697735Y-80017903D01*
X81560938Y-79813172D01*
X81386828Y-79639062D01*
X81182097Y-79502265D01*
X80954611Y-79408037D01*
X80713114Y-79360000D01*
X80466886Y-79360000D01*
X80225389Y-79408037D01*
X79997903Y-79502265D01*
X79793172Y-79639062D01*
X79619062Y-79813172D01*
X79482265Y-80017903D01*
X79388037Y-80245389D01*
X79340000Y-80486886D01*
X79300000Y-80486886D01*
X79251963Y-80245389D01*
X79157735Y-80017903D01*
X79020938Y-79813172D01*
X78846828Y-79639062D01*
X78642097Y-79502265D01*
X78414611Y-79408037D01*
X78173114Y-79360000D01*
X77926886Y-79360000D01*
X77685389Y-79408037D01*
X77457903Y-79502265D01*
X77253172Y-79639062D01*
X77079062Y-79813172D01*
X76942265Y-80017903D01*
X76848037Y-80245389D01*
X76800000Y-80486886D01*
X76760000Y-80486886D01*
X76711963Y-80245389D01*
X76617735Y-80017903D01*
X76480938Y-79813172D01*
X76306828Y-79639062D01*
X76102097Y-79502265D01*
X75874611Y-79408037D01*
X75633114Y-79360000D01*
X75386886Y-79360000D01*
X75145389Y-79408037D01*
X74917903Y-79502265D01*
X74713172Y-79639062D01*
X74539062Y-79813172D01*
X74402265Y-80017903D01*
X74308037Y-80245389D01*
X74260000Y-80486886D01*
X74220000Y-80486886D01*
X74171963Y-80245389D01*
X74077735Y-80017903D01*
X73940938Y-79813172D01*
X73766828Y-79639062D01*
X73562097Y-79502265D01*
X73334611Y-79408037D01*
X73093114Y-79360000D01*
X72846886Y-79360000D01*
X72605389Y-79408037D01*
X72377903Y-79502265D01*
X72250000Y-79587727D01*
X72250000Y-78235488D01*
X73038597Y-77446893D01*
X73057674Y-77431237D01*
X73120156Y-77355102D01*
X73166585Y-77268240D01*
X73195175Y-77173990D01*
X73202410Y-77100533D01*
X73202410Y-77100524D01*
X73204828Y-77075974D01*
X73202410Y-77051424D01*
X73202410Y-69578588D01*
X73204829Y-69554028D01*
X73195175Y-69456011D01*
X73166585Y-69361761D01*
X73120156Y-69274899D01*
X73057674Y-69198764D01*
X73038597Y-69183108D01*
X70345487Y-66490000D01*
X70553114Y-66490000D01*
X70794611Y-66441963D01*
X71022097Y-66347735D01*
X71226828Y-66210938D01*
X71400938Y-66036828D01*
X71537735Y-65832097D01*
X71631963Y-65604611D01*
X71680000Y-65363114D01*
X71680000Y-65116886D01*
X71631963Y-64875389D01*
X71537735Y-64647903D01*
X71400938Y-64443172D01*
X71226828Y-64269062D01*
X71022097Y-64132265D01*
X70794611Y-64038037D01*
X70553114Y-63990000D01*
X70306886Y-63990000D01*
X70065389Y-64038037D01*
X69837903Y-64132265D01*
X69649893Y-64257890D01*
X69643165Y-64189583D01*
X69635841Y-64165440D01*
X69614575Y-64095333D01*
X69568146Y-64008471D01*
X69505664Y-63932336D01*
X69486587Y-63916680D01*
X68810129Y-63240224D01*
X68794464Y-63221136D01*
X68718329Y-63158654D01*
X68631467Y-63112225D01*
X68537217Y-63083635D01*
X68463760Y-63076400D01*
X68439200Y-63073981D01*
X68414640Y-63076400D01*
X65836068Y-63076400D01*
X65811518Y-63073982D01*
X65786968Y-63076400D01*
X65786959Y-63076400D01*
X65713502Y-63083635D01*
X65619252Y-63112225D01*
X65532390Y-63158654D01*
X65456255Y-63221136D01*
X65440598Y-63240214D01*
X65013823Y-63666991D01*
X64994736Y-63682655D01*
X64932254Y-63758790D01*
X64885825Y-63845653D01*
X64866042Y-63910871D01*
X64857235Y-63939902D01*
X64847581Y-64037919D01*
X64850000Y-64062479D01*
X64850000Y-64094117D01*
X64757903Y-64132265D01*
X64608500Y-64232093D01*
X64608500Y-62649848D01*
X64729818Y-62700099D01*
X64865056Y-62727000D01*
X65002944Y-62727000D01*
X65138182Y-62700099D01*
X65265574Y-62647332D01*
X65380224Y-62570726D01*
X65423950Y-62527000D01*
X69549895Y-62527000D01*
X71806185Y-64783291D01*
X71768037Y-64875389D01*
X71720000Y-65116886D01*
X71720000Y-65363114D01*
X71768037Y-65604611D01*
X71862265Y-65832097D01*
X71999062Y-66036828D01*
X72173172Y-66210938D01*
X72377903Y-66347735D01*
X72605389Y-66441963D01*
X72846886Y-66490000D01*
X73093114Y-66490000D01*
X73334611Y-66441963D01*
X73562097Y-66347735D01*
X73766828Y-66210938D01*
X73940938Y-66036828D01*
X74077735Y-65832097D01*
X74171963Y-65604611D01*
X74220000Y-65363114D01*
X74220000Y-65116886D01*
X74171963Y-64875389D01*
X74077735Y-64647903D01*
X73940938Y-64443172D01*
X73766828Y-64269062D01*
X73562097Y-64132265D01*
X73334611Y-64038037D01*
X73093114Y-63990000D01*
X72846886Y-63990000D01*
X72605389Y-64038037D01*
X72513291Y-64076185D01*
X70127929Y-61690824D01*
X70112264Y-61671736D01*
X70036129Y-61609254D01*
X69949267Y-61562825D01*
X69855017Y-61534235D01*
X69781560Y-61527000D01*
X69757000Y-61524581D01*
X69732440Y-61527000D01*
X65423950Y-61527000D01*
X65380224Y-61483274D01*
X65265574Y-61406668D01*
X65138182Y-61353901D01*
X65002944Y-61327000D01*
X64865056Y-61327000D01*
X64729818Y-61353901D01*
X64608500Y-61404152D01*
X64608500Y-54531976D01*
X64654599Y-54420682D01*
X64681500Y-54285444D01*
X64681500Y-54147556D01*
X64654599Y-54012318D01*
X64601832Y-53884926D01*
X64525226Y-53770276D01*
X64427724Y-53672774D01*
X64313074Y-53596168D01*
X64185682Y-53543401D01*
X64050444Y-53516500D01*
X63912556Y-53516500D01*
X63777318Y-53543401D01*
X63649926Y-53596168D01*
X63535276Y-53672774D01*
X63437774Y-53770276D01*
X63361168Y-53884926D01*
X63308401Y-54012318D01*
X63281500Y-54147556D01*
X63281500Y-54285444D01*
X63308401Y-54420682D01*
X63361168Y-54548074D01*
X63437774Y-54662724D01*
X63535276Y-54760226D01*
X63608501Y-54809153D01*
X63608501Y-55679400D01*
X63554182Y-55656901D01*
X63418944Y-55630000D01*
X63281056Y-55630000D01*
X63145818Y-55656901D01*
X63018426Y-55709668D01*
X62903776Y-55786274D01*
X62806274Y-55883776D01*
X62729668Y-55998426D01*
X62676901Y-56125818D01*
X62650000Y-56261056D01*
X62650000Y-56398944D01*
X62676901Y-56534182D01*
X62729668Y-56661574D01*
X62806274Y-56776224D01*
X62850001Y-56819951D01*
X62850000Y-60922894D01*
X62473819Y-61299076D01*
X62454737Y-61314736D01*
X62392255Y-61390871D01*
X62382208Y-61409668D01*
X62345826Y-61477733D01*
X62317235Y-61571983D01*
X62307581Y-61670000D01*
X62310001Y-61694570D01*
X62310000Y-63434440D01*
X62310000Y-64094117D01*
X62217903Y-64132265D01*
X62013172Y-64269062D01*
X61839062Y-64443172D01*
X61702265Y-64647903D01*
X61608037Y-64875389D01*
X61560000Y-65116886D01*
X61560000Y-65363114D01*
X61608037Y-65604611D01*
X61702265Y-65832097D01*
X61839062Y-66036828D01*
X62013172Y-66210938D01*
X62217903Y-66347735D01*
X62445389Y-66441963D01*
X62686886Y-66490000D01*
X62933114Y-66490000D01*
X63174611Y-66441963D01*
X63402097Y-66347735D01*
X63606828Y-66210938D01*
X63672426Y-66145340D01*
X63690754Y-66179629D01*
X63753236Y-66255764D01*
X63772324Y-66271429D01*
X64626579Y-67125686D01*
X64642236Y-67144764D01*
X64718371Y-67207246D01*
X64805233Y-67253675D01*
X64899483Y-67282265D01*
X64997500Y-67291919D01*
X65022060Y-67289500D01*
X67685995Y-67289500D01*
X68548801Y-68152308D01*
X68548800Y-77593293D01*
X67343095Y-78799000D01*
X60555560Y-78799000D01*
X60531000Y-78796581D01*
X60506440Y-78799000D01*
X60432983Y-78806235D01*
X60338733Y-78834825D01*
X60251871Y-78881254D01*
X60175736Y-78943736D01*
X60160075Y-78962819D01*
X59933819Y-79189076D01*
X59914737Y-79204736D01*
X59852255Y-79280871D01*
X59830128Y-79322268D01*
X59810994Y-79358065D01*
X59420000Y-79358065D01*
X59341586Y-79365788D01*
X59266186Y-79388660D01*
X59196697Y-79425803D01*
X59135789Y-79475789D01*
X59085803Y-79536697D01*
X59048660Y-79606186D01*
X59025788Y-79681586D01*
X59018065Y-79760000D01*
X41996429Y-79760000D01*
X41996429Y-78377065D01*
X66924324Y-78377065D01*
X66946429Y-78379242D01*
X66968533Y-78377065D01*
X66968534Y-78377065D01*
X67034644Y-78370554D01*
X67119470Y-78344822D01*
X67197645Y-78303036D01*
X67266166Y-78246802D01*
X67322400Y-78178281D01*
X67364186Y-78100106D01*
X67389918Y-78015280D01*
X67398606Y-77927065D01*
X67396429Y-77904960D01*
X67396429Y-67949169D01*
X67398606Y-67927065D01*
X67389918Y-67838850D01*
X67364186Y-67754024D01*
X67322400Y-67675849D01*
X67266166Y-67607328D01*
X67197645Y-67551094D01*
X67119470Y-67509308D01*
X67034644Y-67483576D01*
X66968534Y-67477065D01*
X66946429Y-67474888D01*
X66924325Y-67477065D01*
X41996429Y-67477065D01*
X41996429Y-63773178D01*
X42483989Y-63773178D01*
X42483989Y-64080952D01*
X42544033Y-64382812D01*
X42661813Y-64667158D01*
X42832803Y-64923062D01*
X43050432Y-65140691D01*
X43306336Y-65311681D01*
X43590682Y-65429461D01*
X43892542Y-65489505D01*
X44200316Y-65489505D01*
X44502176Y-65429461D01*
X44786522Y-65311681D01*
X45042426Y-65140691D01*
X45260055Y-64923062D01*
X45431045Y-64667158D01*
X45548825Y-64382812D01*
X45608869Y-64080952D01*
X45608869Y-63773178D01*
X47483989Y-63773178D01*
X47483989Y-64080952D01*
X47544033Y-64382812D01*
X47661813Y-64667158D01*
X47832803Y-64923062D01*
X48050432Y-65140691D01*
X48306336Y-65311681D01*
X48590682Y-65429461D01*
X48892542Y-65489505D01*
X49200316Y-65489505D01*
X49502176Y-65429461D01*
X49786522Y-65311681D01*
X50042426Y-65140691D01*
X50066231Y-65116886D01*
X59020000Y-65116886D01*
X59020000Y-65363114D01*
X59068037Y-65604611D01*
X59162265Y-65832097D01*
X59299062Y-66036828D01*
X59473172Y-66210938D01*
X59677903Y-66347735D01*
X59905389Y-66441963D01*
X60146886Y-66490000D01*
X60393114Y-66490000D01*
X60634611Y-66441963D01*
X60862097Y-66347735D01*
X61066828Y-66210938D01*
X61240938Y-66036828D01*
X61377735Y-65832097D01*
X61471963Y-65604611D01*
X61520000Y-65363114D01*
X61520000Y-65116886D01*
X61471963Y-64875389D01*
X61377735Y-64647903D01*
X61240938Y-64443172D01*
X61066828Y-64269062D01*
X60862097Y-64132265D01*
X60650000Y-64044411D01*
X60650000Y-52394950D01*
X60693726Y-52351224D01*
X60770332Y-52236574D01*
X60823099Y-52109182D01*
X60850000Y-51973944D01*
X60850000Y-51836056D01*
X60823099Y-51700818D01*
X60770332Y-51573426D01*
X60693726Y-51458776D01*
X60596224Y-51361274D01*
X60481574Y-51284668D01*
X60354182Y-51231901D01*
X60218944Y-51205000D01*
X60081056Y-51205000D01*
X59945818Y-51231901D01*
X59818426Y-51284668D01*
X59703776Y-51361274D01*
X59606274Y-51458776D01*
X59529668Y-51573426D01*
X59476901Y-51700818D01*
X59450000Y-51836056D01*
X59450000Y-51973944D01*
X59476901Y-52109182D01*
X59529668Y-52236574D01*
X59606274Y-52351224D01*
X59650000Y-52394950D01*
X59650001Y-64150909D01*
X59473172Y-64269062D01*
X59299062Y-64443172D01*
X59162265Y-64647903D01*
X59068037Y-64875389D01*
X59020000Y-65116886D01*
X50066231Y-65116886D01*
X50260055Y-64923062D01*
X50431045Y-64667158D01*
X50548825Y-64382812D01*
X50608869Y-64080952D01*
X50608869Y-63773178D01*
X50548825Y-63471318D01*
X50431045Y-63186972D01*
X50260055Y-62931068D01*
X50042426Y-62713439D01*
X49786522Y-62542449D01*
X49502176Y-62424669D01*
X49200316Y-62364625D01*
X48892542Y-62364625D01*
X48590682Y-62424669D01*
X48306336Y-62542449D01*
X48050432Y-62713439D01*
X47832803Y-62931068D01*
X47661813Y-63186972D01*
X47544033Y-63471318D01*
X47483989Y-63773178D01*
X45608869Y-63773178D01*
X45548825Y-63471318D01*
X45431045Y-63186972D01*
X45260055Y-62931068D01*
X45042426Y-62713439D01*
X44786522Y-62542449D01*
X44502176Y-62424669D01*
X44200316Y-62364625D01*
X43892542Y-62364625D01*
X43590682Y-62424669D01*
X43306336Y-62542449D01*
X43050432Y-62713439D01*
X42832803Y-62931068D01*
X42661813Y-63186972D01*
X42544033Y-63471318D01*
X42483989Y-63773178D01*
X41996429Y-63773178D01*
X41996429Y-60949170D01*
X41998606Y-60927065D01*
X41989918Y-60838850D01*
X41964186Y-60754024D01*
X41922400Y-60675849D01*
X41866166Y-60607328D01*
X41797645Y-60551094D01*
X41719470Y-60509308D01*
X41634644Y-60483576D01*
X41568534Y-60477065D01*
X41546429Y-60474888D01*
X41524325Y-60477065D01*
X40996563Y-60477065D01*
X40998559Y-53768910D01*
X48842097Y-53768910D01*
X48868854Y-53857139D01*
X48986527Y-54117611D01*
X49152754Y-54350122D01*
X49361148Y-54545736D01*
X49573429Y-54678065D01*
X49400000Y-54678065D01*
X49321586Y-54685788D01*
X49246186Y-54708660D01*
X49176697Y-54745803D01*
X49115789Y-54795789D01*
X49065803Y-54856697D01*
X49028660Y-54926186D01*
X49005788Y-55001586D01*
X48998065Y-55080000D01*
X48998065Y-56780000D01*
X49005788Y-56858414D01*
X49028660Y-56933814D01*
X49065803Y-57003303D01*
X49115789Y-57064211D01*
X49176697Y-57114197D01*
X49246186Y-57151340D01*
X49321586Y-57174212D01*
X49400000Y-57181935D01*
X51100000Y-57181935D01*
X51178414Y-57174212D01*
X51253814Y-57151340D01*
X51323303Y-57114197D01*
X51384211Y-57064211D01*
X51434197Y-57003303D01*
X51471340Y-56933814D01*
X51494212Y-56858414D01*
X51501935Y-56780000D01*
X51501935Y-56430000D01*
X52142895Y-56430000D01*
X57750000Y-62037107D01*
X57750000Y-62098944D01*
X57776901Y-62234182D01*
X57829668Y-62361574D01*
X57906274Y-62476224D01*
X58003776Y-62573726D01*
X58118426Y-62650332D01*
X58245818Y-62703099D01*
X58381056Y-62730000D01*
X58518944Y-62730000D01*
X58654182Y-62703099D01*
X58781574Y-62650332D01*
X58896224Y-62573726D01*
X58993726Y-62476224D01*
X59070332Y-62361574D01*
X59123099Y-62234182D01*
X59150000Y-62098944D01*
X59150000Y-61961056D01*
X59123099Y-61825818D01*
X59070332Y-61698426D01*
X58993726Y-61583776D01*
X58896224Y-61486274D01*
X58781574Y-61409668D01*
X58654182Y-61356901D01*
X58518944Y-61330000D01*
X58457107Y-61330000D01*
X52720929Y-55593824D01*
X52705264Y-55574736D01*
X52629129Y-55512254D01*
X52542267Y-55465825D01*
X52448017Y-55437235D01*
X52374560Y-55430000D01*
X52350000Y-55427581D01*
X52325440Y-55430000D01*
X51501935Y-55430000D01*
X51501935Y-55080000D01*
X51494212Y-55001586D01*
X51471340Y-54926186D01*
X51434197Y-54856697D01*
X51384211Y-54795789D01*
X51323303Y-54745803D01*
X51253814Y-54708660D01*
X51178414Y-54685788D01*
X51100000Y-54678065D01*
X50926571Y-54678065D01*
X51138852Y-54545736D01*
X51347246Y-54350122D01*
X51513473Y-54117611D01*
X51631146Y-53857139D01*
X51657903Y-53768910D01*
X51546889Y-53544000D01*
X50404000Y-53544000D01*
X50404000Y-53564000D01*
X50096000Y-53564000D01*
X50096000Y-53544000D01*
X48953111Y-53544000D01*
X48842097Y-53768910D01*
X40998559Y-53768910D01*
X40998784Y-53011090D01*
X48842097Y-53011090D01*
X48953111Y-53236000D01*
X50096000Y-53236000D01*
X50096000Y-52092150D01*
X50404000Y-52092150D01*
X50404000Y-53236000D01*
X51546889Y-53236000D01*
X51657903Y-53011090D01*
X51631146Y-52922861D01*
X51513473Y-52662389D01*
X51347246Y-52429878D01*
X51138852Y-52234264D01*
X50896300Y-52083065D01*
X50628911Y-51982091D01*
X50404000Y-52092150D01*
X50096000Y-52092150D01*
X49871089Y-51982091D01*
X49603700Y-52083065D01*
X49361148Y-52234264D01*
X49152754Y-52429878D01*
X48986527Y-52662389D01*
X48868854Y-52922861D01*
X48842097Y-53011090D01*
X40998784Y-53011090D01*
X40999996Y-48942597D01*
X41030941Y-48626994D01*
X41118089Y-48338346D01*
X41259643Y-48072122D01*
X41450207Y-47838468D01*
X41682527Y-47646277D01*
X41947754Y-47502869D01*
X42235780Y-47413710D01*
X42556510Y-47380000D01*
X75589059Y-47380000D01*
X75589059Y-48436000D01*
G37*
X75589059Y-48436000D02*
X76198065Y-48436000D01*
X76198065Y-48744000D01*
X75589059Y-48744000D01*
X75589059Y-49840000D01*
X75600798Y-49959189D01*
X75635564Y-50073797D01*
X75692021Y-50179421D01*
X75767999Y-50272001D01*
X75860579Y-50347979D01*
X75873571Y-50354923D01*
X75852095Y-50376400D01*
X74534360Y-50376400D01*
X74509800Y-50373981D01*
X74485240Y-50376400D01*
X74411783Y-50383635D01*
X74317533Y-50412225D01*
X74230671Y-50458654D01*
X74154536Y-50521136D01*
X74138880Y-50540213D01*
X73411624Y-51267471D01*
X73392536Y-51283136D01*
X73330054Y-51359271D01*
X73283625Y-51446134D01*
X73276957Y-51468116D01*
X73255035Y-51540383D01*
X73245381Y-51638400D01*
X73247800Y-51662960D01*
X73247801Y-56058830D01*
X73245381Y-56083400D01*
X73255035Y-56181417D01*
X73272065Y-56237556D01*
X73283626Y-56275667D01*
X73330055Y-56362529D01*
X73392537Y-56438664D01*
X73411619Y-56454324D01*
X74089200Y-57131906D01*
X74089200Y-57193744D01*
X74116101Y-57328982D01*
X74168868Y-57456374D01*
X74245474Y-57571024D01*
X74342976Y-57668526D01*
X74457626Y-57745132D01*
X74585018Y-57797899D01*
X74720256Y-57824800D01*
X74858144Y-57824800D01*
X74993382Y-57797899D01*
X75120774Y-57745132D01*
X75235424Y-57668526D01*
X75332926Y-57571024D01*
X75409532Y-57456374D01*
X75437748Y-57388255D01*
X75446237Y-57396743D01*
X75463654Y-57429329D01*
X75526136Y-57505464D01*
X75602271Y-57567946D01*
X75634860Y-57585365D01*
X76062876Y-58013382D01*
X76078537Y-58032465D01*
X76154672Y-58094947D01*
X76241534Y-58141376D01*
X76307193Y-58161293D01*
X76335783Y-58169966D01*
X76433801Y-58179620D01*
X76458361Y-58177201D01*
X88090096Y-58177201D01*
X92790000Y-62877106D01*
X92790001Y-64094117D01*
X92697903Y-64132265D01*
X92493172Y-64269062D01*
X92319062Y-64443172D01*
X92182265Y-64647903D01*
X92088037Y-64875389D01*
X92040000Y-65116886D01*
X92040000Y-65363114D01*
X92088037Y-65604611D01*
X92182265Y-65832097D01*
X92319062Y-66036828D01*
X92493172Y-66210938D01*
X92674953Y-66332400D01*
X91365047Y-66332400D01*
X91546828Y-66210938D01*
X91720938Y-66036828D01*
X91857735Y-65832097D01*
X91951963Y-65604611D01*
X92000000Y-65363114D01*
X92000000Y-65116886D01*
X91951963Y-64875389D01*
X91857735Y-64647903D01*
X91720938Y-64443172D01*
X91546828Y-64269062D01*
X91342097Y-64132265D01*
X91114611Y-64038037D01*
X90873114Y-63990000D01*
X90626886Y-63990000D01*
X90385389Y-64038037D01*
X90157903Y-64132265D01*
X89953172Y-64269062D01*
X89779062Y-64443172D01*
X89642265Y-64647903D01*
X89587412Y-64780330D01*
X89516935Y-64593700D01*
X89365736Y-64351148D01*
X89170122Y-64142754D01*
X88937611Y-63976527D01*
X88677139Y-63858854D01*
X88588910Y-63832097D01*
X88364000Y-63943111D01*
X88364000Y-65086000D01*
X88384000Y-65086000D01*
X88384000Y-65394000D01*
X88364000Y-65394000D01*
X88364000Y-65414000D01*
X88056000Y-65414000D01*
X88056000Y-65394000D01*
X88036000Y-65394000D01*
X88036000Y-65086000D01*
X88056000Y-65086000D01*
X88056000Y-63943111D01*
X87831090Y-63832097D01*
X87742861Y-63858854D01*
X87482389Y-63976527D01*
X87249878Y-64142754D01*
X87054264Y-64351148D01*
X86903065Y-64593700D01*
X86832588Y-64780330D01*
X86777735Y-64647903D01*
X86640938Y-64443172D01*
X86466828Y-64269062D01*
X86262097Y-64132265D01*
X86034611Y-64038037D01*
X85793114Y-63990000D01*
X85546886Y-63990000D01*
X85305389Y-64038037D01*
X85077903Y-64132265D01*
X84873172Y-64269062D01*
X84699062Y-64443172D01*
X84562265Y-64647903D01*
X84468037Y-64875389D01*
X84420000Y-65116886D01*
X84420000Y-65363114D01*
X84468037Y-65604611D01*
X84562265Y-65832097D01*
X84699062Y-66036828D01*
X84873172Y-66210938D01*
X85077903Y-66347735D01*
X85305389Y-66441963D01*
X85546886Y-66490000D01*
X85793114Y-66490000D01*
X86034611Y-66441963D01*
X86262097Y-66347735D01*
X86466828Y-66210938D01*
X86640938Y-66036828D01*
X86777735Y-65832097D01*
X86832588Y-65699670D01*
X86903065Y-65886300D01*
X87054264Y-66128852D01*
X87249878Y-66337246D01*
X87482389Y-66503473D01*
X87742861Y-66621146D01*
X87831090Y-66647903D01*
X88055998Y-66536890D01*
X88055998Y-66698000D01*
X88183449Y-66698000D01*
X87764103Y-67117347D01*
X87733578Y-67142398D01*
X87679151Y-67208719D01*
X87633607Y-67264214D01*
X87559322Y-67403192D01*
X87559321Y-67403193D01*
X87513576Y-67553994D01*
X87502121Y-67670302D01*
X87498130Y-67710820D01*
X87502000Y-67750111D01*
X87502001Y-78104009D01*
X87498130Y-78143310D01*
X87513577Y-78300137D01*
X87559321Y-78450937D01*
X87633607Y-78589916D01*
X87695904Y-78665825D01*
X87733579Y-78711732D01*
X87764098Y-78736778D01*
X88381620Y-79354301D01*
X88396673Y-79372643D01*
X88333114Y-79360000D01*
X88086886Y-79360000D01*
X87845389Y-79408037D01*
X87617903Y-79502265D01*
X87439563Y-79621428D01*
X87414175Y-79537733D01*
X87367746Y-79450871D01*
X87305264Y-79374736D01*
X87286181Y-79359075D01*
X86720929Y-78793824D01*
X86705264Y-78774736D01*
X86629129Y-78712254D01*
X86542267Y-78665825D01*
X86448017Y-78637235D01*
X86374560Y-78630000D01*
X86350000Y-78627581D01*
X86325440Y-78630000D01*
X86255489Y-78630000D01*
X84050000Y-76424513D01*
X84050000Y-74191405D01*
X84068087Y-74375043D01*
X84139563Y-74610669D01*
X84255634Y-74827823D01*
X84411840Y-75018160D01*
X84602177Y-75174366D01*
X84819331Y-75290437D01*
X85054957Y-75361913D01*
X85238595Y-75380000D01*
X85661405Y-75380000D01*
X85845043Y-75361913D01*
X86080669Y-75290437D01*
X86297823Y-75174366D01*
X86488160Y-75018160D01*
X86644366Y-74827823D01*
X86760437Y-74610669D01*
X86831913Y-74375043D01*
X86856048Y-74130000D01*
X86831913Y-73884957D01*
X86760437Y-73649331D01*
X86644366Y-73432177D01*
X86488160Y-73241840D01*
X86297823Y-73085634D01*
X86080669Y-72969563D01*
X85845043Y-72898087D01*
X85681051Y-72881935D01*
X86450000Y-72881935D01*
X86528414Y-72874212D01*
X86603814Y-72851340D01*
X86673303Y-72814197D01*
X86734211Y-72764211D01*
X86784197Y-72703303D01*
X86821340Y-72633814D01*
X86844212Y-72558414D01*
X86851935Y-72480000D01*
X86851935Y-70780000D01*
X86844212Y-70701586D01*
X86821340Y-70626186D01*
X86784197Y-70556697D01*
X86734211Y-70495789D01*
X86673303Y-70445803D01*
X86603814Y-70408660D01*
X86528414Y-70385788D01*
X86450000Y-70378065D01*
X84450000Y-70378065D01*
X84371586Y-70385788D01*
X84296186Y-70408660D01*
X84226697Y-70445803D01*
X84165789Y-70495789D01*
X84115803Y-70556697D01*
X84078660Y-70626186D01*
X84055788Y-70701586D01*
X84050000Y-70760353D01*
X84050000Y-70754549D01*
X84052418Y-70729999D01*
X84050000Y-70705449D01*
X84050000Y-70705440D01*
X84042765Y-70631983D01*
X84014175Y-70537733D01*
X83967746Y-70450871D01*
X83905264Y-70374736D01*
X83886187Y-70359080D01*
X79920929Y-66393824D01*
X79905264Y-66374736D01*
X79830417Y-66313311D01*
X79213815Y-65696709D01*
X79251963Y-65604611D01*
X79300000Y-65363114D01*
X79300000Y-65116886D01*
X79340000Y-65116886D01*
X79340000Y-65363114D01*
X79388037Y-65604611D01*
X79482265Y-65832097D01*
X79619062Y-66036828D01*
X79793172Y-66210938D01*
X79997903Y-66347735D01*
X80225389Y-66441963D01*
X80466886Y-66490000D01*
X80713114Y-66490000D01*
X80954611Y-66441963D01*
X81182097Y-66347735D01*
X81386828Y-66210938D01*
X81560938Y-66036828D01*
X81697735Y-65832097D01*
X81791963Y-65604611D01*
X81840000Y-65363114D01*
X81840000Y-65116886D01*
X81880000Y-65116886D01*
X81880000Y-65363114D01*
X81928037Y-65604611D01*
X82022265Y-65832097D01*
X82159062Y-66036828D01*
X82333172Y-66210938D01*
X82537903Y-66347735D01*
X82765389Y-66441963D01*
X83006886Y-66490000D01*
X83253114Y-66490000D01*
X83494611Y-66441963D01*
X83722097Y-66347735D01*
X83926828Y-66210938D01*
X84100938Y-66036828D01*
X84237735Y-65832097D01*
X84331963Y-65604611D01*
X84380000Y-65363114D01*
X84380000Y-65116886D01*
X84331963Y-64875389D01*
X84237735Y-64647903D01*
X84100938Y-64443172D01*
X83926828Y-64269062D01*
X83722097Y-64132265D01*
X83494611Y-64038037D01*
X83253114Y-63990000D01*
X83006886Y-63990000D01*
X82765389Y-64038037D01*
X82537903Y-64132265D01*
X82333172Y-64269062D01*
X82159062Y-64443172D01*
X82022265Y-64647903D01*
X81928037Y-64875389D01*
X81880000Y-65116886D01*
X81840000Y-65116886D01*
X81791963Y-64875389D01*
X81697735Y-64647903D01*
X81560938Y-64443172D01*
X81386828Y-64269062D01*
X81182097Y-64132265D01*
X80954611Y-64038037D01*
X80713114Y-63990000D01*
X80466886Y-63990000D01*
X80225389Y-64038037D01*
X79997903Y-64132265D01*
X79793172Y-64269062D01*
X79619062Y-64443172D01*
X79482265Y-64647903D01*
X79388037Y-64875389D01*
X79340000Y-65116886D01*
X79300000Y-65116886D01*
X79251963Y-64875389D01*
X79157735Y-64647903D01*
X79020938Y-64443172D01*
X78846828Y-64269062D01*
X78642097Y-64132265D01*
X78414611Y-64038037D01*
X78173114Y-63990000D01*
X77926886Y-63990000D01*
X77685389Y-64038037D01*
X77457903Y-64132265D01*
X77253172Y-64269062D01*
X77079062Y-64443172D01*
X76942265Y-64647903D01*
X76848037Y-64875389D01*
X76800000Y-65116886D01*
X76800000Y-65363114D01*
X76848037Y-65604611D01*
X76942265Y-65832097D01*
X77079062Y-66036828D01*
X77253172Y-66210938D01*
X77281700Y-66230000D01*
X77207106Y-66230000D01*
X76673815Y-65696709D01*
X76711963Y-65604611D01*
X76760000Y-65363114D01*
X76760000Y-65116886D01*
X76711963Y-64875389D01*
X76617735Y-64647903D01*
X76480938Y-64443172D01*
X76306828Y-64269062D01*
X76102097Y-64132265D01*
X75874611Y-64038037D01*
X75633114Y-63990000D01*
X75386886Y-63990000D01*
X75145389Y-64038037D01*
X74917903Y-64132265D01*
X74713172Y-64269062D01*
X74539062Y-64443172D01*
X74402265Y-64647903D01*
X74308037Y-64875389D01*
X74260000Y-65116886D01*
X74260000Y-65363114D01*
X74308037Y-65604611D01*
X74402265Y-65832097D01*
X74539062Y-66036828D01*
X74713172Y-66210938D01*
X74917903Y-66347735D01*
X75145389Y-66441963D01*
X75386886Y-66490000D01*
X75633114Y-66490000D01*
X75874611Y-66441963D01*
X75966709Y-66403815D01*
X76629075Y-67066181D01*
X76644736Y-67085264D01*
X76720871Y-67147746D01*
X76807733Y-67194175D01*
X76901983Y-67222765D01*
X76975440Y-67230000D01*
X76975441Y-67230000D01*
X76999999Y-67232419D01*
X77024557Y-67230000D01*
X78742895Y-67230000D01*
X82650000Y-71137106D01*
X82650001Y-76705430D01*
X82647581Y-76730000D01*
X82657235Y-76828017D01*
X82682331Y-76910746D01*
X82685826Y-76922267D01*
X82732255Y-77009129D01*
X82794737Y-77085264D01*
X82813819Y-77100924D01*
X83850000Y-78137107D01*
X83850001Y-79587727D01*
X83722097Y-79502265D01*
X83494611Y-79408037D01*
X83253114Y-79360000D01*
X83006886Y-79360000D01*
X82765389Y-79408037D01*
X82537903Y-79502265D01*
X82333172Y-79639062D01*
X82159062Y-79813172D01*
X82022265Y-80017903D01*
X81928037Y-80245389D01*
X81880000Y-80486886D01*
X81880000Y-80733114D01*
X81928037Y-80974611D01*
X82022265Y-81202097D01*
X82159062Y-81406828D01*
X82333172Y-81580938D01*
X82537903Y-81717735D01*
X82765389Y-81811963D01*
X83006886Y-81860000D01*
X83253114Y-81860000D01*
X83494611Y-81811963D01*
X83722097Y-81717735D01*
X83926828Y-81580938D01*
X84100938Y-81406828D01*
X84111845Y-81390504D01*
X85250000Y-82528660D01*
X85250001Y-84505430D01*
X85247581Y-84530000D01*
X85257015Y-84625788D01*
X85250000Y-84661056D01*
X85250000Y-84798944D01*
X85276901Y-84934182D01*
X85329668Y-85061574D01*
X85406274Y-85176224D01*
X85503776Y-85273726D01*
X85618426Y-85350332D01*
X85745818Y-85403099D01*
X85881056Y-85430000D01*
X86018944Y-85430000D01*
X86154182Y-85403099D01*
X86250000Y-85363410D01*
X86250000Y-85385718D01*
X86276901Y-85520956D01*
X86329668Y-85648348D01*
X86375131Y-85716389D01*
X86214893Y-85847893D01*
X86178880Y-85891775D01*
X82364656Y-89706000D01*
X69562481Y-89706000D01*
X69505999Y-89700437D01*
X69449517Y-89706000D01*
X69449508Y-89706000D01*
X69280561Y-89722640D01*
X69063785Y-89788398D01*
X68864003Y-89895184D01*
X68826676Y-89925817D01*
X68732772Y-90002882D01*
X68732769Y-90002885D01*
X68688893Y-90038893D01*
X68652884Y-90082770D01*
X67208783Y-91526873D01*
X67208772Y-91526882D01*
X64965656Y-93770000D01*
X64648098Y-93770000D01*
X64884033Y-93523631D01*
X65096217Y-93190705D01*
X65239373Y-92822782D01*
X65308000Y-92434000D01*
X65308000Y-92084000D01*
X63454000Y-92084000D01*
X63454000Y-92104000D01*
X63146000Y-92104000D01*
X63146000Y-92084000D01*
X61292000Y-92084000D01*
X61292000Y-92434000D01*
X61360627Y-92822782D01*
X61503783Y-93190705D01*
X61715967Y-93523631D01*
X61951902Y-93770000D01*
X57398098Y-93770000D01*
X57634033Y-93523631D01*
X57846217Y-93190705D01*
X57989373Y-92822782D01*
X58058000Y-92434000D01*
X58058000Y-92084000D01*
X56204000Y-92084000D01*
X56204000Y-92104000D01*
X55896000Y-92104000D01*
X55896000Y-92084000D01*
X54042000Y-92084000D01*
X54042000Y-92434000D01*
X54110627Y-92822782D01*
X54253783Y-93190705D01*
X54465967Y-93523631D01*
X54701902Y-93770000D01*
X45979345Y-93770000D01*
X44995672Y-92786328D01*
X44996000Y-92786000D01*
X44996000Y-92522097D01*
X45054008Y-92498070D01*
X45062651Y-92382287D01*
X45114078Y-92433714D01*
X45150000Y-92397792D01*
X45185922Y-92433714D01*
X45237349Y-92382287D01*
X45245992Y-92498070D01*
X45304000Y-92519940D01*
X45304000Y-92786000D01*
X45456000Y-92938000D01*
X46300000Y-92940942D01*
X46419189Y-92929203D01*
X46533797Y-92894437D01*
X46639421Y-92837980D01*
X46732001Y-92762001D01*
X46807980Y-92669421D01*
X46864437Y-92563797D01*
X46899203Y-92449189D01*
X46910942Y-92330000D01*
X46908511Y-91426000D01*
X54042000Y-91426000D01*
X54042000Y-91776000D01*
X55896000Y-91776000D01*
X55896000Y-89730400D01*
X56204000Y-89730400D01*
X56204000Y-91776000D01*
X58058000Y-91776000D01*
X58058000Y-91426000D01*
X61292000Y-91426000D01*
X61292000Y-91776000D01*
X63146000Y-91776000D01*
X63146000Y-89730400D01*
X63454000Y-89730400D01*
X63454000Y-91776000D01*
X65308000Y-91776000D01*
X65308000Y-91426000D01*
X65239373Y-91037218D01*
X65096217Y-90669295D01*
X64884033Y-90336369D01*
X64610976Y-90051236D01*
X64287539Y-89824852D01*
X63926151Y-89665917D01*
X63765299Y-89626654D01*
X63454000Y-89730400D01*
X63146000Y-89730400D01*
X62834701Y-89626654D01*
X62673849Y-89665917D01*
X62312461Y-89824852D01*
X61989024Y-90051236D01*
X61715967Y-90336369D01*
X61503783Y-90669295D01*
X61360627Y-91037218D01*
X61292000Y-91426000D01*
X58058000Y-91426000D01*
X57989373Y-91037218D01*
X57846217Y-90669295D01*
X57634033Y-90336369D01*
X57360976Y-90051236D01*
X57037539Y-89824852D01*
X56676151Y-89665917D01*
X56515299Y-89626654D01*
X56204000Y-89730400D01*
X55896000Y-89730400D01*
X55584701Y-89626654D01*
X55423849Y-89665917D01*
X55062461Y-89824852D01*
X54739024Y-90051236D01*
X54465967Y-90336369D01*
X54253783Y-90669295D01*
X54110627Y-91037218D01*
X54042000Y-91426000D01*
X46908511Y-91426000D01*
X46908000Y-91236000D01*
X46756000Y-91084000D01*
X46044861Y-91084000D01*
X46048168Y-91064043D01*
X46067642Y-91044569D01*
X46059089Y-90930000D01*
X46067642Y-90815431D01*
X46051932Y-90799721D01*
X46046415Y-90776000D01*
X46756000Y-90776000D01*
X46908000Y-90624000D01*
X46910942Y-89530000D01*
X46899203Y-89410811D01*
X46864437Y-89296203D01*
X46807980Y-89190579D01*
X46732001Y-89097999D01*
X46639421Y-89022020D01*
X46533797Y-88965563D01*
X46419189Y-88930797D01*
X46300000Y-88919058D01*
X45456000Y-88922000D01*
X45304000Y-89074000D01*
X45304000Y-89337903D01*
X45245992Y-89361930D01*
X45237349Y-89477713D01*
X45185922Y-89426286D01*
X45150000Y-89462208D01*
X45114078Y-89426286D01*
X45062651Y-89477713D01*
X45054008Y-89361930D01*
X44996000Y-89340060D01*
X44996000Y-89074000D01*
X44844000Y-88922000D01*
X44000000Y-88919058D01*
X43880811Y-88930797D01*
X43766203Y-88965563D01*
X43660579Y-89022020D01*
X43567999Y-89097999D01*
X43492020Y-89190579D01*
X43435563Y-89296203D01*
X43400797Y-89410811D01*
X43389058Y-89530000D01*
X43392000Y-90624000D01*
X43544000Y-90776000D01*
X44255139Y-90776000D01*
X44251832Y-90795957D01*
X44232358Y-90815431D01*
X44240911Y-90930000D01*
X44232358Y-91044569D01*
X44248068Y-91060279D01*
X44253585Y-91084000D01*
X43544000Y-91084000D01*
X43392000Y-91236000D01*
X43389058Y-92330000D01*
X43400797Y-92449189D01*
X43435563Y-92563797D01*
X43443636Y-92578900D01*
X43288893Y-92705893D01*
X43145185Y-92881003D01*
X43038399Y-93080785D01*
X42972641Y-93297561D01*
X42950437Y-93523000D01*
X42972641Y-93748439D01*
X43038399Y-93965215D01*
X43145185Y-94164997D01*
X43252882Y-94296226D01*
X44649884Y-95693230D01*
X44685893Y-95737107D01*
X44729769Y-95773115D01*
X44729772Y-95773118D01*
X44778689Y-95813263D01*
X44861003Y-95880816D01*
X45060785Y-95987602D01*
X45277561Y-96053360D01*
X45446508Y-96070000D01*
X45446517Y-96070000D01*
X45502999Y-96075563D01*
X45559481Y-96070000D01*
X65385518Y-96070000D01*
X65442000Y-96075563D01*
X65498482Y-96070000D01*
X65498492Y-96070000D01*
X65667439Y-96053360D01*
X65884215Y-95987602D01*
X66083997Y-95880816D01*
X66259107Y-95737107D01*
X66295124Y-95693220D01*
X66712231Y-95276113D01*
X76487560Y-95276113D01*
X76487560Y-95583887D01*
X76547604Y-95885747D01*
X76665384Y-96170093D01*
X76836374Y-96425997D01*
X77054003Y-96643626D01*
X77309907Y-96814616D01*
X77594253Y-96932396D01*
X77896113Y-96992440D01*
X78203887Y-96992440D01*
X78505747Y-96932396D01*
X78790093Y-96814616D01*
X79045997Y-96643626D01*
X79263626Y-96425997D01*
X79434616Y-96170093D01*
X79552396Y-95885747D01*
X79583376Y-95730000D01*
X110043226Y-95730000D01*
X110070257Y-96004448D01*
X110150310Y-96268349D01*
X110280310Y-96511562D01*
X110455261Y-96724739D01*
X110668438Y-96899690D01*
X110911651Y-97029690D01*
X111175552Y-97109743D01*
X111381223Y-97130000D01*
X112518777Y-97130000D01*
X112724448Y-97109743D01*
X112988349Y-97029690D01*
X113231562Y-96899690D01*
X113444739Y-96724739D01*
X113619690Y-96511562D01*
X113749690Y-96268349D01*
X113829743Y-96004448D01*
X113856774Y-95730000D01*
X113829743Y-95455552D01*
X113749690Y-95191651D01*
X113619690Y-94948438D01*
X113444739Y-94735261D01*
X113231562Y-94560310D01*
X112988349Y-94430310D01*
X112959457Y-94421546D01*
X112986171Y-94407267D01*
X113146054Y-94276054D01*
X113277267Y-94116171D01*
X113374767Y-93933762D01*
X113434807Y-93735836D01*
X113455080Y-93530000D01*
X113434807Y-93324164D01*
X113374767Y-93126238D01*
X113277267Y-92943829D01*
X113146054Y-92783946D01*
X112986171Y-92652733D01*
X112803762Y-92555233D01*
X112720580Y-92530000D01*
X112803762Y-92504767D01*
X112986171Y-92407267D01*
X113146054Y-92276054D01*
X113277267Y-92116171D01*
X113374767Y-91933762D01*
X113434807Y-91735836D01*
X113455080Y-91530000D01*
X113434807Y-91324164D01*
X113374767Y-91126238D01*
X113277267Y-90943829D01*
X113146054Y-90783946D01*
X112986171Y-90652733D01*
X112983269Y-90651182D01*
X113023694Y-90633307D01*
X113226954Y-90490431D01*
X113398435Y-90310646D01*
X113531547Y-90100861D01*
X113609076Y-89877418D01*
X113495226Y-89684000D01*
X112104000Y-89684000D01*
X112104000Y-89704000D01*
X111796000Y-89704000D01*
X111796000Y-89684000D01*
X110404774Y-89684000D01*
X110290924Y-89877418D01*
X110368453Y-90100861D01*
X110501565Y-90310646D01*
X110673046Y-90490431D01*
X110876306Y-90633307D01*
X110916731Y-90651182D01*
X110913829Y-90652733D01*
X110753946Y-90783946D01*
X110622733Y-90943829D01*
X110525233Y-91126238D01*
X110465193Y-91324164D01*
X110444920Y-91530000D01*
X110465193Y-91735836D01*
X110525233Y-91933762D01*
X110622733Y-92116171D01*
X110753946Y-92276054D01*
X110913829Y-92407267D01*
X111096238Y-92504767D01*
X111179420Y-92530000D01*
X111096238Y-92555233D01*
X110913829Y-92652733D01*
X110753946Y-92783946D01*
X110622733Y-92943829D01*
X110525233Y-93126238D01*
X110465193Y-93324164D01*
X110444920Y-93530000D01*
X110465193Y-93735836D01*
X110525233Y-93933762D01*
X110622733Y-94116171D01*
X110753946Y-94276054D01*
X110913829Y-94407267D01*
X110940543Y-94421546D01*
X110911651Y-94430310D01*
X110668438Y-94560310D01*
X110455261Y-94735261D01*
X110280310Y-94948438D01*
X110150310Y-95191651D01*
X110070257Y-95455552D01*
X110043226Y-95730000D01*
X79583376Y-95730000D01*
X79612440Y-95583887D01*
X79612440Y-95276113D01*
X79552396Y-94974253D01*
X79434616Y-94689907D01*
X79415339Y-94661056D01*
X101250000Y-94661056D01*
X101250000Y-94798944D01*
X101276901Y-94934182D01*
X101329668Y-95061574D01*
X101406274Y-95176224D01*
X101503776Y-95273726D01*
X101618426Y-95350332D01*
X101745818Y-95403099D01*
X101881056Y-95430000D01*
X102018944Y-95430000D01*
X102154182Y-95403099D01*
X102281574Y-95350332D01*
X102396224Y-95273726D01*
X102439950Y-95230000D01*
X104525050Y-95230000D01*
X104568776Y-95273726D01*
X104683426Y-95350332D01*
X104810818Y-95403099D01*
X104946056Y-95430000D01*
X105083944Y-95430000D01*
X105219182Y-95403099D01*
X105346574Y-95350332D01*
X105461224Y-95273726D01*
X105558726Y-95176224D01*
X105635332Y-95061574D01*
X105688099Y-94934182D01*
X105715000Y-94798944D01*
X105715000Y-94661056D01*
X105688099Y-94525818D01*
X105635332Y-94398426D01*
X105558726Y-94283776D01*
X105461224Y-94186274D01*
X105346574Y-94109668D01*
X105219182Y-94056901D01*
X105083944Y-94030000D01*
X104946056Y-94030000D01*
X104810818Y-94056901D01*
X104683426Y-94109668D01*
X104568776Y-94186274D01*
X104525050Y-94230000D01*
X102439950Y-94230000D01*
X102396224Y-94186274D01*
X102281574Y-94109668D01*
X102154182Y-94056901D01*
X102018944Y-94030000D01*
X101881056Y-94030000D01*
X101745818Y-94056901D01*
X101618426Y-94109668D01*
X101503776Y-94186274D01*
X101406274Y-94283776D01*
X101329668Y-94398426D01*
X101276901Y-94525818D01*
X101250000Y-94661056D01*
X79415339Y-94661056D01*
X79263626Y-94434003D01*
X79045997Y-94216374D01*
X78790093Y-94045384D01*
X78505747Y-93927604D01*
X78203887Y-93867560D01*
X77896113Y-93867560D01*
X77594253Y-93927604D01*
X77309907Y-94045384D01*
X77054003Y-94216374D01*
X76836374Y-94434003D01*
X76665384Y-94689907D01*
X76547604Y-94974253D01*
X76487560Y-95276113D01*
X66712231Y-95276113D01*
X68835118Y-93153228D01*
X68835127Y-93153217D01*
X69982346Y-92006000D01*
X82784518Y-92006000D01*
X82841000Y-92011563D01*
X82897482Y-92006000D01*
X82897492Y-92006000D01*
X83066439Y-91989360D01*
X83283215Y-91923602D01*
X83482997Y-91816816D01*
X83658107Y-91673107D01*
X83694125Y-91629219D01*
X83831768Y-91491576D01*
X91000000Y-91491576D01*
X91000000Y-92368423D01*
X91026045Y-92632861D01*
X91128971Y-92972162D01*
X91296113Y-93284864D01*
X91521050Y-93558950D01*
X91795135Y-93783887D01*
X92107837Y-93951029D01*
X92447138Y-94053955D01*
X92800000Y-94088709D01*
X93152861Y-94053955D01*
X93492162Y-93951029D01*
X93804864Y-93783887D01*
X94078950Y-93558950D01*
X94303887Y-93284865D01*
X94471029Y-92972163D01*
X94573955Y-92632862D01*
X94600000Y-92368424D01*
X94600000Y-91491577D01*
X94600000Y-91491576D01*
X98250000Y-91491576D01*
X98250000Y-92368423D01*
X98276045Y-92632861D01*
X98378971Y-92972162D01*
X98546113Y-93284864D01*
X98771050Y-93558950D01*
X99045135Y-93783887D01*
X99357837Y-93951029D01*
X99697138Y-94053955D01*
X100050000Y-94088709D01*
X100402861Y-94053955D01*
X100742162Y-93951029D01*
X101054864Y-93783887D01*
X101328950Y-93558950D01*
X101553887Y-93284865D01*
X101721029Y-92972163D01*
X101823955Y-92632862D01*
X101850000Y-92368424D01*
X101850000Y-91491577D01*
X101823955Y-91227138D01*
X101721029Y-90887837D01*
X101553887Y-90575135D01*
X101328950Y-90301050D01*
X101054865Y-90076113D01*
X100742163Y-89908971D01*
X100402862Y-89806045D01*
X100050000Y-89771291D01*
X99697139Y-89806045D01*
X99357838Y-89908971D01*
X99045136Y-90076113D01*
X98771051Y-90301050D01*
X98546113Y-90575135D01*
X98378971Y-90887837D01*
X98276045Y-91227138D01*
X98250000Y-91491576D01*
X94600000Y-91491576D01*
X94573955Y-91227138D01*
X94471029Y-90887837D01*
X94303887Y-90575135D01*
X94078950Y-90301050D01*
X93804865Y-90076113D01*
X93492163Y-89908971D01*
X93152862Y-89806045D01*
X92800000Y-89771291D01*
X92447139Y-89806045D01*
X92107838Y-89908971D01*
X91795136Y-90076113D01*
X91521051Y-90301050D01*
X91296113Y-90575135D01*
X91128971Y-90887837D01*
X91026045Y-91227138D01*
X91000000Y-91491576D01*
X83831768Y-91491576D01*
X87508345Y-87815000D01*
X103065656Y-87815000D01*
X106070772Y-90820118D01*
X106070778Y-90820123D01*
X106110918Y-90860263D01*
X106158120Y-90891802D01*
X106202002Y-90927815D01*
X106252067Y-90954575D01*
X106299271Y-90986116D01*
X106351721Y-91007842D01*
X106401784Y-91034601D01*
X106456101Y-91051078D01*
X106508557Y-91072806D01*
X106564247Y-91083884D01*
X106618560Y-91100359D01*
X106675043Y-91105922D01*
X106730735Y-91117000D01*
X106787517Y-91117000D01*
X106843999Y-91122563D01*
X106900481Y-91117000D01*
X106957265Y-91117000D01*
X107012959Y-91105922D01*
X107069438Y-91100359D01*
X107123748Y-91083885D01*
X107179443Y-91072806D01*
X107231902Y-91051076D01*
X107286215Y-91034601D01*
X107336273Y-91007844D01*
X107388729Y-90986116D01*
X107435940Y-90954571D01*
X107485996Y-90927815D01*
X107529870Y-90891809D01*
X107577082Y-90860263D01*
X107617227Y-90820118D01*
X107661107Y-90784107D01*
X107697118Y-90740227D01*
X107737263Y-90700082D01*
X107768809Y-90652870D01*
X107804815Y-90608996D01*
X107831571Y-90558940D01*
X107863116Y-90511729D01*
X107884844Y-90459273D01*
X107911601Y-90409215D01*
X107928076Y-90354902D01*
X107949806Y-90302443D01*
X107960885Y-90246748D01*
X107977359Y-90192438D01*
X107982922Y-90135959D01*
X107994000Y-90080265D01*
X107994000Y-90023481D01*
X107999563Y-89966999D01*
X107994000Y-89910517D01*
X107994000Y-89853735D01*
X107982922Y-89798043D01*
X107977359Y-89741560D01*
X107960884Y-89687247D01*
X107949806Y-89631557D01*
X107928078Y-89579101D01*
X107911601Y-89524784D01*
X107884842Y-89474721D01*
X107863116Y-89422271D01*
X107831575Y-89375067D01*
X107804815Y-89325002D01*
X107768802Y-89281120D01*
X107737263Y-89233918D01*
X107697123Y-89193778D01*
X107697118Y-89193772D01*
X105833345Y-87330000D01*
X110043226Y-87330000D01*
X110070257Y-87604448D01*
X110150310Y-87868349D01*
X110280310Y-88111562D01*
X110455261Y-88324739D01*
X110668438Y-88499690D01*
X110727526Y-88531273D01*
X110673046Y-88569569D01*
X110501565Y-88749354D01*
X110368453Y-88959139D01*
X110290924Y-89182582D01*
X110404774Y-89376000D01*
X111796000Y-89376000D01*
X111796000Y-89356000D01*
X112104000Y-89356000D01*
X112104000Y-89376000D01*
X113495226Y-89376000D01*
X113609076Y-89182582D01*
X113531547Y-88959139D01*
X113398435Y-88749354D01*
X113226954Y-88569569D01*
X113172474Y-88531273D01*
X113231562Y-88499690D01*
X113444739Y-88324739D01*
X113619690Y-88111562D01*
X113749690Y-87868349D01*
X113829743Y-87604448D01*
X113856774Y-87330000D01*
X113829743Y-87055552D01*
X113749690Y-86791651D01*
X113619690Y-86548438D01*
X113444739Y-86335261D01*
X113231562Y-86160310D01*
X112988349Y-86030310D01*
X112724448Y-85950257D01*
X112518777Y-85930000D01*
X111381223Y-85930000D01*
X111175552Y-85950257D01*
X110911651Y-86030310D01*
X110668438Y-86160310D01*
X110455261Y-86335261D01*
X110280310Y-86548438D01*
X110150310Y-86791651D01*
X110070257Y-87055552D01*
X110043226Y-87330000D01*
X105833345Y-87330000D01*
X104395124Y-85891780D01*
X104359107Y-85847893D01*
X104183997Y-85704184D01*
X103984215Y-85597398D01*
X103767439Y-85531640D01*
X103598492Y-85515000D01*
X103598482Y-85515000D01*
X103542000Y-85509437D01*
X103485518Y-85515000D01*
X99922400Y-85515000D01*
X99922400Y-81773178D01*
X105483989Y-81773178D01*
X105483989Y-82080952D01*
X105544033Y-82382812D01*
X105661813Y-82667158D01*
X105832803Y-82923062D01*
X106050432Y-83140691D01*
X106306336Y-83311681D01*
X106590682Y-83429461D01*
X106892542Y-83489505D01*
X107200316Y-83489505D01*
X107502176Y-83429461D01*
X107786522Y-83311681D01*
X108042426Y-83140691D01*
X108260055Y-82923062D01*
X108431045Y-82667158D01*
X108548825Y-82382812D01*
X108608869Y-82080952D01*
X108608869Y-81773178D01*
X110483989Y-81773178D01*
X110483989Y-82080952D01*
X110544033Y-82382812D01*
X110661813Y-82667158D01*
X110832803Y-82923062D01*
X111050432Y-83140691D01*
X111306336Y-83311681D01*
X111590682Y-83429461D01*
X111892542Y-83489505D01*
X112200316Y-83489505D01*
X112502176Y-83429461D01*
X112786522Y-83311681D01*
X113042426Y-83140691D01*
X113260055Y-82923062D01*
X113431045Y-82667158D01*
X113548825Y-82382812D01*
X113608869Y-82080952D01*
X113608869Y-81773178D01*
X113548825Y-81471318D01*
X113431045Y-81186972D01*
X113260055Y-80931068D01*
X113042426Y-80713439D01*
X112786522Y-80542449D01*
X112502176Y-80424669D01*
X112200316Y-80364625D01*
X111892542Y-80364625D01*
X111590682Y-80424669D01*
X111306336Y-80542449D01*
X111050432Y-80713439D01*
X110832803Y-80931068D01*
X110661813Y-81186972D01*
X110544033Y-81471318D01*
X110483989Y-81773178D01*
X108608869Y-81773178D01*
X108548825Y-81471318D01*
X108431045Y-81186972D01*
X108260055Y-80931068D01*
X108042426Y-80713439D01*
X107786522Y-80542449D01*
X107502176Y-80424669D01*
X107200316Y-80364625D01*
X106892542Y-80364625D01*
X106590682Y-80424669D01*
X106306336Y-80542449D01*
X106050432Y-80713439D01*
X105832803Y-80931068D01*
X105661813Y-81186972D01*
X105544033Y-81471318D01*
X105483989Y-81773178D01*
X99922400Y-81773178D01*
X99922400Y-80176482D01*
X99926269Y-80137199D01*
X99922400Y-80097916D01*
X99922400Y-80097907D01*
X99910824Y-79980373D01*
X99865079Y-79829572D01*
X99827892Y-79760000D01*
X99790793Y-79690593D01*
X99715869Y-79599298D01*
X99690822Y-79568778D01*
X99660303Y-79543732D01*
X98493635Y-78377065D01*
X114096429Y-78377065D01*
X114096430Y-84904950D01*
X114094252Y-84927065D01*
X114102940Y-85015280D01*
X114128672Y-85100106D01*
X114170458Y-85178281D01*
X114226692Y-85246802D01*
X114295213Y-85303036D01*
X114373388Y-85344822D01*
X114458214Y-85370554D01*
X114524324Y-85377065D01*
X114524325Y-85377065D01*
X114546429Y-85379242D01*
X114568534Y-85377065D01*
X115096550Y-85377065D01*
X115099361Y-95905118D01*
X115067675Y-96228277D01*
X114980196Y-96518022D01*
X114838108Y-96785252D01*
X114646818Y-97019797D01*
X114413614Y-97212720D01*
X114147382Y-97356671D01*
X113858260Y-97446170D01*
X113536389Y-97480000D01*
X76548965Y-97480000D01*
X42568464Y-97477068D01*
X42245787Y-97445429D01*
X41956590Y-97358115D01*
X41689866Y-97216295D01*
X41455767Y-97025368D01*
X41263210Y-96792609D01*
X41119530Y-96526877D01*
X41030202Y-96238303D01*
X40996429Y-95916977D01*
X40996429Y-85377065D01*
X41524324Y-85377065D01*
X41546429Y-85379242D01*
X41568533Y-85377065D01*
X41568534Y-85377065D01*
X41634644Y-85370554D01*
X41719470Y-85344822D01*
X41797645Y-85303036D01*
X41866166Y-85246802D01*
X41922400Y-85178281D01*
X41964186Y-85100106D01*
X41989918Y-85015280D01*
X41991997Y-84994175D01*
X41996429Y-84949170D01*
X41996429Y-84949169D01*
X41998606Y-84927065D01*
X41996429Y-84904960D01*
X41996429Y-81773178D01*
X42483989Y-81773178D01*
X42483989Y-82080952D01*
X42544033Y-82382812D01*
X42661813Y-82667158D01*
X42832803Y-82923062D01*
X43050432Y-83140691D01*
X43306336Y-83311681D01*
X43590682Y-83429461D01*
X43892542Y-83489505D01*
X44200316Y-83489505D01*
X44502176Y-83429461D01*
X44786522Y-83311681D01*
X45042426Y-83140691D01*
X45260055Y-82923062D01*
X45431045Y-82667158D01*
X45548825Y-82382812D01*
X45608869Y-82080952D01*
X45608869Y-81773178D01*
X47483989Y-81773178D01*
X47483989Y-82080952D01*
X47544033Y-82382812D01*
X47661813Y-82667158D01*
X47832803Y-82923062D01*
X48050432Y-83140691D01*
X48306336Y-83311681D01*
X48590682Y-83429461D01*
X48892542Y-83489505D01*
X49200316Y-83489505D01*
X49502176Y-83429461D01*
X49786522Y-83311681D01*
X50042426Y-83140691D01*
X50260055Y-82923062D01*
X50431045Y-82667158D01*
X50548825Y-82382812D01*
X50608869Y-82080952D01*
X50608869Y-81773178D01*
X50548825Y-81471318D01*
X50431045Y-81186972D01*
X50260055Y-80931068D01*
X50042426Y-80713439D01*
X49786522Y-80542449D01*
X49502176Y-80424669D01*
X49200316Y-80364625D01*
X48892542Y-80364625D01*
X48590682Y-80424669D01*
X48306336Y-80542449D01*
X48050432Y-80713439D01*
X47832803Y-80931068D01*
X47661813Y-81186972D01*
X47544033Y-81471318D01*
X47483989Y-81773178D01*
X45608869Y-81773178D01*
X45548825Y-81471318D01*
X45431045Y-81186972D01*
X45260055Y-80931068D01*
X45042426Y-80713439D01*
X44786522Y-80542449D01*
X44502176Y-80424669D01*
X44200316Y-80364625D01*
X43892542Y-80364625D01*
X43590682Y-80424669D01*
X43306336Y-80542449D01*
X43050432Y-80713439D01*
X42832803Y-80931068D01*
X42661813Y-81186972D01*
X42544033Y-81471318D01*
X42483989Y-81773178D01*
X41996429Y-81773178D01*
X41996429Y-79760000D01*
X59018065Y-79760000D01*
X59018065Y-81460000D01*
X59025788Y-81538414D01*
X59048660Y-81613814D01*
X59085803Y-81683303D01*
X59135789Y-81744211D01*
X59196697Y-81794197D01*
X59266186Y-81831340D01*
X59341586Y-81854212D01*
X59420000Y-81861935D01*
X61120000Y-81861935D01*
X61198414Y-81854212D01*
X61273814Y-81831340D01*
X61343303Y-81794197D01*
X61404211Y-81744211D01*
X61454197Y-81683303D01*
X61491340Y-81613814D01*
X61514212Y-81538414D01*
X61521935Y-81460000D01*
X61521935Y-79799000D01*
X61853234Y-79799000D01*
X61839062Y-79813172D01*
X61702265Y-80017903D01*
X61608037Y-80245389D01*
X61560000Y-80486886D01*
X61560000Y-80733114D01*
X61608037Y-80974611D01*
X61702265Y-81202097D01*
X61839062Y-81406828D01*
X62013172Y-81580938D01*
X62217903Y-81717735D01*
X62445389Y-81811963D01*
X62686886Y-81860000D01*
X62933114Y-81860000D01*
X63174611Y-81811963D01*
X63402097Y-81717735D01*
X63606828Y-81580938D01*
X63780938Y-81406828D01*
X63917735Y-81202097D01*
X64011963Y-80974611D01*
X64060000Y-80733114D01*
X64060000Y-80486886D01*
X64011963Y-80245389D01*
X63917735Y-80017903D01*
X63780938Y-79813172D01*
X63766766Y-79799000D01*
X64393234Y-79799000D01*
X64379062Y-79813172D01*
X64242265Y-80017903D01*
X64148037Y-80245389D01*
X64100000Y-80486886D01*
X64100000Y-80733114D01*
X64148037Y-80974611D01*
X64242265Y-81202097D01*
X64379062Y-81406828D01*
X64553172Y-81580938D01*
X64757903Y-81717735D01*
X64985389Y-81811963D01*
X65226886Y-81860000D01*
X65473114Y-81860000D01*
X65714611Y-81811963D01*
X65942097Y-81717735D01*
X66146828Y-81580938D01*
X66320938Y-81406828D01*
X66457735Y-81202097D01*
X66551963Y-80974611D01*
X66600000Y-80733114D01*
X66600000Y-80486886D01*
X66551963Y-80245389D01*
X66457735Y-80017903D01*
X66320938Y-79813172D01*
X66306766Y-79799000D01*
X66933234Y-79799000D01*
X66919062Y-79813172D01*
X66782265Y-80017903D01*
X66688037Y-80245389D01*
X66640000Y-80486886D01*
X66640000Y-80733114D01*
X66688037Y-80974611D01*
X66782265Y-81202097D01*
X66919062Y-81406828D01*
X67093172Y-81580938D01*
X67297903Y-81717735D01*
X67525389Y-81811963D01*
X67766886Y-81860000D01*
X68013114Y-81860000D01*
X68254611Y-81811963D01*
X68436110Y-81736783D01*
X67742895Y-82430000D01*
X63574549Y-82430000D01*
X63549999Y-82427582D01*
X63525449Y-82430000D01*
X63525440Y-82430000D01*
X63451983Y-82437235D01*
X63357733Y-82465825D01*
X63270871Y-82512254D01*
X63194736Y-82574736D01*
X63179080Y-82593813D01*
X61713824Y-84059071D01*
X61694736Y-84074736D01*
X61632254Y-84150871D01*
X61585825Y-84237734D01*
X61566658Y-84300919D01*
X61557235Y-84331983D01*
X61547581Y-84430000D01*
X61550000Y-84454560D01*
X61550001Y-87440049D01*
X61506274Y-87483776D01*
X61429668Y-87598426D01*
X61376901Y-87725818D01*
X61350000Y-87861056D01*
X61350000Y-87998944D01*
X61376901Y-88134182D01*
X61429668Y-88261574D01*
X61506274Y-88376224D01*
X61603776Y-88473726D01*
X61718426Y-88550332D01*
X61845818Y-88603099D01*
X61981056Y-88630000D01*
X62118944Y-88630000D01*
X62254182Y-88603099D01*
X62381574Y-88550332D01*
X62496224Y-88473726D01*
X62593726Y-88376224D01*
X62670332Y-88261574D01*
X62723099Y-88134182D01*
X62750000Y-87998944D01*
X62750000Y-87861056D01*
X62723099Y-87725818D01*
X62670332Y-87598426D01*
X62593726Y-87483776D01*
X62550000Y-87440050D01*
X62550000Y-84637105D01*
X63757107Y-83430000D01*
X63842895Y-83430000D01*
X63713819Y-83559076D01*
X63694737Y-83574736D01*
X63632255Y-83650871D01*
X63605504Y-83700919D01*
X63585826Y-83737733D01*
X63557235Y-83831983D01*
X63547581Y-83930000D01*
X63550001Y-83954570D01*
X63550000Y-87440050D01*
X63506274Y-87483776D01*
X63429668Y-87598426D01*
X63376901Y-87725818D01*
X63350000Y-87861056D01*
X63350000Y-87998944D01*
X63376901Y-88134182D01*
X63429668Y-88261574D01*
X63506274Y-88376224D01*
X63603776Y-88473726D01*
X63718426Y-88550332D01*
X63845818Y-88603099D01*
X63981056Y-88630000D01*
X64118944Y-88630000D01*
X64254182Y-88603099D01*
X64381574Y-88550332D01*
X64496224Y-88473726D01*
X64593726Y-88376224D01*
X64670332Y-88261574D01*
X64723099Y-88134182D01*
X64750000Y-87998944D01*
X64750000Y-87861056D01*
X64723099Y-87725818D01*
X64670332Y-87598426D01*
X64593726Y-87483776D01*
X64550000Y-87440050D01*
X64550000Y-87276113D01*
X76487560Y-87276113D01*
X76487560Y-87583887D01*
X76547604Y-87885747D01*
X76665384Y-88170093D01*
X76836374Y-88425997D01*
X77054003Y-88643626D01*
X77309907Y-88814616D01*
X77594253Y-88932396D01*
X77896113Y-88992440D01*
X78203887Y-88992440D01*
X78505747Y-88932396D01*
X78790093Y-88814616D01*
X79045997Y-88643626D01*
X79263626Y-88425997D01*
X79434616Y-88170093D01*
X79552396Y-87885747D01*
X79612440Y-87583887D01*
X79612440Y-87276113D01*
X79552396Y-86974253D01*
X79434616Y-86689907D01*
X79263626Y-86434003D01*
X79045997Y-86216374D01*
X78790093Y-86045384D01*
X78505747Y-85927604D01*
X78203887Y-85867560D01*
X77896113Y-85867560D01*
X77594253Y-85927604D01*
X77309907Y-86045384D01*
X77054003Y-86216374D01*
X76836374Y-86434003D01*
X76665384Y-86689907D01*
X76547604Y-86974253D01*
X76487560Y-87276113D01*
X64550000Y-87276113D01*
X64550000Y-84137105D01*
X64857106Y-83830000D01*
X68325440Y-83830000D01*
X68350000Y-83832419D01*
X68374560Y-83830000D01*
X68448017Y-83822765D01*
X68542267Y-83794175D01*
X68629129Y-83747746D01*
X68705264Y-83685264D01*
X68720929Y-83666176D01*
X69757107Y-82630000D01*
X70725440Y-82630000D01*
X70750000Y-82632419D01*
X70774560Y-82630000D01*
X70848017Y-82622765D01*
X70942267Y-82594175D01*
X71029129Y-82547746D01*
X71105264Y-82485264D01*
X71120929Y-82466176D01*
X72086187Y-81500920D01*
X72090014Y-81497780D01*
X72173172Y-81580938D01*
X72377903Y-81717735D01*
X72605389Y-81811963D01*
X72846886Y-81860000D01*
X73093114Y-81860000D01*
X73334611Y-81811963D01*
X73562097Y-81717735D01*
X73766828Y-81580938D01*
X73940938Y-81406828D01*
X74077735Y-81202097D01*
X74171963Y-80974611D01*
X74220000Y-80733114D01*
X74220000Y-80486886D01*
X74260000Y-80486886D01*
X74260000Y-80733114D01*
X74308037Y-80974611D01*
X74402265Y-81202097D01*
X74539062Y-81406828D01*
X74713172Y-81580938D01*
X74917903Y-81717735D01*
X75145389Y-81811963D01*
X75386886Y-81860000D01*
X75633114Y-81860000D01*
X75874611Y-81811963D01*
X76102097Y-81717735D01*
X76306828Y-81580938D01*
X76480938Y-81406828D01*
X76617735Y-81202097D01*
X76711963Y-80974611D01*
X76760000Y-80733114D01*
X76760000Y-80486886D01*
X76800000Y-80486886D01*
X76800000Y-80733114D01*
X76848037Y-80974611D01*
X76942265Y-81202097D01*
X77079062Y-81406828D01*
X77253172Y-81580938D01*
X77457903Y-81717735D01*
X77685389Y-81811963D01*
X77926886Y-81860000D01*
X78173114Y-81860000D01*
X78414611Y-81811963D01*
X78642097Y-81717735D01*
X78846828Y-81580938D01*
X79020938Y-81406828D01*
X79157735Y-81202097D01*
X79251963Y-80974611D01*
X79300000Y-80733114D01*
X79300000Y-80486886D01*
X79340000Y-80486886D01*
X79340000Y-80733114D01*
X79388037Y-80974611D01*
X79482265Y-81202097D01*
X79619062Y-81406828D01*
X79793172Y-81580938D01*
X79997903Y-81717735D01*
X80225389Y-81811963D01*
X80466886Y-81860000D01*
X80713114Y-81860000D01*
X80954611Y-81811963D01*
X81182097Y-81717735D01*
X81386828Y-81580938D01*
X81560938Y-81406828D01*
X81697735Y-81202097D01*
X81791963Y-80974611D01*
X81840000Y-80733114D01*
X81840000Y-80486886D01*
X81791963Y-80245389D01*
X81697735Y-80017903D01*
X81560938Y-79813172D01*
X81386828Y-79639062D01*
X81182097Y-79502265D01*
X80954611Y-79408037D01*
X80713114Y-79360000D01*
X80466886Y-79360000D01*
X80225389Y-79408037D01*
X79997903Y-79502265D01*
X79793172Y-79639062D01*
X79619062Y-79813172D01*
X79482265Y-80017903D01*
X79388037Y-80245389D01*
X79340000Y-80486886D01*
X79300000Y-80486886D01*
X79251963Y-80245389D01*
X79157735Y-80017903D01*
X79020938Y-79813172D01*
X78846828Y-79639062D01*
X78642097Y-79502265D01*
X78414611Y-79408037D01*
X78173114Y-79360000D01*
X77926886Y-79360000D01*
X77685389Y-79408037D01*
X77457903Y-79502265D01*
X77253172Y-79639062D01*
X77079062Y-79813172D01*
X76942265Y-80017903D01*
X76848037Y-80245389D01*
X76800000Y-80486886D01*
X76760000Y-80486886D01*
X76711963Y-80245389D01*
X76617735Y-80017903D01*
X76480938Y-79813172D01*
X76306828Y-79639062D01*
X76102097Y-79502265D01*
X75874611Y-79408037D01*
X75633114Y-79360000D01*
X75386886Y-79360000D01*
X75145389Y-79408037D01*
X74917903Y-79502265D01*
X74713172Y-79639062D01*
X74539062Y-79813172D01*
X74402265Y-80017903D01*
X74308037Y-80245389D01*
X74260000Y-80486886D01*
X74220000Y-80486886D01*
X74171963Y-80245389D01*
X74077735Y-80017903D01*
X73940938Y-79813172D01*
X73766828Y-79639062D01*
X73562097Y-79502265D01*
X73334611Y-79408037D01*
X73093114Y-79360000D01*
X72846886Y-79360000D01*
X72605389Y-79408037D01*
X72377903Y-79502265D01*
X72250000Y-79587727D01*
X72250000Y-78235488D01*
X73038597Y-77446893D01*
X73057674Y-77431237D01*
X73120156Y-77355102D01*
X73166585Y-77268240D01*
X73195175Y-77173990D01*
X73202410Y-77100533D01*
X73202410Y-77100524D01*
X73204828Y-77075974D01*
X73202410Y-77051424D01*
X73202410Y-69578588D01*
X73204829Y-69554028D01*
X73195175Y-69456011D01*
X73166585Y-69361761D01*
X73120156Y-69274899D01*
X73057674Y-69198764D01*
X73038597Y-69183108D01*
X70345487Y-66490000D01*
X70553114Y-66490000D01*
X70794611Y-66441963D01*
X71022097Y-66347735D01*
X71226828Y-66210938D01*
X71400938Y-66036828D01*
X71537735Y-65832097D01*
X71631963Y-65604611D01*
X71680000Y-65363114D01*
X71680000Y-65116886D01*
X71631963Y-64875389D01*
X71537735Y-64647903D01*
X71400938Y-64443172D01*
X71226828Y-64269062D01*
X71022097Y-64132265D01*
X70794611Y-64038037D01*
X70553114Y-63990000D01*
X70306886Y-63990000D01*
X70065389Y-64038037D01*
X69837903Y-64132265D01*
X69649893Y-64257890D01*
X69643165Y-64189583D01*
X69635841Y-64165440D01*
X69614575Y-64095333D01*
X69568146Y-64008471D01*
X69505664Y-63932336D01*
X69486587Y-63916680D01*
X68810129Y-63240224D01*
X68794464Y-63221136D01*
X68718329Y-63158654D01*
X68631467Y-63112225D01*
X68537217Y-63083635D01*
X68463760Y-63076400D01*
X68439200Y-63073981D01*
X68414640Y-63076400D01*
X65836068Y-63076400D01*
X65811518Y-63073982D01*
X65786968Y-63076400D01*
X65786959Y-63076400D01*
X65713502Y-63083635D01*
X65619252Y-63112225D01*
X65532390Y-63158654D01*
X65456255Y-63221136D01*
X65440598Y-63240214D01*
X65013823Y-63666991D01*
X64994736Y-63682655D01*
X64932254Y-63758790D01*
X64885825Y-63845653D01*
X64866042Y-63910871D01*
X64857235Y-63939902D01*
X64847581Y-64037919D01*
X64850000Y-64062479D01*
X64850000Y-64094117D01*
X64757903Y-64132265D01*
X64608500Y-64232093D01*
X64608500Y-62649848D01*
X64729818Y-62700099D01*
X64865056Y-62727000D01*
X65002944Y-62727000D01*
X65138182Y-62700099D01*
X65265574Y-62647332D01*
X65380224Y-62570726D01*
X65423950Y-62527000D01*
X69549895Y-62527000D01*
X71806185Y-64783291D01*
X71768037Y-64875389D01*
X71720000Y-65116886D01*
X71720000Y-65363114D01*
X71768037Y-65604611D01*
X71862265Y-65832097D01*
X71999062Y-66036828D01*
X72173172Y-66210938D01*
X72377903Y-66347735D01*
X72605389Y-66441963D01*
X72846886Y-66490000D01*
X73093114Y-66490000D01*
X73334611Y-66441963D01*
X73562097Y-66347735D01*
X73766828Y-66210938D01*
X73940938Y-66036828D01*
X74077735Y-65832097D01*
X74171963Y-65604611D01*
X74220000Y-65363114D01*
X74220000Y-65116886D01*
X74171963Y-64875389D01*
X74077735Y-64647903D01*
X73940938Y-64443172D01*
X73766828Y-64269062D01*
X73562097Y-64132265D01*
X73334611Y-64038037D01*
X73093114Y-63990000D01*
X72846886Y-63990000D01*
X72605389Y-64038037D01*
X72513291Y-64076185D01*
X70127929Y-61690824D01*
X70112264Y-61671736D01*
X70036129Y-61609254D01*
X69949267Y-61562825D01*
X69855017Y-61534235D01*
X69781560Y-61527000D01*
X69757000Y-61524581D01*
X69732440Y-61527000D01*
X65423950Y-61527000D01*
X65380224Y-61483274D01*
X65265574Y-61406668D01*
X65138182Y-61353901D01*
X65002944Y-61327000D01*
X64865056Y-61327000D01*
X64729818Y-61353901D01*
X64608500Y-61404152D01*
X64608500Y-54531976D01*
X64654599Y-54420682D01*
X64681500Y-54285444D01*
X64681500Y-54147556D01*
X64654599Y-54012318D01*
X64601832Y-53884926D01*
X64525226Y-53770276D01*
X64427724Y-53672774D01*
X64313074Y-53596168D01*
X64185682Y-53543401D01*
X64050444Y-53516500D01*
X63912556Y-53516500D01*
X63777318Y-53543401D01*
X63649926Y-53596168D01*
X63535276Y-53672774D01*
X63437774Y-53770276D01*
X63361168Y-53884926D01*
X63308401Y-54012318D01*
X63281500Y-54147556D01*
X63281500Y-54285444D01*
X63308401Y-54420682D01*
X63361168Y-54548074D01*
X63437774Y-54662724D01*
X63535276Y-54760226D01*
X63608501Y-54809153D01*
X63608501Y-55679400D01*
X63554182Y-55656901D01*
X63418944Y-55630000D01*
X63281056Y-55630000D01*
X63145818Y-55656901D01*
X63018426Y-55709668D01*
X62903776Y-55786274D01*
X62806274Y-55883776D01*
X62729668Y-55998426D01*
X62676901Y-56125818D01*
X62650000Y-56261056D01*
X62650000Y-56398944D01*
X62676901Y-56534182D01*
X62729668Y-56661574D01*
X62806274Y-56776224D01*
X62850001Y-56819951D01*
X62850000Y-60922894D01*
X62473819Y-61299076D01*
X62454737Y-61314736D01*
X62392255Y-61390871D01*
X62382208Y-61409668D01*
X62345826Y-61477733D01*
X62317235Y-61571983D01*
X62307581Y-61670000D01*
X62310001Y-61694570D01*
X62310000Y-63434440D01*
X62310000Y-64094117D01*
X62217903Y-64132265D01*
X62013172Y-64269062D01*
X61839062Y-64443172D01*
X61702265Y-64647903D01*
X61608037Y-64875389D01*
X61560000Y-65116886D01*
X61560000Y-65363114D01*
X61608037Y-65604611D01*
X61702265Y-65832097D01*
X61839062Y-66036828D01*
X62013172Y-66210938D01*
X62217903Y-66347735D01*
X62445389Y-66441963D01*
X62686886Y-66490000D01*
X62933114Y-66490000D01*
X63174611Y-66441963D01*
X63402097Y-66347735D01*
X63606828Y-66210938D01*
X63672426Y-66145340D01*
X63690754Y-66179629D01*
X63753236Y-66255764D01*
X63772324Y-66271429D01*
X64626579Y-67125686D01*
X64642236Y-67144764D01*
X64718371Y-67207246D01*
X64805233Y-67253675D01*
X64899483Y-67282265D01*
X64997500Y-67291919D01*
X65022060Y-67289500D01*
X67685995Y-67289500D01*
X68548801Y-68152308D01*
X68548800Y-77593293D01*
X67343095Y-78799000D01*
X60555560Y-78799000D01*
X60531000Y-78796581D01*
X60506440Y-78799000D01*
X60432983Y-78806235D01*
X60338733Y-78834825D01*
X60251871Y-78881254D01*
X60175736Y-78943736D01*
X60160075Y-78962819D01*
X59933819Y-79189076D01*
X59914737Y-79204736D01*
X59852255Y-79280871D01*
X59830128Y-79322268D01*
X59810994Y-79358065D01*
X59420000Y-79358065D01*
X59341586Y-79365788D01*
X59266186Y-79388660D01*
X59196697Y-79425803D01*
X59135789Y-79475789D01*
X59085803Y-79536697D01*
X59048660Y-79606186D01*
X59025788Y-79681586D01*
X59018065Y-79760000D01*
X41996429Y-79760000D01*
X41996429Y-78377065D01*
X66924324Y-78377065D01*
X66946429Y-78379242D01*
X66968533Y-78377065D01*
X66968534Y-78377065D01*
X67034644Y-78370554D01*
X67119470Y-78344822D01*
X67197645Y-78303036D01*
X67266166Y-78246802D01*
X67322400Y-78178281D01*
X67364186Y-78100106D01*
X67389918Y-78015280D01*
X67398606Y-77927065D01*
X67396429Y-77904960D01*
X67396429Y-67949169D01*
X67398606Y-67927065D01*
X67389918Y-67838850D01*
X67364186Y-67754024D01*
X67322400Y-67675849D01*
X67266166Y-67607328D01*
X67197645Y-67551094D01*
X67119470Y-67509308D01*
X67034644Y-67483576D01*
X66968534Y-67477065D01*
X66946429Y-67474888D01*
X66924325Y-67477065D01*
X41996429Y-67477065D01*
X41996429Y-63773178D01*
X42483989Y-63773178D01*
X42483989Y-64080952D01*
X42544033Y-64382812D01*
X42661813Y-64667158D01*
X42832803Y-64923062D01*
X43050432Y-65140691D01*
X43306336Y-65311681D01*
X43590682Y-65429461D01*
X43892542Y-65489505D01*
X44200316Y-65489505D01*
X44502176Y-65429461D01*
X44786522Y-65311681D01*
X45042426Y-65140691D01*
X45260055Y-64923062D01*
X45431045Y-64667158D01*
X45548825Y-64382812D01*
X45608869Y-64080952D01*
X45608869Y-63773178D01*
X47483989Y-63773178D01*
X47483989Y-64080952D01*
X47544033Y-64382812D01*
X47661813Y-64667158D01*
X47832803Y-64923062D01*
X48050432Y-65140691D01*
X48306336Y-65311681D01*
X48590682Y-65429461D01*
X48892542Y-65489505D01*
X49200316Y-65489505D01*
X49502176Y-65429461D01*
X49786522Y-65311681D01*
X50042426Y-65140691D01*
X50066231Y-65116886D01*
X59020000Y-65116886D01*
X59020000Y-65363114D01*
X59068037Y-65604611D01*
X59162265Y-65832097D01*
X59299062Y-66036828D01*
X59473172Y-66210938D01*
X59677903Y-66347735D01*
X59905389Y-66441963D01*
X60146886Y-66490000D01*
X60393114Y-66490000D01*
X60634611Y-66441963D01*
X60862097Y-66347735D01*
X61066828Y-66210938D01*
X61240938Y-66036828D01*
X61377735Y-65832097D01*
X61471963Y-65604611D01*
X61520000Y-65363114D01*
X61520000Y-65116886D01*
X61471963Y-64875389D01*
X61377735Y-64647903D01*
X61240938Y-64443172D01*
X61066828Y-64269062D01*
X60862097Y-64132265D01*
X60650000Y-64044411D01*
X60650000Y-52394950D01*
X60693726Y-52351224D01*
X60770332Y-52236574D01*
X60823099Y-52109182D01*
X60850000Y-51973944D01*
X60850000Y-51836056D01*
X60823099Y-51700818D01*
X60770332Y-51573426D01*
X60693726Y-51458776D01*
X60596224Y-51361274D01*
X60481574Y-51284668D01*
X60354182Y-51231901D01*
X60218944Y-51205000D01*
X60081056Y-51205000D01*
X59945818Y-51231901D01*
X59818426Y-51284668D01*
X59703776Y-51361274D01*
X59606274Y-51458776D01*
X59529668Y-51573426D01*
X59476901Y-51700818D01*
X59450000Y-51836056D01*
X59450000Y-51973944D01*
X59476901Y-52109182D01*
X59529668Y-52236574D01*
X59606274Y-52351224D01*
X59650000Y-52394950D01*
X59650001Y-64150909D01*
X59473172Y-64269062D01*
X59299062Y-64443172D01*
X59162265Y-64647903D01*
X59068037Y-64875389D01*
X59020000Y-65116886D01*
X50066231Y-65116886D01*
X50260055Y-64923062D01*
X50431045Y-64667158D01*
X50548825Y-64382812D01*
X50608869Y-64080952D01*
X50608869Y-63773178D01*
X50548825Y-63471318D01*
X50431045Y-63186972D01*
X50260055Y-62931068D01*
X50042426Y-62713439D01*
X49786522Y-62542449D01*
X49502176Y-62424669D01*
X49200316Y-62364625D01*
X48892542Y-62364625D01*
X48590682Y-62424669D01*
X48306336Y-62542449D01*
X48050432Y-62713439D01*
X47832803Y-62931068D01*
X47661813Y-63186972D01*
X47544033Y-63471318D01*
X47483989Y-63773178D01*
X45608869Y-63773178D01*
X45548825Y-63471318D01*
X45431045Y-63186972D01*
X45260055Y-62931068D01*
X45042426Y-62713439D01*
X44786522Y-62542449D01*
X44502176Y-62424669D01*
X44200316Y-62364625D01*
X43892542Y-62364625D01*
X43590682Y-62424669D01*
X43306336Y-62542449D01*
X43050432Y-62713439D01*
X42832803Y-62931068D01*
X42661813Y-63186972D01*
X42544033Y-63471318D01*
X42483989Y-63773178D01*
X41996429Y-63773178D01*
X41996429Y-60949170D01*
X41998606Y-60927065D01*
X41989918Y-60838850D01*
X41964186Y-60754024D01*
X41922400Y-60675849D01*
X41866166Y-60607328D01*
X41797645Y-60551094D01*
X41719470Y-60509308D01*
X41634644Y-60483576D01*
X41568534Y-60477065D01*
X41546429Y-60474888D01*
X41524325Y-60477065D01*
X40996563Y-60477065D01*
X40998559Y-53768910D01*
X48842097Y-53768910D01*
X48868854Y-53857139D01*
X48986527Y-54117611D01*
X49152754Y-54350122D01*
X49361148Y-54545736D01*
X49573429Y-54678065D01*
X49400000Y-54678065D01*
X49321586Y-54685788D01*
X49246186Y-54708660D01*
X49176697Y-54745803D01*
X49115789Y-54795789D01*
X49065803Y-54856697D01*
X49028660Y-54926186D01*
X49005788Y-55001586D01*
X48998065Y-55080000D01*
X48998065Y-56780000D01*
X49005788Y-56858414D01*
X49028660Y-56933814D01*
X49065803Y-57003303D01*
X49115789Y-57064211D01*
X49176697Y-57114197D01*
X49246186Y-57151340D01*
X49321586Y-57174212D01*
X49400000Y-57181935D01*
X51100000Y-57181935D01*
X51178414Y-57174212D01*
X51253814Y-57151340D01*
X51323303Y-57114197D01*
X51384211Y-57064211D01*
X51434197Y-57003303D01*
X51471340Y-56933814D01*
X51494212Y-56858414D01*
X51501935Y-56780000D01*
X51501935Y-56430000D01*
X52142895Y-56430000D01*
X57750000Y-62037107D01*
X57750000Y-62098944D01*
X57776901Y-62234182D01*
X57829668Y-62361574D01*
X57906274Y-62476224D01*
X58003776Y-62573726D01*
X58118426Y-62650332D01*
X58245818Y-62703099D01*
X58381056Y-62730000D01*
X58518944Y-62730000D01*
X58654182Y-62703099D01*
X58781574Y-62650332D01*
X58896224Y-62573726D01*
X58993726Y-62476224D01*
X59070332Y-62361574D01*
X59123099Y-62234182D01*
X59150000Y-62098944D01*
X59150000Y-61961056D01*
X59123099Y-61825818D01*
X59070332Y-61698426D01*
X58993726Y-61583776D01*
X58896224Y-61486274D01*
X58781574Y-61409668D01*
X58654182Y-61356901D01*
X58518944Y-61330000D01*
X58457107Y-61330000D01*
X52720929Y-55593824D01*
X52705264Y-55574736D01*
X52629129Y-55512254D01*
X52542267Y-55465825D01*
X52448017Y-55437235D01*
X52374560Y-55430000D01*
X52350000Y-55427581D01*
X52325440Y-55430000D01*
X51501935Y-55430000D01*
X51501935Y-55080000D01*
X51494212Y-55001586D01*
X51471340Y-54926186D01*
X51434197Y-54856697D01*
X51384211Y-54795789D01*
X51323303Y-54745803D01*
X51253814Y-54708660D01*
X51178414Y-54685788D01*
X51100000Y-54678065D01*
X50926571Y-54678065D01*
X51138852Y-54545736D01*
X51347246Y-54350122D01*
X51513473Y-54117611D01*
X51631146Y-53857139D01*
X51657903Y-53768910D01*
X51546889Y-53544000D01*
X50404000Y-53544000D01*
X50404000Y-53564000D01*
X50096000Y-53564000D01*
X50096000Y-53544000D01*
X48953111Y-53544000D01*
X48842097Y-53768910D01*
X40998559Y-53768910D01*
X40998784Y-53011090D01*
X48842097Y-53011090D01*
X48953111Y-53236000D01*
X50096000Y-53236000D01*
X50096000Y-52092150D01*
X50404000Y-52092150D01*
X50404000Y-53236000D01*
X51546889Y-53236000D01*
X51657903Y-53011090D01*
X51631146Y-52922861D01*
X51513473Y-52662389D01*
X51347246Y-52429878D01*
X51138852Y-52234264D01*
X50896300Y-52083065D01*
X50628911Y-51982091D01*
X50404000Y-52092150D01*
X50096000Y-52092150D01*
X49871089Y-51982091D01*
X49603700Y-52083065D01*
X49361148Y-52234264D01*
X49152754Y-52429878D01*
X48986527Y-52662389D01*
X48868854Y-52922861D01*
X48842097Y-53011090D01*
X40998784Y-53011090D01*
X40999996Y-48942597D01*
X41030941Y-48626994D01*
X41118089Y-48338346D01*
X41259643Y-48072122D01*
X41450207Y-47838468D01*
X41682527Y-47646277D01*
X41947754Y-47502869D01*
X42235780Y-47413710D01*
X42556510Y-47380000D01*
X75589059Y-47380000D01*
X75589059Y-48436000D01*
G36*
X45240911Y-90930000D02*
G01*
X45237349Y-90977713D01*
X45189636Y-90930000D01*
X45237349Y-90882287D01*
X45240911Y-90930000D01*
G37*
X45240911Y-90930000D02*
X45237349Y-90977713D01*
X45189636Y-90930000D01*
X45237349Y-90882287D01*
X45240911Y-90930000D01*
G36*
X45110364Y-90930000D02*
G01*
X45062651Y-90977713D01*
X45059089Y-90930000D01*
X45062651Y-90882287D01*
X45110364Y-90930000D01*
G37*
X45110364Y-90930000D02*
X45062651Y-90977713D01*
X45059089Y-90930000D01*
X45062651Y-90882287D01*
X45110364Y-90930000D01*
G36*
X45182208Y-90930000D02*
G01*
X45150000Y-90962208D01*
X45117792Y-90930000D01*
X45150000Y-90897792D01*
X45182208Y-90930000D01*
G37*
X45182208Y-90930000D02*
X45150000Y-90962208D01*
X45117792Y-90930000D01*
X45150000Y-90897792D01*
X45182208Y-90930000D01*
G36*
X89953172Y-79639062D02*
G01*
X89779062Y-79813172D01*
X89642265Y-80017903D01*
X89548037Y-80245389D01*
X89500000Y-80486886D01*
X89500000Y-80733114D01*
X89548037Y-80974611D01*
X89642265Y-81202097D01*
X89779062Y-81406828D01*
X89953172Y-81580938D01*
X90157903Y-81717735D01*
X90385389Y-81811963D01*
X90626886Y-81860000D01*
X90873114Y-81860000D01*
X91114611Y-81811963D01*
X91342097Y-81717735D01*
X91546828Y-81580938D01*
X91720938Y-81406828D01*
X91857735Y-81202097D01*
X91912588Y-81069670D01*
X91983065Y-81256300D01*
X92134264Y-81498852D01*
X92329878Y-81707246D01*
X92562389Y-81873473D01*
X92822861Y-81991146D01*
X92911090Y-82017903D01*
X93136000Y-81906889D01*
X93136000Y-80764000D01*
X93116000Y-80764000D01*
X93116000Y-80456000D01*
X93136000Y-80456000D01*
X93136000Y-80436000D01*
X93444000Y-80436000D01*
X93444000Y-80456000D01*
X93464000Y-80456000D01*
X93464000Y-80764000D01*
X93444000Y-80764000D01*
X93444000Y-81906889D01*
X93668910Y-82017903D01*
X93757139Y-81991146D01*
X94017611Y-81873473D01*
X94250122Y-81707246D01*
X94445736Y-81498852D01*
X94596935Y-81256300D01*
X94667412Y-81069670D01*
X94722265Y-81202097D01*
X94859062Y-81406828D01*
X95033172Y-81580938D01*
X95237903Y-81717735D01*
X95465389Y-81811963D01*
X95706886Y-81860000D01*
X95953114Y-81860000D01*
X96194611Y-81811963D01*
X96422097Y-81717735D01*
X96626828Y-81580938D01*
X96800938Y-81406828D01*
X96937735Y-81202097D01*
X97031963Y-80974611D01*
X97080000Y-80733114D01*
X97080000Y-80486886D01*
X97031963Y-80245389D01*
X96937735Y-80017903D01*
X96800938Y-79813172D01*
X96626828Y-79639062D01*
X96592912Y-79616400D01*
X97470230Y-79616400D01*
X98322400Y-80468571D01*
X98322401Y-85515000D01*
X87624284Y-85515000D01*
X87650000Y-85385718D01*
X87650000Y-85247830D01*
X87623099Y-85112592D01*
X87570332Y-84985200D01*
X87493726Y-84870550D01*
X87450000Y-84826824D01*
X87450000Y-81605546D01*
X87617903Y-81717735D01*
X87845389Y-81811963D01*
X88086886Y-81860000D01*
X88333114Y-81860000D01*
X88574611Y-81811963D01*
X88802097Y-81717735D01*
X89006828Y-81580938D01*
X89180938Y-81406828D01*
X89317735Y-81202097D01*
X89411963Y-80974611D01*
X89460000Y-80733114D01*
X89460000Y-80486886D01*
X89411963Y-80245389D01*
X89317735Y-80017903D01*
X89180938Y-79813172D01*
X89006828Y-79639062D01*
X88978239Y-79619960D01*
X89014380Y-79616400D01*
X89987088Y-79616400D01*
X89953172Y-79639062D01*
G37*
X89953172Y-79639062D02*
X89779062Y-79813172D01*
X89642265Y-80017903D01*
X89548037Y-80245389D01*
X89500000Y-80486886D01*
X89500000Y-80733114D01*
X89548037Y-80974611D01*
X89642265Y-81202097D01*
X89779062Y-81406828D01*
X89953172Y-81580938D01*
X90157903Y-81717735D01*
X90385389Y-81811963D01*
X90626886Y-81860000D01*
X90873114Y-81860000D01*
X91114611Y-81811963D01*
X91342097Y-81717735D01*
X91546828Y-81580938D01*
X91720938Y-81406828D01*
X91857735Y-81202097D01*
X91912588Y-81069670D01*
X91983065Y-81256300D01*
X92134264Y-81498852D01*
X92329878Y-81707246D01*
X92562389Y-81873473D01*
X92822861Y-81991146D01*
X92911090Y-82017903D01*
X93136000Y-81906889D01*
X93136000Y-80764000D01*
X93116000Y-80764000D01*
X93116000Y-80456000D01*
X93136000Y-80456000D01*
X93136000Y-80436000D01*
X93444000Y-80436000D01*
X93444000Y-80456000D01*
X93464000Y-80456000D01*
X93464000Y-80764000D01*
X93444000Y-80764000D01*
X93444000Y-81906889D01*
X93668910Y-82017903D01*
X93757139Y-81991146D01*
X94017611Y-81873473D01*
X94250122Y-81707246D01*
X94445736Y-81498852D01*
X94596935Y-81256300D01*
X94667412Y-81069670D01*
X94722265Y-81202097D01*
X94859062Y-81406828D01*
X95033172Y-81580938D01*
X95237903Y-81717735D01*
X95465389Y-81811963D01*
X95706886Y-81860000D01*
X95953114Y-81860000D01*
X96194611Y-81811963D01*
X96422097Y-81717735D01*
X96626828Y-81580938D01*
X96800938Y-81406828D01*
X96937735Y-81202097D01*
X97031963Y-80974611D01*
X97080000Y-80733114D01*
X97080000Y-80486886D01*
X97031963Y-80245389D01*
X96937735Y-80017903D01*
X96800938Y-79813172D01*
X96626828Y-79639062D01*
X96592912Y-79616400D01*
X97470230Y-79616400D01*
X98322400Y-80468571D01*
X98322401Y-85515000D01*
X87624284Y-85515000D01*
X87650000Y-85385718D01*
X87650000Y-85247830D01*
X87623099Y-85112592D01*
X87570332Y-84985200D01*
X87493726Y-84870550D01*
X87450000Y-84826824D01*
X87450000Y-81605546D01*
X87617903Y-81717735D01*
X87845389Y-81811963D01*
X88086886Y-81860000D01*
X88333114Y-81860000D01*
X88574611Y-81811963D01*
X88802097Y-81717735D01*
X89006828Y-81580938D01*
X89180938Y-81406828D01*
X89317735Y-81202097D01*
X89411963Y-80974611D01*
X89460000Y-80733114D01*
X89460000Y-80486886D01*
X89411963Y-80245389D01*
X89317735Y-80017903D01*
X89180938Y-79813172D01*
X89006828Y-79639062D01*
X88978239Y-79619960D01*
X89014380Y-79616400D01*
X89987088Y-79616400D01*
X89953172Y-79639062D01*
G36*
X113812424Y-47405129D02*
G01*
X114104238Y-47485907D01*
X114374795Y-47621824D01*
X114613808Y-47807708D01*
X114812160Y-48036472D01*
X114962301Y-48299409D01*
X115058513Y-48586502D01*
X115099493Y-48905202D01*
X115099987Y-48939711D01*
X115096563Y-60477065D01*
X114568533Y-60477065D01*
X114546429Y-60474888D01*
X114524324Y-60477065D01*
X114458214Y-60483576D01*
X114373388Y-60509308D01*
X114295213Y-60551094D01*
X114226692Y-60607328D01*
X114170458Y-60675849D01*
X114128672Y-60754024D01*
X114102940Y-60838850D01*
X114094252Y-60927065D01*
X114096429Y-60949170D01*
X114096430Y-67477065D01*
X99553505Y-67477065D01*
X100653170Y-66377400D01*
X100785065Y-66377400D01*
X101007243Y-66333206D01*
X101216529Y-66246516D01*
X101404882Y-66120663D01*
X101565063Y-65960482D01*
X101690916Y-65772129D01*
X101777606Y-65562843D01*
X101821800Y-65340665D01*
X101821800Y-65114135D01*
X101777606Y-64891957D01*
X101690916Y-64682671D01*
X101565063Y-64494318D01*
X101404882Y-64334137D01*
X101216529Y-64208284D01*
X101007243Y-64121594D01*
X100785065Y-64077400D01*
X100558535Y-64077400D01*
X100336357Y-64121594D01*
X100127071Y-64208284D01*
X99938718Y-64334137D01*
X99778537Y-64494318D01*
X99652684Y-64682671D01*
X99565994Y-64891957D01*
X99521800Y-65114135D01*
X99521800Y-65246030D01*
X98435430Y-66332400D01*
X96998524Y-66332400D01*
X97014197Y-66313303D01*
X97051340Y-66243814D01*
X97074212Y-66168414D01*
X97081935Y-66090000D01*
X97081935Y-64390000D01*
X97074212Y-64311586D01*
X97051340Y-64236186D01*
X97014197Y-64166697D01*
X96964211Y-64105789D01*
X96903303Y-64055803D01*
X96833814Y-64018660D01*
X96758414Y-63995788D01*
X96680000Y-63988065D01*
X96289007Y-63988065D01*
X96247746Y-63910871D01*
X96185264Y-63834736D01*
X96166187Y-63819080D01*
X96120285Y-63773178D01*
X105483989Y-63773178D01*
X105483989Y-64080952D01*
X105544033Y-64382812D01*
X105661813Y-64667158D01*
X105832803Y-64923062D01*
X106050432Y-65140691D01*
X106306336Y-65311681D01*
X106590682Y-65429461D01*
X106892542Y-65489505D01*
X107200316Y-65489505D01*
X107502176Y-65429461D01*
X107786522Y-65311681D01*
X108042426Y-65140691D01*
X108260055Y-64923062D01*
X108431045Y-64667158D01*
X108548825Y-64382812D01*
X108608869Y-64080952D01*
X108608869Y-63773178D01*
X110483989Y-63773178D01*
X110483989Y-64080952D01*
X110544033Y-64382812D01*
X110661813Y-64667158D01*
X110832803Y-64923062D01*
X111050432Y-65140691D01*
X111306336Y-65311681D01*
X111590682Y-65429461D01*
X111892542Y-65489505D01*
X112200316Y-65489505D01*
X112502176Y-65429461D01*
X112786522Y-65311681D01*
X113042426Y-65140691D01*
X113260055Y-64923062D01*
X113431045Y-64667158D01*
X113548825Y-64382812D01*
X113608869Y-64080952D01*
X113608869Y-63773178D01*
X113548825Y-63471318D01*
X113431045Y-63186972D01*
X113260055Y-62931068D01*
X113042426Y-62713439D01*
X112786522Y-62542449D01*
X112502176Y-62424669D01*
X112200316Y-62364625D01*
X111892542Y-62364625D01*
X111590682Y-62424669D01*
X111306336Y-62542449D01*
X111050432Y-62713439D01*
X110832803Y-62931068D01*
X110661813Y-63186972D01*
X110544033Y-63471318D01*
X110483989Y-63773178D01*
X108608869Y-63773178D01*
X108548825Y-63471318D01*
X108431045Y-63186972D01*
X108260055Y-62931068D01*
X108042426Y-62713439D01*
X107786522Y-62542449D01*
X107502176Y-62424669D01*
X107200316Y-62364625D01*
X106892542Y-62364625D01*
X106590682Y-62424669D01*
X106306336Y-62542449D01*
X106050432Y-62713439D01*
X105832803Y-62931068D01*
X105661813Y-63186972D01*
X105544033Y-63471318D01*
X105483989Y-63773178D01*
X96120285Y-63773178D01*
X89239218Y-56892112D01*
X103810000Y-56892112D01*
X103810000Y-57167888D01*
X103863801Y-57438365D01*
X103969336Y-57693149D01*
X104122549Y-57922448D01*
X104317552Y-58117451D01*
X104546851Y-58270664D01*
X104801635Y-58376199D01*
X105072112Y-58430000D01*
X105347888Y-58430000D01*
X105618365Y-58376199D01*
X105873149Y-58270664D01*
X106102448Y-58117451D01*
X106297451Y-57922448D01*
X106450664Y-57693149D01*
X106480000Y-57622326D01*
X106509336Y-57693149D01*
X106662549Y-57922448D01*
X106857552Y-58117451D01*
X107086851Y-58270664D01*
X107341635Y-58376199D01*
X107612112Y-58430000D01*
X107887888Y-58430000D01*
X108158365Y-58376199D01*
X108413149Y-58270664D01*
X108642448Y-58117451D01*
X108837451Y-57922448D01*
X108990664Y-57693149D01*
X109096199Y-57438365D01*
X109150000Y-57167888D01*
X109150000Y-56892112D01*
X109096199Y-56621635D01*
X108990664Y-56366851D01*
X108837451Y-56137552D01*
X108642448Y-55942549D01*
X108413149Y-55789336D01*
X108158365Y-55683801D01*
X107887888Y-55630000D01*
X107612112Y-55630000D01*
X107341635Y-55683801D01*
X107086851Y-55789336D01*
X106857552Y-55942549D01*
X106662549Y-56137552D01*
X106509336Y-56366851D01*
X106480000Y-56437674D01*
X106450664Y-56366851D01*
X106297451Y-56137552D01*
X106102448Y-55942549D01*
X105873149Y-55789336D01*
X105618365Y-55683801D01*
X105347888Y-55630000D01*
X105072112Y-55630000D01*
X104801635Y-55683801D01*
X104546851Y-55789336D01*
X104317552Y-55942549D01*
X104122549Y-56137552D01*
X103969336Y-56366851D01*
X103863801Y-56621635D01*
X103810000Y-56892112D01*
X89239218Y-56892112D01*
X89135729Y-56788624D01*
X89120064Y-56769536D01*
X89043929Y-56707054D01*
X88957067Y-56660625D01*
X88862817Y-56632035D01*
X88789360Y-56624800D01*
X88764800Y-56622381D01*
X88740240Y-56624800D01*
X79725830Y-56624800D01*
X79773099Y-56510682D01*
X79800000Y-56375444D01*
X79800000Y-56237556D01*
X79773099Y-56102318D01*
X79720332Y-55974926D01*
X79643726Y-55860276D01*
X79600000Y-55816550D01*
X79600000Y-55094688D01*
X79680811Y-55119202D01*
X79745998Y-55125622D01*
X79745998Y-55128000D01*
X79770139Y-55128000D01*
X79800000Y-55130941D01*
X80000000Y-55130941D01*
X80029861Y-55128000D01*
X80054002Y-55128000D01*
X80054002Y-55125622D01*
X80119189Y-55119202D01*
X80233797Y-55084436D01*
X80339421Y-55027979D01*
X80432001Y-54952001D01*
X80507979Y-54859421D01*
X80564436Y-54753797D01*
X80599202Y-54639189D01*
X80610941Y-54520000D01*
X80610941Y-53424000D01*
X80001935Y-53424000D01*
X80001935Y-53116000D01*
X80610941Y-53116000D01*
X80610941Y-52020000D01*
X80599202Y-51900811D01*
X80578814Y-51833600D01*
X81146495Y-51833600D01*
X81850000Y-52537107D01*
X81850001Y-54240049D01*
X81806274Y-54283776D01*
X81729668Y-54398426D01*
X81676901Y-54525818D01*
X81650000Y-54661056D01*
X81650000Y-54798944D01*
X81676901Y-54934182D01*
X81729668Y-55061574D01*
X81806274Y-55176224D01*
X81903776Y-55273726D01*
X82018426Y-55350332D01*
X82145818Y-55403099D01*
X82281056Y-55430000D01*
X82418944Y-55430000D01*
X82554182Y-55403099D01*
X82681574Y-55350332D01*
X82796224Y-55273726D01*
X82893726Y-55176224D01*
X82970332Y-55061574D01*
X83023099Y-54934182D01*
X83050000Y-54798944D01*
X83050000Y-54661056D01*
X83023099Y-54525818D01*
X82970332Y-54398426D01*
X82893726Y-54283776D01*
X82850000Y-54240050D01*
X82850000Y-52354549D01*
X82852418Y-52329999D01*
X82850000Y-52305449D01*
X82850000Y-52305440D01*
X82842765Y-52231983D01*
X82814175Y-52137733D01*
X82767746Y-52050871D01*
X82705264Y-51974736D01*
X82686187Y-51959080D01*
X81724529Y-50997424D01*
X81708864Y-50978336D01*
X81632729Y-50915854D01*
X81545867Y-50869425D01*
X81451617Y-50840835D01*
X81378160Y-50833600D01*
X81353600Y-50831181D01*
X81329040Y-50833600D01*
X79080960Y-50833600D01*
X79056400Y-50831181D01*
X79031840Y-50833600D01*
X78958383Y-50840835D01*
X78864133Y-50869425D01*
X78777271Y-50915854D01*
X78701136Y-50978336D01*
X78685479Y-50997414D01*
X78363819Y-51319076D01*
X78344737Y-51334736D01*
X78283742Y-51409059D01*
X78200000Y-51409059D01*
X78170139Y-51412000D01*
X78145998Y-51412000D01*
X78145998Y-51414378D01*
X78100000Y-51418908D01*
X78054002Y-51414378D01*
X78054002Y-51412000D01*
X78029861Y-51412000D01*
X78000000Y-51409059D01*
X77800000Y-51409059D01*
X77770139Y-51412000D01*
X77745998Y-51412000D01*
X77745998Y-51414378D01*
X77680811Y-51420798D01*
X77566203Y-51455564D01*
X77460579Y-51512021D01*
X77367999Y-51587999D01*
X77338341Y-51624138D01*
X77321586Y-51625788D01*
X77300000Y-51632336D01*
X77278414Y-51625788D01*
X77200000Y-51618065D01*
X77000000Y-51618065D01*
X76921586Y-51625788D01*
X76900000Y-51632336D01*
X76878414Y-51625788D01*
X76861659Y-51624138D01*
X76848005Y-51607500D01*
X77436187Y-51019320D01*
X77455264Y-51003664D01*
X77517746Y-50927529D01*
X77564175Y-50840667D01*
X77592765Y-50746417D01*
X77600000Y-50672960D01*
X77600000Y-50672951D01*
X77602418Y-50648401D01*
X77600000Y-50623851D01*
X77600000Y-50450941D01*
X77629861Y-50448000D01*
X77654002Y-50448000D01*
X77654002Y-50445622D01*
X77719189Y-50439202D01*
X77833797Y-50404436D01*
X77939421Y-50347979D01*
X78032001Y-50272001D01*
X78061659Y-50235862D01*
X78078414Y-50234212D01*
X78100000Y-50227664D01*
X78121586Y-50234212D01*
X78200000Y-50241935D01*
X78400000Y-50241935D01*
X78478414Y-50234212D01*
X78500000Y-50227664D01*
X78521586Y-50234212D01*
X78600000Y-50241935D01*
X78800000Y-50241935D01*
X78878414Y-50234212D01*
X78900000Y-50227664D01*
X78921586Y-50234212D01*
X79000000Y-50241935D01*
X79200000Y-50241935D01*
X79278414Y-50234212D01*
X79300000Y-50227664D01*
X79321586Y-50234212D01*
X79338341Y-50235862D01*
X79367999Y-50272001D01*
X79460579Y-50347979D01*
X79566203Y-50404436D01*
X79680811Y-50439202D01*
X79745998Y-50445622D01*
X79745998Y-50448000D01*
X79770139Y-50448000D01*
X79800000Y-50450941D01*
X80000000Y-50450941D01*
X80029861Y-50448000D01*
X80054002Y-50448000D01*
X80054002Y-50445622D01*
X80119189Y-50439202D01*
X80233797Y-50404436D01*
X80339421Y-50347979D01*
X80385188Y-50310419D01*
X94835875Y-50310419D01*
X94835875Y-50549581D01*
X94882533Y-50784147D01*
X94974056Y-51005104D01*
X95106927Y-51203960D01*
X95276040Y-51373073D01*
X95474896Y-51505944D01*
X95695853Y-51597467D01*
X95930419Y-51644125D01*
X96169581Y-51644125D01*
X96404147Y-51597467D01*
X96625104Y-51505944D01*
X96823960Y-51373073D01*
X96993073Y-51203960D01*
X97125944Y-51005104D01*
X97217467Y-50784147D01*
X97264125Y-50549581D01*
X97264125Y-50314623D01*
X98378561Y-50314623D01*
X98378561Y-50545377D01*
X98423579Y-50771696D01*
X98511884Y-50984884D01*
X98640084Y-51176749D01*
X98803251Y-51339916D01*
X98995116Y-51468116D01*
X99208304Y-51556421D01*
X99434623Y-51601439D01*
X99665377Y-51601439D01*
X99891696Y-51556421D01*
X100104884Y-51468116D01*
X100296749Y-51339916D01*
X100459916Y-51176749D01*
X100588116Y-50984884D01*
X100676421Y-50771696D01*
X100721439Y-50545377D01*
X100721439Y-50314623D01*
X100676421Y-50088304D01*
X100588116Y-49875116D01*
X100459916Y-49683251D01*
X100296749Y-49520084D01*
X100104884Y-49391884D01*
X99891696Y-49303579D01*
X99665377Y-49258561D01*
X99434623Y-49258561D01*
X99208304Y-49303579D01*
X98995116Y-49391884D01*
X98803251Y-49520084D01*
X98640084Y-49683251D01*
X98511884Y-49875116D01*
X98423579Y-50088304D01*
X98378561Y-50314623D01*
X97264125Y-50314623D01*
X97264125Y-50310419D01*
X97217467Y-50075853D01*
X97125944Y-49854896D01*
X96993073Y-49656040D01*
X96823960Y-49486927D01*
X96625104Y-49354056D01*
X96404147Y-49262533D01*
X96169581Y-49215875D01*
X95930419Y-49215875D01*
X95695853Y-49262533D01*
X95474896Y-49354056D01*
X95276040Y-49486927D01*
X95106927Y-49656040D01*
X94974056Y-49854896D01*
X94882533Y-50075853D01*
X94835875Y-50310419D01*
X80385188Y-50310419D01*
X80432001Y-50272001D01*
X80507979Y-50179421D01*
X80564436Y-50073797D01*
X80599202Y-49959189D01*
X80610941Y-49840000D01*
X80610941Y-48744000D01*
X80001935Y-48744000D01*
X80001935Y-48436000D01*
X80610941Y-48436000D01*
X80610941Y-47930000D01*
X101864365Y-47930000D01*
X101864365Y-52930000D01*
X101866286Y-52949509D01*
X101871977Y-52968268D01*
X101881218Y-52985557D01*
X101893654Y-53000711D01*
X102893654Y-54000711D01*
X102908808Y-54013147D01*
X102926097Y-54022388D01*
X102944856Y-54028079D01*
X102964365Y-54030000D01*
X104318145Y-54030000D01*
X104248429Y-54198311D01*
X104210000Y-54391509D01*
X104210000Y-54588491D01*
X104248429Y-54781689D01*
X104323811Y-54963678D01*
X104433249Y-55127463D01*
X104572537Y-55266751D01*
X104736322Y-55376189D01*
X104918311Y-55451571D01*
X105111509Y-55490000D01*
X105308491Y-55490000D01*
X105501689Y-55451571D01*
X105683678Y-55376189D01*
X105847463Y-55266751D01*
X105986751Y-55127463D01*
X106096189Y-54963678D01*
X106171571Y-54781689D01*
X106210000Y-54588491D01*
X106210000Y-54391509D01*
X106171571Y-54198311D01*
X106101855Y-54030000D01*
X106858145Y-54030000D01*
X106788429Y-54198311D01*
X106750000Y-54391509D01*
X106750000Y-54588491D01*
X106788429Y-54781689D01*
X106863811Y-54963678D01*
X106973249Y-55127463D01*
X107112537Y-55266751D01*
X107276322Y-55376189D01*
X107458311Y-55451571D01*
X107651509Y-55490000D01*
X107848491Y-55490000D01*
X108041689Y-55451571D01*
X108223678Y-55376189D01*
X108387463Y-55266751D01*
X108526751Y-55127463D01*
X108636189Y-54963678D01*
X108711571Y-54781689D01*
X108750000Y-54588491D01*
X108750000Y-54391509D01*
X108711571Y-54198311D01*
X108641855Y-54030000D01*
X109964365Y-54030000D01*
X109983874Y-54028079D01*
X110002633Y-54022388D01*
X110019922Y-54013147D01*
X110035076Y-54000711D01*
X111035076Y-53000711D01*
X111047512Y-52985557D01*
X111056753Y-52968268D01*
X111062444Y-52949509D01*
X111064365Y-52930000D01*
X111064365Y-50310419D01*
X111835875Y-50310419D01*
X111835875Y-50549581D01*
X111882533Y-50784147D01*
X111974056Y-51005104D01*
X112106927Y-51203960D01*
X112276040Y-51373073D01*
X112474896Y-51505944D01*
X112695853Y-51597467D01*
X112930419Y-51644125D01*
X113169581Y-51644125D01*
X113404147Y-51597467D01*
X113625104Y-51505944D01*
X113823960Y-51373073D01*
X113993073Y-51203960D01*
X114125944Y-51005104D01*
X114217467Y-50784147D01*
X114264125Y-50549581D01*
X114264125Y-50310419D01*
X114217467Y-50075853D01*
X114125944Y-49854896D01*
X113993073Y-49656040D01*
X113823960Y-49486927D01*
X113625104Y-49354056D01*
X113404147Y-49262533D01*
X113169581Y-49215875D01*
X112930419Y-49215875D01*
X112695853Y-49262533D01*
X112474896Y-49354056D01*
X112276040Y-49486927D01*
X112106927Y-49656040D01*
X111974056Y-49854896D01*
X111882533Y-50075853D01*
X111835875Y-50310419D01*
X111064365Y-50310419D01*
X111064365Y-47930000D01*
X111062444Y-47910491D01*
X111056753Y-47891732D01*
X111047512Y-47874443D01*
X111035076Y-47859289D01*
X111019922Y-47846853D01*
X111002633Y-47837612D01*
X110983874Y-47831921D01*
X110964365Y-47830000D01*
X101964365Y-47830000D01*
X101944856Y-47831921D01*
X101926097Y-47837612D01*
X101908808Y-47846853D01*
X101893654Y-47859289D01*
X101881218Y-47874443D01*
X101871977Y-47891732D01*
X101866286Y-47910491D01*
X101864365Y-47930000D01*
X80610941Y-47930000D01*
X80610941Y-47380000D01*
X113476081Y-47380000D01*
X113812424Y-47405129D01*
G37*
X113812424Y-47405129D02*
X114104238Y-47485907D01*
X114374795Y-47621824D01*
X114613808Y-47807708D01*
X114812160Y-48036472D01*
X114962301Y-48299409D01*
X115058513Y-48586502D01*
X115099493Y-48905202D01*
X115099987Y-48939711D01*
X115096563Y-60477065D01*
X114568533Y-60477065D01*
X114546429Y-60474888D01*
X114524324Y-60477065D01*
X114458214Y-60483576D01*
X114373388Y-60509308D01*
X114295213Y-60551094D01*
X114226692Y-60607328D01*
X114170458Y-60675849D01*
X114128672Y-60754024D01*
X114102940Y-60838850D01*
X114094252Y-60927065D01*
X114096429Y-60949170D01*
X114096430Y-67477065D01*
X99553505Y-67477065D01*
X100653170Y-66377400D01*
X100785065Y-66377400D01*
X101007243Y-66333206D01*
X101216529Y-66246516D01*
X101404882Y-66120663D01*
X101565063Y-65960482D01*
X101690916Y-65772129D01*
X101777606Y-65562843D01*
X101821800Y-65340665D01*
X101821800Y-65114135D01*
X101777606Y-64891957D01*
X101690916Y-64682671D01*
X101565063Y-64494318D01*
X101404882Y-64334137D01*
X101216529Y-64208284D01*
X101007243Y-64121594D01*
X100785065Y-64077400D01*
X100558535Y-64077400D01*
X100336357Y-64121594D01*
X100127071Y-64208284D01*
X99938718Y-64334137D01*
X99778537Y-64494318D01*
X99652684Y-64682671D01*
X99565994Y-64891957D01*
X99521800Y-65114135D01*
X99521800Y-65246030D01*
X98435430Y-66332400D01*
X96998524Y-66332400D01*
X97014197Y-66313303D01*
X97051340Y-66243814D01*
X97074212Y-66168414D01*
X97081935Y-66090000D01*
X97081935Y-64390000D01*
X97074212Y-64311586D01*
X97051340Y-64236186D01*
X97014197Y-64166697D01*
X96964211Y-64105789D01*
X96903303Y-64055803D01*
X96833814Y-64018660D01*
X96758414Y-63995788D01*
X96680000Y-63988065D01*
X96289007Y-63988065D01*
X96247746Y-63910871D01*
X96185264Y-63834736D01*
X96166187Y-63819080D01*
X96120285Y-63773178D01*
X105483989Y-63773178D01*
X105483989Y-64080952D01*
X105544033Y-64382812D01*
X105661813Y-64667158D01*
X105832803Y-64923062D01*
X106050432Y-65140691D01*
X106306336Y-65311681D01*
X106590682Y-65429461D01*
X106892542Y-65489505D01*
X107200316Y-65489505D01*
X107502176Y-65429461D01*
X107786522Y-65311681D01*
X108042426Y-65140691D01*
X108260055Y-64923062D01*
X108431045Y-64667158D01*
X108548825Y-64382812D01*
X108608869Y-64080952D01*
X108608869Y-63773178D01*
X110483989Y-63773178D01*
X110483989Y-64080952D01*
X110544033Y-64382812D01*
X110661813Y-64667158D01*
X110832803Y-64923062D01*
X111050432Y-65140691D01*
X111306336Y-65311681D01*
X111590682Y-65429461D01*
X111892542Y-65489505D01*
X112200316Y-65489505D01*
X112502176Y-65429461D01*
X112786522Y-65311681D01*
X113042426Y-65140691D01*
X113260055Y-64923062D01*
X113431045Y-64667158D01*
X113548825Y-64382812D01*
X113608869Y-64080952D01*
X113608869Y-63773178D01*
X113548825Y-63471318D01*
X113431045Y-63186972D01*
X113260055Y-62931068D01*
X113042426Y-62713439D01*
X112786522Y-62542449D01*
X112502176Y-62424669D01*
X112200316Y-62364625D01*
X111892542Y-62364625D01*
X111590682Y-62424669D01*
X111306336Y-62542449D01*
X111050432Y-62713439D01*
X110832803Y-62931068D01*
X110661813Y-63186972D01*
X110544033Y-63471318D01*
X110483989Y-63773178D01*
X108608869Y-63773178D01*
X108548825Y-63471318D01*
X108431045Y-63186972D01*
X108260055Y-62931068D01*
X108042426Y-62713439D01*
X107786522Y-62542449D01*
X107502176Y-62424669D01*
X107200316Y-62364625D01*
X106892542Y-62364625D01*
X106590682Y-62424669D01*
X106306336Y-62542449D01*
X106050432Y-62713439D01*
X105832803Y-62931068D01*
X105661813Y-63186972D01*
X105544033Y-63471318D01*
X105483989Y-63773178D01*
X96120285Y-63773178D01*
X89239218Y-56892112D01*
X103810000Y-56892112D01*
X103810000Y-57167888D01*
X103863801Y-57438365D01*
X103969336Y-57693149D01*
X104122549Y-57922448D01*
X104317552Y-58117451D01*
X104546851Y-58270664D01*
X104801635Y-58376199D01*
X105072112Y-58430000D01*
X105347888Y-58430000D01*
X105618365Y-58376199D01*
X105873149Y-58270664D01*
X106102448Y-58117451D01*
X106297451Y-57922448D01*
X106450664Y-57693149D01*
X106480000Y-57622326D01*
X106509336Y-57693149D01*
X106662549Y-57922448D01*
X106857552Y-58117451D01*
X107086851Y-58270664D01*
X107341635Y-58376199D01*
X107612112Y-58430000D01*
X107887888Y-58430000D01*
X108158365Y-58376199D01*
X108413149Y-58270664D01*
X108642448Y-58117451D01*
X108837451Y-57922448D01*
X108990664Y-57693149D01*
X109096199Y-57438365D01*
X109150000Y-57167888D01*
X109150000Y-56892112D01*
X109096199Y-56621635D01*
X108990664Y-56366851D01*
X108837451Y-56137552D01*
X108642448Y-55942549D01*
X108413149Y-55789336D01*
X108158365Y-55683801D01*
X107887888Y-55630000D01*
X107612112Y-55630000D01*
X107341635Y-55683801D01*
X107086851Y-55789336D01*
X106857552Y-55942549D01*
X106662549Y-56137552D01*
X106509336Y-56366851D01*
X106480000Y-56437674D01*
X106450664Y-56366851D01*
X106297451Y-56137552D01*
X106102448Y-55942549D01*
X105873149Y-55789336D01*
X105618365Y-55683801D01*
X105347888Y-55630000D01*
X105072112Y-55630000D01*
X104801635Y-55683801D01*
X104546851Y-55789336D01*
X104317552Y-55942549D01*
X104122549Y-56137552D01*
X103969336Y-56366851D01*
X103863801Y-56621635D01*
X103810000Y-56892112D01*
X89239218Y-56892112D01*
X89135729Y-56788624D01*
X89120064Y-56769536D01*
X89043929Y-56707054D01*
X88957067Y-56660625D01*
X88862817Y-56632035D01*
X88789360Y-56624800D01*
X88764800Y-56622381D01*
X88740240Y-56624800D01*
X79725830Y-56624800D01*
X79773099Y-56510682D01*
X79800000Y-56375444D01*
X79800000Y-56237556D01*
X79773099Y-56102318D01*
X79720332Y-55974926D01*
X79643726Y-55860276D01*
X79600000Y-55816550D01*
X79600000Y-55094688D01*
X79680811Y-55119202D01*
X79745998Y-55125622D01*
X79745998Y-55128000D01*
X79770139Y-55128000D01*
X79800000Y-55130941D01*
X80000000Y-55130941D01*
X80029861Y-55128000D01*
X80054002Y-55128000D01*
X80054002Y-55125622D01*
X80119189Y-55119202D01*
X80233797Y-55084436D01*
X80339421Y-55027979D01*
X80432001Y-54952001D01*
X80507979Y-54859421D01*
X80564436Y-54753797D01*
X80599202Y-54639189D01*
X80610941Y-54520000D01*
X80610941Y-53424000D01*
X80001935Y-53424000D01*
X80001935Y-53116000D01*
X80610941Y-53116000D01*
X80610941Y-52020000D01*
X80599202Y-51900811D01*
X80578814Y-51833600D01*
X81146495Y-51833600D01*
X81850000Y-52537107D01*
X81850001Y-54240049D01*
X81806274Y-54283776D01*
X81729668Y-54398426D01*
X81676901Y-54525818D01*
X81650000Y-54661056D01*
X81650000Y-54798944D01*
X81676901Y-54934182D01*
X81729668Y-55061574D01*
X81806274Y-55176224D01*
X81903776Y-55273726D01*
X82018426Y-55350332D01*
X82145818Y-55403099D01*
X82281056Y-55430000D01*
X82418944Y-55430000D01*
X82554182Y-55403099D01*
X82681574Y-55350332D01*
X82796224Y-55273726D01*
X82893726Y-55176224D01*
X82970332Y-55061574D01*
X83023099Y-54934182D01*
X83050000Y-54798944D01*
X83050000Y-54661056D01*
X83023099Y-54525818D01*
X82970332Y-54398426D01*
X82893726Y-54283776D01*
X82850000Y-54240050D01*
X82850000Y-52354549D01*
X82852418Y-52329999D01*
X82850000Y-52305449D01*
X82850000Y-52305440D01*
X82842765Y-52231983D01*
X82814175Y-52137733D01*
X82767746Y-52050871D01*
X82705264Y-51974736D01*
X82686187Y-51959080D01*
X81724529Y-50997424D01*
X81708864Y-50978336D01*
X81632729Y-50915854D01*
X81545867Y-50869425D01*
X81451617Y-50840835D01*
X81378160Y-50833600D01*
X81353600Y-50831181D01*
X81329040Y-50833600D01*
X79080960Y-50833600D01*
X79056400Y-50831181D01*
X79031840Y-50833600D01*
X78958383Y-50840835D01*
X78864133Y-50869425D01*
X78777271Y-50915854D01*
X78701136Y-50978336D01*
X78685479Y-50997414D01*
X78363819Y-51319076D01*
X78344737Y-51334736D01*
X78283742Y-51409059D01*
X78200000Y-51409059D01*
X78170139Y-51412000D01*
X78145998Y-51412000D01*
X78145998Y-51414378D01*
X78100000Y-51418908D01*
X78054002Y-51414378D01*
X78054002Y-51412000D01*
X78029861Y-51412000D01*
X78000000Y-51409059D01*
X77800000Y-51409059D01*
X77770139Y-51412000D01*
X77745998Y-51412000D01*
X77745998Y-51414378D01*
X77680811Y-51420798D01*
X77566203Y-51455564D01*
X77460579Y-51512021D01*
X77367999Y-51587999D01*
X77338341Y-51624138D01*
X77321586Y-51625788D01*
X77300000Y-51632336D01*
X77278414Y-51625788D01*
X77200000Y-51618065D01*
X77000000Y-51618065D01*
X76921586Y-51625788D01*
X76900000Y-51632336D01*
X76878414Y-51625788D01*
X76861659Y-51624138D01*
X76848005Y-51607500D01*
X77436187Y-51019320D01*
X77455264Y-51003664D01*
X77517746Y-50927529D01*
X77564175Y-50840667D01*
X77592765Y-50746417D01*
X77600000Y-50672960D01*
X77600000Y-50672951D01*
X77602418Y-50648401D01*
X77600000Y-50623851D01*
X77600000Y-50450941D01*
X77629861Y-50448000D01*
X77654002Y-50448000D01*
X77654002Y-50445622D01*
X77719189Y-50439202D01*
X77833797Y-50404436D01*
X77939421Y-50347979D01*
X78032001Y-50272001D01*
X78061659Y-50235862D01*
X78078414Y-50234212D01*
X78100000Y-50227664D01*
X78121586Y-50234212D01*
X78200000Y-50241935D01*
X78400000Y-50241935D01*
X78478414Y-50234212D01*
X78500000Y-50227664D01*
X78521586Y-50234212D01*
X78600000Y-50241935D01*
X78800000Y-50241935D01*
X78878414Y-50234212D01*
X78900000Y-50227664D01*
X78921586Y-50234212D01*
X79000000Y-50241935D01*
X79200000Y-50241935D01*
X79278414Y-50234212D01*
X79300000Y-50227664D01*
X79321586Y-50234212D01*
X79338341Y-50235862D01*
X79367999Y-50272001D01*
X79460579Y-50347979D01*
X79566203Y-50404436D01*
X79680811Y-50439202D01*
X79745998Y-50445622D01*
X79745998Y-50448000D01*
X79770139Y-50448000D01*
X79800000Y-50450941D01*
X80000000Y-50450941D01*
X80029861Y-50448000D01*
X80054002Y-50448000D01*
X80054002Y-50445622D01*
X80119189Y-50439202D01*
X80233797Y-50404436D01*
X80339421Y-50347979D01*
X80385188Y-50310419D01*
X94835875Y-50310419D01*
X94835875Y-50549581D01*
X94882533Y-50784147D01*
X94974056Y-51005104D01*
X95106927Y-51203960D01*
X95276040Y-51373073D01*
X95474896Y-51505944D01*
X95695853Y-51597467D01*
X95930419Y-51644125D01*
X96169581Y-51644125D01*
X96404147Y-51597467D01*
X96625104Y-51505944D01*
X96823960Y-51373073D01*
X96993073Y-51203960D01*
X97125944Y-51005104D01*
X97217467Y-50784147D01*
X97264125Y-50549581D01*
X97264125Y-50314623D01*
X98378561Y-50314623D01*
X98378561Y-50545377D01*
X98423579Y-50771696D01*
X98511884Y-50984884D01*
X98640084Y-51176749D01*
X98803251Y-51339916D01*
X98995116Y-51468116D01*
X99208304Y-51556421D01*
X99434623Y-51601439D01*
X99665377Y-51601439D01*
X99891696Y-51556421D01*
X100104884Y-51468116D01*
X100296749Y-51339916D01*
X100459916Y-51176749D01*
X100588116Y-50984884D01*
X100676421Y-50771696D01*
X100721439Y-50545377D01*
X100721439Y-50314623D01*
X100676421Y-50088304D01*
X100588116Y-49875116D01*
X100459916Y-49683251D01*
X100296749Y-49520084D01*
X100104884Y-49391884D01*
X99891696Y-49303579D01*
X99665377Y-49258561D01*
X99434623Y-49258561D01*
X99208304Y-49303579D01*
X98995116Y-49391884D01*
X98803251Y-49520084D01*
X98640084Y-49683251D01*
X98511884Y-49875116D01*
X98423579Y-50088304D01*
X98378561Y-50314623D01*
X97264125Y-50314623D01*
X97264125Y-50310419D01*
X97217467Y-50075853D01*
X97125944Y-49854896D01*
X96993073Y-49656040D01*
X96823960Y-49486927D01*
X96625104Y-49354056D01*
X96404147Y-49262533D01*
X96169581Y-49215875D01*
X95930419Y-49215875D01*
X95695853Y-49262533D01*
X95474896Y-49354056D01*
X95276040Y-49486927D01*
X95106927Y-49656040D01*
X94974056Y-49854896D01*
X94882533Y-50075853D01*
X94835875Y-50310419D01*
X80385188Y-50310419D01*
X80432001Y-50272001D01*
X80507979Y-50179421D01*
X80564436Y-50073797D01*
X80599202Y-49959189D01*
X80610941Y-49840000D01*
X80610941Y-48744000D01*
X80001935Y-48744000D01*
X80001935Y-48436000D01*
X80610941Y-48436000D01*
X80610941Y-47930000D01*
X101864365Y-47930000D01*
X101864365Y-52930000D01*
X101866286Y-52949509D01*
X101871977Y-52968268D01*
X101881218Y-52985557D01*
X101893654Y-53000711D01*
X102893654Y-54000711D01*
X102908808Y-54013147D01*
X102926097Y-54022388D01*
X102944856Y-54028079D01*
X102964365Y-54030000D01*
X104318145Y-54030000D01*
X104248429Y-54198311D01*
X104210000Y-54391509D01*
X104210000Y-54588491D01*
X104248429Y-54781689D01*
X104323811Y-54963678D01*
X104433249Y-55127463D01*
X104572537Y-55266751D01*
X104736322Y-55376189D01*
X104918311Y-55451571D01*
X105111509Y-55490000D01*
X105308491Y-55490000D01*
X105501689Y-55451571D01*
X105683678Y-55376189D01*
X105847463Y-55266751D01*
X105986751Y-55127463D01*
X106096189Y-54963678D01*
X106171571Y-54781689D01*
X106210000Y-54588491D01*
X106210000Y-54391509D01*
X106171571Y-54198311D01*
X106101855Y-54030000D01*
X106858145Y-54030000D01*
X106788429Y-54198311D01*
X106750000Y-54391509D01*
X106750000Y-54588491D01*
X106788429Y-54781689D01*
X106863811Y-54963678D01*
X106973249Y-55127463D01*
X107112537Y-55266751D01*
X107276322Y-55376189D01*
X107458311Y-55451571D01*
X107651509Y-55490000D01*
X107848491Y-55490000D01*
X108041689Y-55451571D01*
X108223678Y-55376189D01*
X108387463Y-55266751D01*
X108526751Y-55127463D01*
X108636189Y-54963678D01*
X108711571Y-54781689D01*
X108750000Y-54588491D01*
X108750000Y-54391509D01*
X108711571Y-54198311D01*
X108641855Y-54030000D01*
X109964365Y-54030000D01*
X109983874Y-54028079D01*
X110002633Y-54022388D01*
X110019922Y-54013147D01*
X110035076Y-54000711D01*
X111035076Y-53000711D01*
X111047512Y-52985557D01*
X111056753Y-52968268D01*
X111062444Y-52949509D01*
X111064365Y-52930000D01*
X111064365Y-50310419D01*
X111835875Y-50310419D01*
X111835875Y-50549581D01*
X111882533Y-50784147D01*
X111974056Y-51005104D01*
X112106927Y-51203960D01*
X112276040Y-51373073D01*
X112474896Y-51505944D01*
X112695853Y-51597467D01*
X112930419Y-51644125D01*
X113169581Y-51644125D01*
X113404147Y-51597467D01*
X113625104Y-51505944D01*
X113823960Y-51373073D01*
X113993073Y-51203960D01*
X114125944Y-51005104D01*
X114217467Y-50784147D01*
X114264125Y-50549581D01*
X114264125Y-50310419D01*
X114217467Y-50075853D01*
X114125944Y-49854896D01*
X113993073Y-49656040D01*
X113823960Y-49486927D01*
X113625104Y-49354056D01*
X113404147Y-49262533D01*
X113169581Y-49215875D01*
X112930419Y-49215875D01*
X112695853Y-49262533D01*
X112474896Y-49354056D01*
X112276040Y-49486927D01*
X112106927Y-49656040D01*
X111974056Y-49854896D01*
X111882533Y-50075853D01*
X111835875Y-50310419D01*
X111064365Y-50310419D01*
X111064365Y-47930000D01*
X111062444Y-47910491D01*
X111056753Y-47891732D01*
X111047512Y-47874443D01*
X111035076Y-47859289D01*
X111019922Y-47846853D01*
X111002633Y-47837612D01*
X110983874Y-47831921D01*
X110964365Y-47830000D01*
X101964365Y-47830000D01*
X101944856Y-47831921D01*
X101926097Y-47837612D01*
X101908808Y-47846853D01*
X101893654Y-47859289D01*
X101881218Y-47874443D01*
X101871977Y-47891732D01*
X101866286Y-47910491D01*
X101864365Y-47930000D01*
X80610941Y-47930000D01*
X80610941Y-47380000D01*
X113476081Y-47380000D01*
X113812424Y-47405129D01*
G36*
X75589059Y-53116000D02*
G01*
X76198065Y-53116000D01*
X76198065Y-53424000D01*
X75589059Y-53424000D01*
X75589059Y-54520000D01*
X75600798Y-54639189D01*
X75635564Y-54753797D01*
X75692021Y-54859421D01*
X75767999Y-54952001D01*
X75860579Y-55027979D01*
X75966203Y-55084436D01*
X76080811Y-55119202D01*
X76145998Y-55125622D01*
X76145998Y-55128000D01*
X76170139Y-55128000D01*
X76200000Y-55130941D01*
X76400000Y-55130941D01*
X76429862Y-55128000D01*
X76454002Y-55128000D01*
X76454002Y-55125623D01*
X76466618Y-55124380D01*
X76427501Y-55218818D01*
X76400600Y-55354056D01*
X76400600Y-55491944D01*
X76427501Y-55627182D01*
X76480268Y-55754574D01*
X76556874Y-55869224D01*
X76654376Y-55966726D01*
X76769026Y-56043332D01*
X76896418Y-56096099D01*
X77031656Y-56123000D01*
X77169544Y-56123000D01*
X77304782Y-56096099D01*
X77432174Y-56043332D01*
X77546824Y-55966726D01*
X77644326Y-55869224D01*
X77720932Y-55754574D01*
X77773699Y-55627182D01*
X77800600Y-55491944D01*
X77800600Y-55354056D01*
X77773699Y-55218818D01*
X77734633Y-55124503D01*
X77745998Y-55125622D01*
X77745998Y-55128000D01*
X77770139Y-55128000D01*
X77800000Y-55130941D01*
X78000000Y-55130941D01*
X78029861Y-55128000D01*
X78054002Y-55128000D01*
X78054002Y-55125622D01*
X78100000Y-55121092D01*
X78145998Y-55125622D01*
X78145998Y-55128000D01*
X78170139Y-55128000D01*
X78200000Y-55130941D01*
X78400000Y-55130941D01*
X78429861Y-55128000D01*
X78454002Y-55128000D01*
X78454002Y-55125622D01*
X78519189Y-55119202D01*
X78600001Y-55094688D01*
X78600001Y-55816549D01*
X78556274Y-55860276D01*
X78479668Y-55974926D01*
X78426901Y-56102318D01*
X78400000Y-56237556D01*
X78400000Y-56375444D01*
X78426901Y-56510682D01*
X78474170Y-56624800D01*
X77717550Y-56624800D01*
X77673824Y-56581074D01*
X77559174Y-56504468D01*
X77431782Y-56451701D01*
X77296544Y-56424800D01*
X77158656Y-56424800D01*
X77023418Y-56451701D01*
X76896026Y-56504468D01*
X76781376Y-56581074D01*
X76683874Y-56678576D01*
X76607268Y-56793226D01*
X76554501Y-56920618D01*
X76527600Y-57055856D01*
X76527600Y-57063894D01*
X76252329Y-56788624D01*
X76236664Y-56769536D01*
X76217587Y-56753880D01*
X74908200Y-55444495D01*
X74908200Y-52378906D01*
X75148706Y-52138400D01*
X75589059Y-52138400D01*
X75589059Y-53116000D01*
G37*
X75589059Y-53116000D02*
X76198065Y-53116000D01*
X76198065Y-53424000D01*
X75589059Y-53424000D01*
X75589059Y-54520000D01*
X75600798Y-54639189D01*
X75635564Y-54753797D01*
X75692021Y-54859421D01*
X75767999Y-54952001D01*
X75860579Y-55027979D01*
X75966203Y-55084436D01*
X76080811Y-55119202D01*
X76145998Y-55125622D01*
X76145998Y-55128000D01*
X76170139Y-55128000D01*
X76200000Y-55130941D01*
X76400000Y-55130941D01*
X76429862Y-55128000D01*
X76454002Y-55128000D01*
X76454002Y-55125623D01*
X76466618Y-55124380D01*
X76427501Y-55218818D01*
X76400600Y-55354056D01*
X76400600Y-55491944D01*
X76427501Y-55627182D01*
X76480268Y-55754574D01*
X76556874Y-55869224D01*
X76654376Y-55966726D01*
X76769026Y-56043332D01*
X76896418Y-56096099D01*
X77031656Y-56123000D01*
X77169544Y-56123000D01*
X77304782Y-56096099D01*
X77432174Y-56043332D01*
X77546824Y-55966726D01*
X77644326Y-55869224D01*
X77720932Y-55754574D01*
X77773699Y-55627182D01*
X77800600Y-55491944D01*
X77800600Y-55354056D01*
X77773699Y-55218818D01*
X77734633Y-55124503D01*
X77745998Y-55125622D01*
X77745998Y-55128000D01*
X77770139Y-55128000D01*
X77800000Y-55130941D01*
X78000000Y-55130941D01*
X78029861Y-55128000D01*
X78054002Y-55128000D01*
X78054002Y-55125622D01*
X78100000Y-55121092D01*
X78145998Y-55125622D01*
X78145998Y-55128000D01*
X78170139Y-55128000D01*
X78200000Y-55130941D01*
X78400000Y-55130941D01*
X78429861Y-55128000D01*
X78454002Y-55128000D01*
X78454002Y-55125622D01*
X78519189Y-55119202D01*
X78600001Y-55094688D01*
X78600001Y-55816549D01*
X78556274Y-55860276D01*
X78479668Y-55974926D01*
X78426901Y-56102318D01*
X78400000Y-56237556D01*
X78400000Y-56375444D01*
X78426901Y-56510682D01*
X78474170Y-56624800D01*
X77717550Y-56624800D01*
X77673824Y-56581074D01*
X77559174Y-56504468D01*
X77431782Y-56451701D01*
X77296544Y-56424800D01*
X77158656Y-56424800D01*
X77023418Y-56451701D01*
X76896026Y-56504468D01*
X76781376Y-56581074D01*
X76683874Y-56678576D01*
X76607268Y-56793226D01*
X76554501Y-56920618D01*
X76527600Y-57055856D01*
X76527600Y-57063894D01*
X76252329Y-56788624D01*
X76236664Y-56769536D01*
X76217587Y-56753880D01*
X74908200Y-55444495D01*
X74908200Y-52378906D01*
X75148706Y-52138400D01*
X75589059Y-52138400D01*
X75589059Y-53116000D01*
M02*
