M48
; DRILL file {KiCad (5.1.6)-1} date 08/01/20 00:51:42
; FORMAT={-:-/ absolute / inch / decimal}
; #@! TF.CreationDate,2020-08-01T00:51:42+09:00
; #@! TF.GenerationSoftware,Kicad,Pcbnew,(5.1.6)-1
FMAT,2
INCH
T1C0.0118
T2C0.0315
T3C0.0394
T4C0.0433
T5C0.0512
T6C0.0630
T7C0.0472
%
G90
G05
T1
X1.6465Y-1.937
X1.6465Y-2.037
X1.6465Y-2.137
X1.6465Y-2.237
X1.6465Y-2.337
X1.6465Y-3.387
X1.6465Y-3.737
X1.6965Y-1.887
X1.6965Y-2.387
X1.6965Y-2.637
X1.73Y-3.4896
X1.7365Y-3.682
X1.7465Y-3.137
X1.7874Y-3.6712
X1.7965Y-1.887
X1.7965Y-2.637
X1.7965Y-3.812
X1.8465Y-3.137
X1.8865Y-3.737
X1.8965Y-1.887
X1.8965Y-2.637
X1.8965Y-3.812
X1.9152Y-3.5795
X1.9465Y-3.137
X1.9965Y-1.887
X1.9965Y-2.637
X1.9965Y-3.812
X2.0465Y-3.137
X2.0965Y-1.887
X2.0965Y-2.637
X2.0965Y-3.812
X2.1465Y-3.137
X2.1965Y-3.812
X2.2965Y-3.812
X2.3012Y-2.4421
X2.3681Y-2.0435
X2.3965Y-1.887
X2.3965Y-3.812
X2.4429Y-3.4618
X2.4941Y-2.2177
X2.4965Y-1.887
X2.4965Y-3.812
X2.519Y-2.1345
X2.5217Y-3.4618
X2.5565Y-2.442
X2.5965Y-3.812
X2.6765Y-3.637
X2.6965Y-1.887
X2.6965Y-3.812
X2.7965Y-1.887
X2.7965Y-3.812
X2.872Y-2.4697
X2.872Y-2.6587
X2.872Y-3.076
X2.872Y-3.2728
X2.8965Y-3.812
X2.9114Y-1.887
X2.9445Y-2.249
X2.9587Y-2.074
X2.9587Y-2.1783
X2.9665Y-2.4697
X2.9665Y-2.6587
X2.9665Y-3.076
X2.9665Y-3.2728
X2.9965Y-3.812
X3.0355Y-2.182
X3.0405Y-2.249
X3.0768Y-3.076
X3.0768Y-3.2728
X3.1024Y-2.3102
X3.1142Y-2.2168
X3.1465Y-3.812
X3.1713Y-3.076
X3.1713Y-3.2728
X3.187Y-2.2177
X3.2008Y-2.074
X3.2421Y-2.1547
X3.2465Y-1.887
X3.2465Y-3.812
X3.2854Y-2.076
X3.2894Y-2.3102
X3.3287Y-3.4146
X3.3465Y-1.887
X3.3465Y-3.812
X3.3839Y-3.3358
X3.4232Y-3.3589
X3.4465Y-1.887
X3.4465Y-3.812
X3.4705Y-3.3043
X3.5465Y-1.887
X3.5465Y-3.812
X3.6465Y-1.887
X3.6465Y-3.812
X3.6565Y-3.337
X3.7465Y-1.887
X3.7465Y-3.812
X3.7736Y-2.4736
X3.8465Y-1.887
X3.8465Y-3.207
X3.8465Y-3.337
X3.8465Y-3.812
X3.8602Y-2.5681
X3.939Y-1.887
X3.9465Y-3.812
X3.9715Y-3.212
X4.0138Y-3.7295
X4.0465Y-2.637
X4.0465Y-3.812
X4.0965Y-3.112
X4.0965Y-3.337
X4.1215Y-3.162
X4.1344Y-3.7295
X4.1465Y-2.637
X4.1715Y-3.112
X4.2465Y-2.637
X4.2715Y-3.112
X4.2965Y-3.812
X4.3465Y-2.637
X4.3715Y-3.112
X4.4465Y-2.387
X4.4465Y-2.637
X4.4705Y-1.887
X4.4715Y-3.112
X4.4965Y-2.187
X4.4965Y-2.287
X4.4965Y-3.387
X4.4965Y-3.562
X4.4965Y-3.712
X4.4965Y-3.812
X4.498Y-2.0878
X1.7579Y-3.5504
X1.7579Y-3.6094
X1.7776Y-3.5799
X1.7972Y-3.5504
X1.7972Y-3.6094
T2
X2.3051Y-3.737
X3.6634Y-3.412
X3.9635Y-2.568
X4.2065Y-3.542
X4.4075Y-3.5248
X4.4075Y-3.6035
X4.4075Y-3.6823
T3
X2.3728Y-2.5685
X2.4728Y-2.5685
X2.5728Y-2.5685
X2.6728Y-2.5685
X2.7728Y-2.5685
X2.8728Y-2.5685
X2.9728Y-2.5685
X3.0728Y-2.5685
X3.1728Y-2.5685
X3.2728Y-2.5685
X3.3728Y-2.5685
X3.4728Y-2.5685
X3.5728Y-2.5685
X3.6728Y-2.5685
X3.7728Y-2.5685
X2.7815Y-2.8201
X2.7815Y-2.9185
X1.9783Y-2.102
X1.9783Y-2.202
X3.3642Y-2.8201
X3.3642Y-2.9185
X2.3728Y-3.1736
X2.4728Y-3.1736
X2.5728Y-3.1736
X2.6728Y-3.1736
X2.7728Y-3.1736
X2.8728Y-3.1736
X2.9728Y-3.1736
X3.0728Y-3.1736
X3.1728Y-3.1736
X3.2728Y-3.1736
X3.3728Y-3.1736
X3.4728Y-3.1736
X3.5728Y-3.1736
X3.6728Y-3.1736
X3.7728Y-3.1736
T4
X4.1421Y-2.2453
X4.2421Y-2.2453
T5
X4.4075Y-3.4382
X4.4075Y-3.7689
T7
X4.1421Y-2.1453
X4.2421Y-2.1453
T6
G00X2.2067Y-3.6075
M15
G01X2.2067Y-3.6311
M16
G05
G00X2.4921Y-3.6075
M15
G01X2.4921Y-3.6311
M16
G05
G00X3.6535Y-3.6311
M15
G01X3.6535Y-3.6075
M16
G05
G00X3.939Y-3.6311
M15
G01X3.939Y-3.6075
M16
G05
T0
M30
