G04 #@! TF.GenerationSoftware,KiCad,Pcbnew,(5.1.6)-1*
G04 #@! TF.CreationDate,2020-08-01T00:51:36+09:00*
G04 #@! TF.ProjectId,MiniRoverShield,4d696e69-526f-4766-9572-536869656c64,rev?*
G04 #@! TF.SameCoordinates,Original*
G04 #@! TF.FileFunction,Soldermask,Bot*
G04 #@! TF.FilePolarity,Negative*
%FSLAX46Y46*%
G04 Gerber Fmt 4.6, Leading zero omitted, Abs format (unit mm)*
G04 Created by KiCad (PCBNEW (5.1.6)-1) date 2020-08-01 00:51:36*
%MOMM*%
%LPD*%
G01*
G04 APERTURE LIST*
%ADD10R,3.400000X1.400000*%
%ADD11R,0.600000X1.550000*%
%ADD12R,1.550000X0.600000*%
%ADD13O,2.000000X1.700000*%
%ADD14R,2.000000X1.700000*%
%ADD15R,1.700000X1.700000*%
%ADD16O,1.700000X1.700000*%
%ADD17O,0.990000X0.420000*%
%ADD18R,0.420000X0.420000*%
%ADD19R,0.680000X1.050000*%
%ADD20R,0.280000X0.700000*%
%ADD21R,0.260000X0.500000*%
%ADD22R,1.650000X2.400000*%
%ADD23C,0.600000*%
%ADD24R,0.900000X0.800000*%
%ADD25C,2.000000*%
%ADD26C,1.200000*%
%ADD27O,2.800000X3.500000*%
%ADD28R,1.200000X0.700000*%
%ADD29R,1.200000X1.000000*%
%ADD30R,0.800000X1.000000*%
%ADD31R,2.800000X1.000000*%
%ADD32R,1.900000X1.300000*%
%ADD33O,3.000000X2.000000*%
%ADD34O,2.200000X1.300000*%
G04 APERTURE END LIST*
D10*
X51054000Y-89632000D03*
X51054000Y-92232000D03*
G36*
G01*
X58787500Y-55730000D02*
X58312500Y-55730000D01*
G75*
G02*
X58075000Y-55492500I0J237500D01*
G01*
X58075000Y-54917500D01*
G75*
G02*
X58312500Y-54680000I237500J0D01*
G01*
X58787500Y-54680000D01*
G75*
G02*
X59025000Y-54917500I0J-237500D01*
G01*
X59025000Y-55492500D01*
G75*
G02*
X58787500Y-55730000I-237500J0D01*
G01*
G37*
G36*
G01*
X58787500Y-53980000D02*
X58312500Y-53980000D01*
G75*
G02*
X58075000Y-53742500I0J237500D01*
G01*
X58075000Y-53167500D01*
G75*
G02*
X58312500Y-52930000I237500J0D01*
G01*
X58787500Y-52930000D01*
G75*
G02*
X59025000Y-53167500I0J-237500D01*
G01*
X59025000Y-53742500D01*
G75*
G02*
X58787500Y-53980000I-237500J0D01*
G01*
G37*
D11*
X107555000Y-92880000D03*
X106285000Y-92880000D03*
X105015000Y-92880000D03*
X103745000Y-92880000D03*
X103745000Y-87480000D03*
X105015000Y-87480000D03*
X106285000Y-87480000D03*
X107555000Y-87480000D03*
D12*
X90350000Y-84525000D03*
X90350000Y-85795000D03*
X90350000Y-87065000D03*
X90350000Y-88335000D03*
X95750000Y-88335000D03*
X95750000Y-87065000D03*
X95750000Y-85795000D03*
X95750000Y-84525000D03*
X65750000Y-84525000D03*
X65750000Y-85795000D03*
X65750000Y-87065000D03*
X65750000Y-88335000D03*
X60350000Y-88335000D03*
X60350000Y-87065000D03*
X60350000Y-85795000D03*
X60350000Y-84525000D03*
G36*
G01*
X108687500Y-49142500D02*
X108687500Y-48717500D01*
G75*
G02*
X108900000Y-48505000I212500J0D01*
G01*
X109700000Y-48505000D01*
G75*
G02*
X109912500Y-48717500I0J-212500D01*
G01*
X109912500Y-49142500D01*
G75*
G02*
X109700000Y-49355000I-212500J0D01*
G01*
X108900000Y-49355000D01*
G75*
G02*
X108687500Y-49142500I0J212500D01*
G01*
G37*
G36*
G01*
X107062500Y-49142500D02*
X107062500Y-48717500D01*
G75*
G02*
X107275000Y-48505000I212500J0D01*
G01*
X108075000Y-48505000D01*
G75*
G02*
X108287500Y-48717500I0J-212500D01*
G01*
X108287500Y-49142500D01*
G75*
G02*
X108075000Y-49355000I-212500J0D01*
G01*
X107275000Y-49355000D01*
G75*
G02*
X107062500Y-49142500I0J212500D01*
G01*
G37*
G36*
G01*
X102875000Y-49142500D02*
X102875000Y-48717500D01*
G75*
G02*
X103087500Y-48505000I212500J0D01*
G01*
X103887500Y-48505000D01*
G75*
G02*
X104100000Y-48717500I0J-212500D01*
G01*
X104100000Y-49142500D01*
G75*
G02*
X103887500Y-49355000I-212500J0D01*
G01*
X103087500Y-49355000D01*
G75*
G02*
X102875000Y-49142500I0J212500D01*
G01*
G37*
G36*
G01*
X104500000Y-49142500D02*
X104500000Y-48717500D01*
G75*
G02*
X104712500Y-48505000I212500J0D01*
G01*
X105512500Y-48505000D01*
G75*
G02*
X105725000Y-48717500I0J-212500D01*
G01*
X105725000Y-49142500D01*
G75*
G02*
X105512500Y-49355000I-212500J0D01*
G01*
X104712500Y-49355000D01*
G75*
G02*
X104500000Y-49142500I0J212500D01*
G01*
G37*
G36*
G01*
X45325000Y-95680001D02*
X45325000Y-94779999D01*
G75*
G02*
X45574999Y-94530000I249999J0D01*
G01*
X46225001Y-94530000D01*
G75*
G02*
X46475000Y-94779999I0J-249999D01*
G01*
X46475000Y-95680001D01*
G75*
G02*
X46225001Y-95930000I-249999J0D01*
G01*
X45574999Y-95930000D01*
G75*
G02*
X45325000Y-95680001I0J249999D01*
G01*
G37*
G36*
G01*
X43275000Y-95680001D02*
X43275000Y-94779999D01*
G75*
G02*
X43524999Y-94530000I249999J0D01*
G01*
X44175001Y-94530000D01*
G75*
G02*
X44425000Y-94779999I0J-249999D01*
G01*
X44425000Y-95680001D01*
G75*
G02*
X44175001Y-95930000I-249999J0D01*
G01*
X43524999Y-95930000D01*
G75*
G02*
X43275000Y-95680001I0J249999D01*
G01*
G37*
G36*
G01*
X46475000Y-85929999D02*
X46475000Y-86830001D01*
G75*
G02*
X46225001Y-87080000I-249999J0D01*
G01*
X45574999Y-87080000D01*
G75*
G02*
X45325000Y-86830001I0J249999D01*
G01*
X45325000Y-85929999D01*
G75*
G02*
X45574999Y-85680000I249999J0D01*
G01*
X46225001Y-85680000D01*
G75*
G02*
X46475000Y-85929999I0J-249999D01*
G01*
G37*
G36*
G01*
X44425000Y-85929999D02*
X44425000Y-86830001D01*
G75*
G02*
X44175001Y-87080000I-249999J0D01*
G01*
X43524999Y-87080000D01*
G75*
G02*
X43275000Y-86830001I0J249999D01*
G01*
X43275000Y-85929999D01*
G75*
G02*
X43524999Y-85680000I249999J0D01*
G01*
X44175001Y-85680000D01*
G75*
G02*
X44425000Y-85929999I0J-249999D01*
G01*
G37*
G36*
G01*
X55625000Y-85979999D02*
X55625000Y-86880001D01*
G75*
G02*
X55375001Y-87130000I-249999J0D01*
G01*
X54724999Y-87130000D01*
G75*
G02*
X54475000Y-86880001I0J249999D01*
G01*
X54475000Y-85979999D01*
G75*
G02*
X54724999Y-85730000I249999J0D01*
G01*
X55375001Y-85730000D01*
G75*
G02*
X55625000Y-85979999I0J-249999D01*
G01*
G37*
G36*
G01*
X57675000Y-85979999D02*
X57675000Y-86880001D01*
G75*
G02*
X57425001Y-87130000I-249999J0D01*
G01*
X56774999Y-87130000D01*
G75*
G02*
X56525000Y-86880001I0J249999D01*
G01*
X56525000Y-85979999D01*
G75*
G02*
X56774999Y-85730000I249999J0D01*
G01*
X57425001Y-85730000D01*
G75*
G02*
X57675000Y-85979999I0J-249999D01*
G01*
G37*
G36*
G01*
X98450000Y-86880001D02*
X98450000Y-85979999D01*
G75*
G02*
X98699999Y-85730000I249999J0D01*
G01*
X99350001Y-85730000D01*
G75*
G02*
X99600000Y-85979999I0J-249999D01*
G01*
X99600000Y-86880001D01*
G75*
G02*
X99350001Y-87130000I-249999J0D01*
G01*
X98699999Y-87130000D01*
G75*
G02*
X98450000Y-86880001I0J249999D01*
G01*
G37*
G36*
G01*
X100500000Y-86880001D02*
X100500000Y-85979999D01*
G75*
G02*
X100749999Y-85730000I249999J0D01*
G01*
X101400001Y-85730000D01*
G75*
G02*
X101650000Y-85979999I0J-249999D01*
G01*
X101650000Y-86880001D01*
G75*
G02*
X101400001Y-87130000I-249999J0D01*
G01*
X100749999Y-87130000D01*
G75*
G02*
X100500000Y-86880001I0J249999D01*
G01*
G37*
D13*
X70650000Y-71630000D03*
D14*
X70650000Y-74130000D03*
X85450000Y-71630000D03*
D13*
X85450000Y-74130000D03*
D15*
X50250000Y-55930000D03*
D16*
X50250000Y-53390000D03*
D17*
X46625000Y-89930000D03*
X46625000Y-90430000D03*
D18*
X46910000Y-90930000D03*
D17*
X46625000Y-91430000D03*
D18*
X46910000Y-91930000D03*
D17*
X43675000Y-91930000D03*
X43675000Y-91430000D03*
D18*
X43390000Y-90930000D03*
X43390000Y-90430000D03*
X43390000Y-89930000D03*
D19*
X45600000Y-90295000D03*
D20*
X45400000Y-89380000D03*
D21*
X45400000Y-89300000D03*
D20*
X44900000Y-89380000D03*
X45400000Y-92480000D03*
X44900000Y-92480000D03*
D21*
X44900000Y-89300000D03*
X45400000Y-92560000D03*
X44900000Y-92560000D03*
D19*
X44700000Y-90295000D03*
X45600000Y-91565000D03*
X44700000Y-91565000D03*
D22*
X45150000Y-90930000D03*
D18*
X46910000Y-89930000D03*
X46910000Y-90430000D03*
D17*
X46625000Y-90930000D03*
D18*
X46910000Y-91430000D03*
D17*
X46625000Y-91930000D03*
D18*
X43390000Y-91930000D03*
X43390000Y-91430000D03*
D17*
X43675000Y-90930000D03*
X43675000Y-90430000D03*
X43675000Y-89930000D03*
D23*
X44650000Y-91680000D03*
X45150000Y-90930000D03*
X44650000Y-90180000D03*
X45650000Y-90180000D03*
X45650000Y-91680000D03*
D24*
X100950000Y-57980000D03*
X100950000Y-56080000D03*
X102950000Y-57030000D03*
G36*
G01*
X99487500Y-56680000D02*
X99012500Y-56680000D01*
G75*
G02*
X98775000Y-56442500I0J237500D01*
G01*
X98775000Y-55867500D01*
G75*
G02*
X99012500Y-55630000I237500J0D01*
G01*
X99487500Y-55630000D01*
G75*
G02*
X99725000Y-55867500I0J-237500D01*
G01*
X99725000Y-56442500D01*
G75*
G02*
X99487500Y-56680000I-237500J0D01*
G01*
G37*
G36*
G01*
X99487500Y-58430000D02*
X99012500Y-58430000D01*
G75*
G02*
X98775000Y-58192500I0J237500D01*
G01*
X98775000Y-57617500D01*
G75*
G02*
X99012500Y-57380000I237500J0D01*
G01*
X99487500Y-57380000D01*
G75*
G02*
X99725000Y-57617500I0J-237500D01*
G01*
X99725000Y-58192500D01*
G75*
G02*
X99487500Y-58430000I-237500J0D01*
G01*
G37*
G36*
G01*
X76550000Y-71767500D02*
X76550000Y-71292500D01*
G75*
G02*
X76787500Y-71055000I237500J0D01*
G01*
X77362500Y-71055000D01*
G75*
G02*
X77600000Y-71292500I0J-237500D01*
G01*
X77600000Y-71767500D01*
G75*
G02*
X77362500Y-72005000I-237500J0D01*
G01*
X76787500Y-72005000D01*
G75*
G02*
X76550000Y-71767500I0J237500D01*
G01*
G37*
G36*
G01*
X78300000Y-71767500D02*
X78300000Y-71292500D01*
G75*
G02*
X78537500Y-71055000I237500J0D01*
G01*
X79112500Y-71055000D01*
G75*
G02*
X79350000Y-71292500I0J-237500D01*
G01*
X79350000Y-71767500D01*
G75*
G02*
X79112500Y-72005000I-237500J0D01*
G01*
X78537500Y-72005000D01*
G75*
G02*
X78300000Y-71767500I0J237500D01*
G01*
G37*
G36*
G01*
X77600000Y-73892500D02*
X77600000Y-74367500D01*
G75*
G02*
X77362500Y-74605000I-237500J0D01*
G01*
X76787500Y-74605000D01*
G75*
G02*
X76550000Y-74367500I0J237500D01*
G01*
X76550000Y-73892500D01*
G75*
G02*
X76787500Y-73655000I237500J0D01*
G01*
X77362500Y-73655000D01*
G75*
G02*
X77600000Y-73892500I0J-237500D01*
G01*
G37*
G36*
G01*
X79350000Y-73892500D02*
X79350000Y-74367500D01*
G75*
G02*
X79112500Y-74605000I-237500J0D01*
G01*
X78537500Y-74605000D01*
G75*
G02*
X78300000Y-74367500I0J237500D01*
G01*
X78300000Y-73892500D01*
G75*
G02*
X78537500Y-73655000I237500J0D01*
G01*
X79112500Y-73655000D01*
G75*
G02*
X79350000Y-73892500I0J-237500D01*
G01*
G37*
G36*
G01*
X56150000Y-51767500D02*
X56150000Y-51292500D01*
G75*
G02*
X56387500Y-51055000I237500J0D01*
G01*
X56962500Y-51055000D01*
G75*
G02*
X57200000Y-51292500I0J-237500D01*
G01*
X57200000Y-51767500D01*
G75*
G02*
X56962500Y-52005000I-237500J0D01*
G01*
X56387500Y-52005000D01*
G75*
G02*
X56150000Y-51767500I0J237500D01*
G01*
G37*
G36*
G01*
X57900000Y-51767500D02*
X57900000Y-51292500D01*
G75*
G02*
X58137500Y-51055000I237500J0D01*
G01*
X58712500Y-51055000D01*
G75*
G02*
X58950000Y-51292500I0J-237500D01*
G01*
X58950000Y-51767500D01*
G75*
G02*
X58712500Y-52005000I-237500J0D01*
G01*
X58137500Y-52005000D01*
G75*
G02*
X57900000Y-51767500I0J237500D01*
G01*
G37*
G36*
G01*
X57900000Y-60967500D02*
X57900000Y-60492500D01*
G75*
G02*
X58137500Y-60255000I237500J0D01*
G01*
X58712500Y-60255000D01*
G75*
G02*
X58950000Y-60492500I0J-237500D01*
G01*
X58950000Y-60967500D01*
G75*
G02*
X58712500Y-61205000I-237500J0D01*
G01*
X58137500Y-61205000D01*
G75*
G02*
X57900000Y-60967500I0J237500D01*
G01*
G37*
G36*
G01*
X56150000Y-60967500D02*
X56150000Y-60492500D01*
G75*
G02*
X56387500Y-60255000I237500J0D01*
G01*
X56962500Y-60255000D01*
G75*
G02*
X57200000Y-60492500I0J-237500D01*
G01*
X57200000Y-60967500D01*
G75*
G02*
X56962500Y-61205000I-237500J0D01*
G01*
X56387500Y-61205000D01*
G75*
G02*
X56150000Y-60967500I0J237500D01*
G01*
G37*
G36*
G01*
X107025000Y-51167500D02*
X107025000Y-50692500D01*
G75*
G02*
X107262500Y-50455000I237500J0D01*
G01*
X107837500Y-50455000D01*
G75*
G02*
X108075000Y-50692500I0J-237500D01*
G01*
X108075000Y-51167500D01*
G75*
G02*
X107837500Y-51405000I-237500J0D01*
G01*
X107262500Y-51405000D01*
G75*
G02*
X107025000Y-51167500I0J237500D01*
G01*
G37*
G36*
G01*
X108775000Y-51167500D02*
X108775000Y-50692500D01*
G75*
G02*
X109012500Y-50455000I237500J0D01*
G01*
X109587500Y-50455000D01*
G75*
G02*
X109825000Y-50692500I0J-237500D01*
G01*
X109825000Y-51167500D01*
G75*
G02*
X109587500Y-51405000I-237500J0D01*
G01*
X109012500Y-51405000D01*
G75*
G02*
X108775000Y-51167500I0J237500D01*
G01*
G37*
G36*
G01*
X104650000Y-51167500D02*
X104650000Y-50692500D01*
G75*
G02*
X104887500Y-50455000I237500J0D01*
G01*
X105462500Y-50455000D01*
G75*
G02*
X105700000Y-50692500I0J-237500D01*
G01*
X105700000Y-51167500D01*
G75*
G02*
X105462500Y-51405000I-237500J0D01*
G01*
X104887500Y-51405000D01*
G75*
G02*
X104650000Y-51167500I0J237500D01*
G01*
G37*
G36*
G01*
X102900000Y-51167500D02*
X102900000Y-50692500D01*
G75*
G02*
X103137500Y-50455000I237500J0D01*
G01*
X103712500Y-50455000D01*
G75*
G02*
X103950000Y-50692500I0J-237500D01*
G01*
X103950000Y-51167500D01*
G75*
G02*
X103712500Y-51405000I-237500J0D01*
G01*
X103137500Y-51405000D01*
G75*
G02*
X102900000Y-51167500I0J237500D01*
G01*
G37*
G36*
G01*
X104400000Y-96667500D02*
X104400000Y-96192500D01*
G75*
G02*
X104637500Y-95955000I237500J0D01*
G01*
X105212500Y-95955000D01*
G75*
G02*
X105450000Y-96192500I0J-237500D01*
G01*
X105450000Y-96667500D01*
G75*
G02*
X105212500Y-96905000I-237500J0D01*
G01*
X104637500Y-96905000D01*
G75*
G02*
X104400000Y-96667500I0J237500D01*
G01*
G37*
G36*
G01*
X106150000Y-96667500D02*
X106150000Y-96192500D01*
G75*
G02*
X106387500Y-95955000I237500J0D01*
G01*
X106962500Y-95955000D01*
G75*
G02*
X107200000Y-96192500I0J-237500D01*
G01*
X107200000Y-96667500D01*
G75*
G02*
X106962500Y-96905000I-237500J0D01*
G01*
X106387500Y-96905000D01*
G75*
G02*
X106150000Y-96667500I0J237500D01*
G01*
G37*
G36*
G01*
X57900000Y-59167500D02*
X57900000Y-58692500D01*
G75*
G02*
X58137500Y-58455000I237500J0D01*
G01*
X58712500Y-58455000D01*
G75*
G02*
X58950000Y-58692500I0J-237500D01*
G01*
X58950000Y-59167500D01*
G75*
G02*
X58712500Y-59405000I-237500J0D01*
G01*
X58137500Y-59405000D01*
G75*
G02*
X57900000Y-59167500I0J237500D01*
G01*
G37*
G36*
G01*
X56150000Y-59167500D02*
X56150000Y-58692500D01*
G75*
G02*
X56387500Y-58455000I237500J0D01*
G01*
X56962500Y-58455000D01*
G75*
G02*
X57200000Y-58692500I0J-237500D01*
G01*
X57200000Y-59167500D01*
G75*
G02*
X56962500Y-59405000I-237500J0D01*
G01*
X56387500Y-59405000D01*
G75*
G02*
X56150000Y-59167500I0J237500D01*
G01*
G37*
G36*
G01*
X56150000Y-57367500D02*
X56150000Y-56892500D01*
G75*
G02*
X56387500Y-56655000I237500J0D01*
G01*
X56962500Y-56655000D01*
G75*
G02*
X57200000Y-56892500I0J-237500D01*
G01*
X57200000Y-57367500D01*
G75*
G02*
X56962500Y-57605000I-237500J0D01*
G01*
X56387500Y-57605000D01*
G75*
G02*
X56150000Y-57367500I0J237500D01*
G01*
G37*
G36*
G01*
X57900000Y-57367500D02*
X57900000Y-56892500D01*
G75*
G02*
X58137500Y-56655000I237500J0D01*
G01*
X58712500Y-56655000D01*
G75*
G02*
X58950000Y-56892500I0J-237500D01*
G01*
X58950000Y-57367500D01*
G75*
G02*
X58712500Y-57605000I-237500J0D01*
G01*
X58137500Y-57605000D01*
G75*
G02*
X57900000Y-57367500I0J237500D01*
G01*
G37*
D25*
X107750000Y-57030000D03*
X105210000Y-57030000D03*
D26*
X107750000Y-54490000D03*
X105210000Y-54490000D03*
D15*
X95830000Y-65240000D03*
D16*
X93290000Y-65240000D03*
X90750000Y-65240000D03*
X88210000Y-65240000D03*
X85670000Y-65240000D03*
X83130000Y-65240000D03*
X80590000Y-65240000D03*
X78050000Y-65240000D03*
X75510000Y-65240000D03*
X72970000Y-65240000D03*
X70430000Y-65240000D03*
X67890000Y-65240000D03*
X65350000Y-65240000D03*
X62810000Y-65240000D03*
X60270000Y-65240000D03*
D27*
X92800000Y-91930000D03*
X100050000Y-91930000D03*
X56050000Y-91930000D03*
X63300000Y-91930000D03*
D28*
X61925000Y-49855000D03*
X61925000Y-50805000D03*
X61925000Y-58505000D03*
X61925000Y-57405000D03*
X61925000Y-56305000D03*
X61925000Y-55205000D03*
X61925000Y-54105000D03*
X61925000Y-53005000D03*
X61925000Y-51905000D03*
D29*
X61925000Y-60055000D03*
X66225000Y-48905000D03*
D30*
X72425000Y-48905000D03*
D31*
X76575000Y-48905000D03*
D32*
X77025000Y-62405000D03*
D16*
X95830000Y-80610000D03*
X93290000Y-80610000D03*
X90750000Y-80610000D03*
X88210000Y-80610000D03*
X85670000Y-80610000D03*
X83130000Y-80610000D03*
X80590000Y-80610000D03*
X78050000Y-80610000D03*
X75510000Y-80610000D03*
X72970000Y-80610000D03*
X70430000Y-80610000D03*
X67890000Y-80610000D03*
X65350000Y-80610000D03*
X62810000Y-80610000D03*
D15*
X60270000Y-80610000D03*
D33*
X111950000Y-87330000D03*
X111950000Y-95730000D03*
D34*
X111950000Y-89530000D03*
X111950000Y-91530000D03*
X111950000Y-93530000D03*
M02*
