G04 #@! TF.GenerationSoftware,KiCad,Pcbnew,(5.1.6)-1*
G04 #@! TF.CreationDate,2020-08-01T00:51:36+09:00*
G04 #@! TF.ProjectId,MiniRoverShield,4d696e69-526f-4766-9572-536869656c64,rev?*
G04 #@! TF.SameCoordinates,Original*
G04 #@! TF.FileFunction,Profile,NP*
%FSLAX46Y46*%
G04 Gerber Fmt 4.6, Leading zero omitted, Abs format (unit mm)*
G04 Created by KiCad (PCBNEW (5.1.6)-1) date 2020-08-01 00:51:36*
%MOMM*%
%LPD*%
G01*
G04 APERTURE LIST*
G04 #@! TA.AperFunction,Profile*
%ADD10C,0.100000*%
G04 #@! TD*
G04 APERTURE END LIST*
D10*
X113800000Y-50430000D02*
G75*
G03*
X113800000Y-50430000I-750000J0D01*
G01*
X100257107Y-50430000D02*
G75*
G03*
X100257107Y-50430000I-707107J0D01*
G01*
X96800000Y-50430000D02*
G75*
G03*
X96800000Y-50430000I-750000J0D01*
G01*
X79550000Y-97930000D02*
X76550000Y-97930000D01*
X40883333Y-46930000D02*
G75*
G03*
X40883333Y-46930000I-333333J0D01*
G01*
X40050000Y-46930000D02*
X41050000Y-46930000D01*
X40550000Y-46430000D02*
X40550000Y-47430000D01*
X42546429Y-97927065D02*
G75*
G02*
X40546429Y-95927065I0J2000000D01*
G01*
X79550000Y-97930000D02*
X113550000Y-97930000D01*
X42546429Y-97927065D02*
X76550000Y-97930000D01*
X115549367Y-95927065D02*
G75*
G02*
X113550000Y-97930000I-2002938J0D01*
G01*
X66946429Y-67927065D02*
X41546429Y-67927065D01*
X40546429Y-84927065D02*
X41546429Y-84927065D01*
X114546429Y-77927065D02*
X114546429Y-84927065D01*
X40549361Y-48927065D02*
G75*
G02*
X42550000Y-46930000I1997068J0D01*
G01*
X114546429Y-84927065D02*
X115546429Y-84927065D01*
X114546429Y-67927065D02*
X89146429Y-67927065D01*
X115549988Y-48936505D02*
X115546429Y-60927065D01*
X108146429Y-81927065D02*
G75*
G03*
X108146429Y-81927065I-1100000J0D01*
G01*
X41546429Y-77927065D02*
X66946429Y-77927065D01*
X41546429Y-60927065D02*
X40546429Y-60927065D01*
X115546429Y-60927065D02*
X114546429Y-60927065D01*
X115546429Y-84927065D02*
X115549367Y-95927065D01*
X66946429Y-77927065D02*
X66946429Y-67927065D01*
X89146429Y-77927065D02*
X114546429Y-77927065D01*
X113500012Y-46930534D02*
G75*
G02*
X115549988Y-48936505I46405J-2003036D01*
G01*
X45146429Y-81927065D02*
G75*
G03*
X45146429Y-81927065I-1100000J0D01*
G01*
X41546429Y-67927065D02*
X41546429Y-60927065D01*
X114546429Y-60927065D02*
X114546429Y-67927065D01*
X41546429Y-84927065D02*
X41546429Y-77927065D01*
X40546429Y-60927065D02*
X40550000Y-48930000D01*
X40546429Y-95927065D02*
X40546429Y-84927065D01*
X89146429Y-67927065D02*
X89146429Y-77927065D01*
X42550000Y-46930000D02*
X113500000Y-46930000D01*
X113146429Y-63927065D02*
G75*
G03*
X113146429Y-63927065I-1100000J0D01*
G01*
X50146429Y-63927065D02*
G75*
G03*
X50146429Y-63927065I-1100000J0D01*
G01*
X113146429Y-81927065D02*
G75*
G03*
X113146429Y-81927065I-1100000J0D01*
G01*
X50146429Y-81927065D02*
G75*
G03*
X50146429Y-81927065I-1100000J0D01*
G01*
X108146429Y-63927065D02*
G75*
G03*
X108146429Y-63927065I-1100000J0D01*
G01*
X45146429Y-63927065D02*
G75*
G03*
X45146429Y-63927065I-1100000J0D01*
G01*
X79150000Y-87430000D02*
G75*
G03*
X79150000Y-87430000I-1100000J0D01*
G01*
X79150000Y-95430000D02*
G75*
G03*
X79150000Y-95430000I-1100000J0D01*
G01*
M02*
