G04 #@! TF.GenerationSoftware,KiCad,Pcbnew,(5.0.0)*
G04 #@! TF.CreationDate,2019-08-04T00:31:06+09:00*
G04 #@! TF.ProjectId,MiniRoverShield,4D696E69526F766572536869656C642E,rev?*
G04 #@! TF.SameCoordinates,Original*
G04 #@! TF.FileFunction,Profile,NP*
%FSLAX46Y46*%
G04 Gerber Fmt 4.6, Leading zero omitted, Abs format (unit mm)*
G04 Created by KiCad (PCBNEW (5.0.0)) date 08/04/19 00:31:06*
%MOMM*%
%LPD*%
G01*
G04 APERTURE LIST*
%ADD10C,0.100000*%
G04 APERTURE END LIST*
D10*
X40883333Y-46930000D02*
G75*
G03X40883333Y-46930000I-333333J0D01*
G01*
X40050000Y-46930000D02*
X41050000Y-46930000D01*
X40550000Y-46430000D02*
X40550000Y-47430000D01*
X42546429Y-97927065D02*
G75*
G02X40546429Y-95927065I0J2000000D01*
G01*
X79050000Y-105930000D02*
X81650000Y-105930000D01*
X79050000Y-97930000D02*
X79050000Y-105930000D01*
X77050000Y-105930000D02*
X77050000Y-97930000D01*
X74550000Y-105930000D02*
X77050000Y-105930000D01*
X74550000Y-107930000D02*
X81650000Y-107930000D01*
X79050000Y-97930000D02*
X113550000Y-97930000D01*
X42546429Y-97927065D02*
X77050000Y-97930000D01*
X74550000Y-102130000D02*
X74550000Y-105930000D01*
X81650000Y-102230000D02*
X81650000Y-105930000D01*
X81650000Y-112230000D02*
X81650000Y-107930000D01*
X74550000Y-112130000D02*
X74550000Y-107930000D01*
X81650000Y-102230000D02*
X85600000Y-102230000D01*
X85600000Y-101230000D02*
X105100000Y-101230000D01*
X85600000Y-112230000D02*
X81650000Y-112230000D01*
X85600000Y-102230000D02*
X85600000Y-101230000D01*
X85600000Y-113230000D02*
X85600000Y-112230000D01*
X105100000Y-101230000D02*
G75*
G02X107100000Y-103230000I0J-2000000D01*
G01*
X107100000Y-111230000D02*
G75*
G02X105100000Y-113230000I-2000000J0D01*
G01*
X105100000Y-113230000D02*
X85600000Y-113230000D01*
X107100000Y-103230000D02*
X107100000Y-111230000D01*
X49100000Y-111130000D02*
X49100000Y-103130000D01*
X51100000Y-113130000D02*
G75*
G02X49100000Y-111130000I0J2000000D01*
G01*
X70600000Y-113130000D02*
X51100000Y-113130000D01*
X51100000Y-101130000D02*
X70600000Y-101130000D01*
X70600000Y-112130000D02*
X70600000Y-113130000D01*
X49100000Y-103130000D02*
G75*
G02X51100000Y-101130000I2000000J0D01*
G01*
X70600000Y-102130000D02*
X74550000Y-102130000D01*
X74550000Y-112130000D02*
X70600000Y-112130000D01*
X70600000Y-101130000D02*
X70600000Y-102130000D01*
X98846429Y-51227065D02*
G75*
G02X99646429Y-50427065I800000J0D01*
G01*
X115546429Y-95927065D02*
G75*
G02X113546429Y-97927065I-2000000J0D01*
G01*
X56446429Y-50427065D02*
X56246429Y-50427065D01*
X57246429Y-61627065D02*
X57246429Y-51227065D01*
X66946429Y-67927065D02*
X41546429Y-67927065D01*
X40546429Y-84927065D02*
X41546429Y-84927065D01*
X114546429Y-77927065D02*
X114546429Y-84927065D01*
X56246429Y-62427065D02*
X56446429Y-62427065D01*
X40546429Y-48927065D02*
G75*
G02X42546429Y-46927065I2000000J0D01*
G01*
X114546429Y-84927065D02*
X115546429Y-84927065D01*
X114546429Y-67927065D02*
X89146429Y-67927065D01*
X115550000Y-48930000D02*
X115546429Y-60927065D01*
X99846429Y-50427065D02*
X99646429Y-50427065D01*
X100646429Y-61627065D02*
X100646429Y-51227065D01*
X108146429Y-81927065D02*
G75*
G03X108146429Y-81927065I-1100000J0D01*
G01*
X56446429Y-50427065D02*
G75*
G02X57246429Y-51227065I0J-800000D01*
G01*
X41546429Y-77927065D02*
X66946429Y-77927065D01*
X41546429Y-60927065D02*
X40546429Y-60927065D01*
X115546429Y-60927065D02*
X114546429Y-60927065D01*
X115546429Y-84927065D02*
X115546429Y-95927065D01*
X66946429Y-77927065D02*
X66946429Y-67927065D01*
X89146429Y-77927065D02*
X114546429Y-77927065D01*
X113550005Y-46927068D02*
G75*
G02X115546429Y-48927065I-3576J-1999997D01*
G01*
X45146429Y-81927065D02*
G75*
G03X45146429Y-81927065I-1100000J0D01*
G01*
X98846429Y-51227065D02*
X98846429Y-61627065D01*
X55446429Y-51227065D02*
G75*
G02X56246429Y-50427065I800000J0D01*
G01*
X57246429Y-61627065D02*
G75*
G02X56446429Y-62427065I-800000J0D01*
G01*
X56246429Y-62427065D02*
G75*
G02X55446429Y-61627065I0J800000D01*
G01*
X55446429Y-51227065D02*
X55446429Y-61627065D01*
X41546429Y-67927065D02*
X41546429Y-60927065D01*
X100646429Y-61627065D02*
G75*
G02X99846429Y-62427065I-800000J0D01*
G01*
X99646429Y-62427065D02*
G75*
G02X98846429Y-61627065I0J800000D01*
G01*
X114546429Y-60927065D02*
X114546429Y-67927065D01*
X41546429Y-84927065D02*
X41546429Y-77927065D01*
X99646429Y-62427065D02*
X99846429Y-62427065D01*
X40546429Y-60927065D02*
X40550000Y-48930000D01*
X40546429Y-95927065D02*
X40546429Y-84927065D01*
X89146429Y-67927065D02*
X89146429Y-77927065D01*
X42550000Y-46930000D02*
X113550000Y-46930000D01*
X99846429Y-50427065D02*
G75*
G02X100646429Y-51227065I0J-800000D01*
G01*
X113146429Y-63927065D02*
G75*
G03X113146429Y-63927065I-1100000J0D01*
G01*
X50146429Y-63927065D02*
G75*
G03X50146429Y-63927065I-1100000J0D01*
G01*
X113146429Y-81927065D02*
G75*
G03X113146429Y-81927065I-1100000J0D01*
G01*
X50146429Y-81927065D02*
G75*
G03X50146429Y-81927065I-1100000J0D01*
G01*
X108146429Y-63927065D02*
G75*
G03X108146429Y-63927065I-1100000J0D01*
G01*
X45146429Y-63927065D02*
G75*
G03X45146429Y-63927065I-1100000J0D01*
G01*
X79146429Y-86927065D02*
G75*
G03X79146429Y-86927065I-1100000J0D01*
G01*
X79146429Y-94927065D02*
G75*
G03X79146429Y-94927065I-1100000J0D01*
G01*
M02*
